%FSAX25Y25*%
%MOIN*%
G70*
G01*
G75*
G04 Layer_Physical_Order=2*
G04 Layer_Color=16711680*
%ADD10R,0.05402X0.02795*%
%ADD11R,0.02323X0.02795*%
%ADD12R,0.05512X0.08268*%
%ADD13O,0.08268X0.01772*%
%ADD14O,0.00945X0.02362*%
%ADD15O,0.02362X0.00945*%
%ADD16R,0.11024X0.11024*%
%ADD17O,0.06693X0.01378*%
%ADD18R,0.01000X0.01000*%
%ADD19R,0.04724X0.04724*%
%ADD20C,0.03937*%
%ADD21R,0.06299X0.08268*%
%ADD22R,0.07480X0.07087*%
%ADD23R,0.07480X0.07480*%
%ADD24R,0.05315X0.01575*%
%ADD25R,0.05906X0.13780*%
%ADD26R,0.04331X0.10236*%
%ADD27R,0.08000X0.04500*%
%ADD28R,0.05512X0.04331*%
%ADD29R,0.03347X0.03150*%
%ADD30R,0.01969X0.02362*%
%ADD31R,0.03150X0.03347*%
%ADD32R,0.04331X0.05512*%
%ADD33C,0.01000*%
%ADD34C,0.03000*%
%ADD35C,0.02000*%
%ADD36C,0.00800*%
%ADD37R,0.15157X0.17795*%
%ADD38C,0.07087*%
%ADD39R,0.07087X0.07087*%
%ADD40C,0.06000*%
%ADD41C,0.02500*%
%ADD42C,0.31496*%
%ADD43R,0.05906X0.05906*%
%ADD44C,0.05906*%
%ADD45C,0.08700*%
%ADD46C,0.06200*%
%ADD47R,0.06200X0.06200*%
%ADD48R,0.06496X0.06496*%
%ADD49C,0.06496*%
%ADD50R,0.05906X0.05906*%
%ADD51R,0.03740X0.03740*%
%ADD52C,0.03740*%
%ADD53R,0.05315X0.05315*%
%ADD54C,0.05315*%
%ADD55R,0.07087X0.07087*%
%ADD56C,0.02000*%
G36*
X0315200Y0284400D02*
X0327200D01*
Y0242400D01*
X0315200D01*
X0306200Y0233400D01*
X0294200D01*
Y0293400D01*
X0306200D01*
X0315200Y0284400D01*
D02*
G37*
G36*
X0383700Y0340900D02*
X0357200Y0314400D01*
Y0225400D01*
X0354200Y0222400D01*
Y0203400D01*
X0294200D01*
Y0227900D01*
X0323200D01*
X0333200Y0237900D01*
Y0288900D01*
X0323200Y0298900D01*
X0294200D01*
Y0323400D01*
X0298200Y0327400D01*
X0332259D01*
X0352200Y0347400D01*
Y0370400D01*
X0383700D01*
Y0340900D01*
D02*
G37*
G36*
X0258022Y0164391D02*
X0258342Y0164342D01*
X0258634Y0164264D01*
X0258770Y0164225D01*
X0258896Y0164187D01*
X0259013Y0164138D01*
X0259120Y0164099D01*
X0259207Y0164060D01*
X0259285Y0164021D01*
X0259344Y0163992D01*
X0259392Y0163973D01*
X0259421Y0163963D01*
X0259431Y0163953D01*
X0259723Y0163769D01*
X0259985Y0163555D01*
X0260209Y0163341D01*
X0260393Y0163127D01*
X0260471Y0163030D01*
X0260539Y0162942D01*
X0260597Y0162865D01*
X0260646Y0162787D01*
X0260685Y0162729D01*
X0260714Y0162690D01*
X0260724Y0162661D01*
X0260733Y0162651D01*
X0260811Y0162495D01*
X0260889Y0162340D01*
X0261006Y0162019D01*
X0261083Y0161727D01*
X0261112Y0161591D01*
X0261142Y0161455D01*
X0261161Y0161339D01*
X0261171Y0161232D01*
X0261190Y0161135D01*
Y0161047D01*
X0261200Y0160979D01*
Y0160930D01*
Y0160901D01*
Y0160891D01*
X0261190Y0160726D01*
X0261181Y0160551D01*
X0261132Y0160231D01*
X0261054Y0159939D01*
X0261015Y0159803D01*
X0260967Y0159677D01*
X0260928Y0159560D01*
X0260889Y0159453D01*
X0260850Y0159365D01*
X0260811Y0159288D01*
X0260782Y0159229D01*
X0260763Y0159181D01*
X0260743Y0159152D01*
Y0159142D01*
X0260549Y0158850D01*
X0260345Y0158588D01*
X0260121Y0158364D01*
X0260024Y0158267D01*
X0259917Y0158180D01*
X0259820Y0158102D01*
X0259732Y0158034D01*
X0259645Y0157975D01*
X0259577Y0157927D01*
X0259518Y0157888D01*
X0259480Y0157859D01*
X0259450Y0157849D01*
X0259441Y0157839D01*
X0259285Y0157762D01*
X0259120Y0157694D01*
X0258809Y0157577D01*
X0258517Y0157499D01*
X0258381Y0157460D01*
X0258245Y0157441D01*
X0258128Y0157421D01*
X0258022Y0157412D01*
X0257924Y0157392D01*
X0257837D01*
X0257769Y0157383D01*
X0257681D01*
X0257506Y0157392D01*
X0257341Y0157402D01*
X0257020Y0157451D01*
X0256729Y0157528D01*
X0256593Y0157567D01*
X0256466Y0157616D01*
X0256350Y0157655D01*
X0256243Y0157694D01*
X0256155Y0157732D01*
X0256078Y0157771D01*
X0256019Y0157800D01*
X0255971Y0157820D01*
X0255942Y0157839D01*
X0255932D01*
X0255640Y0158034D01*
X0255378Y0158238D01*
X0255154Y0158461D01*
X0255057Y0158559D01*
X0254970Y0158666D01*
X0254892Y0158763D01*
X0254824Y0158850D01*
X0254765Y0158938D01*
X0254717Y0159006D01*
X0254678Y0159064D01*
X0254649Y0159103D01*
X0254639Y0159132D01*
X0254629Y0159142D01*
X0254552Y0159297D01*
X0254474Y0159453D01*
X0254357Y0159764D01*
X0254279Y0160065D01*
X0254250Y0160201D01*
X0254221Y0160328D01*
X0254202Y0160454D01*
X0254182Y0160561D01*
X0254172Y0160658D01*
Y0160736D01*
X0254163Y0160804D01*
Y0160853D01*
Y0160882D01*
Y0160891D01*
X0254172Y0161066D01*
X0254182Y0161232D01*
X0254240Y0161552D01*
X0254309Y0161854D01*
X0254357Y0161990D01*
X0254396Y0162116D01*
X0254445Y0162233D01*
X0254484Y0162340D01*
X0254532Y0162427D01*
X0254561Y0162505D01*
X0254590Y0162563D01*
X0254620Y0162612D01*
X0254629Y0162641D01*
X0254639Y0162651D01*
X0254833Y0162952D01*
X0255047Y0163215D01*
X0255261Y0163438D01*
X0255368Y0163535D01*
X0255475Y0163623D01*
X0255572Y0163700D01*
X0255660Y0163769D01*
X0255747Y0163817D01*
X0255815Y0163866D01*
X0255873Y0163905D01*
X0255912Y0163934D01*
X0255942Y0163944D01*
X0255951Y0163953D01*
X0256107Y0164031D01*
X0256262Y0164109D01*
X0256573Y0164216D01*
X0256865Y0164303D01*
X0257127Y0164352D01*
X0257244Y0164371D01*
X0257351Y0164391D01*
X0257448Y0164400D01*
X0257526D01*
X0257594Y0164410D01*
X0257847D01*
X0258022Y0164391D01*
D02*
G37*
G36*
X0350671Y0370400D02*
Y0348032D01*
X0331624Y0328929D01*
X0299271D01*
X0299025Y0329237D01*
X0298786Y0329929D01*
X0299084Y0330376D01*
X0299239Y0331156D01*
Y0332040D01*
X0299602Y0332513D01*
X0299879Y0333182D01*
X0299974Y0333900D01*
X0299879Y0334618D01*
X0299602Y0335287D01*
X0299161Y0335861D01*
X0298587Y0336302D01*
X0297918Y0336579D01*
X0297200Y0336674D01*
X0296482Y0336579D01*
X0295813Y0336302D01*
X0295239Y0335861D01*
X0294798Y0335287D01*
X0294521Y0334618D01*
X0294426Y0333900D01*
X0294521Y0333182D01*
X0294798Y0332513D01*
X0295161Y0332040D01*
Y0332001D01*
X0292317Y0329157D01*
X0291726Y0329079D01*
X0291057Y0328802D01*
X0290483Y0328361D01*
X0290042Y0327787D01*
X0289765Y0327118D01*
X0289670Y0326400D01*
X0289765Y0325682D01*
X0290042Y0325013D01*
X0290483Y0324439D01*
X0290893Y0324124D01*
X0291057Y0323998D01*
X0291726Y0323721D01*
Y0323721D01*
X0291726D01*
X0292531Y0323250D01*
X0292671Y0322648D01*
Y0298900D01*
X0292787Y0298315D01*
X0293119Y0297819D01*
X0293615Y0297487D01*
X0294200Y0297371D01*
X0322567D01*
X0326498Y0293439D01*
X0326084Y0292439D01*
X0324695D01*
X0324631Y0292650D01*
X0324088Y0293666D01*
X0323357Y0294557D01*
X0322466Y0295288D01*
X0321449Y0295831D01*
X0320347Y0296165D01*
X0319200Y0296278D01*
X0318053Y0296165D01*
X0316950Y0295831D01*
X0315934Y0295288D01*
X0315043Y0294557D01*
X0314312Y0293666D01*
X0313769Y0292650D01*
X0313435Y0291547D01*
X0313322Y0290400D01*
X0313381Y0289796D01*
X0312421Y0289342D01*
X0307281Y0294481D01*
X0306785Y0294813D01*
X0306200Y0294929D01*
X0294200D01*
X0293615Y0294813D01*
X0293119Y0294481D01*
X0292787Y0293985D01*
X0292671Y0293400D01*
Y0233400D01*
X0292787Y0232815D01*
X0293119Y0232319D01*
X0293615Y0231987D01*
X0294200Y0231871D01*
X0306200D01*
X0306785Y0231987D01*
X0307281Y0232319D01*
X0312421Y0237458D01*
X0313381Y0237004D01*
X0313322Y0236400D01*
X0313435Y0235253D01*
X0313769Y0234151D01*
X0314312Y0233134D01*
X0315043Y0232243D01*
X0315934Y0231512D01*
X0316950Y0230969D01*
X0318053Y0230635D01*
X0319200Y0230522D01*
X0320347Y0230635D01*
X0321449Y0230969D01*
X0322466Y0231512D01*
X0323357Y0232243D01*
X0324088Y0233134D01*
X0324631Y0234151D01*
X0324965Y0235253D01*
X0325078Y0236400D01*
X0324965Y0237547D01*
X0324631Y0238650D01*
X0324088Y0239666D01*
X0323920Y0239871D01*
X0324393Y0240871D01*
X0327200D01*
X0327785Y0240987D01*
X0328281Y0241319D01*
X0328613Y0241815D01*
X0328729Y0242400D01*
Y0255213D01*
X0329200Y0255626D01*
X0329918Y0255721D01*
X0330587Y0255998D01*
X0330671Y0256062D01*
X0331671Y0255569D01*
Y0238533D01*
X0322567Y0229429D01*
X0294200D01*
X0293615Y0229313D01*
X0293119Y0228981D01*
X0292787Y0228485D01*
X0292671Y0227900D01*
Y0203400D01*
X0292787Y0202815D01*
X0293119Y0202319D01*
X0293615Y0201987D01*
X0294200Y0201871D01*
X0353597D01*
X0353601Y0201870D01*
X0354402Y0201004D01*
X0354426Y0200900D01*
X0354427Y0200896D01*
X0354521Y0200182D01*
X0354798Y0199513D01*
X0355239Y0198939D01*
X0355813Y0198498D01*
X0356482Y0198221D01*
X0357200Y0198126D01*
X0357918Y0198221D01*
X0358587Y0198498D01*
X0359161Y0198939D01*
X0359602Y0199513D01*
X0359879Y0200182D01*
X0359974Y0200900D01*
X0359879Y0201618D01*
X0359602Y0202287D01*
X0359239Y0202760D01*
Y0219540D01*
X0359602Y0220013D01*
X0359879Y0220682D01*
X0359974Y0221400D01*
X0359879Y0222118D01*
X0359602Y0222787D01*
X0359161Y0223361D01*
X0358922Y0223545D01*
X0358591Y0223945D01*
X0358613Y0224815D01*
X0358729Y0225400D01*
Y0313767D01*
X0384781Y0339819D01*
X0385113Y0340315D01*
X0385229Y0340900D01*
Y0346527D01*
X0386229Y0346760D01*
X0386231Y0346758D01*
X0387487Y0344878D01*
X0388978Y0343178D01*
X0390677Y0341687D01*
X0392558Y0340431D01*
X0394585Y0339431D01*
X0396726Y0338704D01*
X0398944Y0338263D01*
X0401200Y0338115D01*
X0403456Y0338263D01*
X0405674Y0338704D01*
X0407815Y0339431D01*
X0409842Y0340431D01*
X0411723Y0341687D01*
X0413422Y0343178D01*
X0414913Y0344878D01*
X0416169Y0346758D01*
X0416187Y0346793D01*
X0417161Y0346566D01*
Y0180234D01*
X0416187Y0180007D01*
X0416169Y0180043D01*
X0414913Y0181922D01*
X0413422Y0183622D01*
X0411723Y0185113D01*
X0409842Y0186369D01*
X0407815Y0187369D01*
X0405674Y0188096D01*
X0403456Y0188537D01*
X0401200Y0188685D01*
X0398944Y0188537D01*
X0396726Y0188096D01*
X0394585Y0187369D01*
X0392558Y0186369D01*
X0390677Y0185113D01*
X0388978Y0183622D01*
X0387487Y0181922D01*
X0386231Y0180043D01*
X0385231Y0178015D01*
X0384504Y0175874D01*
X0384063Y0173656D01*
X0383915Y0171400D01*
X0384031Y0169636D01*
X0383678Y0169454D01*
X0383047Y0169349D01*
X0382440Y0170140D01*
X0381491Y0170869D01*
X0380386Y0171326D01*
X0379700Y0171417D01*
Y0166900D01*
Y0162383D01*
X0380386Y0162474D01*
X0381491Y0162931D01*
X0382440Y0163660D01*
X0383169Y0164609D01*
X0383626Y0165714D01*
X0383692Y0166209D01*
X0384713Y0166309D01*
X0385231Y0164785D01*
X0386231Y0162758D01*
X0387487Y0160878D01*
X0388978Y0159178D01*
X0390677Y0157687D01*
X0392558Y0156431D01*
X0392593Y0156413D01*
X0392366Y0155439D01*
X0333654D01*
X0332700Y0155550D01*
Y0166548D01*
X0262721D01*
Y0166410D01*
X0252163D01*
Y0166398D01*
X0215403D01*
Y0155439D01*
X0158746D01*
X0158259Y0156439D01*
X0158584Y0157225D01*
X0158739Y0158400D01*
X0158584Y0159575D01*
X0158131Y0160669D01*
X0157409Y0161609D01*
X0156469Y0162331D01*
X0155375Y0162784D01*
X0154200Y0162939D01*
X0153025Y0162784D01*
X0152795Y0162689D01*
X0142239Y0173245D01*
Y0223400D01*
X0142084Y0224180D01*
X0141642Y0224842D01*
X0134739Y0231745D01*
Y0247540D01*
X0135102Y0248013D01*
X0135379Y0248682D01*
X0135474Y0249400D01*
X0135379Y0250118D01*
X0135102Y0250787D01*
X0134661Y0251361D01*
X0134087Y0251802D01*
X0133418Y0252079D01*
X0132942Y0252142D01*
X0132879Y0252618D01*
X0132602Y0253287D01*
X0132161Y0253861D01*
X0131587Y0254302D01*
X0130918Y0254579D01*
X0130200Y0254674D01*
X0129482Y0254579D01*
X0128813Y0254302D01*
X0128239Y0253861D01*
X0127798Y0253287D01*
X0127521Y0252618D01*
X0127426Y0251900D01*
X0127521Y0251182D01*
X0127798Y0250513D01*
X0128161Y0250040D01*
Y0233630D01*
X0127237Y0233247D01*
X0119739Y0240745D01*
Y0245040D01*
X0120102Y0245513D01*
X0120379Y0246182D01*
X0120474Y0246900D01*
X0120379Y0247618D01*
X0120102Y0248287D01*
X0119661Y0248861D01*
X0119087Y0249302D01*
X0118418Y0249579D01*
X0117700Y0249674D01*
X0116982Y0249579D01*
X0116313Y0249302D01*
X0115739Y0248861D01*
X0115298Y0248287D01*
X0115021Y0247618D01*
X0114926Y0246900D01*
X0115021Y0246182D01*
X0115298Y0245513D01*
X0115661Y0245040D01*
Y0243506D01*
X0114700Y0242674D01*
X0113982Y0242579D01*
X0113739Y0242479D01*
X0112739Y0243035D01*
Y0251561D01*
X0113739Y0252055D01*
X0113813Y0251998D01*
X0114482Y0251721D01*
X0115200Y0251626D01*
X0115918Y0251721D01*
X0116587Y0251998D01*
X0117161Y0252439D01*
X0117602Y0253013D01*
X0117874Y0253669D01*
X0118200Y0253626D01*
X0118918Y0253721D01*
X0119587Y0253998D01*
X0120161Y0254439D01*
X0120602Y0255013D01*
X0120879Y0255682D01*
X0120974Y0256400D01*
X0120879Y0257118D01*
X0120602Y0257787D01*
X0120239Y0258260D01*
Y0265238D01*
X0120968Y0266150D01*
X0121686Y0266245D01*
X0122355Y0266522D01*
X0122930Y0266963D01*
X0123370Y0267537D01*
X0123647Y0268206D01*
X0123742Y0268924D01*
X0123647Y0269642D01*
X0123517Y0269956D01*
Y0334112D01*
X0131272Y0341868D01*
X0131587Y0341998D01*
X0132161Y0342439D01*
X0132602Y0343013D01*
X0132879Y0343682D01*
X0132974Y0344400D01*
X0132879Y0345118D01*
X0132602Y0345787D01*
X0132161Y0346361D01*
X0131587Y0346802D01*
X0130918Y0347079D01*
X0130200Y0347174D01*
X0129482Y0347079D01*
X0128813Y0346802D01*
X0128239Y0346361D01*
X0127798Y0345787D01*
X0127668Y0345472D01*
X0122905Y0340710D01*
X0121163Y0338968D01*
X0120239Y0339351D01*
Y0351435D01*
X0124765Y0355961D01*
X0125221Y0355901D01*
X0126101Y0356017D01*
X0126920Y0356357D01*
X0127624Y0356897D01*
X0127817D01*
X0128521Y0356357D01*
X0129341Y0356017D01*
X0130221Y0355901D01*
X0131101Y0356017D01*
X0131920Y0356357D01*
X0132624Y0356897D01*
X0133165Y0357601D01*
X0133504Y0358421D01*
X0133620Y0359300D01*
X0133504Y0360180D01*
X0133165Y0361000D01*
X0132624Y0361704D01*
X0131920Y0362244D01*
X0131101Y0362584D01*
X0130221Y0362700D01*
X0129341Y0362584D01*
X0128521Y0362244D01*
X0127817Y0361704D01*
X0127624D01*
X0126920Y0362244D01*
X0126101Y0362584D01*
X0125221Y0362700D01*
X0124341Y0362584D01*
X0123521Y0362244D01*
X0122817Y0361704D01*
X0122624D01*
X0121920Y0362244D01*
X0121101Y0362584D01*
X0120221Y0362700D01*
X0119341Y0362584D01*
X0119029Y0362454D01*
X0118091Y0362171D01*
X0118091D01*
X0118091Y0362171D01*
X0118091Y0362171D01*
X0115721D01*
Y0359300D01*
Y0356430D01*
X0118053D01*
X0118303Y0356160D01*
X0118455Y0355418D01*
X0116758Y0353722D01*
X0116316Y0353060D01*
X0116161Y0352280D01*
Y0312130D01*
X0115237Y0311747D01*
X0109153Y0317831D01*
Y0323853D01*
X0100247D01*
Y0314947D01*
X0105907D01*
X0106088Y0314675D01*
X0105477Y0313789D01*
X0104700Y0313891D01*
X0103538Y0313738D01*
X0102454Y0313289D01*
X0101524Y0312576D01*
X0100811Y0311646D01*
X0100362Y0310562D01*
X0100209Y0309400D01*
X0100362Y0308238D01*
X0100811Y0307154D01*
X0101524Y0306224D01*
X0102454Y0305510D01*
X0103538Y0305062D01*
X0104700Y0304909D01*
X0105862Y0305062D01*
X0106946Y0305510D01*
X0107876Y0306224D01*
X0108506Y0307046D01*
X0108939Y0307051D01*
X0109554Y0306869D01*
X0110161Y0303469D01*
Y0299696D01*
X0109259Y0299637D01*
X0109201Y0299633D01*
X0109167Y0299631D01*
X0109161Y0299631D01*
X0109096Y0300123D01*
Y0300123D01*
X0109038Y0300562D01*
X0108589Y0301646D01*
X0107876Y0302576D01*
X0106946Y0303290D01*
X0105862Y0303738D01*
X0104700Y0303891D01*
X0103538Y0303738D01*
X0102454Y0303290D01*
X0101524Y0302576D01*
X0100811Y0301646D01*
X0100362Y0300562D01*
X0100209Y0299400D01*
X0100362Y0298238D01*
X0100447Y0298031D01*
X0093758Y0291342D01*
X0093316Y0290680D01*
X0093161Y0289900D01*
Y0272506D01*
X0092200Y0271674D01*
X0091482Y0271579D01*
X0090813Y0271302D01*
X0090239Y0270861D01*
X0089798Y0270287D01*
X0089521Y0269618D01*
X0089426Y0268900D01*
X0089521Y0268182D01*
X0089651Y0267868D01*
Y0261650D01*
Y0258432D01*
X0089521Y0258118D01*
X0089426Y0257400D01*
X0089521Y0256682D01*
X0089651Y0256368D01*
Y0250150D01*
Y0230932D01*
X0089521Y0230618D01*
X0089426Y0229900D01*
X0089521Y0229182D01*
X0089798Y0228513D01*
X0090239Y0227939D01*
X0090813Y0227498D01*
X0091482Y0227221D01*
X0092200Y0227126D01*
X0092918Y0227221D01*
X0093587Y0227498D01*
X0094161Y0227939D01*
X0094602Y0228513D01*
X0094879Y0229182D01*
X0094974Y0229900D01*
X0094879Y0230618D01*
X0094749Y0230932D01*
Y0249510D01*
X0095200Y0249906D01*
X0095918Y0250000D01*
X0096587Y0250277D01*
X0097161Y0250718D01*
X0097602Y0251293D01*
X0097879Y0251962D01*
X0097974Y0252679D01*
X0097879Y0253397D01*
X0097602Y0254066D01*
X0097239Y0254539D01*
Y0289055D01*
X0103331Y0295147D01*
X0103538Y0295062D01*
X0104700Y0294909D01*
X0105862Y0295062D01*
X0106946Y0295511D01*
X0107876Y0296224D01*
X0108589Y0297154D01*
X0109038Y0298238D01*
X0109096Y0298677D01*
Y0298677D01*
X0109161Y0299169D01*
X0109167Y0299169D01*
X0109201Y0299167D01*
X0109259Y0299163D01*
X0110161Y0299104D01*
Y0262260D01*
X0110062Y0262131D01*
X0109798Y0261787D01*
X0108918Y0261579D01*
X0108200Y0261674D01*
X0107482Y0261579D01*
X0106813Y0261302D01*
X0106239Y0260861D01*
X0105798Y0260287D01*
X0105521Y0259618D01*
X0105426Y0258900D01*
X0105521Y0258182D01*
X0105798Y0257513D01*
X0105909Y0257369D01*
X0106239Y0256361D01*
X0105798Y0255787D01*
X0105521Y0255118D01*
X0105426Y0254400D01*
X0105521Y0253682D01*
X0105798Y0253013D01*
X0106161Y0252540D01*
Y0239900D01*
X0106316Y0239120D01*
X0106758Y0238458D01*
X0117657Y0227559D01*
X0117739Y0226361D01*
X0117298Y0225787D01*
X0117021Y0225118D01*
X0116926Y0224400D01*
X0117021Y0223682D01*
X0117298Y0223013D01*
X0117661Y0222540D01*
Y0203400D01*
X0117816Y0202620D01*
X0118258Y0201958D01*
X0125443Y0194773D01*
X0125521Y0194182D01*
X0125798Y0193513D01*
X0126239Y0192939D01*
X0126813Y0192498D01*
X0127482Y0192221D01*
X0127702Y0192192D01*
X0127926Y0191900D01*
X0128021Y0191182D01*
X0128298Y0190513D01*
X0128739Y0189939D01*
X0129313Y0189498D01*
X0129982Y0189221D01*
X0130700Y0189126D01*
X0131161Y0189187D01*
X0131849Y0188771D01*
X0132161Y0188446D01*
Y0169245D01*
X0125605Y0162689D01*
X0125375Y0162784D01*
X0124200Y0162939D01*
X0123025Y0162784D01*
X0121931Y0162331D01*
X0120991Y0161609D01*
X0120269Y0160669D01*
X0119816Y0159575D01*
X0119661Y0158400D01*
X0119816Y0157225D01*
X0120141Y0156439D01*
X0119654Y0155439D01*
X0096034D01*
X0095807Y0156413D01*
X0095842Y0156431D01*
X0097723Y0157687D01*
X0099422Y0159178D01*
X0100913Y0160878D01*
X0102169Y0162758D01*
X0103169Y0164785D01*
X0103896Y0166926D01*
X0104337Y0169144D01*
X0104485Y0171400D01*
X0104337Y0173656D01*
X0103896Y0175874D01*
X0103169Y0178015D01*
X0102169Y0180043D01*
X0100913Y0181922D01*
X0099422Y0183622D01*
X0097723Y0185113D01*
X0095842Y0186369D01*
X0093815Y0187369D01*
X0091674Y0188096D01*
X0089456Y0188537D01*
X0087200Y0188685D01*
X0084944Y0188537D01*
X0082726Y0188096D01*
X0080585Y0187369D01*
X0078557Y0186369D01*
X0076678Y0185113D01*
X0074978Y0183622D01*
X0073487Y0181922D01*
X0072231Y0180043D01*
X0072213Y0180007D01*
X0071239Y0180234D01*
Y0347021D01*
X0072239Y0347254D01*
X0072731Y0346257D01*
X0073987Y0344377D01*
X0075478Y0342678D01*
X0077178Y0341187D01*
X0079058Y0339931D01*
X0081085Y0338931D01*
X0083226Y0338204D01*
X0085444Y0337763D01*
X0087700Y0337615D01*
X0089956Y0337763D01*
X0092174Y0338204D01*
X0094315Y0338931D01*
X0096342Y0339931D01*
X0098223Y0341187D01*
X0099922Y0342678D01*
X0101413Y0344377D01*
X0102669Y0346257D01*
X0103669Y0348285D01*
X0104396Y0350426D01*
X0104837Y0352644D01*
X0104985Y0354900D01*
X0104837Y0357156D01*
X0104396Y0359374D01*
X0103669Y0361515D01*
X0102669Y0363543D01*
X0101413Y0365423D01*
X0099922Y0367122D01*
X0098223Y0368613D01*
X0096342Y0369869D01*
X0095346Y0370361D01*
X0095579Y0371361D01*
X0349927D01*
X0350671Y0370400D01*
D02*
G37*
%LPC*%
G36*
X0257700Y0178119D02*
Y0174400D01*
X0261419D01*
X0261339Y0175009D01*
X0260911Y0176042D01*
X0260230Y0176930D01*
X0259342Y0177611D01*
X0258309Y0178039D01*
X0257868Y0178097D01*
X0257868D01*
X0257700Y0178119D01*
D02*
G37*
G36*
X0319200Y0188278D02*
X0318053Y0188165D01*
X0316950Y0187831D01*
X0315934Y0187288D01*
X0315043Y0186557D01*
X0314312Y0185666D01*
X0313769Y0184650D01*
X0313435Y0183547D01*
X0313322Y0182400D01*
X0313435Y0181253D01*
X0313769Y0180150D01*
X0314312Y0179134D01*
X0315043Y0178243D01*
X0315934Y0177512D01*
X0316950Y0176969D01*
X0318053Y0176635D01*
X0319200Y0176522D01*
X0320347Y0176635D01*
X0321449Y0176969D01*
X0322466Y0177512D01*
X0323357Y0178243D01*
X0324088Y0179134D01*
X0324631Y0180150D01*
X0324965Y0181253D01*
X0325078Y0182400D01*
X0324965Y0183547D01*
X0324631Y0184650D01*
X0324088Y0185666D01*
X0323357Y0186557D01*
X0322466Y0187288D01*
X0321449Y0187831D01*
X0320347Y0188165D01*
X0319200Y0188278D01*
D02*
G37*
G36*
X0261419Y0173400D02*
X0257700D01*
Y0169681D01*
X0258309Y0169761D01*
X0259342Y0170189D01*
X0260230Y0170870D01*
X0260911Y0171758D01*
X0261339Y0172791D01*
X0261419Y0173400D01*
D02*
G37*
G36*
X0256700Y0178119D02*
X0256532Y0178097D01*
X0256532D01*
X0256091Y0178039D01*
X0255058Y0177611D01*
X0254170Y0176930D01*
X0253489Y0176042D01*
X0253061Y0175009D01*
X0253003Y0174568D01*
Y0174568D01*
X0252981Y0174400D01*
X0256700D01*
Y0178119D01*
D02*
G37*
G36*
X0193700Y0217900D02*
X0190130D01*
X0190206Y0217330D01*
X0190619Y0216332D01*
X0191276Y0215476D01*
X0192132Y0214819D01*
X0193130Y0214405D01*
X0193700Y0214331D01*
Y0217900D01*
D02*
G37*
G36*
Y0222469D02*
X0193130Y0222394D01*
X0192132Y0221981D01*
X0191276Y0221324D01*
X0190619Y0220468D01*
X0190206Y0219470D01*
X0190130Y0218900D01*
X0193700D01*
Y0222469D01*
D02*
G37*
G36*
X0114721Y0358801D02*
X0112351D01*
Y0356430D01*
X0114721D01*
Y0358801D01*
D02*
G37*
G36*
X0093200Y0224674D02*
X0092482Y0224579D01*
X0091813Y0224302D01*
X0091239Y0223861D01*
X0090798Y0223287D01*
X0090521Y0222618D01*
X0090426Y0221900D01*
X0090521Y0221182D01*
X0090798Y0220513D01*
X0091161Y0220040D01*
Y0216760D01*
X0090798Y0216287D01*
X0090521Y0215618D01*
X0090426Y0214900D01*
X0090521Y0214182D01*
X0090798Y0213513D01*
X0091239Y0212939D01*
X0091813Y0212498D01*
X0092482Y0212221D01*
X0093200Y0212126D01*
X0093918Y0212221D01*
X0094587Y0212498D01*
X0095161Y0212939D01*
X0095602Y0213513D01*
X0095879Y0214182D01*
X0095974Y0214900D01*
X0095879Y0215618D01*
X0095602Y0216287D01*
X0095239Y0216760D01*
Y0220040D01*
X0095602Y0220513D01*
X0095879Y0221182D01*
X0095974Y0221900D01*
X0095879Y0222618D01*
X0095602Y0223287D01*
X0095161Y0223861D01*
X0094587Y0224302D01*
X0093918Y0224579D01*
X0093200Y0224674D01*
D02*
G37*
G36*
X0338700Y0166400D02*
X0334683D01*
X0334774Y0165714D01*
X0335231Y0164609D01*
X0335960Y0163660D01*
X0336909Y0162931D01*
X0338014Y0162474D01*
X0338700Y0162383D01*
Y0166400D01*
D02*
G37*
G36*
X0343717D02*
X0339700D01*
Y0162383D01*
X0340386Y0162474D01*
X0341491Y0162931D01*
X0342440Y0163660D01*
X0343169Y0164609D01*
X0343626Y0165714D01*
X0343717Y0166400D01*
D02*
G37*
G36*
X0114721Y0362171D02*
X0112351D01*
Y0359801D01*
X0114721D01*
Y0362171D01*
D02*
G37*
G36*
X0257749Y0163710D02*
X0257681D01*
X0257419Y0163691D01*
X0257166Y0163652D01*
X0256933Y0163594D01*
X0256719Y0163526D01*
X0256632Y0163487D01*
X0256544Y0163458D01*
X0256476Y0163428D01*
X0256418Y0163399D01*
X0256369Y0163380D01*
X0256330Y0163360D01*
X0256311Y0163341D01*
X0256301D01*
X0256068Y0163195D01*
X0255854Y0163030D01*
X0255669Y0162855D01*
X0255523Y0162690D01*
X0255407Y0162534D01*
X0255358Y0162466D01*
X0255319Y0162417D01*
X0255290Y0162369D01*
X0255271Y0162330D01*
X0255251Y0162311D01*
Y0162301D01*
X0255125Y0162048D01*
X0255028Y0161795D01*
X0254960Y0161562D01*
X0254911Y0161348D01*
X0254892Y0161251D01*
X0254882Y0161164D01*
X0254872Y0161086D01*
Y0161018D01*
X0254863Y0160959D01*
Y0160921D01*
Y0160901D01*
Y0160891D01*
X0254882Y0160619D01*
X0254921Y0160367D01*
X0254979Y0160133D01*
X0255047Y0159920D01*
X0255086Y0159822D01*
X0255125Y0159745D01*
X0255154Y0159667D01*
X0255183Y0159608D01*
X0255203Y0159560D01*
X0255222Y0159521D01*
X0255242Y0159502D01*
Y0159492D01*
X0255387Y0159258D01*
X0255562Y0159045D01*
X0255737Y0158870D01*
X0255903Y0158724D01*
X0256048Y0158607D01*
X0256116Y0158559D01*
X0256175Y0158520D01*
X0256214Y0158491D01*
X0256253Y0158471D01*
X0256272Y0158452D01*
X0256282D01*
X0256534Y0158325D01*
X0256787Y0158238D01*
X0257020Y0158170D01*
X0257234Y0158131D01*
X0257331Y0158112D01*
X0257419Y0158102D01*
X0257487Y0158092D01*
X0257555D01*
X0257613Y0158082D01*
X0257681D01*
X0257954Y0158102D01*
X0258216Y0158141D01*
X0258449Y0158199D01*
X0258663Y0158267D01*
X0258760Y0158306D01*
X0258838Y0158335D01*
X0258916Y0158364D01*
X0258974Y0158393D01*
X0259023Y0158423D01*
X0259062Y0158432D01*
X0259081Y0158452D01*
X0259091D01*
X0259324Y0158607D01*
X0259538Y0158773D01*
X0259713Y0158948D01*
X0259859Y0159113D01*
X0259975Y0159258D01*
X0260024Y0159327D01*
X0260063Y0159385D01*
X0260092Y0159424D01*
X0260111Y0159463D01*
X0260131Y0159482D01*
Y0159492D01*
X0260257Y0159745D01*
X0260345Y0159997D01*
X0260413Y0160231D01*
X0260452Y0160444D01*
X0260471Y0160541D01*
X0260481Y0160629D01*
X0260490Y0160707D01*
Y0160765D01*
X0260500Y0160823D01*
Y0160862D01*
Y0160882D01*
Y0160891D01*
X0260481Y0161164D01*
X0260442Y0161426D01*
X0260384Y0161659D01*
X0260306Y0161873D01*
X0260277Y0161970D01*
X0260238Y0162048D01*
X0260209Y0162126D01*
X0260179Y0162184D01*
X0260160Y0162233D01*
X0260140Y0162272D01*
X0260121Y0162291D01*
Y0162301D01*
X0259966Y0162544D01*
X0259800Y0162748D01*
X0259625Y0162933D01*
X0259460Y0163078D01*
X0259314Y0163195D01*
X0259246Y0163234D01*
X0259188Y0163273D01*
X0259149Y0163302D01*
X0259110Y0163321D01*
X0259091Y0163341D01*
X0259081D01*
X0258828Y0163467D01*
X0258576Y0163555D01*
X0258342Y0163623D01*
X0258128Y0163662D01*
X0258031Y0163681D01*
X0257944Y0163691D01*
X0257866Y0163700D01*
X0257808D01*
X0257749Y0163710D01*
D02*
G37*
G36*
X0378700Y0166400D02*
X0374683D01*
X0374774Y0165714D01*
X0375231Y0164609D01*
X0375960Y0163660D01*
X0376909Y0162931D01*
X0378014Y0162474D01*
X0378700Y0162383D01*
Y0166400D01*
D02*
G37*
G36*
Y0171417D02*
X0378014Y0171326D01*
X0376909Y0170869D01*
X0375960Y0170140D01*
X0375231Y0169191D01*
X0374774Y0168086D01*
X0374683Y0167400D01*
X0378700D01*
Y0171417D01*
D02*
G37*
G36*
X0256700Y0173400D02*
X0252981D01*
X0253003Y0173232D01*
Y0173232D01*
X0253061Y0172791D01*
X0253489Y0171758D01*
X0254170Y0170870D01*
X0255058Y0170189D01*
X0256091Y0169761D01*
X0256700Y0169681D01*
Y0173400D01*
D02*
G37*
G36*
X0338700Y0171417D02*
X0338014Y0171326D01*
X0336909Y0170869D01*
X0335960Y0170140D01*
X0335231Y0169191D01*
X0334774Y0168086D01*
X0334683Y0167400D01*
X0338700D01*
Y0171417D01*
D02*
G37*
G36*
X0339700D02*
Y0167400D01*
X0343717D01*
X0343626Y0168086D01*
X0343169Y0169191D01*
X0342440Y0170140D01*
X0341491Y0170869D01*
X0340386Y0171326D01*
X0339700Y0171417D01*
D02*
G37*
G36*
X0193700Y0227900D02*
X0190130D01*
X0190206Y0227330D01*
X0190619Y0226332D01*
X0191276Y0225476D01*
X0192132Y0224819D01*
X0193130Y0224406D01*
X0193700Y0224330D01*
Y0227900D01*
D02*
G37*
G36*
X0162700Y0355593D02*
X0161615Y0355451D01*
X0160603Y0355032D01*
X0159735Y0354365D01*
X0159069Y0353497D01*
X0158650Y0352485D01*
X0158507Y0351400D01*
X0158650Y0350315D01*
X0159069Y0349303D01*
X0159735Y0348435D01*
X0160603Y0347768D01*
X0161615Y0347350D01*
X0162700Y0347207D01*
X0163785Y0347350D01*
X0164797Y0347768D01*
X0165665Y0348435D01*
X0166332Y0349303D01*
X0166751Y0350315D01*
X0166893Y0351400D01*
X0166751Y0352485D01*
X0166332Y0353497D01*
X0165665Y0354365D01*
X0164797Y0355032D01*
X0163785Y0355451D01*
X0162700Y0355593D01*
D02*
G37*
G36*
X0156858Y0355557D02*
X0148542D01*
Y0347242D01*
X0156858D01*
Y0355557D01*
D02*
G37*
G36*
X0246700Y0309174D02*
X0245982Y0309079D01*
X0245313Y0308802D01*
X0244739Y0308361D01*
X0244298Y0307787D01*
X0244021Y0307118D01*
X0243926Y0306400D01*
X0244021Y0305682D01*
X0244298Y0305013D01*
X0244739Y0304439D01*
X0245313Y0303998D01*
X0245982Y0303721D01*
X0246700Y0303626D01*
X0247418Y0303721D01*
X0248087Y0303998D01*
X0248661Y0304439D01*
X0249102Y0305013D01*
X0249379Y0305682D01*
X0249474Y0306400D01*
X0249379Y0307118D01*
X0249102Y0307787D01*
X0248661Y0308361D01*
X0248087Y0308802D01*
X0247418Y0309079D01*
X0246700Y0309174D01*
D02*
G37*
G36*
X0319200Y0350278D02*
X0318053Y0350165D01*
X0316950Y0349831D01*
X0315934Y0349288D01*
X0315043Y0348557D01*
X0314312Y0347666D01*
X0313769Y0346650D01*
X0313435Y0345547D01*
X0313322Y0344400D01*
X0313435Y0343253D01*
X0313769Y0342150D01*
X0314312Y0341134D01*
X0315043Y0340243D01*
X0315934Y0339512D01*
X0316950Y0338969D01*
X0318053Y0338635D01*
X0319200Y0338522D01*
X0320347Y0338635D01*
X0321449Y0338969D01*
X0322466Y0339512D01*
X0323357Y0340243D01*
X0324088Y0341134D01*
X0324631Y0342150D01*
X0324965Y0343253D01*
X0325078Y0344400D01*
X0324965Y0345547D01*
X0324631Y0346650D01*
X0324088Y0347666D01*
X0323357Y0348557D01*
X0322466Y0349288D01*
X0321449Y0349831D01*
X0320347Y0350165D01*
X0319200Y0350278D01*
D02*
G37*
G36*
X0172200Y0355023D02*
X0171745Y0354963D01*
X0170855Y0354595D01*
X0170091Y0354009D01*
X0169505Y0353244D01*
X0169137Y0352355D01*
X0169077Y0351900D01*
X0172200D01*
Y0355023D01*
D02*
G37*
G36*
X0173200D02*
Y0351900D01*
X0176323D01*
X0176263Y0352355D01*
X0175895Y0353244D01*
X0175309Y0354009D01*
X0174545Y0354595D01*
X0173655Y0354963D01*
X0173200Y0355023D01*
D02*
G37*
G36*
X0172200Y0350900D02*
X0169077D01*
X0169137Y0350445D01*
X0169505Y0349555D01*
X0170091Y0348791D01*
X0170855Y0348205D01*
X0171745Y0347837D01*
X0172200Y0347777D01*
Y0350900D01*
D02*
G37*
G36*
X0176323D02*
X0173200D01*
Y0347777D01*
X0173655Y0347837D01*
X0174545Y0348205D01*
X0175309Y0348791D01*
X0175895Y0349555D01*
X0176263Y0350445D01*
X0176323Y0350900D01*
D02*
G37*
G36*
X0236200Y0282174D02*
X0235482Y0282079D01*
X0234813Y0281802D01*
X0234239Y0281361D01*
X0233798Y0280787D01*
X0233521Y0280118D01*
X0233426Y0279400D01*
X0233521Y0278682D01*
X0233798Y0278013D01*
X0234239Y0277439D01*
X0234813Y0276998D01*
X0235482Y0276721D01*
X0236200Y0276626D01*
X0236918Y0276721D01*
X0237587Y0276998D01*
X0238161Y0277439D01*
X0238602Y0278013D01*
X0238879Y0278682D01*
X0238974Y0279400D01*
X0238879Y0280118D01*
X0238602Y0280787D01*
X0238161Y0281361D01*
X0237587Y0281802D01*
X0236918Y0282079D01*
X0236200Y0282174D01*
D02*
G37*
G36*
X0367200Y0252778D02*
X0366053Y0252665D01*
X0364950Y0252331D01*
X0363934Y0251788D01*
X0363043Y0251057D01*
X0362312Y0250166D01*
X0361769Y0249149D01*
X0361435Y0248047D01*
X0361322Y0246900D01*
X0361435Y0245753D01*
X0361769Y0244651D01*
X0362312Y0243634D01*
X0363043Y0242743D01*
X0363934Y0242012D01*
X0364950Y0241469D01*
X0366053Y0241135D01*
X0367200Y0241022D01*
X0368347Y0241135D01*
X0369449Y0241469D01*
X0370466Y0242012D01*
X0371357Y0242743D01*
X0372088Y0243634D01*
X0372631Y0244651D01*
X0372965Y0245753D01*
X0373078Y0246900D01*
X0372965Y0248047D01*
X0372631Y0249149D01*
X0372088Y0250166D01*
X0371357Y0251057D01*
X0370466Y0251788D01*
X0369449Y0252331D01*
X0368347Y0252665D01*
X0367200Y0252778D01*
D02*
G37*
G36*
X0406743Y0258101D02*
X0396657D01*
Y0248014D01*
X0406743D01*
Y0258101D01*
D02*
G37*
G36*
X0193700Y0232470D02*
X0193130Y0232395D01*
X0192132Y0231981D01*
X0191276Y0231324D01*
X0190619Y0230468D01*
X0190206Y0229470D01*
X0190130Y0228900D01*
X0193700D01*
Y0232470D01*
D02*
G37*
G36*
X0156200Y0301174D02*
X0155482Y0301079D01*
X0154813Y0300802D01*
X0154239Y0300361D01*
X0153798Y0299787D01*
X0153521Y0299118D01*
X0153443Y0298527D01*
X0149758Y0294842D01*
X0149316Y0294180D01*
X0149161Y0293400D01*
Y0271578D01*
X0148700Y0271174D01*
X0147982Y0271079D01*
X0147313Y0270802D01*
X0146739Y0270361D01*
X0146298Y0269787D01*
X0146021Y0269118D01*
X0145926Y0268400D01*
X0146021Y0267682D01*
X0146298Y0267013D01*
X0146661Y0266540D01*
Y0236760D01*
X0146298Y0236287D01*
X0146021Y0235618D01*
X0145926Y0234900D01*
X0146021Y0234182D01*
X0146298Y0233513D01*
X0146739Y0232939D01*
X0147313Y0232498D01*
X0147982Y0232221D01*
X0148700Y0232126D01*
X0149418Y0232221D01*
X0150087Y0232498D01*
X0150661Y0232939D01*
X0151102Y0233513D01*
X0151379Y0234182D01*
X0151474Y0234900D01*
X0151379Y0235618D01*
X0151102Y0236287D01*
X0150739Y0236760D01*
Y0240407D01*
X0151739Y0240506D01*
X0151816Y0240120D01*
X0152258Y0239458D01*
X0153443Y0238273D01*
X0153521Y0237682D01*
X0153798Y0237013D01*
X0154239Y0236439D01*
X0154813Y0235998D01*
X0155482Y0235721D01*
X0156200Y0235626D01*
X0156918Y0235721D01*
X0157587Y0235998D01*
X0158161Y0236439D01*
X0158602Y0237013D01*
X0158879Y0237682D01*
X0158974Y0238400D01*
X0158879Y0239118D01*
X0158602Y0239787D01*
X0158161Y0240361D01*
X0157587Y0240802D01*
X0156918Y0241079D01*
X0156327Y0241157D01*
X0155739Y0241745D01*
Y0246222D01*
X0156200Y0246626D01*
X0156918Y0246721D01*
X0157587Y0246998D01*
X0158161Y0247439D01*
X0158602Y0248013D01*
X0158879Y0248682D01*
X0158974Y0249400D01*
X0158879Y0250118D01*
X0158602Y0250787D01*
X0158239Y0251260D01*
Y0286540D01*
X0158602Y0287013D01*
X0158879Y0287682D01*
X0158974Y0288400D01*
X0158879Y0289118D01*
X0158602Y0289787D01*
X0158161Y0290361D01*
X0157587Y0290802D01*
X0156918Y0291079D01*
X0156200Y0291174D01*
X0155482Y0291079D01*
X0154813Y0290802D01*
X0154239Y0290361D01*
X0153239Y0290701D01*
Y0292555D01*
X0156327Y0295643D01*
X0156918Y0295721D01*
X0157587Y0295998D01*
X0158161Y0296439D01*
X0158602Y0297013D01*
X0158879Y0297682D01*
X0158974Y0298400D01*
X0158879Y0299118D01*
X0158602Y0299787D01*
X0158161Y0300361D01*
X0157587Y0300802D01*
X0156918Y0301079D01*
X0156200Y0301174D01*
D02*
G37*
G36*
X0191700Y0367174D02*
X0190982Y0367079D01*
X0190313Y0366802D01*
X0189739Y0366361D01*
X0189298Y0365787D01*
X0189021Y0365118D01*
X0188926Y0364400D01*
X0189021Y0363682D01*
X0189298Y0363013D01*
X0189739Y0362439D01*
X0190313Y0361998D01*
X0190982Y0361721D01*
X0191573Y0361643D01*
X0192161Y0361055D01*
Y0313000D01*
X0189600D01*
Y0303800D01*
X0192603D01*
X0192802Y0302800D01*
X0191880Y0302418D01*
X0190919Y0301681D01*
X0190182Y0300720D01*
X0189718Y0299601D01*
X0189560Y0298400D01*
X0189718Y0297199D01*
X0190182Y0296080D01*
X0190919Y0295119D01*
X0191880Y0294382D01*
X0192999Y0293918D01*
X0193106Y0293904D01*
Y0292896D01*
X0192999Y0292882D01*
X0191880Y0292418D01*
X0190919Y0291681D01*
X0190182Y0290720D01*
X0189718Y0289601D01*
X0189560Y0288400D01*
X0189718Y0287199D01*
X0190182Y0286080D01*
X0190919Y0285119D01*
X0191880Y0284382D01*
X0192999Y0283918D01*
X0193106Y0283904D01*
Y0282896D01*
X0192999Y0282882D01*
X0191880Y0282418D01*
X0190919Y0281681D01*
X0190182Y0280720D01*
X0189718Y0279601D01*
X0189560Y0278400D01*
X0189718Y0277199D01*
X0190182Y0276080D01*
X0190919Y0275119D01*
X0191880Y0274382D01*
X0192999Y0273918D01*
X0193106Y0273904D01*
Y0272896D01*
X0192999Y0272882D01*
X0191880Y0272418D01*
X0190919Y0271681D01*
X0190182Y0270720D01*
X0189718Y0269601D01*
X0189560Y0268400D01*
X0189718Y0267199D01*
X0190182Y0266080D01*
X0190919Y0265119D01*
X0191880Y0264382D01*
X0192999Y0263918D01*
X0193106Y0263904D01*
Y0262896D01*
X0192999Y0262882D01*
X0191880Y0262418D01*
X0190919Y0261681D01*
X0190182Y0260720D01*
X0189718Y0259601D01*
X0189560Y0258400D01*
X0189718Y0257199D01*
X0190182Y0256080D01*
X0190919Y0255119D01*
X0191880Y0254382D01*
X0192999Y0253918D01*
X0193106Y0253904D01*
Y0252896D01*
X0192999Y0252882D01*
X0191880Y0252418D01*
X0190919Y0251681D01*
X0190182Y0250720D01*
X0189718Y0249601D01*
X0189560Y0248400D01*
X0189718Y0247199D01*
X0190182Y0246080D01*
X0190919Y0245119D01*
X0191880Y0244382D01*
X0192999Y0243918D01*
X0193106Y0243904D01*
Y0242896D01*
X0192999Y0242882D01*
X0191880Y0242418D01*
X0190919Y0241681D01*
X0190182Y0240720D01*
X0189718Y0239601D01*
X0189560Y0238400D01*
X0189718Y0237199D01*
X0190182Y0236080D01*
X0190919Y0235119D01*
X0191880Y0234382D01*
X0192999Y0233918D01*
X0194200Y0233760D01*
X0195401Y0233918D01*
X0196520Y0234382D01*
X0197481Y0235119D01*
X0197661Y0235354D01*
X0198661Y0235014D01*
Y0230895D01*
X0198267Y0230704D01*
X0197661Y0230625D01*
X0197124Y0231324D01*
X0196268Y0231981D01*
X0195270Y0232395D01*
X0194700Y0232470D01*
Y0228400D01*
Y0224330D01*
X0195270Y0224406D01*
X0196268Y0224819D01*
X0197124Y0225476D01*
X0197661Y0226175D01*
X0198267Y0226096D01*
X0198661Y0225905D01*
Y0220895D01*
X0198267Y0220704D01*
X0197661Y0220625D01*
X0197124Y0221324D01*
X0196268Y0221981D01*
X0195270Y0222394D01*
X0194700Y0222469D01*
Y0218400D01*
Y0214331D01*
X0195270Y0214405D01*
X0196268Y0214819D01*
X0197124Y0215476D01*
X0197661Y0216175D01*
X0198267Y0216096D01*
X0198661Y0215905D01*
Y0180400D01*
X0198816Y0179620D01*
X0199258Y0178958D01*
X0202452Y0175764D01*
Y0169152D01*
X0211948D01*
Y0171559D01*
X0212948Y0171758D01*
X0213053Y0171505D01*
X0213814Y0170514D01*
X0214806Y0169753D01*
X0215961Y0169274D01*
X0217200Y0169111D01*
X0218440Y0169274D01*
X0219595Y0169753D01*
X0220586Y0170514D01*
X0221347Y0171505D01*
X0221659Y0172257D01*
X0222741D01*
X0223053Y0171505D01*
X0223814Y0170514D01*
X0224805Y0169753D01*
X0225960Y0169274D01*
X0227200Y0169111D01*
X0228439Y0169274D01*
X0229594Y0169753D01*
X0230586Y0170514D01*
X0231347Y0171505D01*
X0231659Y0172257D01*
X0232741D01*
X0233053Y0171505D01*
X0233814Y0170514D01*
X0234805Y0169753D01*
X0235961Y0169274D01*
X0237200Y0169111D01*
X0238439Y0169274D01*
X0239595Y0169753D01*
X0240586Y0170514D01*
X0241347Y0171505D01*
X0241659Y0172257D01*
X0242741D01*
X0243053Y0171505D01*
X0243814Y0170514D01*
X0244806Y0169753D01*
X0245960Y0169274D01*
X0247200Y0169111D01*
X0248440Y0169274D01*
X0249594Y0169753D01*
X0250586Y0170514D01*
X0251347Y0171505D01*
X0251826Y0172661D01*
X0251901Y0173232D01*
Y0173232D01*
X0251948Y0173587D01*
X0251952D01*
X0251981D01*
X0252032D01*
X0252477D01*
Y0174213D01*
X0252032D01*
X0251981D01*
X0251952D01*
X0251948D01*
X0251901Y0174568D01*
Y0174568D01*
X0251826Y0175139D01*
X0251347Y0176295D01*
X0250586Y0177286D01*
X0249594Y0178047D01*
X0248843Y0178359D01*
Y0179441D01*
X0249594Y0179753D01*
X0250586Y0180514D01*
X0251347Y0181506D01*
X0251659Y0182257D01*
X0252741D01*
X0253053Y0181506D01*
X0253814Y0180514D01*
X0254805Y0179753D01*
X0255960Y0179274D01*
X0256532Y0179199D01*
X0256532D01*
X0256887Y0179152D01*
Y0179148D01*
Y0179119D01*
Y0179068D01*
Y0178623D01*
X0257513D01*
Y0179068D01*
Y0179119D01*
Y0179148D01*
Y0179152D01*
X0257868Y0179199D01*
X0257868D01*
X0258439Y0179274D01*
X0259594Y0179753D01*
X0260586Y0180514D01*
X0261347Y0181506D01*
X0261826Y0182660D01*
X0261989Y0183900D01*
X0261826Y0185140D01*
X0261347Y0186294D01*
X0260586Y0187286D01*
X0259594Y0188047D01*
X0258439Y0188526D01*
X0257200Y0188689D01*
X0255960Y0188526D01*
X0254805Y0188047D01*
X0253814Y0187286D01*
X0253053Y0186294D01*
X0252741Y0185543D01*
X0251659D01*
X0251347Y0186294D01*
X0250586Y0187286D01*
X0249594Y0188047D01*
X0248440Y0188526D01*
X0247200Y0188689D01*
X0245960Y0188526D01*
X0244806Y0188047D01*
X0243814Y0187286D01*
X0243053Y0186294D01*
X0242741Y0185543D01*
X0241659D01*
X0241347Y0186294D01*
X0240586Y0187286D01*
X0239595Y0188047D01*
X0238439Y0188526D01*
X0237200Y0188689D01*
X0235961Y0188526D01*
X0234805Y0188047D01*
X0233814Y0187286D01*
X0233053Y0186294D01*
X0232741Y0185543D01*
X0231659D01*
X0231347Y0186294D01*
X0230586Y0187286D01*
X0229594Y0188047D01*
X0228439Y0188526D01*
X0227200Y0188689D01*
X0225960Y0188526D01*
X0224805Y0188047D01*
X0223814Y0187286D01*
X0223053Y0186294D01*
X0222741Y0185543D01*
X0221659D01*
X0221347Y0186294D01*
X0220586Y0187286D01*
X0219595Y0188047D01*
X0218440Y0188526D01*
X0217200Y0188689D01*
X0215961Y0188526D01*
X0214806Y0188047D01*
X0213814Y0187286D01*
X0213053Y0186294D01*
X0212741Y0185543D01*
X0211659D01*
X0211347Y0186294D01*
X0210586Y0187286D01*
X0209594Y0188047D01*
X0208439Y0188526D01*
X0207200Y0188689D01*
X0206159Y0188552D01*
X0205566Y0188955D01*
X0205239Y0189309D01*
Y0239055D01*
X0216827Y0250643D01*
X0217418Y0250721D01*
X0218087Y0250998D01*
X0218661Y0251439D01*
X0219102Y0252013D01*
X0219379Y0252682D01*
X0219474Y0253400D01*
X0219379Y0254118D01*
X0219102Y0254787D01*
X0218661Y0255361D01*
X0218087Y0255802D01*
X0217418Y0256079D01*
X0216700Y0256174D01*
X0215982Y0256079D01*
X0215313Y0255802D01*
X0214739Y0255361D01*
X0214298Y0254787D01*
X0214021Y0254118D01*
X0213943Y0253527D01*
X0203663Y0243247D01*
X0202739Y0243630D01*
Y0251055D01*
X0218142Y0266458D01*
X0218584Y0267120D01*
X0218728Y0267845D01*
X0218772Y0267959D01*
X0219739Y0268653D01*
X0219944Y0268626D01*
X0220662Y0268721D01*
X0221331Y0268998D01*
X0221905Y0269439D01*
X0222346Y0270013D01*
X0222623Y0270682D01*
X0222718Y0271400D01*
X0222623Y0272118D01*
X0222588Y0272980D01*
X0223127Y0273412D01*
X0223161Y0273439D01*
X0223602Y0274013D01*
X0223879Y0274682D01*
X0223974Y0275400D01*
X0223879Y0276118D01*
X0223602Y0276787D01*
X0223161Y0277361D01*
X0222587Y0277802D01*
X0221918Y0278079D01*
X0221327Y0278157D01*
X0217739Y0281745D01*
Y0291211D01*
X0217584Y0291991D01*
X0217254Y0292485D01*
X0217194Y0292848D01*
X0217440Y0293769D01*
X0217661Y0293939D01*
X0218102Y0294513D01*
X0218379Y0295182D01*
X0218474Y0295900D01*
X0218379Y0296618D01*
X0218102Y0297287D01*
X0217661Y0297861D01*
X0217087Y0298302D01*
X0216418Y0298579D01*
X0215827Y0298657D01*
X0211739Y0302745D01*
Y0337540D01*
X0212102Y0338013D01*
X0212379Y0338682D01*
X0212474Y0339400D01*
X0212379Y0340118D01*
X0212102Y0340787D01*
X0211661Y0341361D01*
X0211087Y0341802D01*
X0210418Y0342079D01*
X0209700Y0342174D01*
X0208982Y0342079D01*
X0208313Y0341802D01*
X0207739Y0341361D01*
X0207298Y0340787D01*
X0207021Y0340118D01*
X0206926Y0339400D01*
X0207021Y0338682D01*
X0207298Y0338013D01*
X0207661Y0337540D01*
Y0301900D01*
X0207752Y0301439D01*
X0207267Y0300620D01*
X0207068Y0300439D01*
X0204537D01*
X0204138Y0301404D01*
X0204142Y0301458D01*
X0204584Y0302120D01*
X0204739Y0302900D01*
Y0337540D01*
X0205102Y0338013D01*
X0205379Y0338682D01*
X0205474Y0339400D01*
X0205379Y0340118D01*
X0205102Y0340787D01*
X0204661Y0341361D01*
X0204087Y0341802D01*
X0203418Y0342079D01*
X0202700Y0342174D01*
X0201982Y0342079D01*
X0201313Y0341802D01*
X0200739Y0341361D01*
X0200298Y0340787D01*
X0200021Y0340118D01*
X0199926Y0339400D01*
X0200021Y0338682D01*
X0200298Y0338013D01*
X0200661Y0337540D01*
Y0303745D01*
X0198679Y0301762D01*
X0197548Y0301685D01*
X0197349Y0301782D01*
X0196520Y0302418D01*
X0195598Y0302800D01*
X0195797Y0303800D01*
X0198800D01*
Y0313000D01*
X0196239D01*
Y0361900D01*
X0196084Y0362680D01*
X0195642Y0363342D01*
X0194457Y0364527D01*
X0194379Y0365118D01*
X0194102Y0365787D01*
X0193661Y0366361D01*
X0193087Y0366802D01*
X0192418Y0367079D01*
X0191700Y0367174D01*
D02*
G37*
G36*
X0401700Y0277829D02*
X0400383Y0277656D01*
X0399157Y0277148D01*
X0398103Y0276339D01*
X0397295Y0275286D01*
X0396786Y0274059D01*
X0396613Y0272743D01*
X0396786Y0271426D01*
X0397295Y0270199D01*
X0398103Y0269146D01*
X0399157Y0268337D01*
X0400383Y0267829D01*
X0401700Y0267656D01*
X0403017Y0267829D01*
X0404243Y0268337D01*
X0405297Y0269146D01*
X0406105Y0270199D01*
X0406613Y0271426D01*
X0406787Y0272743D01*
X0406613Y0274059D01*
X0406105Y0275286D01*
X0405297Y0276339D01*
X0404243Y0277148D01*
X0403017Y0277656D01*
X0401700Y0277829D01*
D02*
G37*
G36*
X0367200Y0285778D02*
X0366053Y0285665D01*
X0364950Y0285331D01*
X0363934Y0284788D01*
X0363043Y0284057D01*
X0362312Y0283166D01*
X0361769Y0282150D01*
X0361435Y0281047D01*
X0361322Y0279900D01*
X0361435Y0278753D01*
X0361769Y0277650D01*
X0362312Y0276634D01*
X0363043Y0275743D01*
X0363934Y0275012D01*
X0364950Y0274469D01*
X0366053Y0274135D01*
X0367200Y0274022D01*
X0368347Y0274135D01*
X0369449Y0274469D01*
X0370466Y0275012D01*
X0371357Y0275743D01*
X0372088Y0276634D01*
X0372631Y0277650D01*
X0372965Y0278753D01*
X0373078Y0279900D01*
X0372965Y0281047D01*
X0372631Y0282150D01*
X0372088Y0283166D01*
X0371357Y0284057D01*
X0370466Y0284788D01*
X0369449Y0285331D01*
X0368347Y0285665D01*
X0367200Y0285778D01*
D02*
G37*
%LPD*%
G36*
X0198679Y0295038D02*
X0203443Y0290273D01*
X0203521Y0289682D01*
X0203798Y0289013D01*
X0204161Y0288540D01*
Y0268260D01*
X0203798Y0267787D01*
X0203521Y0267118D01*
X0203426Y0266400D01*
X0203521Y0265682D01*
X0203798Y0265013D01*
X0204239Y0264439D01*
X0204813Y0263998D01*
X0205482Y0263721D01*
X0206200Y0263626D01*
X0206918Y0263721D01*
X0207513Y0263967D01*
X0207817Y0263874D01*
X0208289Y0263621D01*
X0208475Y0262559D01*
X0199258Y0253342D01*
X0198816Y0252680D01*
X0198661Y0251900D01*
Y0251786D01*
X0197661Y0251446D01*
X0197481Y0251681D01*
X0196520Y0252418D01*
X0195401Y0252882D01*
X0195294Y0252896D01*
Y0253904D01*
X0195401Y0253918D01*
X0196520Y0254382D01*
X0197481Y0255119D01*
X0198218Y0256080D01*
X0198682Y0257199D01*
X0198840Y0258400D01*
X0198682Y0259601D01*
X0198218Y0260720D01*
X0197481Y0261681D01*
X0196520Y0262418D01*
X0195401Y0262882D01*
X0195294Y0262896D01*
Y0263904D01*
X0195401Y0263918D01*
X0196520Y0264382D01*
X0197481Y0265119D01*
X0198218Y0266080D01*
X0198682Y0267199D01*
X0198840Y0268400D01*
X0198682Y0269601D01*
X0198218Y0270720D01*
X0197481Y0271681D01*
X0196520Y0272418D01*
X0195401Y0272882D01*
X0195294Y0272896D01*
Y0273904D01*
X0195401Y0273918D01*
X0196520Y0274382D01*
X0197481Y0275119D01*
X0198218Y0276080D01*
X0198682Y0277199D01*
X0198840Y0278400D01*
X0198682Y0279601D01*
X0198218Y0280720D01*
X0197481Y0281681D01*
X0196520Y0282418D01*
X0195401Y0282882D01*
X0195294Y0282896D01*
Y0283904D01*
X0195401Y0283918D01*
X0196520Y0284382D01*
X0197481Y0285119D01*
X0198218Y0286080D01*
X0198682Y0287199D01*
X0198840Y0288400D01*
X0198682Y0289601D01*
X0198218Y0290720D01*
X0197481Y0291681D01*
X0196520Y0292418D01*
X0195401Y0292882D01*
X0195294Y0292896D01*
Y0293904D01*
X0195401Y0293918D01*
X0196520Y0294382D01*
X0197349Y0295018D01*
X0197548Y0295115D01*
X0198679Y0295038D01*
D02*
G37*
G36*
X0257817Y0162826D02*
X0257992Y0162797D01*
X0258148Y0162758D01*
X0258284Y0162719D01*
X0258401Y0162680D01*
X0258478Y0162641D01*
X0258537Y0162612D01*
X0258546Y0162602D01*
X0258556D01*
X0258702Y0162505D01*
X0258828Y0162398D01*
X0258935Y0162281D01*
X0259023Y0162165D01*
X0259091Y0162058D01*
X0259149Y0161980D01*
X0259178Y0161922D01*
X0259188Y0161912D01*
Y0161902D01*
X0259256Y0161727D01*
X0259314Y0161543D01*
X0259353Y0161368D01*
X0259373Y0161203D01*
X0259392Y0161066D01*
X0259402Y0160950D01*
Y0160911D01*
Y0160882D01*
Y0160862D01*
Y0160853D01*
X0259392Y0160687D01*
X0259382Y0160532D01*
X0259353Y0160386D01*
X0259324Y0160250D01*
X0259285Y0160124D01*
X0259246Y0160007D01*
X0259207Y0159900D01*
X0259159Y0159803D01*
X0259110Y0159715D01*
X0259071Y0159647D01*
X0259032Y0159579D01*
X0258994Y0159531D01*
X0258964Y0159492D01*
X0258935Y0159453D01*
X0258926Y0159443D01*
X0258916Y0159433D01*
X0258819Y0159346D01*
X0258721Y0159268D01*
X0258614Y0159200D01*
X0258508Y0159142D01*
X0258294Y0159054D01*
X0258090Y0158996D01*
X0257915Y0158957D01*
X0257837Y0158948D01*
X0257769Y0158938D01*
X0257720Y0158928D01*
X0257643D01*
X0257438Y0158938D01*
X0257254Y0158977D01*
X0257088Y0159025D01*
X0256952Y0159083D01*
X0256836Y0159132D01*
X0256748Y0159181D01*
X0256700Y0159220D01*
X0256680Y0159229D01*
X0256534Y0159356D01*
X0256418Y0159502D01*
X0256321Y0159647D01*
X0256233Y0159793D01*
X0256175Y0159920D01*
X0256126Y0160026D01*
X0256116Y0160065D01*
X0256107Y0160094D01*
X0256097Y0160114D01*
Y0160124D01*
X0256836Y0160376D01*
X0256884Y0160231D01*
X0256943Y0160104D01*
X0257001Y0159997D01*
X0257059Y0159910D01*
X0257108Y0159842D01*
X0257147Y0159803D01*
X0257176Y0159774D01*
X0257186Y0159764D01*
X0257273Y0159706D01*
X0257361Y0159667D01*
X0257448Y0159628D01*
X0257536Y0159608D01*
X0257613Y0159599D01*
X0257672Y0159589D01*
X0257720D01*
X0257847Y0159599D01*
X0257973Y0159638D01*
X0258070Y0159686D01*
X0258167Y0159745D01*
X0258235Y0159803D01*
X0258294Y0159851D01*
X0258333Y0159890D01*
X0258342Y0159900D01*
X0258430Y0160036D01*
X0258488Y0160182D01*
X0258537Y0160347D01*
X0258566Y0160512D01*
X0258585Y0160658D01*
X0258595Y0160775D01*
Y0160814D01*
Y0160853D01*
Y0160872D01*
Y0160882D01*
X0258585Y0161115D01*
X0258556Y0161309D01*
X0258508Y0161484D01*
X0258459Y0161620D01*
X0258420Y0161718D01*
X0258371Y0161795D01*
X0258342Y0161844D01*
X0258333Y0161854D01*
X0258226Y0161961D01*
X0258119Y0162038D01*
X0258002Y0162097D01*
X0257895Y0162136D01*
X0257808Y0162155D01*
X0257730Y0162174D01*
X0257662D01*
X0257565Y0162165D01*
X0257468Y0162155D01*
X0257390Y0162126D01*
X0257322Y0162097D01*
X0257263Y0162068D01*
X0257224Y0162048D01*
X0257195Y0162029D01*
X0257186Y0162019D01*
X0257108Y0161951D01*
X0257050Y0161873D01*
X0256943Y0161718D01*
X0256904Y0161650D01*
X0256865Y0161591D01*
X0256855Y0161552D01*
X0256845Y0161533D01*
X0256097Y0161708D01*
X0256185Y0161912D01*
X0256282Y0162087D01*
X0256379Y0162233D01*
X0256476Y0162359D01*
X0256554Y0162447D01*
X0256632Y0162515D01*
X0256670Y0162554D01*
X0256690Y0162563D01*
X0256836Y0162651D01*
X0257001Y0162719D01*
X0257156Y0162767D01*
X0257302Y0162806D01*
X0257438Y0162826D01*
X0257536Y0162836D01*
X0257633D01*
X0257817Y0162826D01*
D02*
G37*
G54D33*
X0138200Y0164400D02*
X0144200Y0158400D01*
X0140200Y0172400D02*
X0154200Y0158400D01*
X0134200D02*
X0136200Y0160400D01*
X0124200Y0158400D02*
X0134200Y0168400D01*
X0140200Y0172400D02*
Y0223400D01*
X0132700Y0230900D02*
X0140200Y0223400D01*
X0132700Y0230900D02*
Y0249400D01*
X0138200Y0164400D02*
Y0222400D01*
X0130200Y0230400D02*
X0138200Y0222400D01*
X0130200Y0230400D02*
Y0251900D01*
X0136200Y0160400D02*
Y0221400D01*
X0117700Y0239900D02*
X0136200Y0221400D01*
X0117700Y0239900D02*
Y0246900D01*
X0134200Y0168400D02*
Y0220400D01*
X0114700Y0239900D02*
X0134200Y0220400D01*
X0203200Y0239900D02*
X0216700Y0253400D01*
X0112200Y0303650D02*
Y0307900D01*
X0111453Y0307834D02*
X0112200Y0303650D01*
X0112947Y0307834D01*
X0216700Y0270394D02*
Y0274644D01*
X0215953Y0274578D02*
X0216700Y0270394D01*
X0217447Y0274578D01*
X0209700Y0287900D02*
X0212200Y0290400D01*
X0209700Y0287900D02*
X0211616Y0290871D01*
X0209700Y0287900D02*
X0212671Y0289816D01*
X0209700Y0270650D02*
X0210447Y0266466D01*
X0208953D02*
X0209700Y0270650D01*
X0124829Y0202271D02*
X0128200Y0198900D01*
X0124829Y0202271D02*
X0128687Y0199470D01*
X0124829Y0202271D02*
X0127630Y0198413D01*
X0107729Y0258316D02*
X0110700Y0256400D01*
X0108784Y0259371D02*
X0110700Y0256400D01*
X0115200Y0258650D02*
X0115947Y0254466D01*
X0114453D02*
X0115200Y0258650D01*
X0330200Y0272650D02*
X0330947Y0268466D01*
X0329453D02*
X0330200Y0272650D01*
X0153700Y0252150D02*
Y0256400D01*
X0152953Y0256334D02*
X0153700Y0252150D01*
X0154447Y0256334D01*
X0153700Y0274150D02*
Y0278400D01*
X0152953Y0278334D02*
X0153700Y0274150D01*
X0154447Y0278334D01*
X0151200Y0267150D02*
X0151947Y0262966D01*
X0150453D02*
X0151200Y0267150D01*
X0191700Y0364400D02*
X0194200Y0361900D01*
Y0308400D02*
Y0361900D01*
X0202700Y0302900D02*
Y0339400D01*
X0199700Y0299900D02*
X0202700Y0302900D01*
X0199700Y0296900D02*
Y0299900D01*
Y0296900D02*
X0206200Y0290400D01*
X0209700Y0301900D02*
X0215700Y0295900D01*
X0209700Y0301900D02*
Y0339400D01*
Y0287900D02*
X0212200Y0290400D01*
X0203200Y0187900D02*
Y0239900D01*
Y0187900D02*
X0207200Y0183900D01*
X0200700Y0180400D02*
X0207200Y0173900D01*
X0200700Y0251900D02*
X0216700Y0267900D01*
X0200700Y0180400D02*
Y0251900D01*
X0095200Y0289900D02*
X0104700Y0299400D01*
X0148700Y0234900D02*
Y0268400D01*
X0151200Y0293400D02*
X0156200Y0298400D01*
X0151200Y0262900D02*
Y0293400D01*
X0153700Y0260400D02*
Y0278400D01*
Y0240900D02*
X0156200Y0238400D01*
X0153700Y0240900D02*
Y0256400D01*
X0156200Y0249400D02*
Y0288400D01*
X0110700Y0240400D02*
Y0256400D01*
Y0240400D02*
X0124700Y0226400D01*
X0108200Y0239900D02*
Y0254400D01*
Y0239900D02*
X0122200Y0225900D01*
X0330200Y0268400D02*
Y0286900D01*
X0326700Y0290400D02*
X0330200Y0286900D01*
X0319200Y0290400D02*
X0326700D01*
X0357200Y0200900D02*
Y0221400D01*
X0118200Y0352280D02*
X0125221Y0359300D01*
X0091700Y0268900D02*
X0091721Y0268921D01*
X0095200Y0252679D02*
Y0289900D01*
X0108200Y0258900D02*
X0110700Y0256400D01*
X0124700Y0206400D02*
Y0226400D01*
Y0206400D02*
X0130700Y0200400D01*
X0122200Y0204900D02*
Y0225900D01*
Y0204900D02*
X0128200Y0198900D01*
X0130700Y0191900D02*
Y0200400D01*
X0119700Y0203400D02*
X0128200Y0194900D01*
X0119700Y0203400D02*
Y0224400D01*
X0093200Y0214900D02*
Y0221900D01*
X0206200Y0266400D02*
Y0290400D01*
X0215700Y0280900D02*
X0221200Y0275400D01*
X0215700Y0280900D02*
Y0291211D01*
X0208511Y0298400D02*
X0215700Y0291211D01*
X0202200Y0298400D02*
X0208511D01*
X0209700Y0266400D02*
Y0287900D01*
X0216700Y0267900D02*
Y0274644D01*
X0118200Y0256400D02*
Y0352280D01*
X0104700Y0319400D02*
X0115200Y0308900D01*
Y0254400D02*
Y0308900D01*
X0112200Y0260400D02*
Y0307900D01*
X0292444Y0326400D02*
X0297200Y0331156D01*
Y0333900D01*
X0330200Y0158050D02*
Y0164048D01*
X0328201Y0162049D01*
X0326201Y0164048D01*
Y0158050D01*
X0324202D02*
Y0162049D01*
X0322203Y0164048D01*
X0320203Y0162049D01*
Y0158050D01*
Y0161049D01*
X0324202D01*
X0318204Y0164048D02*
Y0158050D01*
X0315205D01*
X0314205Y0159050D01*
Y0163048D01*
X0315205Y0164048D01*
X0318204D01*
X0308207D02*
X0312206D01*
Y0158050D01*
X0308207D01*
X0312206Y0161049D02*
X0310207D01*
X0300210Y0164048D02*
X0298210D01*
X0299210D01*
Y0158050D01*
X0300210D01*
X0298210D01*
X0295211D02*
Y0164048D01*
X0291213Y0158050D01*
Y0164048D01*
X0283215D02*
Y0159050D01*
X0282215Y0158050D01*
X0280216D01*
X0279217Y0159050D01*
Y0164048D01*
X0277217Y0158050D02*
Y0159050D01*
X0276218D01*
Y0158050D01*
X0277217D01*
X0268220Y0163048D02*
X0269220Y0164048D01*
X0271219D01*
X0272219Y0163048D01*
Y0162049D01*
X0271219Y0161049D01*
X0269220D01*
X0268220Y0160049D01*
Y0159050D01*
X0269220Y0158050D01*
X0271219D01*
X0272219Y0159050D01*
X0266221Y0158050D02*
Y0159050D01*
X0265221D01*
Y0158050D01*
X0266221D01*
X0225900Y0163898D02*
X0221901D01*
X0223901D01*
Y0157900D01*
X0219902Y0163898D02*
X0217903D01*
X0218902D01*
Y0157900D01*
X0219902D01*
X0217903D01*
X0246501D02*
X0250500D01*
X0246501Y0161899D01*
Y0162898D01*
X0247501Y0163898D01*
X0249500D01*
X0250500Y0162898D01*
X0244502D02*
X0243502Y0163898D01*
X0241503D01*
X0240503Y0162898D01*
Y0158900D01*
X0241503Y0157900D01*
X0243502D01*
X0244502Y0158900D01*
Y0162898D01*
X0238504Y0157900D02*
X0236505D01*
X0237504D01*
Y0163898D01*
X0238504Y0162898D01*
X0229507Y0163898D02*
X0233506D01*
Y0160899D01*
X0231506Y0161899D01*
X0230506D01*
X0229507Y0160899D01*
Y0158900D01*
X0230506Y0157900D01*
X0232506D01*
X0233506Y0158900D01*
X0497200Y0080717D02*
Y0101050D01*
X0413200Y0080717D02*
Y0101050D01*
X0040000Y0080717D02*
X0700200D01*
X0040000Y0060383D02*
X0700000D01*
X0040000Y0040050D02*
X0440500D01*
X0040050Y0101050D02*
X0700200D01*
X0040050Y0040050D02*
Y0101050D01*
Y0040050D02*
X0197600D01*
X0040000D02*
Y0101050D01*
X0286500Y0040050D02*
Y0101050D01*
X0700200Y0040050D02*
Y0101050D01*
X0440500Y0040050D02*
X0700200D01*
X0559400Y0039400D02*
Y0059683D01*
G54D35*
X0124707Y0338907D02*
X0130200Y0344400D01*
X0092200Y0250150D02*
Y0257400D01*
Y0261650D02*
Y0268900D01*
Y0229900D02*
Y0268900D01*
X0120968Y0268924D02*
Y0335168D01*
X0130200Y0344400D01*
G54D36*
X0126900Y0073549D02*
Y0067551D01*
X0129899D01*
X0130899Y0068550D01*
Y0069550D01*
X0129899Y0070550D01*
X0126900D01*
X0129899D01*
X0130899Y0071549D01*
Y0072549D01*
X0129899Y0073549D01*
X0126900D01*
X0133898Y0067551D02*
X0135897D01*
X0136897Y0068550D01*
Y0070550D01*
X0135897Y0071549D01*
X0133898D01*
X0132898Y0070550D01*
Y0068550D01*
X0133898Y0067551D01*
X0139896Y0072549D02*
Y0071549D01*
X0138896D01*
X0140895D01*
X0139896D01*
Y0068550D01*
X0140895Y0067551D01*
X0144894Y0072549D02*
Y0071549D01*
X0143895D01*
X0145894D01*
X0144894D01*
Y0068550D01*
X0145894Y0067551D01*
X0149893D02*
X0151892D01*
X0152892Y0068550D01*
Y0070550D01*
X0151892Y0071549D01*
X0149893D01*
X0148893Y0070550D01*
Y0068550D01*
X0149893Y0067551D01*
X0154891D02*
Y0071549D01*
X0155891D01*
X0156890Y0070550D01*
Y0067551D01*
Y0070550D01*
X0157890Y0071549D01*
X0158890Y0070550D01*
Y0067551D01*
X0166887Y0073549D02*
Y0067551D01*
X0170886D01*
X0173885Y0071549D02*
X0175884D01*
X0176884Y0070550D01*
Y0067551D01*
X0173885D01*
X0172885Y0068550D01*
X0173885Y0069550D01*
X0176884D01*
X0178883Y0071549D02*
Y0068550D01*
X0179883Y0067551D01*
X0182882D01*
Y0066551D01*
X0181882Y0065551D01*
X0180883D01*
X0182882Y0067551D02*
Y0071549D01*
X0187880Y0067551D02*
X0185881D01*
X0184881Y0068550D01*
Y0070550D01*
X0185881Y0071549D01*
X0187880D01*
X0188880Y0070550D01*
Y0069550D01*
X0184881D01*
X0190879Y0071549D02*
Y0067551D01*
Y0069550D01*
X0191879Y0070550D01*
X0192879Y0071549D01*
X0193878D01*
X0567400Y0087833D02*
Y0093831D01*
X0571399Y0087833D01*
Y0093831D01*
X0574398Y0087833D02*
X0576397D01*
X0577397Y0088833D01*
Y0090832D01*
X0576397Y0091832D01*
X0574398D01*
X0573398Y0090832D01*
Y0088833D01*
X0574398Y0087833D01*
X0580396Y0092832D02*
Y0091832D01*
X0579396D01*
X0581395D01*
X0580396D01*
Y0088833D01*
X0581395Y0087833D01*
X0590393Y0093831D02*
X0592392D01*
X0591392D01*
Y0087833D01*
X0590393D01*
X0592392D01*
X0595391D02*
Y0091832D01*
X0598390D01*
X0599390Y0090832D01*
Y0087833D01*
X0607387Y0093831D02*
Y0089833D01*
X0609386Y0087833D01*
X0611386Y0089833D01*
Y0093831D01*
X0616384Y0087833D02*
X0614385D01*
X0613385Y0088833D01*
Y0090832D01*
X0614385Y0091832D01*
X0616384D01*
X0617384Y0090832D01*
Y0089833D01*
X0613385D01*
X0619383Y0091832D02*
Y0087833D01*
Y0089833D01*
X0620383Y0090832D01*
X0621383Y0091832D01*
X0622382D01*
X0625381Y0087833D02*
X0628380D01*
X0629380Y0088833D01*
X0628380Y0089833D01*
X0626381D01*
X0625381Y0090832D01*
X0626381Y0091832D01*
X0629380D01*
X0631379Y0087833D02*
X0633379D01*
X0632379D01*
Y0091832D01*
X0631379D01*
X0637377Y0087833D02*
X0639377D01*
X0640376Y0088833D01*
Y0090832D01*
X0639377Y0091832D01*
X0637377D01*
X0636378Y0090832D01*
Y0088833D01*
X0637377Y0087833D01*
X0642376D02*
Y0091832D01*
X0645375D01*
X0646374Y0090832D01*
Y0087833D01*
X0652373Y0092832D02*
X0651373Y0093831D01*
X0649373D01*
X0648374Y0092832D01*
Y0088833D01*
X0649373Y0087833D01*
X0651373D01*
X0652373Y0088833D01*
X0655372Y0087833D02*
X0657371D01*
X0658371Y0088833D01*
Y0090832D01*
X0657371Y0091832D01*
X0655372D01*
X0654372Y0090832D01*
Y0088833D01*
X0655372Y0087833D01*
X0660370D02*
Y0091832D01*
X0663369D01*
X0664369Y0090832D01*
Y0087833D01*
X0667368Y0092832D02*
Y0091832D01*
X0666368D01*
X0668367D01*
X0667368D01*
Y0088833D01*
X0668367Y0087833D01*
X0671366Y0091832D02*
Y0087833D01*
Y0089833D01*
X0672366Y0090832D01*
X0673366Y0091832D01*
X0674365D01*
X0678364Y0087833D02*
X0680364D01*
X0681363Y0088833D01*
Y0090832D01*
X0680364Y0091832D01*
X0678364D01*
X0677364Y0090832D01*
Y0088833D01*
X0678364Y0087833D01*
X0683362D02*
X0685362D01*
X0684362D01*
Y0093831D01*
X0683362D01*
X0520799Y0092832D02*
X0519799Y0093831D01*
X0517800D01*
X0516800Y0092832D01*
Y0091832D01*
X0517800Y0090832D01*
X0519799D01*
X0520799Y0089833D01*
Y0088833D01*
X0519799Y0087833D01*
X0517800D01*
X0516800Y0088833D01*
X0522798Y0093831D02*
Y0089833D01*
X0524797Y0087833D01*
X0526797Y0089833D01*
Y0093831D01*
X0528796Y0087833D02*
Y0093831D01*
X0532795Y0087833D01*
Y0093831D01*
X0540792Y0087833D02*
Y0093831D01*
X0543791D01*
X0544791Y0092832D01*
Y0090832D01*
X0543791Y0089833D01*
X0540792D01*
X0542792D02*
X0544791Y0087833D01*
X0550789Y0093831D02*
X0546790D01*
Y0087833D01*
X0550789D01*
X0546790Y0090832D02*
X0548790D01*
X0552788Y0093831D02*
Y0089833D01*
X0554788Y0087833D01*
X0556787Y0089833D01*
Y0093831D01*
X0558786Y0091832D02*
X0559786D01*
Y0090832D01*
X0558786D01*
Y0091832D01*
Y0088833D02*
X0559786D01*
Y0087833D01*
X0558786D01*
Y0088833D01*
X0433000Y0087833D02*
Y0093831D01*
X0435999D01*
X0436999Y0092832D01*
Y0090832D01*
X0435999Y0089833D01*
X0433000D01*
X0434999D02*
X0436999Y0087833D01*
X0442997Y0093831D02*
X0438998D01*
Y0087833D01*
X0442997D01*
X0438998Y0090832D02*
X0440997D01*
X0444996Y0093831D02*
Y0089833D01*
X0446995Y0087833D01*
X0448995Y0089833D01*
Y0093831D01*
X0450994Y0091832D02*
X0451994D01*
Y0090832D01*
X0450994D01*
Y0091832D01*
Y0088833D02*
X0451994D01*
Y0087833D01*
X0450994D01*
Y0088833D01*
X0126900Y0052965D02*
Y0046966D01*
X0129899D01*
X0130899Y0047966D01*
Y0051965D01*
X0129899Y0052965D01*
X0126900D01*
X0132898Y0046966D02*
Y0052965D01*
X0135897D01*
X0136897Y0051965D01*
Y0049966D01*
X0135897Y0048966D01*
X0132898D01*
X0134897D02*
X0136897Y0046966D01*
X0138896Y0052965D02*
Y0048966D01*
X0140895Y0046966D01*
X0142895Y0048966D01*
Y0052965D01*
X0144894Y0051965D02*
X0145894Y0052965D01*
X0147893D01*
X0148893Y0051965D01*
Y0050965D01*
X0147893Y0049966D01*
X0148893Y0048966D01*
Y0047966D01*
X0147893Y0046966D01*
X0145894D01*
X0144894Y0047966D01*
Y0048966D01*
X0145894Y0049966D01*
X0144894Y0050965D01*
Y0051965D01*
X0145894Y0049966D02*
X0147893D01*
X0150892Y0052965D02*
X0154891D01*
Y0051965D01*
X0150892Y0047966D01*
Y0046966D01*
X0156890Y0051965D02*
X0157890Y0052965D01*
X0159889D01*
X0160889Y0051965D01*
Y0047966D01*
X0159889Y0046966D01*
X0157890D01*
X0156890Y0047966D01*
Y0051965D01*
X0162888Y0046966D02*
X0164888D01*
X0163888D01*
Y0052965D01*
X0162888Y0051965D01*
X0171885Y0052965D02*
X0167887D01*
Y0046966D01*
X0171885D01*
X0167887Y0049966D02*
X0169886D01*
X0173885Y0052965D02*
Y0048966D01*
X0175884Y0046966D01*
X0177884Y0048966D01*
Y0052965D01*
X0179883Y0046966D02*
Y0052965D01*
X0181882Y0050965D01*
X0183882Y0052965D01*
Y0046966D01*
X0185881D02*
Y0047966D01*
X0186881D01*
Y0046966D01*
X0185881D01*
X0194878Y0051965D02*
X0193878Y0052965D01*
X0191879D01*
X0190879Y0051965D01*
Y0047966D01*
X0191879Y0046966D01*
X0193878D01*
X0194878Y0047966D01*
Y0049966D01*
X0192879D01*
X0196877Y0052965D02*
Y0046966D01*
X0199876D01*
X0200876Y0047966D01*
Y0048966D01*
X0199876Y0049966D01*
X0196877D01*
X0199876D01*
X0200876Y0050965D01*
Y0051965D01*
X0199876Y0052965D01*
X0196877D01*
X0202875D02*
Y0046966D01*
X0206874D01*
X0385149D02*
X0381150D01*
X0385149Y0050965D01*
Y0051965D01*
X0384149Y0052965D01*
X0382150D01*
X0381150Y0051965D01*
X0387148Y0046966D02*
X0391147Y0050965D01*
X0393146Y0046966D02*
X0395146D01*
X0394146D01*
Y0052965D01*
X0393146Y0051965D01*
X0398145D02*
X0399144Y0052965D01*
X0401144D01*
X0402143Y0051965D01*
Y0047966D01*
X0401144Y0046966D01*
X0399144D01*
X0398145Y0047966D01*
Y0051965D01*
X0404143Y0046966D02*
X0408141Y0050965D01*
X0414139Y0046966D02*
X0410141D01*
X0414139Y0050965D01*
Y0051965D01*
X0413140Y0052965D01*
X0411140D01*
X0410141Y0051965D01*
X0416139D02*
X0417138Y0052965D01*
X0419138D01*
X0420137Y0051965D01*
Y0047966D01*
X0419138Y0046966D01*
X0417138D01*
X0416139Y0047966D01*
Y0051965D01*
X0422137Y0046966D02*
X0424136D01*
X0423136D01*
Y0052965D01*
X0422137Y0051965D01*
X0431134Y0052965D02*
X0427135D01*
Y0049966D01*
X0429135Y0050965D01*
X0430134D01*
X0431134Y0049966D01*
Y0047966D01*
X0430134Y0046966D01*
X0428135D01*
X0427135Y0047966D01*
X0298199Y0051965D02*
X0297199Y0052965D01*
X0295200D01*
X0294200Y0051965D01*
Y0047966D01*
X0295200Y0046966D01*
X0297199D01*
X0298199Y0047966D01*
Y0049966D01*
X0296199D01*
X0304197Y0052965D02*
X0300198D01*
Y0046966D01*
X0304197D01*
X0300198Y0049966D02*
X0302197D01*
X0306196Y0046966D02*
Y0052965D01*
X0310195Y0046966D01*
Y0052965D01*
X0316193D02*
X0312194D01*
Y0046966D01*
X0316193D01*
X0312194Y0049966D02*
X0314194D01*
X0318192Y0046966D02*
Y0052965D01*
X0321191D01*
X0322191Y0051965D01*
Y0049966D01*
X0321191Y0048966D01*
X0318192D01*
X0320192D02*
X0322191Y0046966D01*
X0324190D02*
Y0050965D01*
X0326190Y0052965D01*
X0328189Y0050965D01*
Y0046966D01*
Y0049966D01*
X0324190D01*
X0330188Y0052965D02*
X0334187D01*
X0332188D01*
Y0046966D01*
X0340185Y0052965D02*
X0336186D01*
Y0046966D01*
X0340185D01*
X0336186Y0049966D02*
X0338186D01*
X0342184Y0052965D02*
Y0046966D01*
X0345183D01*
X0346183Y0047966D01*
Y0051965D01*
X0345183Y0052965D01*
X0342184D01*
X0372175Y0050965D02*
X0373175D01*
Y0049966D01*
X0372175D01*
Y0050965D01*
Y0047966D02*
X0373175D01*
Y0046966D01*
X0372175D01*
Y0047966D01*
X0046350Y0087833D02*
Y0091832D01*
X0048349Y0093831D01*
X0050349Y0091832D01*
Y0087833D01*
Y0090832D01*
X0046350D01*
X0052348Y0093831D02*
Y0087833D01*
X0056347D01*
X0058346Y0093831D02*
Y0087833D01*
X0062345D01*
X0070342D02*
Y0091832D01*
X0072342Y0093831D01*
X0074341Y0091832D01*
Y0087833D01*
Y0090832D01*
X0070342D01*
X0076340Y0087833D02*
Y0093831D01*
X0079339D01*
X0080339Y0092832D01*
Y0090832D01*
X0079339Y0089833D01*
X0076340D01*
X0078340D02*
X0080339Y0087833D01*
X0082338Y0093831D02*
X0086337D01*
X0084338D01*
Y0087833D01*
X0088336Y0093831D02*
Y0087833D01*
X0090336Y0089833D01*
X0092335Y0087833D01*
Y0093831D01*
X0097334D02*
X0095334D01*
X0094335Y0092832D01*
Y0088833D01*
X0095334Y0087833D01*
X0097334D01*
X0098333Y0088833D01*
Y0092832D01*
X0097334Y0093831D01*
X0100332Y0087833D02*
Y0093831D01*
X0103332D01*
X0104331Y0092832D01*
Y0090832D01*
X0103332Y0089833D01*
X0100332D01*
X0102332D02*
X0104331Y0087833D01*
X0106331Y0093831D02*
Y0087833D01*
Y0089833D01*
X0110329Y0093831D01*
X0107330Y0090832D01*
X0110329Y0087833D01*
X0118327Y0093831D02*
Y0089833D01*
X0120326Y0087833D01*
X0122325Y0089833D01*
Y0093831D01*
X0124325D02*
X0126324D01*
X0125324D01*
Y0087833D01*
X0124325D01*
X0126324D01*
X0133322Y0093831D02*
X0129323D01*
Y0087833D01*
X0133322D01*
X0129323Y0090832D02*
X0131323D01*
X0135321Y0093831D02*
Y0087833D01*
X0137321Y0089833D01*
X0139320Y0087833D01*
Y0093831D01*
X0145318D02*
X0141319D01*
Y0087833D01*
X0145318D01*
X0141319Y0090832D02*
X0143319D01*
X0147317Y0093831D02*
Y0087833D01*
X0150316D01*
X0151316Y0088833D01*
Y0092832D01*
X0150316Y0093831D01*
X0147317D01*
X0163312D02*
X0159313D01*
Y0090832D01*
X0161313D01*
X0159313D01*
Y0087833D01*
X0165312D02*
Y0093831D01*
X0168310D01*
X0169310Y0092832D01*
Y0090832D01*
X0168310Y0089833D01*
X0165312D01*
X0167311D02*
X0169310Y0087833D01*
X0174309Y0093831D02*
X0172309D01*
X0171310Y0092832D01*
Y0088833D01*
X0172309Y0087833D01*
X0174309D01*
X0175308Y0088833D01*
Y0092832D01*
X0174309Y0093831D01*
X0177308Y0087833D02*
Y0093831D01*
X0179307Y0091832D01*
X0181306Y0093831D01*
Y0087833D01*
X0189304Y0093831D02*
X0193303D01*
X0191303D01*
Y0087833D01*
X0198301Y0093831D02*
X0196301D01*
X0195302Y0092832D01*
Y0088833D01*
X0196301Y0087833D01*
X0198301D01*
X0199301Y0088833D01*
Y0092832D01*
X0198301Y0093831D01*
X0201300Y0087833D02*
Y0093831D01*
X0204299D01*
X0205299Y0092832D01*
Y0090832D01*
X0204299Y0089833D01*
X0201300D01*
X0217295Y0092832D02*
X0216295Y0093831D01*
X0214296D01*
X0213296Y0092832D01*
Y0091832D01*
X0214296Y0090832D01*
X0216295D01*
X0217295Y0089833D01*
Y0088833D01*
X0216295Y0087833D01*
X0214296D01*
X0213296Y0088833D01*
X0219294Y0093831D02*
X0221293D01*
X0220294D01*
Y0087833D01*
X0219294D01*
X0221293D01*
X0224292Y0093831D02*
Y0087833D01*
X0227291D01*
X0228291Y0088833D01*
Y0092832D01*
X0227291Y0093831D01*
X0224292D01*
X0234289D02*
X0230291D01*
Y0087833D01*
X0234289D01*
X0230291Y0090832D02*
X0232290D01*
X0462150Y0087833D02*
Y0091832D01*
X0464149Y0093831D01*
X0466149Y0091832D01*
Y0087833D01*
Y0090832D01*
X0462150D01*
X0348550Y0093831D02*
Y0087833D01*
X0351549D01*
X0352549Y0088833D01*
Y0092832D01*
X0351549Y0093831D01*
X0348550D01*
X0354548Y0087833D02*
Y0093831D01*
X0357547D01*
X0358547Y0092832D01*
Y0090832D01*
X0357547Y0089833D01*
X0354548D01*
X0356547D02*
X0358547Y0087833D01*
X0360546Y0093831D02*
Y0089833D01*
X0362545Y0087833D01*
X0364545Y0089833D01*
Y0093831D01*
X0366544Y0092832D02*
X0367544Y0093831D01*
X0369543D01*
X0370543Y0092832D01*
Y0091832D01*
X0369543Y0090832D01*
X0370543Y0089833D01*
Y0088833D01*
X0369543Y0087833D01*
X0367544D01*
X0366544Y0088833D01*
Y0089833D01*
X0367544Y0090832D01*
X0366544Y0091832D01*
Y0092832D01*
X0367544Y0090832D02*
X0369543D01*
X0372542Y0093831D02*
X0376541D01*
Y0092832D01*
X0372542Y0088833D01*
Y0087833D01*
X0378540Y0092832D02*
X0379540Y0093831D01*
X0381539D01*
X0382539Y0092832D01*
Y0088833D01*
X0381539Y0087833D01*
X0379540D01*
X0378540Y0088833D01*
Y0092832D01*
X0384538Y0087833D02*
X0386538D01*
X0385538D01*
Y0093831D01*
X0384538Y0092832D01*
X0393535Y0093831D02*
X0389537D01*
Y0087833D01*
X0393535D01*
X0389537Y0090832D02*
X0391536D01*
X0395535Y0093831D02*
Y0089833D01*
X0397534Y0087833D01*
X0399534Y0089833D01*
Y0093831D01*
X0401533Y0087833D02*
Y0093831D01*
X0403532Y0091832D01*
X0405532Y0093831D01*
Y0087833D01*
X0294000Y0093831D02*
Y0087833D01*
X0296999D01*
X0297999Y0088833D01*
Y0089833D01*
X0296999Y0090832D01*
X0294000D01*
X0296999D01*
X0297999Y0091832D01*
Y0092832D01*
X0296999Y0093831D01*
X0294000D01*
X0302997D02*
X0300998D01*
X0299998Y0092832D01*
Y0088833D01*
X0300998Y0087833D01*
X0302997D01*
X0303997Y0088833D01*
Y0092832D01*
X0302997Y0093831D01*
X0305996Y0087833D02*
Y0091832D01*
X0307996Y0093831D01*
X0309995Y0091832D01*
Y0087833D01*
Y0090832D01*
X0305996D01*
X0311994Y0087833D02*
Y0093831D01*
X0314993D01*
X0315993Y0092832D01*
Y0090832D01*
X0314993Y0089833D01*
X0311994D01*
X0313994D02*
X0315993Y0087833D01*
X0317992Y0093831D02*
Y0087833D01*
X0320991D01*
X0321991Y0088833D01*
Y0092832D01*
X0320991Y0093831D01*
X0317992D01*
X0330988Y0087833D02*
Y0093831D01*
X0332987D02*
Y0087833D01*
X0329988Y0091832D02*
X0332987D01*
X0333987D01*
X0329988Y0089833D02*
X0333987D01*
X0335986Y0091832D02*
X0336986D01*
Y0090832D01*
X0335986D01*
Y0091832D01*
Y0088833D02*
X0336986D01*
Y0087833D01*
X0335986D01*
Y0088833D01*
X0046350Y0073549D02*
Y0067551D01*
X0050349D01*
X0052348D02*
Y0071549D01*
X0054347Y0073549D01*
X0056347Y0071549D01*
Y0067551D01*
Y0070550D01*
X0052348D01*
X0058346Y0073549D02*
Y0072549D01*
X0060346Y0070550D01*
X0062345Y0072549D01*
Y0073549D01*
X0060346Y0070550D02*
Y0067551D01*
X0068343Y0073549D02*
X0064344D01*
Y0067551D01*
X0068343D01*
X0064344Y0070550D02*
X0066343D01*
X0070342Y0067551D02*
Y0073549D01*
X0073341D01*
X0074341Y0072549D01*
Y0070550D01*
X0073341Y0069550D01*
X0070342D01*
X0072342D02*
X0074341Y0067551D01*
X0082338D02*
Y0073549D01*
X0086337Y0067551D01*
Y0073549D01*
X0088336Y0067551D02*
Y0071549D01*
X0090336Y0073549D01*
X0092335Y0071549D01*
Y0067551D01*
Y0070550D01*
X0088336D01*
X0094335Y0067551D02*
Y0073549D01*
X0096334Y0071549D01*
X0098333Y0073549D01*
Y0067551D01*
X0104331Y0073549D02*
X0100332D01*
Y0067551D01*
X0104331D01*
X0100332Y0070550D02*
X0102332D01*
X0112329Y0069550D02*
X0116327D01*
X0112329Y0071549D02*
X0116327D01*
X0046350Y0046966D02*
Y0052965D01*
X0049349D01*
X0050349Y0051965D01*
Y0049966D01*
X0049349Y0048966D01*
X0046350D01*
X0052348Y0052965D02*
Y0046966D01*
X0056347D01*
X0061345Y0052965D02*
X0059346D01*
X0058346Y0051965D01*
Y0047966D01*
X0059346Y0046966D01*
X0061345D01*
X0062345Y0047966D01*
Y0051965D01*
X0061345Y0052965D01*
X0064344D02*
X0068343D01*
X0066343D01*
Y0046966D01*
X0076340D02*
Y0052965D01*
X0080339Y0046966D01*
Y0052965D01*
X0082338Y0046966D02*
Y0050965D01*
X0084338Y0052965D01*
X0086337Y0050965D01*
Y0046966D01*
Y0049966D01*
X0082338D01*
X0088336Y0046966D02*
Y0052965D01*
X0090336Y0050965D01*
X0092335Y0052965D01*
Y0046966D01*
X0098333Y0052965D02*
X0094335D01*
Y0046966D01*
X0098333D01*
X0094335Y0049966D02*
X0096334D01*
X0106331Y0048966D02*
X0110329D01*
X0106331Y0050965D02*
X0110329D01*
X0458049Y0052965D02*
X0454050D01*
Y0049966D01*
X0456049Y0050965D01*
X0457049D01*
X0458049Y0049966D01*
Y0047966D01*
X0457049Y0046966D01*
X0455050D01*
X0454050Y0047966D01*
X0460048Y0050965D02*
X0461048D01*
Y0049966D01*
X0460048D01*
Y0050965D01*
Y0047966D02*
X0461048D01*
Y0046966D01*
X0460048D01*
Y0047966D01*
X0465046Y0051965D02*
X0466046Y0052965D01*
X0468046D01*
X0469045Y0051965D01*
Y0050965D01*
X0468046Y0049966D01*
X0467046D01*
X0468046D01*
X0469045Y0048966D01*
Y0047966D01*
X0468046Y0046966D01*
X0466046D01*
X0465046Y0047966D01*
X0471044Y0052965D02*
X0475043D01*
Y0051965D01*
X0471044Y0047966D01*
Y0046966D01*
X0477043Y0050965D02*
X0478042D01*
Y0049966D01*
X0477043D01*
Y0050965D01*
Y0047966D02*
X0478042D01*
Y0046966D01*
X0477043D01*
Y0047966D01*
X0482041Y0051965D02*
X0483041Y0052965D01*
X0485040D01*
X0486040Y0051965D01*
Y0050965D01*
X0485040Y0049966D01*
X0484040D01*
X0485040D01*
X0486040Y0048966D01*
Y0047966D01*
X0485040Y0046966D01*
X0483041D01*
X0482041Y0047966D01*
X0488039Y0051965D02*
X0489039Y0052965D01*
X0491038D01*
X0492038Y0051965D01*
Y0050965D01*
X0491038Y0049966D01*
X0492038Y0048966D01*
Y0047966D01*
X0491038Y0046966D01*
X0489039D01*
X0488039Y0047966D01*
Y0048966D01*
X0489039Y0049966D01*
X0488039Y0050965D01*
Y0051965D01*
X0489039Y0049966D02*
X0491038D01*
X0500035Y0046966D02*
Y0052965D01*
X0503034D01*
X0504034Y0051965D01*
Y0049966D01*
X0503034Y0048966D01*
X0500035D01*
X0506033Y0046966D02*
Y0052965D01*
X0508033Y0050965D01*
X0510032Y0052965D01*
Y0046966D01*
X0580500Y0052965D02*
X0584499D01*
X0582499D01*
Y0046966D01*
X0590497Y0052965D02*
X0586498D01*
Y0046966D01*
X0590497D01*
X0586498Y0049966D02*
X0588497D01*
X0592496Y0052965D02*
X0596495Y0046966D01*
Y0052965D02*
X0592496Y0046966D01*
X0598494D02*
Y0050965D01*
X0600493Y0052965D01*
X0602493Y0050965D01*
Y0046966D01*
Y0049966D01*
X0598494D01*
X0608491Y0051965D02*
X0607491Y0052965D01*
X0605492D01*
X0604492Y0051965D01*
Y0050965D01*
X0605492Y0049966D01*
X0607491D01*
X0608491Y0048966D01*
Y0047966D01*
X0607491Y0046966D01*
X0605492D01*
X0604492Y0047966D01*
X0616488Y0052965D02*
X0618488D01*
X0617488D01*
Y0046966D01*
X0616488D01*
X0618488D01*
X0621487D02*
Y0052965D01*
X0625486Y0046966D01*
Y0052965D01*
X0631484Y0051965D02*
X0630484Y0052965D01*
X0628484D01*
X0627485Y0051965D01*
Y0050965D01*
X0628484Y0049966D01*
X0630484D01*
X0631484Y0048966D01*
Y0047966D01*
X0630484Y0046966D01*
X0628484D01*
X0627485Y0047966D01*
X0633483Y0052965D02*
X0637482D01*
X0635482D01*
Y0046966D01*
X0639481D02*
Y0052965D01*
X0642480D01*
X0643480Y0051965D01*
Y0049966D01*
X0642480Y0048966D01*
X0639481D01*
X0641480D02*
X0643480Y0046966D01*
X0645479Y0052965D02*
Y0047966D01*
X0646479Y0046966D01*
X0648478D01*
X0649478Y0047966D01*
Y0052965D01*
X0651477Y0046966D02*
Y0052965D01*
X0653476Y0050965D01*
X0655476Y0052965D01*
Y0046966D01*
X0661474Y0052965D02*
X0657475D01*
Y0046966D01*
X0661474D01*
X0657475Y0049966D02*
X0659474D01*
X0663473Y0046966D02*
Y0052965D01*
X0667472Y0046966D01*
Y0052965D01*
X0669471D02*
X0673470D01*
X0671471D01*
Y0046966D01*
X0679468Y0051965D02*
X0678468Y0052965D01*
X0676469D01*
X0675469Y0051965D01*
Y0050965D01*
X0676469Y0049966D01*
X0678468D01*
X0679468Y0048966D01*
Y0047966D01*
X0678468Y0046966D01*
X0676469D01*
X0675469Y0047966D01*
G54D38*
X0340357Y0355900D02*
D03*
X0379200Y0166900D02*
D03*
X0339200D02*
D03*
X0401700Y0272743D02*
D03*
G54D39*
X0360043Y0355900D02*
D03*
G54D40*
X0134200Y0158400D02*
D03*
X0144200D02*
D03*
X0154200D02*
D03*
X0124200D02*
D03*
G54D41*
X0213944Y0271400D02*
D03*
X0246700Y0306400D02*
D03*
X0236200Y0279400D02*
D03*
X0219944Y0271400D02*
D03*
X0119112Y0163463D02*
D03*
X0159112D02*
D03*
X0130200Y0251900D02*
D03*
X0132700Y0249400D02*
D03*
X0117700Y0246900D02*
D03*
X0114700Y0239900D02*
D03*
X0197700Y0262400D02*
D03*
Y0243400D02*
D03*
X0191700Y0364400D02*
D03*
X0202700Y0339400D02*
D03*
X0409200Y0203400D02*
D03*
Y0213400D02*
D03*
Y0303400D02*
D03*
Y0313400D02*
D03*
X0322112Y0194463D02*
D03*
X0312112D02*
D03*
Y0200463D02*
D03*
X0247112Y0297463D02*
D03*
X0247112Y0293963D02*
D03*
X0247112Y0290463D02*
D03*
X0251112Y0286463D02*
D03*
X0241112Y0273463D02*
D03*
X0253112Y0301463D02*
D03*
Y0305463D02*
D03*
X0109112Y0273463D02*
D03*
Y0283463D02*
D03*
X0099112D02*
D03*
X0079112D02*
D03*
X0089112D02*
D03*
Y0273463D02*
D03*
X0079112Y0243463D02*
D03*
X0089112D02*
D03*
Y0193463D02*
D03*
X0109112Y0163463D02*
D03*
Y0173463D02*
D03*
X0119112D02*
D03*
X0129112D02*
D03*
X0149112Y0183463D02*
D03*
Y0173463D02*
D03*
X0159112D02*
D03*
Y0183463D02*
D03*
X0169112D02*
D03*
Y0173463D02*
D03*
Y0163463D02*
D03*
X0179112D02*
D03*
Y0173463D02*
D03*
Y0183463D02*
D03*
Y0193463D02*
D03*
X0169112D02*
D03*
X0159112D02*
D03*
X0149112D02*
D03*
Y0203463D02*
D03*
X0159112D02*
D03*
X0169112D02*
D03*
X0179112D02*
D03*
Y0213463D02*
D03*
X0169112D02*
D03*
X0159112D02*
D03*
X0149112D02*
D03*
Y0223463D02*
D03*
X0169112D02*
D03*
X0159112D02*
D03*
Y0233463D02*
D03*
X0169112D02*
D03*
X0179112Y0223463D02*
D03*
Y0233463D02*
D03*
Y0303463D02*
D03*
Y0293463D02*
D03*
Y0283463D02*
D03*
Y0273463D02*
D03*
Y0263463D02*
D03*
Y0253463D02*
D03*
Y0243463D02*
D03*
X0139112Y0273463D02*
D03*
X0129112Y0283463D02*
D03*
Y0293463D02*
D03*
X0139112D02*
D03*
Y0303463D02*
D03*
X0129112D02*
D03*
Y0313463D02*
D03*
Y0323463D02*
D03*
Y0333463D02*
D03*
X0139112D02*
D03*
Y0323463D02*
D03*
Y0313463D02*
D03*
X0149112Y0303463D02*
D03*
Y0313463D02*
D03*
Y0323463D02*
D03*
Y0333463D02*
D03*
X0159112Y0323463D02*
D03*
X0169112Y0313463D02*
D03*
Y0323463D02*
D03*
X0179112Y0313463D02*
D03*
Y0323463D02*
D03*
Y0333463D02*
D03*
X0169112D02*
D03*
X0159112D02*
D03*
Y0343463D02*
D03*
X0169112D02*
D03*
X0179112D02*
D03*
Y0353463D02*
D03*
Y0363463D02*
D03*
X0169112D02*
D03*
X0159112D02*
D03*
X0149112D02*
D03*
X0409112Y0233463D02*
D03*
Y0223463D02*
D03*
X0399112D02*
D03*
X0389112Y0213463D02*
D03*
X0399112D02*
D03*
Y0203463D02*
D03*
Y0193463D02*
D03*
X0389112D02*
D03*
Y0203463D02*
D03*
X0379112D02*
D03*
Y0193463D02*
D03*
Y0183463D02*
D03*
Y0173463D02*
D03*
X0369112D02*
D03*
Y0183463D02*
D03*
Y0193463D02*
D03*
X0359112D02*
D03*
Y0183463D02*
D03*
X0349112Y0173463D02*
D03*
Y0183463D02*
D03*
X0339112Y0173463D02*
D03*
Y0183463D02*
D03*
X0329112D02*
D03*
Y0173463D02*
D03*
X0309112D02*
D03*
X0299112D02*
D03*
X0289112Y0193463D02*
D03*
X0279112D02*
D03*
X0299112Y0183463D02*
D03*
X0279112D02*
D03*
X0289112D02*
D03*
X0199112Y0173463D02*
D03*
Y0163463D02*
D03*
X0269112Y0173463D02*
D03*
Y0183463D02*
D03*
Y0193463D02*
D03*
X0239112Y0223463D02*
D03*
X0229112D02*
D03*
X0219112D02*
D03*
X0209112D02*
D03*
Y0233463D02*
D03*
X0219112D02*
D03*
X0229112D02*
D03*
X0289112D02*
D03*
X0279112D02*
D03*
X0269112D02*
D03*
X0259112D02*
D03*
Y0243463D02*
D03*
X0249112Y0233463D02*
D03*
Y0253463D02*
D03*
Y0243463D02*
D03*
X0229112D02*
D03*
X0221612Y0253963D02*
D03*
X0219112Y0243463D02*
D03*
X0200612Y0288463D02*
D03*
X0199112Y0323463D02*
D03*
X0219200Y0333400D02*
D03*
X0229112Y0303463D02*
D03*
X0219112D02*
D03*
X0239112Y0323463D02*
D03*
X0249112D02*
D03*
X0259112Y0333463D02*
D03*
X0249112D02*
D03*
X0239112D02*
D03*
X0229112Y0323463D02*
D03*
X0219112D02*
D03*
X0229112Y0333463D02*
D03*
Y0343463D02*
D03*
Y0363463D02*
D03*
X0239112D02*
D03*
X0249112D02*
D03*
X0259112D02*
D03*
X0269112Y0333463D02*
D03*
X0289112D02*
D03*
X0279112D02*
D03*
X0309112Y0353463D02*
D03*
X0299112D02*
D03*
X0289112D02*
D03*
X0279112D02*
D03*
X0309112Y0363463D02*
D03*
X0289112D02*
D03*
X0269112D02*
D03*
X0409112Y0293463D02*
D03*
X0399112Y0303463D02*
D03*
X0389112Y0313463D02*
D03*
X0399112D02*
D03*
X0409112Y0323463D02*
D03*
X0399112D02*
D03*
X0389112D02*
D03*
X0379112D02*
D03*
X0274112Y0213463D02*
D03*
Y0208463D02*
D03*
X0279200Y0208400D02*
D03*
X0284112Y0208463D02*
D03*
Y0213463D02*
D03*
Y0218463D02*
D03*
X0279112D02*
D03*
X0274112D02*
D03*
X0269112Y0213463D02*
D03*
Y0218463D02*
D03*
Y0223463D02*
D03*
X0274112D02*
D03*
X0279112D02*
D03*
X0284112D02*
D03*
X0279112Y0308463D02*
D03*
X0274112Y0313463D02*
D03*
X0269112D02*
D03*
X0269200Y0308400D02*
D03*
X0264112Y0308463D02*
D03*
Y0303463D02*
D03*
X0269112D02*
D03*
X0274112D02*
D03*
X0279112D02*
D03*
X0284112D02*
D03*
Y0308463D02*
D03*
Y0313463D02*
D03*
X0274112Y0308463D02*
D03*
Y0318463D02*
D03*
X0279112D02*
D03*
X0284112D02*
D03*
X0269112Y0248463D02*
D03*
X0279112Y0253463D02*
D03*
X0284112D02*
D03*
Y0248463D02*
D03*
X0279112D02*
D03*
X0274112D02*
D03*
Y0253463D02*
D03*
Y0258463D02*
D03*
Y0263463D02*
D03*
Y0268463D02*
D03*
X0324112Y0223463D02*
D03*
X0314112D02*
D03*
X0324112Y0218463D02*
D03*
X0319112D02*
D03*
X0314112D02*
D03*
X0304112D02*
D03*
X0299112Y0223463D02*
D03*
X0304112D02*
D03*
X0309112D02*
D03*
Y0218463D02*
D03*
Y0213463D02*
D03*
Y0208463D02*
D03*
X0304112D02*
D03*
X0299112D02*
D03*
X0324112Y0308463D02*
D03*
X0314112D02*
D03*
X0324112Y0303463D02*
D03*
X0319112D02*
D03*
X0314112D02*
D03*
X0304200Y0308400D02*
D03*
X0299112Y0303463D02*
D03*
X0304112D02*
D03*
X0309112D02*
D03*
Y0308463D02*
D03*
Y0313463D02*
D03*
Y0318463D02*
D03*
X0304112D02*
D03*
X0299254Y0318278D02*
D03*
X0216700Y0253400D02*
D03*
X0136200Y0255400D02*
D03*
X0148700Y0268400D02*
D03*
Y0234900D02*
D03*
X0156200Y0298400D02*
D03*
X0151200Y0262900D02*
D03*
X0153700Y0278400D02*
D03*
Y0260400D02*
D03*
X0156200Y0238400D02*
D03*
X0153700Y0256400D02*
D03*
X0156200Y0288400D02*
D03*
Y0249400D02*
D03*
X0092200Y0268900D02*
D03*
Y0257400D02*
D03*
X0221200Y0275400D02*
D03*
X0330200Y0268400D02*
D03*
X0357200Y0200900D02*
D03*
Y0221400D02*
D03*
X0115200Y0254400D02*
D03*
X0118200Y0256400D02*
D03*
X0130200Y0344400D02*
D03*
X0095200Y0252679D02*
D03*
X0092200Y0229900D02*
D03*
X0108200Y0258900D02*
D03*
Y0254400D02*
D03*
X0128200Y0198900D02*
D03*
X0130700Y0191900D02*
D03*
X0128200Y0194900D02*
D03*
X0119700Y0224400D02*
D03*
X0093200Y0214900D02*
D03*
Y0221900D02*
D03*
X0206200Y0266400D02*
D03*
X0209700D02*
D03*
X0206200Y0290400D02*
D03*
X0212200D02*
D03*
X0216700Y0274644D02*
D03*
X0202200Y0298400D02*
D03*
X0215700Y0295900D02*
D03*
X0209700Y0339400D02*
D03*
X0120968Y0268924D02*
D03*
X0112200Y0260400D02*
D03*
Y0307900D02*
D03*
X0343700Y0319900D02*
D03*
Y0312900D02*
D03*
Y0316400D02*
D03*
Y0309400D02*
D03*
Y0305900D02*
D03*
X0340200D02*
D03*
Y0309400D02*
D03*
Y0316400D02*
D03*
Y0312900D02*
D03*
Y0319900D02*
D03*
X0336700Y0305900D02*
D03*
Y0309400D02*
D03*
Y0316400D02*
D03*
Y0312900D02*
D03*
Y0319900D02*
D03*
X0333200Y0305900D02*
D03*
Y0309400D02*
D03*
Y0316400D02*
D03*
Y0312900D02*
D03*
Y0319900D02*
D03*
X0332700Y0220900D02*
D03*
Y0213900D02*
D03*
Y0217400D02*
D03*
Y0210400D02*
D03*
Y0206900D02*
D03*
X0336200Y0220900D02*
D03*
Y0213900D02*
D03*
Y0217400D02*
D03*
Y0210400D02*
D03*
Y0206900D02*
D03*
X0339700Y0220900D02*
D03*
Y0213900D02*
D03*
Y0217400D02*
D03*
Y0210400D02*
D03*
Y0206900D02*
D03*
X0343200D02*
D03*
Y0210400D02*
D03*
Y0217400D02*
D03*
Y0213900D02*
D03*
Y0220900D02*
D03*
X0297200Y0333900D02*
D03*
X0292444Y0326400D02*
D03*
X0299200Y0248400D02*
D03*
X0304200D02*
D03*
X0309200D02*
D03*
X0314200D02*
D03*
X0319200D02*
D03*
X0324200D02*
D03*
X0299200Y0253400D02*
D03*
X0304200D02*
D03*
X0309200D02*
D03*
X0314200D02*
D03*
X0324200D02*
D03*
X0299200Y0258400D02*
D03*
Y0263400D02*
D03*
Y0268400D02*
D03*
Y0273400D02*
D03*
Y0278400D02*
D03*
X0304200D02*
D03*
X0309200D02*
D03*
X0314200D02*
D03*
X0324200D02*
D03*
X0319200Y0273400D02*
D03*
X0324200D02*
D03*
X0314200D02*
D03*
X0309200D02*
D03*
X0304200D02*
D03*
X0309200Y0268400D02*
D03*
Y0263400D02*
D03*
Y0258400D02*
D03*
X0314200D02*
D03*
Y0268400D02*
D03*
X0324200D02*
D03*
Y0258400D02*
D03*
X0329200Y0263400D02*
D03*
Y0258400D02*
D03*
X0284200Y0278400D02*
D03*
X0279200D02*
D03*
X0274200D02*
D03*
X0269200D02*
D03*
Y0273400D02*
D03*
X0264200D02*
D03*
X0274200D02*
D03*
X0279200D02*
D03*
X0284200D02*
D03*
X0321200Y0330900D02*
D03*
X0326700Y0332900D02*
D03*
G54D42*
X0401200Y0171400D02*
D03*
X0087700Y0354900D02*
D03*
X0401200Y0355400D02*
D03*
X0087200Y0171400D02*
D03*
G54D43*
X0298542Y0213900D02*
D03*
Y0312900D02*
D03*
G54D44*
X0278857Y0213900D02*
D03*
X0104700Y0299400D02*
D03*
Y0309400D02*
D03*
X0278857Y0312900D02*
D03*
G54D45*
X0319200Y0236400D02*
D03*
X0265700Y0263400D02*
D03*
X0319200Y0209400D02*
D03*
Y0263400D02*
D03*
X0378700Y0365900D02*
D03*
X0322200Y0365400D02*
D03*
X0319200Y0317400D02*
D03*
Y0344400D02*
D03*
Y0182400D02*
D03*
X0367200Y0279900D02*
D03*
Y0246900D02*
D03*
X0319200Y0290400D02*
D03*
G54D46*
X0194200Y0218400D02*
D03*
Y0228400D02*
D03*
Y0238400D02*
D03*
Y0248400D02*
D03*
Y0258400D02*
D03*
Y0268400D02*
D03*
Y0278400D02*
D03*
Y0288400D02*
D03*
Y0298400D02*
D03*
G54D47*
Y0308400D02*
D03*
G54D48*
X0207200Y0173900D02*
D03*
G54D49*
Y0183900D02*
D03*
X0217200Y0173900D02*
D03*
Y0183900D02*
D03*
X0227200Y0173900D02*
D03*
Y0183900D02*
D03*
X0237200Y0173900D02*
D03*
Y0183900D02*
D03*
X0247200Y0173900D02*
D03*
Y0183900D02*
D03*
X0257200Y0173900D02*
D03*
Y0183900D02*
D03*
G54D50*
X0104700Y0319400D02*
D03*
G54D51*
X0115221Y0359300D02*
D03*
G54D52*
X0125221D02*
D03*
X0120221D02*
D03*
X0130221D02*
D03*
G54D53*
X0152700Y0351400D02*
D03*
G54D54*
X0162700D02*
D03*
X0172700D02*
D03*
G54D55*
X0401700Y0253058D02*
D03*
G54D56*
X0227672Y0263400D02*
D03*
X0232200Y0258872D02*
D03*
Y0267928D02*
D03*
X0236728Y0263400D02*
D03*
X0232200D02*
D03*
M02*
