M48
;Layer_Color=9474304
;FILE_FORMAT=2:5
INCH
;TYPE=PLATED
T1F00S00C0.00800
T2F00S00C0.01500
T3F00S00C0.02559
T4F00S00C0.03346
T5F00S00C0.03543
T6F00S00C0.04000
T7F00S00C0.04016
T8F00S00C0.05118
T9F00S00C0.06300
T10F00S00C0.12598
%
T01
X0227672Y0263400
X0232200
Y0258872
X0236728Y0263400
X0232200Y0267928
T02
X0329112Y0173463
X0339112
X0349112
Y0183463
X0359112
X0369112
X0379112
Y0193463
X0389112
X0399112
Y0203463
Y0213463
Y0223463
X0409112
Y0233463
X0409200Y0213400
Y0203400
X0389112Y0203463
Y0213463
X0379112Y0203463
X0369112Y0193463
X0359112
X0357200Y0200900
X0343200Y0206900
X0339700
X0336200
X0332700
Y0210400
Y0213900
Y0217400
Y0220900
X0336200
Y0217400
Y0213900
Y0210400
X0339700
Y0213900
Y0217400
Y0220900
X0343200
Y0217400
Y0213900
Y0210400
X0357200Y0221400
X0324112Y0223463
Y0218463
X0319112
X0314112
Y0223463
X0314200Y0248400
X0319200
X0324200
Y0253400
Y0258400
X0329200
Y0263400
X0330200Y0268400
X0324200
Y0273400
Y0278400
X0314200
Y0273400
X0319200
X0314200Y0268400
Y0258400
Y0253400
X0314112Y0303463
Y0308463
X0324112
Y0303463
X0319112
X0333200Y0305900
X0336700
X0340200
X0343700
Y0309400
X0340200
X0336700
X0333200
X0399112Y0303463
X0409200Y0303400
X0409112Y0293463
X0379112Y0173463
X0369112
X0339112Y0183463
X0329112
X0322112Y0194463
X0312112
Y0200463
X0309112Y0208463
Y0213463
Y0218463
X0304112
Y0223463
X0299112
X0309112
X0304112Y0208463
X0299112
X0284112
X0279200Y0208400
X0274112Y0208463
Y0213463
Y0218463
X0279112
X0284112
Y0213463
Y0223463
X0279112
X0274112
X0269112
Y0218463
Y0213463
Y0193463
X0279112
X0289112
Y0183463
X0299112
Y0173463
X0309112
X0279112Y0183463
X0269112
Y0173463
Y0233463
X0279112
X0289112
X0284112Y0248463
Y0253463
X0279112
Y0248463
X0274112
X0269112
X0274112Y0253463
Y0258463
Y0263463
Y0268463
X0274200Y0273400
Y0278400
X0279200
X0284200
Y0273400
X0279200
X0269200
Y0278400
X0264200Y0273400
X0241112Y0273463
X0236200Y0279400
X0221200Y0275400
X0216700Y0274644
X0213944Y0271400
X0219944
X0209700Y0266400
X0206200
X0197700Y0262400
Y0243400
X0179112Y0243463
Y0233463
X0169112
Y0223463
Y0213463
Y0203463
Y0193463
Y0183463
X0159112
Y0173463
Y0163463
X0169112
Y0173463
X0179112
Y0163463
Y0183463
Y0193463
Y0203463
Y0213463
Y0223463
X0159112
Y0213463
Y0203463
Y0193463
Y0233463
X0179112Y0253463
Y0263463
Y0273463
Y0283463
Y0293463
Y0303463
X0202200Y0298400
X0200612Y0288463
X0206200Y0290400
X0212200
X0215700Y0295900
X0219112Y0303463
X0229112
X0246700Y0306400
X0253112Y0305463
Y0301463
X0247112Y0297463
X0247112Y0293963
X0247112Y0290463
X0251112Y0286463
X0264112Y0303463
Y0308463
X0269200Y0308400
X0274112Y0308463
X0279112
Y0303463
X0274112
X0269112
X0284112
Y0308463
X0299112Y0303463
X0304112
X0309112
Y0308463
X0304200Y0308400
Y0278400
X0299200
Y0273400
Y0268400
Y0263400
Y0258400
Y0253400
Y0248400
X0304200
X0309200
Y0253400
X0304200
X0309200Y0258400
Y0263400
Y0268400
Y0273400
Y0278400
X0304200Y0273400
X0259112Y0243463
Y0233463
X0249112
Y0243463
Y0253463
X0221612Y0253963
X0216700Y0253400
X0219112Y0243463
Y0233463
Y0223463
X0229112
X0239112
X0229112Y0233463
Y0243463
X0209112Y0233463
Y0223463
X0199112Y0173463
Y0163463
X0149112Y0173463
Y0183463
Y0193463
Y0203463
Y0213463
Y0223463
X0148700Y0234900
X0156200Y0238400
Y0249400
X0153700Y0256400
Y0260400
X0151200Y0262900
X0148700Y0268400
X0139112Y0273463
X0153700Y0278400
X0156200Y0288400
Y0298400
X0149112Y0303463
X0139112
Y0293463
X0129112
Y0283463
X0109112
Y0273463
X0108200Y0258900
Y0254400
X0115200
X0118200Y0256400
X0117700Y0246900
X0114700Y0239900
X0119700Y0224400
X0093200Y0221900
Y0214900
X0092200Y0229900
X0089112Y0243463
X0079112
X0095200Y0252679
X0092200Y0257400
Y0268900
X0089112Y0273463
Y0283463
X0099112
X0079112
X0112200Y0260400
X0120968Y0268924
X0130200Y0251900
X0132700Y0249400
X0136200Y0255400
X0129112Y0303463
X0112200Y0307900
X0128200Y0198900
Y0194900
X0130700Y0191900
X0129112Y0173463
X0119112
Y0163463
X0109112
Y0173463
X0089112Y0193463
X0129112Y0313463
Y0323463
Y0333463
X0139112
Y0323463
Y0313463
X0149112
Y0323463
Y0333463
X0130200Y0344400
X0149112Y0363463
X0159112
X0169112
X0179112
Y0353463
Y0343463
Y0333463
Y0323463
X0169112
X0159112
Y0333463
X0169112
Y0343463
X0159112
X0169112Y0313463
X0179112
X0199112Y0323463
X0202700Y0339400
X0209700
X0219200Y0333400
X0229112Y0333463
X0239112
Y0323463
X0249112
Y0333463
X0259112
X0269112
X0279112
X0289112
X0297200Y0333900
X0292444Y0326400
X0299254Y0318278
X0304112Y0318463
X0309112
Y0313463
X0284112
Y0318463
X0279112
X0274112
Y0313463
X0269112
X0229112Y0323463
X0219112
X0229112Y0343463
Y0363463
X0239112
X0249112
X0259112
X0269112
X0279112Y0353463
X0289112
X0299112
X0309112
Y0363463
X0289112
X0191700Y0364400
X0321200Y0330900
X0326700Y0332900
X0333200Y0319900
X0336700
X0340200
X0343700
Y0316400
Y0312900
X0340200
Y0316400
X0336700
Y0312900
X0333200
Y0316400
X0379112Y0323463
X0389112
Y0313463
X0399112
Y0323463
X0409112
X0409200Y0313400
T03
X0115221Y0359300
X0120221
X0125221
X0130221
T04
X0152700Y0351400
X0162700
X0172700
T05
X0278857Y0213900
X0298542
Y0312900
X0278857
T06
X0207200Y0173900
Y0183900
X0217200
Y0173900
X0227200
Y0183900
X0237200
Y0173900
X0247200
Y0183900
X0257200
Y0173900
X0194200Y0308400
X0104700Y0309400
Y0299400
X0124200Y0158400
X0134200
X0144200
X0154200
X0104700Y0319400
T07
X0194200Y0218400
Y0228400
Y0238400
Y0248400
Y0258400
Y0268400
Y0278400
Y0288400
Y0298400
T08
X0339200Y0166900
X0379200
X0401700Y0253058
Y0272743
X0360043Y0355900
X0340357
T09
X0319200Y0182400
Y0209400
Y0236400
Y0263400
Y0290400
X0367200Y0279900
Y0246900
X0265700Y0263400
X0319200Y0317400
Y0344400
X0322200Y0365400
X0378700Y0365900
T10
X0401200Y0171400
X0087200
X0087700Y0354900
X0401200Y0355400
M30
