%TF.GenerationSoftware,KiCad,Pcbnew,9.0.7-9.0.7~ubuntu22.04.1*%
%TF.CreationDate,2026-02-03T08:37:43-07:00*%
%TF.ProjectId,Power_Brick,506f7765-725f-4427-9269-636b2e6b6963,1.1*%
%TF.SameCoordinates,Original*%
%TF.FileFunction,Legend,Top*%
%TF.FilePolarity,Positive*%
%FSLAX46Y46*%
G04 Gerber Fmt 4.6, Leading zero omitted, Abs format (unit mm)*
G04 Created by KiCad (PCBNEW 9.0.7-9.0.7~ubuntu22.04.1) date 2026-02-03 08:37:43*
%MOMM*%
%LPD*%
G01*
G04 APERTURE LIST*
%ADD10C,0.187500*%
%ADD11C,0.150000*%
%ADD12C,0.200000*%
%ADD13C,0.152400*%
%ADD14C,0.120000*%
%ADD15C,0.127000*%
%ADD16C,0.203200*%
G04 APERTURE END LIST*
D10*
X206730497Y-145648464D02*
X207194783Y-145648464D01*
X207194783Y-145648464D02*
X206944783Y-145934178D01*
X206944783Y-145934178D02*
X207051926Y-145934178D01*
X207051926Y-145934178D02*
X207123355Y-145969892D01*
X207123355Y-145969892D02*
X207159069Y-146005607D01*
X207159069Y-146005607D02*
X207194783Y-146077035D01*
X207194783Y-146077035D02*
X207194783Y-146255607D01*
X207194783Y-146255607D02*
X207159069Y-146327035D01*
X207159069Y-146327035D02*
X207123355Y-146362750D01*
X207123355Y-146362750D02*
X207051926Y-146398464D01*
X207051926Y-146398464D02*
X206837640Y-146398464D01*
X206837640Y-146398464D02*
X206766212Y-146362750D01*
X206766212Y-146362750D02*
X206730497Y-146327035D01*
X207516212Y-146327035D02*
X207551926Y-146362750D01*
X207551926Y-146362750D02*
X207516212Y-146398464D01*
X207516212Y-146398464D02*
X207480498Y-146362750D01*
X207480498Y-146362750D02*
X207516212Y-146327035D01*
X207516212Y-146327035D02*
X207516212Y-146398464D01*
X207801926Y-145648464D02*
X208266212Y-145648464D01*
X208266212Y-145648464D02*
X208016212Y-145934178D01*
X208016212Y-145934178D02*
X208123355Y-145934178D01*
X208123355Y-145934178D02*
X208194784Y-145969892D01*
X208194784Y-145969892D02*
X208230498Y-146005607D01*
X208230498Y-146005607D02*
X208266212Y-146077035D01*
X208266212Y-146077035D02*
X208266212Y-146255607D01*
X208266212Y-146255607D02*
X208230498Y-146327035D01*
X208230498Y-146327035D02*
X208194784Y-146362750D01*
X208194784Y-146362750D02*
X208123355Y-146398464D01*
X208123355Y-146398464D02*
X207909069Y-146398464D01*
X207909069Y-146398464D02*
X207837641Y-146362750D01*
X207837641Y-146362750D02*
X207801926Y-146327035D01*
X213944783Y-146648464D02*
X214016212Y-146648464D01*
X214016212Y-146648464D02*
X214087640Y-146684178D01*
X214087640Y-146684178D02*
X214123355Y-146719892D01*
X214123355Y-146719892D02*
X214159069Y-146791321D01*
X214159069Y-146791321D02*
X214194783Y-146934178D01*
X214194783Y-146934178D02*
X214194783Y-147112750D01*
X214194783Y-147112750D02*
X214159069Y-147255607D01*
X214159069Y-147255607D02*
X214123355Y-147327035D01*
X214123355Y-147327035D02*
X214087640Y-147362750D01*
X214087640Y-147362750D02*
X214016212Y-147398464D01*
X214016212Y-147398464D02*
X213944783Y-147398464D01*
X213944783Y-147398464D02*
X213873355Y-147362750D01*
X213873355Y-147362750D02*
X213837640Y-147327035D01*
X213837640Y-147327035D02*
X213801926Y-147255607D01*
X213801926Y-147255607D02*
X213766212Y-147112750D01*
X213766212Y-147112750D02*
X213766212Y-146934178D01*
X213766212Y-146934178D02*
X213801926Y-146791321D01*
X213801926Y-146791321D02*
X213837640Y-146719892D01*
X213837640Y-146719892D02*
X213873355Y-146684178D01*
X213873355Y-146684178D02*
X213944783Y-146648464D01*
X214051926Y-135505607D02*
X214159069Y-135541321D01*
X214159069Y-135541321D02*
X214194783Y-135577035D01*
X214194783Y-135577035D02*
X214230497Y-135648464D01*
X214230497Y-135648464D02*
X214230497Y-135755607D01*
X214230497Y-135755607D02*
X214194783Y-135827035D01*
X214194783Y-135827035D02*
X214159069Y-135862750D01*
X214159069Y-135862750D02*
X214087640Y-135898464D01*
X214087640Y-135898464D02*
X213801926Y-135898464D01*
X213801926Y-135898464D02*
X213801926Y-135148464D01*
X213801926Y-135148464D02*
X214051926Y-135148464D01*
X214051926Y-135148464D02*
X214123355Y-135184178D01*
X214123355Y-135184178D02*
X214159069Y-135219892D01*
X214159069Y-135219892D02*
X214194783Y-135291321D01*
X214194783Y-135291321D02*
X214194783Y-135362750D01*
X214194783Y-135362750D02*
X214159069Y-135434178D01*
X214159069Y-135434178D02*
X214123355Y-135469892D01*
X214123355Y-135469892D02*
X214051926Y-135505607D01*
X214051926Y-135505607D02*
X213801926Y-135505607D01*
X214944783Y-135898464D02*
X214516212Y-135898464D01*
X214730497Y-135898464D02*
X214730497Y-135148464D01*
X214730497Y-135148464D02*
X214659069Y-135255607D01*
X214659069Y-135255607D02*
X214587640Y-135327035D01*
X214587640Y-135327035D02*
X214516212Y-135362750D01*
X216301926Y-135505607D02*
X216409069Y-135541321D01*
X216409069Y-135541321D02*
X216444783Y-135577035D01*
X216444783Y-135577035D02*
X216480497Y-135648464D01*
X216480497Y-135648464D02*
X216480497Y-135755607D01*
X216480497Y-135755607D02*
X216444783Y-135827035D01*
X216444783Y-135827035D02*
X216409069Y-135862750D01*
X216409069Y-135862750D02*
X216337640Y-135898464D01*
X216337640Y-135898464D02*
X216051926Y-135898464D01*
X216051926Y-135898464D02*
X216051926Y-135148464D01*
X216051926Y-135148464D02*
X216301926Y-135148464D01*
X216301926Y-135148464D02*
X216373355Y-135184178D01*
X216373355Y-135184178D02*
X216409069Y-135219892D01*
X216409069Y-135219892D02*
X216444783Y-135291321D01*
X216444783Y-135291321D02*
X216444783Y-135362750D01*
X216444783Y-135362750D02*
X216409069Y-135434178D01*
X216409069Y-135434178D02*
X216373355Y-135469892D01*
X216373355Y-135469892D02*
X216301926Y-135505607D01*
X216301926Y-135505607D02*
X216051926Y-135505607D01*
X216766212Y-135219892D02*
X216801926Y-135184178D01*
X216801926Y-135184178D02*
X216873355Y-135148464D01*
X216873355Y-135148464D02*
X217051926Y-135148464D01*
X217051926Y-135148464D02*
X217123355Y-135184178D01*
X217123355Y-135184178D02*
X217159069Y-135219892D01*
X217159069Y-135219892D02*
X217194783Y-135291321D01*
X217194783Y-135291321D02*
X217194783Y-135362750D01*
X217194783Y-135362750D02*
X217159069Y-135469892D01*
X217159069Y-135469892D02*
X216730497Y-135898464D01*
X216730497Y-135898464D02*
X217194783Y-135898464D01*
X213444783Y-144434178D02*
X213373355Y-144398464D01*
X213373355Y-144398464D02*
X213266212Y-144398464D01*
X213266212Y-144398464D02*
X213159069Y-144434178D01*
X213159069Y-144434178D02*
X213087640Y-144505607D01*
X213087640Y-144505607D02*
X213051926Y-144577035D01*
X213051926Y-144577035D02*
X213016212Y-144719892D01*
X213016212Y-144719892D02*
X213016212Y-144827035D01*
X213016212Y-144827035D02*
X213051926Y-144969892D01*
X213051926Y-144969892D02*
X213087640Y-145041321D01*
X213087640Y-145041321D02*
X213159069Y-145112750D01*
X213159069Y-145112750D02*
X213266212Y-145148464D01*
X213266212Y-145148464D02*
X213337640Y-145148464D01*
X213337640Y-145148464D02*
X213444783Y-145112750D01*
X213444783Y-145112750D02*
X213480497Y-145077035D01*
X213480497Y-145077035D02*
X213480497Y-144827035D01*
X213480497Y-144827035D02*
X213337640Y-144827035D01*
X213980497Y-156327035D02*
X213944783Y-156362750D01*
X213944783Y-156362750D02*
X213837640Y-156398464D01*
X213837640Y-156398464D02*
X213766212Y-156398464D01*
X213766212Y-156398464D02*
X213659069Y-156362750D01*
X213659069Y-156362750D02*
X213587640Y-156291321D01*
X213587640Y-156291321D02*
X213551926Y-156219892D01*
X213551926Y-156219892D02*
X213516212Y-156077035D01*
X213516212Y-156077035D02*
X213516212Y-155969892D01*
X213516212Y-155969892D02*
X213551926Y-155827035D01*
X213551926Y-155827035D02*
X213587640Y-155755607D01*
X213587640Y-155755607D02*
X213659069Y-155684178D01*
X213659069Y-155684178D02*
X213766212Y-155648464D01*
X213766212Y-155648464D02*
X213837640Y-155648464D01*
X213837640Y-155648464D02*
X213944783Y-155684178D01*
X213944783Y-155684178D02*
X213980497Y-155719892D01*
X214266212Y-156362750D02*
X214373355Y-156398464D01*
X214373355Y-156398464D02*
X214551926Y-156398464D01*
X214551926Y-156398464D02*
X214623355Y-156362750D01*
X214623355Y-156362750D02*
X214659069Y-156327035D01*
X214659069Y-156327035D02*
X214694783Y-156255607D01*
X214694783Y-156255607D02*
X214694783Y-156184178D01*
X214694783Y-156184178D02*
X214659069Y-156112750D01*
X214659069Y-156112750D02*
X214623355Y-156077035D01*
X214623355Y-156077035D02*
X214551926Y-156041321D01*
X214551926Y-156041321D02*
X214409069Y-156005607D01*
X214409069Y-156005607D02*
X214337640Y-155969892D01*
X214337640Y-155969892D02*
X214301926Y-155934178D01*
X214301926Y-155934178D02*
X214266212Y-155862750D01*
X214266212Y-155862750D02*
X214266212Y-155791321D01*
X214266212Y-155791321D02*
X214301926Y-155719892D01*
X214301926Y-155719892D02*
X214337640Y-155684178D01*
X214337640Y-155684178D02*
X214409069Y-155648464D01*
X214409069Y-155648464D02*
X214587640Y-155648464D01*
X214587640Y-155648464D02*
X214694783Y-155684178D01*
X215159069Y-155648464D02*
X215230498Y-155648464D01*
X215230498Y-155648464D02*
X215301926Y-155684178D01*
X215301926Y-155684178D02*
X215337641Y-155719892D01*
X215337641Y-155719892D02*
X215373355Y-155791321D01*
X215373355Y-155791321D02*
X215409069Y-155934178D01*
X215409069Y-155934178D02*
X215409069Y-156112750D01*
X215409069Y-156112750D02*
X215373355Y-156255607D01*
X215373355Y-156255607D02*
X215337641Y-156327035D01*
X215337641Y-156327035D02*
X215301926Y-156362750D01*
X215301926Y-156362750D02*
X215230498Y-156398464D01*
X215230498Y-156398464D02*
X215159069Y-156398464D01*
X215159069Y-156398464D02*
X215087641Y-156362750D01*
X215087641Y-156362750D02*
X215051926Y-156327035D01*
X215051926Y-156327035D02*
X215016212Y-156255607D01*
X215016212Y-156255607D02*
X214980498Y-156112750D01*
X214980498Y-156112750D02*
X214980498Y-155934178D01*
X214980498Y-155934178D02*
X215016212Y-155791321D01*
X215016212Y-155791321D02*
X215051926Y-155719892D01*
X215051926Y-155719892D02*
X215087641Y-155684178D01*
X215087641Y-155684178D02*
X215159069Y-155648464D01*
X200730497Y-156148464D02*
X201194783Y-156148464D01*
X201194783Y-156148464D02*
X200944783Y-156434178D01*
X200944783Y-156434178D02*
X201051926Y-156434178D01*
X201051926Y-156434178D02*
X201123355Y-156469892D01*
X201123355Y-156469892D02*
X201159069Y-156505607D01*
X201159069Y-156505607D02*
X201194783Y-156577035D01*
X201194783Y-156577035D02*
X201194783Y-156755607D01*
X201194783Y-156755607D02*
X201159069Y-156827035D01*
X201159069Y-156827035D02*
X201123355Y-156862750D01*
X201123355Y-156862750D02*
X201051926Y-156898464D01*
X201051926Y-156898464D02*
X200837640Y-156898464D01*
X200837640Y-156898464D02*
X200766212Y-156862750D01*
X200766212Y-156862750D02*
X200730497Y-156827035D01*
X201516212Y-156827035D02*
X201551926Y-156862750D01*
X201551926Y-156862750D02*
X201516212Y-156898464D01*
X201516212Y-156898464D02*
X201480498Y-156862750D01*
X201480498Y-156862750D02*
X201516212Y-156827035D01*
X201516212Y-156827035D02*
X201516212Y-156898464D01*
X201801926Y-156148464D02*
X202266212Y-156148464D01*
X202266212Y-156148464D02*
X202016212Y-156434178D01*
X202016212Y-156434178D02*
X202123355Y-156434178D01*
X202123355Y-156434178D02*
X202194784Y-156469892D01*
X202194784Y-156469892D02*
X202230498Y-156505607D01*
X202230498Y-156505607D02*
X202266212Y-156577035D01*
X202266212Y-156577035D02*
X202266212Y-156755607D01*
X202266212Y-156755607D02*
X202230498Y-156827035D01*
X202230498Y-156827035D02*
X202194784Y-156862750D01*
X202194784Y-156862750D02*
X202123355Y-156898464D01*
X202123355Y-156898464D02*
X201909069Y-156898464D01*
X201909069Y-156898464D02*
X201837641Y-156862750D01*
X201837641Y-156862750D02*
X201801926Y-156827035D01*
X218766212Y-137612750D02*
X218873355Y-137648464D01*
X218873355Y-137648464D02*
X219051926Y-137648464D01*
X219051926Y-137648464D02*
X219123355Y-137612750D01*
X219123355Y-137612750D02*
X219159069Y-137577035D01*
X219159069Y-137577035D02*
X219194783Y-137505607D01*
X219194783Y-137505607D02*
X219194783Y-137434178D01*
X219194783Y-137434178D02*
X219159069Y-137362750D01*
X219159069Y-137362750D02*
X219123355Y-137327035D01*
X219123355Y-137327035D02*
X219051926Y-137291321D01*
X219051926Y-137291321D02*
X218909069Y-137255607D01*
X218909069Y-137255607D02*
X218837640Y-137219892D01*
X218837640Y-137219892D02*
X218801926Y-137184178D01*
X218801926Y-137184178D02*
X218766212Y-137112750D01*
X218766212Y-137112750D02*
X218766212Y-137041321D01*
X218766212Y-137041321D02*
X218801926Y-136969892D01*
X218801926Y-136969892D02*
X218837640Y-136934178D01*
X218837640Y-136934178D02*
X218909069Y-136898464D01*
X218909069Y-136898464D02*
X219087640Y-136898464D01*
X219087640Y-136898464D02*
X219194783Y-136934178D01*
X219944783Y-137577035D02*
X219909069Y-137612750D01*
X219909069Y-137612750D02*
X219801926Y-137648464D01*
X219801926Y-137648464D02*
X219730498Y-137648464D01*
X219730498Y-137648464D02*
X219623355Y-137612750D01*
X219623355Y-137612750D02*
X219551926Y-137541321D01*
X219551926Y-137541321D02*
X219516212Y-137469892D01*
X219516212Y-137469892D02*
X219480498Y-137327035D01*
X219480498Y-137327035D02*
X219480498Y-137219892D01*
X219480498Y-137219892D02*
X219516212Y-137077035D01*
X219516212Y-137077035D02*
X219551926Y-137005607D01*
X219551926Y-137005607D02*
X219623355Y-136934178D01*
X219623355Y-136934178D02*
X219730498Y-136898464D01*
X219730498Y-136898464D02*
X219801926Y-136898464D01*
X219801926Y-136898464D02*
X219909069Y-136934178D01*
X219909069Y-136934178D02*
X219944783Y-136969892D01*
X220623355Y-137648464D02*
X220266212Y-137648464D01*
X220266212Y-137648464D02*
X220266212Y-136898464D01*
X221694783Y-136898464D02*
X221766212Y-136898464D01*
X221766212Y-136898464D02*
X221837640Y-136934178D01*
X221837640Y-136934178D02*
X221873355Y-136969892D01*
X221873355Y-136969892D02*
X221909069Y-137041321D01*
X221909069Y-137041321D02*
X221944783Y-137184178D01*
X221944783Y-137184178D02*
X221944783Y-137362750D01*
X221944783Y-137362750D02*
X221909069Y-137505607D01*
X221909069Y-137505607D02*
X221873355Y-137577035D01*
X221873355Y-137577035D02*
X221837640Y-137612750D01*
X221837640Y-137612750D02*
X221766212Y-137648464D01*
X221766212Y-137648464D02*
X221694783Y-137648464D01*
X221694783Y-137648464D02*
X221623355Y-137612750D01*
X221623355Y-137612750D02*
X221587640Y-137577035D01*
X221587640Y-137577035D02*
X221551926Y-137505607D01*
X221551926Y-137505607D02*
X221516212Y-137362750D01*
X221516212Y-137362750D02*
X221516212Y-137184178D01*
X221516212Y-137184178D02*
X221551926Y-137041321D01*
X221551926Y-137041321D02*
X221587640Y-136969892D01*
X221587640Y-136969892D02*
X221623355Y-136934178D01*
X221623355Y-136934178D02*
X221694783Y-136898464D01*
X224051926Y-156398464D02*
X224051926Y-155648464D01*
X224051926Y-155648464D02*
X224230497Y-155648464D01*
X224230497Y-155648464D02*
X224337640Y-155684178D01*
X224337640Y-155684178D02*
X224409069Y-155755607D01*
X224409069Y-155755607D02*
X224444783Y-155827035D01*
X224444783Y-155827035D02*
X224480497Y-155969892D01*
X224480497Y-155969892D02*
X224480497Y-156077035D01*
X224480497Y-156077035D02*
X224444783Y-156219892D01*
X224444783Y-156219892D02*
X224409069Y-156291321D01*
X224409069Y-156291321D02*
X224337640Y-156362750D01*
X224337640Y-156362750D02*
X224230497Y-156398464D01*
X224230497Y-156398464D02*
X224051926Y-156398464D01*
X225230497Y-156398464D02*
X224980497Y-156041321D01*
X224801926Y-156398464D02*
X224801926Y-155648464D01*
X224801926Y-155648464D02*
X225087640Y-155648464D01*
X225087640Y-155648464D02*
X225159069Y-155684178D01*
X225159069Y-155684178D02*
X225194783Y-155719892D01*
X225194783Y-155719892D02*
X225230497Y-155791321D01*
X225230497Y-155791321D02*
X225230497Y-155898464D01*
X225230497Y-155898464D02*
X225194783Y-155969892D01*
X225194783Y-155969892D02*
X225159069Y-156005607D01*
X225159069Y-156005607D02*
X225087640Y-156041321D01*
X225087640Y-156041321D02*
X224801926Y-156041321D01*
X225516212Y-155719892D02*
X225551926Y-155684178D01*
X225551926Y-155684178D02*
X225623355Y-155648464D01*
X225623355Y-155648464D02*
X225801926Y-155648464D01*
X225801926Y-155648464D02*
X225873355Y-155684178D01*
X225873355Y-155684178D02*
X225909069Y-155719892D01*
X225909069Y-155719892D02*
X225944783Y-155791321D01*
X225944783Y-155791321D02*
X225944783Y-155862750D01*
X225944783Y-155862750D02*
X225909069Y-155969892D01*
X225909069Y-155969892D02*
X225480497Y-156398464D01*
X225480497Y-156398464D02*
X225944783Y-156398464D01*
X208266212Y-141112750D02*
X208373355Y-141148464D01*
X208373355Y-141148464D02*
X208551926Y-141148464D01*
X208551926Y-141148464D02*
X208623355Y-141112750D01*
X208623355Y-141112750D02*
X208659069Y-141077035D01*
X208659069Y-141077035D02*
X208694783Y-141005607D01*
X208694783Y-141005607D02*
X208694783Y-140934178D01*
X208694783Y-140934178D02*
X208659069Y-140862750D01*
X208659069Y-140862750D02*
X208623355Y-140827035D01*
X208623355Y-140827035D02*
X208551926Y-140791321D01*
X208551926Y-140791321D02*
X208409069Y-140755607D01*
X208409069Y-140755607D02*
X208337640Y-140719892D01*
X208337640Y-140719892D02*
X208301926Y-140684178D01*
X208301926Y-140684178D02*
X208266212Y-140612750D01*
X208266212Y-140612750D02*
X208266212Y-140541321D01*
X208266212Y-140541321D02*
X208301926Y-140469892D01*
X208301926Y-140469892D02*
X208337640Y-140434178D01*
X208337640Y-140434178D02*
X208409069Y-140398464D01*
X208409069Y-140398464D02*
X208587640Y-140398464D01*
X208587640Y-140398464D02*
X208694783Y-140434178D01*
X209444783Y-141077035D02*
X209409069Y-141112750D01*
X209409069Y-141112750D02*
X209301926Y-141148464D01*
X209301926Y-141148464D02*
X209230498Y-141148464D01*
X209230498Y-141148464D02*
X209123355Y-141112750D01*
X209123355Y-141112750D02*
X209051926Y-141041321D01*
X209051926Y-141041321D02*
X209016212Y-140969892D01*
X209016212Y-140969892D02*
X208980498Y-140827035D01*
X208980498Y-140827035D02*
X208980498Y-140719892D01*
X208980498Y-140719892D02*
X209016212Y-140577035D01*
X209016212Y-140577035D02*
X209051926Y-140505607D01*
X209051926Y-140505607D02*
X209123355Y-140434178D01*
X209123355Y-140434178D02*
X209230498Y-140398464D01*
X209230498Y-140398464D02*
X209301926Y-140398464D01*
X209301926Y-140398464D02*
X209409069Y-140434178D01*
X209409069Y-140434178D02*
X209444783Y-140469892D01*
X210123355Y-141148464D02*
X209766212Y-141148464D01*
X209766212Y-141148464D02*
X209766212Y-140398464D01*
X211266212Y-135684178D02*
X211623355Y-135684178D01*
X211194783Y-135898464D02*
X211444783Y-135148464D01*
X211444783Y-135148464D02*
X211694783Y-135898464D01*
X211909069Y-135219892D02*
X211944783Y-135184178D01*
X211944783Y-135184178D02*
X212016212Y-135148464D01*
X212016212Y-135148464D02*
X212194783Y-135148464D01*
X212194783Y-135148464D02*
X212266212Y-135184178D01*
X212266212Y-135184178D02*
X212301926Y-135219892D01*
X212301926Y-135219892D02*
X212337640Y-135291321D01*
X212337640Y-135291321D02*
X212337640Y-135362750D01*
X212337640Y-135362750D02*
X212301926Y-135469892D01*
X212301926Y-135469892D02*
X211873354Y-135898464D01*
X211873354Y-135898464D02*
X212337640Y-135898464D01*
X203944783Y-155684178D02*
X203873355Y-155648464D01*
X203873355Y-155648464D02*
X203766212Y-155648464D01*
X203766212Y-155648464D02*
X203659069Y-155684178D01*
X203659069Y-155684178D02*
X203587640Y-155755607D01*
X203587640Y-155755607D02*
X203551926Y-155827035D01*
X203551926Y-155827035D02*
X203516212Y-155969892D01*
X203516212Y-155969892D02*
X203516212Y-156077035D01*
X203516212Y-156077035D02*
X203551926Y-156219892D01*
X203551926Y-156219892D02*
X203587640Y-156291321D01*
X203587640Y-156291321D02*
X203659069Y-156362750D01*
X203659069Y-156362750D02*
X203766212Y-156398464D01*
X203766212Y-156398464D02*
X203837640Y-156398464D01*
X203837640Y-156398464D02*
X203944783Y-156362750D01*
X203944783Y-156362750D02*
X203980497Y-156327035D01*
X203980497Y-156327035D02*
X203980497Y-156077035D01*
X203980497Y-156077035D02*
X203837640Y-156077035D01*
X204301926Y-156398464D02*
X204301926Y-155648464D01*
X204301926Y-155648464D02*
X204730497Y-156398464D01*
X204730497Y-156398464D02*
X204730497Y-155648464D01*
X205087640Y-156398464D02*
X205087640Y-155648464D01*
X205087640Y-155648464D02*
X205266211Y-155648464D01*
X205266211Y-155648464D02*
X205373354Y-155684178D01*
X205373354Y-155684178D02*
X205444783Y-155755607D01*
X205444783Y-155755607D02*
X205480497Y-155827035D01*
X205480497Y-155827035D02*
X205516211Y-155969892D01*
X205516211Y-155969892D02*
X205516211Y-156077035D01*
X205516211Y-156077035D02*
X205480497Y-156219892D01*
X205480497Y-156219892D02*
X205444783Y-156291321D01*
X205444783Y-156291321D02*
X205373354Y-156362750D01*
X205373354Y-156362750D02*
X205266211Y-156398464D01*
X205266211Y-156398464D02*
X205087640Y-156398464D01*
X209694783Y-145684178D02*
X209623355Y-145648464D01*
X209623355Y-145648464D02*
X209516212Y-145648464D01*
X209516212Y-145648464D02*
X209409069Y-145684178D01*
X209409069Y-145684178D02*
X209337640Y-145755607D01*
X209337640Y-145755607D02*
X209301926Y-145827035D01*
X209301926Y-145827035D02*
X209266212Y-145969892D01*
X209266212Y-145969892D02*
X209266212Y-146077035D01*
X209266212Y-146077035D02*
X209301926Y-146219892D01*
X209301926Y-146219892D02*
X209337640Y-146291321D01*
X209337640Y-146291321D02*
X209409069Y-146362750D01*
X209409069Y-146362750D02*
X209516212Y-146398464D01*
X209516212Y-146398464D02*
X209587640Y-146398464D01*
X209587640Y-146398464D02*
X209694783Y-146362750D01*
X209694783Y-146362750D02*
X209730497Y-146327035D01*
X209730497Y-146327035D02*
X209730497Y-146077035D01*
X209730497Y-146077035D02*
X209587640Y-146077035D01*
X208266212Y-143112750D02*
X208373355Y-143148464D01*
X208373355Y-143148464D02*
X208551926Y-143148464D01*
X208551926Y-143148464D02*
X208623355Y-143112750D01*
X208623355Y-143112750D02*
X208659069Y-143077035D01*
X208659069Y-143077035D02*
X208694783Y-143005607D01*
X208694783Y-143005607D02*
X208694783Y-142934178D01*
X208694783Y-142934178D02*
X208659069Y-142862750D01*
X208659069Y-142862750D02*
X208623355Y-142827035D01*
X208623355Y-142827035D02*
X208551926Y-142791321D01*
X208551926Y-142791321D02*
X208409069Y-142755607D01*
X208409069Y-142755607D02*
X208337640Y-142719892D01*
X208337640Y-142719892D02*
X208301926Y-142684178D01*
X208301926Y-142684178D02*
X208266212Y-142612750D01*
X208266212Y-142612750D02*
X208266212Y-142541321D01*
X208266212Y-142541321D02*
X208301926Y-142469892D01*
X208301926Y-142469892D02*
X208337640Y-142434178D01*
X208337640Y-142434178D02*
X208409069Y-142398464D01*
X208409069Y-142398464D02*
X208587640Y-142398464D01*
X208587640Y-142398464D02*
X208694783Y-142434178D01*
X209016212Y-143148464D02*
X209016212Y-142398464D01*
X209016212Y-142398464D02*
X209194783Y-142398464D01*
X209194783Y-142398464D02*
X209301926Y-142434178D01*
X209301926Y-142434178D02*
X209373355Y-142505607D01*
X209373355Y-142505607D02*
X209409069Y-142577035D01*
X209409069Y-142577035D02*
X209444783Y-142719892D01*
X209444783Y-142719892D02*
X209444783Y-142827035D01*
X209444783Y-142827035D02*
X209409069Y-142969892D01*
X209409069Y-142969892D02*
X209373355Y-143041321D01*
X209373355Y-143041321D02*
X209301926Y-143112750D01*
X209301926Y-143112750D02*
X209194783Y-143148464D01*
X209194783Y-143148464D02*
X209016212Y-143148464D01*
X209909069Y-142398464D02*
X210051926Y-142398464D01*
X210051926Y-142398464D02*
X210123355Y-142434178D01*
X210123355Y-142434178D02*
X210194783Y-142505607D01*
X210194783Y-142505607D02*
X210230498Y-142648464D01*
X210230498Y-142648464D02*
X210230498Y-142898464D01*
X210230498Y-142898464D02*
X210194783Y-143041321D01*
X210194783Y-143041321D02*
X210123355Y-143112750D01*
X210123355Y-143112750D02*
X210051926Y-143148464D01*
X210051926Y-143148464D02*
X209909069Y-143148464D01*
X209909069Y-143148464D02*
X209837641Y-143112750D01*
X209837641Y-143112750D02*
X209766212Y-143041321D01*
X209766212Y-143041321D02*
X209730498Y-142898464D01*
X209730498Y-142898464D02*
X209730498Y-142648464D01*
X209730498Y-142648464D02*
X209766212Y-142505607D01*
X209766212Y-142505607D02*
X209837641Y-142434178D01*
X209837641Y-142434178D02*
X209909069Y-142398464D01*
X208766212Y-135684178D02*
X209123355Y-135684178D01*
X208694783Y-135898464D02*
X208944783Y-135148464D01*
X208944783Y-135148464D02*
X209194783Y-135898464D01*
X209837640Y-135898464D02*
X209409069Y-135898464D01*
X209623354Y-135898464D02*
X209623354Y-135148464D01*
X209623354Y-135148464D02*
X209551926Y-135255607D01*
X209551926Y-135255607D02*
X209480497Y-135327035D01*
X209480497Y-135327035D02*
X209409069Y-135362750D01*
X219230497Y-156327035D02*
X219194783Y-156362750D01*
X219194783Y-156362750D02*
X219087640Y-156398464D01*
X219087640Y-156398464D02*
X219016212Y-156398464D01*
X219016212Y-156398464D02*
X218909069Y-156362750D01*
X218909069Y-156362750D02*
X218837640Y-156291321D01*
X218837640Y-156291321D02*
X218801926Y-156219892D01*
X218801926Y-156219892D02*
X218766212Y-156077035D01*
X218766212Y-156077035D02*
X218766212Y-155969892D01*
X218766212Y-155969892D02*
X218801926Y-155827035D01*
X218801926Y-155827035D02*
X218837640Y-155755607D01*
X218837640Y-155755607D02*
X218909069Y-155684178D01*
X218909069Y-155684178D02*
X219016212Y-155648464D01*
X219016212Y-155648464D02*
X219087640Y-155648464D01*
X219087640Y-155648464D02*
X219194783Y-155684178D01*
X219194783Y-155684178D02*
X219230497Y-155719892D01*
X219516212Y-156362750D02*
X219623355Y-156398464D01*
X219623355Y-156398464D02*
X219801926Y-156398464D01*
X219801926Y-156398464D02*
X219873355Y-156362750D01*
X219873355Y-156362750D02*
X219909069Y-156327035D01*
X219909069Y-156327035D02*
X219944783Y-156255607D01*
X219944783Y-156255607D02*
X219944783Y-156184178D01*
X219944783Y-156184178D02*
X219909069Y-156112750D01*
X219909069Y-156112750D02*
X219873355Y-156077035D01*
X219873355Y-156077035D02*
X219801926Y-156041321D01*
X219801926Y-156041321D02*
X219659069Y-156005607D01*
X219659069Y-156005607D02*
X219587640Y-155969892D01*
X219587640Y-155969892D02*
X219551926Y-155934178D01*
X219551926Y-155934178D02*
X219516212Y-155862750D01*
X219516212Y-155862750D02*
X219516212Y-155791321D01*
X219516212Y-155791321D02*
X219551926Y-155719892D01*
X219551926Y-155719892D02*
X219587640Y-155684178D01*
X219587640Y-155684178D02*
X219659069Y-155648464D01*
X219659069Y-155648464D02*
X219837640Y-155648464D01*
X219837640Y-155648464D02*
X219944783Y-155684178D01*
X220230498Y-155719892D02*
X220266212Y-155684178D01*
X220266212Y-155684178D02*
X220337641Y-155648464D01*
X220337641Y-155648464D02*
X220516212Y-155648464D01*
X220516212Y-155648464D02*
X220587641Y-155684178D01*
X220587641Y-155684178D02*
X220623355Y-155719892D01*
X220623355Y-155719892D02*
X220659069Y-155791321D01*
X220659069Y-155791321D02*
X220659069Y-155862750D01*
X220659069Y-155862750D02*
X220623355Y-155969892D01*
X220623355Y-155969892D02*
X220194783Y-156398464D01*
X220194783Y-156398464D02*
X220659069Y-156398464D01*
X216480497Y-156327035D02*
X216444783Y-156362750D01*
X216444783Y-156362750D02*
X216337640Y-156398464D01*
X216337640Y-156398464D02*
X216266212Y-156398464D01*
X216266212Y-156398464D02*
X216159069Y-156362750D01*
X216159069Y-156362750D02*
X216087640Y-156291321D01*
X216087640Y-156291321D02*
X216051926Y-156219892D01*
X216051926Y-156219892D02*
X216016212Y-156077035D01*
X216016212Y-156077035D02*
X216016212Y-155969892D01*
X216016212Y-155969892D02*
X216051926Y-155827035D01*
X216051926Y-155827035D02*
X216087640Y-155755607D01*
X216087640Y-155755607D02*
X216159069Y-155684178D01*
X216159069Y-155684178D02*
X216266212Y-155648464D01*
X216266212Y-155648464D02*
X216337640Y-155648464D01*
X216337640Y-155648464D02*
X216444783Y-155684178D01*
X216444783Y-155684178D02*
X216480497Y-155719892D01*
X216766212Y-156362750D02*
X216873355Y-156398464D01*
X216873355Y-156398464D02*
X217051926Y-156398464D01*
X217051926Y-156398464D02*
X217123355Y-156362750D01*
X217123355Y-156362750D02*
X217159069Y-156327035D01*
X217159069Y-156327035D02*
X217194783Y-156255607D01*
X217194783Y-156255607D02*
X217194783Y-156184178D01*
X217194783Y-156184178D02*
X217159069Y-156112750D01*
X217159069Y-156112750D02*
X217123355Y-156077035D01*
X217123355Y-156077035D02*
X217051926Y-156041321D01*
X217051926Y-156041321D02*
X216909069Y-156005607D01*
X216909069Y-156005607D02*
X216837640Y-155969892D01*
X216837640Y-155969892D02*
X216801926Y-155934178D01*
X216801926Y-155934178D02*
X216766212Y-155862750D01*
X216766212Y-155862750D02*
X216766212Y-155791321D01*
X216766212Y-155791321D02*
X216801926Y-155719892D01*
X216801926Y-155719892D02*
X216837640Y-155684178D01*
X216837640Y-155684178D02*
X216909069Y-155648464D01*
X216909069Y-155648464D02*
X217087640Y-155648464D01*
X217087640Y-155648464D02*
X217194783Y-155684178D01*
X217909069Y-156398464D02*
X217480498Y-156398464D01*
X217694783Y-156398464D02*
X217694783Y-155648464D01*
X217694783Y-155648464D02*
X217623355Y-155755607D01*
X217623355Y-155755607D02*
X217551926Y-155827035D01*
X217551926Y-155827035D02*
X217480498Y-155862750D01*
X221551926Y-156398464D02*
X221551926Y-155648464D01*
X221551926Y-155648464D02*
X221730497Y-155648464D01*
X221730497Y-155648464D02*
X221837640Y-155684178D01*
X221837640Y-155684178D02*
X221909069Y-155755607D01*
X221909069Y-155755607D02*
X221944783Y-155827035D01*
X221944783Y-155827035D02*
X221980497Y-155969892D01*
X221980497Y-155969892D02*
X221980497Y-156077035D01*
X221980497Y-156077035D02*
X221944783Y-156219892D01*
X221944783Y-156219892D02*
X221909069Y-156291321D01*
X221909069Y-156291321D02*
X221837640Y-156362750D01*
X221837640Y-156362750D02*
X221730497Y-156398464D01*
X221730497Y-156398464D02*
X221551926Y-156398464D01*
X222730497Y-156398464D02*
X222480497Y-156041321D01*
X222301926Y-156398464D02*
X222301926Y-155648464D01*
X222301926Y-155648464D02*
X222587640Y-155648464D01*
X222587640Y-155648464D02*
X222659069Y-155684178D01*
X222659069Y-155684178D02*
X222694783Y-155719892D01*
X222694783Y-155719892D02*
X222730497Y-155791321D01*
X222730497Y-155791321D02*
X222730497Y-155898464D01*
X222730497Y-155898464D02*
X222694783Y-155969892D01*
X222694783Y-155969892D02*
X222659069Y-156005607D01*
X222659069Y-156005607D02*
X222587640Y-156041321D01*
X222587640Y-156041321D02*
X222301926Y-156041321D01*
X223444783Y-156398464D02*
X223016212Y-156398464D01*
X223230497Y-156398464D02*
X223230497Y-155648464D01*
X223230497Y-155648464D02*
X223159069Y-155755607D01*
X223159069Y-155755607D02*
X223087640Y-155827035D01*
X223087640Y-155827035D02*
X223016212Y-155862750D01*
X201016212Y-135862750D02*
X201123355Y-135898464D01*
X201123355Y-135898464D02*
X201301926Y-135898464D01*
X201301926Y-135898464D02*
X201373355Y-135862750D01*
X201373355Y-135862750D02*
X201409069Y-135827035D01*
X201409069Y-135827035D02*
X201444783Y-135755607D01*
X201444783Y-135755607D02*
X201444783Y-135684178D01*
X201444783Y-135684178D02*
X201409069Y-135612750D01*
X201409069Y-135612750D02*
X201373355Y-135577035D01*
X201373355Y-135577035D02*
X201301926Y-135541321D01*
X201301926Y-135541321D02*
X201159069Y-135505607D01*
X201159069Y-135505607D02*
X201087640Y-135469892D01*
X201087640Y-135469892D02*
X201051926Y-135434178D01*
X201051926Y-135434178D02*
X201016212Y-135362750D01*
X201016212Y-135362750D02*
X201016212Y-135291321D01*
X201016212Y-135291321D02*
X201051926Y-135219892D01*
X201051926Y-135219892D02*
X201087640Y-135184178D01*
X201087640Y-135184178D02*
X201159069Y-135148464D01*
X201159069Y-135148464D02*
X201337640Y-135148464D01*
X201337640Y-135148464D02*
X201444783Y-135184178D01*
X202123355Y-135898464D02*
X201766212Y-135898464D01*
X201766212Y-135898464D02*
X201766212Y-135148464D01*
X202373355Y-135898464D02*
X202373355Y-135148464D01*
X202373355Y-135148464D02*
X202659069Y-135148464D01*
X202659069Y-135148464D02*
X202730498Y-135184178D01*
X202730498Y-135184178D02*
X202766212Y-135219892D01*
X202766212Y-135219892D02*
X202801926Y-135291321D01*
X202801926Y-135291321D02*
X202801926Y-135398464D01*
X202801926Y-135398464D02*
X202766212Y-135469892D01*
X202766212Y-135469892D02*
X202730498Y-135505607D01*
X202730498Y-135505607D02*
X202659069Y-135541321D01*
X202659069Y-135541321D02*
X202373355Y-135541321D01*
X208266212Y-142112750D02*
X208373355Y-142148464D01*
X208373355Y-142148464D02*
X208551926Y-142148464D01*
X208551926Y-142148464D02*
X208623355Y-142112750D01*
X208623355Y-142112750D02*
X208659069Y-142077035D01*
X208659069Y-142077035D02*
X208694783Y-142005607D01*
X208694783Y-142005607D02*
X208694783Y-141934178D01*
X208694783Y-141934178D02*
X208659069Y-141862750D01*
X208659069Y-141862750D02*
X208623355Y-141827035D01*
X208623355Y-141827035D02*
X208551926Y-141791321D01*
X208551926Y-141791321D02*
X208409069Y-141755607D01*
X208409069Y-141755607D02*
X208337640Y-141719892D01*
X208337640Y-141719892D02*
X208301926Y-141684178D01*
X208301926Y-141684178D02*
X208266212Y-141612750D01*
X208266212Y-141612750D02*
X208266212Y-141541321D01*
X208266212Y-141541321D02*
X208301926Y-141469892D01*
X208301926Y-141469892D02*
X208337640Y-141434178D01*
X208337640Y-141434178D02*
X208409069Y-141398464D01*
X208409069Y-141398464D02*
X208587640Y-141398464D01*
X208587640Y-141398464D02*
X208694783Y-141434178D01*
X209016212Y-142148464D02*
X209016212Y-141398464D01*
X209016212Y-141398464D02*
X209194783Y-141398464D01*
X209194783Y-141398464D02*
X209301926Y-141434178D01*
X209301926Y-141434178D02*
X209373355Y-141505607D01*
X209373355Y-141505607D02*
X209409069Y-141577035D01*
X209409069Y-141577035D02*
X209444783Y-141719892D01*
X209444783Y-141719892D02*
X209444783Y-141827035D01*
X209444783Y-141827035D02*
X209409069Y-141969892D01*
X209409069Y-141969892D02*
X209373355Y-142041321D01*
X209373355Y-142041321D02*
X209301926Y-142112750D01*
X209301926Y-142112750D02*
X209194783Y-142148464D01*
X209194783Y-142148464D02*
X209016212Y-142148464D01*
X209766212Y-142148464D02*
X209766212Y-141398464D01*
X206051926Y-135505607D02*
X205801926Y-135505607D01*
X205801926Y-135898464D02*
X205801926Y-135148464D01*
X205801926Y-135148464D02*
X206159069Y-135148464D01*
X206801926Y-135898464D02*
X206444783Y-135898464D01*
X206444783Y-135898464D02*
X206444783Y-135148464D01*
X206944783Y-135148464D02*
X207373355Y-135148464D01*
X207159069Y-135898464D02*
X207159069Y-135148464D01*
X222016212Y-139862750D02*
X222123355Y-139898464D01*
X222123355Y-139898464D02*
X222301926Y-139898464D01*
X222301926Y-139898464D02*
X222373355Y-139862750D01*
X222373355Y-139862750D02*
X222409069Y-139827035D01*
X222409069Y-139827035D02*
X222444783Y-139755607D01*
X222444783Y-139755607D02*
X222444783Y-139684178D01*
X222444783Y-139684178D02*
X222409069Y-139612750D01*
X222409069Y-139612750D02*
X222373355Y-139577035D01*
X222373355Y-139577035D02*
X222301926Y-139541321D01*
X222301926Y-139541321D02*
X222159069Y-139505607D01*
X222159069Y-139505607D02*
X222087640Y-139469892D01*
X222087640Y-139469892D02*
X222051926Y-139434178D01*
X222051926Y-139434178D02*
X222016212Y-139362750D01*
X222016212Y-139362750D02*
X222016212Y-139291321D01*
X222016212Y-139291321D02*
X222051926Y-139219892D01*
X222051926Y-139219892D02*
X222087640Y-139184178D01*
X222087640Y-139184178D02*
X222159069Y-139148464D01*
X222159069Y-139148464D02*
X222337640Y-139148464D01*
X222337640Y-139148464D02*
X222444783Y-139184178D01*
X222766212Y-139898464D02*
X222766212Y-139148464D01*
X222766212Y-139148464D02*
X222944783Y-139148464D01*
X222944783Y-139148464D02*
X223051926Y-139184178D01*
X223051926Y-139184178D02*
X223123355Y-139255607D01*
X223123355Y-139255607D02*
X223159069Y-139327035D01*
X223159069Y-139327035D02*
X223194783Y-139469892D01*
X223194783Y-139469892D02*
X223194783Y-139577035D01*
X223194783Y-139577035D02*
X223159069Y-139719892D01*
X223159069Y-139719892D02*
X223123355Y-139791321D01*
X223123355Y-139791321D02*
X223051926Y-139862750D01*
X223051926Y-139862750D02*
X222944783Y-139898464D01*
X222944783Y-139898464D02*
X222766212Y-139898464D01*
X223659069Y-139148464D02*
X223801926Y-139148464D01*
X223801926Y-139148464D02*
X223873355Y-139184178D01*
X223873355Y-139184178D02*
X223944783Y-139255607D01*
X223944783Y-139255607D02*
X223980498Y-139398464D01*
X223980498Y-139398464D02*
X223980498Y-139648464D01*
X223980498Y-139648464D02*
X223944783Y-139791321D01*
X223944783Y-139791321D02*
X223873355Y-139862750D01*
X223873355Y-139862750D02*
X223801926Y-139898464D01*
X223801926Y-139898464D02*
X223659069Y-139898464D01*
X223659069Y-139898464D02*
X223587641Y-139862750D01*
X223587641Y-139862750D02*
X223516212Y-139791321D01*
X223516212Y-139791321D02*
X223480498Y-139648464D01*
X223480498Y-139648464D02*
X223480498Y-139398464D01*
X223480498Y-139398464D02*
X223516212Y-139255607D01*
X223516212Y-139255607D02*
X223587641Y-139184178D01*
X223587641Y-139184178D02*
X223659069Y-139148464D01*
X206016212Y-156362750D02*
X206123355Y-156398464D01*
X206123355Y-156398464D02*
X206301926Y-156398464D01*
X206301926Y-156398464D02*
X206373355Y-156362750D01*
X206373355Y-156362750D02*
X206409069Y-156327035D01*
X206409069Y-156327035D02*
X206444783Y-156255607D01*
X206444783Y-156255607D02*
X206444783Y-156184178D01*
X206444783Y-156184178D02*
X206409069Y-156112750D01*
X206409069Y-156112750D02*
X206373355Y-156077035D01*
X206373355Y-156077035D02*
X206301926Y-156041321D01*
X206301926Y-156041321D02*
X206159069Y-156005607D01*
X206159069Y-156005607D02*
X206087640Y-155969892D01*
X206087640Y-155969892D02*
X206051926Y-155934178D01*
X206051926Y-155934178D02*
X206016212Y-155862750D01*
X206016212Y-155862750D02*
X206016212Y-155791321D01*
X206016212Y-155791321D02*
X206051926Y-155719892D01*
X206051926Y-155719892D02*
X206087640Y-155684178D01*
X206087640Y-155684178D02*
X206159069Y-155648464D01*
X206159069Y-155648464D02*
X206337640Y-155648464D01*
X206337640Y-155648464D02*
X206444783Y-155684178D01*
X207194783Y-156327035D02*
X207159069Y-156362750D01*
X207159069Y-156362750D02*
X207051926Y-156398464D01*
X207051926Y-156398464D02*
X206980498Y-156398464D01*
X206980498Y-156398464D02*
X206873355Y-156362750D01*
X206873355Y-156362750D02*
X206801926Y-156291321D01*
X206801926Y-156291321D02*
X206766212Y-156219892D01*
X206766212Y-156219892D02*
X206730498Y-156077035D01*
X206730498Y-156077035D02*
X206730498Y-155969892D01*
X206730498Y-155969892D02*
X206766212Y-155827035D01*
X206766212Y-155827035D02*
X206801926Y-155755607D01*
X206801926Y-155755607D02*
X206873355Y-155684178D01*
X206873355Y-155684178D02*
X206980498Y-155648464D01*
X206980498Y-155648464D02*
X207051926Y-155648464D01*
X207051926Y-155648464D02*
X207159069Y-155684178D01*
X207159069Y-155684178D02*
X207194783Y-155719892D01*
X207873355Y-156398464D02*
X207516212Y-156398464D01*
X207516212Y-156398464D02*
X207516212Y-155648464D01*
X203730497Y-135398464D02*
X203480497Y-135041321D01*
X203301926Y-135398464D02*
X203301926Y-134648464D01*
X203301926Y-134648464D02*
X203587640Y-134648464D01*
X203587640Y-134648464D02*
X203659069Y-134684178D01*
X203659069Y-134684178D02*
X203694783Y-134719892D01*
X203694783Y-134719892D02*
X203730497Y-134791321D01*
X203730497Y-134791321D02*
X203730497Y-134898464D01*
X203730497Y-134898464D02*
X203694783Y-134969892D01*
X203694783Y-134969892D02*
X203659069Y-135005607D01*
X203659069Y-135005607D02*
X203587640Y-135041321D01*
X203587640Y-135041321D02*
X203301926Y-135041321D01*
X204016212Y-135362750D02*
X204123355Y-135398464D01*
X204123355Y-135398464D02*
X204301926Y-135398464D01*
X204301926Y-135398464D02*
X204373355Y-135362750D01*
X204373355Y-135362750D02*
X204409069Y-135327035D01*
X204409069Y-135327035D02*
X204444783Y-135255607D01*
X204444783Y-135255607D02*
X204444783Y-135184178D01*
X204444783Y-135184178D02*
X204409069Y-135112750D01*
X204409069Y-135112750D02*
X204373355Y-135077035D01*
X204373355Y-135077035D02*
X204301926Y-135041321D01*
X204301926Y-135041321D02*
X204159069Y-135005607D01*
X204159069Y-135005607D02*
X204087640Y-134969892D01*
X204087640Y-134969892D02*
X204051926Y-134934178D01*
X204051926Y-134934178D02*
X204016212Y-134862750D01*
X204016212Y-134862750D02*
X204016212Y-134791321D01*
X204016212Y-134791321D02*
X204051926Y-134719892D01*
X204051926Y-134719892D02*
X204087640Y-134684178D01*
X204087640Y-134684178D02*
X204159069Y-134648464D01*
X204159069Y-134648464D02*
X204337640Y-134648464D01*
X204337640Y-134648464D02*
X204444783Y-134684178D01*
X204659069Y-134648464D02*
X205087641Y-134648464D01*
X204873355Y-135398464D02*
X204873355Y-134648464D01*
X215194783Y-145148464D02*
X214766212Y-145148464D01*
X214980497Y-145148464D02*
X214980497Y-144398464D01*
X214980497Y-144398464D02*
X214909069Y-144505607D01*
X214909069Y-144505607D02*
X214837640Y-144577035D01*
X214837640Y-144577035D02*
X214766212Y-144612750D01*
X240480497Y-143898464D02*
X240944783Y-143898464D01*
X240944783Y-143898464D02*
X240694783Y-144184178D01*
X240694783Y-144184178D02*
X240801926Y-144184178D01*
X240801926Y-144184178D02*
X240873355Y-144219892D01*
X240873355Y-144219892D02*
X240909069Y-144255607D01*
X240909069Y-144255607D02*
X240944783Y-144327035D01*
X240944783Y-144327035D02*
X240944783Y-144505607D01*
X240944783Y-144505607D02*
X240909069Y-144577035D01*
X240909069Y-144577035D02*
X240873355Y-144612750D01*
X240873355Y-144612750D02*
X240801926Y-144648464D01*
X240801926Y-144648464D02*
X240587640Y-144648464D01*
X240587640Y-144648464D02*
X240516212Y-144612750D01*
X240516212Y-144612750D02*
X240480497Y-144577035D01*
X241266212Y-144577035D02*
X241301926Y-144612750D01*
X241301926Y-144612750D02*
X241266212Y-144648464D01*
X241266212Y-144648464D02*
X241230498Y-144612750D01*
X241230498Y-144612750D02*
X241266212Y-144577035D01*
X241266212Y-144577035D02*
X241266212Y-144648464D01*
X241551926Y-143898464D02*
X242016212Y-143898464D01*
X242016212Y-143898464D02*
X241766212Y-144184178D01*
X241766212Y-144184178D02*
X241873355Y-144184178D01*
X241873355Y-144184178D02*
X241944784Y-144219892D01*
X241944784Y-144219892D02*
X241980498Y-144255607D01*
X241980498Y-144255607D02*
X242016212Y-144327035D01*
X242016212Y-144327035D02*
X242016212Y-144505607D01*
X242016212Y-144505607D02*
X241980498Y-144577035D01*
X241980498Y-144577035D02*
X241944784Y-144612750D01*
X241944784Y-144612750D02*
X241873355Y-144648464D01*
X241873355Y-144648464D02*
X241659069Y-144648464D01*
X241659069Y-144648464D02*
X241587641Y-144612750D01*
X241587641Y-144612750D02*
X241551926Y-144577035D01*
X195230497Y-135148464D02*
X195694783Y-135148464D01*
X195694783Y-135148464D02*
X195444783Y-135434178D01*
X195444783Y-135434178D02*
X195551926Y-135434178D01*
X195551926Y-135434178D02*
X195623355Y-135469892D01*
X195623355Y-135469892D02*
X195659069Y-135505607D01*
X195659069Y-135505607D02*
X195694783Y-135577035D01*
X195694783Y-135577035D02*
X195694783Y-135755607D01*
X195694783Y-135755607D02*
X195659069Y-135827035D01*
X195659069Y-135827035D02*
X195623355Y-135862750D01*
X195623355Y-135862750D02*
X195551926Y-135898464D01*
X195551926Y-135898464D02*
X195337640Y-135898464D01*
X195337640Y-135898464D02*
X195266212Y-135862750D01*
X195266212Y-135862750D02*
X195230497Y-135827035D01*
X196016212Y-135827035D02*
X196051926Y-135862750D01*
X196051926Y-135862750D02*
X196016212Y-135898464D01*
X196016212Y-135898464D02*
X195980498Y-135862750D01*
X195980498Y-135862750D02*
X196016212Y-135827035D01*
X196016212Y-135827035D02*
X196016212Y-135898464D01*
X196301926Y-135148464D02*
X196766212Y-135148464D01*
X196766212Y-135148464D02*
X196516212Y-135434178D01*
X196516212Y-135434178D02*
X196623355Y-135434178D01*
X196623355Y-135434178D02*
X196694784Y-135469892D01*
X196694784Y-135469892D02*
X196730498Y-135505607D01*
X196730498Y-135505607D02*
X196766212Y-135577035D01*
X196766212Y-135577035D02*
X196766212Y-135755607D01*
X196766212Y-135755607D02*
X196730498Y-135827035D01*
X196730498Y-135827035D02*
X196694784Y-135862750D01*
X196694784Y-135862750D02*
X196623355Y-135898464D01*
X196623355Y-135898464D02*
X196409069Y-135898464D01*
X196409069Y-135898464D02*
X196337641Y-135862750D01*
X196337641Y-135862750D02*
X196301926Y-135827035D01*
X215766212Y-144719892D02*
X215801926Y-144684178D01*
X215801926Y-144684178D02*
X215873355Y-144648464D01*
X215873355Y-144648464D02*
X216051926Y-144648464D01*
X216051926Y-144648464D02*
X216123355Y-144684178D01*
X216123355Y-144684178D02*
X216159069Y-144719892D01*
X216159069Y-144719892D02*
X216194783Y-144791321D01*
X216194783Y-144791321D02*
X216194783Y-144862750D01*
X216194783Y-144862750D02*
X216159069Y-144969892D01*
X216159069Y-144969892D02*
X215730497Y-145398464D01*
X215730497Y-145398464D02*
X216194783Y-145398464D01*
X208766212Y-156362750D02*
X208873355Y-156398464D01*
X208873355Y-156398464D02*
X209051926Y-156398464D01*
X209051926Y-156398464D02*
X209123355Y-156362750D01*
X209123355Y-156362750D02*
X209159069Y-156327035D01*
X209159069Y-156327035D02*
X209194783Y-156255607D01*
X209194783Y-156255607D02*
X209194783Y-156184178D01*
X209194783Y-156184178D02*
X209159069Y-156112750D01*
X209159069Y-156112750D02*
X209123355Y-156077035D01*
X209123355Y-156077035D02*
X209051926Y-156041321D01*
X209051926Y-156041321D02*
X208909069Y-156005607D01*
X208909069Y-156005607D02*
X208837640Y-155969892D01*
X208837640Y-155969892D02*
X208801926Y-155934178D01*
X208801926Y-155934178D02*
X208766212Y-155862750D01*
X208766212Y-155862750D02*
X208766212Y-155791321D01*
X208766212Y-155791321D02*
X208801926Y-155719892D01*
X208801926Y-155719892D02*
X208837640Y-155684178D01*
X208837640Y-155684178D02*
X208909069Y-155648464D01*
X208909069Y-155648464D02*
X209087640Y-155648464D01*
X209087640Y-155648464D02*
X209194783Y-155684178D01*
X209516212Y-156398464D02*
X209516212Y-155648464D01*
X209516212Y-155648464D02*
X209694783Y-155648464D01*
X209694783Y-155648464D02*
X209801926Y-155684178D01*
X209801926Y-155684178D02*
X209873355Y-155755607D01*
X209873355Y-155755607D02*
X209909069Y-155827035D01*
X209909069Y-155827035D02*
X209944783Y-155969892D01*
X209944783Y-155969892D02*
X209944783Y-156077035D01*
X209944783Y-156077035D02*
X209909069Y-156219892D01*
X209909069Y-156219892D02*
X209873355Y-156291321D01*
X209873355Y-156291321D02*
X209801926Y-156362750D01*
X209801926Y-156362750D02*
X209694783Y-156398464D01*
X209694783Y-156398464D02*
X209516212Y-156398464D01*
X210266212Y-156398464D02*
X210266212Y-155648464D01*
X211016212Y-156362750D02*
X211123355Y-156398464D01*
X211123355Y-156398464D02*
X211301926Y-156398464D01*
X211301926Y-156398464D02*
X211373355Y-156362750D01*
X211373355Y-156362750D02*
X211409069Y-156327035D01*
X211409069Y-156327035D02*
X211444783Y-156255607D01*
X211444783Y-156255607D02*
X211444783Y-156184178D01*
X211444783Y-156184178D02*
X211409069Y-156112750D01*
X211409069Y-156112750D02*
X211373355Y-156077035D01*
X211373355Y-156077035D02*
X211301926Y-156041321D01*
X211301926Y-156041321D02*
X211159069Y-156005607D01*
X211159069Y-156005607D02*
X211087640Y-155969892D01*
X211087640Y-155969892D02*
X211051926Y-155934178D01*
X211051926Y-155934178D02*
X211016212Y-155862750D01*
X211016212Y-155862750D02*
X211016212Y-155791321D01*
X211016212Y-155791321D02*
X211051926Y-155719892D01*
X211051926Y-155719892D02*
X211087640Y-155684178D01*
X211087640Y-155684178D02*
X211159069Y-155648464D01*
X211159069Y-155648464D02*
X211337640Y-155648464D01*
X211337640Y-155648464D02*
X211444783Y-155684178D01*
X211766212Y-156398464D02*
X211766212Y-155648464D01*
X211766212Y-155648464D02*
X211944783Y-155648464D01*
X211944783Y-155648464D02*
X212051926Y-155684178D01*
X212051926Y-155684178D02*
X212123355Y-155755607D01*
X212123355Y-155755607D02*
X212159069Y-155827035D01*
X212159069Y-155827035D02*
X212194783Y-155969892D01*
X212194783Y-155969892D02*
X212194783Y-156077035D01*
X212194783Y-156077035D02*
X212159069Y-156219892D01*
X212159069Y-156219892D02*
X212123355Y-156291321D01*
X212123355Y-156291321D02*
X212051926Y-156362750D01*
X212051926Y-156362750D02*
X211944783Y-156398464D01*
X211944783Y-156398464D02*
X211766212Y-156398464D01*
X212659069Y-155648464D02*
X212801926Y-155648464D01*
X212801926Y-155648464D02*
X212873355Y-155684178D01*
X212873355Y-155684178D02*
X212944783Y-155755607D01*
X212944783Y-155755607D02*
X212980498Y-155898464D01*
X212980498Y-155898464D02*
X212980498Y-156148464D01*
X212980498Y-156148464D02*
X212944783Y-156291321D01*
X212944783Y-156291321D02*
X212873355Y-156362750D01*
X212873355Y-156362750D02*
X212801926Y-156398464D01*
X212801926Y-156398464D02*
X212659069Y-156398464D01*
X212659069Y-156398464D02*
X212587641Y-156362750D01*
X212587641Y-156362750D02*
X212516212Y-156291321D01*
X212516212Y-156291321D02*
X212480498Y-156148464D01*
X212480498Y-156148464D02*
X212480498Y-155898464D01*
X212480498Y-155898464D02*
X212516212Y-155755607D01*
X212516212Y-155755607D02*
X212587641Y-155684178D01*
X212587641Y-155684178D02*
X212659069Y-155648464D01*
X198194783Y-135184178D02*
X198123355Y-135148464D01*
X198123355Y-135148464D02*
X198016212Y-135148464D01*
X198016212Y-135148464D02*
X197909069Y-135184178D01*
X197909069Y-135184178D02*
X197837640Y-135255607D01*
X197837640Y-135255607D02*
X197801926Y-135327035D01*
X197801926Y-135327035D02*
X197766212Y-135469892D01*
X197766212Y-135469892D02*
X197766212Y-135577035D01*
X197766212Y-135577035D02*
X197801926Y-135719892D01*
X197801926Y-135719892D02*
X197837640Y-135791321D01*
X197837640Y-135791321D02*
X197909069Y-135862750D01*
X197909069Y-135862750D02*
X198016212Y-135898464D01*
X198016212Y-135898464D02*
X198087640Y-135898464D01*
X198087640Y-135898464D02*
X198194783Y-135862750D01*
X198194783Y-135862750D02*
X198230497Y-135827035D01*
X198230497Y-135827035D02*
X198230497Y-135577035D01*
X198230497Y-135577035D02*
X198087640Y-135577035D01*
X198551926Y-135898464D02*
X198551926Y-135148464D01*
X198551926Y-135148464D02*
X198980497Y-135898464D01*
X198980497Y-135898464D02*
X198980497Y-135148464D01*
X199337640Y-135898464D02*
X199337640Y-135148464D01*
X199337640Y-135148464D02*
X199516211Y-135148464D01*
X199516211Y-135148464D02*
X199623354Y-135184178D01*
X199623354Y-135184178D02*
X199694783Y-135255607D01*
X199694783Y-135255607D02*
X199730497Y-135327035D01*
X199730497Y-135327035D02*
X199766211Y-135469892D01*
X199766211Y-135469892D02*
X199766211Y-135577035D01*
X199766211Y-135577035D02*
X199730497Y-135719892D01*
X199730497Y-135719892D02*
X199694783Y-135791321D01*
X199694783Y-135791321D02*
X199623354Y-135862750D01*
X199623354Y-135862750D02*
X199516211Y-135898464D01*
X199516211Y-135898464D02*
X199337640Y-135898464D01*
X244444783Y-144684178D02*
X244373355Y-144648464D01*
X244373355Y-144648464D02*
X244266212Y-144648464D01*
X244266212Y-144648464D02*
X244159069Y-144684178D01*
X244159069Y-144684178D02*
X244087640Y-144755607D01*
X244087640Y-144755607D02*
X244051926Y-144827035D01*
X244051926Y-144827035D02*
X244016212Y-144969892D01*
X244016212Y-144969892D02*
X244016212Y-145077035D01*
X244016212Y-145077035D02*
X244051926Y-145219892D01*
X244051926Y-145219892D02*
X244087640Y-145291321D01*
X244087640Y-145291321D02*
X244159069Y-145362750D01*
X244159069Y-145362750D02*
X244266212Y-145398464D01*
X244266212Y-145398464D02*
X244337640Y-145398464D01*
X244337640Y-145398464D02*
X244444783Y-145362750D01*
X244444783Y-145362750D02*
X244480497Y-145327035D01*
X244480497Y-145327035D02*
X244480497Y-145077035D01*
X244480497Y-145077035D02*
X244337640Y-145077035D01*
X219766212Y-139862750D02*
X219873355Y-139898464D01*
X219873355Y-139898464D02*
X220051926Y-139898464D01*
X220051926Y-139898464D02*
X220123355Y-139862750D01*
X220123355Y-139862750D02*
X220159069Y-139827035D01*
X220159069Y-139827035D02*
X220194783Y-139755607D01*
X220194783Y-139755607D02*
X220194783Y-139684178D01*
X220194783Y-139684178D02*
X220159069Y-139612750D01*
X220159069Y-139612750D02*
X220123355Y-139577035D01*
X220123355Y-139577035D02*
X220051926Y-139541321D01*
X220051926Y-139541321D02*
X219909069Y-139505607D01*
X219909069Y-139505607D02*
X219837640Y-139469892D01*
X219837640Y-139469892D02*
X219801926Y-139434178D01*
X219801926Y-139434178D02*
X219766212Y-139362750D01*
X219766212Y-139362750D02*
X219766212Y-139291321D01*
X219766212Y-139291321D02*
X219801926Y-139219892D01*
X219801926Y-139219892D02*
X219837640Y-139184178D01*
X219837640Y-139184178D02*
X219909069Y-139148464D01*
X219909069Y-139148464D02*
X220087640Y-139148464D01*
X220087640Y-139148464D02*
X220194783Y-139184178D01*
X220516212Y-139898464D02*
X220516212Y-139148464D01*
X220516212Y-139148464D02*
X220694783Y-139148464D01*
X220694783Y-139148464D02*
X220801926Y-139184178D01*
X220801926Y-139184178D02*
X220873355Y-139255607D01*
X220873355Y-139255607D02*
X220909069Y-139327035D01*
X220909069Y-139327035D02*
X220944783Y-139469892D01*
X220944783Y-139469892D02*
X220944783Y-139577035D01*
X220944783Y-139577035D02*
X220909069Y-139719892D01*
X220909069Y-139719892D02*
X220873355Y-139791321D01*
X220873355Y-139791321D02*
X220801926Y-139862750D01*
X220801926Y-139862750D02*
X220694783Y-139898464D01*
X220694783Y-139898464D02*
X220516212Y-139898464D01*
X221266212Y-139898464D02*
X221266212Y-139148464D01*
D11*
X205704819Y-123511904D02*
X206514342Y-123511904D01*
X206514342Y-123511904D02*
X206609580Y-123464285D01*
X206609580Y-123464285D02*
X206657200Y-123416666D01*
X206657200Y-123416666D02*
X206704819Y-123321428D01*
X206704819Y-123321428D02*
X206704819Y-123130952D01*
X206704819Y-123130952D02*
X206657200Y-123035714D01*
X206657200Y-123035714D02*
X206609580Y-122988095D01*
X206609580Y-122988095D02*
X206514342Y-122940476D01*
X206514342Y-122940476D02*
X205704819Y-122940476D01*
X206704819Y-121940476D02*
X206704819Y-122511904D01*
X206704819Y-122226190D02*
X205704819Y-122226190D01*
X205704819Y-122226190D02*
X205847676Y-122321428D01*
X205847676Y-122321428D02*
X205942914Y-122416666D01*
X205942914Y-122416666D02*
X205990533Y-122511904D01*
X224204819Y-122666666D02*
X223728628Y-122999999D01*
X224204819Y-123238094D02*
X223204819Y-123238094D01*
X223204819Y-123238094D02*
X223204819Y-122857142D01*
X223204819Y-122857142D02*
X223252438Y-122761904D01*
X223252438Y-122761904D02*
X223300057Y-122714285D01*
X223300057Y-122714285D02*
X223395295Y-122666666D01*
X223395295Y-122666666D02*
X223538152Y-122666666D01*
X223538152Y-122666666D02*
X223633390Y-122714285D01*
X223633390Y-122714285D02*
X223681009Y-122761904D01*
X223681009Y-122761904D02*
X223728628Y-122857142D01*
X223728628Y-122857142D02*
X223728628Y-123238094D01*
X224204819Y-122190475D02*
X224204819Y-121999999D01*
X224204819Y-121999999D02*
X224157200Y-121904761D01*
X224157200Y-121904761D02*
X224109580Y-121857142D01*
X224109580Y-121857142D02*
X223966723Y-121761904D01*
X223966723Y-121761904D02*
X223776247Y-121714285D01*
X223776247Y-121714285D02*
X223395295Y-121714285D01*
X223395295Y-121714285D02*
X223300057Y-121761904D01*
X223300057Y-121761904D02*
X223252438Y-121809523D01*
X223252438Y-121809523D02*
X223204819Y-121904761D01*
X223204819Y-121904761D02*
X223204819Y-122095237D01*
X223204819Y-122095237D02*
X223252438Y-122190475D01*
X223252438Y-122190475D02*
X223300057Y-122238094D01*
X223300057Y-122238094D02*
X223395295Y-122285713D01*
X223395295Y-122285713D02*
X223633390Y-122285713D01*
X223633390Y-122285713D02*
X223728628Y-122238094D01*
X223728628Y-122238094D02*
X223776247Y-122190475D01*
X223776247Y-122190475D02*
X223823866Y-122095237D01*
X223823866Y-122095237D02*
X223823866Y-121904761D01*
X223823866Y-121904761D02*
X223776247Y-121809523D01*
X223776247Y-121809523D02*
X223728628Y-121761904D01*
X223728628Y-121761904D02*
X223633390Y-121714285D01*
X195204819Y-120916666D02*
X194728628Y-121249999D01*
X195204819Y-121488094D02*
X194204819Y-121488094D01*
X194204819Y-121488094D02*
X194204819Y-121107142D01*
X194204819Y-121107142D02*
X194252438Y-121011904D01*
X194252438Y-121011904D02*
X194300057Y-120964285D01*
X194300057Y-120964285D02*
X194395295Y-120916666D01*
X194395295Y-120916666D02*
X194538152Y-120916666D01*
X194538152Y-120916666D02*
X194633390Y-120964285D01*
X194633390Y-120964285D02*
X194681009Y-121011904D01*
X194681009Y-121011904D02*
X194728628Y-121107142D01*
X194728628Y-121107142D02*
X194728628Y-121488094D01*
X194538152Y-120059523D02*
X195204819Y-120059523D01*
X194157200Y-120297618D02*
X194871485Y-120535713D01*
X194871485Y-120535713D02*
X194871485Y-119916666D01*
X229357142Y-136359580D02*
X229309523Y-136407200D01*
X229309523Y-136407200D02*
X229166666Y-136454819D01*
X229166666Y-136454819D02*
X229071428Y-136454819D01*
X229071428Y-136454819D02*
X228928571Y-136407200D01*
X228928571Y-136407200D02*
X228833333Y-136311961D01*
X228833333Y-136311961D02*
X228785714Y-136216723D01*
X228785714Y-136216723D02*
X228738095Y-136026247D01*
X228738095Y-136026247D02*
X228738095Y-135883390D01*
X228738095Y-135883390D02*
X228785714Y-135692914D01*
X228785714Y-135692914D02*
X228833333Y-135597676D01*
X228833333Y-135597676D02*
X228928571Y-135502438D01*
X228928571Y-135502438D02*
X229071428Y-135454819D01*
X229071428Y-135454819D02*
X229166666Y-135454819D01*
X229166666Y-135454819D02*
X229309523Y-135502438D01*
X229309523Y-135502438D02*
X229357142Y-135550057D01*
X230309523Y-136454819D02*
X229738095Y-136454819D01*
X230023809Y-136454819D02*
X230023809Y-135454819D01*
X230023809Y-135454819D02*
X229928571Y-135597676D01*
X229928571Y-135597676D02*
X229833333Y-135692914D01*
X229833333Y-135692914D02*
X229738095Y-135740533D01*
X230928571Y-135454819D02*
X231023809Y-135454819D01*
X231023809Y-135454819D02*
X231119047Y-135502438D01*
X231119047Y-135502438D02*
X231166666Y-135550057D01*
X231166666Y-135550057D02*
X231214285Y-135645295D01*
X231214285Y-135645295D02*
X231261904Y-135835771D01*
X231261904Y-135835771D02*
X231261904Y-136073866D01*
X231261904Y-136073866D02*
X231214285Y-136264342D01*
X231214285Y-136264342D02*
X231166666Y-136359580D01*
X231166666Y-136359580D02*
X231119047Y-136407200D01*
X231119047Y-136407200D02*
X231023809Y-136454819D01*
X231023809Y-136454819D02*
X230928571Y-136454819D01*
X230928571Y-136454819D02*
X230833333Y-136407200D01*
X230833333Y-136407200D02*
X230785714Y-136359580D01*
X230785714Y-136359580D02*
X230738095Y-136264342D01*
X230738095Y-136264342D02*
X230690476Y-136073866D01*
X230690476Y-136073866D02*
X230690476Y-135835771D01*
X230690476Y-135835771D02*
X230738095Y-135645295D01*
X230738095Y-135645295D02*
X230785714Y-135550057D01*
X230785714Y-135550057D02*
X230833333Y-135502438D01*
X230833333Y-135502438D02*
X230928571Y-135454819D01*
X230333333Y-123359580D02*
X230285714Y-123407200D01*
X230285714Y-123407200D02*
X230142857Y-123454819D01*
X230142857Y-123454819D02*
X230047619Y-123454819D01*
X230047619Y-123454819D02*
X229904762Y-123407200D01*
X229904762Y-123407200D02*
X229809524Y-123311961D01*
X229809524Y-123311961D02*
X229761905Y-123216723D01*
X229761905Y-123216723D02*
X229714286Y-123026247D01*
X229714286Y-123026247D02*
X229714286Y-122883390D01*
X229714286Y-122883390D02*
X229761905Y-122692914D01*
X229761905Y-122692914D02*
X229809524Y-122597676D01*
X229809524Y-122597676D02*
X229904762Y-122502438D01*
X229904762Y-122502438D02*
X230047619Y-122454819D01*
X230047619Y-122454819D02*
X230142857Y-122454819D01*
X230142857Y-122454819D02*
X230285714Y-122502438D01*
X230285714Y-122502438D02*
X230333333Y-122550057D01*
X230809524Y-123454819D02*
X231000000Y-123454819D01*
X231000000Y-123454819D02*
X231095238Y-123407200D01*
X231095238Y-123407200D02*
X231142857Y-123359580D01*
X231142857Y-123359580D02*
X231238095Y-123216723D01*
X231238095Y-123216723D02*
X231285714Y-123026247D01*
X231285714Y-123026247D02*
X231285714Y-122645295D01*
X231285714Y-122645295D02*
X231238095Y-122550057D01*
X231238095Y-122550057D02*
X231190476Y-122502438D01*
X231190476Y-122502438D02*
X231095238Y-122454819D01*
X231095238Y-122454819D02*
X230904762Y-122454819D01*
X230904762Y-122454819D02*
X230809524Y-122502438D01*
X230809524Y-122502438D02*
X230761905Y-122550057D01*
X230761905Y-122550057D02*
X230714286Y-122645295D01*
X230714286Y-122645295D02*
X230714286Y-122883390D01*
X230714286Y-122883390D02*
X230761905Y-122978628D01*
X230761905Y-122978628D02*
X230809524Y-123026247D01*
X230809524Y-123026247D02*
X230904762Y-123073866D01*
X230904762Y-123073866D02*
X231095238Y-123073866D01*
X231095238Y-123073866D02*
X231190476Y-123026247D01*
X231190476Y-123026247D02*
X231238095Y-122978628D01*
X231238095Y-122978628D02*
X231285714Y-122883390D01*
X194333333Y-130359580D02*
X194285714Y-130407200D01*
X194285714Y-130407200D02*
X194142857Y-130454819D01*
X194142857Y-130454819D02*
X194047619Y-130454819D01*
X194047619Y-130454819D02*
X193904762Y-130407200D01*
X193904762Y-130407200D02*
X193809524Y-130311961D01*
X193809524Y-130311961D02*
X193761905Y-130216723D01*
X193761905Y-130216723D02*
X193714286Y-130026247D01*
X193714286Y-130026247D02*
X193714286Y-129883390D01*
X193714286Y-129883390D02*
X193761905Y-129692914D01*
X193761905Y-129692914D02*
X193809524Y-129597676D01*
X193809524Y-129597676D02*
X193904762Y-129502438D01*
X193904762Y-129502438D02*
X194047619Y-129454819D01*
X194047619Y-129454819D02*
X194142857Y-129454819D01*
X194142857Y-129454819D02*
X194285714Y-129502438D01*
X194285714Y-129502438D02*
X194333333Y-129550057D01*
X194666667Y-129454819D02*
X195333333Y-129454819D01*
X195333333Y-129454819D02*
X194904762Y-130454819D01*
X194333333Y-123359580D02*
X194285714Y-123407200D01*
X194285714Y-123407200D02*
X194142857Y-123454819D01*
X194142857Y-123454819D02*
X194047619Y-123454819D01*
X194047619Y-123454819D02*
X193904762Y-123407200D01*
X193904762Y-123407200D02*
X193809524Y-123311961D01*
X193809524Y-123311961D02*
X193761905Y-123216723D01*
X193761905Y-123216723D02*
X193714286Y-123026247D01*
X193714286Y-123026247D02*
X193714286Y-122883390D01*
X193714286Y-122883390D02*
X193761905Y-122692914D01*
X193761905Y-122692914D02*
X193809524Y-122597676D01*
X193809524Y-122597676D02*
X193904762Y-122502438D01*
X193904762Y-122502438D02*
X194047619Y-122454819D01*
X194047619Y-122454819D02*
X194142857Y-122454819D01*
X194142857Y-122454819D02*
X194285714Y-122502438D01*
X194285714Y-122502438D02*
X194333333Y-122550057D01*
X195190476Y-122454819D02*
X195000000Y-122454819D01*
X195000000Y-122454819D02*
X194904762Y-122502438D01*
X194904762Y-122502438D02*
X194857143Y-122550057D01*
X194857143Y-122550057D02*
X194761905Y-122692914D01*
X194761905Y-122692914D02*
X194714286Y-122883390D01*
X194714286Y-122883390D02*
X194714286Y-123264342D01*
X194714286Y-123264342D02*
X194761905Y-123359580D01*
X194761905Y-123359580D02*
X194809524Y-123407200D01*
X194809524Y-123407200D02*
X194904762Y-123454819D01*
X194904762Y-123454819D02*
X195095238Y-123454819D01*
X195095238Y-123454819D02*
X195190476Y-123407200D01*
X195190476Y-123407200D02*
X195238095Y-123359580D01*
X195238095Y-123359580D02*
X195285714Y-123264342D01*
X195285714Y-123264342D02*
X195285714Y-123026247D01*
X195285714Y-123026247D02*
X195238095Y-122931009D01*
X195238095Y-122931009D02*
X195190476Y-122883390D01*
X195190476Y-122883390D02*
X195095238Y-122835771D01*
X195095238Y-122835771D02*
X194904762Y-122835771D01*
X194904762Y-122835771D02*
X194809524Y-122883390D01*
X194809524Y-122883390D02*
X194761905Y-122931009D01*
X194761905Y-122931009D02*
X194714286Y-123026247D01*
X196939047Y-114349228D02*
X196878095Y-114318752D01*
X196878095Y-114318752D02*
X196817142Y-114257800D01*
X196817142Y-114257800D02*
X196725714Y-114166371D01*
X196725714Y-114166371D02*
X196664761Y-114135895D01*
X196664761Y-114135895D02*
X196603809Y-114135895D01*
X196634285Y-114288276D02*
X196573333Y-114257800D01*
X196573333Y-114257800D02*
X196512380Y-114196847D01*
X196512380Y-114196847D02*
X196481904Y-114074942D01*
X196481904Y-114074942D02*
X196481904Y-113861609D01*
X196481904Y-113861609D02*
X196512380Y-113739704D01*
X196512380Y-113739704D02*
X196573333Y-113678752D01*
X196573333Y-113678752D02*
X196634285Y-113648276D01*
X196634285Y-113648276D02*
X196756190Y-113648276D01*
X196756190Y-113648276D02*
X196817142Y-113678752D01*
X196817142Y-113678752D02*
X196878095Y-113739704D01*
X196878095Y-113739704D02*
X196908571Y-113861609D01*
X196908571Y-113861609D02*
X196908571Y-114074942D01*
X196908571Y-114074942D02*
X196878095Y-114196847D01*
X196878095Y-114196847D02*
X196817142Y-114257800D01*
X196817142Y-114257800D02*
X196756190Y-114288276D01*
X196756190Y-114288276D02*
X196634285Y-114288276D01*
X197152380Y-113709228D02*
X197182856Y-113678752D01*
X197182856Y-113678752D02*
X197243809Y-113648276D01*
X197243809Y-113648276D02*
X197396190Y-113648276D01*
X197396190Y-113648276D02*
X197457142Y-113678752D01*
X197457142Y-113678752D02*
X197487618Y-113709228D01*
X197487618Y-113709228D02*
X197518095Y-113770180D01*
X197518095Y-113770180D02*
X197518095Y-113831133D01*
X197518095Y-113831133D02*
X197487618Y-113922561D01*
X197487618Y-113922561D02*
X197121904Y-114288276D01*
X197121904Y-114288276D02*
X197518095Y-114288276D01*
X178238095Y-97704819D02*
X178238095Y-96704819D01*
X178238095Y-97181009D02*
X178809523Y-97181009D01*
X178809523Y-97704819D02*
X178809523Y-96704819D01*
X179238095Y-96800057D02*
X179285714Y-96752438D01*
X179285714Y-96752438D02*
X179380952Y-96704819D01*
X179380952Y-96704819D02*
X179619047Y-96704819D01*
X179619047Y-96704819D02*
X179714285Y-96752438D01*
X179714285Y-96752438D02*
X179761904Y-96800057D01*
X179761904Y-96800057D02*
X179809523Y-96895295D01*
X179809523Y-96895295D02*
X179809523Y-96990533D01*
X179809523Y-96990533D02*
X179761904Y-97133390D01*
X179761904Y-97133390D02*
X179190476Y-97704819D01*
X179190476Y-97704819D02*
X179809523Y-97704819D01*
X245738095Y-98204819D02*
X245738095Y-97204819D01*
X245738095Y-97681009D02*
X246309523Y-97681009D01*
X246309523Y-98204819D02*
X246309523Y-97204819D01*
X247309523Y-98204819D02*
X246738095Y-98204819D01*
X247023809Y-98204819D02*
X247023809Y-97204819D01*
X247023809Y-97204819D02*
X246928571Y-97347676D01*
X246928571Y-97347676D02*
X246833333Y-97442914D01*
X246833333Y-97442914D02*
X246738095Y-97490533D01*
X178238095Y-153704819D02*
X178238095Y-152704819D01*
X178238095Y-153181009D02*
X178809523Y-153181009D01*
X178809523Y-153704819D02*
X178809523Y-152704819D01*
X179190476Y-152704819D02*
X179809523Y-152704819D01*
X179809523Y-152704819D02*
X179476190Y-153085771D01*
X179476190Y-153085771D02*
X179619047Y-153085771D01*
X179619047Y-153085771D02*
X179714285Y-153133390D01*
X179714285Y-153133390D02*
X179761904Y-153181009D01*
X179761904Y-153181009D02*
X179809523Y-153276247D01*
X179809523Y-153276247D02*
X179809523Y-153514342D01*
X179809523Y-153514342D02*
X179761904Y-153609580D01*
X179761904Y-153609580D02*
X179714285Y-153657200D01*
X179714285Y-153657200D02*
X179619047Y-153704819D01*
X179619047Y-153704819D02*
X179333333Y-153704819D01*
X179333333Y-153704819D02*
X179238095Y-153657200D01*
X179238095Y-153657200D02*
X179190476Y-153609580D01*
X227439047Y-114349228D02*
X227378095Y-114318752D01*
X227378095Y-114318752D02*
X227317142Y-114257800D01*
X227317142Y-114257800D02*
X227225714Y-114166371D01*
X227225714Y-114166371D02*
X227164761Y-114135895D01*
X227164761Y-114135895D02*
X227103809Y-114135895D01*
X227134285Y-114288276D02*
X227073333Y-114257800D01*
X227073333Y-114257800D02*
X227012380Y-114196847D01*
X227012380Y-114196847D02*
X226981904Y-114074942D01*
X226981904Y-114074942D02*
X226981904Y-113861609D01*
X226981904Y-113861609D02*
X227012380Y-113739704D01*
X227012380Y-113739704D02*
X227073333Y-113678752D01*
X227073333Y-113678752D02*
X227134285Y-113648276D01*
X227134285Y-113648276D02*
X227256190Y-113648276D01*
X227256190Y-113648276D02*
X227317142Y-113678752D01*
X227317142Y-113678752D02*
X227378095Y-113739704D01*
X227378095Y-113739704D02*
X227408571Y-113861609D01*
X227408571Y-113861609D02*
X227408571Y-114074942D01*
X227408571Y-114074942D02*
X227378095Y-114196847D01*
X227378095Y-114196847D02*
X227317142Y-114257800D01*
X227317142Y-114257800D02*
X227256190Y-114288276D01*
X227256190Y-114288276D02*
X227134285Y-114288276D01*
X227774285Y-113922561D02*
X227713333Y-113892085D01*
X227713333Y-113892085D02*
X227682856Y-113861609D01*
X227682856Y-113861609D02*
X227652380Y-113800657D01*
X227652380Y-113800657D02*
X227652380Y-113770180D01*
X227652380Y-113770180D02*
X227682856Y-113709228D01*
X227682856Y-113709228D02*
X227713333Y-113678752D01*
X227713333Y-113678752D02*
X227774285Y-113648276D01*
X227774285Y-113648276D02*
X227896190Y-113648276D01*
X227896190Y-113648276D02*
X227957142Y-113678752D01*
X227957142Y-113678752D02*
X227987618Y-113709228D01*
X227987618Y-113709228D02*
X228018095Y-113770180D01*
X228018095Y-113770180D02*
X228018095Y-113800657D01*
X228018095Y-113800657D02*
X227987618Y-113861609D01*
X227987618Y-113861609D02*
X227957142Y-113892085D01*
X227957142Y-113892085D02*
X227896190Y-113922561D01*
X227896190Y-113922561D02*
X227774285Y-113922561D01*
X227774285Y-113922561D02*
X227713333Y-113953038D01*
X227713333Y-113953038D02*
X227682856Y-113983514D01*
X227682856Y-113983514D02*
X227652380Y-114044466D01*
X227652380Y-114044466D02*
X227652380Y-114166371D01*
X227652380Y-114166371D02*
X227682856Y-114227323D01*
X227682856Y-114227323D02*
X227713333Y-114257800D01*
X227713333Y-114257800D02*
X227774285Y-114288276D01*
X227774285Y-114288276D02*
X227896190Y-114288276D01*
X227896190Y-114288276D02*
X227957142Y-114257800D01*
X227957142Y-114257800D02*
X227987618Y-114227323D01*
X227987618Y-114227323D02*
X228018095Y-114166371D01*
X228018095Y-114166371D02*
X228018095Y-114044466D01*
X228018095Y-114044466D02*
X227987618Y-113983514D01*
X227987618Y-113983514D02*
X227957142Y-113953038D01*
X227957142Y-113953038D02*
X227896190Y-113922561D01*
X198666666Y-158204819D02*
X198666666Y-158919104D01*
X198666666Y-158919104D02*
X198619047Y-159061961D01*
X198619047Y-159061961D02*
X198523809Y-159157200D01*
X198523809Y-159157200D02*
X198380952Y-159204819D01*
X198380952Y-159204819D02*
X198285714Y-159204819D01*
X199666666Y-159204819D02*
X199095238Y-159204819D01*
X199380952Y-159204819D02*
X199380952Y-158204819D01*
X199380952Y-158204819D02*
X199285714Y-158347676D01*
X199285714Y-158347676D02*
X199190476Y-158442914D01*
X199190476Y-158442914D02*
X199095238Y-158490533D01*
X222189047Y-114349228D02*
X222128095Y-114318752D01*
X222128095Y-114318752D02*
X222067142Y-114257800D01*
X222067142Y-114257800D02*
X221975714Y-114166371D01*
X221975714Y-114166371D02*
X221914761Y-114135895D01*
X221914761Y-114135895D02*
X221853809Y-114135895D01*
X221884285Y-114288276D02*
X221823333Y-114257800D01*
X221823333Y-114257800D02*
X221762380Y-114196847D01*
X221762380Y-114196847D02*
X221731904Y-114074942D01*
X221731904Y-114074942D02*
X221731904Y-113861609D01*
X221731904Y-113861609D02*
X221762380Y-113739704D01*
X221762380Y-113739704D02*
X221823333Y-113678752D01*
X221823333Y-113678752D02*
X221884285Y-113648276D01*
X221884285Y-113648276D02*
X222006190Y-113648276D01*
X222006190Y-113648276D02*
X222067142Y-113678752D01*
X222067142Y-113678752D02*
X222128095Y-113739704D01*
X222128095Y-113739704D02*
X222158571Y-113861609D01*
X222158571Y-113861609D02*
X222158571Y-114074942D01*
X222158571Y-114074942D02*
X222128095Y-114196847D01*
X222128095Y-114196847D02*
X222067142Y-114257800D01*
X222067142Y-114257800D02*
X222006190Y-114288276D01*
X222006190Y-114288276D02*
X221884285Y-114288276D01*
X222707142Y-113648276D02*
X222585237Y-113648276D01*
X222585237Y-113648276D02*
X222524285Y-113678752D01*
X222524285Y-113678752D02*
X222493809Y-113709228D01*
X222493809Y-113709228D02*
X222432856Y-113800657D01*
X222432856Y-113800657D02*
X222402380Y-113922561D01*
X222402380Y-113922561D02*
X222402380Y-114166371D01*
X222402380Y-114166371D02*
X222432856Y-114227323D01*
X222432856Y-114227323D02*
X222463333Y-114257800D01*
X222463333Y-114257800D02*
X222524285Y-114288276D01*
X222524285Y-114288276D02*
X222646190Y-114288276D01*
X222646190Y-114288276D02*
X222707142Y-114257800D01*
X222707142Y-114257800D02*
X222737618Y-114227323D01*
X222737618Y-114227323D02*
X222768095Y-114166371D01*
X222768095Y-114166371D02*
X222768095Y-114013990D01*
X222768095Y-114013990D02*
X222737618Y-113953038D01*
X222737618Y-113953038D02*
X222707142Y-113922561D01*
X222707142Y-113922561D02*
X222646190Y-113892085D01*
X222646190Y-113892085D02*
X222524285Y-113892085D01*
X222524285Y-113892085D02*
X222463333Y-113922561D01*
X222463333Y-113922561D02*
X222432856Y-113953038D01*
X222432856Y-113953038D02*
X222402380Y-114013990D01*
X219439047Y-104599228D02*
X219378095Y-104568752D01*
X219378095Y-104568752D02*
X219317142Y-104507800D01*
X219317142Y-104507800D02*
X219225714Y-104416371D01*
X219225714Y-104416371D02*
X219164761Y-104385895D01*
X219164761Y-104385895D02*
X219103809Y-104385895D01*
X219134285Y-104538276D02*
X219073333Y-104507800D01*
X219073333Y-104507800D02*
X219012380Y-104446847D01*
X219012380Y-104446847D02*
X218981904Y-104324942D01*
X218981904Y-104324942D02*
X218981904Y-104111609D01*
X218981904Y-104111609D02*
X219012380Y-103989704D01*
X219012380Y-103989704D02*
X219073333Y-103928752D01*
X219073333Y-103928752D02*
X219134285Y-103898276D01*
X219134285Y-103898276D02*
X219256190Y-103898276D01*
X219256190Y-103898276D02*
X219317142Y-103928752D01*
X219317142Y-103928752D02*
X219378095Y-103989704D01*
X219378095Y-103989704D02*
X219408571Y-104111609D01*
X219408571Y-104111609D02*
X219408571Y-104324942D01*
X219408571Y-104324942D02*
X219378095Y-104446847D01*
X219378095Y-104446847D02*
X219317142Y-104507800D01*
X219317142Y-104507800D02*
X219256190Y-104538276D01*
X219256190Y-104538276D02*
X219134285Y-104538276D01*
X219987618Y-103898276D02*
X219682856Y-103898276D01*
X219682856Y-103898276D02*
X219652380Y-104203038D01*
X219652380Y-104203038D02*
X219682856Y-104172561D01*
X219682856Y-104172561D02*
X219743809Y-104142085D01*
X219743809Y-104142085D02*
X219896190Y-104142085D01*
X219896190Y-104142085D02*
X219957142Y-104172561D01*
X219957142Y-104172561D02*
X219987618Y-104203038D01*
X219987618Y-104203038D02*
X220018095Y-104263990D01*
X220018095Y-104263990D02*
X220018095Y-104416371D01*
X220018095Y-104416371D02*
X219987618Y-104477323D01*
X219987618Y-104477323D02*
X219957142Y-104507800D01*
X219957142Y-104507800D02*
X219896190Y-104538276D01*
X219896190Y-104538276D02*
X219743809Y-104538276D01*
X219743809Y-104538276D02*
X219682856Y-104507800D01*
X219682856Y-104507800D02*
X219652380Y-104477323D01*
X187666666Y-155811069D02*
X187666666Y-156525354D01*
X187666666Y-156525354D02*
X187619047Y-156668211D01*
X187619047Y-156668211D02*
X187523809Y-156763450D01*
X187523809Y-156763450D02*
X187380952Y-156811069D01*
X187380952Y-156811069D02*
X187285714Y-156811069D01*
X188571428Y-155811069D02*
X188380952Y-155811069D01*
X188380952Y-155811069D02*
X188285714Y-155858688D01*
X188285714Y-155858688D02*
X188238095Y-155906307D01*
X188238095Y-155906307D02*
X188142857Y-156049164D01*
X188142857Y-156049164D02*
X188095238Y-156239640D01*
X188095238Y-156239640D02*
X188095238Y-156620592D01*
X188095238Y-156620592D02*
X188142857Y-156715830D01*
X188142857Y-156715830D02*
X188190476Y-156763450D01*
X188190476Y-156763450D02*
X188285714Y-156811069D01*
X188285714Y-156811069D02*
X188476190Y-156811069D01*
X188476190Y-156811069D02*
X188571428Y-156763450D01*
X188571428Y-156763450D02*
X188619047Y-156715830D01*
X188619047Y-156715830D02*
X188666666Y-156620592D01*
X188666666Y-156620592D02*
X188666666Y-156382497D01*
X188666666Y-156382497D02*
X188619047Y-156287259D01*
X188619047Y-156287259D02*
X188571428Y-156239640D01*
X188571428Y-156239640D02*
X188476190Y-156192021D01*
X188476190Y-156192021D02*
X188285714Y-156192021D01*
X188285714Y-156192021D02*
X188190476Y-156239640D01*
X188190476Y-156239640D02*
X188142857Y-156287259D01*
X188142857Y-156287259D02*
X188095238Y-156382497D01*
X238204819Y-97583333D02*
X238919104Y-97583333D01*
X238919104Y-97583333D02*
X239061961Y-97630952D01*
X239061961Y-97630952D02*
X239157200Y-97726190D01*
X239157200Y-97726190D02*
X239204819Y-97869047D01*
X239204819Y-97869047D02*
X239204819Y-97964285D01*
X238538152Y-96678571D02*
X239204819Y-96678571D01*
X238157200Y-96916666D02*
X238871485Y-97154761D01*
X238871485Y-97154761D02*
X238871485Y-96535714D01*
X226824819Y-159189583D02*
X227539104Y-159189583D01*
X227539104Y-159189583D02*
X227681961Y-159237202D01*
X227681961Y-159237202D02*
X227777200Y-159332440D01*
X227777200Y-159332440D02*
X227824819Y-159475297D01*
X227824819Y-159475297D02*
X227824819Y-159570535D01*
X226824819Y-158808630D02*
X226824819Y-158141964D01*
X226824819Y-158141964D02*
X227824819Y-158570535D01*
X245738095Y-153454819D02*
X245738095Y-152454819D01*
X245738095Y-152931009D02*
X246309523Y-152931009D01*
X246309523Y-153454819D02*
X246309523Y-152454819D01*
X247214285Y-152788152D02*
X247214285Y-153454819D01*
X246976190Y-152407200D02*
X246738095Y-153121485D01*
X246738095Y-153121485D02*
X247357142Y-153121485D01*
X193584819Y-138319583D02*
X194299104Y-138319583D01*
X194299104Y-138319583D02*
X194441961Y-138367202D01*
X194441961Y-138367202D02*
X194537200Y-138462440D01*
X194537200Y-138462440D02*
X194584819Y-138605297D01*
X194584819Y-138605297D02*
X194584819Y-138700535D01*
X193680057Y-137891011D02*
X193632438Y-137843392D01*
X193632438Y-137843392D02*
X193584819Y-137748154D01*
X193584819Y-137748154D02*
X193584819Y-137510059D01*
X193584819Y-137510059D02*
X193632438Y-137414821D01*
X193632438Y-137414821D02*
X193680057Y-137367202D01*
X193680057Y-137367202D02*
X193775295Y-137319583D01*
X193775295Y-137319583D02*
X193870533Y-137319583D01*
X193870533Y-137319583D02*
X194013390Y-137367202D01*
X194013390Y-137367202D02*
X194584819Y-137938630D01*
X194584819Y-137938630D02*
X194584819Y-137319583D01*
X195238095Y-144361069D02*
X195238095Y-145170592D01*
X195238095Y-145170592D02*
X195285714Y-145265830D01*
X195285714Y-145265830D02*
X195333333Y-145313450D01*
X195333333Y-145313450D02*
X195428571Y-145361069D01*
X195428571Y-145361069D02*
X195619047Y-145361069D01*
X195619047Y-145361069D02*
X195714285Y-145313450D01*
X195714285Y-145313450D02*
X195761904Y-145265830D01*
X195761904Y-145265830D02*
X195809523Y-145170592D01*
X195809523Y-145170592D02*
X195809523Y-144361069D01*
X196238095Y-144456307D02*
X196285714Y-144408688D01*
X196285714Y-144408688D02*
X196380952Y-144361069D01*
X196380952Y-144361069D02*
X196619047Y-144361069D01*
X196619047Y-144361069D02*
X196714285Y-144408688D01*
X196714285Y-144408688D02*
X196761904Y-144456307D01*
X196761904Y-144456307D02*
X196809523Y-144551545D01*
X196809523Y-144551545D02*
X196809523Y-144646783D01*
X196809523Y-144646783D02*
X196761904Y-144789640D01*
X196761904Y-144789640D02*
X196190476Y-145361069D01*
X196190476Y-145361069D02*
X196809523Y-145361069D01*
X208916666Y-101598569D02*
X208916666Y-102312854D01*
X208916666Y-102312854D02*
X208869047Y-102455711D01*
X208869047Y-102455711D02*
X208773809Y-102550950D01*
X208773809Y-102550950D02*
X208630952Y-102598569D01*
X208630952Y-102598569D02*
X208535714Y-102598569D01*
X209869047Y-101598569D02*
X209392857Y-101598569D01*
X209392857Y-101598569D02*
X209345238Y-102074759D01*
X209345238Y-102074759D02*
X209392857Y-102027140D01*
X209392857Y-102027140D02*
X209488095Y-101979521D01*
X209488095Y-101979521D02*
X209726190Y-101979521D01*
X209726190Y-101979521D02*
X209821428Y-102027140D01*
X209821428Y-102027140D02*
X209869047Y-102074759D01*
X209869047Y-102074759D02*
X209916666Y-102169997D01*
X209916666Y-102169997D02*
X209916666Y-102408092D01*
X209916666Y-102408092D02*
X209869047Y-102503330D01*
X209869047Y-102503330D02*
X209821428Y-102550950D01*
X209821428Y-102550950D02*
X209726190Y-102598569D01*
X209726190Y-102598569D02*
X209488095Y-102598569D01*
X209488095Y-102598569D02*
X209392857Y-102550950D01*
X209392857Y-102550950D02*
X209345238Y-102503330D01*
X186954819Y-97833333D02*
X187669104Y-97833333D01*
X187669104Y-97833333D02*
X187811961Y-97880952D01*
X187811961Y-97880952D02*
X187907200Y-97976190D01*
X187907200Y-97976190D02*
X187954819Y-98119047D01*
X187954819Y-98119047D02*
X187954819Y-98214285D01*
X186954819Y-97452380D02*
X186954819Y-96833333D01*
X186954819Y-96833333D02*
X187335771Y-97166666D01*
X187335771Y-97166666D02*
X187335771Y-97023809D01*
X187335771Y-97023809D02*
X187383390Y-96928571D01*
X187383390Y-96928571D02*
X187431009Y-96880952D01*
X187431009Y-96880952D02*
X187526247Y-96833333D01*
X187526247Y-96833333D02*
X187764342Y-96833333D01*
X187764342Y-96833333D02*
X187859580Y-96880952D01*
X187859580Y-96880952D02*
X187907200Y-96928571D01*
X187907200Y-96928571D02*
X187954819Y-97023809D01*
X187954819Y-97023809D02*
X187954819Y-97309523D01*
X187954819Y-97309523D02*
X187907200Y-97404761D01*
X187907200Y-97404761D02*
X187859580Y-97452380D01*
X230238095Y-144361069D02*
X230238095Y-145170592D01*
X230238095Y-145170592D02*
X230285714Y-145265830D01*
X230285714Y-145265830D02*
X230333333Y-145313450D01*
X230333333Y-145313450D02*
X230428571Y-145361069D01*
X230428571Y-145361069D02*
X230619047Y-145361069D01*
X230619047Y-145361069D02*
X230714285Y-145313450D01*
X230714285Y-145313450D02*
X230761904Y-145265830D01*
X230761904Y-145265830D02*
X230809523Y-145170592D01*
X230809523Y-145170592D02*
X230809523Y-144361069D01*
X231190476Y-144361069D02*
X231809523Y-144361069D01*
X231809523Y-144361069D02*
X231476190Y-144742021D01*
X231476190Y-144742021D02*
X231619047Y-144742021D01*
X231619047Y-144742021D02*
X231714285Y-144789640D01*
X231714285Y-144789640D02*
X231761904Y-144837259D01*
X231761904Y-144837259D02*
X231809523Y-144932497D01*
X231809523Y-144932497D02*
X231809523Y-145170592D01*
X231809523Y-145170592D02*
X231761904Y-145265830D01*
X231761904Y-145265830D02*
X231714285Y-145313450D01*
X231714285Y-145313450D02*
X231619047Y-145361069D01*
X231619047Y-145361069D02*
X231333333Y-145361069D01*
X231333333Y-145361069D02*
X231238095Y-145313450D01*
X231238095Y-145313450D02*
X231190476Y-145265830D01*
X202439047Y-114349228D02*
X202378095Y-114318752D01*
X202378095Y-114318752D02*
X202317142Y-114257800D01*
X202317142Y-114257800D02*
X202225714Y-114166371D01*
X202225714Y-114166371D02*
X202164761Y-114135895D01*
X202164761Y-114135895D02*
X202103809Y-114135895D01*
X202134285Y-114288276D02*
X202073333Y-114257800D01*
X202073333Y-114257800D02*
X202012380Y-114196847D01*
X202012380Y-114196847D02*
X201981904Y-114074942D01*
X201981904Y-114074942D02*
X201981904Y-113861609D01*
X201981904Y-113861609D02*
X202012380Y-113739704D01*
X202012380Y-113739704D02*
X202073333Y-113678752D01*
X202073333Y-113678752D02*
X202134285Y-113648276D01*
X202134285Y-113648276D02*
X202256190Y-113648276D01*
X202256190Y-113648276D02*
X202317142Y-113678752D01*
X202317142Y-113678752D02*
X202378095Y-113739704D01*
X202378095Y-113739704D02*
X202408571Y-113861609D01*
X202408571Y-113861609D02*
X202408571Y-114074942D01*
X202408571Y-114074942D02*
X202378095Y-114196847D01*
X202378095Y-114196847D02*
X202317142Y-114257800D01*
X202317142Y-114257800D02*
X202256190Y-114288276D01*
X202256190Y-114288276D02*
X202134285Y-114288276D01*
X202957142Y-113861609D02*
X202957142Y-114288276D01*
X202804761Y-113617800D02*
X202652380Y-114074942D01*
X202652380Y-114074942D02*
X203048571Y-114074942D01*
X212439047Y-104599228D02*
X212378095Y-104568752D01*
X212378095Y-104568752D02*
X212317142Y-104507800D01*
X212317142Y-104507800D02*
X212225714Y-104416371D01*
X212225714Y-104416371D02*
X212164761Y-104385895D01*
X212164761Y-104385895D02*
X212103809Y-104385895D01*
X212134285Y-104538276D02*
X212073333Y-104507800D01*
X212073333Y-104507800D02*
X212012380Y-104446847D01*
X212012380Y-104446847D02*
X211981904Y-104324942D01*
X211981904Y-104324942D02*
X211981904Y-104111609D01*
X211981904Y-104111609D02*
X212012380Y-103989704D01*
X212012380Y-103989704D02*
X212073333Y-103928752D01*
X212073333Y-103928752D02*
X212134285Y-103898276D01*
X212134285Y-103898276D02*
X212256190Y-103898276D01*
X212256190Y-103898276D02*
X212317142Y-103928752D01*
X212317142Y-103928752D02*
X212378095Y-103989704D01*
X212378095Y-103989704D02*
X212408571Y-104111609D01*
X212408571Y-104111609D02*
X212408571Y-104324942D01*
X212408571Y-104324942D02*
X212378095Y-104446847D01*
X212378095Y-104446847D02*
X212317142Y-104507800D01*
X212317142Y-104507800D02*
X212256190Y-104538276D01*
X212256190Y-104538276D02*
X212134285Y-104538276D01*
X212621904Y-103898276D02*
X213018095Y-103898276D01*
X213018095Y-103898276D02*
X212804761Y-104142085D01*
X212804761Y-104142085D02*
X212896190Y-104142085D01*
X212896190Y-104142085D02*
X212957142Y-104172561D01*
X212957142Y-104172561D02*
X212987618Y-104203038D01*
X212987618Y-104203038D02*
X213018095Y-104263990D01*
X213018095Y-104263990D02*
X213018095Y-104416371D01*
X213018095Y-104416371D02*
X212987618Y-104477323D01*
X212987618Y-104477323D02*
X212957142Y-104507800D01*
X212957142Y-104507800D02*
X212896190Y-104538276D01*
X212896190Y-104538276D02*
X212713333Y-104538276D01*
X212713333Y-104538276D02*
X212652380Y-104507800D01*
X212652380Y-104507800D02*
X212621904Y-104477323D01*
X237189047Y-105099228D02*
X237128095Y-105068752D01*
X237128095Y-105068752D02*
X237067142Y-105007800D01*
X237067142Y-105007800D02*
X236975714Y-104916371D01*
X236975714Y-104916371D02*
X236914761Y-104885895D01*
X236914761Y-104885895D02*
X236853809Y-104885895D01*
X236884285Y-105038276D02*
X236823333Y-105007800D01*
X236823333Y-105007800D02*
X236762380Y-104946847D01*
X236762380Y-104946847D02*
X236731904Y-104824942D01*
X236731904Y-104824942D02*
X236731904Y-104611609D01*
X236731904Y-104611609D02*
X236762380Y-104489704D01*
X236762380Y-104489704D02*
X236823333Y-104428752D01*
X236823333Y-104428752D02*
X236884285Y-104398276D01*
X236884285Y-104398276D02*
X237006190Y-104398276D01*
X237006190Y-104398276D02*
X237067142Y-104428752D01*
X237067142Y-104428752D02*
X237128095Y-104489704D01*
X237128095Y-104489704D02*
X237158571Y-104611609D01*
X237158571Y-104611609D02*
X237158571Y-104824942D01*
X237158571Y-104824942D02*
X237128095Y-104946847D01*
X237128095Y-104946847D02*
X237067142Y-105007800D01*
X237067142Y-105007800D02*
X237006190Y-105038276D01*
X237006190Y-105038276D02*
X236884285Y-105038276D01*
X237371904Y-104398276D02*
X237798571Y-104398276D01*
X237798571Y-104398276D02*
X237524285Y-105038276D01*
X194689047Y-104349228D02*
X194628095Y-104318752D01*
X194628095Y-104318752D02*
X194567142Y-104257800D01*
X194567142Y-104257800D02*
X194475714Y-104166371D01*
X194475714Y-104166371D02*
X194414761Y-104135895D01*
X194414761Y-104135895D02*
X194353809Y-104135895D01*
X194384285Y-104288276D02*
X194323333Y-104257800D01*
X194323333Y-104257800D02*
X194262380Y-104196847D01*
X194262380Y-104196847D02*
X194231904Y-104074942D01*
X194231904Y-104074942D02*
X194231904Y-103861609D01*
X194231904Y-103861609D02*
X194262380Y-103739704D01*
X194262380Y-103739704D02*
X194323333Y-103678752D01*
X194323333Y-103678752D02*
X194384285Y-103648276D01*
X194384285Y-103648276D02*
X194506190Y-103648276D01*
X194506190Y-103648276D02*
X194567142Y-103678752D01*
X194567142Y-103678752D02*
X194628095Y-103739704D01*
X194628095Y-103739704D02*
X194658571Y-103861609D01*
X194658571Y-103861609D02*
X194658571Y-104074942D01*
X194658571Y-104074942D02*
X194628095Y-104196847D01*
X194628095Y-104196847D02*
X194567142Y-104257800D01*
X194567142Y-104257800D02*
X194506190Y-104288276D01*
X194506190Y-104288276D02*
X194384285Y-104288276D01*
X195268095Y-104288276D02*
X194902380Y-104288276D01*
X195085237Y-104288276D02*
X195085237Y-103648276D01*
X195085237Y-103648276D02*
X195024285Y-103739704D01*
X195024285Y-103739704D02*
X194963333Y-103800657D01*
X194963333Y-103800657D02*
X194902380Y-103831133D01*
D12*
%TO.C,U1*%
X207600000Y-126206250D02*
X207600000Y-120756249D01*
X217399998Y-124456249D02*
X217399998Y-120756249D01*
D13*
%TO.C,R9*%
X227326200Y-123095950D02*
G75*
G02*
X227173800Y-123095950I-76200J0D01*
G01*
X227173800Y-123095950D02*
G75*
G02*
X227326200Y-123095950I76200J0D01*
G01*
%TO.C,R4*%
X197814000Y-123095950D02*
G75*
G02*
X197661600Y-123095950I-76200J0D01*
G01*
X197661600Y-123095950D02*
G75*
G02*
X197814000Y-123095950I76200J0D01*
G01*
%TO.C,C10*%
X231777700Y-125633950D02*
X231777700Y-131473410D01*
X231777700Y-133739090D02*
X231777700Y-139578550D01*
X231777700Y-139578550D02*
X245722300Y-139578550D01*
X245722300Y-125633950D02*
X231777700Y-125633950D01*
X245722300Y-131473410D02*
X245722300Y-125633950D01*
X245722300Y-139578550D02*
X245722300Y-133739090D01*
%TO.C,C9*%
X231777700Y-111133950D02*
X231777700Y-116973410D01*
X231777700Y-119239090D02*
X231777700Y-125078550D01*
X231777700Y-125078550D02*
X245722300Y-125078550D01*
X245722300Y-111133950D02*
X231777700Y-111133950D01*
X245722300Y-116973410D02*
X245722300Y-111133950D01*
X245722300Y-125078550D02*
X245722300Y-119239090D01*
%TO.C,C7*%
X179277700Y-125633950D02*
X179277700Y-131473410D01*
X179277700Y-133739090D02*
X179277700Y-139578550D01*
X179277700Y-139578550D02*
X193222300Y-139578550D01*
X193222300Y-125633950D02*
X179277700Y-125633950D01*
X193222300Y-131473410D02*
X193222300Y-125633950D01*
X193222300Y-139578550D02*
X193222300Y-133739090D01*
%TO.C,C6*%
X179277700Y-111133950D02*
X179277700Y-116973410D01*
X179277700Y-119239090D02*
X179277700Y-125078550D01*
X179277700Y-125078550D02*
X193222300Y-125078550D01*
X193222300Y-111133950D02*
X179277700Y-111133950D01*
X193222300Y-116973410D02*
X193222300Y-111133950D01*
X193222300Y-125078550D02*
X193222300Y-119239090D01*
D14*
%TO.C,R1*%
X219630000Y-126846359D02*
X219630000Y-127153641D01*
X218870000Y-126846359D02*
X218870000Y-127153641D01*
%TO.C,D1*%
X222500000Y-125850000D02*
X221500000Y-125850000D01*
%TO.C,C17*%
X189514664Y-148321250D02*
X189730336Y-148321250D01*
X189514664Y-149041250D02*
X189730336Y-149041250D01*
D15*
%TO.C,Q2*%
X194750000Y-110910250D02*
X194750000Y-111370250D01*
X199750000Y-111370250D02*
X199750000Y-110910250D01*
D12*
X195127500Y-113733750D02*
G75*
G02*
X194927500Y-113733750I-100000J0D01*
G01*
X194927500Y-113733750D02*
G75*
G02*
X195127500Y-113733750I100000J0D01*
G01*
D13*
%TO.C,JP1*%
X203621500Y-151044850D02*
X203621500Y-149317650D01*
X203875500Y-149063650D02*
X205399500Y-149063650D01*
X203875500Y-151298850D02*
X205399500Y-151298850D01*
X205653500Y-149317650D02*
X205653500Y-151044850D01*
X203621500Y-149317650D02*
G75*
G02*
X203875500Y-149063650I254000J0D01*
G01*
X203875500Y-151298850D02*
G75*
G02*
X203621500Y-151044850I0J254000D01*
G01*
X205399500Y-149063650D02*
G75*
G02*
X205653500Y-149317650I0J-254000D01*
G01*
X205653500Y-151044850D02*
G75*
G02*
X205399500Y-151298850I-254000J0D01*
G01*
D14*
%TO.C,R25*%
X237474010Y-149253702D02*
X237166728Y-149253702D01*
X237474010Y-150013702D02*
X237166728Y-150013702D01*
%TO.C,R32*%
X226690369Y-144527343D02*
X226690369Y-144220061D01*
X227450369Y-144527343D02*
X227450369Y-144220061D01*
%TO.C,R10*%
X196051141Y-154301250D02*
X195743859Y-154301250D01*
X196051141Y-155061250D02*
X195743859Y-155061250D01*
%TO.C,R14*%
X202541141Y-150301250D02*
X202233859Y-150301250D01*
X202541141Y-151061250D02*
X202233859Y-151061250D01*
%TO.C,R19*%
X199507500Y-144584891D02*
X199507500Y-144277609D01*
X200267500Y-144584891D02*
X200267500Y-144277609D01*
%TO.C,C4*%
X206240000Y-128496830D02*
X206240000Y-128215670D01*
X207260000Y-128496830D02*
X207260000Y-128215670D01*
%TO.C,C34*%
X200305092Y-118691084D02*
X200305092Y-118475412D01*
X201025092Y-118691084D02*
X201025092Y-118475412D01*
%TO.C,R3*%
X204870000Y-126903641D02*
X204870000Y-126596359D01*
X205630000Y-126903641D02*
X205630000Y-126596359D01*
%TO.C,R28*%
X224416728Y-149253702D02*
X224724010Y-149253702D01*
X224416728Y-150013702D02*
X224724010Y-150013702D01*
%TO.C,C35*%
X223890000Y-118707054D02*
X223890000Y-118491382D01*
X224610000Y-118707054D02*
X224610000Y-118491382D01*
%TO.C,R13*%
X202541141Y-149301250D02*
X202233859Y-149301250D01*
X202541141Y-150061250D02*
X202233859Y-150061250D01*
%TO.C,C3*%
X210390000Y-128964086D02*
X210390000Y-128748414D01*
X211110000Y-128964086D02*
X211110000Y-128748414D01*
%TO.C,R2*%
X217870000Y-127153641D02*
X217870000Y-126846359D01*
X218630000Y-127153641D02*
X218630000Y-126846359D01*
%TO.C,C30*%
X225710369Y-150241538D02*
X225710369Y-150025866D01*
X226430369Y-150241538D02*
X226430369Y-150025866D01*
%TO.C,C26*%
X237428205Y-151273702D02*
X237212533Y-151273702D01*
X237428205Y-151993702D02*
X237212533Y-151993702D01*
%TO.C,R29*%
X227690369Y-144527343D02*
X227690369Y-144220061D01*
X228450369Y-144527343D02*
X228450369Y-144220061D01*
%TO.C,C15*%
X202495336Y-151321250D02*
X202279664Y-151321250D01*
X202495336Y-152041250D02*
X202279664Y-152041250D01*
%TO.C,R21*%
X200507500Y-144584891D02*
X200507500Y-144277609D01*
X201267500Y-144584891D02*
X201267500Y-144277609D01*
%TO.C,R23*%
X230940369Y-153297343D02*
X230940369Y-152990061D01*
X231700369Y-153297343D02*
X231700369Y-152990061D01*
%TO.C,R7*%
X208620000Y-131596359D02*
X208620000Y-131903641D01*
X209380000Y-131596359D02*
X209380000Y-131903641D01*
D15*
%TO.C,Q8*%
X225250000Y-110910250D02*
X225250000Y-111370250D01*
X230250000Y-111370250D02*
X230250000Y-110910250D01*
D12*
X225627500Y-113733750D02*
G75*
G02*
X225427500Y-113733750I-100000J0D01*
G01*
X225427500Y-113733750D02*
G75*
G02*
X225627500Y-113733750I100000J0D01*
G01*
D14*
%TO.C,C5*%
X208640000Y-128964086D02*
X208640000Y-128748414D01*
X209360000Y-128964086D02*
X209360000Y-128748414D01*
D13*
%TO.C,JP2*%
X186371500Y-151044850D02*
X186371500Y-149317650D01*
X188149500Y-149063650D02*
X186625500Y-149063650D01*
X188149500Y-151298850D02*
X186625500Y-151298850D01*
X188403500Y-149317650D02*
X188403500Y-151044850D01*
X186371500Y-149317650D02*
G75*
G02*
X186625500Y-149063650I254000J0D01*
G01*
X186625500Y-151298850D02*
G75*
G02*
X186371500Y-151044850I0J254000D01*
G01*
X188149500Y-149063650D02*
G75*
G02*
X188403500Y-149317650I0J-254000D01*
G01*
X188403500Y-151044850D02*
G75*
G02*
X188149500Y-151298850I-254000J0D01*
G01*
D14*
%TO.C,R6*%
X207620000Y-131903641D02*
X207620000Y-131596359D01*
X208380000Y-131903641D02*
X208380000Y-131596359D01*
%TO.C,C8*%
X186109420Y-140240000D02*
X186390580Y-140240000D01*
X186109420Y-141260000D02*
X186390580Y-141260000D01*
%TO.C,R16*%
X189468859Y-149301250D02*
X189776141Y-149301250D01*
X189468859Y-150061250D02*
X189776141Y-150061250D01*
%TO.C,C2*%
X207640000Y-128748414D02*
X207640000Y-128964086D01*
X208360000Y-128748414D02*
X208360000Y-128964086D01*
%TO.C,J1*%
X200330000Y-160236250D02*
X200330000Y-158856250D01*
X201710000Y-160236250D02*
X200330000Y-160236250D01*
X202980000Y-157476250D02*
X225950000Y-157476250D01*
X202980000Y-160236250D02*
X202980000Y-157476250D01*
X202980000Y-160236250D02*
X225950000Y-160236250D01*
X225950000Y-160236250D02*
X225950000Y-157476250D01*
%TO.C,C13*%
X194027500Y-153289086D02*
X194027500Y-153073414D01*
X194747500Y-153289086D02*
X194747500Y-153073414D01*
%TO.C,R31*%
X234440369Y-144537343D02*
X234440369Y-144230061D01*
X235200369Y-144537343D02*
X235200369Y-144230061D01*
%TO.C,C24*%
X228960369Y-153241538D02*
X228960369Y-153025866D01*
X229680369Y-153241538D02*
X229680369Y-153025866D01*
%TO.C,R26*%
X237474010Y-150253702D02*
X237166728Y-150253702D01*
X237474010Y-151013702D02*
X237166728Y-151013702D01*
%TO.C,C31*%
X230948205Y-151273702D02*
X230732533Y-151273702D01*
X230948205Y-151993702D02*
X230732533Y-151993702D01*
%TO.C,C16*%
X189514664Y-151321250D02*
X189730336Y-151321250D01*
X189514664Y-152041250D02*
X189730336Y-152041250D01*
D15*
%TO.C,Q6*%
X219250000Y-110910250D02*
X219250000Y-111370250D01*
X224250000Y-111370250D02*
X224250000Y-110910250D01*
D12*
X219627500Y-113733750D02*
G75*
G02*
X219427500Y-113733750I-100000J0D01*
G01*
X219427500Y-113733750D02*
G75*
G02*
X219627500Y-113733750I100000J0D01*
G01*
D15*
%TO.C,Q5*%
X213250000Y-105342250D02*
X213250000Y-105802250D01*
X218250000Y-105802250D02*
X218250000Y-105342250D01*
D12*
X218072500Y-102978750D02*
G75*
G02*
X217872500Y-102978750I-100000J0D01*
G01*
X217872500Y-102978750D02*
G75*
G02*
X218072500Y-102978750I100000J0D01*
G01*
D14*
%TO.C,C20*%
X195995336Y-151321250D02*
X195779664Y-151321250D01*
X195995336Y-152041250D02*
X195779664Y-152041250D01*
%TO.C,J6*%
X186697500Y-160236250D02*
X186697500Y-158856250D01*
X188077500Y-160236250D02*
X186697500Y-160236250D01*
X189347500Y-157476250D02*
X197077500Y-157476250D01*
X189347500Y-160236250D02*
X189347500Y-157476250D01*
X189347500Y-160236250D02*
X197077500Y-160236250D01*
X197077500Y-160236250D02*
X197077500Y-157476250D01*
%TO.C,R8*%
X217403641Y-129130000D02*
X217096359Y-129130000D01*
X217403641Y-128370000D02*
X217096359Y-128370000D01*
D13*
%TO.C,JP4*%
X238786546Y-151047302D02*
X238786546Y-149320102D01*
X239040546Y-149066102D02*
X240564546Y-149066102D01*
X239040546Y-151301302D02*
X240564546Y-151301302D01*
X240818546Y-149320102D02*
X240818546Y-151047302D01*
X238786546Y-149320102D02*
G75*
G02*
X239040546Y-149066102I254000J0D01*
G01*
X239040546Y-151301302D02*
G75*
G02*
X238786546Y-151047302I0J254000D01*
G01*
X240564546Y-149066102D02*
G75*
G02*
X240818546Y-149320102I0J-254000D01*
G01*
X240818546Y-151047302D02*
G75*
G02*
X240564546Y-151301302I-254000J0D01*
G01*
D14*
%TO.C,C33*%
X237258028Y-147137441D02*
X237473700Y-147137441D01*
X237258028Y-147857441D02*
X237473700Y-147857441D01*
%TO.C,J7*%
X228370000Y-160236250D02*
X228370000Y-158856250D01*
X229750000Y-160236250D02*
X228370000Y-160236250D01*
X231020000Y-157476250D02*
X238750000Y-157476250D01*
X231020000Y-160236250D02*
X231020000Y-157476250D01*
X231020000Y-160236250D02*
X238750000Y-160236250D01*
X238750000Y-160236250D02*
X238750000Y-157476250D01*
D13*
%TO.C,JP5*%
X221304369Y-150997302D02*
X221304369Y-149270102D01*
X223082369Y-149016102D02*
X221558369Y-149016102D01*
X223082369Y-151251302D02*
X221558369Y-151251302D01*
X223336369Y-149270102D02*
X223336369Y-150997302D01*
X221304369Y-149270102D02*
G75*
G02*
X221558369Y-149016102I254000J0D01*
G01*
X221558369Y-151251302D02*
G75*
G02*
X221304369Y-150997302I0J254000D01*
G01*
X223082369Y-149016102D02*
G75*
G02*
X223336369Y-149270102I0J-254000D01*
G01*
X223336369Y-150997302D02*
G75*
G02*
X223082369Y-151251302I-254000J0D01*
G01*
D14*
%TO.C,R12*%
X195007500Y-153334891D02*
X195007500Y-153027609D01*
X195767500Y-153334891D02*
X195767500Y-153027609D01*
%TO.C,C12*%
X197027500Y-153289086D02*
X197027500Y-153073414D01*
X197747500Y-153289086D02*
X197747500Y-153073414D01*
%TO.C,C22*%
X202279664Y-147161250D02*
X202495336Y-147161250D01*
X202279664Y-147881250D02*
X202495336Y-147881250D01*
%TO.C,J2*%
X195130000Y-139366250D02*
X195130000Y-137986250D01*
X196510000Y-139366250D02*
X195130000Y-139366250D01*
X197780000Y-136606250D02*
X218210000Y-136606250D01*
X197780000Y-139366250D02*
X197780000Y-136606250D01*
X197780000Y-139366250D02*
X218210000Y-139366250D01*
X218210000Y-139366250D02*
X218210000Y-136606250D01*
%TO.C,U2*%
X193690000Y-145621250D02*
X198310000Y-145621250D01*
X198310000Y-151091250D02*
X193690000Y-151091250D01*
X192140000Y-146076250D02*
X191810000Y-146316250D01*
X191810000Y-145836250D01*
X192140000Y-146076250D01*
G36*
X192140000Y-146076250D02*
G01*
X191810000Y-146316250D01*
X191810000Y-145836250D01*
X192140000Y-146076250D01*
G37*
D13*
%TO.C,JP3*%
X186371500Y-148638450D02*
X186371500Y-146911250D01*
X188149500Y-146657250D02*
X186625500Y-146657250D01*
X188149500Y-148892450D02*
X186625500Y-148892450D01*
X188403500Y-146911250D02*
X188403500Y-148638450D01*
X186371500Y-146911250D02*
G75*
G02*
X186625500Y-146657250I254000J0D01*
G01*
X186625500Y-148892450D02*
G75*
G02*
X186371500Y-148638450I0J254000D01*
G01*
X188149500Y-146657250D02*
G75*
G02*
X188403500Y-146911250I0J-254000D01*
G01*
X188403500Y-148638450D02*
G75*
G02*
X188149500Y-148892450I-254000J0D01*
G01*
D14*
%TO.C,R33*%
X235440369Y-144537343D02*
X235440369Y-144230061D01*
X236200369Y-144537343D02*
X236200369Y-144230061D01*
%TO.C,C14*%
X202495336Y-148321250D02*
X202279664Y-148321250D01*
X202495336Y-149041250D02*
X202279664Y-149041250D01*
%TO.C,R30*%
X233440369Y-144537343D02*
X233440369Y-144230061D01*
X234200369Y-144537343D02*
X234200369Y-144230061D01*
%TO.C,C32*%
X237428205Y-145523702D02*
X237212533Y-145523702D01*
X237428205Y-146243702D02*
X237212533Y-146243702D01*
%TO.C,C11*%
X238609420Y-108596250D02*
X238890580Y-108596250D01*
X238609420Y-109616250D02*
X238890580Y-109616250D01*
D13*
%TO.C,JP6*%
X221304369Y-148497302D02*
X221304369Y-146770102D01*
X223082369Y-146516102D02*
X221558369Y-146516102D01*
X223082369Y-148751302D02*
X221558369Y-148751302D01*
X223336369Y-146770102D02*
X223336369Y-148497302D01*
X221304369Y-146770102D02*
G75*
G02*
X221558369Y-146516102I254000J0D01*
G01*
X221558369Y-148751302D02*
G75*
G02*
X221304369Y-148497302I0J254000D01*
G01*
X223082369Y-146516102D02*
G75*
G02*
X223336369Y-146770102I0J-254000D01*
G01*
X223336369Y-148497302D02*
G75*
G02*
X223082369Y-148751302I-254000J0D01*
G01*
D14*
%TO.C,R22*%
X230974010Y-154253702D02*
X230666728Y-154253702D01*
X230974010Y-155013702D02*
X230666728Y-155013702D01*
%TO.C,R20*%
X191677500Y-144584891D02*
X191677500Y-144277609D01*
X192437500Y-144584891D02*
X192437500Y-144277609D01*
%TO.C,R24*%
X229940369Y-153287343D02*
X229940369Y-152980061D01*
X230700369Y-153287343D02*
X230700369Y-152980061D01*
%TO.C,U3*%
X228690000Y-145621250D02*
X233310000Y-145621250D01*
X233310000Y-151091250D02*
X228690000Y-151091250D01*
X227140000Y-146076250D02*
X226810000Y-146316250D01*
X226810000Y-145836250D01*
X227140000Y-146076250D01*
G36*
X227140000Y-146076250D02*
G01*
X226810000Y-146316250D01*
X226810000Y-145836250D01*
X227140000Y-146076250D01*
G37*
D15*
%TO.C,Q4*%
X200750000Y-110910250D02*
X200750000Y-111370250D01*
X205750000Y-111370250D02*
X205750000Y-110910250D01*
D12*
X201127500Y-113733750D02*
G75*
G02*
X200927500Y-113733750I-100000J0D01*
G01*
X200927500Y-113733750D02*
G75*
G02*
X201127500Y-113733750I100000J0D01*
G01*
D14*
%TO.C,C21*%
X202495336Y-145571250D02*
X202279664Y-145571250D01*
X202495336Y-146291250D02*
X202279664Y-146291250D01*
%TO.C,C28*%
X224442533Y-148273702D02*
X224658205Y-148273702D01*
X224442533Y-148993702D02*
X224658205Y-148993702D01*
%TO.C,R18*%
X198507500Y-144584891D02*
X198507500Y-144277609D01*
X199267500Y-144584891D02*
X199267500Y-144277609D01*
%TO.C,C27*%
X224482533Y-151273702D02*
X224698205Y-151273702D01*
X224482533Y-151993702D02*
X224698205Y-151993702D01*
D15*
%TO.C,Q3*%
X206750000Y-105342250D02*
X206750000Y-105802250D01*
X211750000Y-105802250D02*
X211750000Y-105342250D01*
D12*
X211572500Y-102978750D02*
G75*
G02*
X211372500Y-102978750I-100000J0D01*
G01*
X211372500Y-102978750D02*
G75*
G02*
X211572500Y-102978750I100000J0D01*
G01*
D15*
%TO.C,Q7*%
X231250000Y-105342250D02*
X231250000Y-105802250D01*
X236250000Y-105802250D02*
X236250000Y-105342250D01*
D12*
X236072500Y-102978750D02*
G75*
G02*
X235872500Y-102978750I-100000J0D01*
G01*
X235872500Y-102978750D02*
G75*
G02*
X236072500Y-102978750I100000J0D01*
G01*
D14*
%TO.C,R11*%
X196007500Y-153334891D02*
X196007500Y-153027609D01*
X196767500Y-153334891D02*
X196767500Y-153027609D01*
%TO.C,R17*%
X192757500Y-144584891D02*
X192757500Y-144277609D01*
X193517500Y-144584891D02*
X193517500Y-144277609D01*
%TO.C,D2*%
X202500000Y-128650000D02*
X203500000Y-128650000D01*
%TO.C,C29*%
X235460369Y-150025866D02*
X235460369Y-150241538D01*
X236180369Y-150025866D02*
X236180369Y-150241538D01*
%TO.C,C19*%
X190762500Y-150289086D02*
X190762500Y-150073414D01*
X191482500Y-150289086D02*
X191482500Y-150073414D01*
%TO.C,C18*%
X200517726Y-150123236D02*
X200517726Y-150338908D01*
X201237726Y-150123236D02*
X201237726Y-150338908D01*
%TO.C,C23*%
X231960369Y-153241538D02*
X231960369Y-153025866D01*
X232680369Y-153241538D02*
X232680369Y-153025866D01*
%TO.C,R15*%
X189468859Y-150301250D02*
X189776141Y-150301250D01*
X189468859Y-151061250D02*
X189776141Y-151061250D01*
%TO.C,C1*%
X204610000Y-126848530D02*
X204610000Y-126632858D01*
X203890000Y-126848530D02*
X203890000Y-126632858D01*
%TO.C,C25*%
X237428205Y-148273702D02*
X237212533Y-148273702D01*
X237428205Y-148993702D02*
X237212533Y-148993702D01*
D16*
%TO.C,SW1*%
X218350000Y-132088000D02*
X218350000Y-129412000D01*
X219620000Y-132850000D02*
X219880000Y-132850000D01*
X219880000Y-128650000D02*
X219620000Y-128650000D01*
X221150000Y-129412000D02*
X221150000Y-132088000D01*
X220555000Y-130750000D02*
G75*
G02*
X218945000Y-130750000I-805000J0D01*
G01*
X218945000Y-130750000D02*
G75*
G02*
X220555000Y-130750000I805000J0D01*
G01*
D14*
%TO.C,R27*%
X224416728Y-150264442D02*
X224724010Y-150264442D01*
X224416728Y-151024442D02*
X224724010Y-151024442D01*
D15*
%TO.C,Q1*%
X188750000Y-105342250D02*
X188750000Y-105802250D01*
X193750000Y-105802250D02*
X193750000Y-105342250D01*
D12*
X193572500Y-102978750D02*
G75*
G02*
X193372500Y-102978750I-100000J0D01*
G01*
X193372500Y-102978750D02*
G75*
G02*
X193572500Y-102978750I100000J0D01*
G01*
%TD*%
M02*
