M48
; DRILL file {KiCad 9.0.7-9.0.7~ubuntu22.04.1} date 2026-02-07T19:05:36-0700
; FORMAT={-:-/ absolute / metric / decimal}
; #@! TF.CreationDate,2026-02-07T19:05:36-07:00
; #@! TF.GenerationSoftware,Kicad,Pcbnew,9.0.7-9.0.7~ubuntu22.04.1
; #@! TF.FileFunction,Plated,1,2,PTH
FMAT,2
METRIC
; #@! TA.AperFunction,Plated,PTH,ViaDrill
T1C0.300
; #@! TA.AperFunction,Plated,PTH,ComponentDrill
T2C0.300
; #@! TA.AperFunction,Plated,PTH,ViaDrill
T3C0.800
; #@! TA.AperFunction,Plated,PTH,ComponentDrill
T4C1.000
; #@! TA.AperFunction,Plated,PTH,ComponentDrill
T5C1.300
%
G90
G05
T1
X179.25Y-111.0
X179.25Y-113.5
X179.25Y-116.0
X179.25Y-119.75
X179.25Y-122.0
X179.25Y-124.25
X179.25Y-126.5
X179.25Y-128.5
X179.25Y-130.75
X179.25Y-134.75
X179.25Y-137.0
X179.25Y-141.106
X179.25Y-145.106
X179.25Y-147.606
X179.25Y-151.606
X182.0Y-111.0
X182.0Y-113.5
X182.0Y-116.0
X182.0Y-119.75
X182.0Y-122.0
X182.0Y-124.25
X182.0Y-126.5
X182.0Y-128.5
X182.0Y-130.75
X182.0Y-134.75
X182.0Y-137.0
X184.75Y-111.0
X184.75Y-113.5
X184.75Y-116.0
X184.75Y-119.75
X184.75Y-122.0
X184.75Y-124.25
X184.75Y-126.5
X184.75Y-128.5
X184.75Y-130.75
X184.75Y-134.75
X184.75Y-137.0
X184.75Y-147.606
X187.0Y-156.606
X187.75Y-104.106
X187.75Y-107.356
X187.75Y-110.856
X187.75Y-116.0
X187.75Y-119.75
X187.75Y-122.0
X187.75Y-124.25
X187.75Y-126.5
X187.75Y-128.5
X187.75Y-130.75
X187.75Y-134.75
X187.75Y-137.0
X188.5Y-140.856
X188.5Y-149.0
X189.25Y-138.75
X189.5Y-157.606
X190.25Y-111.606
X190.5Y-116.0
X190.5Y-119.75
X190.5Y-122.0
X190.5Y-124.25
X190.5Y-126.5
X190.5Y-128.5
X190.5Y-130.75
X190.5Y-134.75
X190.5Y-137.0
X191.0Y-147.75
X191.137Y-148.731
X191.25Y-155.606
X191.75Y-151.856
X191.75Y-157.606
X191.76Y-147.376
X192.0Y-138.75
X193.25Y-111.606
X193.25Y-116.0
X193.25Y-122.0
X193.25Y-124.25
X193.25Y-126.5
X193.25Y-128.5
X193.25Y-130.75
X193.25Y-134.75
X193.25Y-137.0
X194.5Y-157.606
X194.75Y-114.356
X195.387Y-155.469
X195.482Y-116.07
X196.0Y-124.25
X196.0Y-125.375
X196.0Y-126.5
X196.0Y-128.5
X196.0Y-130.75
X196.0Y-134.75
X196.25Y-141.75
X196.75Y-157.606
X197.35Y-126.5
X197.375Y-124.25
X197.375Y-125.375
X198.75Y-124.25
X198.75Y-125.375
X198.75Y-126.5
X198.75Y-128.5
X198.75Y-130.75
X198.75Y-134.75
X199.0Y-157.106
X199.75Y-152.856
X200.25Y-113.606
X200.75Y-121.75
X201.0Y-149.0
X201.5Y-124.25
X201.5Y-128.5
X201.5Y-130.75
X202.25Y-121.0
X203.5Y-136.1
X203.5Y-148.106
X203.75Y-120.0
X203.75Y-121.75
X203.75Y-124.25
X203.75Y-130.75
X205.0Y-133.0
X205.155Y-113.606
X205.25Y-128.106
X205.5Y-120.0
X205.5Y-121.75
X205.5Y-124.25
X205.5Y-143.856
X206.0Y-114.75
X206.25Y-147.856
X206.75Y-131.0
X207.0Y-113.856
X207.0Y-120.0
X207.0Y-121.75
X207.0Y-124.25
X207.25Y-118.606
X207.25Y-156.856
X207.5Y-117.606
X207.5Y-136.106
X207.5Y-145.106
X207.5Y-146.856
X207.75Y-111.356
X207.75Y-112.75
X208.0Y-116.856
X208.25Y-112.0
X208.5Y-116.206
X208.75Y-111.356
X208.75Y-112.75
X209.25Y-112.0
X209.5Y-145.106
X209.5Y-148.356
X209.5Y-152.106
X209.6Y-127.5
X209.75Y-111.356
X209.75Y-112.75
X209.75Y-156.856
X210.0Y-114.606
X210.0Y-130.0
X210.175Y-117.25
X210.25Y-112.0
X210.391Y-127.208
X210.75Y-111.356
X210.75Y-112.75
X210.8Y-140.856
X210.8Y-143.75
X211.25Y-112.0
X211.25Y-114.606
X211.75Y-132.75
X211.8Y-141.606
X211.8Y-143.75
X211.85Y-117.4
X212.0Y-131.5
X212.0Y-156.856
X212.25Y-134.25
X212.5Y-106.5
X212.5Y-107.394
X212.5Y-108.394
X212.5Y-109.394
X212.5Y-110.394
X212.5Y-111.356
X212.5Y-112.75
X212.5Y-115.25
X212.8Y-142.356
X212.8Y-143.75
X213.1Y-117.42
X213.632Y-112.062
X213.75Y-114.606
X214.0Y-144.5
X214.0Y-146.106
X214.132Y-111.312
X214.132Y-112.706
X214.25Y-140.106
X214.428Y-117.428
X214.632Y-112.062
X215.132Y-111.312
X215.132Y-112.706
X215.2Y-143.75
X215.632Y-112.062
X215.674Y-116.424
X216.132Y-111.312
X216.132Y-112.706
X216.2Y-144.5
X216.5Y-156.856
X216.61Y-116.377
X216.632Y-112.062
X216.75Y-117.5
X216.75Y-126.856
X217.0Y-127.75
X217.0Y-143.092
X217.132Y-111.312
X217.132Y-112.706
X217.75Y-113.856
X217.75Y-118.75
X217.75Y-130.75
X217.75Y-132.0
X218.0Y-120.0
X218.0Y-121.75
X218.0Y-124.25
X218.0Y-153.106
X218.2Y-143.856
X218.25Y-114.606
X218.25Y-133.5
X218.5Y-140.106
X218.75Y-116.856
X219.25Y-138.606
X219.25Y-140.856
X219.25Y-156.856
X219.75Y-120.0
X219.75Y-121.75
X219.75Y-144.0
X220.0Y-124.25
X220.0Y-148.356
X220.25Y-151.25
X220.5Y-127.5
X220.5Y-138.606
X220.5Y-141.606
X221.5Y-156.856
X221.75Y-120.0
X221.75Y-121.75
X221.75Y-124.25
X221.75Y-133.5
X221.75Y-138.606
X223.0Y-138.606
X223.0Y-142.356
X223.5Y-120.75
X223.5Y-124.25
X223.5Y-126.75
X223.5Y-129.0
X223.5Y-131.25
X223.5Y-134.5
X223.5Y-149.0
X223.75Y-114.25
X223.75Y-156.856
X225.0Y-121.75
X225.75Y-144.0
X225.75Y-147.5
X226.095Y-148.734
X226.25Y-124.25
X226.25Y-125.5
X226.25Y-126.75
X226.25Y-129.0
X226.25Y-131.25
X226.25Y-134.5
X226.25Y-137.5
X226.718Y-147.379
X227.25Y-140.856
X227.625Y-124.25
X227.625Y-125.5
X227.625Y-126.75
X228.0Y-143.106
X228.0Y-157.356
X229.0Y-124.25
X229.0Y-125.5
X229.0Y-126.75
X229.0Y-129.0
X229.0Y-131.25
X229.0Y-134.5
X229.0Y-137.5
X229.25Y-114.106
X229.5Y-154.634
X229.812Y-115.669
X229.875Y-116.981
X230.75Y-149.25
X231.0Y-140.856
X231.0Y-143.856
X231.0Y-157.356
X231.75Y-111.856
X231.75Y-113.856
X231.75Y-116.0
X231.75Y-119.606
X231.75Y-121.856
X231.75Y-124.25
X231.75Y-126.75
X231.75Y-129.106
X231.75Y-131.106
X231.75Y-134.5
X231.75Y-137.5
X233.25Y-141.606
X233.5Y-157.356
X233.82Y-143.177
X234.25Y-154.75
X234.75Y-111.856
X234.75Y-113.856
X234.75Y-116.0
X234.75Y-119.606
X234.75Y-121.856
X234.75Y-124.25
X234.75Y-126.75
X234.75Y-129.106
X234.75Y-131.106
X234.75Y-134.5
X234.75Y-137.5
X235.0Y-152.106
X236.0Y-157.356
X237.25Y-111.856
X237.25Y-113.856
X237.25Y-116.0
X237.25Y-119.606
X237.25Y-121.856
X237.25Y-124.356
X237.25Y-126.856
X237.25Y-129.106
X237.25Y-131.1
X237.25Y-134.5
X237.25Y-137.5
X237.37Y-155.736
X238.25Y-157.356
X238.5Y-148.106
X238.75Y-151.606
X239.5Y-141.606
X240.5Y-111.856
X240.5Y-113.856
X240.5Y-116.0
X240.5Y-119.606
X240.5Y-121.856
X240.5Y-124.356
X240.5Y-126.856
X240.5Y-129.106
X240.5Y-131.106
X240.5Y-134.5
X240.5Y-137.5
X240.75Y-147.75
X242.25Y-145.134
X242.25Y-146.634
X243.0Y-111.856
X243.0Y-113.856
X243.0Y-116.0
X243.0Y-119.606
X243.0Y-121.856
X243.0Y-124.356
X243.0Y-126.856
X243.0Y-129.106
X243.0Y-131.106
X243.0Y-134.5
X243.0Y-137.5
X243.5Y-145.106
X243.5Y-147.356
X243.5Y-151.856
X243.75Y-140.856
X245.75Y-111.856
X245.75Y-113.856
X245.75Y-116.0
X245.75Y-119.606
X245.75Y-122.0
X245.75Y-124.356
X245.75Y-126.856
X245.75Y-129.106
X245.75Y-131.106
X245.75Y-134.5
X245.75Y-137.5
T2
X181.55Y-104.506
X181.55Y-105.506
X181.55Y-106.506
X181.575Y-99.556
X181.575Y-100.506
X181.575Y-101.506
X182.25Y-105.006
X182.25Y-106.006
X182.25Y-107.006
X182.275Y-100.006
X182.275Y-101.006
X182.3Y-99.106
X182.875Y-105.556
X182.875Y-106.506
X182.9Y-99.556
X182.9Y-100.506
X182.9Y-101.506
X182.9Y-104.656
X183.575Y-102.006
X183.575Y-106.006
X183.575Y-107.006
X183.6Y-100.006
X183.6Y-101.006
X183.6Y-104.256
X183.6Y-105.156
X183.65Y-99.156
X184.35Y-102.556
X184.35Y-103.556
X184.35Y-104.556
X184.35Y-105.556
X184.35Y-106.556
X184.375Y-99.606
X184.375Y-100.556
X184.375Y-101.556
X185.05Y-102.056
X185.05Y-103.056
X185.05Y-104.056
X185.05Y-105.056
X185.05Y-106.056
X185.05Y-107.056
X185.075Y-99.156
X185.075Y-100.056
X185.075Y-101.056
X185.675Y-102.556
X185.675Y-103.556
X185.675Y-104.556
X185.675Y-105.556
X185.675Y-106.556
X185.7Y-99.606
X185.7Y-100.556
X185.7Y-101.556
X186.375Y-102.056
X186.375Y-103.056
X186.375Y-104.056
X186.375Y-105.056
X186.375Y-106.056
X186.375Y-107.056
X186.4Y-99.156
X186.4Y-100.056
X186.4Y-101.056
X194.25Y-98.975
X194.25Y-100.3
X194.3Y-96.175
X194.3Y-97.5
X194.75Y-98.275
X194.75Y-99.6
X194.8Y-95.475
X194.8Y-96.8
X195.25Y-98.975
X195.25Y-100.3
X195.3Y-96.175
X195.3Y-97.5
X195.75Y-96.8
X195.75Y-98.275
X195.75Y-99.6
X195.8Y-95.475
X196.15Y-97.525
X196.25Y-98.975
X196.25Y-100.3
X196.3Y-96.175
X196.65Y-96.825
X196.75Y-98.275
X196.75Y-99.6
X196.8Y-95.475
X197.05Y-97.525
X197.25Y-98.975
X197.25Y-100.3
X197.75Y-98.275
X197.75Y-99.6
X198.25Y-98.975
X198.25Y-100.3
X198.75Y-98.275
X198.75Y-99.6
X199.25Y-98.975
X199.25Y-100.3
X199.3Y-97.5
X199.75Y-98.3
X199.75Y-99.625
X199.8Y-95.5
X199.8Y-96.825
X200.25Y-99.0
X200.25Y-100.325
X200.3Y-96.2
X200.3Y-97.525
X200.75Y-98.3
X200.75Y-99.625
X200.8Y-95.5
X200.8Y-96.825
X201.25Y-99.0
X201.25Y-100.325
X201.3Y-96.2
X201.3Y-97.525
X201.7Y-98.3
X201.7Y-99.625
X201.75Y-95.5
X201.75Y-96.825
X202.1Y-99.025
X202.1Y-100.35
X202.15Y-96.225
X202.15Y-97.55
X203.8Y-99.05
X203.8Y-100.375
X203.85Y-96.25
X203.85Y-97.575
X204.3Y-98.35
X204.3Y-99.675
X204.35Y-95.55
X204.35Y-96.875
X204.8Y-99.05
X204.8Y-100.375
X204.85Y-96.25
X204.85Y-97.575
X205.3Y-96.875
X205.3Y-98.35
X205.3Y-99.675
X205.35Y-95.55
X205.7Y-97.6
X205.8Y-99.05
X205.8Y-100.375
X205.85Y-96.25
X206.2Y-96.9
X206.3Y-98.35
X206.3Y-99.675
X206.35Y-95.55
X206.6Y-97.6
X206.8Y-99.05
X206.8Y-100.375
X207.3Y-98.35
X207.3Y-99.675
X207.8Y-99.05
X207.8Y-100.375
X208.25Y-121.256
X208.25Y-122.556
X208.25Y-123.856
X208.3Y-98.35
X208.3Y-99.675
X208.8Y-99.05
X208.8Y-100.375
X208.85Y-97.575
X209.25Y-121.306
X209.25Y-122.606
X209.25Y-123.906
X209.3Y-98.375
X209.3Y-99.7
X209.35Y-95.575
X209.35Y-96.9
X209.8Y-99.075
X209.8Y-100.4
X209.85Y-96.275
X209.85Y-97.6
X210.3Y-98.375
X210.3Y-99.7
X210.35Y-95.575
X210.35Y-96.9
X210.55Y-121.306
X210.55Y-122.606
X210.55Y-123.906
X210.8Y-99.075
X210.8Y-100.4
X210.85Y-96.275
X210.85Y-97.6
X211.25Y-98.375
X211.25Y-99.7
X211.3Y-95.575
X211.3Y-96.9
X211.6Y-99.075
X211.6Y-100.4
X211.65Y-96.275
X211.65Y-97.6
X211.85Y-121.306
X211.85Y-122.606
X211.85Y-123.906
X213.15Y-121.306
X213.15Y-122.606
X213.15Y-123.906
X213.25Y-99.05
X213.25Y-100.375
X213.3Y-96.25
X213.3Y-97.575
X213.75Y-98.35
X213.75Y-99.675
X213.8Y-95.55
X213.8Y-96.875
X214.25Y-99.05
X214.25Y-100.375
X214.3Y-96.25
X214.3Y-97.575
X214.45Y-121.306
X214.45Y-122.606
X214.45Y-123.906
X214.75Y-96.875
X214.75Y-98.35
X214.75Y-99.675
X214.8Y-95.55
X215.15Y-97.6
X215.25Y-99.05
X215.25Y-100.375
X215.3Y-96.25
X215.65Y-96.9
X215.75Y-98.35
X215.75Y-99.675
X215.75Y-121.306
X215.75Y-122.606
X215.75Y-123.906
X215.8Y-95.55
X216.05Y-97.6
X216.25Y-99.05
X216.25Y-100.375
X216.7Y-121.306
X216.7Y-122.606
X216.7Y-123.906
X216.75Y-98.35
X216.75Y-99.675
X217.25Y-99.05
X217.25Y-100.375
X217.75Y-98.35
X217.75Y-99.675
X218.25Y-99.05
X218.25Y-100.375
X218.3Y-97.575
X218.75Y-98.375
X218.75Y-99.7
X218.8Y-95.575
X218.8Y-96.9
X219.25Y-99.075
X219.25Y-100.4
X219.3Y-96.275
X219.3Y-97.6
X219.75Y-98.375
X219.75Y-99.7
X219.8Y-95.575
X219.8Y-96.9
X220.25Y-99.075
X220.25Y-100.4
X220.3Y-96.275
X220.3Y-97.6
X220.7Y-98.375
X220.7Y-99.7
X220.75Y-95.575
X220.75Y-96.9
X221.15Y-99.075
X221.15Y-100.4
X221.2Y-96.275
X221.2Y-97.6
X222.75Y-99.2
X222.75Y-100.525
X222.8Y-96.4
X222.8Y-97.725
X223.25Y-98.5
X223.25Y-99.825
X223.3Y-95.7
X223.3Y-97.025
X223.75Y-99.2
X223.75Y-100.525
X223.8Y-96.4
X223.8Y-97.725
X224.25Y-97.025
X224.25Y-98.5
X224.25Y-99.825
X224.3Y-95.7
X224.65Y-97.75
X224.75Y-99.2
X224.75Y-100.525
X224.8Y-96.4
X225.15Y-97.05
X225.25Y-98.5
X225.25Y-99.825
X225.3Y-95.7
X225.55Y-97.75
X225.75Y-99.2
X225.75Y-100.525
X226.25Y-98.5
X226.25Y-99.825
X226.75Y-99.2
X226.75Y-100.525
X227.25Y-98.5
X227.25Y-99.825
X227.75Y-99.2
X227.75Y-100.525
X227.8Y-97.725
X228.25Y-98.525
X228.25Y-99.85
X228.3Y-95.725
X228.3Y-97.05
X228.75Y-99.225
X228.75Y-100.55
X228.8Y-96.425
X228.8Y-97.75
X229.25Y-98.525
X229.25Y-99.85
X229.3Y-95.725
X229.3Y-97.05
X229.75Y-99.225
X229.75Y-100.55
X229.8Y-96.425
X229.8Y-97.75
X230.2Y-98.525
X230.2Y-99.85
X230.25Y-95.725
X230.25Y-97.05
X230.65Y-99.225
X230.65Y-100.55
X230.7Y-96.425
X230.7Y-97.75
X238.6Y-105.156
X238.6Y-106.156
X238.6Y-107.056
X238.625Y-99.156
X238.625Y-100.156
X238.625Y-101.156
X238.625Y-102.156
X238.625Y-103.156
X238.625Y-104.156
X239.3Y-104.656
X239.3Y-105.656
X239.3Y-106.606
X239.325Y-99.656
X239.325Y-100.656
X239.325Y-101.656
X239.325Y-102.656
X239.325Y-103.656
X239.925Y-105.156
X239.925Y-106.156
X239.925Y-107.056
X239.95Y-99.156
X239.95Y-100.156
X239.95Y-101.156
X239.95Y-102.156
X239.95Y-103.156
X239.95Y-104.156
X240.625Y-104.656
X240.625Y-105.656
X240.625Y-106.606
X240.65Y-99.656
X240.65Y-100.656
X240.65Y-101.656
X240.65Y-102.656
X240.65Y-103.656
X241.35Y-107.056
X241.4Y-101.056
X241.4Y-101.956
X241.4Y-105.206
X241.4Y-106.206
X241.425Y-99.206
X241.425Y-100.206
X241.425Y-104.206
X242.1Y-101.556
X242.1Y-104.706
X242.1Y-105.706
X242.1Y-106.656
X242.125Y-99.706
X242.125Y-100.656
X242.7Y-107.106
X242.725Y-105.206
X242.725Y-106.206
X242.75Y-99.206
X242.75Y-100.206
X242.75Y-101.206
X243.425Y-104.706
X243.425Y-105.706
X243.425Y-106.656
X243.45Y-99.706
X243.45Y-100.706
X243.45Y-101.706
T3
X204.25Y-154.856
X226.75Y-153.606
T4
X188.077Y-158.856
X190.617Y-158.856
X193.157Y-158.856
X195.697Y-158.856
X196.51Y-137.986
X199.05Y-137.986
X201.59Y-137.986
X201.71Y-158.856
X204.13Y-137.986
X204.25Y-158.856
X206.67Y-137.986
X206.79Y-158.856
X209.21Y-137.986
X209.33Y-158.856
X211.75Y-137.986
X211.87Y-158.856
X214.29Y-137.986
X214.41Y-158.856
X216.83Y-137.986
X216.95Y-158.856
X219.49Y-158.856
X222.03Y-158.856
X224.57Y-158.856
X229.75Y-158.856
X232.29Y-158.856
X234.83Y-158.856
X237.37Y-158.856
T5
X179.25Y-99.906
X179.25Y-106.406
X182.5Y-103.106
X194.98Y-93.75
X198.22Y-96.75
X201.48Y-93.75
X204.48Y-93.75
X207.74Y-96.75
X210.98Y-93.75
X213.98Y-93.5
X217.26Y-96.75
X220.48Y-93.5
X223.48Y-93.5
X226.78Y-96.75
X229.98Y-93.5
X242.5Y-103.106
X245.75Y-99.806
X245.75Y-106.306
M30
