%TF.GenerationSoftware,KiCad,Pcbnew,9.0.7-9.0.7~ubuntu22.04.1*%
%TF.CreationDate,2026-02-07T19:05:41-07:00*%
%TF.ProjectId,Power_Brick,506f7765-725f-4427-9269-636b2e6b6963,1.1*%
%TF.SameCoordinates,Original*%
%TF.FileFunction,Copper,L2,Bot*%
%TF.FilePolarity,Positive*%
%FSLAX46Y46*%
G04 Gerber Fmt 4.6, Leading zero omitted, Abs format (unit mm)*
G04 Created by KiCad (PCBNEW 9.0.7-9.0.7~ubuntu22.04.1) date 2026-02-07 19:05:41*
%MOMM*%
%LPD*%
G01*
G04 APERTURE LIST*
%TA.AperFunction,ComponentPad*%
%ADD10R,1.700000X1.700000*%
%TD*%
%TA.AperFunction,ComponentPad*%
%ADD11C,1.700000*%
%TD*%
%TA.AperFunction,ComponentPad*%
%ADD12C,0.600000*%
%TD*%
%TA.AperFunction,ComponentPad*%
%ADD13C,2.300000*%
%TD*%
%TA.AperFunction,SMDPad,CuDef*%
%ADD14R,9.000000X9.000000*%
%TD*%
%TA.AperFunction,ViaPad*%
%ADD15C,0.600000*%
%TD*%
%TA.AperFunction,ViaPad*%
%ADD16C,0.500000*%
%TD*%
%TA.AperFunction,ViaPad*%
%ADD17C,1.600000*%
%TD*%
%TA.AperFunction,Conductor*%
%ADD18C,0.200000*%
%TD*%
%TA.AperFunction,Conductor*%
%ADD19C,2.000000*%
%TD*%
%TA.AperFunction,Conductor*%
%ADD20C,0.400000*%
%TD*%
G04 APERTURE END LIST*
D10*
%TO.P,J1,1,Pin_1*%
%TO.N,+3.3V*%
X201710000Y-158856250D03*
D11*
%TO.P,J1,2,Pin_2*%
%TO.N,GNDD*%
X204250000Y-158856250D03*
%TO.P,J1,3,Pin_3*%
%TO.N,/SCLK*%
X206790000Y-158856250D03*
%TO.P,J1,4,Pin_4*%
%TO.N,/SDI*%
X209330000Y-158856250D03*
%TO.P,J1,5,Pin_5*%
%TO.N,/SDO*%
X211870000Y-158856250D03*
%TO.P,J1,6,Pin_6*%
%TO.N,/SCS*%
X214410000Y-158856250D03*
%TO.P,J1,7,Pin_7*%
%TO.N,/CS_T1*%
X216950000Y-158856250D03*
%TO.P,J1,8,Pin_8*%
%TO.N,/CS_T2*%
X219490000Y-158856250D03*
%TO.P,J1,9,Pin_9*%
%TO.N,/DRDY_N_T1*%
X222030000Y-158856250D03*
%TO.P,J1,10,Pin_10*%
%TO.N,/DRDY_N_T2*%
X224570000Y-158856250D03*
%TD*%
D10*
%TO.P,J6,1,Pin_1*%
%TO.N,/R1N_T1*%
X188077500Y-158856250D03*
D11*
%TO.P,J6,2,Pin_2*%
%TO.N,/R1P_T1*%
X190617500Y-158856250D03*
%TO.P,J6,3,Pin_3*%
%TO.N,/R0N_T1*%
X193157500Y-158856250D03*
%TO.P,J6,4,Pin_4*%
%TO.N,/R0P_T1*%
X195697500Y-158856250D03*
%TD*%
D12*
%TO.P,J4,1,1*%
%TO.N,GND*%
X242700000Y-107106250D03*
X238600000Y-107056250D03*
X239925000Y-107056250D03*
X241350000Y-107056250D03*
X242100000Y-106656250D03*
X243425000Y-106656250D03*
X239300000Y-106606250D03*
X240625000Y-106606250D03*
D13*
X245750000Y-106306250D03*
D12*
X241400000Y-106206250D03*
X242725000Y-106206250D03*
X238600000Y-106156250D03*
X239925000Y-106156250D03*
X242100000Y-105706250D03*
X243425000Y-105706250D03*
X239300000Y-105656250D03*
X240625000Y-105656250D03*
X241400000Y-105206250D03*
X242725000Y-105206250D03*
X238600000Y-105156250D03*
X239925000Y-105156250D03*
X242100000Y-104706250D03*
X243425000Y-104706250D03*
X239300000Y-104656250D03*
X240625000Y-104656250D03*
X241425000Y-104206250D03*
X238625000Y-104156250D03*
X239950000Y-104156250D03*
X239325000Y-103656250D03*
X240650000Y-103656250D03*
X238625000Y-103156250D03*
X239950000Y-103156250D03*
D13*
X242500000Y-103106250D03*
D14*
X242500000Y-103106250D03*
D12*
X239325000Y-102656250D03*
X240650000Y-102656250D03*
X238625000Y-102156250D03*
X239950000Y-102156250D03*
X241400000Y-101956250D03*
X243450000Y-101706250D03*
X239325000Y-101656250D03*
X240650000Y-101656250D03*
X242100000Y-101556250D03*
X242750000Y-101206250D03*
X238625000Y-101156250D03*
X239950000Y-101156250D03*
X241400000Y-101056250D03*
X243450000Y-100706250D03*
X239325000Y-100656250D03*
X240650000Y-100656250D03*
X242125000Y-100656250D03*
X241425000Y-100206250D03*
X242750000Y-100206250D03*
X238625000Y-100156250D03*
X239950000Y-100156250D03*
D13*
X245750000Y-99806250D03*
D12*
X242125000Y-99706250D03*
X243450000Y-99706250D03*
X239325000Y-99656250D03*
X240650000Y-99656250D03*
X241425000Y-99206250D03*
X242750000Y-99206250D03*
X238625000Y-99156250D03*
X239950000Y-99156250D03*
%TD*%
D10*
%TO.P,J7,1,Pin_1*%
%TO.N,/R1N_T2*%
X229750000Y-158856250D03*
D11*
%TO.P,J7,2,Pin_2*%
%TO.N,/R1P_T2*%
X232290000Y-158856250D03*
%TO.P,J7,3,Pin_3*%
%TO.N,/R0N_T2*%
X234830000Y-158856250D03*
%TO.P,J7,4,Pin_4*%
%TO.N,/R0P_T2*%
X237370000Y-158856250D03*
%TD*%
D12*
%TO.P,U1,39,PAD*%
%TO.N,GND*%
X209249999Y-123906250D03*
X210549999Y-123906250D03*
X211849999Y-123906250D03*
X213150001Y-123906250D03*
X214450001Y-123906250D03*
X215750001Y-123906250D03*
X216700000Y-123906250D03*
X208250000Y-123856250D03*
X209249999Y-122606250D03*
X210549999Y-122606250D03*
X211849999Y-122606250D03*
X213150001Y-122606250D03*
X214450001Y-122606250D03*
X215750001Y-122606250D03*
X216700000Y-122606250D03*
X208250000Y-122556250D03*
X209249999Y-121306250D03*
X210549999Y-121306250D03*
X211849999Y-121306250D03*
X213150001Y-121306250D03*
X214450001Y-121306250D03*
X215750001Y-121306250D03*
X216700000Y-121306250D03*
X208250000Y-121256250D03*
%TD*%
D10*
%TO.P,J2,1,Pin_1*%
%TO.N,+3.3V*%
X196510000Y-137986250D03*
D11*
%TO.P,J2,2,Pin_2*%
%TO.N,GNDD*%
X199050000Y-137986250D03*
%TO.P,J2,3,Pin_3*%
%TO.N,/SLEEP_N_IN*%
X201590000Y-137986250D03*
%TO.P,J2,4,Pin_4*%
%TO.N,/RESET*%
X204130000Y-137986250D03*
%TO.P,J2,5,Pin_5*%
%TO.N,/FAULT_N*%
X206670000Y-137986250D03*
%TO.P,J2,6,Pin_6*%
%TO.N,/AIN1*%
X209210000Y-137986250D03*
%TO.P,J2,7,Pin_7*%
%TO.N,/AIN2*%
X211750000Y-137986250D03*
%TO.P,J2,8,Pin_8*%
%TO.N,/BIN1*%
X214290000Y-137986250D03*
%TO.P,J2,9,Pin_9*%
%TO.N,/BIN2*%
X216830000Y-137986250D03*
%TD*%
D12*
%TO.P,J5,1,1*%
%TO.N,/MB2*%
X230700000Y-97750000D03*
X230700000Y-96425000D03*
X230650000Y-100550000D03*
X230650000Y-99225000D03*
X230250000Y-97050000D03*
X230250000Y-95725000D03*
X230200000Y-99850000D03*
X230200000Y-98525000D03*
D13*
X229980000Y-93500000D03*
D12*
X229800000Y-97750000D03*
X229800000Y-96425000D03*
X229750000Y-100550000D03*
X229750000Y-99225000D03*
X229300000Y-97050000D03*
X229300000Y-95725000D03*
X229250000Y-99850000D03*
X229250000Y-98525000D03*
X228800000Y-97750000D03*
X228800000Y-96425000D03*
X228750000Y-100550000D03*
X228750000Y-99225000D03*
X228300000Y-97050000D03*
X228300000Y-95725000D03*
X228250000Y-99850000D03*
X228250000Y-98525000D03*
X227800000Y-97725000D03*
X227750000Y-100525000D03*
X227750000Y-99200000D03*
X227250000Y-99825000D03*
X227250000Y-98500000D03*
D13*
X226780000Y-96750000D03*
D14*
X226780000Y-96750000D03*
D12*
X226750000Y-100525000D03*
X226750000Y-99200000D03*
X226250000Y-99825000D03*
X226250000Y-98500000D03*
X225750000Y-100525000D03*
X225750000Y-99200000D03*
X225550000Y-97750000D03*
X225300000Y-95700000D03*
X225250000Y-99825000D03*
X225250000Y-98500000D03*
X225150000Y-97050000D03*
X224800000Y-96400000D03*
X224750000Y-100525000D03*
X224750000Y-99200000D03*
X224650000Y-97750000D03*
X224300000Y-95700000D03*
X224250000Y-99825000D03*
X224250000Y-98500000D03*
X224250000Y-97025000D03*
X223800000Y-97725000D03*
X223800000Y-96400000D03*
X223750000Y-100525000D03*
X223750000Y-99200000D03*
D13*
X223480000Y-93500000D03*
D12*
X223300000Y-97025000D03*
X223300000Y-95700000D03*
X223250000Y-99825000D03*
X223250000Y-98500000D03*
X222800000Y-97725000D03*
X222800000Y-96400000D03*
X222750000Y-100525000D03*
X222750000Y-99200000D03*
%TO.P,J5,2,2*%
%TO.N,/MB1*%
X221200000Y-97600000D03*
X221200000Y-96275000D03*
X221150000Y-100400000D03*
X221150000Y-99075000D03*
X220750000Y-96900000D03*
X220750000Y-95575000D03*
X220700000Y-99700000D03*
X220700000Y-98375000D03*
D13*
X220480000Y-93500000D03*
D12*
X220300000Y-97600000D03*
X220300000Y-96275000D03*
X220250000Y-100400000D03*
X220250000Y-99075000D03*
X219800000Y-96900000D03*
X219800000Y-95575000D03*
X219750000Y-99700000D03*
X219750000Y-98375000D03*
X219300000Y-97600000D03*
X219300000Y-96275000D03*
X219250000Y-100400000D03*
X219250000Y-99075000D03*
X218800000Y-96900000D03*
X218800000Y-95575000D03*
X218750000Y-99700000D03*
X218750000Y-98375000D03*
X218300000Y-97575000D03*
X218250000Y-100375000D03*
X218250000Y-99050000D03*
X217750000Y-99675000D03*
X217750000Y-98350000D03*
D13*
X217260000Y-96750000D03*
D14*
X217260000Y-96750000D03*
D12*
X217250000Y-100375000D03*
X217250000Y-99050000D03*
X216750000Y-99675000D03*
X216750000Y-98350000D03*
X216250000Y-100375000D03*
X216250000Y-99050000D03*
X216050000Y-97600000D03*
X215800000Y-95550000D03*
X215750000Y-99675000D03*
X215750000Y-98350000D03*
X215650000Y-96900000D03*
X215300000Y-96250000D03*
X215250000Y-100375000D03*
X215250000Y-99050000D03*
X215150000Y-97600000D03*
X214800000Y-95550000D03*
X214750000Y-99675000D03*
X214750000Y-98350000D03*
X214750000Y-96875000D03*
X214300000Y-97575000D03*
X214300000Y-96250000D03*
X214250000Y-100375000D03*
X214250000Y-99050000D03*
D13*
X213980000Y-93500000D03*
D12*
X213800000Y-96875000D03*
X213800000Y-95550000D03*
X213750000Y-99675000D03*
X213750000Y-98350000D03*
X213300000Y-97575000D03*
X213300000Y-96250000D03*
X213250000Y-100375000D03*
X213250000Y-99050000D03*
%TO.P,J5,3,3*%
%TO.N,/MA2*%
X211650000Y-97600000D03*
X211650000Y-96275000D03*
X211600000Y-100400000D03*
X211600000Y-99075000D03*
X211300000Y-96900000D03*
X211300000Y-95575000D03*
X211250000Y-99700000D03*
X211250000Y-98375000D03*
D13*
X210980000Y-93750000D03*
D12*
X210850000Y-97600000D03*
X210850000Y-96275000D03*
X210800000Y-100400000D03*
X210800000Y-99075000D03*
X210350000Y-96900000D03*
X210350000Y-95575000D03*
X210300000Y-99700000D03*
X210300000Y-98375000D03*
X209850000Y-97600000D03*
X209850000Y-96275000D03*
X209800000Y-100400000D03*
X209800000Y-99075000D03*
X209350000Y-96900000D03*
X209350000Y-95575000D03*
X209300000Y-99700000D03*
X209300000Y-98375000D03*
X208850000Y-97575000D03*
X208800000Y-100375000D03*
X208800000Y-99050000D03*
X208300000Y-99675000D03*
X208300000Y-98350000D03*
X207800000Y-100375000D03*
X207800000Y-99050000D03*
D13*
X207740000Y-96750000D03*
D14*
X207740000Y-96750000D03*
D12*
X207300000Y-99675000D03*
X207300000Y-98350000D03*
X206800000Y-100375000D03*
X206800000Y-99050000D03*
X206600000Y-97600000D03*
X206350000Y-95550000D03*
X206300000Y-99675000D03*
X206300000Y-98350000D03*
X206200000Y-96900000D03*
X205850000Y-96250000D03*
X205800000Y-100375000D03*
X205800000Y-99050000D03*
X205700000Y-97600000D03*
X205350000Y-95550000D03*
X205300000Y-99675000D03*
X205300000Y-98350000D03*
X205300000Y-96875000D03*
X204850000Y-97575000D03*
X204850000Y-96250000D03*
X204800000Y-100375000D03*
X204800000Y-99050000D03*
D13*
X204480000Y-93750000D03*
D12*
X204350000Y-96875000D03*
X204350000Y-95550000D03*
X204300000Y-99675000D03*
X204300000Y-98350000D03*
X203850000Y-97575000D03*
X203850000Y-96250000D03*
X203800000Y-100375000D03*
X203800000Y-99050000D03*
%TO.P,J5,4,4*%
%TO.N,/MA1*%
X202150000Y-97550000D03*
X202150000Y-96225000D03*
X202100000Y-100350000D03*
X202100000Y-99025000D03*
X201750000Y-96825000D03*
X201750000Y-95500000D03*
X201700000Y-99625000D03*
X201700000Y-98300000D03*
D13*
X201480000Y-93750000D03*
D12*
X201300000Y-97525000D03*
X201300000Y-96200000D03*
X201250000Y-100325000D03*
X201250000Y-99000000D03*
X200800000Y-96825000D03*
X200800000Y-95500000D03*
X200750000Y-99625000D03*
X200750000Y-98300000D03*
X200300000Y-97525000D03*
X200300000Y-96200000D03*
X200250000Y-100325000D03*
X200250000Y-99000000D03*
X199800000Y-96825000D03*
X199800000Y-95500000D03*
X199750000Y-99625000D03*
X199750000Y-98300000D03*
X199300000Y-97500000D03*
X199250000Y-100300000D03*
X199250000Y-98975000D03*
X198750000Y-99600000D03*
X198750000Y-98275000D03*
X198250000Y-100300000D03*
X198250000Y-98975000D03*
D13*
X198220000Y-96750000D03*
D14*
X198220000Y-96750000D03*
D12*
X197750000Y-99600000D03*
X197750000Y-98275000D03*
X197250000Y-100300000D03*
X197250000Y-98975000D03*
X197050000Y-97525000D03*
X196800000Y-95475000D03*
X196750000Y-99600000D03*
X196750000Y-98275000D03*
X196650000Y-96825000D03*
X196300000Y-96175000D03*
X196250000Y-100300000D03*
X196250000Y-98975000D03*
X196150000Y-97525000D03*
X195800000Y-95475000D03*
X195750000Y-99600000D03*
X195750000Y-98275000D03*
X195750000Y-96800000D03*
X195300000Y-97500000D03*
X195300000Y-96175000D03*
X195250000Y-100300000D03*
X195250000Y-98975000D03*
D13*
X194980000Y-93750000D03*
D12*
X194800000Y-96800000D03*
X194800000Y-95475000D03*
X194750000Y-99600000D03*
X194750000Y-98275000D03*
X194300000Y-97500000D03*
X194300000Y-96175000D03*
X194250000Y-100300000D03*
X194250000Y-98975000D03*
%TD*%
%TO.P,J3,1,1*%
%TO.N,VBUS*%
X182300000Y-99106250D03*
X186400000Y-99156250D03*
X185075000Y-99156250D03*
X183650000Y-99156250D03*
X182900000Y-99556250D03*
X181575000Y-99556250D03*
X185700000Y-99606250D03*
X184375000Y-99606250D03*
D13*
X179250000Y-99906250D03*
D12*
X183600000Y-100006250D03*
X182275000Y-100006250D03*
X186400000Y-100056250D03*
X185075000Y-100056250D03*
X182900000Y-100506250D03*
X181575000Y-100506250D03*
X185700000Y-100556250D03*
X184375000Y-100556250D03*
X183600000Y-101006250D03*
X182275000Y-101006250D03*
X186400000Y-101056250D03*
X185075000Y-101056250D03*
X182900000Y-101506250D03*
X181575000Y-101506250D03*
X185700000Y-101556250D03*
X184375000Y-101556250D03*
X183575000Y-102006250D03*
X186375000Y-102056250D03*
X185050000Y-102056250D03*
X185675000Y-102556250D03*
X184350000Y-102556250D03*
X186375000Y-103056250D03*
X185050000Y-103056250D03*
D13*
X182500000Y-103106250D03*
D14*
X182500000Y-103106250D03*
D12*
X185675000Y-103556250D03*
X184350000Y-103556250D03*
X186375000Y-104056250D03*
X185050000Y-104056250D03*
X183600000Y-104256250D03*
X181550000Y-104506250D03*
X185675000Y-104556250D03*
X184350000Y-104556250D03*
X182900000Y-104656250D03*
X182250000Y-105006250D03*
X186375000Y-105056250D03*
X185050000Y-105056250D03*
X183600000Y-105156250D03*
X181550000Y-105506250D03*
X185675000Y-105556250D03*
X184350000Y-105556250D03*
X182875000Y-105556250D03*
X183575000Y-106006250D03*
X182250000Y-106006250D03*
X186375000Y-106056250D03*
X185050000Y-106056250D03*
D13*
X179250000Y-106406250D03*
D12*
X182875000Y-106506250D03*
X181550000Y-106506250D03*
X185675000Y-106556250D03*
X184350000Y-106556250D03*
X183575000Y-107006250D03*
X182250000Y-107006250D03*
X186375000Y-107056250D03*
X185050000Y-107056250D03*
%TD*%
D15*
%TO.N,+5V*%
X210390955Y-127207574D03*
X205250000Y-128106250D03*
%TO.N,GND*%
X187750000Y-126500000D03*
X223500000Y-126750000D03*
X189250000Y-138750000D03*
X220000000Y-124250000D03*
X243000000Y-126856250D03*
X190500000Y-134750000D03*
X196000000Y-124250000D03*
X237250000Y-137500000D03*
X231750000Y-134500000D03*
X187750000Y-134750000D03*
X215674265Y-116424265D03*
X190500000Y-130750000D03*
X226250000Y-134500000D03*
X219750000Y-121750000D03*
X193250000Y-126500000D03*
X226250000Y-125500000D03*
X203750000Y-120000000D03*
X226250000Y-126750000D03*
X198750000Y-134750000D03*
X245750000Y-126856250D03*
X190500000Y-124250000D03*
X187750000Y-122000000D03*
X190500000Y-126500000D03*
X223500000Y-131250000D03*
X229000000Y-129000000D03*
X225000000Y-121750000D03*
X229000000Y-126750000D03*
X218000000Y-121750000D03*
X187750000Y-130750000D03*
X223500000Y-134500000D03*
X243000000Y-131106250D03*
X245750000Y-116000000D03*
X207250000Y-118606250D03*
X240500000Y-121856250D03*
X229000000Y-131250000D03*
X231750000Y-137500000D03*
X200750000Y-121750000D03*
X245750000Y-131106250D03*
X221750000Y-124250000D03*
X245750000Y-119606250D03*
X226250000Y-124250000D03*
X198750000Y-126500000D03*
X187750000Y-128500000D03*
X237250000Y-134500000D03*
X190500000Y-119750000D03*
X240500000Y-134500000D03*
X187750000Y-124250000D03*
X229000000Y-134500000D03*
X240500000Y-116000000D03*
X229000000Y-137500000D03*
X226250000Y-137500000D03*
X193250000Y-124250000D03*
X227625000Y-125500000D03*
X193250000Y-137000000D03*
X205500000Y-124250000D03*
X234750000Y-137500000D03*
X223500000Y-120750000D03*
X218000000Y-120000000D03*
X205000000Y-133000000D03*
X190500000Y-122000000D03*
X221750000Y-120000000D03*
X207000000Y-120000000D03*
X245750000Y-124356250D03*
X196000000Y-134750000D03*
X240500000Y-131106250D03*
X245750000Y-129106250D03*
X190500000Y-116000000D03*
X240500000Y-129106250D03*
X243000000Y-129106250D03*
X243000000Y-111856250D03*
X202250000Y-121000000D03*
X240500000Y-113856250D03*
X207000000Y-124250000D03*
X240500000Y-124356250D03*
X205500000Y-120000000D03*
X243000000Y-113856250D03*
X190500000Y-137000000D03*
X226250000Y-131250000D03*
X197375000Y-125375000D03*
X223500000Y-129000000D03*
X240500000Y-119606250D03*
X240500000Y-126856250D03*
X201500000Y-124250000D03*
X217750000Y-118750000D03*
X203750000Y-121750000D03*
X193250000Y-134750000D03*
X203750000Y-124250000D03*
X243000000Y-121856250D03*
X219750000Y-120000000D03*
X196000000Y-128500000D03*
X229000000Y-124250000D03*
X245750000Y-113856250D03*
X218000000Y-124250000D03*
X197375000Y-124250000D03*
X192000000Y-138750000D03*
X187750000Y-119750000D03*
X240500000Y-137500000D03*
X196000000Y-126500000D03*
X210000000Y-130000000D03*
X198750000Y-125375000D03*
X209600000Y-127500000D03*
X196000000Y-130750000D03*
X243000000Y-116000000D03*
X243000000Y-124356250D03*
X193250000Y-128500000D03*
X223500000Y-124250000D03*
X245750000Y-137500000D03*
X243000000Y-137500000D03*
X198750000Y-128500000D03*
X190500000Y-128500000D03*
X207000000Y-121750000D03*
X229000000Y-125500000D03*
X198750000Y-124250000D03*
X212500000Y-115250000D03*
X201500000Y-130750000D03*
X193250000Y-116000000D03*
X203750000Y-130750000D03*
X201500000Y-128500000D03*
X205500000Y-121750000D03*
X234750000Y-134500000D03*
X221750000Y-121750000D03*
X187750000Y-116000000D03*
X245750000Y-134500000D03*
X243000000Y-119606250D03*
X226250000Y-129000000D03*
X243000000Y-134500000D03*
X193250000Y-130750000D03*
X187750000Y-137000000D03*
X227625000Y-126750000D03*
X245750000Y-122000000D03*
X193250000Y-122000000D03*
X245750000Y-111856250D03*
X197350000Y-126500000D03*
X198750000Y-130750000D03*
X240500000Y-111856250D03*
X210175400Y-117250000D03*
X227625000Y-124250000D03*
X196000000Y-125375000D03*
%TO.N,VBUS*%
X190250000Y-111606250D03*
X182000000Y-111000000D03*
X231750000Y-111856250D03*
X234750000Y-124250000D03*
X182000000Y-124250000D03*
X187750000Y-104106250D03*
X231750000Y-131106250D03*
X215132267Y-111312021D03*
X184750000Y-113500000D03*
X208250000Y-112000000D03*
X214632267Y-112062021D03*
X234750000Y-121856250D03*
X182000000Y-126500000D03*
X214132267Y-111312021D03*
X184750000Y-137000000D03*
X237250000Y-111856250D03*
X208750000Y-111356250D03*
X212500000Y-111356250D03*
X212500000Y-107393750D03*
X234750000Y-126750000D03*
X217132267Y-112705771D03*
X214132267Y-112705771D03*
X237250000Y-129106250D03*
X193250000Y-111606250D03*
X187750000Y-110856250D03*
X231750000Y-129106250D03*
X184750000Y-134750000D03*
X234750000Y-131106250D03*
X231750000Y-116000000D03*
X237250000Y-113856250D03*
X234750000Y-111856250D03*
X237250000Y-116000000D03*
X212500000Y-110393750D03*
X212500000Y-109393750D03*
X187750000Y-107356250D03*
X184750000Y-122000000D03*
X215632267Y-112062021D03*
X184750000Y-111000000D03*
X234750000Y-116000000D03*
X184750000Y-119750000D03*
X237250000Y-119606250D03*
X182000000Y-116000000D03*
X182000000Y-130750000D03*
X231750000Y-113856250D03*
X184750000Y-130750000D03*
X182000000Y-134750000D03*
X231750000Y-126750000D03*
X209750000Y-112750000D03*
X237250000Y-131100000D03*
X179250000Y-137000000D03*
X179250000Y-119750000D03*
X207750000Y-111356250D03*
X212500000Y-106500000D03*
X210750000Y-111356250D03*
X209250000Y-112000000D03*
X182000000Y-137000000D03*
X206750000Y-131000000D03*
X207750000Y-112750000D03*
X182000000Y-113500000D03*
X184750000Y-126500000D03*
X216132267Y-111312021D03*
X234750000Y-113856250D03*
X179250000Y-124250000D03*
X231750000Y-121856250D03*
X208750000Y-112750000D03*
X216132267Y-112705771D03*
X179250000Y-122000000D03*
X182000000Y-128500000D03*
X179250000Y-130750000D03*
X179250000Y-116000000D03*
X237250000Y-124356250D03*
X179250000Y-128500000D03*
X184750000Y-116000000D03*
X215132267Y-112705771D03*
X217132267Y-111312021D03*
X212500000Y-112750000D03*
X210250000Y-112000000D03*
X212500000Y-108393750D03*
X231750000Y-119606250D03*
X211250000Y-112000000D03*
X182000000Y-119750000D03*
X179250000Y-113500000D03*
X210750000Y-112750000D03*
X184750000Y-128500000D03*
X179250000Y-111000000D03*
X182000000Y-122000000D03*
X209750000Y-111356250D03*
X237250000Y-126856250D03*
X231750000Y-124250000D03*
X179250000Y-126500000D03*
X179250000Y-134750000D03*
X234750000Y-129106250D03*
X216632267Y-112062021D03*
X234750000Y-119606250D03*
X237250000Y-121856250D03*
X184750000Y-124250000D03*
X213632267Y-112062021D03*
%TO.N,/SDO*%
X212800000Y-142356250D03*
X223000000Y-138606250D03*
X212800000Y-143750000D03*
X223000000Y-142356250D03*
%TO.N,/SDI*%
X211800000Y-143750000D03*
X220500000Y-138606250D03*
X220500000Y-141606250D03*
X233820369Y-143176619D03*
X233250000Y-141606250D03*
X211800000Y-141606250D03*
%TO.N,/SCS*%
X214000000Y-146106250D03*
X221750000Y-138606250D03*
%TO.N,/SCLK*%
X219250000Y-138606250D03*
X227250000Y-140856250D03*
X210800000Y-140856250D03*
X210800000Y-143750000D03*
X228000000Y-143106250D03*
X219250000Y-140856250D03*
%TO.N,/FAULT_N*%
X216750000Y-126856250D03*
%TO.N,/RESET*%
X211999998Y-131500000D03*
X207500000Y-136106250D03*
X217750000Y-130750000D03*
%TO.N,GNDA*%
X243500000Y-147356250D03*
X194500000Y-157606250D03*
D16*
X240750000Y-147750000D03*
D15*
X184750000Y-147606250D03*
X189500000Y-157606250D03*
D17*
X226750000Y-153606250D03*
D15*
X233500000Y-157356250D03*
X243500000Y-151856250D03*
X191250000Y-155606250D03*
X187000000Y-156606250D03*
D16*
X188500000Y-149000000D03*
D15*
X191750000Y-157606250D03*
X203500000Y-148106250D03*
X228000000Y-157356250D03*
X234250000Y-154750000D03*
X220000000Y-148356250D03*
X238750000Y-151606250D03*
X206250000Y-147856250D03*
X235000000Y-152106250D03*
X226095369Y-148733705D03*
X231000000Y-157356250D03*
X238500000Y-148106250D03*
D16*
X201000000Y-149000000D03*
D15*
X238250000Y-157356250D03*
D16*
X223500000Y-149000000D03*
X220250000Y-151250000D03*
D15*
X199750000Y-152856250D03*
X191137500Y-148731253D03*
D17*
X204250000Y-154856250D03*
D15*
X191750000Y-151856250D03*
X199000000Y-157106250D03*
X179250000Y-147606250D03*
D16*
X230750000Y-149250000D03*
D15*
X179250000Y-151606250D03*
X236000000Y-157356250D03*
%TO.N,+3.3V*%
X218250000Y-133500000D03*
X207500000Y-146856250D03*
X242250000Y-146633702D03*
X207500000Y-145106250D03*
X242250000Y-145133702D03*
%TO.N,GNDD*%
X226718076Y-147378636D03*
X243500000Y-145106250D03*
X219250000Y-156856250D03*
X231000000Y-143856250D03*
X221750000Y-133500000D03*
X220500000Y-127500000D03*
X225750000Y-147500000D03*
X214000000Y-144500000D03*
X219750000Y-144000000D03*
X188500000Y-140856250D03*
X179250000Y-145106250D03*
X231000000Y-140856250D03*
X205500000Y-143856250D03*
X196250000Y-141750000D03*
X212000000Y-156856250D03*
X207250000Y-156856250D03*
X223750000Y-156856250D03*
X209500000Y-152106250D03*
X179250000Y-141106250D03*
X209750000Y-156856250D03*
X225750000Y-144000000D03*
X218000000Y-153106250D03*
X191000000Y-147750000D03*
X203500000Y-136100000D03*
X191760207Y-147376184D03*
X221500000Y-156856250D03*
X209500000Y-145106250D03*
X217000000Y-127750000D03*
X209500000Y-148356250D03*
X239500000Y-141606250D03*
X243750000Y-140856250D03*
X212250000Y-134250000D03*
X211750000Y-132750000D03*
X216500000Y-156856250D03*
X217750000Y-132000000D03*
%TO.N,/A1HS*%
X208000000Y-116856250D03*
X194750000Y-114356250D03*
%TO.N,/A1LS*%
X200250000Y-113606250D03*
X208500000Y-116206250D03*
%TO.N,/A2HS*%
X207000000Y-113856250D03*
X211250000Y-114606250D03*
%TO.N,/A2LS*%
X205155000Y-113606250D03*
X210000000Y-114606250D03*
%TO.N,/B1HS*%
X213750000Y-114606250D03*
X217750000Y-113856250D03*
%TO.N,/B1LS*%
X223750000Y-114250000D03*
X214428125Y-117428125D03*
%TO.N,/B2LS*%
X229250000Y-114106250D03*
X216609578Y-116376809D03*
%TO.N,/AOUT1*%
X195481671Y-116069593D03*
X207500000Y-117606250D03*
%TO.N,/BOUT2*%
X229812500Y-115668750D03*
X218750000Y-116856250D03*
%TO.N,/B2HS*%
X229875000Y-116981250D03*
X216750000Y-117500000D03*
%TO.N,/AOUT2*%
X206000000Y-114750000D03*
X211850000Y-117400000D03*
%TO.N,/BOUT1*%
X213100000Y-117420000D03*
X218250000Y-114606250D03*
%TO.N,/CS_T1*%
X215200000Y-143750000D03*
X214250000Y-140106250D03*
%TO.N,/CS_T2*%
X217000000Y-143092341D03*
X216200000Y-144500000D03*
%TO.N,/DRDY_N_T2*%
X218500000Y-140106250D03*
X218200000Y-143856250D03*
%TO.N,/R0P_T1*%
X195387500Y-155468750D03*
X196750000Y-157606250D03*
%TO.N,/R0P_T2*%
X237370000Y-155736250D03*
X229500000Y-154633702D03*
%TD*%
D18*
%TO.N,/CS_T2*%
X216200000Y-144500000D02*
X216200000Y-143892341D01*
X216200000Y-143892341D02*
X217000000Y-143092341D01*
%TO.N,/CS_T1*%
X215200000Y-143750000D02*
X215250000Y-143700000D01*
X215250000Y-143700000D02*
X215250000Y-141106250D01*
X215250000Y-141106250D02*
X214250000Y-140106250D01*
%TO.N,/DRDY_N_T2*%
X218500000Y-140106250D02*
X218500000Y-140231250D01*
X218500000Y-140231250D02*
X218200000Y-140531250D01*
X218200000Y-140531250D02*
X218200000Y-143856250D01*
%TO.N,+5V*%
X210390955Y-127775179D02*
X210390955Y-127207574D01*
X210059884Y-128106250D02*
X210390955Y-127775179D01*
X205250000Y-128106250D02*
X210059884Y-128106250D01*
%TO.N,VBUS*%
X206750000Y-131000000D02*
X206750000Y-132750000D01*
X185500000Y-137750000D02*
X184750000Y-137000000D01*
X206750000Y-132750000D02*
X205375000Y-134125000D01*
X205375000Y-134125000D02*
X201750000Y-134125000D01*
X191750000Y-137650057D02*
X191750000Y-137750000D01*
X191750000Y-137750000D02*
X185500000Y-137750000D01*
X199625000Y-136250000D02*
X193150057Y-136250000D01*
X193150057Y-136250000D02*
X191750000Y-137650057D01*
X201750000Y-134125000D02*
X199625000Y-136250000D01*
%TO.N,/SDO*%
X212800000Y-142356250D02*
X212800000Y-143750000D01*
X223000000Y-142356250D02*
X223000000Y-138606250D01*
%TO.N,/SDI*%
X233250000Y-141606250D02*
X233820369Y-142176619D01*
X233820369Y-142176619D02*
X233820369Y-143176619D01*
X211800000Y-141606250D02*
X211800000Y-143750000D01*
X220500000Y-141606250D02*
X220500000Y-138606250D01*
%TO.N,/SCS*%
X215000000Y-145106250D02*
X214000000Y-146106250D01*
X221750000Y-143856250D02*
X221750000Y-138606250D01*
X220500000Y-145106250D02*
X221750000Y-143856250D01*
X215000000Y-145106250D02*
X220500000Y-145106250D01*
%TO.N,/SCLK*%
X228000000Y-143106250D02*
X228000000Y-141606250D01*
X210800000Y-140856250D02*
X210800000Y-143750000D01*
X219250000Y-140856250D02*
X219250000Y-138606250D01*
X228000000Y-141606250D02*
X227250000Y-140856250D01*
%TO.N,/FAULT_N*%
X206670000Y-135830000D02*
X206670000Y-137986250D01*
X216750000Y-126856250D02*
X216549998Y-126856250D01*
X215650332Y-126849668D02*
X206670000Y-135830000D01*
X216543416Y-126849668D02*
X215650332Y-126849668D01*
%TO.N,/RESET*%
X216500000Y-131500000D02*
X211999998Y-131500000D01*
X217750000Y-130750000D02*
X217250000Y-130750000D01*
X207500000Y-136106250D02*
X207500000Y-136000000D01*
X217250000Y-130750000D02*
X216500000Y-131500000D01*
X207500000Y-136000000D02*
X211999998Y-131500000D01*
X204130000Y-137986250D02*
X204000000Y-137856250D01*
D19*
%TO.N,GNDA*%
X204499000Y-154607250D02*
X204250000Y-154856250D01*
X225749000Y-154607250D02*
X204499000Y-154607250D01*
X226750000Y-153606250D02*
X225749000Y-154607250D01*
D18*
%TO.N,+3.3V*%
X223750000Y-139250000D02*
X224606250Y-140106250D01*
D20*
X201710000Y-154646250D02*
X204500000Y-151856250D01*
X201710000Y-158856250D02*
X201710000Y-154646250D01*
D18*
X218250000Y-133500000D02*
X219750000Y-133500000D01*
D20*
X240250000Y-150356250D02*
X242250000Y-148356250D01*
D18*
X224606250Y-140106250D02*
X240250000Y-140106250D01*
X242250000Y-142106250D02*
X242250000Y-145133702D01*
X223750000Y-137500000D02*
X223750000Y-139250000D01*
D20*
X206250000Y-151856250D02*
X207500000Y-150606250D01*
X207500000Y-150606250D02*
X207500000Y-150356250D01*
X196510000Y-139116250D02*
X196510000Y-137986250D01*
D18*
X240250000Y-140106250D02*
X242250000Y-142106250D01*
D20*
X206000000Y-139356250D02*
X196750000Y-139356250D01*
X207500000Y-145106250D02*
X207500000Y-142106250D01*
X207500000Y-146856250D02*
X207500000Y-145106250D01*
X207500000Y-150356250D02*
X207500000Y-146856250D01*
X204500000Y-151856250D02*
X206250000Y-151856250D01*
X242250000Y-146633702D02*
X242250000Y-145133702D01*
D18*
X219750000Y-133500000D02*
X223750000Y-137500000D01*
D20*
X207500000Y-140856250D02*
X206000000Y-139356250D01*
X207500000Y-150356250D02*
X240250000Y-150356250D01*
X242250000Y-148356250D02*
X242250000Y-146633702D01*
X196750000Y-139356250D02*
X196510000Y-139116250D01*
X207500000Y-140856250D02*
X207500000Y-142106250D01*
D18*
%TO.N,/A1HS*%
X202250000Y-116856250D02*
X200250000Y-114856250D01*
X200250000Y-114856250D02*
X195250000Y-114856250D01*
X208000000Y-116856250D02*
X202250000Y-116856250D01*
X195250000Y-114856250D02*
X194750000Y-114356250D01*
%TO.N,/A1LS*%
X208400000Y-116106250D02*
X202750000Y-116106250D01*
X202750000Y-116106250D02*
X200250000Y-113606250D01*
X208500000Y-116206250D02*
X208400000Y-116106250D01*
%TO.N,/A2HS*%
X207000000Y-113856250D02*
X210500000Y-113856250D01*
X210500000Y-113856250D02*
X211250000Y-114606250D01*
%TO.N,/A2LS*%
X205405000Y-113856250D02*
X205155000Y-113606250D01*
X206750000Y-114606250D02*
X206000000Y-113856250D01*
X206000000Y-113856250D02*
X205405000Y-113856250D01*
X210000000Y-114606250D02*
X206750000Y-114606250D01*
%TO.N,/B1HS*%
X214500000Y-113856250D02*
X213750000Y-114606250D01*
X217750000Y-113856250D02*
X214500000Y-113856250D01*
%TO.N,/B1LS*%
X223750000Y-114606250D02*
X223000000Y-115356250D01*
X215143750Y-115356250D02*
X214428125Y-116071875D01*
X214428125Y-116071875D02*
X214428125Y-117428125D01*
X223000000Y-115356250D02*
X215143750Y-115356250D01*
X223750000Y-114250000D02*
X223750000Y-114606250D01*
%TO.N,/B2LS*%
X216729441Y-116376809D02*
X216609578Y-116376809D01*
X226250000Y-114106250D02*
X224250000Y-116106250D01*
X224250000Y-116106250D02*
X217000000Y-116106250D01*
X229250000Y-114106250D02*
X226250000Y-114106250D01*
X217000000Y-116106250D02*
X216729441Y-116376809D01*
%TO.N,/AOUT1*%
X196018328Y-116606250D02*
X195481671Y-116069593D01*
X200750000Y-116606250D02*
X196018328Y-116606250D01*
X200750000Y-116606250D02*
X201737800Y-117594050D01*
X195481671Y-116069593D02*
X195536657Y-116069593D01*
X207500000Y-117606250D02*
X201750000Y-117606250D01*
%TO.N,/BOUT2*%
X228625000Y-116856250D02*
X229812500Y-115668750D01*
X218750000Y-116856250D02*
X228625000Y-116856250D01*
%TO.N,/B2HS*%
X216750000Y-117500000D02*
X229356250Y-117500000D01*
X229356250Y-117500000D02*
X229875000Y-116981250D01*
%TO.N,/AOUT2*%
X211793750Y-117400000D02*
X211850000Y-117400000D01*
X206606250Y-115356250D02*
X209750000Y-115356250D01*
X209750000Y-115356250D02*
X211793750Y-117400000D01*
X206000000Y-114750000D02*
X206606250Y-115356250D01*
%TO.N,/BOUT1*%
X214643750Y-114606250D02*
X213100000Y-116150000D01*
X218250000Y-114606250D02*
X214643750Y-114606250D01*
X213100000Y-116150000D02*
X213100000Y-117420000D01*
X213099000Y-117428125D02*
X213178125Y-117428125D01*
%TO.N,/R0P_T1*%
X195387500Y-156243750D02*
X196750000Y-157606250D01*
X195387500Y-155468750D02*
X195387500Y-156243750D01*
%TO.N,/R0P_T2*%
X229222548Y-154633702D02*
X229500000Y-154633702D01*
X237370000Y-155736250D02*
X237357480Y-155748770D01*
X229000000Y-154856250D02*
X229222548Y-154633702D01*
X229000000Y-155481250D02*
X229000000Y-154856250D01*
X237357480Y-155748770D02*
X229267520Y-155748770D01*
X229267520Y-155748770D02*
X229000000Y-155481250D01*
%TD*%
%TA.AperFunction,Conductor*%
%TO.N,GNDA*%
G36*
X246571177Y-146681435D02*
G01*
X246591819Y-146698069D01*
X246963181Y-147069431D01*
X246996666Y-147130754D01*
X246999500Y-147157112D01*
X246999500Y-151805388D01*
X246979815Y-151872427D01*
X246963181Y-151893069D01*
X246536319Y-152319931D01*
X246474996Y-152353416D01*
X246448638Y-152356250D01*
X241999999Y-152356250D01*
X239250000Y-155106249D01*
X239250000Y-159804888D01*
X239230315Y-159871927D01*
X239213681Y-159892569D01*
X239036819Y-160069431D01*
X238975496Y-160102916D01*
X238949138Y-160105750D01*
X237968411Y-160105750D01*
X237901372Y-160086065D01*
X237855617Y-160033261D01*
X237845673Y-159964103D01*
X237874698Y-159900547D01*
X237912116Y-159871265D01*
X237972994Y-159840246D01*
X238119501Y-159733803D01*
X238247553Y-159605751D01*
X238353996Y-159459244D01*
X238436211Y-159297889D01*
X238492171Y-159125659D01*
X238506765Y-159033509D01*
X238520500Y-158946801D01*
X238520500Y-158765698D01*
X238503501Y-158658375D01*
X238492171Y-158586841D01*
X238436211Y-158414611D01*
X238436211Y-158414610D01*
X238407740Y-158358734D01*
X238353996Y-158253256D01*
X238267018Y-158133540D01*
X238247558Y-158106755D01*
X238247554Y-158106750D01*
X238119499Y-157978695D01*
X238119494Y-157978691D01*
X237972997Y-157872256D01*
X237972996Y-157872255D01*
X237972994Y-157872254D01*
X237896906Y-157833485D01*
X237811639Y-157790038D01*
X237811636Y-157790037D01*
X237639410Y-157734079D01*
X237460551Y-157705750D01*
X237460546Y-157705750D01*
X237279454Y-157705750D01*
X237279449Y-157705750D01*
X237100589Y-157734079D01*
X236928363Y-157790037D01*
X236928360Y-157790038D01*
X236767002Y-157872256D01*
X236620505Y-157978691D01*
X236620500Y-157978695D01*
X236492445Y-158106750D01*
X236492441Y-158106755D01*
X236386006Y-158253252D01*
X236303788Y-158414610D01*
X236303787Y-158414613D01*
X236247829Y-158586839D01*
X236222473Y-158746928D01*
X236192544Y-158810063D01*
X236133232Y-158846994D01*
X236063369Y-158845996D01*
X236005137Y-158807386D01*
X235977527Y-158746928D01*
X235963501Y-158658375D01*
X235952171Y-158586841D01*
X235896211Y-158414611D01*
X235896211Y-158414610D01*
X235867740Y-158358734D01*
X235813996Y-158253256D01*
X235727018Y-158133540D01*
X235707558Y-158106755D01*
X235707554Y-158106750D01*
X235579499Y-157978695D01*
X235579494Y-157978691D01*
X235432997Y-157872256D01*
X235432996Y-157872255D01*
X235432994Y-157872254D01*
X235356906Y-157833485D01*
X235271639Y-157790038D01*
X235271636Y-157790037D01*
X235099410Y-157734079D01*
X234920551Y-157705750D01*
X234920546Y-157705750D01*
X234739454Y-157705750D01*
X234739449Y-157705750D01*
X234560589Y-157734079D01*
X234388363Y-157790037D01*
X234388360Y-157790038D01*
X234227002Y-157872256D01*
X234080505Y-157978691D01*
X234080500Y-157978695D01*
X233952445Y-158106750D01*
X233952441Y-158106755D01*
X233846006Y-158253252D01*
X233763788Y-158414610D01*
X233763787Y-158414613D01*
X233707829Y-158586839D01*
X233682473Y-158746928D01*
X233652544Y-158810063D01*
X233593232Y-158846994D01*
X233523369Y-158845996D01*
X233465137Y-158807386D01*
X233437527Y-158746928D01*
X233423501Y-158658375D01*
X233412171Y-158586841D01*
X233356211Y-158414611D01*
X233356211Y-158414610D01*
X233327740Y-158358734D01*
X233273996Y-158253256D01*
X233187018Y-158133540D01*
X233167558Y-158106755D01*
X233167554Y-158106750D01*
X233039499Y-157978695D01*
X233039494Y-157978691D01*
X232892997Y-157872256D01*
X232892996Y-157872255D01*
X232892994Y-157872254D01*
X232816906Y-157833485D01*
X232731639Y-157790038D01*
X232731636Y-157790037D01*
X232559410Y-157734079D01*
X232380551Y-157705750D01*
X232380546Y-157705750D01*
X232199454Y-157705750D01*
X232199449Y-157705750D01*
X232020589Y-157734079D01*
X231848363Y-157790037D01*
X231848360Y-157790038D01*
X231687002Y-157872256D01*
X231540505Y-157978691D01*
X231540500Y-157978695D01*
X231412445Y-158106750D01*
X231412441Y-158106755D01*
X231306006Y-158253252D01*
X231223788Y-158414610D01*
X231223787Y-158414613D01*
X231167829Y-158586839D01*
X231146972Y-158718521D01*
X231117042Y-158781655D01*
X231057731Y-158818586D01*
X230987868Y-158817588D01*
X230929636Y-158778978D01*
X230901522Y-158715014D01*
X230900499Y-158699122D01*
X230900499Y-157961393D01*
X230900499Y-157961386D01*
X230900497Y-157961367D01*
X230897586Y-157936262D01*
X230897585Y-157936260D01*
X230897585Y-157936259D01*
X230852206Y-157833485D01*
X230772765Y-157754044D01*
X230772763Y-157754043D01*
X230669992Y-157708665D01*
X230644865Y-157705750D01*
X228855143Y-157705750D01*
X228855117Y-157705752D01*
X228830012Y-157708663D01*
X228830008Y-157708665D01*
X228727235Y-157754043D01*
X228647794Y-157833484D01*
X228602415Y-157936256D01*
X228602415Y-157936258D01*
X228599500Y-157961381D01*
X228599500Y-159751106D01*
X228599502Y-159751132D01*
X228602413Y-159776237D01*
X228602415Y-159776241D01*
X228647793Y-159879014D01*
X228662848Y-159894069D01*
X228696333Y-159955392D01*
X228691349Y-160025084D01*
X228649477Y-160081017D01*
X228584013Y-160105434D01*
X228575167Y-160105750D01*
X226929500Y-160105750D01*
X226862461Y-160086065D01*
X226816706Y-160033261D01*
X226805500Y-159981750D01*
X226805500Y-157230260D01*
X226805500Y-157230250D01*
X226798518Y-157165309D01*
X226787312Y-157113798D01*
X226776354Y-157075592D01*
X226719675Y-156978679D01*
X226673920Y-156925875D01*
X226673918Y-156925873D01*
X226673908Y-156925862D01*
X226629192Y-156883701D01*
X226629189Y-156883699D01*
X226629187Y-156883697D01*
X226529111Y-156832811D01*
X226529110Y-156832810D01*
X226529109Y-156832810D01*
X226462078Y-156813127D01*
X226462072Y-156813126D01*
X226376000Y-156800750D01*
X226375997Y-156800750D01*
X225424862Y-156800750D01*
X225357823Y-156781065D01*
X225338250Y-156765488D01*
X225306975Y-156734962D01*
X224271593Y-155724386D01*
X224271585Y-155724379D01*
X224271579Y-155724373D01*
X224271574Y-155724369D01*
X224248453Y-155703977D01*
X224248437Y-155703964D01*
X224228859Y-155688384D01*
X224224784Y-155685197D01*
X224224782Y-155685195D01*
X224124706Y-155634310D01*
X224057675Y-155614627D01*
X224057669Y-155614626D01*
X223971597Y-155602250D01*
X223759566Y-155602250D01*
X223692527Y-155582565D01*
X223672954Y-155566988D01*
X223608897Y-155504466D01*
X222890749Y-154803523D01*
X228599500Y-154803523D01*
X228599500Y-155533976D01*
X228626793Y-155635839D01*
X228652802Y-155680886D01*
X228679520Y-155727163D01*
X228947039Y-155994682D01*
X228947040Y-155994683D01*
X229021607Y-156069250D01*
X229112933Y-156121977D01*
X229214793Y-156149270D01*
X229320247Y-156149270D01*
X236882422Y-156149270D01*
X236949461Y-156168955D01*
X236970103Y-156185589D01*
X237001284Y-156216770D01*
X237001286Y-156216771D01*
X237001290Y-156216774D01*
X237076421Y-156260150D01*
X237138216Y-156295827D01*
X237290943Y-156336750D01*
X237290945Y-156336750D01*
X237449055Y-156336750D01*
X237449057Y-156336750D01*
X237601784Y-156295827D01*
X237738716Y-156216770D01*
X237850520Y-156104966D01*
X237929577Y-155968034D01*
X237970500Y-155815307D01*
X237970500Y-155657193D01*
X237929577Y-155504466D01*
X237885732Y-155428523D01*
X237850524Y-155367540D01*
X237850518Y-155367532D01*
X237738717Y-155255731D01*
X237738709Y-155255725D01*
X237601790Y-155176676D01*
X237601786Y-155176674D01*
X237601784Y-155176673D01*
X237449057Y-155135750D01*
X237290943Y-155135750D01*
X237138216Y-155176673D01*
X237138209Y-155176676D01*
X237001290Y-155255725D01*
X237001282Y-155255731D01*
X236945063Y-155311951D01*
X236883740Y-155345436D01*
X236857382Y-155348270D01*
X229926108Y-155348270D01*
X229859069Y-155328585D01*
X229813314Y-155275781D01*
X229803370Y-155206623D01*
X229832395Y-155143067D01*
X229864107Y-155116884D01*
X229868709Y-155114226D01*
X229868708Y-155114226D01*
X229868716Y-155114222D01*
X229980520Y-155002418D01*
X230059577Y-154865486D01*
X230100500Y-154712759D01*
X230100500Y-154554645D01*
X230059577Y-154401918D01*
X230005512Y-154308274D01*
X229980524Y-154264992D01*
X229980518Y-154264984D01*
X229868717Y-154153183D01*
X229868709Y-154153177D01*
X229731790Y-154074128D01*
X229731786Y-154074126D01*
X229731784Y-154074125D01*
X229579057Y-154033202D01*
X229420943Y-154033202D01*
X229268216Y-154074125D01*
X229268209Y-154074128D01*
X229131290Y-154153177D01*
X229131282Y-154153183D01*
X229019480Y-154264985D01*
X229015739Y-154271465D01*
X228981291Y-154305938D01*
X228983084Y-154308274D01*
X228976632Y-154313224D01*
X228679522Y-154610334D01*
X228679518Y-154610340D01*
X228626792Y-154701662D01*
X228626793Y-154701663D01*
X228599500Y-154803523D01*
X222890749Y-154803523D01*
X221489512Y-153435857D01*
X221455287Y-153374945D01*
X221455799Y-153317160D01*
X221474326Y-153242769D01*
X221474326Y-153242765D01*
X221474327Y-153242762D01*
X221475912Y-153216032D01*
X221478465Y-153173022D01*
X221475913Y-153111592D01*
X221439838Y-153005275D01*
X221405612Y-152944362D01*
X221352662Y-152875388D01*
X219592888Y-151157775D01*
X219577501Y-151130391D01*
X219560523Y-151103972D01*
X219559789Y-151098868D01*
X219558662Y-151096862D01*
X219555500Y-151069037D01*
X219555500Y-150980750D01*
X219575185Y-150913711D01*
X219627989Y-150867956D01*
X219679500Y-150856750D01*
X240315890Y-150856750D01*
X240315892Y-150856750D01*
X240443186Y-150822642D01*
X240557314Y-150756750D01*
X242650500Y-148663564D01*
X242716392Y-148549436D01*
X242750500Y-148422143D01*
X242750500Y-148290358D01*
X242750500Y-147001036D01*
X242759131Y-146955584D01*
X242762507Y-146947012D01*
X242809577Y-146865486D01*
X242841364Y-146746852D01*
X242843947Y-146740298D01*
X242861240Y-146718056D01*
X242875906Y-146693996D01*
X242882401Y-146690840D01*
X242886834Y-146685140D01*
X242913409Y-146675778D01*
X242938753Y-146663467D01*
X242951340Y-146662415D01*
X242952734Y-146661925D01*
X242953903Y-146662201D01*
X242959316Y-146661750D01*
X246504138Y-146661750D01*
X246571177Y-146681435D01*
G37*
%TD.AperFunction*%
%TA.AperFunction,Conductor*%
G36*
X241607723Y-146681435D02*
G01*
X241653478Y-146734239D01*
X241660457Y-146753652D01*
X241690423Y-146865486D01*
X241733497Y-146940092D01*
X241734072Y-146941135D01*
X241737089Y-146954718D01*
X241749500Y-147001036D01*
X241749500Y-148097574D01*
X241729815Y-148164613D01*
X241713181Y-148185255D01*
X240079005Y-149819431D01*
X240017682Y-149852916D01*
X239991324Y-149855750D01*
X219679500Y-149855750D01*
X219612461Y-149836065D01*
X219566706Y-149783261D01*
X219555500Y-149731750D01*
X219555500Y-146929500D01*
X219575185Y-146862461D01*
X219627989Y-146816706D01*
X219679500Y-146805500D01*
X223070500Y-146805500D01*
X223137539Y-146825185D01*
X223183294Y-146877989D01*
X223194500Y-146929500D01*
X223194500Y-147982250D01*
X223194501Y-147982259D01*
X223201481Y-148047185D01*
X223201483Y-148047197D01*
X223212688Y-148098703D01*
X223223644Y-148136904D01*
X223223646Y-148136908D01*
X223280323Y-148233818D01*
X223280325Y-148233821D01*
X223326081Y-148286626D01*
X223326091Y-148286637D01*
X223370807Y-148328798D01*
X223370809Y-148328799D01*
X223370813Y-148328803D01*
X223470889Y-148379689D01*
X223537928Y-148399374D01*
X223624000Y-148411750D01*
X223624003Y-148411750D01*
X235198639Y-148411750D01*
X235200559Y-148411647D01*
X235231297Y-148409999D01*
X235257655Y-148407165D01*
X235264660Y-148406330D01*
X235371407Y-148371547D01*
X235432730Y-148338062D01*
X235445099Y-148328803D01*
X235468342Y-148311402D01*
X235502340Y-148285952D01*
X236939774Y-146848516D01*
X236979992Y-146821644D01*
X237309543Y-146685140D01*
X237343224Y-146671189D01*
X237390676Y-146661750D01*
X241540684Y-146661750D01*
X241607723Y-146681435D01*
G37*
%TD.AperFunction*%
%TD*%
%TA.AperFunction,Conductor*%
%TO.N,GNDA*%
G36*
X188387539Y-146681435D02*
G01*
X188433294Y-146734239D01*
X188444500Y-146785750D01*
X188444500Y-148232250D01*
X188444501Y-148232259D01*
X188451481Y-148297185D01*
X188451483Y-148297197D01*
X188462688Y-148348703D01*
X188473644Y-148386904D01*
X188473646Y-148386908D01*
X188530323Y-148483818D01*
X188530325Y-148483821D01*
X188576081Y-148536626D01*
X188576091Y-148536637D01*
X188620807Y-148578798D01*
X188620809Y-148578799D01*
X188620813Y-148578803D01*
X188720889Y-148629689D01*
X188787928Y-148649374D01*
X188874000Y-148661750D01*
X188874003Y-148661750D01*
X190611906Y-148661750D01*
X190613826Y-148661647D01*
X190644564Y-148659999D01*
X190670922Y-148657165D01*
X190677927Y-148656330D01*
X190784674Y-148621547D01*
X190845997Y-148588062D01*
X190915609Y-148535951D01*
X190944826Y-148506731D01*
X190970499Y-148487031D01*
X191009498Y-148464516D01*
X191039399Y-148452132D01*
X191039407Y-148452130D01*
X191042822Y-148451214D01*
X191082894Y-148440478D01*
X191114986Y-148436253D01*
X191160014Y-148436253D01*
X191192106Y-148440478D01*
X191217075Y-148447168D01*
X191235595Y-148452130D01*
X191265499Y-148464516D01*
X191304497Y-148487031D01*
X191330178Y-148506737D01*
X191359393Y-148535952D01*
X191360156Y-148536637D01*
X191383726Y-148557809D01*
X191404407Y-148574474D01*
X191409905Y-148578801D01*
X191409908Y-148578803D01*
X191509984Y-148629689D01*
X191577023Y-148649374D01*
X191663095Y-148661750D01*
X191663098Y-148661750D01*
X199948639Y-148661750D01*
X199950559Y-148661647D01*
X199981297Y-148659999D01*
X200007655Y-148657165D01*
X200014660Y-148656330D01*
X200121407Y-148621547D01*
X200182730Y-148588062D01*
X200195099Y-148578803D01*
X200251425Y-148536637D01*
X200252340Y-148535952D01*
X201840222Y-146948068D01*
X201901545Y-146914584D01*
X201927903Y-146911750D01*
X206798040Y-146911750D01*
X206817311Y-146917408D01*
X206837383Y-146918157D01*
X206850150Y-146927051D01*
X206865079Y-146931435D01*
X206878230Y-146946612D01*
X206894713Y-146958095D01*
X206903928Y-146976269D01*
X206910834Y-146984239D01*
X206912675Y-146988476D01*
X206915734Y-146995894D01*
X206940423Y-147088034D01*
X206987000Y-147168709D01*
X206990135Y-147176310D01*
X206992293Y-147196690D01*
X206999500Y-147223584D01*
X206999500Y-150347574D01*
X206979815Y-150414613D01*
X206963181Y-150435255D01*
X206079005Y-151319431D01*
X206017682Y-151352916D01*
X205991324Y-151355750D01*
X204434108Y-151355750D01*
X204306812Y-151389858D01*
X204192686Y-151455750D01*
X204192683Y-151455752D01*
X201309502Y-154338933D01*
X201309500Y-154338936D01*
X201243608Y-154453062D01*
X201209500Y-154580358D01*
X201209500Y-156982250D01*
X201189815Y-157049289D01*
X201137011Y-157095044D01*
X201085500Y-157106250D01*
X200000000Y-157106250D01*
X200000000Y-159981750D01*
X199980315Y-160048789D01*
X199927511Y-160094544D01*
X199876000Y-160105750D01*
X196295911Y-160105750D01*
X196228872Y-160086065D01*
X196183117Y-160033261D01*
X196173173Y-159964103D01*
X196202198Y-159900547D01*
X196239616Y-159871265D01*
X196300494Y-159840246D01*
X196447001Y-159733803D01*
X196575053Y-159605751D01*
X196681496Y-159459244D01*
X196763711Y-159297889D01*
X196819671Y-159125659D01*
X196834265Y-159033509D01*
X196848000Y-158946801D01*
X196848000Y-158765698D01*
X196831001Y-158658374D01*
X196819671Y-158586841D01*
X196763711Y-158414611D01*
X196747891Y-158383562D01*
X196734995Y-158314892D01*
X196761272Y-158250152D01*
X196818378Y-158209895D01*
X196826283Y-158207492D01*
X196829052Y-158206750D01*
X196829057Y-158206750D01*
X196981784Y-158165827D01*
X197118716Y-158086770D01*
X197230520Y-157974966D01*
X197309577Y-157838034D01*
X197350500Y-157685307D01*
X197350500Y-157527193D01*
X197309577Y-157374466D01*
X197277518Y-157318938D01*
X197230524Y-157237540D01*
X197230518Y-157237532D01*
X197118717Y-157125731D01*
X197118709Y-157125725D01*
X196981790Y-157046676D01*
X196981786Y-157046674D01*
X196981784Y-157046673D01*
X196829057Y-157005750D01*
X196829056Y-157005750D01*
X196767255Y-157005750D01*
X196700216Y-156986065D01*
X196679574Y-156969431D01*
X195824319Y-156114176D01*
X195809615Y-156087248D01*
X195793023Y-156061430D01*
X195792131Y-156055229D01*
X195790834Y-156052853D01*
X195788000Y-156026495D01*
X195788000Y-155968848D01*
X195807685Y-155901809D01*
X195824319Y-155881167D01*
X195868020Y-155837466D01*
X195947077Y-155700534D01*
X195988000Y-155547807D01*
X195988000Y-155389693D01*
X195947077Y-155236966D01*
X195947073Y-155236959D01*
X195868024Y-155100040D01*
X195868018Y-155100032D01*
X195756217Y-154988231D01*
X195756209Y-154988225D01*
X195619290Y-154909176D01*
X195619286Y-154909174D01*
X195619284Y-154909173D01*
X195466557Y-154868250D01*
X195308443Y-154868250D01*
X195155716Y-154909173D01*
X195155709Y-154909176D01*
X195018790Y-154988225D01*
X195018782Y-154988231D01*
X194906981Y-155100032D01*
X194906975Y-155100040D01*
X194827926Y-155236959D01*
X194827923Y-155236966D01*
X194787000Y-155389693D01*
X194787000Y-155547807D01*
X194823814Y-155685197D01*
X194827923Y-155700533D01*
X194827926Y-155700540D01*
X194906975Y-155837459D01*
X194906981Y-155837467D01*
X194950681Y-155881167D01*
X194984166Y-155942490D01*
X194987000Y-155968848D01*
X194987000Y-156296476D01*
X195014293Y-156398339D01*
X195040656Y-156444000D01*
X195067020Y-156489663D01*
X195067022Y-156489665D01*
X196112039Y-157534682D01*
X196145524Y-157596005D01*
X196140540Y-157665697D01*
X196098668Y-157721630D01*
X196033204Y-157746047D01*
X195986043Y-157740295D01*
X195966910Y-157734079D01*
X195788051Y-157705750D01*
X195788046Y-157705750D01*
X195606954Y-157705750D01*
X195606949Y-157705750D01*
X195428089Y-157734079D01*
X195255863Y-157790037D01*
X195255860Y-157790038D01*
X195094502Y-157872256D01*
X194948005Y-157978691D01*
X194948000Y-157978695D01*
X194819945Y-158106750D01*
X194819941Y-158106755D01*
X194713506Y-158253252D01*
X194631288Y-158414610D01*
X194631287Y-158414613D01*
X194575329Y-158586839D01*
X194549973Y-158746928D01*
X194520044Y-158810063D01*
X194460732Y-158846994D01*
X194390869Y-158845996D01*
X194332637Y-158807386D01*
X194305027Y-158746928D01*
X194291001Y-158658374D01*
X194279671Y-158586841D01*
X194223711Y-158414611D01*
X194223711Y-158414610D01*
X194172901Y-158314892D01*
X194141496Y-158253256D01*
X194102091Y-158199019D01*
X194035058Y-158106755D01*
X194035054Y-158106750D01*
X193906999Y-157978695D01*
X193906994Y-157978691D01*
X193760497Y-157872256D01*
X193760496Y-157872255D01*
X193760494Y-157872254D01*
X193684406Y-157833485D01*
X193599139Y-157790038D01*
X193599136Y-157790037D01*
X193426910Y-157734079D01*
X193248051Y-157705750D01*
X193248046Y-157705750D01*
X193066954Y-157705750D01*
X193066949Y-157705750D01*
X192888089Y-157734079D01*
X192715863Y-157790037D01*
X192715860Y-157790038D01*
X192554502Y-157872256D01*
X192408005Y-157978691D01*
X192408000Y-157978695D01*
X192279945Y-158106750D01*
X192279941Y-158106755D01*
X192173506Y-158253252D01*
X192091288Y-158414610D01*
X192091287Y-158414613D01*
X192035329Y-158586839D01*
X192009973Y-158746928D01*
X191980044Y-158810063D01*
X191920732Y-158846994D01*
X191850869Y-158845996D01*
X191792637Y-158807386D01*
X191765027Y-158746928D01*
X191751001Y-158658374D01*
X191739671Y-158586841D01*
X191683711Y-158414611D01*
X191683711Y-158414610D01*
X191632901Y-158314892D01*
X191601496Y-158253256D01*
X191562091Y-158199019D01*
X191495058Y-158106755D01*
X191495054Y-158106750D01*
X191366999Y-157978695D01*
X191366994Y-157978691D01*
X191220497Y-157872256D01*
X191220496Y-157872255D01*
X191220494Y-157872254D01*
X191144406Y-157833485D01*
X191059139Y-157790038D01*
X191059136Y-157790037D01*
X190886910Y-157734079D01*
X190708051Y-157705750D01*
X190708046Y-157705750D01*
X190526954Y-157705750D01*
X190526949Y-157705750D01*
X190348089Y-157734079D01*
X190175863Y-157790037D01*
X190175860Y-157790038D01*
X190014502Y-157872256D01*
X189868005Y-157978691D01*
X189868000Y-157978695D01*
X189739945Y-158106750D01*
X189739941Y-158106755D01*
X189633506Y-158253252D01*
X189551288Y-158414610D01*
X189551287Y-158414613D01*
X189495329Y-158586839D01*
X189474472Y-158718521D01*
X189444542Y-158781655D01*
X189385231Y-158818586D01*
X189315368Y-158817588D01*
X189257136Y-158778978D01*
X189229022Y-158715014D01*
X189227999Y-158699122D01*
X189227999Y-157961393D01*
X189227999Y-157961386D01*
X189227997Y-157961367D01*
X189225086Y-157936262D01*
X189225085Y-157936260D01*
X189225085Y-157936259D01*
X189179706Y-157833485D01*
X189100265Y-157754044D01*
X189100263Y-157754043D01*
X188997492Y-157708665D01*
X188972365Y-157705750D01*
X187182643Y-157705750D01*
X187182617Y-157705752D01*
X187157512Y-157708663D01*
X187157508Y-157708665D01*
X187054735Y-157754043D01*
X186975294Y-157833484D01*
X186929915Y-157936256D01*
X186929915Y-157936258D01*
X186927000Y-157961381D01*
X186927000Y-159751106D01*
X186927002Y-159751132D01*
X186929913Y-159776237D01*
X186929915Y-159776241D01*
X186975293Y-159879014D01*
X186990348Y-159894069D01*
X187023833Y-159955392D01*
X187018849Y-160025084D01*
X186976977Y-160081017D01*
X186911513Y-160105434D01*
X186902667Y-160105750D01*
X185874000Y-160105750D01*
X185806961Y-160086065D01*
X185761206Y-160033261D01*
X185750000Y-159981750D01*
X185750000Y-154606251D01*
X185750000Y-154606250D01*
X184000000Y-152606250D01*
X183999999Y-152606250D01*
X178124500Y-152606250D01*
X178057461Y-152586565D01*
X178011706Y-152533761D01*
X178000500Y-152482250D01*
X178000500Y-146785750D01*
X178020185Y-146718711D01*
X178072989Y-146672956D01*
X178124500Y-146661750D01*
X188320500Y-146661750D01*
X188387539Y-146681435D01*
G37*
%TD.AperFunction*%
%TA.AperFunction,Conductor*%
G36*
X207363834Y-151552744D02*
G01*
X207419767Y-151594616D01*
X207444184Y-151660080D01*
X207444500Y-151668926D01*
X207444500Y-153182750D01*
X207451482Y-153247691D01*
X207462688Y-153299202D01*
X207473646Y-153337408D01*
X207492256Y-153369228D01*
X207496540Y-153386981D01*
X207495864Y-153400806D01*
X207500000Y-153416068D01*
X207500000Y-154558666D01*
X207480315Y-154625705D01*
X207468168Y-154641618D01*
X205286943Y-157065202D01*
X205227465Y-157101863D01*
X205194775Y-157106250D01*
X202334500Y-157106250D01*
X202267461Y-157086565D01*
X202221706Y-157033761D01*
X202210500Y-156982250D01*
X202210500Y-154904926D01*
X202230185Y-154837887D01*
X202246819Y-154817245D01*
X204670995Y-152393069D01*
X204732318Y-152359584D01*
X204758676Y-152356750D01*
X206315890Y-152356750D01*
X206315892Y-152356750D01*
X206443186Y-152322642D01*
X206557314Y-152256750D01*
X207232819Y-151581245D01*
X207294142Y-151547760D01*
X207363834Y-151552744D01*
G37*
%TD.AperFunction*%
%TD*%
%TA.AperFunction,Conductor*%
%TO.N,GNDD*%
G36*
X224038636Y-155927435D02*
G01*
X224058207Y-155943010D01*
X225250000Y-157106250D01*
X226376000Y-157106250D01*
X226443039Y-157125935D01*
X226488794Y-157178739D01*
X226500000Y-157230250D01*
X226500000Y-159981750D01*
X226480315Y-160048789D01*
X226427511Y-160094544D01*
X226376000Y-160105750D01*
X225168411Y-160105750D01*
X225101372Y-160086065D01*
X225055617Y-160033261D01*
X225045673Y-159964103D01*
X225074698Y-159900547D01*
X225112116Y-159871265D01*
X225172994Y-159840246D01*
X225319501Y-159733803D01*
X225447553Y-159605751D01*
X225553996Y-159459244D01*
X225636211Y-159297889D01*
X225692171Y-159125659D01*
X225706765Y-159033509D01*
X225720500Y-158946801D01*
X225720500Y-158765698D01*
X225704019Y-158661647D01*
X225692171Y-158586841D01*
X225636211Y-158414611D01*
X225636211Y-158414610D01*
X225607740Y-158358734D01*
X225553996Y-158253256D01*
X225495252Y-158172401D01*
X225447558Y-158106755D01*
X225447554Y-158106750D01*
X225319499Y-157978695D01*
X225319494Y-157978691D01*
X225172997Y-157872256D01*
X225172996Y-157872255D01*
X225172994Y-157872254D01*
X225096906Y-157833485D01*
X225011639Y-157790038D01*
X225011636Y-157790037D01*
X224839410Y-157734079D01*
X224660551Y-157705750D01*
X224660546Y-157705750D01*
X224479454Y-157705750D01*
X224479449Y-157705750D01*
X224300589Y-157734079D01*
X224128363Y-157790037D01*
X224128360Y-157790038D01*
X223967002Y-157872256D01*
X223820505Y-157978691D01*
X223820500Y-157978695D01*
X223692445Y-158106750D01*
X223692441Y-158106755D01*
X223586006Y-158253252D01*
X223503788Y-158414610D01*
X223503787Y-158414613D01*
X223447829Y-158586839D01*
X223422473Y-158746928D01*
X223392544Y-158810063D01*
X223333232Y-158846994D01*
X223263369Y-158845996D01*
X223205137Y-158807386D01*
X223177527Y-158746928D01*
X223163740Y-158659889D01*
X223152171Y-158586841D01*
X223096211Y-158414611D01*
X223096211Y-158414610D01*
X223067740Y-158358734D01*
X223013996Y-158253256D01*
X222955252Y-158172401D01*
X222907558Y-158106755D01*
X222907554Y-158106750D01*
X222779499Y-157978695D01*
X222779494Y-157978691D01*
X222632997Y-157872256D01*
X222632996Y-157872255D01*
X222632994Y-157872254D01*
X222556906Y-157833485D01*
X222471639Y-157790038D01*
X222471636Y-157790037D01*
X222299410Y-157734079D01*
X222120551Y-157705750D01*
X222120546Y-157705750D01*
X221939454Y-157705750D01*
X221939449Y-157705750D01*
X221760589Y-157734079D01*
X221588363Y-157790037D01*
X221588360Y-157790038D01*
X221427002Y-157872256D01*
X221280505Y-157978691D01*
X221280500Y-157978695D01*
X221152445Y-158106750D01*
X221152441Y-158106755D01*
X221046006Y-158253252D01*
X220963788Y-158414610D01*
X220963787Y-158414613D01*
X220907829Y-158586839D01*
X220882473Y-158746928D01*
X220852544Y-158810063D01*
X220793232Y-158846994D01*
X220723369Y-158845996D01*
X220665137Y-158807386D01*
X220637527Y-158746928D01*
X220623740Y-158659889D01*
X220612171Y-158586841D01*
X220556211Y-158414611D01*
X220556211Y-158414610D01*
X220527740Y-158358734D01*
X220473996Y-158253256D01*
X220415252Y-158172401D01*
X220367558Y-158106755D01*
X220367554Y-158106750D01*
X220239499Y-157978695D01*
X220239494Y-157978691D01*
X220092997Y-157872256D01*
X220092996Y-157872255D01*
X220092994Y-157872254D01*
X220016906Y-157833485D01*
X219931639Y-157790038D01*
X219931636Y-157790037D01*
X219759410Y-157734079D01*
X219580551Y-157705750D01*
X219580546Y-157705750D01*
X219399454Y-157705750D01*
X219399449Y-157705750D01*
X219220589Y-157734079D01*
X219048363Y-157790037D01*
X219048360Y-157790038D01*
X218887002Y-157872256D01*
X218740505Y-157978691D01*
X218740500Y-157978695D01*
X218612445Y-158106750D01*
X218612441Y-158106755D01*
X218506006Y-158253252D01*
X218423788Y-158414610D01*
X218423787Y-158414613D01*
X218367829Y-158586839D01*
X218342473Y-158746928D01*
X218312544Y-158810063D01*
X218253232Y-158846994D01*
X218183369Y-158845996D01*
X218125137Y-158807386D01*
X218097527Y-158746928D01*
X218083740Y-158659889D01*
X218072171Y-158586841D01*
X218016211Y-158414611D01*
X218016211Y-158414610D01*
X217987740Y-158358734D01*
X217933996Y-158253256D01*
X217875252Y-158172401D01*
X217827558Y-158106755D01*
X217827554Y-158106750D01*
X217699499Y-157978695D01*
X217699494Y-157978691D01*
X217552997Y-157872256D01*
X217552996Y-157872255D01*
X217552994Y-157872254D01*
X217476906Y-157833485D01*
X217391639Y-157790038D01*
X217391636Y-157790037D01*
X217219410Y-157734079D01*
X217040551Y-157705750D01*
X217040546Y-157705750D01*
X216859454Y-157705750D01*
X216859449Y-157705750D01*
X216680589Y-157734079D01*
X216508363Y-157790037D01*
X216508360Y-157790038D01*
X216347002Y-157872256D01*
X216200505Y-157978691D01*
X216200500Y-157978695D01*
X216072445Y-158106750D01*
X216072441Y-158106755D01*
X215966006Y-158253252D01*
X215883788Y-158414610D01*
X215883787Y-158414613D01*
X215827829Y-158586839D01*
X215802473Y-158746928D01*
X215772544Y-158810063D01*
X215713232Y-158846994D01*
X215643369Y-158845996D01*
X215585137Y-158807386D01*
X215557527Y-158746928D01*
X215543740Y-158659889D01*
X215532171Y-158586841D01*
X215476211Y-158414611D01*
X215476211Y-158414610D01*
X215447740Y-158358734D01*
X215393996Y-158253256D01*
X215335252Y-158172401D01*
X215287558Y-158106755D01*
X215287554Y-158106750D01*
X215159499Y-157978695D01*
X215159494Y-157978691D01*
X215012997Y-157872256D01*
X215012996Y-157872255D01*
X215012994Y-157872254D01*
X214936906Y-157833485D01*
X214851639Y-157790038D01*
X214851636Y-157790037D01*
X214679410Y-157734079D01*
X214500551Y-157705750D01*
X214500546Y-157705750D01*
X214319454Y-157705750D01*
X214319449Y-157705750D01*
X214140589Y-157734079D01*
X213968363Y-157790037D01*
X213968360Y-157790038D01*
X213807002Y-157872256D01*
X213660505Y-157978691D01*
X213660500Y-157978695D01*
X213532445Y-158106750D01*
X213532441Y-158106755D01*
X213426006Y-158253252D01*
X213343788Y-158414610D01*
X213343787Y-158414613D01*
X213287829Y-158586839D01*
X213262473Y-158746928D01*
X213232544Y-158810063D01*
X213173232Y-158846994D01*
X213103369Y-158845996D01*
X213045137Y-158807386D01*
X213017527Y-158746928D01*
X213003740Y-158659889D01*
X212992171Y-158586841D01*
X212936211Y-158414611D01*
X212936211Y-158414610D01*
X212907740Y-158358734D01*
X212853996Y-158253256D01*
X212795252Y-158172401D01*
X212747558Y-158106755D01*
X212747554Y-158106750D01*
X212619499Y-157978695D01*
X212619494Y-157978691D01*
X212472997Y-157872256D01*
X212472996Y-157872255D01*
X212472994Y-157872254D01*
X212396906Y-157833485D01*
X212311639Y-157790038D01*
X212311636Y-157790037D01*
X212139410Y-157734079D01*
X211960551Y-157705750D01*
X211960546Y-157705750D01*
X211779454Y-157705750D01*
X211779449Y-157705750D01*
X211600589Y-157734079D01*
X211428363Y-157790037D01*
X211428360Y-157790038D01*
X211267002Y-157872256D01*
X211120505Y-157978691D01*
X211120500Y-157978695D01*
X210992445Y-158106750D01*
X210992441Y-158106755D01*
X210886006Y-158253252D01*
X210803788Y-158414610D01*
X210803787Y-158414613D01*
X210747829Y-158586839D01*
X210722473Y-158746928D01*
X210692544Y-158810063D01*
X210633232Y-158846994D01*
X210563369Y-158845996D01*
X210505137Y-158807386D01*
X210477527Y-158746928D01*
X210463740Y-158659889D01*
X210452171Y-158586841D01*
X210396211Y-158414611D01*
X210396211Y-158414610D01*
X210367740Y-158358734D01*
X210313996Y-158253256D01*
X210255252Y-158172401D01*
X210207558Y-158106755D01*
X210207554Y-158106750D01*
X210079499Y-157978695D01*
X210079494Y-157978691D01*
X209932997Y-157872256D01*
X209932996Y-157872255D01*
X209932994Y-157872254D01*
X209856906Y-157833485D01*
X209771639Y-157790038D01*
X209771636Y-157790037D01*
X209599410Y-157734079D01*
X209420551Y-157705750D01*
X209420546Y-157705750D01*
X209239454Y-157705750D01*
X209239449Y-157705750D01*
X209060589Y-157734079D01*
X208888363Y-157790037D01*
X208888360Y-157790038D01*
X208727002Y-157872256D01*
X208580505Y-157978691D01*
X208580500Y-157978695D01*
X208452445Y-158106750D01*
X208452441Y-158106755D01*
X208346006Y-158253252D01*
X208263788Y-158414610D01*
X208263787Y-158414613D01*
X208207829Y-158586839D01*
X208182473Y-158746928D01*
X208152544Y-158810063D01*
X208093232Y-158846994D01*
X208023369Y-158845996D01*
X207965137Y-158807386D01*
X207937527Y-158746928D01*
X207923740Y-158659889D01*
X207912171Y-158586841D01*
X207856211Y-158414611D01*
X207856211Y-158414610D01*
X207827740Y-158358734D01*
X207773996Y-158253256D01*
X207715252Y-158172401D01*
X207667558Y-158106755D01*
X207667554Y-158106750D01*
X207539499Y-157978695D01*
X207539494Y-157978691D01*
X207392997Y-157872256D01*
X207392996Y-157872255D01*
X207392994Y-157872254D01*
X207316906Y-157833485D01*
X207231639Y-157790038D01*
X207231636Y-157790037D01*
X207059410Y-157734079D01*
X206880551Y-157705750D01*
X206880546Y-157705750D01*
X206699454Y-157705750D01*
X206699449Y-157705750D01*
X206520589Y-157734079D01*
X206348363Y-157790037D01*
X206348360Y-157790038D01*
X206187002Y-157872256D01*
X206040505Y-157978691D01*
X206040500Y-157978695D01*
X205912445Y-158106750D01*
X205912441Y-158106755D01*
X205806006Y-158253252D01*
X205723788Y-158414610D01*
X205723787Y-158414613D01*
X205667829Y-158586839D01*
X205639500Y-158765698D01*
X205639500Y-158946801D01*
X205667829Y-159125660D01*
X205723787Y-159297886D01*
X205723788Y-159297889D01*
X205806006Y-159459247D01*
X205912441Y-159605744D01*
X205912445Y-159605749D01*
X206040500Y-159733804D01*
X206040505Y-159733808D01*
X206098910Y-159776241D01*
X206187006Y-159840246D01*
X206247884Y-159871265D01*
X206298680Y-159919240D01*
X206315475Y-159987061D01*
X206292937Y-160053196D01*
X206238222Y-160096647D01*
X206191589Y-160105750D01*
X203124000Y-160105750D01*
X203056961Y-160086065D01*
X203011206Y-160033261D01*
X203000000Y-159981750D01*
X203000000Y-157730250D01*
X203019685Y-157663211D01*
X203072489Y-157617456D01*
X203124000Y-157606250D01*
X205249999Y-157606250D01*
X205250000Y-157606250D01*
X205250001Y-157606249D01*
X206842651Y-155945912D01*
X206903264Y-155911158D01*
X206932137Y-155907750D01*
X223971597Y-155907750D01*
X224038636Y-155927435D01*
G37*
%TD.AperFunction*%
%TA.AperFunction,Conductor*%
G36*
X219193039Y-150876435D02*
G01*
X219238794Y-150929239D01*
X219250000Y-150980750D01*
X219250000Y-151250000D01*
X221139276Y-153094012D01*
X221173502Y-153154925D01*
X221169363Y-153224672D01*
X221128172Y-153281109D01*
X221063009Y-153306318D01*
X221052664Y-153306750D01*
X207874000Y-153306750D01*
X207806961Y-153287065D01*
X207761206Y-153234261D01*
X207750000Y-153182750D01*
X207750000Y-151115426D01*
X207758404Y-151086805D01*
X207764332Y-151057555D01*
X207768753Y-151051560D01*
X207769685Y-151048387D01*
X207785079Y-151029003D01*
X207785701Y-151028362D01*
X207900500Y-150913564D01*
X207905218Y-150905391D01*
X207915972Y-150894327D01*
X207933502Y-150884427D01*
X207948080Y-150870530D01*
X207965670Y-150866263D01*
X207976812Y-150859972D01*
X207988784Y-150860657D01*
X208004893Y-150856750D01*
X219126000Y-150856750D01*
X219193039Y-150876435D01*
G37*
%TD.AperFunction*%
%TA.AperFunction,Conductor*%
G36*
X222443039Y-126019685D02*
G01*
X222488794Y-126072489D01*
X222500000Y-126124000D01*
X222500000Y-135384245D01*
X222480315Y-135451284D01*
X222427511Y-135497039D01*
X222358353Y-135506983D01*
X222294797Y-135477958D01*
X222288319Y-135471926D01*
X219995915Y-133179522D01*
X219995913Y-133179520D01*
X219950250Y-133153156D01*
X219904589Y-133126793D01*
X219853657Y-133113146D01*
X219802727Y-133099500D01*
X219802726Y-133099500D01*
X218750098Y-133099500D01*
X218683059Y-133079815D01*
X218662417Y-133063181D01*
X218618717Y-133019481D01*
X218618709Y-133019475D01*
X218481790Y-132940426D01*
X218481786Y-132940424D01*
X218481784Y-132940423D01*
X218329057Y-132899500D01*
X218170943Y-132899500D01*
X218018216Y-132940423D01*
X218018209Y-132940426D01*
X217881290Y-133019475D01*
X217881282Y-133019481D01*
X217769481Y-133131282D01*
X217769475Y-133131290D01*
X217690426Y-133268209D01*
X217690423Y-133268216D01*
X217649500Y-133420943D01*
X217649500Y-133579057D01*
X217688472Y-133724500D01*
X217690423Y-133731783D01*
X217690426Y-133731790D01*
X217769475Y-133868709D01*
X217769479Y-133868714D01*
X217769480Y-133868716D01*
X217881284Y-133980520D01*
X217881286Y-133980521D01*
X217881290Y-133980524D01*
X217948765Y-134019480D01*
X218018216Y-134059577D01*
X218170943Y-134100500D01*
X218170945Y-134100500D01*
X218329055Y-134100500D01*
X218329057Y-134100500D01*
X218481784Y-134059577D01*
X218618716Y-133980520D01*
X218662417Y-133936819D01*
X218723740Y-133903334D01*
X218750098Y-133900500D01*
X219532745Y-133900500D01*
X219599784Y-133920185D01*
X219620426Y-133936819D01*
X223313181Y-137629574D01*
X223327884Y-137656501D01*
X223344477Y-137682320D01*
X223345368Y-137688520D01*
X223346666Y-137690897D01*
X223349500Y-137717255D01*
X223349500Y-137916615D01*
X223329815Y-137983654D01*
X223277011Y-138029409D01*
X223207853Y-138039353D01*
X223193407Y-138036390D01*
X223188641Y-138035113D01*
X223079057Y-138005750D01*
X222920943Y-138005750D01*
X222768216Y-138046673D01*
X222768209Y-138046676D01*
X222631290Y-138125725D01*
X222631282Y-138125731D01*
X222519481Y-138237532D01*
X222519477Y-138237537D01*
X222482387Y-138301781D01*
X222431821Y-138349996D01*
X222363214Y-138363220D01*
X222298349Y-138337252D01*
X222267613Y-138301781D01*
X222230522Y-138237537D01*
X222230518Y-138237532D01*
X222118717Y-138125731D01*
X222118709Y-138125725D01*
X221981790Y-138046676D01*
X221981786Y-138046674D01*
X221981784Y-138046673D01*
X221829057Y-138005750D01*
X221670943Y-138005750D01*
X221518216Y-138046673D01*
X221518209Y-138046676D01*
X221381290Y-138125725D01*
X221381282Y-138125731D01*
X221269481Y-138237532D01*
X221269477Y-138237537D01*
X221232387Y-138301781D01*
X221181821Y-138349996D01*
X221113214Y-138363220D01*
X221048349Y-138337252D01*
X221017613Y-138301781D01*
X220980522Y-138237537D01*
X220980518Y-138237532D01*
X220868717Y-138125731D01*
X220868709Y-138125725D01*
X220731790Y-138046676D01*
X220731786Y-138046674D01*
X220731784Y-138046673D01*
X220579057Y-138005750D01*
X220420943Y-138005750D01*
X220268216Y-138046673D01*
X220268209Y-138046676D01*
X220131290Y-138125725D01*
X220131282Y-138125731D01*
X220019481Y-138237532D01*
X220019477Y-138237537D01*
X219982387Y-138301781D01*
X219931821Y-138349996D01*
X219863214Y-138363220D01*
X219798349Y-138337252D01*
X219767613Y-138301781D01*
X219730522Y-138237537D01*
X219730518Y-138237532D01*
X219618717Y-138125731D01*
X219618709Y-138125725D01*
X219481790Y-138046676D01*
X219481786Y-138046674D01*
X219481784Y-138046673D01*
X219329057Y-138005750D01*
X219170943Y-138005750D01*
X219018216Y-138046673D01*
X219018209Y-138046676D01*
X218881290Y-138125725D01*
X218881282Y-138125731D01*
X218769481Y-138237532D01*
X218769475Y-138237540D01*
X218690426Y-138374459D01*
X218690423Y-138374466D01*
X218649500Y-138527193D01*
X218649500Y-138685307D01*
X218689896Y-138836065D01*
X218690423Y-138838033D01*
X218690426Y-138838040D01*
X218769475Y-138974959D01*
X218769481Y-138974967D01*
X218813181Y-139018667D01*
X218846666Y-139079990D01*
X218849500Y-139106348D01*
X218849500Y-139416615D01*
X218829815Y-139483654D01*
X218777011Y-139529409D01*
X218707853Y-139539353D01*
X218693407Y-139536390D01*
X218579057Y-139505750D01*
X218420943Y-139505750D01*
X218268216Y-139546673D01*
X218268209Y-139546676D01*
X218131290Y-139625725D01*
X218131282Y-139625731D01*
X218019481Y-139737532D01*
X218019475Y-139737540D01*
X217940426Y-139874459D01*
X217940423Y-139874466D01*
X217899500Y-140027193D01*
X217899500Y-140185305D01*
X217900561Y-140193363D01*
X217898069Y-140193691D01*
X217896702Y-140250941D01*
X217882669Y-140277772D01*
X217883583Y-140278300D01*
X217826795Y-140376656D01*
X217826792Y-140376663D01*
X217823256Y-140389860D01*
X217799500Y-140478521D01*
X217799500Y-142816392D01*
X217779815Y-142883431D01*
X217727011Y-142929186D01*
X217657853Y-142939130D01*
X217594297Y-142910105D01*
X217563642Y-142867594D01*
X217563641Y-142867595D01*
X217563631Y-142867578D01*
X217560940Y-142863846D01*
X217559577Y-142860556D01*
X217480524Y-142723631D01*
X217480518Y-142723623D01*
X217368717Y-142611822D01*
X217368709Y-142611816D01*
X217231790Y-142532767D01*
X217231786Y-142532765D01*
X217231784Y-142532764D01*
X217079057Y-142491841D01*
X216920943Y-142491841D01*
X216768216Y-142532764D01*
X216768209Y-142532767D01*
X216631290Y-142611816D01*
X216631282Y-142611822D01*
X216519481Y-142723623D01*
X216519475Y-142723631D01*
X216440426Y-142860550D01*
X216440423Y-142860557D01*
X216399500Y-143013284D01*
X216399500Y-143075086D01*
X216379815Y-143142125D01*
X216363181Y-143162767D01*
X215963483Y-143562464D01*
X215941637Y-143574392D01*
X215922101Y-143589815D01*
X215911504Y-143590846D01*
X215902160Y-143595949D01*
X215877331Y-143594173D01*
X215852560Y-143596585D01*
X215843088Y-143591724D01*
X215832468Y-143590965D01*
X215812541Y-143576047D01*
X215790398Y-143564684D01*
X215783028Y-143553953D01*
X215776535Y-143549093D01*
X215768530Y-143536981D01*
X215761232Y-143524395D01*
X215759577Y-143518216D01*
X215680520Y-143381284D01*
X215675127Y-143375891D01*
X215667228Y-143362267D01*
X215660756Y-143335804D01*
X215650930Y-143310388D01*
X215650500Y-143300069D01*
X215650500Y-141168979D01*
X215650501Y-141168966D01*
X215650501Y-141053524D01*
X215650251Y-141052592D01*
X215623207Y-140951663D01*
X215623206Y-140951662D01*
X215623206Y-140951660D01*
X215623204Y-140951657D01*
X215603764Y-140917987D01*
X215603763Y-140917986D01*
X215598562Y-140908977D01*
X215570480Y-140860337D01*
X215495913Y-140785770D01*
X215495910Y-140785768D01*
X215188663Y-140478521D01*
X214886819Y-140176676D01*
X214853334Y-140115353D01*
X214850500Y-140088995D01*
X214850500Y-140027195D01*
X214850500Y-140027193D01*
X214809577Y-139874466D01*
X214747102Y-139766255D01*
X214730524Y-139737540D01*
X214730518Y-139737532D01*
X214618717Y-139625731D01*
X214618709Y-139625725D01*
X214481790Y-139546676D01*
X214481786Y-139546674D01*
X214481784Y-139546673D01*
X214329057Y-139505750D01*
X214170943Y-139505750D01*
X214018216Y-139546673D01*
X214018209Y-139546676D01*
X213881290Y-139625725D01*
X213881282Y-139625731D01*
X213769481Y-139737532D01*
X213769475Y-139737540D01*
X213690426Y-139874459D01*
X213690423Y-139874466D01*
X213649500Y-140027193D01*
X213649500Y-140185307D01*
X213679341Y-140296673D01*
X213690423Y-140338033D01*
X213690426Y-140338040D01*
X213769475Y-140474959D01*
X213769479Y-140474964D01*
X213769480Y-140474966D01*
X213881284Y-140586770D01*
X213881286Y-140586771D01*
X213881290Y-140586774D01*
X214013430Y-140663064D01*
X214018216Y-140665827D01*
X214170943Y-140706750D01*
X214232745Y-140706750D01*
X214299784Y-140726435D01*
X214320426Y-140743069D01*
X214813181Y-141235823D01*
X214846666Y-141297146D01*
X214849500Y-141323504D01*
X214849500Y-143199902D01*
X214829815Y-143266941D01*
X214813181Y-143287583D01*
X214719481Y-143381282D01*
X214719475Y-143381290D01*
X214640426Y-143518209D01*
X214640423Y-143518216D01*
X214599500Y-143670943D01*
X214599500Y-143829057D01*
X214627970Y-143935306D01*
X214640423Y-143981783D01*
X214640426Y-143981790D01*
X214719475Y-144118709D01*
X214719479Y-144118714D01*
X214719480Y-144118716D01*
X214831284Y-144230520D01*
X214831286Y-144230521D01*
X214831290Y-144230524D01*
X214964572Y-144307473D01*
X214968216Y-144309577D01*
X215120943Y-144350500D01*
X215120945Y-144350500D01*
X215279055Y-144350500D01*
X215279057Y-144350500D01*
X215431784Y-144309577D01*
X215431785Y-144309576D01*
X215439635Y-144307473D01*
X215440262Y-144309813D01*
X215497500Y-144303652D01*
X215559984Y-144334919D01*
X215595644Y-144395003D01*
X215599500Y-144425685D01*
X215599500Y-144581750D01*
X215579815Y-144648789D01*
X215527011Y-144694544D01*
X215475500Y-144705750D01*
X215052731Y-144705750D01*
X215052727Y-144705749D01*
X214947273Y-144705749D01*
X214850112Y-144731784D01*
X214845413Y-144733043D01*
X214844293Y-144733689D01*
X214844290Y-144733690D01*
X214754085Y-144785771D01*
X214070426Y-145469431D01*
X214009103Y-145502916D01*
X213982745Y-145505750D01*
X213920943Y-145505750D01*
X213768216Y-145546673D01*
X213768209Y-145546676D01*
X213631290Y-145625725D01*
X213631282Y-145625731D01*
X213519481Y-145737532D01*
X213519475Y-145737540D01*
X213440426Y-145874459D01*
X213440423Y-145874466D01*
X213399500Y-146027193D01*
X213399500Y-146185307D01*
X213440030Y-146336565D01*
X213440423Y-146338033D01*
X213440426Y-146338040D01*
X213519475Y-146474959D01*
X213519479Y-146474964D01*
X213519480Y-146474966D01*
X213631284Y-146586770D01*
X213631286Y-146586771D01*
X213631290Y-146586774D01*
X213768209Y-146665823D01*
X213768216Y-146665827D01*
X213920943Y-146706750D01*
X213920945Y-146706750D01*
X214079055Y-146706750D01*
X214079057Y-146706750D01*
X214231784Y-146665827D01*
X214368716Y-146586770D01*
X214480520Y-146474966D01*
X214559577Y-146338034D01*
X214600500Y-146185307D01*
X214600500Y-146123504D01*
X214620185Y-146056465D01*
X214636819Y-146035823D01*
X215129573Y-145543069D01*
X215190896Y-145509584D01*
X215217254Y-145506750D01*
X220552725Y-145506750D01*
X220552727Y-145506750D01*
X220654588Y-145479457D01*
X220745913Y-145426730D01*
X222070480Y-144102163D01*
X222123207Y-144010838D01*
X222150500Y-143908977D01*
X222150500Y-143803523D01*
X222150500Y-139106348D01*
X222170185Y-139039309D01*
X222186819Y-139018667D01*
X222196471Y-139009015D01*
X222230520Y-138974966D01*
X222267613Y-138910717D01*
X222291789Y-138887665D01*
X222315331Y-138864019D01*
X222316966Y-138863659D01*
X222318179Y-138862503D01*
X222350983Y-138856179D01*
X222383570Y-138849015D01*
X222385139Y-138849596D01*
X222386786Y-138849279D01*
X222417786Y-138861689D01*
X222449089Y-138873285D01*
X222450382Y-138874739D01*
X222451651Y-138875247D01*
X222474101Y-138898186D01*
X222478622Y-138904197D01*
X222519480Y-138974966D01*
X222569356Y-139024842D01*
X222574601Y-139031816D01*
X222583938Y-139056681D01*
X222596666Y-139079990D01*
X222598260Y-139094820D01*
X222599164Y-139097226D01*
X222598734Y-139099223D01*
X222599500Y-139106348D01*
X222599500Y-141856152D01*
X222579815Y-141923191D01*
X222563181Y-141943833D01*
X222519481Y-141987532D01*
X222519475Y-141987540D01*
X222440426Y-142124459D01*
X222440423Y-142124466D01*
X222399500Y-142277193D01*
X222399500Y-142435307D01*
X222425615Y-142532767D01*
X222440423Y-142588033D01*
X222440426Y-142588040D01*
X222519475Y-142724959D01*
X222519479Y-142724964D01*
X222519480Y-142724966D01*
X222631284Y-142836770D01*
X222631286Y-142836771D01*
X222631290Y-142836774D01*
X222712104Y-142883431D01*
X222768216Y-142915827D01*
X222920943Y-142956750D01*
X222920945Y-142956750D01*
X223079055Y-142956750D01*
X223079057Y-142956750D01*
X223231784Y-142915827D01*
X223368716Y-142836770D01*
X223480520Y-142724966D01*
X223559577Y-142588034D01*
X223600500Y-142435307D01*
X223600500Y-142277193D01*
X223559577Y-142124466D01*
X223537816Y-142086774D01*
X223480524Y-141987540D01*
X223480518Y-141987532D01*
X223436819Y-141943833D01*
X223403334Y-141882510D01*
X223400500Y-141856152D01*
X223400500Y-139766255D01*
X223420185Y-139699216D01*
X223472989Y-139653461D01*
X223542147Y-139643517D01*
X223605703Y-139672542D01*
X223612181Y-139678574D01*
X224285769Y-140352162D01*
X224285770Y-140352163D01*
X224360337Y-140426730D01*
X224451663Y-140479457D01*
X224553523Y-140506750D01*
X226560365Y-140506750D01*
X226627404Y-140526435D01*
X226673159Y-140579239D01*
X226683103Y-140648397D01*
X226680140Y-140662841D01*
X226649500Y-140777193D01*
X226649500Y-140935307D01*
X226683867Y-141063564D01*
X226690423Y-141088033D01*
X226690426Y-141088040D01*
X226769475Y-141224959D01*
X226769479Y-141224964D01*
X226769480Y-141224966D01*
X226881284Y-141336770D01*
X226881286Y-141336771D01*
X226881290Y-141336774D01*
X227018209Y-141415823D01*
X227018216Y-141415827D01*
X227170943Y-141456750D01*
X227232745Y-141456750D01*
X227299784Y-141476435D01*
X227320426Y-141493069D01*
X227563181Y-141735824D01*
X227596666Y-141797147D01*
X227599500Y-141823505D01*
X227599500Y-142606152D01*
X227579815Y-142673191D01*
X227563181Y-142693833D01*
X227519481Y-142737532D01*
X227519475Y-142737540D01*
X227440426Y-142874459D01*
X227440423Y-142874466D01*
X227399500Y-143027193D01*
X227399500Y-143185307D01*
X227439826Y-143335804D01*
X227440423Y-143338033D01*
X227440426Y-143338040D01*
X227519475Y-143474959D01*
X227519479Y-143474964D01*
X227519480Y-143474966D01*
X227631284Y-143586770D01*
X227631286Y-143586771D01*
X227631290Y-143586774D01*
X227753164Y-143657137D01*
X227768216Y-143665827D01*
X227920943Y-143706750D01*
X227920945Y-143706750D01*
X228079055Y-143706750D01*
X228079057Y-143706750D01*
X228231784Y-143665827D01*
X228368716Y-143586770D01*
X228480520Y-143474966D01*
X228559577Y-143338034D01*
X228600500Y-143185307D01*
X228600500Y-143027193D01*
X228559577Y-142874466D01*
X228555610Y-142867595D01*
X228480524Y-142737540D01*
X228480518Y-142737532D01*
X228436819Y-142693833D01*
X228403334Y-142632510D01*
X228400500Y-142606152D01*
X228400500Y-141553525D01*
X228400499Y-141553521D01*
X228399867Y-141551161D01*
X228393445Y-141527193D01*
X232649500Y-141527193D01*
X232649500Y-141685307D01*
X232680927Y-141802592D01*
X232690423Y-141838033D01*
X232690426Y-141838040D01*
X232769475Y-141974959D01*
X232769479Y-141974964D01*
X232769480Y-141974966D01*
X232881284Y-142086770D01*
X232881286Y-142086771D01*
X232881290Y-142086774D01*
X233018209Y-142165823D01*
X233018216Y-142165827D01*
X233170943Y-142206750D01*
X233232746Y-142206750D01*
X233262186Y-142215394D01*
X233292173Y-142221918D01*
X233297188Y-142225672D01*
X233299785Y-142226435D01*
X233320427Y-142243069D01*
X233383550Y-142306192D01*
X233417035Y-142367515D01*
X233419869Y-142393873D01*
X233419869Y-142676521D01*
X233400184Y-142743560D01*
X233383550Y-142764202D01*
X233339850Y-142807901D01*
X233339844Y-142807909D01*
X233260795Y-142944828D01*
X233260792Y-142944835D01*
X233219869Y-143097562D01*
X233219869Y-143255676D01*
X233253526Y-143381284D01*
X233260792Y-143408402D01*
X233260795Y-143408409D01*
X233339844Y-143545328D01*
X233339848Y-143545333D01*
X233339849Y-143545335D01*
X233451653Y-143657139D01*
X233451655Y-143657140D01*
X233451659Y-143657143D01*
X233572096Y-143726676D01*
X233588585Y-143736196D01*
X233741312Y-143777119D01*
X233741314Y-143777119D01*
X233899424Y-143777119D01*
X233899426Y-143777119D01*
X234052153Y-143736196D01*
X234189085Y-143657139D01*
X234300889Y-143545335D01*
X234379946Y-143408403D01*
X234420869Y-143255676D01*
X234420869Y-143097562D01*
X234379946Y-142944835D01*
X234370911Y-142929186D01*
X234300893Y-142807909D01*
X234300887Y-142807901D01*
X234257188Y-142764202D01*
X234223703Y-142702879D01*
X234220869Y-142676521D01*
X234220869Y-142239348D01*
X234220870Y-142239335D01*
X234220870Y-142123893D01*
X234202406Y-142054986D01*
X234193576Y-142022032D01*
X234178408Y-141995761D01*
X234140849Y-141930706D01*
X234066282Y-141856139D01*
X234066279Y-141856137D01*
X234057154Y-141847012D01*
X234057151Y-141847008D01*
X233886819Y-141676676D01*
X233853334Y-141615353D01*
X233850500Y-141588995D01*
X233850500Y-141527195D01*
X233850500Y-141527193D01*
X233809577Y-141374466D01*
X233809573Y-141374459D01*
X233730524Y-141237540D01*
X233730518Y-141237532D01*
X233618717Y-141125731D01*
X233618709Y-141125725D01*
X233481790Y-141046676D01*
X233481786Y-141046674D01*
X233481784Y-141046673D01*
X233329057Y-141005750D01*
X233170943Y-141005750D01*
X233018216Y-141046673D01*
X233018209Y-141046676D01*
X232881290Y-141125725D01*
X232881282Y-141125731D01*
X232769481Y-141237532D01*
X232769475Y-141237540D01*
X232690426Y-141374459D01*
X232690423Y-141374466D01*
X232649500Y-141527193D01*
X228393445Y-141527193D01*
X228373207Y-141451663D01*
X228373207Y-141451662D01*
X228320480Y-141360337D01*
X227886819Y-140926676D01*
X227853334Y-140865353D01*
X227852202Y-140859470D01*
X227850500Y-140849304D01*
X227850500Y-140777193D01*
X227818319Y-140657093D01*
X227817337Y-140651225D01*
X227820827Y-140622210D01*
X227821523Y-140592993D01*
X227824951Y-140587927D01*
X227825682Y-140581856D01*
X227844303Y-140559336D01*
X227860686Y-140535131D01*
X227866308Y-140532723D01*
X227870206Y-140528010D01*
X227898047Y-140519131D01*
X227924914Y-140507627D01*
X227936242Y-140506952D01*
X227936773Y-140506783D01*
X227937191Y-140506895D01*
X227939635Y-140506750D01*
X240032745Y-140506750D01*
X240099784Y-140526435D01*
X240120426Y-140543069D01*
X241813181Y-142235824D01*
X241846666Y-142297147D01*
X241849500Y-142323505D01*
X241849500Y-144633604D01*
X241829815Y-144700643D01*
X241813181Y-144721285D01*
X241769481Y-144764984D01*
X241769475Y-144764992D01*
X241690426Y-144901911D01*
X241690423Y-144901918D01*
X241649500Y-145054645D01*
X241649500Y-145212759D01*
X241690423Y-145365486D01*
X241725781Y-145426729D01*
X241732887Y-145439036D01*
X241749500Y-145501036D01*
X241749500Y-146232250D01*
X241729815Y-146299289D01*
X241677011Y-146345044D01*
X241625500Y-146356250D01*
X236999999Y-146356250D01*
X235286319Y-148069931D01*
X235224996Y-148103416D01*
X235198638Y-148106250D01*
X233250000Y-148106250D01*
X225500000Y-148106250D01*
X223624000Y-148106250D01*
X223556961Y-148086565D01*
X223511206Y-148033761D01*
X223500000Y-147982250D01*
X223500000Y-146500000D01*
X219250000Y-146500000D01*
X219250000Y-149731750D01*
X219230315Y-149798789D01*
X219177511Y-149844544D01*
X219126000Y-149855750D01*
X208124500Y-149855750D01*
X208057461Y-149836065D01*
X208011706Y-149783261D01*
X208000500Y-149731750D01*
X208000500Y-147223584D01*
X208017113Y-147161584D01*
X208038543Y-147124466D01*
X208059577Y-147088034D01*
X208100500Y-146935307D01*
X208100500Y-146777193D01*
X208059577Y-146624466D01*
X208029089Y-146571658D01*
X208017112Y-146550913D01*
X208000500Y-146488914D01*
X208000500Y-145473584D01*
X208017113Y-145411584D01*
X208059577Y-145338034D01*
X208100500Y-145185307D01*
X208100500Y-145027193D01*
X208059577Y-144874466D01*
X208017112Y-144800913D01*
X208000500Y-144738914D01*
X208000500Y-140791299D01*
X208000500Y-140790358D01*
X207996972Y-140777193D01*
X210199500Y-140777193D01*
X210199500Y-140935307D01*
X210233867Y-141063564D01*
X210240423Y-141088033D01*
X210240426Y-141088040D01*
X210319475Y-141224959D01*
X210319481Y-141224967D01*
X210363181Y-141268667D01*
X210396666Y-141329990D01*
X210399500Y-141356348D01*
X210399500Y-143249902D01*
X210379815Y-143316941D01*
X210363181Y-143337583D01*
X210319481Y-143381282D01*
X210319475Y-143381290D01*
X210240426Y-143518209D01*
X210240423Y-143518216D01*
X210199500Y-143670943D01*
X210199500Y-143829057D01*
X210227970Y-143935306D01*
X210240423Y-143981783D01*
X210240426Y-143981790D01*
X210319475Y-144118709D01*
X210319479Y-144118714D01*
X210319480Y-144118716D01*
X210431284Y-144230520D01*
X210431286Y-144230521D01*
X210431290Y-144230524D01*
X210564572Y-144307473D01*
X210568216Y-144309577D01*
X210720943Y-144350500D01*
X210720945Y-144350500D01*
X210879055Y-144350500D01*
X210879057Y-144350500D01*
X211031784Y-144309577D01*
X211168716Y-144230520D01*
X211212319Y-144186917D01*
X211273642Y-144153432D01*
X211343334Y-144158416D01*
X211387681Y-144186917D01*
X211431284Y-144230520D01*
X211431286Y-144230521D01*
X211431290Y-144230524D01*
X211564572Y-144307473D01*
X211568216Y-144309577D01*
X211720943Y-144350500D01*
X211720945Y-144350500D01*
X211879055Y-144350500D01*
X211879057Y-144350500D01*
X212031784Y-144309577D01*
X212168716Y-144230520D01*
X212212319Y-144186917D01*
X212273642Y-144153432D01*
X212343334Y-144158416D01*
X212387681Y-144186917D01*
X212431284Y-144230520D01*
X212431286Y-144230521D01*
X212431290Y-144230524D01*
X212564572Y-144307473D01*
X212568216Y-144309577D01*
X212720943Y-144350500D01*
X212720945Y-144350500D01*
X212879055Y-144350500D01*
X212879057Y-144350500D01*
X213031784Y-144309577D01*
X213168716Y-144230520D01*
X213280520Y-144118716D01*
X213359577Y-143981784D01*
X213400500Y-143829057D01*
X213400500Y-143670943D01*
X213359577Y-143518216D01*
X213354858Y-143510043D01*
X213280524Y-143381290D01*
X213280518Y-143381282D01*
X213236819Y-143337583D01*
X213203334Y-143276260D01*
X213200500Y-143249902D01*
X213200500Y-142856348D01*
X213220185Y-142789309D01*
X213236819Y-142768667D01*
X213241284Y-142764202D01*
X213280520Y-142724966D01*
X213359577Y-142588034D01*
X213400500Y-142435307D01*
X213400500Y-142277193D01*
X213359577Y-142124466D01*
X213337816Y-142086774D01*
X213280524Y-141987540D01*
X213280518Y-141987532D01*
X213168717Y-141875731D01*
X213168709Y-141875725D01*
X213031790Y-141796676D01*
X213031786Y-141796674D01*
X213031784Y-141796673D01*
X212879057Y-141755750D01*
X212720943Y-141755750D01*
X212568216Y-141796673D01*
X212568214Y-141796673D01*
X212560365Y-141798777D01*
X212559739Y-141796440D01*
X212502472Y-141802592D01*
X212439996Y-141771311D01*
X212404349Y-141711219D01*
X212400500Y-141680564D01*
X212400500Y-141527195D01*
X212400500Y-141527193D01*
X212359577Y-141374466D01*
X212359573Y-141374459D01*
X212280524Y-141237540D01*
X212280518Y-141237532D01*
X212168717Y-141125731D01*
X212168709Y-141125725D01*
X212031790Y-141046676D01*
X212031786Y-141046674D01*
X212031784Y-141046673D01*
X211879057Y-141005750D01*
X211720943Y-141005750D01*
X211568216Y-141046673D01*
X211568214Y-141046673D01*
X211560365Y-141048777D01*
X211559739Y-141046440D01*
X211502472Y-141052592D01*
X211439996Y-141021311D01*
X211404349Y-140961219D01*
X211400500Y-140930564D01*
X211400500Y-140777194D01*
X211400499Y-140777189D01*
X211397757Y-140766958D01*
X211359577Y-140624466D01*
X211358275Y-140622210D01*
X211280524Y-140487540D01*
X211280518Y-140487532D01*
X211168717Y-140375731D01*
X211168709Y-140375725D01*
X211031790Y-140296676D01*
X211031786Y-140296674D01*
X211031784Y-140296673D01*
X210879057Y-140255750D01*
X210720943Y-140255750D01*
X210568216Y-140296673D01*
X210568209Y-140296676D01*
X210431290Y-140375725D01*
X210431282Y-140375731D01*
X210319481Y-140487532D01*
X210319475Y-140487540D01*
X210240426Y-140624459D01*
X210240423Y-140624466D01*
X210213101Y-140726435D01*
X210199500Y-140777193D01*
X207996972Y-140777193D01*
X207966392Y-140663064D01*
X207932555Y-140604457D01*
X207932555Y-140604456D01*
X207900504Y-140548942D01*
X207900498Y-140548934D01*
X206697620Y-139346056D01*
X206664135Y-139284733D01*
X206669119Y-139215041D01*
X206710991Y-139159108D01*
X206765903Y-139135902D01*
X206827390Y-139126162D01*
X206939409Y-139108421D01*
X207111639Y-139052461D01*
X207272994Y-138970246D01*
X207419501Y-138863803D01*
X207547553Y-138735751D01*
X207653996Y-138589244D01*
X207736211Y-138427889D01*
X207792171Y-138255659D01*
X207806422Y-138165675D01*
X207817527Y-138095571D01*
X207847456Y-138032436D01*
X207906768Y-137995505D01*
X207976630Y-137996503D01*
X208034863Y-138035113D01*
X208062473Y-138095571D01*
X208087829Y-138255660D01*
X208143787Y-138427886D01*
X208143788Y-138427889D01*
X208189813Y-138518216D01*
X208226003Y-138589243D01*
X208226006Y-138589247D01*
X208332441Y-138735744D01*
X208332445Y-138735749D01*
X208460500Y-138863804D01*
X208460505Y-138863808D01*
X208588287Y-138956646D01*
X208607006Y-138970246D01*
X208683094Y-139009015D01*
X208768360Y-139052461D01*
X208768363Y-139052462D01*
X208853088Y-139079990D01*
X208940591Y-139108421D01*
X209023429Y-139121541D01*
X209119449Y-139136750D01*
X209119454Y-139136750D01*
X209300551Y-139136750D01*
X209387259Y-139123015D01*
X209479409Y-139108421D01*
X209651639Y-139052461D01*
X209812994Y-138970246D01*
X209959501Y-138863803D01*
X210087553Y-138735751D01*
X210193996Y-138589244D01*
X210276211Y-138427889D01*
X210332171Y-138255659D01*
X210346422Y-138165675D01*
X210357527Y-138095571D01*
X210387456Y-138032436D01*
X210446768Y-137995505D01*
X210516630Y-137996503D01*
X210574863Y-138035113D01*
X210602473Y-138095571D01*
X210627829Y-138255660D01*
X210683787Y-138427886D01*
X210683788Y-138427889D01*
X210729813Y-138518216D01*
X210766003Y-138589243D01*
X210766006Y-138589247D01*
X210872441Y-138735744D01*
X210872445Y-138735749D01*
X211000500Y-138863804D01*
X211000505Y-138863808D01*
X211128287Y-138956646D01*
X211147006Y-138970246D01*
X211223094Y-139009015D01*
X211308360Y-139052461D01*
X211308363Y-139052462D01*
X211393088Y-139079990D01*
X211480591Y-139108421D01*
X211563429Y-139121541D01*
X211659449Y-139136750D01*
X211659454Y-139136750D01*
X211840551Y-139136750D01*
X211927259Y-139123015D01*
X212019409Y-139108421D01*
X212191639Y-139052461D01*
X212352994Y-138970246D01*
X212499501Y-138863803D01*
X212627553Y-138735751D01*
X212733996Y-138589244D01*
X212816211Y-138427889D01*
X212872171Y-138255659D01*
X212886422Y-138165675D01*
X212897527Y-138095571D01*
X212927456Y-138032436D01*
X212986768Y-137995505D01*
X213056630Y-137996503D01*
X213114863Y-138035113D01*
X213142473Y-138095571D01*
X213167829Y-138255660D01*
X213223787Y-138427886D01*
X213223788Y-138427889D01*
X213269813Y-138518216D01*
X213306003Y-138589243D01*
X213306006Y-138589247D01*
X213412441Y-138735744D01*
X213412445Y-138735749D01*
X213540500Y-138863804D01*
X213540505Y-138863808D01*
X213668287Y-138956646D01*
X213687006Y-138970246D01*
X213763094Y-139009015D01*
X213848360Y-139052461D01*
X213848363Y-139052462D01*
X213933088Y-139079990D01*
X214020591Y-139108421D01*
X214103429Y-139121541D01*
X214199449Y-139136750D01*
X214199454Y-139136750D01*
X214380551Y-139136750D01*
X214467259Y-139123015D01*
X214559409Y-139108421D01*
X214731639Y-139052461D01*
X214892994Y-138970246D01*
X215039501Y-138863803D01*
X215167553Y-138735751D01*
X215273996Y-138589244D01*
X215356211Y-138427889D01*
X215412171Y-138255659D01*
X215426422Y-138165675D01*
X215437527Y-138095571D01*
X215467456Y-138032436D01*
X215526768Y-137995505D01*
X215596630Y-137996503D01*
X215654863Y-138035113D01*
X215682473Y-138095571D01*
X215707829Y-138255660D01*
X215763787Y-138427886D01*
X215763788Y-138427889D01*
X215809813Y-138518216D01*
X215846003Y-138589243D01*
X215846006Y-138589247D01*
X215952441Y-138735744D01*
X215952445Y-138735749D01*
X216080500Y-138863804D01*
X216080505Y-138863808D01*
X216208287Y-138956646D01*
X216227006Y-138970246D01*
X216303094Y-139009015D01*
X216388360Y-139052461D01*
X216388363Y-139052462D01*
X216473088Y-139079990D01*
X216560591Y-139108421D01*
X216643429Y-139121541D01*
X216739449Y-139136750D01*
X216739454Y-139136750D01*
X216920551Y-139136750D01*
X217007259Y-139123015D01*
X217099409Y-139108421D01*
X217271639Y-139052461D01*
X217432994Y-138970246D01*
X217579501Y-138863803D01*
X217707553Y-138735751D01*
X217813996Y-138589244D01*
X217896211Y-138427889D01*
X217952171Y-138255659D01*
X217966765Y-138163509D01*
X217980500Y-138076801D01*
X217980500Y-137895698D01*
X217964019Y-137791647D01*
X217952171Y-137716841D01*
X217896211Y-137544611D01*
X217896211Y-137544610D01*
X217846614Y-137447273D01*
X217813996Y-137383256D01*
X217720150Y-137254087D01*
X217707558Y-137236755D01*
X217707554Y-137236750D01*
X217579499Y-137108695D01*
X217579494Y-137108691D01*
X217432997Y-137002256D01*
X217432996Y-137002255D01*
X217432994Y-137002254D01*
X217353366Y-136961681D01*
X217271639Y-136920038D01*
X217271636Y-136920037D01*
X217099410Y-136864079D01*
X216920551Y-136835750D01*
X216920546Y-136835750D01*
X216739454Y-136835750D01*
X216739449Y-136835750D01*
X216560589Y-136864079D01*
X216388363Y-136920037D01*
X216388360Y-136920038D01*
X216227002Y-137002256D01*
X216080505Y-137108691D01*
X216080500Y-137108695D01*
X215952445Y-137236750D01*
X215952441Y-137236755D01*
X215846006Y-137383252D01*
X215763788Y-137544610D01*
X215763787Y-137544613D01*
X215707829Y-137716839D01*
X215682473Y-137876928D01*
X215652544Y-137940063D01*
X215593232Y-137976994D01*
X215523369Y-137975996D01*
X215465137Y-137937386D01*
X215437527Y-137876928D01*
X215423740Y-137789889D01*
X215412171Y-137716841D01*
X215356211Y-137544611D01*
X215356211Y-137544610D01*
X215306614Y-137447273D01*
X215273996Y-137383256D01*
X215180150Y-137254087D01*
X215167558Y-137236755D01*
X215167554Y-137236750D01*
X215039499Y-137108695D01*
X215039494Y-137108691D01*
X214892997Y-137002256D01*
X214892996Y-137002255D01*
X214892994Y-137002254D01*
X214813366Y-136961681D01*
X214731639Y-136920038D01*
X214731636Y-136920037D01*
X214559410Y-136864079D01*
X214380551Y-136835750D01*
X214380546Y-136835750D01*
X214199454Y-136835750D01*
X214199449Y-136835750D01*
X214020589Y-136864079D01*
X213848363Y-136920037D01*
X213848360Y-136920038D01*
X213687002Y-137002256D01*
X213540505Y-137108691D01*
X213540500Y-137108695D01*
X213412445Y-137236750D01*
X213412441Y-137236755D01*
X213306006Y-137383252D01*
X213223788Y-137544610D01*
X213223787Y-137544613D01*
X213167829Y-137716839D01*
X213142473Y-137876928D01*
X213112544Y-137940063D01*
X213053232Y-137976994D01*
X212983369Y-137975996D01*
X212925137Y-137937386D01*
X212897527Y-137876928D01*
X212883740Y-137789889D01*
X212872171Y-137716841D01*
X212816211Y-137544611D01*
X212816211Y-137544610D01*
X212766614Y-137447273D01*
X212733996Y-137383256D01*
X212640150Y-137254087D01*
X212627558Y-137236755D01*
X212627554Y-137236750D01*
X212499499Y-137108695D01*
X212499494Y-137108691D01*
X212352997Y-137002256D01*
X212352996Y-137002255D01*
X212352994Y-137002254D01*
X212273366Y-136961681D01*
X212191639Y-136920038D01*
X212191636Y-136920037D01*
X212019410Y-136864079D01*
X211840551Y-136835750D01*
X211840546Y-136835750D01*
X211659454Y-136835750D01*
X211659449Y-136835750D01*
X211480589Y-136864079D01*
X211308363Y-136920037D01*
X211308360Y-136920038D01*
X211147002Y-137002256D01*
X211000505Y-137108691D01*
X211000500Y-137108695D01*
X210872445Y-137236750D01*
X210872441Y-137236755D01*
X210766006Y-137383252D01*
X210683788Y-137544610D01*
X210683787Y-137544613D01*
X210627829Y-137716839D01*
X210602473Y-137876928D01*
X210572544Y-137940063D01*
X210513232Y-137976994D01*
X210443369Y-137975996D01*
X210385137Y-137937386D01*
X210357527Y-137876928D01*
X210343740Y-137789889D01*
X210332171Y-137716841D01*
X210276211Y-137544611D01*
X210276211Y-137544610D01*
X210226614Y-137447273D01*
X210193996Y-137383256D01*
X210100150Y-137254087D01*
X210087558Y-137236755D01*
X210087554Y-137236750D01*
X209959499Y-137108695D01*
X209959494Y-137108691D01*
X209812997Y-137002256D01*
X209812996Y-137002255D01*
X209812994Y-137002254D01*
X209733366Y-136961681D01*
X209651639Y-136920038D01*
X209651636Y-136920037D01*
X209479410Y-136864079D01*
X209300551Y-136835750D01*
X209300546Y-136835750D01*
X209119454Y-136835750D01*
X209119449Y-136835750D01*
X208940589Y-136864079D01*
X208768363Y-136920037D01*
X208768360Y-136920038D01*
X208607002Y-137002256D01*
X208460505Y-137108691D01*
X208460500Y-137108695D01*
X208332445Y-137236750D01*
X208332441Y-137236755D01*
X208226006Y-137383252D01*
X208143788Y-137544610D01*
X208143787Y-137544613D01*
X208087829Y-137716839D01*
X208062473Y-137876928D01*
X208032544Y-137940063D01*
X207973232Y-137976994D01*
X207903369Y-137975996D01*
X207845137Y-137937386D01*
X207817527Y-137876928D01*
X207803740Y-137789889D01*
X207792171Y-137716841D01*
X207736211Y-137544611D01*
X207736211Y-137544610D01*
X207686614Y-137447273D01*
X207653996Y-137383256D01*
X207560150Y-137254087D01*
X207547558Y-137236755D01*
X207547554Y-137236750D01*
X207419499Y-137108695D01*
X207419494Y-137108691D01*
X207272997Y-137002256D01*
X207272996Y-137002255D01*
X207272994Y-137002254D01*
X207138205Y-136933575D01*
X207127140Y-136923125D01*
X207113297Y-136916803D01*
X207102255Y-136899622D01*
X207087409Y-136885600D01*
X207083167Y-136869920D01*
X207075523Y-136858025D01*
X207070500Y-136823090D01*
X207070500Y-136766449D01*
X207090185Y-136699410D01*
X207142989Y-136653655D01*
X207212147Y-136643711D01*
X207256500Y-136659063D01*
X207268216Y-136665827D01*
X207420943Y-136706750D01*
X207420945Y-136706750D01*
X207579055Y-136706750D01*
X207579057Y-136706750D01*
X207731784Y-136665827D01*
X207868716Y-136586770D01*
X207980520Y-136474966D01*
X208059577Y-136338034D01*
X208100500Y-136185307D01*
X208100500Y-136027193D01*
X208100500Y-136019065D01*
X208103627Y-136019065D01*
X208112108Y-135964629D01*
X208136605Y-135929786D01*
X211929571Y-132136818D01*
X211990894Y-132103334D01*
X212017252Y-132100500D01*
X212079053Y-132100500D01*
X212079055Y-132100500D01*
X212231782Y-132059577D01*
X212368714Y-131980520D01*
X212412415Y-131936819D01*
X212473738Y-131903334D01*
X212500096Y-131900500D01*
X216552725Y-131900500D01*
X216552727Y-131900500D01*
X216654588Y-131873207D01*
X216745913Y-131820480D01*
X217285215Y-131281176D01*
X217346536Y-131247693D01*
X217416227Y-131252677D01*
X217434894Y-131261471D01*
X217518216Y-131309577D01*
X217670943Y-131350500D01*
X217670945Y-131350500D01*
X217829055Y-131350500D01*
X217829057Y-131350500D01*
X217981784Y-131309577D01*
X218118716Y-131230520D01*
X218230520Y-131118716D01*
X218309577Y-130981784D01*
X218350500Y-130829057D01*
X218350500Y-130670943D01*
X218309577Y-130518216D01*
X218302380Y-130505750D01*
X218230524Y-130381290D01*
X218230518Y-130381282D01*
X218118717Y-130269481D01*
X218118709Y-130269475D01*
X217981790Y-130190426D01*
X217981786Y-130190424D01*
X217981784Y-130190423D01*
X217829057Y-130149500D01*
X217670943Y-130149500D01*
X217518216Y-130190423D01*
X217518209Y-130190426D01*
X217381290Y-130269475D01*
X217381282Y-130269481D01*
X217337583Y-130313181D01*
X217276260Y-130346666D01*
X217249902Y-130349500D01*
X217197273Y-130349500D01*
X217095410Y-130376793D01*
X217004087Y-130429520D01*
X217004084Y-130429522D01*
X216370426Y-131063181D01*
X216309103Y-131096666D01*
X216282745Y-131099500D01*
X212500096Y-131099500D01*
X212478712Y-131093221D01*
X212456486Y-131091578D01*
X212442561Y-131082605D01*
X212433057Y-131079815D01*
X212425549Y-131074590D01*
X212418584Y-131069350D01*
X212368714Y-131019480D01*
X212298118Y-130978721D01*
X212292101Y-130974195D01*
X212275549Y-130951974D01*
X212256433Y-130931926D01*
X212254972Y-130924350D01*
X212250363Y-130918162D01*
X212248452Y-130890522D01*
X212243209Y-130863319D01*
X212246077Y-130856155D01*
X212245545Y-130848458D01*
X212258880Y-130824174D01*
X212269177Y-130798454D01*
X212278958Y-130787433D01*
X215779906Y-127286487D01*
X215841229Y-127253002D01*
X215867587Y-127250168D01*
X216243320Y-127250168D01*
X216310359Y-127269853D01*
X216331001Y-127286487D01*
X216381284Y-127336770D01*
X216381286Y-127336771D01*
X216381290Y-127336774D01*
X216518209Y-127415823D01*
X216518216Y-127415827D01*
X216670943Y-127456750D01*
X216670945Y-127456750D01*
X216829055Y-127456750D01*
X216829057Y-127456750D01*
X216981784Y-127415827D01*
X217118716Y-127336770D01*
X217230520Y-127224966D01*
X217309577Y-127088034D01*
X217350500Y-126935307D01*
X217350500Y-126777193D01*
X217318051Y-126656091D01*
X217319714Y-126586244D01*
X217358876Y-126528381D01*
X217423105Y-126500877D01*
X217437826Y-126500000D01*
X217750000Y-126500000D01*
X218213681Y-126036319D01*
X218275004Y-126002834D01*
X218301362Y-126000000D01*
X222376000Y-126000000D01*
X222443039Y-126019685D01*
G37*
%TD.AperFunction*%
%TA.AperFunction,Conductor*%
G36*
X195455203Y-139056870D02*
G01*
X195461681Y-139062902D01*
X195487235Y-139088456D01*
X195590009Y-139133835D01*
X195615135Y-139136750D01*
X195902188Y-139136749D01*
X195969227Y-139156433D01*
X196014982Y-139209237D01*
X196021963Y-139228655D01*
X196043608Y-139309436D01*
X196109500Y-139423564D01*
X196109501Y-139423565D01*
X196109502Y-139423566D01*
X196342429Y-139656492D01*
X196342432Y-139656496D01*
X196349500Y-139663564D01*
X196442686Y-139756750D01*
X196556814Y-139822642D01*
X196684107Y-139856750D01*
X196684108Y-139856750D01*
X205741324Y-139856750D01*
X205808363Y-139876435D01*
X205829005Y-139893069D01*
X206963181Y-141027245D01*
X206996666Y-141088568D01*
X206999500Y-141114926D01*
X206999500Y-144738914D01*
X206982888Y-144800913D01*
X206940423Y-144874465D01*
X206940423Y-144874466D01*
X206899500Y-145027193D01*
X206899500Y-145185307D01*
X206906856Y-145212758D01*
X206940423Y-145338033D01*
X206940424Y-145338036D01*
X206982887Y-145411584D01*
X206999500Y-145473584D01*
X206999500Y-146482250D01*
X206979815Y-146549289D01*
X206927011Y-146595044D01*
X206875500Y-146606250D01*
X201749999Y-146606250D01*
X200036319Y-148319931D01*
X199974996Y-148353416D01*
X199948638Y-148356250D01*
X191663095Y-148356250D01*
X191596056Y-148336565D01*
X191575414Y-148319931D01*
X191506217Y-148250734D01*
X191506209Y-148250728D01*
X191369290Y-148171679D01*
X191369286Y-148171677D01*
X191369284Y-148171676D01*
X191216557Y-148130753D01*
X191058443Y-148130753D01*
X190905716Y-148171676D01*
X190905709Y-148171679D01*
X190768790Y-148250728D01*
X190768782Y-148250734D01*
X190699586Y-148319931D01*
X190638263Y-148353416D01*
X190611905Y-148356250D01*
X188874000Y-148356250D01*
X188806961Y-148336565D01*
X188761206Y-148283761D01*
X188750000Y-148232250D01*
X188750000Y-146356250D01*
X178124500Y-146356250D01*
X178057461Y-146336565D01*
X178011706Y-146283761D01*
X178000500Y-146232250D01*
X178000500Y-140124000D01*
X178020185Y-140056961D01*
X178072989Y-140011206D01*
X178124500Y-140000000D01*
X195250000Y-140000000D01*
X195250000Y-139150583D01*
X195269685Y-139083544D01*
X195322489Y-139037789D01*
X195391647Y-139027845D01*
X195455203Y-139056870D01*
G37*
%TD.AperFunction*%
%TA.AperFunction,Conductor*%
G36*
X246942539Y-140019685D02*
G01*
X246988294Y-140072489D01*
X246999500Y-140124000D01*
X246999500Y-146232250D01*
X246979815Y-146299289D01*
X246927011Y-146345044D01*
X246875500Y-146356250D01*
X242874500Y-146356250D01*
X242807461Y-146336565D01*
X242761706Y-146283761D01*
X242750500Y-146232250D01*
X242750500Y-145501036D01*
X242767113Y-145439036D01*
X242774218Y-145426730D01*
X242809577Y-145365486D01*
X242850500Y-145212759D01*
X242850500Y-145054645D01*
X242809577Y-144901918D01*
X242785572Y-144860339D01*
X242730524Y-144764992D01*
X242730518Y-144764984D01*
X242686819Y-144721285D01*
X242653334Y-144659962D01*
X242650500Y-144633604D01*
X242650500Y-142053525D01*
X242650500Y-142053523D01*
X242623207Y-141951662D01*
X242570480Y-141860337D01*
X240921824Y-140211681D01*
X240888339Y-140150358D01*
X240893323Y-140080666D01*
X240935195Y-140024733D01*
X241000659Y-140000316D01*
X241009505Y-140000000D01*
X246875500Y-140000000D01*
X246942539Y-140019685D01*
G37*
%TD.AperFunction*%
%TA.AperFunction,Conductor*%
G36*
X221143941Y-138852143D02*
G01*
X221151628Y-138851611D01*
X221175920Y-138864945D01*
X221201651Y-138875247D01*
X221207969Y-138882539D01*
X221212877Y-138885233D01*
X221217198Y-138893190D01*
X221232385Y-138910716D01*
X221255282Y-138950375D01*
X221269479Y-138974965D01*
X221313181Y-139018667D01*
X221346666Y-139079990D01*
X221349500Y-139106348D01*
X221349500Y-143638995D01*
X221329815Y-143706034D01*
X221313181Y-143726676D01*
X220370426Y-144669431D01*
X220309103Y-144702916D01*
X220282745Y-144705750D01*
X216924500Y-144705750D01*
X216857461Y-144686065D01*
X216811706Y-144633261D01*
X216800500Y-144581750D01*
X216800500Y-144420945D01*
X216800500Y-144420943D01*
X216759577Y-144268216D01*
X216737816Y-144230524D01*
X216680524Y-144131290D01*
X216680521Y-144131287D01*
X216680520Y-144131284D01*
X216680517Y-144131281D01*
X216680261Y-144130947D01*
X216680128Y-144130604D01*
X216676457Y-144124245D01*
X216677448Y-144123672D01*
X216655066Y-144065778D01*
X216669104Y-143997333D01*
X216690952Y-143967781D01*
X216929574Y-143729160D01*
X216990897Y-143695675D01*
X217017255Y-143692841D01*
X217079055Y-143692841D01*
X217079057Y-143692841D01*
X217231784Y-143651918D01*
X217368716Y-143572861D01*
X217431536Y-143510040D01*
X217492855Y-143476558D01*
X217562547Y-143481542D01*
X217618481Y-143523413D01*
X217642898Y-143588877D01*
X217638989Y-143629817D01*
X217622102Y-143692840D01*
X217599500Y-143777193D01*
X217599500Y-143935307D01*
X217639604Y-144084975D01*
X217640423Y-144088033D01*
X217640426Y-144088040D01*
X217719475Y-144224959D01*
X217719479Y-144224964D01*
X217719480Y-144224966D01*
X217831284Y-144336770D01*
X217831286Y-144336771D01*
X217831290Y-144336774D01*
X217932147Y-144395003D01*
X217968216Y-144415827D01*
X218120943Y-144456750D01*
X218120945Y-144456750D01*
X218279055Y-144456750D01*
X218279057Y-144456750D01*
X218431784Y-144415827D01*
X218568716Y-144336770D01*
X218680520Y-144224966D01*
X218759577Y-144088034D01*
X218800500Y-143935307D01*
X218800500Y-143777193D01*
X218759577Y-143624466D01*
X218743113Y-143595949D01*
X218680524Y-143487540D01*
X218680518Y-143487532D01*
X218636819Y-143443833D01*
X218603334Y-143382510D01*
X218600500Y-143356152D01*
X218600500Y-141355348D01*
X218620185Y-141288309D01*
X218672989Y-141242554D01*
X218742147Y-141232610D01*
X218805703Y-141261635D01*
X218812181Y-141267667D01*
X218881284Y-141336770D01*
X218881286Y-141336771D01*
X218881290Y-141336774D01*
X219018209Y-141415823D01*
X219018216Y-141415827D01*
X219170943Y-141456750D01*
X219170945Y-141456750D01*
X219329055Y-141456750D01*
X219329057Y-141456750D01*
X219481784Y-141415827D01*
X219618716Y-141336770D01*
X219730520Y-141224966D01*
X219809577Y-141088034D01*
X219850500Y-140935307D01*
X219850500Y-140777193D01*
X219809577Y-140624466D01*
X219808275Y-140622210D01*
X219730524Y-140487540D01*
X219730518Y-140487532D01*
X219686819Y-140443833D01*
X219653334Y-140382510D01*
X219650500Y-140356152D01*
X219650500Y-139106348D01*
X219656775Y-139084974D01*
X219658415Y-139062755D01*
X219667391Y-139048821D01*
X219670185Y-139039309D01*
X219675399Y-139031816D01*
X219680643Y-139024842D01*
X219730520Y-138974966D01*
X219771377Y-138904197D01*
X219775899Y-138898186D01*
X219798121Y-138881627D01*
X219818179Y-138862503D01*
X219825746Y-138861044D01*
X219831926Y-138856440D01*
X219859570Y-138854524D01*
X219886786Y-138849279D01*
X219893941Y-138852143D01*
X219901628Y-138851611D01*
X219925920Y-138864945D01*
X219951651Y-138875247D01*
X219957969Y-138882539D01*
X219962877Y-138885233D01*
X219967198Y-138893190D01*
X219982385Y-138910716D01*
X220005282Y-138950375D01*
X220019479Y-138974965D01*
X220063181Y-139018667D01*
X220096666Y-139079990D01*
X220099500Y-139106348D01*
X220099500Y-141106152D01*
X220079815Y-141173191D01*
X220063181Y-141193833D01*
X220019481Y-141237532D01*
X220019475Y-141237540D01*
X219940426Y-141374459D01*
X219940423Y-141374466D01*
X219899500Y-141527193D01*
X219899500Y-141685307D01*
X219930927Y-141802592D01*
X219940423Y-141838033D01*
X219940426Y-141838040D01*
X220019475Y-141974959D01*
X220019479Y-141974964D01*
X220019480Y-141974966D01*
X220131284Y-142086770D01*
X220131286Y-142086771D01*
X220131290Y-142086774D01*
X220268209Y-142165823D01*
X220268216Y-142165827D01*
X220420943Y-142206750D01*
X220420945Y-142206750D01*
X220579055Y-142206750D01*
X220579057Y-142206750D01*
X220731784Y-142165827D01*
X220868716Y-142086770D01*
X220980520Y-141974966D01*
X221059577Y-141838034D01*
X221100500Y-141685307D01*
X221100500Y-141527193D01*
X221059577Y-141374466D01*
X221059573Y-141374459D01*
X220980524Y-141237540D01*
X220980518Y-141237532D01*
X220936819Y-141193833D01*
X220903334Y-141132510D01*
X220900500Y-141106152D01*
X220900500Y-139106348D01*
X220906775Y-139084974D01*
X220908415Y-139062755D01*
X220917391Y-139048821D01*
X220920185Y-139039309D01*
X220925399Y-139031816D01*
X220930643Y-139024842D01*
X220980520Y-138974966D01*
X221021377Y-138904197D01*
X221025899Y-138898186D01*
X221048121Y-138881627D01*
X221068179Y-138862503D01*
X221075746Y-138861044D01*
X221081926Y-138856440D01*
X221109570Y-138854524D01*
X221136786Y-138849279D01*
X221143941Y-138852143D01*
G37*
%TD.AperFunction*%
%TA.AperFunction,Conductor*%
G36*
X216443039Y-125019685D02*
G01*
X216488794Y-125072489D01*
X216500000Y-125124000D01*
X216500000Y-126235597D01*
X216480315Y-126302636D01*
X216438001Y-126342983D01*
X216381290Y-126375725D01*
X216381281Y-126375732D01*
X216344165Y-126412849D01*
X216282842Y-126446334D01*
X216256484Y-126449168D01*
X215597605Y-126449168D01*
X215495745Y-126476461D01*
X215495742Y-126476462D01*
X215423423Y-126518216D01*
X215404422Y-126529186D01*
X215404416Y-126529190D01*
X206349522Y-135584084D01*
X206349520Y-135584087D01*
X206296791Y-135675414D01*
X206275714Y-135754083D01*
X206275713Y-135754088D01*
X206269500Y-135777272D01*
X206269500Y-136823090D01*
X206249815Y-136890129D01*
X206201795Y-136933575D01*
X206067002Y-137002256D01*
X205920505Y-137108691D01*
X205920500Y-137108695D01*
X205792445Y-137236750D01*
X205792441Y-137236755D01*
X205686006Y-137383252D01*
X205603788Y-137544610D01*
X205603787Y-137544613D01*
X205547829Y-137716839D01*
X205522473Y-137876928D01*
X205492544Y-137940063D01*
X205433232Y-137976994D01*
X205363369Y-137975996D01*
X205305137Y-137937386D01*
X205277527Y-137876928D01*
X205263740Y-137789889D01*
X205252171Y-137716841D01*
X205196211Y-137544611D01*
X205196211Y-137544610D01*
X205146614Y-137447273D01*
X205113996Y-137383256D01*
X205020150Y-137254087D01*
X205007558Y-137236755D01*
X205007554Y-137236750D01*
X204879499Y-137108695D01*
X204879494Y-137108691D01*
X204732997Y-137002256D01*
X204732996Y-137002255D01*
X204732994Y-137002254D01*
X204653366Y-136961681D01*
X204571639Y-136920038D01*
X204571636Y-136920037D01*
X204399410Y-136864079D01*
X204220551Y-136835750D01*
X204220546Y-136835750D01*
X204039454Y-136835750D01*
X204039449Y-136835750D01*
X203860589Y-136864079D01*
X203688363Y-136920037D01*
X203688360Y-136920038D01*
X203527002Y-137002256D01*
X203380505Y-137108691D01*
X203380500Y-137108695D01*
X203252445Y-137236750D01*
X203252441Y-137236755D01*
X203146006Y-137383252D01*
X203063788Y-137544610D01*
X203063787Y-137544613D01*
X203007829Y-137716839D01*
X202982473Y-137876928D01*
X202952544Y-137940063D01*
X202893232Y-137976994D01*
X202823369Y-137975996D01*
X202765137Y-137937386D01*
X202737527Y-137876928D01*
X202723740Y-137789889D01*
X202712171Y-137716841D01*
X202656211Y-137544611D01*
X202656211Y-137544610D01*
X202606614Y-137447273D01*
X202573996Y-137383256D01*
X202480150Y-137254087D01*
X202467558Y-137236755D01*
X202467554Y-137236750D01*
X202339499Y-137108695D01*
X202339494Y-137108691D01*
X202192997Y-137002256D01*
X202192996Y-137002255D01*
X202192994Y-137002254D01*
X202113366Y-136961681D01*
X202031639Y-136920038D01*
X202031636Y-136920037D01*
X201859410Y-136864079D01*
X201680551Y-136835750D01*
X201680546Y-136835750D01*
X201499454Y-136835750D01*
X201499449Y-136835750D01*
X201320589Y-136864079D01*
X201148363Y-136920037D01*
X201148360Y-136920038D01*
X200987002Y-137002256D01*
X200840505Y-137108691D01*
X200840500Y-137108695D01*
X200712445Y-137236750D01*
X200712441Y-137236755D01*
X200606006Y-137383252D01*
X200523788Y-137544610D01*
X200523787Y-137544613D01*
X200467829Y-137716839D01*
X200439500Y-137895698D01*
X200439500Y-138076801D01*
X200467829Y-138255660D01*
X200523787Y-138427886D01*
X200523788Y-138427889D01*
X200606003Y-138589243D01*
X200656586Y-138658865D01*
X200680065Y-138724672D01*
X200664239Y-138792726D01*
X200614133Y-138841420D01*
X200556267Y-138855750D01*
X197784500Y-138855750D01*
X197717461Y-138836065D01*
X197671706Y-138783261D01*
X197660500Y-138731750D01*
X197660499Y-137091393D01*
X197660499Y-137091386D01*
X197660497Y-137091367D01*
X197657586Y-137066262D01*
X197657585Y-137066260D01*
X197657585Y-137066259D01*
X197612206Y-136963485D01*
X197610402Y-136961681D01*
X197608169Y-136957592D01*
X197605712Y-136954005D01*
X197606074Y-136953756D01*
X197576917Y-136900358D01*
X197581901Y-136830666D01*
X197623773Y-136774733D01*
X197689237Y-136750316D01*
X197698083Y-136750000D01*
X200500000Y-136750000D01*
X202463681Y-134786319D01*
X202525004Y-134752834D01*
X202551362Y-134750000D01*
X206750000Y-134750000D01*
X208500000Y-133000000D01*
X208500000Y-131124000D01*
X208519685Y-131056961D01*
X208572489Y-131011206D01*
X208624000Y-131000000D01*
X210250000Y-131000000D01*
X211500000Y-129750000D01*
X211500000Y-125124000D01*
X211519685Y-125056961D01*
X211572489Y-125011206D01*
X211624000Y-125000000D01*
X216376000Y-125000000D01*
X216443039Y-125019685D01*
G37*
%TD.AperFunction*%
%TD*%
%TA.AperFunction,Conductor*%
%TO.N,GND*%
G36*
X246878012Y-98460031D02*
G01*
X246944636Y-98481067D01*
X246989314Y-98534786D01*
X246999500Y-98584005D01*
X246999500Y-139338993D01*
X246979815Y-139406032D01*
X246927011Y-139451787D01*
X246875994Y-139462992D01*
X236137496Y-139505749D01*
X236137002Y-139505750D01*
X224906347Y-139505750D01*
X224839308Y-139486065D01*
X224818666Y-139469431D01*
X224386819Y-139037584D01*
X224353334Y-138976261D01*
X224350500Y-138949903D01*
X224350500Y-137420944D01*
X224350499Y-137420939D01*
X224349789Y-137418287D01*
X224309576Y-137268213D01*
X224302364Y-137255722D01*
X224275453Y-137209111D01*
X224274309Y-137207130D01*
X224266610Y-137193793D01*
X224250000Y-137131798D01*
X224250000Y-136750000D01*
X223034147Y-135534147D01*
X223000662Y-135472824D01*
X222999091Y-135428820D01*
X223005500Y-135384245D01*
X223005500Y-126124000D01*
X222993947Y-126016544D01*
X222982741Y-125965033D01*
X222975014Y-125941816D01*
X222948616Y-125862502D01*
X222948613Y-125862496D01*
X222870828Y-125741462D01*
X222870825Y-125741457D01*
X222870820Y-125741451D01*
X222825076Y-125688659D01*
X222825072Y-125688656D01*
X222825070Y-125688653D01*
X222716336Y-125594433D01*
X222716333Y-125594431D01*
X222716331Y-125594430D01*
X222585465Y-125534664D01*
X222585460Y-125534662D01*
X222585459Y-125534662D01*
X222518420Y-125514977D01*
X222518422Y-125514977D01*
X222518417Y-125514976D01*
X222470944Y-125508150D01*
X222376000Y-125494500D01*
X218301362Y-125494500D01*
X218301360Y-125494500D01*
X218247311Y-125497397D01*
X218247310Y-125497397D01*
X218220977Y-125500229D01*
X218220950Y-125500232D01*
X218167554Y-125508885D01*
X218167552Y-125508885D01*
X218032747Y-125559166D01*
X217971422Y-125592651D01*
X217856240Y-125678876D01*
X217856228Y-125678886D01*
X217576935Y-125958181D01*
X217515612Y-125991666D01*
X217489254Y-125994500D01*
X217437825Y-125994500D01*
X217407774Y-125995394D01*
X217393025Y-125996273D01*
X217363095Y-125998952D01*
X217224126Y-126036187D01*
X217224118Y-126036189D01*
X217178312Y-126055805D01*
X217108936Y-126064099D01*
X217046089Y-126033569D01*
X217009725Y-125973908D01*
X217005500Y-125941816D01*
X217005500Y-125124010D01*
X217005500Y-125124000D01*
X216993947Y-125016544D01*
X216982741Y-124965033D01*
X216982637Y-124964722D01*
X216948616Y-124862502D01*
X216948613Y-124862496D01*
X216870828Y-124741462D01*
X216870825Y-124741457D01*
X216841145Y-124707204D01*
X216825076Y-124688659D01*
X216825072Y-124688656D01*
X216825070Y-124688653D01*
X216716336Y-124594433D01*
X216716333Y-124594431D01*
X216716331Y-124594430D01*
X216585465Y-124534664D01*
X216585460Y-124534662D01*
X216585459Y-124534662D01*
X216518420Y-124514977D01*
X216518422Y-124514977D01*
X216518417Y-124514976D01*
X216456347Y-124506052D01*
X216376000Y-124494500D01*
X211624000Y-124494500D01*
X211623991Y-124494500D01*
X211623990Y-124494501D01*
X211516549Y-124506052D01*
X211516537Y-124506054D01*
X211465027Y-124517260D01*
X211362502Y-124551383D01*
X211362496Y-124551386D01*
X211241462Y-124629171D01*
X211241458Y-124629173D01*
X211188653Y-124674930D01*
X211160687Y-124707204D01*
X211101908Y-124744978D01*
X211066975Y-124750000D01*
X211000000Y-124750000D01*
X211000000Y-125076877D01*
X210998738Y-125094523D01*
X210994500Y-125123998D01*
X210994500Y-126416108D01*
X210974815Y-126483147D01*
X210922011Y-126528902D01*
X210852853Y-126538846D01*
X210801610Y-126519211D01*
X210770138Y-126498182D01*
X210770127Y-126498176D01*
X210624456Y-126437838D01*
X210624444Y-126437835D01*
X210469800Y-126407074D01*
X210469797Y-126407074D01*
X210312113Y-126407074D01*
X210312110Y-126407074D01*
X210157465Y-126437835D01*
X210157453Y-126437838D01*
X210011782Y-126498176D01*
X210011769Y-126498183D01*
X209880666Y-126585784D01*
X209880662Y-126585787D01*
X209769168Y-126697281D01*
X209769165Y-126697285D01*
X209681564Y-126828388D01*
X209681557Y-126828401D01*
X209621219Y-126974072D01*
X209621216Y-126974084D01*
X209590455Y-127128727D01*
X209590455Y-127128732D01*
X209590455Y-127286416D01*
X209590455Y-127286418D01*
X209590454Y-127286418D01*
X209604606Y-127357558D01*
X209598379Y-127427150D01*
X209555516Y-127482327D01*
X209489627Y-127505572D01*
X209482989Y-127505750D01*
X205829766Y-127505750D01*
X205762727Y-127486065D01*
X205760875Y-127484852D01*
X205629185Y-127396859D01*
X205629172Y-127396852D01*
X205483501Y-127336514D01*
X205483489Y-127336511D01*
X205328845Y-127305750D01*
X205328842Y-127305750D01*
X205171158Y-127305750D01*
X205171155Y-127305750D01*
X205016510Y-127336511D01*
X205016498Y-127336514D01*
X204870827Y-127396852D01*
X204870814Y-127396859D01*
X204739711Y-127484460D01*
X204739707Y-127484463D01*
X204628213Y-127595957D01*
X204628210Y-127595961D01*
X204540609Y-127727064D01*
X204540602Y-127727077D01*
X204480264Y-127872748D01*
X204480261Y-127872760D01*
X204449500Y-128027403D01*
X204449500Y-128185096D01*
X204480261Y-128339739D01*
X204480264Y-128339751D01*
X204540602Y-128485422D01*
X204540609Y-128485435D01*
X204628210Y-128616538D01*
X204628213Y-128616542D01*
X204739707Y-128728036D01*
X204739711Y-128728039D01*
X204870814Y-128815640D01*
X204870827Y-128815647D01*
X205016498Y-128875985D01*
X205016503Y-128875987D01*
X205171153Y-128906749D01*
X205171156Y-128906750D01*
X205171158Y-128906750D01*
X205328844Y-128906750D01*
X205328845Y-128906749D01*
X205483497Y-128875987D01*
X205629179Y-128815644D01*
X205629185Y-128815640D01*
X205760875Y-128727648D01*
X205827553Y-128706770D01*
X205829766Y-128706750D01*
X209973215Y-128706750D01*
X209973231Y-128706751D01*
X209980827Y-128706751D01*
X210138938Y-128706751D01*
X210138941Y-128706751D01*
X210291669Y-128665827D01*
X210341788Y-128636889D01*
X210428600Y-128586770D01*
X210540404Y-128474966D01*
X210540404Y-128474964D01*
X210550612Y-128464757D01*
X210550614Y-128464754D01*
X210759668Y-128255700D01*
X210759671Y-128255699D01*
X210782823Y-128232547D01*
X210814225Y-128215401D01*
X210844142Y-128199066D01*
X210844144Y-128199066D01*
X210844147Y-128199065D01*
X210875684Y-128201321D01*
X210913834Y-128204050D01*
X210913836Y-128204051D01*
X210913839Y-128204052D01*
X210941715Y-128224922D01*
X210969767Y-128245922D01*
X210969767Y-128245924D01*
X210969770Y-128245926D01*
X210977223Y-128265911D01*
X210994184Y-128311386D01*
X210994500Y-128320232D01*
X210994500Y-129489254D01*
X210974815Y-129556293D01*
X210958181Y-129576935D01*
X210076935Y-130458181D01*
X210015612Y-130491666D01*
X209989254Y-130494500D01*
X208624000Y-130494500D01*
X208623991Y-130494500D01*
X208623990Y-130494501D01*
X208516549Y-130506052D01*
X208516537Y-130506054D01*
X208465027Y-130517260D01*
X208362502Y-130551383D01*
X208362496Y-130551386D01*
X208241462Y-130629171D01*
X208241451Y-130629179D01*
X208188659Y-130674923D01*
X208105671Y-130770693D01*
X208105672Y-130770694D01*
X208094432Y-130783664D01*
X208094430Y-130783668D01*
X208034664Y-130914534D01*
X208014976Y-130981582D01*
X207994500Y-131124001D01*
X207994500Y-132739254D01*
X207974815Y-132806293D01*
X207958181Y-132826935D01*
X206576935Y-134208181D01*
X206550007Y-134222884D01*
X206524189Y-134239477D01*
X206517988Y-134240368D01*
X206515612Y-134241666D01*
X206489254Y-134244500D01*
X206404097Y-134244500D01*
X206337058Y-134224815D01*
X206291303Y-134172011D01*
X206281359Y-134102853D01*
X206310384Y-134039297D01*
X206316416Y-134032819D01*
X206641524Y-133707711D01*
X207230520Y-133118716D01*
X207309577Y-132981784D01*
X207350501Y-132829057D01*
X207350501Y-132670942D01*
X207350501Y-132663347D01*
X207350500Y-132663329D01*
X207350500Y-131579765D01*
X207370185Y-131512726D01*
X207371398Y-131510874D01*
X207459390Y-131379185D01*
X207459390Y-131379184D01*
X207459394Y-131379179D01*
X207519737Y-131233497D01*
X207550500Y-131078842D01*
X207550500Y-130921158D01*
X207550500Y-130921155D01*
X207550499Y-130921153D01*
X207523151Y-130783668D01*
X207519737Y-130766503D01*
X207462856Y-130629179D01*
X207459397Y-130620827D01*
X207459390Y-130620814D01*
X207371789Y-130489711D01*
X207371786Y-130489707D01*
X207260292Y-130378213D01*
X207260288Y-130378210D01*
X207129185Y-130290609D01*
X207129172Y-130290602D01*
X206983501Y-130230264D01*
X206983489Y-130230261D01*
X206828845Y-130199500D01*
X206828842Y-130199500D01*
X206671158Y-130199500D01*
X206671155Y-130199500D01*
X206516510Y-130230261D01*
X206516498Y-130230264D01*
X206370827Y-130290602D01*
X206370814Y-130290609D01*
X206239711Y-130378210D01*
X206239707Y-130378213D01*
X206128213Y-130489707D01*
X206128210Y-130489711D01*
X206040609Y-130620814D01*
X206040602Y-130620827D01*
X205980264Y-130766498D01*
X205980261Y-130766510D01*
X205949500Y-130921153D01*
X205949500Y-131078846D01*
X205980261Y-131233489D01*
X205980264Y-131233501D01*
X206040602Y-131379172D01*
X206040609Y-131379185D01*
X206128602Y-131510874D01*
X206149480Y-131577551D01*
X206149500Y-131579765D01*
X206149500Y-132449902D01*
X206129815Y-132516941D01*
X206113181Y-132537583D01*
X205162584Y-133488181D01*
X205101261Y-133521666D01*
X205074903Y-133524500D01*
X201836669Y-133524500D01*
X201836653Y-133524499D01*
X201829057Y-133524499D01*
X201670943Y-133524499D01*
X201591010Y-133545917D01*
X201518216Y-133565422D01*
X201478200Y-133588526D01*
X201478199Y-133588525D01*
X201381287Y-133644477D01*
X201381282Y-133644481D01*
X201269478Y-133756286D01*
X199412584Y-135613181D01*
X199351261Y-135646666D01*
X199324903Y-135649500D01*
X193236727Y-135649500D01*
X193236711Y-135649499D01*
X193229115Y-135649499D01*
X193071000Y-135649499D01*
X192994636Y-135669961D01*
X192918271Y-135690423D01*
X192918266Y-135690426D01*
X192781347Y-135769475D01*
X192781339Y-135769481D01*
X191437641Y-137113181D01*
X191376318Y-137146666D01*
X191349960Y-137149500D01*
X186879500Y-137149500D01*
X186812461Y-137129815D01*
X186766706Y-137077011D01*
X186755500Y-137025500D01*
X186755500Y-113880987D01*
X186775185Y-113813948D01*
X186827989Y-113768193D01*
X186879790Y-113756987D01*
X193944821Y-113773668D01*
X194011812Y-113793511D01*
X194057442Y-113846423D01*
X194067222Y-113915605D01*
X194047632Y-113966553D01*
X194040611Y-113977061D01*
X194040602Y-113977077D01*
X193980264Y-114122748D01*
X193980261Y-114122760D01*
X193949500Y-114277403D01*
X193949500Y-114435096D01*
X193980261Y-114589739D01*
X193980264Y-114589751D01*
X194040602Y-114735422D01*
X194040609Y-114735435D01*
X194128210Y-114866538D01*
X194128213Y-114866542D01*
X194239707Y-114978036D01*
X194239711Y-114978039D01*
X194370814Y-115065640D01*
X194370827Y-115065647D01*
X194505921Y-115121604D01*
X194516503Y-115125987D01*
X194671158Y-115156750D01*
X194671847Y-115156887D01*
X194688284Y-115165485D01*
X194706438Y-115169322D01*
X194732055Y-115188381D01*
X194733758Y-115189272D01*
X194734817Y-115190306D01*
X194735072Y-115190558D01*
X194881284Y-115336770D01*
X194885466Y-115339184D01*
X194894587Y-115348198D01*
X194907904Y-115372247D01*
X194924119Y-115394458D01*
X194924590Y-115402380D01*
X194928434Y-115409322D01*
X194926635Y-115436754D01*
X194928268Y-115464204D01*
X194924373Y-115471234D01*
X194923862Y-115479042D01*
X194908672Y-115499585D01*
X194895108Y-115524076D01*
X194859885Y-115559299D01*
X194859881Y-115559304D01*
X194772280Y-115690407D01*
X194772273Y-115690420D01*
X194711935Y-115836091D01*
X194711932Y-115836103D01*
X194681171Y-115990746D01*
X194681171Y-116148439D01*
X194711932Y-116303082D01*
X194711935Y-116303094D01*
X194772273Y-116448765D01*
X194772280Y-116448778D01*
X194859881Y-116579881D01*
X194859884Y-116579885D01*
X194971378Y-116691379D01*
X194971382Y-116691382D01*
X195102485Y-116778983D01*
X195102498Y-116778990D01*
X195220915Y-116828039D01*
X195248174Y-116839330D01*
X195402829Y-116870093D01*
X195403518Y-116870230D01*
X195465429Y-116902615D01*
X195467008Y-116904166D01*
X195649612Y-117086770D01*
X195649614Y-117086771D01*
X195649618Y-117086774D01*
X195786537Y-117165823D01*
X195786544Y-117165827D01*
X195939271Y-117206751D01*
X195939273Y-117206751D01*
X196104982Y-117206751D01*
X196104998Y-117206750D01*
X200449903Y-117206750D01*
X200516942Y-117226435D01*
X200537584Y-117243069D01*
X201265139Y-117970624D01*
X201265149Y-117970635D01*
X201269479Y-117974965D01*
X201269480Y-117974966D01*
X201381284Y-118086770D01*
X201381286Y-118086771D01*
X201381290Y-118086774D01*
X201518209Y-118165823D01*
X201518216Y-118165827D01*
X201670943Y-118206750D01*
X206920234Y-118206750D01*
X206987273Y-118226435D01*
X206989125Y-118227648D01*
X207120814Y-118315640D01*
X207120827Y-118315647D01*
X207266498Y-118375985D01*
X207266503Y-118375987D01*
X207421153Y-118406749D01*
X207421156Y-118406750D01*
X207421158Y-118406750D01*
X207578844Y-118406750D01*
X207578845Y-118406749D01*
X207733497Y-118375987D01*
X207879179Y-118315644D01*
X208010289Y-118228039D01*
X208121789Y-118116539D01*
X208209394Y-117985429D01*
X208269737Y-117839747D01*
X208300500Y-117685092D01*
X208300500Y-117681087D01*
X208301093Y-117679064D01*
X208301097Y-117679032D01*
X208301103Y-117679032D01*
X208320185Y-117614048D01*
X208372989Y-117568293D01*
X208376986Y-117566552D01*
X208379179Y-117565644D01*
X208510289Y-117478039D01*
X208621789Y-117366539D01*
X208709394Y-117235429D01*
X208769737Y-117089747D01*
X208784721Y-117014415D01*
X208817104Y-116952509D01*
X208858884Y-116924049D01*
X208879179Y-116915644D01*
X209010289Y-116828039D01*
X209121789Y-116716539D01*
X209209394Y-116585429D01*
X209269737Y-116439747D01*
X209300500Y-116285092D01*
X209300500Y-116127408D01*
X209299732Y-116123549D01*
X209296031Y-116104940D01*
X209297909Y-116083955D01*
X209294911Y-116063103D01*
X209300961Y-116049853D01*
X209302260Y-116035349D01*
X209315183Y-116018713D01*
X209323936Y-115999547D01*
X209336189Y-115991672D01*
X209345123Y-115980172D01*
X209364989Y-115973163D01*
X209382714Y-115961773D01*
X209407299Y-115958238D01*
X209411013Y-115956928D01*
X209417649Y-115956750D01*
X209449903Y-115956750D01*
X209516942Y-115976435D01*
X209537584Y-115993069D01*
X211029393Y-117484878D01*
X211062878Y-117546201D01*
X211063329Y-117548367D01*
X211080261Y-117633491D01*
X211080264Y-117633501D01*
X211140602Y-117779172D01*
X211140609Y-117779185D01*
X211228210Y-117910288D01*
X211228213Y-117910292D01*
X211339709Y-118021788D01*
X211470814Y-118109390D01*
X211470827Y-118109397D01*
X211607061Y-118165826D01*
X211616503Y-118169737D01*
X211757886Y-118197860D01*
X211771153Y-118200499D01*
X211771156Y-118200500D01*
X211771158Y-118200500D01*
X211928844Y-118200500D01*
X211928845Y-118200499D01*
X212083497Y-118169737D01*
X212229179Y-118109394D01*
X212360289Y-118021789D01*
X212377317Y-118004759D01*
X212438638Y-117971274D01*
X212508330Y-117976257D01*
X212552680Y-118004759D01*
X212589707Y-118041786D01*
X212589711Y-118041789D01*
X212720814Y-118129390D01*
X212720827Y-118129397D01*
X212866498Y-118189735D01*
X212866503Y-118189737D01*
X213021153Y-118220499D01*
X213021156Y-118220500D01*
X213021158Y-118220500D01*
X213178844Y-118220500D01*
X213178845Y-118220499D01*
X213333497Y-118189737D01*
X213479179Y-118129394D01*
X213610289Y-118041789D01*
X213631579Y-118020499D01*
X213672319Y-117979760D01*
X213733642Y-117946275D01*
X213803334Y-117951259D01*
X213847681Y-117979760D01*
X213917832Y-118049911D01*
X213917836Y-118049914D01*
X214048939Y-118137515D01*
X214048952Y-118137522D01*
X214194623Y-118197860D01*
X214194628Y-118197862D01*
X214338273Y-118226435D01*
X214349278Y-118228624D01*
X214349281Y-118228625D01*
X214349283Y-118228625D01*
X214506969Y-118228625D01*
X214506970Y-118228624D01*
X214661622Y-118197862D01*
X214807304Y-118137519D01*
X214938414Y-118049914D01*
X215049914Y-117938414D01*
X215137519Y-117807304D01*
X215197862Y-117661622D01*
X215228625Y-117506967D01*
X215228625Y-117349283D01*
X215228625Y-117349280D01*
X215228624Y-117349278D01*
X215212158Y-117266498D01*
X215197862Y-117194628D01*
X215185931Y-117165823D01*
X215137522Y-117048952D01*
X215137515Y-117048939D01*
X215049523Y-116917250D01*
X215028645Y-116850572D01*
X215028625Y-116848359D01*
X215028625Y-116371972D01*
X215048310Y-116304933D01*
X215064944Y-116284291D01*
X215356167Y-115993069D01*
X215417490Y-115959584D01*
X215443848Y-115956750D01*
X215731538Y-115956750D01*
X215798577Y-115976435D01*
X215844332Y-116029239D01*
X215854276Y-116098397D01*
X215846100Y-116128200D01*
X215839842Y-116143307D01*
X215839839Y-116143319D01*
X215809078Y-116297962D01*
X215809078Y-116455655D01*
X215839839Y-116610298D01*
X215839842Y-116610310D01*
X215900180Y-116755981D01*
X215900187Y-116755994D01*
X215987788Y-116887097D01*
X215987791Y-116887101D01*
X216041107Y-116940416D01*
X216074593Y-117001739D01*
X216069609Y-117071431D01*
X216056531Y-117096986D01*
X216040610Y-117120814D01*
X216040602Y-117120828D01*
X215980264Y-117266498D01*
X215980261Y-117266510D01*
X215949500Y-117421153D01*
X215949500Y-117578846D01*
X215980261Y-117733489D01*
X215980264Y-117733501D01*
X216040602Y-117879172D01*
X216040609Y-117879185D01*
X216128210Y-118010288D01*
X216128213Y-118010292D01*
X216239707Y-118121786D01*
X216239711Y-118121789D01*
X216370814Y-118209390D01*
X216370827Y-118209397D01*
X216516498Y-118269735D01*
X216516503Y-118269737D01*
X216671153Y-118300499D01*
X216671156Y-118300500D01*
X216671158Y-118300500D01*
X216828844Y-118300500D01*
X216828845Y-118300499D01*
X216983497Y-118269737D01*
X217129179Y-118209394D01*
X217158601Y-118189735D01*
X217260875Y-118121398D01*
X217327553Y-118100520D01*
X217329766Y-118100500D01*
X229269581Y-118100500D01*
X229269597Y-118100501D01*
X229277193Y-118100501D01*
X229435304Y-118100501D01*
X229435307Y-118100501D01*
X229588035Y-118059577D01*
X229655718Y-118020500D01*
X229724966Y-117980520D01*
X229836770Y-117868716D01*
X229836770Y-117868714D01*
X229846975Y-117858510D01*
X229846981Y-117858503D01*
X229889662Y-117815823D01*
X229950985Y-117782338D01*
X229953151Y-117781888D01*
X230028052Y-117766988D01*
X230108497Y-117750987D01*
X230254179Y-117690644D01*
X230385289Y-117603039D01*
X230496789Y-117491539D01*
X230517398Y-117460696D01*
X230571010Y-117415891D01*
X230640335Y-117407184D01*
X230703363Y-117437338D01*
X230740082Y-117496781D01*
X230744500Y-117529587D01*
X230744500Y-133507259D01*
X230750721Y-133586317D01*
X230750723Y-133586335D01*
X230755567Y-133616915D01*
X230755569Y-133616922D01*
X230778741Y-133707711D01*
X230778742Y-133707716D01*
X230804369Y-133756284D01*
X230845887Y-133834969D01*
X230881851Y-133884469D01*
X230899482Y-133907333D01*
X231005486Y-134004621D01*
X231132521Y-134067079D01*
X231134606Y-134068104D01*
X231134608Y-134068104D01*
X231192795Y-134087010D01*
X231206577Y-134091272D01*
X231206584Y-134091274D01*
X231349000Y-134111750D01*
X231349003Y-134111750D01*
X238400991Y-134111750D01*
X238401000Y-134111750D01*
X238480070Y-134105528D01*
X238480077Y-134105526D01*
X238480085Y-134105526D01*
X238490931Y-134103807D01*
X238510663Y-134100683D01*
X238601467Y-134077507D01*
X238728719Y-134010363D01*
X238778219Y-133974399D01*
X238801083Y-133956768D01*
X238898371Y-133850764D01*
X238961853Y-133721646D01*
X238980760Y-133663455D01*
X238985024Y-133649666D01*
X239005500Y-133507250D01*
X239005500Y-108705250D01*
X238999278Y-108626180D01*
X238999277Y-108626175D01*
X238999276Y-108626164D01*
X238996833Y-108610743D01*
X238994433Y-108595587D01*
X238971257Y-108504783D01*
X238904113Y-108377531D01*
X238868149Y-108328031D01*
X238850518Y-108305167D01*
X238744514Y-108207879D01*
X238680996Y-108176649D01*
X238615393Y-108144395D01*
X238615388Y-108144394D01*
X238557204Y-108125489D01*
X238543422Y-108121227D01*
X238543416Y-108121226D01*
X238401000Y-108100750D01*
X238400998Y-108100750D01*
X236879500Y-108100750D01*
X236812461Y-108081065D01*
X236766706Y-108028261D01*
X236755500Y-107976750D01*
X236755500Y-103455259D01*
X236755499Y-103455240D01*
X236749278Y-103376182D01*
X236749276Y-103376164D01*
X236746833Y-103360743D01*
X236744433Y-103345587D01*
X236721257Y-103254783D01*
X236654113Y-103127531D01*
X236618149Y-103078031D01*
X236610566Y-103068198D01*
X236600521Y-103055170D01*
X236540154Y-102999766D01*
X236504074Y-102939933D01*
X236500000Y-102908410D01*
X236500000Y-98376535D01*
X236519685Y-98309496D01*
X236572489Y-98263741D01*
X236626507Y-98252560D01*
X246878012Y-98460031D01*
G37*
%TD.AperFunction*%
%TA.AperFunction,Conductor*%
G36*
X194693039Y-136870185D02*
G01*
X194738794Y-136922989D01*
X194750000Y-136974500D01*
X194750000Y-139103460D01*
X194748738Y-139121106D01*
X194744500Y-139150581D01*
X194744500Y-139370500D01*
X194724815Y-139437539D01*
X194672011Y-139483294D01*
X194620500Y-139494500D01*
X186879500Y-139494500D01*
X186812461Y-139474815D01*
X186766706Y-139422011D01*
X186755500Y-139370500D01*
X186755500Y-138474500D01*
X186775185Y-138407461D01*
X186827989Y-138361706D01*
X186879500Y-138350500D01*
X191829055Y-138350500D01*
X191829057Y-138350500D01*
X191981784Y-138309577D01*
X192118716Y-138230520D01*
X192230520Y-138118716D01*
X192309577Y-137981784D01*
X192316376Y-137956407D01*
X192348468Y-137900822D01*
X193362474Y-136886819D01*
X193423797Y-136853334D01*
X193450155Y-136850500D01*
X194626000Y-136850500D01*
X194693039Y-136870185D01*
G37*
%TD.AperFunction*%
%TA.AperFunction,Conductor*%
G36*
X213106190Y-113818911D02*
G01*
X213173183Y-113838754D01*
X213218813Y-113891666D01*
X213228593Y-113960848D01*
X213199418Y-114024335D01*
X213193579Y-114030592D01*
X213128210Y-114095961D01*
X213040609Y-114227064D01*
X213040602Y-114227077D01*
X212980264Y-114372748D01*
X212980261Y-114372760D01*
X212949500Y-114527403D01*
X212949500Y-114685096D01*
X212980261Y-114839739D01*
X212980264Y-114839751D01*
X213040602Y-114985422D01*
X213040609Y-114985435D01*
X213131595Y-115121604D01*
X213130266Y-115122491D01*
X213154549Y-115179650D01*
X213142764Y-115248519D01*
X213119065Y-115281698D01*
X212731286Y-115669478D01*
X212619481Y-115781282D01*
X212619479Y-115781285D01*
X212586847Y-115837807D01*
X212586846Y-115837809D01*
X212540423Y-115918214D01*
X212540423Y-115918215D01*
X212499499Y-116070943D01*
X212499499Y-116070945D01*
X212499499Y-116239046D01*
X212499500Y-116239059D01*
X212499500Y-116639240D01*
X212479815Y-116706279D01*
X212427011Y-116752034D01*
X212357853Y-116761978D01*
X212306610Y-116742342D01*
X212229190Y-116690612D01*
X212229172Y-116690602D01*
X212083501Y-116630264D01*
X212083489Y-116630261D01*
X211928845Y-116599500D01*
X211928842Y-116599500D01*
X211893847Y-116599500D01*
X211826808Y-116579815D01*
X211806166Y-116563181D01*
X210778678Y-115535693D01*
X210745193Y-115474370D01*
X210750177Y-115404678D01*
X210792049Y-115348745D01*
X210857513Y-115324328D01*
X210913810Y-115333450D01*
X211016503Y-115375987D01*
X211171153Y-115406749D01*
X211171156Y-115406750D01*
X211171158Y-115406750D01*
X211328844Y-115406750D01*
X211328845Y-115406749D01*
X211483497Y-115375987D01*
X211629179Y-115315644D01*
X211760289Y-115228039D01*
X211871789Y-115116539D01*
X211959394Y-114985429D01*
X212019737Y-114839747D01*
X212050500Y-114685092D01*
X212050500Y-114527408D01*
X212050500Y-114527405D01*
X212050499Y-114527403D01*
X212041766Y-114483501D01*
X212019737Y-114372753D01*
X212001550Y-114328846D01*
X211959397Y-114227077D01*
X211959390Y-114227064D01*
X211871789Y-114095961D01*
X211871786Y-114095957D01*
X211803552Y-114027723D01*
X211770067Y-113966400D01*
X211775051Y-113896708D01*
X211816923Y-113840775D01*
X211882387Y-113816358D01*
X211891500Y-113816042D01*
X213106190Y-113818911D01*
G37*
%TD.AperFunction*%
%TD*%
%TA.AperFunction,Conductor*%
%TO.N,VBUS*%
G36*
X188459191Y-98375157D02*
G01*
X188495155Y-98424657D01*
X188500000Y-98455250D01*
X188500000Y-103356250D01*
X236151000Y-103356250D01*
X236209191Y-103375157D01*
X236245155Y-103424657D01*
X236250000Y-103455250D01*
X236250000Y-108606250D01*
X238401000Y-108606250D01*
X238459191Y-108625157D01*
X238495155Y-108674657D01*
X238500000Y-108705250D01*
X238500000Y-133507250D01*
X238481093Y-133565441D01*
X238431593Y-133601405D01*
X238401000Y-133606250D01*
X231349000Y-133606250D01*
X231290809Y-133587343D01*
X231254845Y-133537843D01*
X231250000Y-133507250D01*
X231250000Y-113356250D01*
X229540860Y-113352214D01*
X229503210Y-113344678D01*
X229488540Y-113338602D01*
X229483495Y-113336512D01*
X229328844Y-113305750D01*
X229328842Y-113305750D01*
X229171158Y-113305750D01*
X229171155Y-113305750D01*
X229016501Y-113336513D01*
X229016497Y-113336514D01*
X229000086Y-113343312D01*
X228961969Y-113350847D01*
X218392493Y-113325891D01*
X218334347Y-113306846D01*
X218322723Y-113296895D01*
X218260292Y-113234464D01*
X218260289Y-113234461D01*
X218208059Y-113199562D01*
X218129185Y-113146859D01*
X218129174Y-113146853D01*
X217983497Y-113086513D01*
X217828844Y-113055750D01*
X217828842Y-113055750D01*
X217671158Y-113055750D01*
X217671155Y-113055750D01*
X217516503Y-113086513D01*
X217516501Y-113086513D01*
X217370825Y-113146853D01*
X217370814Y-113146859D01*
X217273699Y-113211751D01*
X217239711Y-113234461D01*
X217239709Y-113234462D01*
X217235668Y-113237163D01*
X217234748Y-113235786D01*
X217184168Y-113255579D01*
X217178348Y-113255750D01*
X214579057Y-113255750D01*
X214420943Y-113255750D01*
X214337326Y-113278155D01*
X214268211Y-113296674D01*
X214257692Y-113302748D01*
X214207959Y-113316011D01*
X210777543Y-113307911D01*
X210738504Y-113297403D01*
X210737779Y-113299156D01*
X210731788Y-113296674D01*
X210731785Y-113296673D01*
X210579057Y-113255749D01*
X210420943Y-113255749D01*
X210414880Y-113255749D01*
X210414864Y-113255750D01*
X207571652Y-113255750D01*
X207514352Y-113237132D01*
X207514332Y-113237163D01*
X207514224Y-113237090D01*
X207513461Y-113236843D01*
X207510955Y-113234906D01*
X207379185Y-113146859D01*
X207379174Y-113146853D01*
X207233497Y-113086513D01*
X207078844Y-113055750D01*
X207078842Y-113055750D01*
X206921158Y-113055750D01*
X206921155Y-113055750D01*
X206766503Y-113086513D01*
X206766501Y-113086513D01*
X206620825Y-113146853D01*
X206620813Y-113146859D01*
X206489711Y-113234459D01*
X206455624Y-113268546D01*
X206448402Y-113272225D01*
X206443623Y-113278771D01*
X206421663Y-113285848D01*
X206401106Y-113296323D01*
X206385388Y-113297541D01*
X206246605Y-113297213D01*
X206221216Y-113293840D01*
X206109107Y-113263801D01*
X206079057Y-113255749D01*
X205936473Y-113255749D01*
X205878282Y-113236842D01*
X205854158Y-113211751D01*
X205810794Y-113146853D01*
X205776789Y-113095961D01*
X205665289Y-112984461D01*
X205613059Y-112949562D01*
X205534185Y-112896859D01*
X205534174Y-112896853D01*
X205388497Y-112836513D01*
X205233844Y-112805750D01*
X205233842Y-112805750D01*
X205076158Y-112805750D01*
X205076155Y-112805750D01*
X204921503Y-112836513D01*
X204921501Y-112836513D01*
X204775825Y-112896853D01*
X204775814Y-112896859D01*
X204644711Y-112984461D01*
X204644707Y-112984464D01*
X204533214Y-113095957D01*
X204533211Y-113095961D01*
X204445605Y-113227072D01*
X204445604Y-113227073D01*
X204443716Y-113231632D01*
X204403976Y-113278155D01*
X204352021Y-113292740D01*
X201049280Y-113284941D01*
X200991134Y-113265896D01*
X200963302Y-113230496D01*
X200961687Y-113231360D01*
X200959395Y-113227073D01*
X200949157Y-113211751D01*
X200871789Y-113095961D01*
X200760289Y-112984461D01*
X200708059Y-112949562D01*
X200629185Y-112896859D01*
X200629174Y-112896853D01*
X200483497Y-112836513D01*
X200328844Y-112805750D01*
X200328842Y-112805750D01*
X200171158Y-112805750D01*
X200171155Y-112805750D01*
X200016503Y-112836513D01*
X200016501Y-112836513D01*
X199870825Y-112896853D01*
X199870814Y-112896859D01*
X199739711Y-112984461D01*
X199739707Y-112984464D01*
X199628214Y-113095957D01*
X199628211Y-113095961D01*
X199540606Y-113227070D01*
X199539655Y-113228850D01*
X199538990Y-113229488D01*
X199537904Y-113231115D01*
X199537546Y-113230876D01*
X199495544Y-113271251D01*
X199452116Y-113281171D01*
X186250000Y-113249999D01*
X186250000Y-139401000D01*
X186231093Y-139459191D01*
X186181593Y-139495155D01*
X186151000Y-139500000D01*
X178099500Y-139500000D01*
X178041309Y-139481093D01*
X178005345Y-139431593D01*
X178000500Y-139401000D01*
X178000500Y-98455250D01*
X178019407Y-98397059D01*
X178068907Y-98361095D01*
X178099500Y-98356250D01*
X188401000Y-98356250D01*
X188459191Y-98375157D01*
G37*
%TD.AperFunction*%
%TD*%
M02*
