%TF.GenerationSoftware,KiCad,Pcbnew,9.0.7-9.0.7~ubuntu22.04.1*%
%TF.CreationDate,2026-02-07T19:05:41-07:00*%
%TF.ProjectId,Power_Brick,506f7765-725f-4427-9269-636b2e6b6963,1.1*%
%TF.SameCoordinates,Original*%
%TF.FileFunction,Paste,Top*%
%TF.FilePolarity,Positive*%
%FSLAX46Y46*%
G04 Gerber Fmt 4.6, Leading zero omitted, Abs format (unit mm)*
G04 Created by KiCad (PCBNEW 9.0.7-9.0.7~ubuntu22.04.1) date 2026-02-07 19:05:41*
%MOMM*%
%LPD*%
G01*
G04 APERTURE LIST*
G04 Aperture macros list*
%AMRoundRect*
0 Rectangle with rounded corners*
0 $1 Rounding radius*
0 $2 $3 $4 $5 $6 $7 $8 $9 X,Y pos of 4 corners*
0 Add a 4 corners polygon primitive as box body*
4,1,4,$2,$3,$4,$5,$6,$7,$8,$9,$2,$3,0*
0 Add four circle primitives for the rounded corners*
1,1,$1+$1,$2,$3*
1,1,$1+$1,$4,$5*
1,1,$1+$1,$6,$7*
1,1,$1+$1,$8,$9*
0 Add four rect primitives between the rounded corners*
20,1,$1+$1,$2,$3,$4,$5,0*
20,1,$1+$1,$4,$5,$6,$7,0*
20,1,$1+$1,$6,$7,$8,$9,0*
20,1,$1+$1,$8,$9,$2,$3,0*%
G04 Aperture macros list end*
%ADD10C,0.010000*%
%ADD11C,0.000000*%
%ADD12RoundRect,0.140000X-0.140000X-0.170000X0.140000X-0.170000X0.140000X0.170000X-0.140000X0.170000X0*%
%ADD13RoundRect,0.135000X0.135000X0.185000X-0.135000X0.185000X-0.135000X-0.185000X0.135000X-0.185000X0*%
%ADD14R,5.105400X1.600200*%
%ADD15RoundRect,0.135000X0.185000X-0.135000X0.185000X0.135000X-0.185000X0.135000X-0.185000X-0.135000X0*%
%ADD16RoundRect,0.225000X0.250000X-0.225000X0.250000X0.225000X-0.250000X0.225000X-0.250000X-0.225000X0*%
%ADD17RoundRect,0.140000X0.170000X-0.140000X0.170000X0.140000X-0.170000X0.140000X-0.170000X-0.140000X0*%
%ADD18RoundRect,0.135000X-0.135000X-0.185000X0.135000X-0.185000X0.135000X0.185000X-0.135000X0.185000X0*%
%ADD19RoundRect,0.140000X0.140000X0.170000X-0.140000X0.170000X-0.140000X-0.170000X0.140000X-0.170000X0*%
%ADD20R,3.429000X3.327400*%
%ADD21RoundRect,0.135000X-0.185000X0.135000X-0.185000X-0.135000X0.185000X-0.135000X0.185000X0.135000X0*%
%ADD22RoundRect,0.225000X-0.225000X-0.250000X0.225000X-0.250000X0.225000X0.250000X-0.225000X0.250000X0*%
%ADD23RoundRect,0.140000X-0.170000X0.140000X-0.170000X-0.140000X0.170000X-0.140000X0.170000X0.140000X0*%
%ADD24R,0.299999X1.400000*%
%ADD25RoundRect,0.100000X-0.637500X-0.100000X0.637500X-0.100000X0.637500X0.100000X-0.637500X0.100000X0*%
%ADD26RoundRect,0.218750X-0.256250X0.218750X-0.256250X-0.218750X0.256250X-0.218750X0.256250X0.218750X0*%
%ADD27RoundRect,0.218750X0.256250X-0.218750X0.256250X0.218750X-0.256250X0.218750X-0.256250X-0.218750X0*%
%ADD28R,1.000000X0.900000*%
G04 APERTURE END LIST*
D10*
%TO.C,Q2*%
X195626000Y-112899250D02*
X195064000Y-112899250D01*
X195064000Y-111827250D01*
X195626000Y-111827250D01*
X195626000Y-112899250D01*
G36*
X195626000Y-112899250D02*
G01*
X195064000Y-112899250D01*
X195064000Y-111827250D01*
X195626000Y-111827250D01*
X195626000Y-112899250D01*
G37*
X195599000Y-107079250D02*
X195091000Y-107079250D01*
X195091000Y-106313250D01*
X195599000Y-106313250D01*
X195599000Y-107079250D01*
G36*
X195599000Y-107079250D02*
G01*
X195091000Y-107079250D01*
X195091000Y-106313250D01*
X195599000Y-106313250D01*
X195599000Y-107079250D01*
G37*
X196054000Y-108659250D02*
X195308000Y-108659250D01*
X195308000Y-107365250D01*
X196054000Y-107365250D01*
X196054000Y-108659250D01*
G36*
X196054000Y-108659250D02*
G01*
X195308000Y-108659250D01*
X195308000Y-107365250D01*
X196054000Y-107365250D01*
X196054000Y-108659250D01*
G37*
X196054000Y-110303250D02*
X195308000Y-110303250D01*
X195308000Y-109009250D01*
X196054000Y-109009250D01*
X196054000Y-110303250D01*
G36*
X196054000Y-110303250D02*
G01*
X195308000Y-110303250D01*
X195308000Y-109009250D01*
X196054000Y-109009250D01*
X196054000Y-110303250D01*
G37*
X196896000Y-112899250D02*
X196334000Y-112899250D01*
X196334000Y-111827250D01*
X196896000Y-111827250D01*
X196896000Y-112899250D01*
G36*
X196896000Y-112899250D02*
G01*
X196334000Y-112899250D01*
X196334000Y-111827250D01*
X196896000Y-111827250D01*
X196896000Y-112899250D01*
G37*
X197100000Y-108659250D02*
X196354000Y-108659250D01*
X196354000Y-107365250D01*
X197100000Y-107365250D01*
X197100000Y-108659250D01*
G36*
X197100000Y-108659250D02*
G01*
X196354000Y-108659250D01*
X196354000Y-107365250D01*
X197100000Y-107365250D01*
X197100000Y-108659250D01*
G37*
X197100000Y-110303250D02*
X196354000Y-110303250D01*
X196354000Y-109009250D01*
X197100000Y-109009250D01*
X197100000Y-110303250D01*
G36*
X197100000Y-110303250D02*
G01*
X196354000Y-110303250D01*
X196354000Y-109009250D01*
X197100000Y-109009250D01*
X197100000Y-110303250D01*
G37*
X196869000Y-107079250D02*
X196361000Y-107079250D01*
X196361000Y-106313250D01*
X196869000Y-106313250D01*
X196869000Y-107079250D01*
G36*
X196869000Y-107079250D02*
G01*
X196361000Y-107079250D01*
X196361000Y-106313250D01*
X196869000Y-106313250D01*
X196869000Y-107079250D01*
G37*
X198146000Y-108659250D02*
X197400000Y-108659250D01*
X197400000Y-107365250D01*
X198146000Y-107365250D01*
X198146000Y-108659250D01*
G36*
X198146000Y-108659250D02*
G01*
X197400000Y-108659250D01*
X197400000Y-107365250D01*
X198146000Y-107365250D01*
X198146000Y-108659250D01*
G37*
X198146000Y-110303250D02*
X197400000Y-110303250D01*
X197400000Y-109009250D01*
X198146000Y-109009250D01*
X198146000Y-110303250D01*
G36*
X198146000Y-110303250D02*
G01*
X197400000Y-110303250D01*
X197400000Y-109009250D01*
X198146000Y-109009250D01*
X198146000Y-110303250D01*
G37*
X198166000Y-112899250D02*
X197604000Y-112899250D01*
X197604000Y-111827250D01*
X198166000Y-111827250D01*
X198166000Y-112899250D01*
G36*
X198166000Y-112899250D02*
G01*
X197604000Y-112899250D01*
X197604000Y-111827250D01*
X198166000Y-111827250D01*
X198166000Y-112899250D01*
G37*
X198139000Y-107079250D02*
X197631000Y-107079250D01*
X197631000Y-106313250D01*
X198139000Y-106313250D01*
X198139000Y-107079250D01*
G36*
X198139000Y-107079250D02*
G01*
X197631000Y-107079250D01*
X197631000Y-106313250D01*
X198139000Y-106313250D01*
X198139000Y-107079250D01*
G37*
X199192000Y-108659250D02*
X198446000Y-108659250D01*
X198446000Y-107365250D01*
X199192000Y-107365250D01*
X199192000Y-108659250D01*
G36*
X199192000Y-108659250D02*
G01*
X198446000Y-108659250D01*
X198446000Y-107365250D01*
X199192000Y-107365250D01*
X199192000Y-108659250D01*
G37*
X199192000Y-110303250D02*
X198446000Y-110303250D01*
X198446000Y-109009250D01*
X199192000Y-109009250D01*
X199192000Y-110303250D01*
G36*
X199192000Y-110303250D02*
G01*
X198446000Y-110303250D01*
X198446000Y-109009250D01*
X199192000Y-109009250D01*
X199192000Y-110303250D01*
G37*
X199436000Y-112899250D02*
X198874000Y-112899250D01*
X198874000Y-111827250D01*
X199436000Y-111827250D01*
X199436000Y-112899250D01*
G36*
X199436000Y-112899250D02*
G01*
X198874000Y-112899250D01*
X198874000Y-111827250D01*
X199436000Y-111827250D01*
X199436000Y-112899250D01*
G37*
X199409000Y-107079250D02*
X198901000Y-107079250D01*
X198901000Y-106313250D01*
X199409000Y-106313250D01*
X199409000Y-107079250D01*
G36*
X199409000Y-107079250D02*
G01*
X198901000Y-107079250D01*
X198901000Y-106313250D01*
X199409000Y-106313250D01*
X199409000Y-107079250D01*
G37*
%TO.C,Q8*%
X226126000Y-112899250D02*
X225564000Y-112899250D01*
X225564000Y-111827250D01*
X226126000Y-111827250D01*
X226126000Y-112899250D01*
G36*
X226126000Y-112899250D02*
G01*
X225564000Y-112899250D01*
X225564000Y-111827250D01*
X226126000Y-111827250D01*
X226126000Y-112899250D01*
G37*
X226099000Y-107079250D02*
X225591000Y-107079250D01*
X225591000Y-106313250D01*
X226099000Y-106313250D01*
X226099000Y-107079250D01*
G36*
X226099000Y-107079250D02*
G01*
X225591000Y-107079250D01*
X225591000Y-106313250D01*
X226099000Y-106313250D01*
X226099000Y-107079250D01*
G37*
X226554000Y-108659250D02*
X225808000Y-108659250D01*
X225808000Y-107365250D01*
X226554000Y-107365250D01*
X226554000Y-108659250D01*
G36*
X226554000Y-108659250D02*
G01*
X225808000Y-108659250D01*
X225808000Y-107365250D01*
X226554000Y-107365250D01*
X226554000Y-108659250D01*
G37*
X226554000Y-110303250D02*
X225808000Y-110303250D01*
X225808000Y-109009250D01*
X226554000Y-109009250D01*
X226554000Y-110303250D01*
G36*
X226554000Y-110303250D02*
G01*
X225808000Y-110303250D01*
X225808000Y-109009250D01*
X226554000Y-109009250D01*
X226554000Y-110303250D01*
G37*
X227396000Y-112899250D02*
X226834000Y-112899250D01*
X226834000Y-111827250D01*
X227396000Y-111827250D01*
X227396000Y-112899250D01*
G36*
X227396000Y-112899250D02*
G01*
X226834000Y-112899250D01*
X226834000Y-111827250D01*
X227396000Y-111827250D01*
X227396000Y-112899250D01*
G37*
X227600000Y-108659250D02*
X226854000Y-108659250D01*
X226854000Y-107365250D01*
X227600000Y-107365250D01*
X227600000Y-108659250D01*
G36*
X227600000Y-108659250D02*
G01*
X226854000Y-108659250D01*
X226854000Y-107365250D01*
X227600000Y-107365250D01*
X227600000Y-108659250D01*
G37*
X227600000Y-110303250D02*
X226854000Y-110303250D01*
X226854000Y-109009250D01*
X227600000Y-109009250D01*
X227600000Y-110303250D01*
G36*
X227600000Y-110303250D02*
G01*
X226854000Y-110303250D01*
X226854000Y-109009250D01*
X227600000Y-109009250D01*
X227600000Y-110303250D01*
G37*
X227369000Y-107079250D02*
X226861000Y-107079250D01*
X226861000Y-106313250D01*
X227369000Y-106313250D01*
X227369000Y-107079250D01*
G36*
X227369000Y-107079250D02*
G01*
X226861000Y-107079250D01*
X226861000Y-106313250D01*
X227369000Y-106313250D01*
X227369000Y-107079250D01*
G37*
X228646000Y-108659250D02*
X227900000Y-108659250D01*
X227900000Y-107365250D01*
X228646000Y-107365250D01*
X228646000Y-108659250D01*
G36*
X228646000Y-108659250D02*
G01*
X227900000Y-108659250D01*
X227900000Y-107365250D01*
X228646000Y-107365250D01*
X228646000Y-108659250D01*
G37*
X228646000Y-110303250D02*
X227900000Y-110303250D01*
X227900000Y-109009250D01*
X228646000Y-109009250D01*
X228646000Y-110303250D01*
G36*
X228646000Y-110303250D02*
G01*
X227900000Y-110303250D01*
X227900000Y-109009250D01*
X228646000Y-109009250D01*
X228646000Y-110303250D01*
G37*
X228666000Y-112899250D02*
X228104000Y-112899250D01*
X228104000Y-111827250D01*
X228666000Y-111827250D01*
X228666000Y-112899250D01*
G36*
X228666000Y-112899250D02*
G01*
X228104000Y-112899250D01*
X228104000Y-111827250D01*
X228666000Y-111827250D01*
X228666000Y-112899250D01*
G37*
X228639000Y-107079250D02*
X228131000Y-107079250D01*
X228131000Y-106313250D01*
X228639000Y-106313250D01*
X228639000Y-107079250D01*
G36*
X228639000Y-107079250D02*
G01*
X228131000Y-107079250D01*
X228131000Y-106313250D01*
X228639000Y-106313250D01*
X228639000Y-107079250D01*
G37*
X229692000Y-108659250D02*
X228946000Y-108659250D01*
X228946000Y-107365250D01*
X229692000Y-107365250D01*
X229692000Y-108659250D01*
G36*
X229692000Y-108659250D02*
G01*
X228946000Y-108659250D01*
X228946000Y-107365250D01*
X229692000Y-107365250D01*
X229692000Y-108659250D01*
G37*
X229692000Y-110303250D02*
X228946000Y-110303250D01*
X228946000Y-109009250D01*
X229692000Y-109009250D01*
X229692000Y-110303250D01*
G36*
X229692000Y-110303250D02*
G01*
X228946000Y-110303250D01*
X228946000Y-109009250D01*
X229692000Y-109009250D01*
X229692000Y-110303250D01*
G37*
X229936000Y-112899250D02*
X229374000Y-112899250D01*
X229374000Y-111827250D01*
X229936000Y-111827250D01*
X229936000Y-112899250D01*
G36*
X229936000Y-112899250D02*
G01*
X229374000Y-112899250D01*
X229374000Y-111827250D01*
X229936000Y-111827250D01*
X229936000Y-112899250D01*
G37*
X229909000Y-107079250D02*
X229401000Y-107079250D01*
X229401000Y-106313250D01*
X229909000Y-106313250D01*
X229909000Y-107079250D01*
G36*
X229909000Y-107079250D02*
G01*
X229401000Y-107079250D01*
X229401000Y-106313250D01*
X229909000Y-106313250D01*
X229909000Y-107079250D01*
G37*
%TO.C,Q6*%
X220126000Y-112899250D02*
X219564000Y-112899250D01*
X219564000Y-111827250D01*
X220126000Y-111827250D01*
X220126000Y-112899250D01*
G36*
X220126000Y-112899250D02*
G01*
X219564000Y-112899250D01*
X219564000Y-111827250D01*
X220126000Y-111827250D01*
X220126000Y-112899250D01*
G37*
X220099000Y-107079250D02*
X219591000Y-107079250D01*
X219591000Y-106313250D01*
X220099000Y-106313250D01*
X220099000Y-107079250D01*
G36*
X220099000Y-107079250D02*
G01*
X219591000Y-107079250D01*
X219591000Y-106313250D01*
X220099000Y-106313250D01*
X220099000Y-107079250D01*
G37*
X220554000Y-108659250D02*
X219808000Y-108659250D01*
X219808000Y-107365250D01*
X220554000Y-107365250D01*
X220554000Y-108659250D01*
G36*
X220554000Y-108659250D02*
G01*
X219808000Y-108659250D01*
X219808000Y-107365250D01*
X220554000Y-107365250D01*
X220554000Y-108659250D01*
G37*
X220554000Y-110303250D02*
X219808000Y-110303250D01*
X219808000Y-109009250D01*
X220554000Y-109009250D01*
X220554000Y-110303250D01*
G36*
X220554000Y-110303250D02*
G01*
X219808000Y-110303250D01*
X219808000Y-109009250D01*
X220554000Y-109009250D01*
X220554000Y-110303250D01*
G37*
X221396000Y-112899250D02*
X220834000Y-112899250D01*
X220834000Y-111827250D01*
X221396000Y-111827250D01*
X221396000Y-112899250D01*
G36*
X221396000Y-112899250D02*
G01*
X220834000Y-112899250D01*
X220834000Y-111827250D01*
X221396000Y-111827250D01*
X221396000Y-112899250D01*
G37*
X221600000Y-108659250D02*
X220854000Y-108659250D01*
X220854000Y-107365250D01*
X221600000Y-107365250D01*
X221600000Y-108659250D01*
G36*
X221600000Y-108659250D02*
G01*
X220854000Y-108659250D01*
X220854000Y-107365250D01*
X221600000Y-107365250D01*
X221600000Y-108659250D01*
G37*
X221600000Y-110303250D02*
X220854000Y-110303250D01*
X220854000Y-109009250D01*
X221600000Y-109009250D01*
X221600000Y-110303250D01*
G36*
X221600000Y-110303250D02*
G01*
X220854000Y-110303250D01*
X220854000Y-109009250D01*
X221600000Y-109009250D01*
X221600000Y-110303250D01*
G37*
X221369000Y-107079250D02*
X220861000Y-107079250D01*
X220861000Y-106313250D01*
X221369000Y-106313250D01*
X221369000Y-107079250D01*
G36*
X221369000Y-107079250D02*
G01*
X220861000Y-107079250D01*
X220861000Y-106313250D01*
X221369000Y-106313250D01*
X221369000Y-107079250D01*
G37*
X222646000Y-108659250D02*
X221900000Y-108659250D01*
X221900000Y-107365250D01*
X222646000Y-107365250D01*
X222646000Y-108659250D01*
G36*
X222646000Y-108659250D02*
G01*
X221900000Y-108659250D01*
X221900000Y-107365250D01*
X222646000Y-107365250D01*
X222646000Y-108659250D01*
G37*
X222646000Y-110303250D02*
X221900000Y-110303250D01*
X221900000Y-109009250D01*
X222646000Y-109009250D01*
X222646000Y-110303250D01*
G36*
X222646000Y-110303250D02*
G01*
X221900000Y-110303250D01*
X221900000Y-109009250D01*
X222646000Y-109009250D01*
X222646000Y-110303250D01*
G37*
X222666000Y-112899250D02*
X222104000Y-112899250D01*
X222104000Y-111827250D01*
X222666000Y-111827250D01*
X222666000Y-112899250D01*
G36*
X222666000Y-112899250D02*
G01*
X222104000Y-112899250D01*
X222104000Y-111827250D01*
X222666000Y-111827250D01*
X222666000Y-112899250D01*
G37*
X222639000Y-107079250D02*
X222131000Y-107079250D01*
X222131000Y-106313250D01*
X222639000Y-106313250D01*
X222639000Y-107079250D01*
G36*
X222639000Y-107079250D02*
G01*
X222131000Y-107079250D01*
X222131000Y-106313250D01*
X222639000Y-106313250D01*
X222639000Y-107079250D01*
G37*
X223692000Y-108659250D02*
X222946000Y-108659250D01*
X222946000Y-107365250D01*
X223692000Y-107365250D01*
X223692000Y-108659250D01*
G36*
X223692000Y-108659250D02*
G01*
X222946000Y-108659250D01*
X222946000Y-107365250D01*
X223692000Y-107365250D01*
X223692000Y-108659250D01*
G37*
X223692000Y-110303250D02*
X222946000Y-110303250D01*
X222946000Y-109009250D01*
X223692000Y-109009250D01*
X223692000Y-110303250D01*
G36*
X223692000Y-110303250D02*
G01*
X222946000Y-110303250D01*
X222946000Y-109009250D01*
X223692000Y-109009250D01*
X223692000Y-110303250D01*
G37*
X223936000Y-112899250D02*
X223374000Y-112899250D01*
X223374000Y-111827250D01*
X223936000Y-111827250D01*
X223936000Y-112899250D01*
G36*
X223936000Y-112899250D02*
G01*
X223374000Y-112899250D01*
X223374000Y-111827250D01*
X223936000Y-111827250D01*
X223936000Y-112899250D01*
G37*
X223909000Y-107079250D02*
X223401000Y-107079250D01*
X223401000Y-106313250D01*
X223909000Y-106313250D01*
X223909000Y-107079250D01*
G36*
X223909000Y-107079250D02*
G01*
X223401000Y-107079250D01*
X223401000Y-106313250D01*
X223909000Y-106313250D01*
X223909000Y-107079250D01*
G37*
%TO.C,Q5*%
X214099000Y-110399250D02*
X213591000Y-110399250D01*
X213591000Y-109633250D01*
X214099000Y-109633250D01*
X214099000Y-110399250D01*
G36*
X214099000Y-110399250D02*
G01*
X213591000Y-110399250D01*
X213591000Y-109633250D01*
X214099000Y-109633250D01*
X214099000Y-110399250D01*
G37*
X214126000Y-104885250D02*
X213564000Y-104885250D01*
X213564000Y-103813250D01*
X214126000Y-103813250D01*
X214126000Y-104885250D01*
G36*
X214126000Y-104885250D02*
G01*
X213564000Y-104885250D01*
X213564000Y-103813250D01*
X214126000Y-103813250D01*
X214126000Y-104885250D01*
G37*
X214554000Y-107703250D02*
X213808000Y-107703250D01*
X213808000Y-106409250D01*
X214554000Y-106409250D01*
X214554000Y-107703250D01*
G36*
X214554000Y-107703250D02*
G01*
X213808000Y-107703250D01*
X213808000Y-106409250D01*
X214554000Y-106409250D01*
X214554000Y-107703250D01*
G37*
X214554000Y-109347250D02*
X213808000Y-109347250D01*
X213808000Y-108053250D01*
X214554000Y-108053250D01*
X214554000Y-109347250D01*
G36*
X214554000Y-109347250D02*
G01*
X213808000Y-109347250D01*
X213808000Y-108053250D01*
X214554000Y-108053250D01*
X214554000Y-109347250D01*
G37*
X215369000Y-110399250D02*
X214861000Y-110399250D01*
X214861000Y-109633250D01*
X215369000Y-109633250D01*
X215369000Y-110399250D01*
G36*
X215369000Y-110399250D02*
G01*
X214861000Y-110399250D01*
X214861000Y-109633250D01*
X215369000Y-109633250D01*
X215369000Y-110399250D01*
G37*
X215396000Y-104885250D02*
X214834000Y-104885250D01*
X214834000Y-103813250D01*
X215396000Y-103813250D01*
X215396000Y-104885250D01*
G36*
X215396000Y-104885250D02*
G01*
X214834000Y-104885250D01*
X214834000Y-103813250D01*
X215396000Y-103813250D01*
X215396000Y-104885250D01*
G37*
X215600000Y-107703250D02*
X214854000Y-107703250D01*
X214854000Y-106409250D01*
X215600000Y-106409250D01*
X215600000Y-107703250D01*
G36*
X215600000Y-107703250D02*
G01*
X214854000Y-107703250D01*
X214854000Y-106409250D01*
X215600000Y-106409250D01*
X215600000Y-107703250D01*
G37*
X215600000Y-109347250D02*
X214854000Y-109347250D01*
X214854000Y-108053250D01*
X215600000Y-108053250D01*
X215600000Y-109347250D01*
G36*
X215600000Y-109347250D02*
G01*
X214854000Y-109347250D01*
X214854000Y-108053250D01*
X215600000Y-108053250D01*
X215600000Y-109347250D01*
G37*
X216639000Y-110399250D02*
X216131000Y-110399250D01*
X216131000Y-109633250D01*
X216639000Y-109633250D01*
X216639000Y-110399250D01*
G36*
X216639000Y-110399250D02*
G01*
X216131000Y-110399250D01*
X216131000Y-109633250D01*
X216639000Y-109633250D01*
X216639000Y-110399250D01*
G37*
X216646000Y-107703250D02*
X215900000Y-107703250D01*
X215900000Y-106409250D01*
X216646000Y-106409250D01*
X216646000Y-107703250D01*
G36*
X216646000Y-107703250D02*
G01*
X215900000Y-107703250D01*
X215900000Y-106409250D01*
X216646000Y-106409250D01*
X216646000Y-107703250D01*
G37*
X216646000Y-109347250D02*
X215900000Y-109347250D01*
X215900000Y-108053250D01*
X216646000Y-108053250D01*
X216646000Y-109347250D01*
G36*
X216646000Y-109347250D02*
G01*
X215900000Y-109347250D01*
X215900000Y-108053250D01*
X216646000Y-108053250D01*
X216646000Y-109347250D01*
G37*
X216666000Y-104885250D02*
X216104000Y-104885250D01*
X216104000Y-103813250D01*
X216666000Y-103813250D01*
X216666000Y-104885250D01*
G36*
X216666000Y-104885250D02*
G01*
X216104000Y-104885250D01*
X216104000Y-103813250D01*
X216666000Y-103813250D01*
X216666000Y-104885250D01*
G37*
X217692000Y-107703250D02*
X216946000Y-107703250D01*
X216946000Y-106409250D01*
X217692000Y-106409250D01*
X217692000Y-107703250D01*
G36*
X217692000Y-107703250D02*
G01*
X216946000Y-107703250D01*
X216946000Y-106409250D01*
X217692000Y-106409250D01*
X217692000Y-107703250D01*
G37*
X217692000Y-109347250D02*
X216946000Y-109347250D01*
X216946000Y-108053250D01*
X217692000Y-108053250D01*
X217692000Y-109347250D01*
G36*
X217692000Y-109347250D02*
G01*
X216946000Y-109347250D01*
X216946000Y-108053250D01*
X217692000Y-108053250D01*
X217692000Y-109347250D01*
G37*
X217909000Y-110399250D02*
X217401000Y-110399250D01*
X217401000Y-109633250D01*
X217909000Y-109633250D01*
X217909000Y-110399250D01*
G36*
X217909000Y-110399250D02*
G01*
X217401000Y-110399250D01*
X217401000Y-109633250D01*
X217909000Y-109633250D01*
X217909000Y-110399250D01*
G37*
X217936000Y-104885250D02*
X217374000Y-104885250D01*
X217374000Y-103813250D01*
X217936000Y-103813250D01*
X217936000Y-104885250D01*
G36*
X217936000Y-104885250D02*
G01*
X217374000Y-104885250D01*
X217374000Y-103813250D01*
X217936000Y-103813250D01*
X217936000Y-104885250D01*
G37*
D11*
%TO.C,U1*%
G36*
X214814986Y-121157086D02*
G01*
X214823148Y-121159563D01*
X214830668Y-121163581D01*
X214837260Y-121168991D01*
X214842670Y-121175582D01*
X214846688Y-121183103D01*
X214849165Y-121191264D01*
X214850000Y-121199750D01*
X214850000Y-124012750D01*
X214849165Y-124021236D01*
X214846688Y-124029397D01*
X214842670Y-124036918D01*
X214837260Y-124043509D01*
X214830668Y-124048919D01*
X214823148Y-124052937D01*
X214814986Y-124055414D01*
X214806500Y-124056250D01*
X210193500Y-124056250D01*
X210185014Y-124055414D01*
X210176852Y-124052937D01*
X210169332Y-124048919D01*
X210162740Y-124043509D01*
X210157330Y-124036918D01*
X210153312Y-124029397D01*
X210150835Y-124021236D01*
X210150000Y-124012750D01*
X210150000Y-121199750D01*
X210150835Y-121191264D01*
X210153312Y-121183103D01*
X210157330Y-121175582D01*
X210162740Y-121168991D01*
X210169332Y-121163581D01*
X210176852Y-121159563D01*
X210185014Y-121157086D01*
X210193500Y-121156250D01*
X214806500Y-121156250D01*
X214814986Y-121157086D01*
G37*
D10*
%TO.C,Q4*%
X201626000Y-112899250D02*
X201064000Y-112899250D01*
X201064000Y-111827250D01*
X201626000Y-111827250D01*
X201626000Y-112899250D01*
G36*
X201626000Y-112899250D02*
G01*
X201064000Y-112899250D01*
X201064000Y-111827250D01*
X201626000Y-111827250D01*
X201626000Y-112899250D01*
G37*
X201599000Y-107079250D02*
X201091000Y-107079250D01*
X201091000Y-106313250D01*
X201599000Y-106313250D01*
X201599000Y-107079250D01*
G36*
X201599000Y-107079250D02*
G01*
X201091000Y-107079250D01*
X201091000Y-106313250D01*
X201599000Y-106313250D01*
X201599000Y-107079250D01*
G37*
X202054000Y-108659250D02*
X201308000Y-108659250D01*
X201308000Y-107365250D01*
X202054000Y-107365250D01*
X202054000Y-108659250D01*
G36*
X202054000Y-108659250D02*
G01*
X201308000Y-108659250D01*
X201308000Y-107365250D01*
X202054000Y-107365250D01*
X202054000Y-108659250D01*
G37*
X202054000Y-110303250D02*
X201308000Y-110303250D01*
X201308000Y-109009250D01*
X202054000Y-109009250D01*
X202054000Y-110303250D01*
G36*
X202054000Y-110303250D02*
G01*
X201308000Y-110303250D01*
X201308000Y-109009250D01*
X202054000Y-109009250D01*
X202054000Y-110303250D01*
G37*
X202896000Y-112899250D02*
X202334000Y-112899250D01*
X202334000Y-111827250D01*
X202896000Y-111827250D01*
X202896000Y-112899250D01*
G36*
X202896000Y-112899250D02*
G01*
X202334000Y-112899250D01*
X202334000Y-111827250D01*
X202896000Y-111827250D01*
X202896000Y-112899250D01*
G37*
X203100000Y-108659250D02*
X202354000Y-108659250D01*
X202354000Y-107365250D01*
X203100000Y-107365250D01*
X203100000Y-108659250D01*
G36*
X203100000Y-108659250D02*
G01*
X202354000Y-108659250D01*
X202354000Y-107365250D01*
X203100000Y-107365250D01*
X203100000Y-108659250D01*
G37*
X203100000Y-110303250D02*
X202354000Y-110303250D01*
X202354000Y-109009250D01*
X203100000Y-109009250D01*
X203100000Y-110303250D01*
G36*
X203100000Y-110303250D02*
G01*
X202354000Y-110303250D01*
X202354000Y-109009250D01*
X203100000Y-109009250D01*
X203100000Y-110303250D01*
G37*
X202869000Y-107079250D02*
X202361000Y-107079250D01*
X202361000Y-106313250D01*
X202869000Y-106313250D01*
X202869000Y-107079250D01*
G36*
X202869000Y-107079250D02*
G01*
X202361000Y-107079250D01*
X202361000Y-106313250D01*
X202869000Y-106313250D01*
X202869000Y-107079250D01*
G37*
X204146000Y-108659250D02*
X203400000Y-108659250D01*
X203400000Y-107365250D01*
X204146000Y-107365250D01*
X204146000Y-108659250D01*
G36*
X204146000Y-108659250D02*
G01*
X203400000Y-108659250D01*
X203400000Y-107365250D01*
X204146000Y-107365250D01*
X204146000Y-108659250D01*
G37*
X204146000Y-110303250D02*
X203400000Y-110303250D01*
X203400000Y-109009250D01*
X204146000Y-109009250D01*
X204146000Y-110303250D01*
G36*
X204146000Y-110303250D02*
G01*
X203400000Y-110303250D01*
X203400000Y-109009250D01*
X204146000Y-109009250D01*
X204146000Y-110303250D01*
G37*
X204166000Y-112899250D02*
X203604000Y-112899250D01*
X203604000Y-111827250D01*
X204166000Y-111827250D01*
X204166000Y-112899250D01*
G36*
X204166000Y-112899250D02*
G01*
X203604000Y-112899250D01*
X203604000Y-111827250D01*
X204166000Y-111827250D01*
X204166000Y-112899250D01*
G37*
X204139000Y-107079250D02*
X203631000Y-107079250D01*
X203631000Y-106313250D01*
X204139000Y-106313250D01*
X204139000Y-107079250D01*
G36*
X204139000Y-107079250D02*
G01*
X203631000Y-107079250D01*
X203631000Y-106313250D01*
X204139000Y-106313250D01*
X204139000Y-107079250D01*
G37*
X205192000Y-108659250D02*
X204446000Y-108659250D01*
X204446000Y-107365250D01*
X205192000Y-107365250D01*
X205192000Y-108659250D01*
G36*
X205192000Y-108659250D02*
G01*
X204446000Y-108659250D01*
X204446000Y-107365250D01*
X205192000Y-107365250D01*
X205192000Y-108659250D01*
G37*
X205192000Y-110303250D02*
X204446000Y-110303250D01*
X204446000Y-109009250D01*
X205192000Y-109009250D01*
X205192000Y-110303250D01*
G36*
X205192000Y-110303250D02*
G01*
X204446000Y-110303250D01*
X204446000Y-109009250D01*
X205192000Y-109009250D01*
X205192000Y-110303250D01*
G37*
X205436000Y-112899250D02*
X204874000Y-112899250D01*
X204874000Y-111827250D01*
X205436000Y-111827250D01*
X205436000Y-112899250D01*
G36*
X205436000Y-112899250D02*
G01*
X204874000Y-112899250D01*
X204874000Y-111827250D01*
X205436000Y-111827250D01*
X205436000Y-112899250D01*
G37*
X205409000Y-107079250D02*
X204901000Y-107079250D01*
X204901000Y-106313250D01*
X205409000Y-106313250D01*
X205409000Y-107079250D01*
G36*
X205409000Y-107079250D02*
G01*
X204901000Y-107079250D01*
X204901000Y-106313250D01*
X205409000Y-106313250D01*
X205409000Y-107079250D01*
G37*
%TO.C,Q3*%
X207599000Y-110399250D02*
X207091000Y-110399250D01*
X207091000Y-109633250D01*
X207599000Y-109633250D01*
X207599000Y-110399250D01*
G36*
X207599000Y-110399250D02*
G01*
X207091000Y-110399250D01*
X207091000Y-109633250D01*
X207599000Y-109633250D01*
X207599000Y-110399250D01*
G37*
X207626000Y-104885250D02*
X207064000Y-104885250D01*
X207064000Y-103813250D01*
X207626000Y-103813250D01*
X207626000Y-104885250D01*
G36*
X207626000Y-104885250D02*
G01*
X207064000Y-104885250D01*
X207064000Y-103813250D01*
X207626000Y-103813250D01*
X207626000Y-104885250D01*
G37*
X208054000Y-107703250D02*
X207308000Y-107703250D01*
X207308000Y-106409250D01*
X208054000Y-106409250D01*
X208054000Y-107703250D01*
G36*
X208054000Y-107703250D02*
G01*
X207308000Y-107703250D01*
X207308000Y-106409250D01*
X208054000Y-106409250D01*
X208054000Y-107703250D01*
G37*
X208054000Y-109347250D02*
X207308000Y-109347250D01*
X207308000Y-108053250D01*
X208054000Y-108053250D01*
X208054000Y-109347250D01*
G36*
X208054000Y-109347250D02*
G01*
X207308000Y-109347250D01*
X207308000Y-108053250D01*
X208054000Y-108053250D01*
X208054000Y-109347250D01*
G37*
X208869000Y-110399250D02*
X208361000Y-110399250D01*
X208361000Y-109633250D01*
X208869000Y-109633250D01*
X208869000Y-110399250D01*
G36*
X208869000Y-110399250D02*
G01*
X208361000Y-110399250D01*
X208361000Y-109633250D01*
X208869000Y-109633250D01*
X208869000Y-110399250D01*
G37*
X208896000Y-104885250D02*
X208334000Y-104885250D01*
X208334000Y-103813250D01*
X208896000Y-103813250D01*
X208896000Y-104885250D01*
G36*
X208896000Y-104885250D02*
G01*
X208334000Y-104885250D01*
X208334000Y-103813250D01*
X208896000Y-103813250D01*
X208896000Y-104885250D01*
G37*
X209100000Y-107703250D02*
X208354000Y-107703250D01*
X208354000Y-106409250D01*
X209100000Y-106409250D01*
X209100000Y-107703250D01*
G36*
X209100000Y-107703250D02*
G01*
X208354000Y-107703250D01*
X208354000Y-106409250D01*
X209100000Y-106409250D01*
X209100000Y-107703250D01*
G37*
X209100000Y-109347250D02*
X208354000Y-109347250D01*
X208354000Y-108053250D01*
X209100000Y-108053250D01*
X209100000Y-109347250D01*
G36*
X209100000Y-109347250D02*
G01*
X208354000Y-109347250D01*
X208354000Y-108053250D01*
X209100000Y-108053250D01*
X209100000Y-109347250D01*
G37*
X210139000Y-110399250D02*
X209631000Y-110399250D01*
X209631000Y-109633250D01*
X210139000Y-109633250D01*
X210139000Y-110399250D01*
G36*
X210139000Y-110399250D02*
G01*
X209631000Y-110399250D01*
X209631000Y-109633250D01*
X210139000Y-109633250D01*
X210139000Y-110399250D01*
G37*
X210146000Y-107703250D02*
X209400000Y-107703250D01*
X209400000Y-106409250D01*
X210146000Y-106409250D01*
X210146000Y-107703250D01*
G36*
X210146000Y-107703250D02*
G01*
X209400000Y-107703250D01*
X209400000Y-106409250D01*
X210146000Y-106409250D01*
X210146000Y-107703250D01*
G37*
X210146000Y-109347250D02*
X209400000Y-109347250D01*
X209400000Y-108053250D01*
X210146000Y-108053250D01*
X210146000Y-109347250D01*
G36*
X210146000Y-109347250D02*
G01*
X209400000Y-109347250D01*
X209400000Y-108053250D01*
X210146000Y-108053250D01*
X210146000Y-109347250D01*
G37*
X210166000Y-104885250D02*
X209604000Y-104885250D01*
X209604000Y-103813250D01*
X210166000Y-103813250D01*
X210166000Y-104885250D01*
G36*
X210166000Y-104885250D02*
G01*
X209604000Y-104885250D01*
X209604000Y-103813250D01*
X210166000Y-103813250D01*
X210166000Y-104885250D01*
G37*
X211192000Y-107703250D02*
X210446000Y-107703250D01*
X210446000Y-106409250D01*
X211192000Y-106409250D01*
X211192000Y-107703250D01*
G36*
X211192000Y-107703250D02*
G01*
X210446000Y-107703250D01*
X210446000Y-106409250D01*
X211192000Y-106409250D01*
X211192000Y-107703250D01*
G37*
X211192000Y-109347250D02*
X210446000Y-109347250D01*
X210446000Y-108053250D01*
X211192000Y-108053250D01*
X211192000Y-109347250D01*
G36*
X211192000Y-109347250D02*
G01*
X210446000Y-109347250D01*
X210446000Y-108053250D01*
X211192000Y-108053250D01*
X211192000Y-109347250D01*
G37*
X211409000Y-110399250D02*
X210901000Y-110399250D01*
X210901000Y-109633250D01*
X211409000Y-109633250D01*
X211409000Y-110399250D01*
G36*
X211409000Y-110399250D02*
G01*
X210901000Y-110399250D01*
X210901000Y-109633250D01*
X211409000Y-109633250D01*
X211409000Y-110399250D01*
G37*
X211436000Y-104885250D02*
X210874000Y-104885250D01*
X210874000Y-103813250D01*
X211436000Y-103813250D01*
X211436000Y-104885250D01*
G36*
X211436000Y-104885250D02*
G01*
X210874000Y-104885250D01*
X210874000Y-103813250D01*
X211436000Y-103813250D01*
X211436000Y-104885250D01*
G37*
%TO.C,Q7*%
X232099000Y-110399250D02*
X231591000Y-110399250D01*
X231591000Y-109633250D01*
X232099000Y-109633250D01*
X232099000Y-110399250D01*
G36*
X232099000Y-110399250D02*
G01*
X231591000Y-110399250D01*
X231591000Y-109633250D01*
X232099000Y-109633250D01*
X232099000Y-110399250D01*
G37*
X232126000Y-104885250D02*
X231564000Y-104885250D01*
X231564000Y-103813250D01*
X232126000Y-103813250D01*
X232126000Y-104885250D01*
G36*
X232126000Y-104885250D02*
G01*
X231564000Y-104885250D01*
X231564000Y-103813250D01*
X232126000Y-103813250D01*
X232126000Y-104885250D01*
G37*
X232554000Y-107703250D02*
X231808000Y-107703250D01*
X231808000Y-106409250D01*
X232554000Y-106409250D01*
X232554000Y-107703250D01*
G36*
X232554000Y-107703250D02*
G01*
X231808000Y-107703250D01*
X231808000Y-106409250D01*
X232554000Y-106409250D01*
X232554000Y-107703250D01*
G37*
X232554000Y-109347250D02*
X231808000Y-109347250D01*
X231808000Y-108053250D01*
X232554000Y-108053250D01*
X232554000Y-109347250D01*
G36*
X232554000Y-109347250D02*
G01*
X231808000Y-109347250D01*
X231808000Y-108053250D01*
X232554000Y-108053250D01*
X232554000Y-109347250D01*
G37*
X233369000Y-110399250D02*
X232861000Y-110399250D01*
X232861000Y-109633250D01*
X233369000Y-109633250D01*
X233369000Y-110399250D01*
G36*
X233369000Y-110399250D02*
G01*
X232861000Y-110399250D01*
X232861000Y-109633250D01*
X233369000Y-109633250D01*
X233369000Y-110399250D01*
G37*
X233396000Y-104885250D02*
X232834000Y-104885250D01*
X232834000Y-103813250D01*
X233396000Y-103813250D01*
X233396000Y-104885250D01*
G36*
X233396000Y-104885250D02*
G01*
X232834000Y-104885250D01*
X232834000Y-103813250D01*
X233396000Y-103813250D01*
X233396000Y-104885250D01*
G37*
X233600000Y-107703250D02*
X232854000Y-107703250D01*
X232854000Y-106409250D01*
X233600000Y-106409250D01*
X233600000Y-107703250D01*
G36*
X233600000Y-107703250D02*
G01*
X232854000Y-107703250D01*
X232854000Y-106409250D01*
X233600000Y-106409250D01*
X233600000Y-107703250D01*
G37*
X233600000Y-109347250D02*
X232854000Y-109347250D01*
X232854000Y-108053250D01*
X233600000Y-108053250D01*
X233600000Y-109347250D01*
G36*
X233600000Y-109347250D02*
G01*
X232854000Y-109347250D01*
X232854000Y-108053250D01*
X233600000Y-108053250D01*
X233600000Y-109347250D01*
G37*
X234639000Y-110399250D02*
X234131000Y-110399250D01*
X234131000Y-109633250D01*
X234639000Y-109633250D01*
X234639000Y-110399250D01*
G36*
X234639000Y-110399250D02*
G01*
X234131000Y-110399250D01*
X234131000Y-109633250D01*
X234639000Y-109633250D01*
X234639000Y-110399250D01*
G37*
X234646000Y-107703250D02*
X233900000Y-107703250D01*
X233900000Y-106409250D01*
X234646000Y-106409250D01*
X234646000Y-107703250D01*
G36*
X234646000Y-107703250D02*
G01*
X233900000Y-107703250D01*
X233900000Y-106409250D01*
X234646000Y-106409250D01*
X234646000Y-107703250D01*
G37*
X234646000Y-109347250D02*
X233900000Y-109347250D01*
X233900000Y-108053250D01*
X234646000Y-108053250D01*
X234646000Y-109347250D01*
G36*
X234646000Y-109347250D02*
G01*
X233900000Y-109347250D01*
X233900000Y-108053250D01*
X234646000Y-108053250D01*
X234646000Y-109347250D01*
G37*
X234666000Y-104885250D02*
X234104000Y-104885250D01*
X234104000Y-103813250D01*
X234666000Y-103813250D01*
X234666000Y-104885250D01*
G36*
X234666000Y-104885250D02*
G01*
X234104000Y-104885250D01*
X234104000Y-103813250D01*
X234666000Y-103813250D01*
X234666000Y-104885250D01*
G37*
X235692000Y-107703250D02*
X234946000Y-107703250D01*
X234946000Y-106409250D01*
X235692000Y-106409250D01*
X235692000Y-107703250D01*
G36*
X235692000Y-107703250D02*
G01*
X234946000Y-107703250D01*
X234946000Y-106409250D01*
X235692000Y-106409250D01*
X235692000Y-107703250D01*
G37*
X235692000Y-109347250D02*
X234946000Y-109347250D01*
X234946000Y-108053250D01*
X235692000Y-108053250D01*
X235692000Y-109347250D01*
G36*
X235692000Y-109347250D02*
G01*
X234946000Y-109347250D01*
X234946000Y-108053250D01*
X235692000Y-108053250D01*
X235692000Y-109347250D01*
G37*
X235909000Y-110399250D02*
X235401000Y-110399250D01*
X235401000Y-109633250D01*
X235909000Y-109633250D01*
X235909000Y-110399250D01*
G36*
X235909000Y-110399250D02*
G01*
X235401000Y-110399250D01*
X235401000Y-109633250D01*
X235909000Y-109633250D01*
X235909000Y-110399250D01*
G37*
X235936000Y-104885250D02*
X235374000Y-104885250D01*
X235374000Y-103813250D01*
X235936000Y-103813250D01*
X235936000Y-104885250D01*
G36*
X235936000Y-104885250D02*
G01*
X235374000Y-104885250D01*
X235374000Y-103813250D01*
X235936000Y-103813250D01*
X235936000Y-104885250D01*
G37*
%TO.C,Q1*%
X189599000Y-110399250D02*
X189091000Y-110399250D01*
X189091000Y-109633250D01*
X189599000Y-109633250D01*
X189599000Y-110399250D01*
G36*
X189599000Y-110399250D02*
G01*
X189091000Y-110399250D01*
X189091000Y-109633250D01*
X189599000Y-109633250D01*
X189599000Y-110399250D01*
G37*
X189626000Y-104885250D02*
X189064000Y-104885250D01*
X189064000Y-103813250D01*
X189626000Y-103813250D01*
X189626000Y-104885250D01*
G36*
X189626000Y-104885250D02*
G01*
X189064000Y-104885250D01*
X189064000Y-103813250D01*
X189626000Y-103813250D01*
X189626000Y-104885250D01*
G37*
X190054000Y-107703250D02*
X189308000Y-107703250D01*
X189308000Y-106409250D01*
X190054000Y-106409250D01*
X190054000Y-107703250D01*
G36*
X190054000Y-107703250D02*
G01*
X189308000Y-107703250D01*
X189308000Y-106409250D01*
X190054000Y-106409250D01*
X190054000Y-107703250D01*
G37*
X190054000Y-109347250D02*
X189308000Y-109347250D01*
X189308000Y-108053250D01*
X190054000Y-108053250D01*
X190054000Y-109347250D01*
G36*
X190054000Y-109347250D02*
G01*
X189308000Y-109347250D01*
X189308000Y-108053250D01*
X190054000Y-108053250D01*
X190054000Y-109347250D01*
G37*
X190869000Y-110399250D02*
X190361000Y-110399250D01*
X190361000Y-109633250D01*
X190869000Y-109633250D01*
X190869000Y-110399250D01*
G36*
X190869000Y-110399250D02*
G01*
X190361000Y-110399250D01*
X190361000Y-109633250D01*
X190869000Y-109633250D01*
X190869000Y-110399250D01*
G37*
X190896000Y-104885250D02*
X190334000Y-104885250D01*
X190334000Y-103813250D01*
X190896000Y-103813250D01*
X190896000Y-104885250D01*
G36*
X190896000Y-104885250D02*
G01*
X190334000Y-104885250D01*
X190334000Y-103813250D01*
X190896000Y-103813250D01*
X190896000Y-104885250D01*
G37*
X191100000Y-107703250D02*
X190354000Y-107703250D01*
X190354000Y-106409250D01*
X191100000Y-106409250D01*
X191100000Y-107703250D01*
G36*
X191100000Y-107703250D02*
G01*
X190354000Y-107703250D01*
X190354000Y-106409250D01*
X191100000Y-106409250D01*
X191100000Y-107703250D01*
G37*
X191100000Y-109347250D02*
X190354000Y-109347250D01*
X190354000Y-108053250D01*
X191100000Y-108053250D01*
X191100000Y-109347250D01*
G36*
X191100000Y-109347250D02*
G01*
X190354000Y-109347250D01*
X190354000Y-108053250D01*
X191100000Y-108053250D01*
X191100000Y-109347250D01*
G37*
X192139000Y-110399250D02*
X191631000Y-110399250D01*
X191631000Y-109633250D01*
X192139000Y-109633250D01*
X192139000Y-110399250D01*
G36*
X192139000Y-110399250D02*
G01*
X191631000Y-110399250D01*
X191631000Y-109633250D01*
X192139000Y-109633250D01*
X192139000Y-110399250D01*
G37*
X192146000Y-107703250D02*
X191400000Y-107703250D01*
X191400000Y-106409250D01*
X192146000Y-106409250D01*
X192146000Y-107703250D01*
G36*
X192146000Y-107703250D02*
G01*
X191400000Y-107703250D01*
X191400000Y-106409250D01*
X192146000Y-106409250D01*
X192146000Y-107703250D01*
G37*
X192146000Y-109347250D02*
X191400000Y-109347250D01*
X191400000Y-108053250D01*
X192146000Y-108053250D01*
X192146000Y-109347250D01*
G36*
X192146000Y-109347250D02*
G01*
X191400000Y-109347250D01*
X191400000Y-108053250D01*
X192146000Y-108053250D01*
X192146000Y-109347250D01*
G37*
X192166000Y-104885250D02*
X191604000Y-104885250D01*
X191604000Y-103813250D01*
X192166000Y-103813250D01*
X192166000Y-104885250D01*
G36*
X192166000Y-104885250D02*
G01*
X191604000Y-104885250D01*
X191604000Y-103813250D01*
X192166000Y-103813250D01*
X192166000Y-104885250D01*
G37*
X193192000Y-107703250D02*
X192446000Y-107703250D01*
X192446000Y-106409250D01*
X193192000Y-106409250D01*
X193192000Y-107703250D01*
G36*
X193192000Y-107703250D02*
G01*
X192446000Y-107703250D01*
X192446000Y-106409250D01*
X193192000Y-106409250D01*
X193192000Y-107703250D01*
G37*
X193192000Y-109347250D02*
X192446000Y-109347250D01*
X192446000Y-108053250D01*
X193192000Y-108053250D01*
X193192000Y-109347250D01*
G36*
X193192000Y-109347250D02*
G01*
X192446000Y-109347250D01*
X192446000Y-108053250D01*
X193192000Y-108053250D01*
X193192000Y-109347250D01*
G37*
X193409000Y-110399250D02*
X192901000Y-110399250D01*
X192901000Y-109633250D01*
X193409000Y-109633250D01*
X193409000Y-110399250D01*
G36*
X193409000Y-110399250D02*
G01*
X192901000Y-110399250D01*
X192901000Y-109633250D01*
X193409000Y-109633250D01*
X193409000Y-110399250D01*
G37*
X193436000Y-104885250D02*
X192874000Y-104885250D01*
X192874000Y-103813250D01*
X193436000Y-103813250D01*
X193436000Y-104885250D01*
G36*
X193436000Y-104885250D02*
G01*
X192874000Y-104885250D01*
X192874000Y-103813250D01*
X193436000Y-103813250D01*
X193436000Y-104885250D01*
G37*
%TD*%
D12*
%TO.C,C17*%
X189142500Y-148681250D03*
X190102500Y-148681250D03*
%TD*%
D13*
%TO.C,R25*%
X237830369Y-149633702D03*
X236810369Y-149633702D03*
%TD*%
D14*
%TO.C,C10*%
X233289000Y-132606250D03*
X244211000Y-132606250D03*
%TD*%
D15*
%TO.C,R32*%
X227070369Y-144883702D03*
X227070369Y-143863702D03*
%TD*%
D13*
%TO.C,R10*%
X196407500Y-154681250D03*
X195387500Y-154681250D03*
%TD*%
%TO.C,R14*%
X202897500Y-150681250D03*
X201877500Y-150681250D03*
%TD*%
D15*
%TO.C,R19*%
X199887500Y-144941250D03*
X199887500Y-143921250D03*
%TD*%
D16*
%TO.C,C4*%
X206750000Y-129131250D03*
X206750000Y-127581250D03*
%TD*%
D14*
%TO.C,C7*%
X180789000Y-132606250D03*
X191711000Y-132606250D03*
%TD*%
D17*
%TO.C,C34*%
X200665092Y-119063248D03*
X200665092Y-118103248D03*
%TD*%
D15*
%TO.C,R3*%
X205250000Y-127260000D03*
X205250000Y-126240000D03*
%TD*%
D18*
%TO.C,R28*%
X224060369Y-149633702D03*
X225080369Y-149633702D03*
%TD*%
D17*
%TO.C,C35*%
X224250000Y-119079218D03*
X224250000Y-118119218D03*
%TD*%
D13*
%TO.C,R13*%
X202897500Y-149681250D03*
X201877500Y-149681250D03*
%TD*%
D17*
%TO.C,C3*%
X210750000Y-129336250D03*
X210750000Y-128376250D03*
%TD*%
D15*
%TO.C,R2*%
X218250000Y-127510000D03*
X218250000Y-126490000D03*
%TD*%
D17*
%TO.C,C30*%
X226070369Y-150613702D03*
X226070369Y-149653702D03*
%TD*%
D19*
%TO.C,C26*%
X237800369Y-151633702D03*
X236840369Y-151633702D03*
%TD*%
D15*
%TO.C,R29*%
X228070369Y-144883702D03*
X228070369Y-143863702D03*
%TD*%
D19*
%TO.C,C15*%
X202867500Y-151681250D03*
X201907500Y-151681250D03*
%TD*%
D15*
%TO.C,R21*%
X200887500Y-144941250D03*
X200887500Y-143921250D03*
%TD*%
%TO.C,R23*%
X231320369Y-153653702D03*
X231320369Y-152633702D03*
%TD*%
D20*
%TO.C,R4*%
X197737800Y-120594050D03*
X197737800Y-116606250D03*
%TD*%
D21*
%TO.C,R7*%
X209000000Y-131240000D03*
X209000000Y-132260000D03*
%TD*%
D17*
%TO.C,C5*%
X209000000Y-129336250D03*
X209000000Y-128376250D03*
%TD*%
D15*
%TO.C,R6*%
X208000000Y-132260000D03*
X208000000Y-131240000D03*
%TD*%
D22*
%TO.C,C8*%
X185475000Y-140750000D03*
X187025000Y-140750000D03*
%TD*%
D18*
%TO.C,R16*%
X189112500Y-149681250D03*
X190132500Y-149681250D03*
%TD*%
D23*
%TO.C,C2*%
X208000000Y-128376250D03*
X208000000Y-129336250D03*
%TD*%
D17*
%TO.C,C13*%
X194387500Y-153661250D03*
X194387500Y-152701250D03*
%TD*%
D15*
%TO.C,R31*%
X234820369Y-144893702D03*
X234820369Y-143873702D03*
%TD*%
D17*
%TO.C,C24*%
X229320369Y-153613702D03*
X229320369Y-152653702D03*
%TD*%
D13*
%TO.C,R26*%
X237830369Y-150633702D03*
X236810369Y-150633702D03*
%TD*%
D21*
%TO.C,R1*%
X219250000Y-126490000D03*
X219250000Y-127510000D03*
%TD*%
D20*
%TO.C,R9*%
X227250000Y-120594050D03*
X227250000Y-116606250D03*
%TD*%
D19*
%TO.C,C31*%
X231320369Y-151633702D03*
X230360369Y-151633702D03*
%TD*%
D12*
%TO.C,C16*%
X189142500Y-151681250D03*
X190102500Y-151681250D03*
%TD*%
D19*
%TO.C,C20*%
X196367500Y-151681250D03*
X195407500Y-151681250D03*
%TD*%
D13*
%TO.C,R8*%
X217760000Y-128750000D03*
X216740000Y-128750000D03*
%TD*%
D14*
%TO.C,C6*%
X180789000Y-118106250D03*
X191711000Y-118106250D03*
%TD*%
D12*
%TO.C,C33*%
X236885864Y-147497441D03*
X237845864Y-147497441D03*
%TD*%
D24*
%TO.C,U1*%
X207999999Y-125556249D03*
X208499998Y-125556249D03*
X208999999Y-125556249D03*
X209499998Y-125556249D03*
X210000000Y-125556249D03*
X210499999Y-125556249D03*
X210999998Y-125556249D03*
X211499999Y-125556249D03*
X211999998Y-125556249D03*
X212500000Y-125556249D03*
X212999999Y-125556249D03*
X213499998Y-125556249D03*
X214000000Y-125556249D03*
X214499999Y-125556249D03*
X215000000Y-125556249D03*
X215499999Y-125556249D03*
X215999998Y-125556249D03*
X216500000Y-125556249D03*
X216999999Y-125556249D03*
X216999999Y-119656248D03*
X216500000Y-119656248D03*
X215999998Y-119656248D03*
X215499999Y-119656248D03*
X215000000Y-119656248D03*
X214499999Y-119656248D03*
X214000000Y-119656248D03*
X213499998Y-119656248D03*
X212999999Y-119656248D03*
X212500000Y-119656248D03*
X211999998Y-119656248D03*
X211499999Y-119656248D03*
X210999998Y-119656248D03*
X210499999Y-119656248D03*
X210000000Y-119656248D03*
X209499998Y-119656248D03*
X208999999Y-119656248D03*
X208499998Y-119656248D03*
X207999999Y-119656248D03*
%TD*%
D15*
%TO.C,R12*%
X195387500Y-153691250D03*
X195387500Y-152671250D03*
%TD*%
D17*
%TO.C,C12*%
X197387500Y-153661250D03*
X197387500Y-152701250D03*
%TD*%
D12*
%TO.C,C22*%
X201907500Y-147521250D03*
X202867500Y-147521250D03*
%TD*%
D25*
%TO.C,U2*%
X193137500Y-146081250D03*
X193137500Y-146731250D03*
X193137500Y-147381250D03*
X193137500Y-148031250D03*
X193137500Y-148681250D03*
X193137500Y-149331250D03*
X193137500Y-149981250D03*
X193137500Y-150631250D03*
X198862500Y-150631250D03*
X198862500Y-149981250D03*
X198862500Y-149331250D03*
X198862500Y-148681250D03*
X198862500Y-148031250D03*
X198862500Y-147381250D03*
X198862500Y-146731250D03*
X198862500Y-146081250D03*
%TD*%
D15*
%TO.C,R33*%
X235820369Y-144893702D03*
X235820369Y-143873702D03*
%TD*%
D19*
%TO.C,C14*%
X202867500Y-148681250D03*
X201907500Y-148681250D03*
%TD*%
D14*
%TO.C,C9*%
X233289000Y-118106250D03*
X244211000Y-118106250D03*
%TD*%
D15*
%TO.C,R30*%
X233820369Y-144893702D03*
X233820369Y-143873702D03*
%TD*%
D19*
%TO.C,C32*%
X237800369Y-145883702D03*
X236840369Y-145883702D03*
%TD*%
D22*
%TO.C,C11*%
X237975000Y-109106250D03*
X239525000Y-109106250D03*
%TD*%
D13*
%TO.C,R22*%
X231330369Y-154633702D03*
X230310369Y-154633702D03*
%TD*%
D15*
%TO.C,R20*%
X192057500Y-144941250D03*
X192057500Y-143921250D03*
%TD*%
%TO.C,R24*%
X230320369Y-153643702D03*
X230320369Y-152623702D03*
%TD*%
D25*
%TO.C,U3*%
X228137500Y-146081250D03*
X228137500Y-146731250D03*
X228137500Y-147381250D03*
X228137500Y-148031250D03*
X228137500Y-148681250D03*
X228137500Y-149331250D03*
X228137500Y-149981250D03*
X228137500Y-150631250D03*
X233862500Y-150631250D03*
X233862500Y-149981250D03*
X233862500Y-149331250D03*
X233862500Y-148681250D03*
X233862500Y-148031250D03*
X233862500Y-147381250D03*
X233862500Y-146731250D03*
X233862500Y-146081250D03*
%TD*%
D19*
%TO.C,C21*%
X202867500Y-145931250D03*
X201907500Y-145931250D03*
%TD*%
D12*
%TO.C,C28*%
X224070369Y-148633702D03*
X225030369Y-148633702D03*
%TD*%
D15*
%TO.C,R18*%
X198887500Y-144941250D03*
X198887500Y-143921250D03*
%TD*%
D12*
%TO.C,C27*%
X224110369Y-151633702D03*
X225070369Y-151633702D03*
%TD*%
D26*
%TO.C,D1*%
X222000000Y-126462500D03*
X222000000Y-128037500D03*
%TD*%
D15*
%TO.C,R11*%
X196387500Y-153691250D03*
X196387500Y-152671250D03*
%TD*%
%TO.C,R17*%
X193137500Y-144941250D03*
X193137500Y-143921250D03*
%TD*%
D27*
%TO.C,D2*%
X203000000Y-128037500D03*
X203000000Y-126462500D03*
%TD*%
D23*
%TO.C,C29*%
X235820369Y-149653702D03*
X235820369Y-150613702D03*
%TD*%
D17*
%TO.C,C19*%
X191122500Y-150661250D03*
X191122500Y-149701250D03*
%TD*%
D23*
%TO.C,C18*%
X200877726Y-149751072D03*
X200877726Y-150711072D03*
%TD*%
D17*
%TO.C,C23*%
X232320369Y-153613702D03*
X232320369Y-152653702D03*
%TD*%
D18*
%TO.C,R15*%
X189112500Y-150681250D03*
X190132500Y-150681250D03*
%TD*%
D17*
%TO.C,C1*%
X204250000Y-127220694D03*
X204250000Y-126260694D03*
%TD*%
D19*
%TO.C,C25*%
X237800369Y-148633702D03*
X236840369Y-148633702D03*
%TD*%
D28*
%TO.C,SW1*%
X218950000Y-132800000D03*
X218950000Y-128700000D03*
X220550000Y-132800000D03*
X220550000Y-128700000D03*
%TD*%
D18*
%TO.C,R27*%
X224060369Y-150644442D03*
X225080369Y-150644442D03*
%TD*%
M02*
