%TF.GenerationSoftware,KiCad,Pcbnew,9.0.7-9.0.7~ubuntu22.04.1*%
%TF.CreationDate,2026-02-03T08:37:43-07:00*%
%TF.ProjectId,Power_Brick,506f7765-725f-4427-9269-636b2e6b6963,1.1*%
%TF.SameCoordinates,Original*%
%TF.FileFunction,Copper,L2,Bot*%
%TF.FilePolarity,Positive*%
%FSLAX46Y46*%
G04 Gerber Fmt 4.6, Leading zero omitted, Abs format (unit mm)*
G04 Created by KiCad (PCBNEW 9.0.7-9.0.7~ubuntu22.04.1) date 2026-02-03 08:37:43*
%MOMM*%
%LPD*%
G01*
G04 APERTURE LIST*
%TA.AperFunction,ComponentPad*%
%ADD10C,0.600000*%
%TD*%
%TA.AperFunction,ComponentPad*%
%ADD11R,1.700000X1.700000*%
%TD*%
%TA.AperFunction,ComponentPad*%
%ADD12C,1.700000*%
%TD*%
%TA.AperFunction,ComponentPad*%
%ADD13C,2.300000*%
%TD*%
%TA.AperFunction,SMDPad,CuDef*%
%ADD14R,9.000000X9.000000*%
%TD*%
%TA.AperFunction,ViaPad*%
%ADD15C,0.600000*%
%TD*%
%TA.AperFunction,ViaPad*%
%ADD16C,1.700000*%
%TD*%
%TA.AperFunction,Conductor*%
%ADD17C,0.200000*%
%TD*%
%TA.AperFunction,Conductor*%
%ADD18C,2.000000*%
%TD*%
%TA.AperFunction,Conductor*%
%ADD19C,0.400000*%
%TD*%
G04 APERTURE END LIST*
D10*
%TO.P,U1,39,PAD*%
%TO.N,GND*%
X209249999Y-123906250D03*
X210549999Y-123906250D03*
X211849999Y-123906250D03*
X213150001Y-123906250D03*
X214450001Y-123906250D03*
X215750001Y-123906250D03*
X216700000Y-123906250D03*
X208250000Y-123856250D03*
X209249999Y-122606250D03*
X210549999Y-122606250D03*
X211849999Y-122606250D03*
X213150001Y-122606250D03*
X214450001Y-122606250D03*
X215750001Y-122606250D03*
X216700000Y-122606250D03*
X208250000Y-122556250D03*
X209249999Y-121306250D03*
X210549999Y-121306250D03*
X211849999Y-121306250D03*
X213150001Y-121306250D03*
X214450001Y-121306250D03*
X215750001Y-121306250D03*
X216700000Y-121306250D03*
X208250000Y-121256250D03*
%TD*%
D11*
%TO.P,J1,1,Pin_1*%
%TO.N,+3.3V*%
X201710000Y-158856250D03*
D12*
%TO.P,J1,2,Pin_2*%
%TO.N,GNDD*%
X204250000Y-158856250D03*
%TO.P,J1,3,Pin_3*%
%TO.N,/SCLK*%
X206790000Y-158856250D03*
%TO.P,J1,4,Pin_4*%
%TO.N,/SDI*%
X209330000Y-158856250D03*
%TO.P,J1,5,Pin_5*%
%TO.N,/SDO*%
X211870000Y-158856250D03*
%TO.P,J1,6,Pin_6*%
%TO.N,/SCS*%
X214410000Y-158856250D03*
%TO.P,J1,7,Pin_7*%
%TO.N,/CS_T1*%
X216950000Y-158856250D03*
%TO.P,J1,8,Pin_8*%
%TO.N,/CS_T2*%
X219490000Y-158856250D03*
%TO.P,J1,9,Pin_9*%
%TO.N,/DRDY_N_T1*%
X222030000Y-158856250D03*
%TO.P,J1,10,Pin_10*%
%TO.N,/DRDY_N_T2*%
X224570000Y-158856250D03*
%TD*%
D11*
%TO.P,J6,1,Pin_1*%
%TO.N,/R1N_T1*%
X188077500Y-158856250D03*
D12*
%TO.P,J6,2,Pin_2*%
%TO.N,/R1P_T1*%
X190617500Y-158856250D03*
%TO.P,J6,3,Pin_3*%
%TO.N,/R0N_T1*%
X193157500Y-158856250D03*
%TO.P,J6,4,Pin_4*%
%TO.N,/R0P_T1*%
X195697500Y-158856250D03*
%TD*%
D10*
%TO.P,J4,1,1*%
%TO.N,GND*%
X242700000Y-107106250D03*
X238600000Y-107056250D03*
X239925000Y-107056250D03*
X241350000Y-107056250D03*
X242100000Y-106656250D03*
X243425000Y-106656250D03*
X239300000Y-106606250D03*
X240625000Y-106606250D03*
D13*
X245750000Y-106306250D03*
D10*
X241400000Y-106206250D03*
X242725000Y-106206250D03*
X238600000Y-106156250D03*
X239925000Y-106156250D03*
X242100000Y-105706250D03*
X243425000Y-105706250D03*
X239300000Y-105656250D03*
X240625000Y-105656250D03*
X241400000Y-105206250D03*
X242725000Y-105206250D03*
X238600000Y-105156250D03*
X239925000Y-105156250D03*
X242100000Y-104706250D03*
X243425000Y-104706250D03*
X239300000Y-104656250D03*
X240625000Y-104656250D03*
X241425000Y-104206250D03*
X238625000Y-104156250D03*
X239950000Y-104156250D03*
X239325000Y-103656250D03*
X240650000Y-103656250D03*
X238625000Y-103156250D03*
X239950000Y-103156250D03*
D13*
X242500000Y-103106250D03*
D14*
X242500000Y-103106250D03*
D10*
X239325000Y-102656250D03*
X240650000Y-102656250D03*
X238625000Y-102156250D03*
X239950000Y-102156250D03*
X241400000Y-101956250D03*
X243450000Y-101706250D03*
X239325000Y-101656250D03*
X240650000Y-101656250D03*
X242100000Y-101556250D03*
X242750000Y-101206250D03*
X238625000Y-101156250D03*
X239950000Y-101156250D03*
X241400000Y-101056250D03*
X243450000Y-100706250D03*
X239325000Y-100656250D03*
X240650000Y-100656250D03*
X242125000Y-100656250D03*
X241425000Y-100206250D03*
X242750000Y-100206250D03*
X238625000Y-100156250D03*
X239950000Y-100156250D03*
D13*
X245750000Y-99806250D03*
D10*
X242125000Y-99706250D03*
X243450000Y-99706250D03*
X239325000Y-99656250D03*
X240650000Y-99656250D03*
X241425000Y-99206250D03*
X242750000Y-99206250D03*
X238625000Y-99156250D03*
X239950000Y-99156250D03*
%TD*%
D11*
%TO.P,J7,1,Pin_1*%
%TO.N,/R1N_T2*%
X229750000Y-158856250D03*
D12*
%TO.P,J7,2,Pin_2*%
%TO.N,/R1P_T2*%
X232290000Y-158856250D03*
%TO.P,J7,3,Pin_3*%
%TO.N,/R0N_T2*%
X234830000Y-158856250D03*
%TO.P,J7,4,Pin_4*%
%TO.N,/R0P_T2*%
X237370000Y-158856250D03*
%TD*%
D11*
%TO.P,J2,1,Pin_1*%
%TO.N,+3.3V*%
X196510000Y-137986250D03*
D12*
%TO.P,J2,2,Pin_2*%
%TO.N,GNDD*%
X199050000Y-137986250D03*
%TO.P,J2,3,Pin_3*%
%TO.N,/SLEEP_N_IN*%
X201590000Y-137986250D03*
%TO.P,J2,4,Pin_4*%
%TO.N,/RESET*%
X204130000Y-137986250D03*
%TO.P,J2,5,Pin_5*%
%TO.N,/FAULT_N*%
X206670000Y-137986250D03*
%TO.P,J2,6,Pin_6*%
%TO.N,/AIN1*%
X209210000Y-137986250D03*
%TO.P,J2,7,Pin_7*%
%TO.N,/AIN2*%
X211750000Y-137986250D03*
%TO.P,J2,8,Pin_8*%
%TO.N,/BIN1*%
X214290000Y-137986250D03*
%TO.P,J2,9,Pin_9*%
%TO.N,/BIN2*%
X216830000Y-137986250D03*
%TD*%
D10*
%TO.P,J5,1,1*%
%TO.N,/MB2*%
X230700000Y-97750000D03*
X230700000Y-96425000D03*
X230650000Y-100550000D03*
X230650000Y-99225000D03*
X230250000Y-97050000D03*
X230250000Y-95725000D03*
X230200000Y-99850000D03*
X230200000Y-98525000D03*
D13*
X229980000Y-93500000D03*
D10*
X229800000Y-97750000D03*
X229800000Y-96425000D03*
X229750000Y-100550000D03*
X229750000Y-99225000D03*
X229300000Y-97050000D03*
X229300000Y-95725000D03*
X229250000Y-99850000D03*
X229250000Y-98525000D03*
X228800000Y-97750000D03*
X228800000Y-96425000D03*
X228750000Y-100550000D03*
X228750000Y-99225000D03*
X228300000Y-97050000D03*
X228300000Y-95725000D03*
X228250000Y-99850000D03*
X228250000Y-98525000D03*
X227800000Y-97725000D03*
X227750000Y-100525000D03*
X227750000Y-99200000D03*
X227250000Y-99825000D03*
X227250000Y-98500000D03*
D13*
X226780000Y-96750000D03*
D14*
X226780000Y-96750000D03*
D10*
X226750000Y-100525000D03*
X226750000Y-99200000D03*
X226250000Y-99825000D03*
X226250000Y-98500000D03*
X225750000Y-100525000D03*
X225750000Y-99200000D03*
X225550000Y-97750000D03*
X225300000Y-95700000D03*
X225250000Y-99825000D03*
X225250000Y-98500000D03*
X225150000Y-97050000D03*
X224800000Y-96400000D03*
X224750000Y-100525000D03*
X224750000Y-99200000D03*
X224650000Y-97750000D03*
X224300000Y-95700000D03*
X224250000Y-99825000D03*
X224250000Y-98500000D03*
X224250000Y-97025000D03*
X223800000Y-97725000D03*
X223800000Y-96400000D03*
X223750000Y-100525000D03*
X223750000Y-99200000D03*
D13*
X223480000Y-93500000D03*
D10*
X223300000Y-97025000D03*
X223300000Y-95700000D03*
X223250000Y-99825000D03*
X223250000Y-98500000D03*
X222800000Y-97725000D03*
X222800000Y-96400000D03*
X222750000Y-100525000D03*
X222750000Y-99200000D03*
%TO.P,J5,2,2*%
%TO.N,/MB1*%
X221200000Y-97600000D03*
X221200000Y-96275000D03*
X221150000Y-100400000D03*
X221150000Y-99075000D03*
X220750000Y-96900000D03*
X220750000Y-95575000D03*
X220700000Y-99700000D03*
X220700000Y-98375000D03*
D13*
X220480000Y-93500000D03*
D10*
X220300000Y-97600000D03*
X220300000Y-96275000D03*
X220250000Y-100400000D03*
X220250000Y-99075000D03*
X219800000Y-96900000D03*
X219800000Y-95575000D03*
X219750000Y-99700000D03*
X219750000Y-98375000D03*
X219300000Y-97600000D03*
X219300000Y-96275000D03*
X219250000Y-100400000D03*
X219250000Y-99075000D03*
X218800000Y-96900000D03*
X218800000Y-95575000D03*
X218750000Y-99700000D03*
X218750000Y-98375000D03*
X218300000Y-97575000D03*
X218250000Y-100375000D03*
X218250000Y-99050000D03*
X217750000Y-99675000D03*
X217750000Y-98350000D03*
D13*
X217260000Y-96750000D03*
D14*
X217260000Y-96750000D03*
D10*
X217250000Y-100375000D03*
X217250000Y-99050000D03*
X216750000Y-99675000D03*
X216750000Y-98350000D03*
X216250000Y-100375000D03*
X216250000Y-99050000D03*
X216050000Y-97600000D03*
X215800000Y-95550000D03*
X215750000Y-99675000D03*
X215750000Y-98350000D03*
X215650000Y-96900000D03*
X215300000Y-96250000D03*
X215250000Y-100375000D03*
X215250000Y-99050000D03*
X215150000Y-97600000D03*
X214800000Y-95550000D03*
X214750000Y-99675000D03*
X214750000Y-98350000D03*
X214750000Y-96875000D03*
X214300000Y-97575000D03*
X214300000Y-96250000D03*
X214250000Y-100375000D03*
X214250000Y-99050000D03*
D13*
X213980000Y-93500000D03*
D10*
X213800000Y-96875000D03*
X213800000Y-95550000D03*
X213750000Y-99675000D03*
X213750000Y-98350000D03*
X213300000Y-97575000D03*
X213300000Y-96250000D03*
X213250000Y-100375000D03*
X213250000Y-99050000D03*
%TO.P,J5,3,3*%
%TO.N,/MA2*%
X211650000Y-97600000D03*
X211650000Y-96275000D03*
X211600000Y-100400000D03*
X211600000Y-99075000D03*
X211300000Y-96900000D03*
X211300000Y-95575000D03*
X211250000Y-99700000D03*
X211250000Y-98375000D03*
D13*
X210980000Y-93750000D03*
D10*
X210850000Y-97600000D03*
X210850000Y-96275000D03*
X210800000Y-100400000D03*
X210800000Y-99075000D03*
X210350000Y-96900000D03*
X210350000Y-95575000D03*
X210300000Y-99700000D03*
X210300000Y-98375000D03*
X209850000Y-97600000D03*
X209850000Y-96275000D03*
X209800000Y-100400000D03*
X209800000Y-99075000D03*
X209350000Y-96900000D03*
X209350000Y-95575000D03*
X209300000Y-99700000D03*
X209300000Y-98375000D03*
X208850000Y-97575000D03*
X208800000Y-100375000D03*
X208800000Y-99050000D03*
X208300000Y-99675000D03*
X208300000Y-98350000D03*
X207800000Y-100375000D03*
X207800000Y-99050000D03*
D13*
X207740000Y-96750000D03*
D14*
X207740000Y-96750000D03*
D10*
X207300000Y-99675000D03*
X207300000Y-98350000D03*
X206800000Y-100375000D03*
X206800000Y-99050000D03*
X206600000Y-97600000D03*
X206350000Y-95550000D03*
X206300000Y-99675000D03*
X206300000Y-98350000D03*
X206200000Y-96900000D03*
X205850000Y-96250000D03*
X205800000Y-100375000D03*
X205800000Y-99050000D03*
X205700000Y-97600000D03*
X205350000Y-95550000D03*
X205300000Y-99675000D03*
X205300000Y-98350000D03*
X205300000Y-96875000D03*
X204850000Y-97575000D03*
X204850000Y-96250000D03*
X204800000Y-100375000D03*
X204800000Y-99050000D03*
D13*
X204480000Y-93750000D03*
D10*
X204350000Y-96875000D03*
X204350000Y-95550000D03*
X204300000Y-99675000D03*
X204300000Y-98350000D03*
X203850000Y-97575000D03*
X203850000Y-96250000D03*
X203800000Y-100375000D03*
X203800000Y-99050000D03*
%TO.P,J5,4,4*%
%TO.N,/MA1*%
X202150000Y-97550000D03*
X202150000Y-96225000D03*
X202100000Y-100350000D03*
X202100000Y-99025000D03*
X201750000Y-96825000D03*
X201750000Y-95500000D03*
X201700000Y-99625000D03*
X201700000Y-98300000D03*
D13*
X201480000Y-93750000D03*
D10*
X201300000Y-97525000D03*
X201300000Y-96200000D03*
X201250000Y-100325000D03*
X201250000Y-99000000D03*
X200800000Y-96825000D03*
X200800000Y-95500000D03*
X200750000Y-99625000D03*
X200750000Y-98300000D03*
X200300000Y-97525000D03*
X200300000Y-96200000D03*
X200250000Y-100325000D03*
X200250000Y-99000000D03*
X199800000Y-96825000D03*
X199800000Y-95500000D03*
X199750000Y-99625000D03*
X199750000Y-98300000D03*
X199300000Y-97500000D03*
X199250000Y-100300000D03*
X199250000Y-98975000D03*
X198750000Y-99600000D03*
X198750000Y-98275000D03*
X198250000Y-100300000D03*
X198250000Y-98975000D03*
D13*
X198220000Y-96750000D03*
D14*
X198220000Y-96750000D03*
D10*
X197750000Y-99600000D03*
X197750000Y-98275000D03*
X197250000Y-100300000D03*
X197250000Y-98975000D03*
X197050000Y-97525000D03*
X196800000Y-95475000D03*
X196750000Y-99600000D03*
X196750000Y-98275000D03*
X196650000Y-96825000D03*
X196300000Y-96175000D03*
X196250000Y-100300000D03*
X196250000Y-98975000D03*
X196150000Y-97525000D03*
X195800000Y-95475000D03*
X195750000Y-99600000D03*
X195750000Y-98275000D03*
X195750000Y-96800000D03*
X195300000Y-97500000D03*
X195300000Y-96175000D03*
X195250000Y-100300000D03*
X195250000Y-98975000D03*
D13*
X194980000Y-93750000D03*
D10*
X194800000Y-96800000D03*
X194800000Y-95475000D03*
X194750000Y-99600000D03*
X194750000Y-98275000D03*
X194300000Y-97500000D03*
X194300000Y-96175000D03*
X194250000Y-100300000D03*
X194250000Y-98975000D03*
%TD*%
%TO.P,J3,1,1*%
%TO.N,VBUS*%
X182300000Y-99106250D03*
X186400000Y-99156250D03*
X185075000Y-99156250D03*
X183650000Y-99156250D03*
X182900000Y-99556250D03*
X181575000Y-99556250D03*
X185700000Y-99606250D03*
X184375000Y-99606250D03*
D13*
X179250000Y-99906250D03*
D10*
X183600000Y-100006250D03*
X182275000Y-100006250D03*
X186400000Y-100056250D03*
X185075000Y-100056250D03*
X182900000Y-100506250D03*
X181575000Y-100506250D03*
X185700000Y-100556250D03*
X184375000Y-100556250D03*
X183600000Y-101006250D03*
X182275000Y-101006250D03*
X186400000Y-101056250D03*
X185075000Y-101056250D03*
X182900000Y-101506250D03*
X181575000Y-101506250D03*
X185700000Y-101556250D03*
X184375000Y-101556250D03*
X183575000Y-102006250D03*
X186375000Y-102056250D03*
X185050000Y-102056250D03*
X185675000Y-102556250D03*
X184350000Y-102556250D03*
X186375000Y-103056250D03*
X185050000Y-103056250D03*
D13*
X182500000Y-103106250D03*
D14*
X182500000Y-103106250D03*
D10*
X185675000Y-103556250D03*
X184350000Y-103556250D03*
X186375000Y-104056250D03*
X185050000Y-104056250D03*
X183600000Y-104256250D03*
X181550000Y-104506250D03*
X185675000Y-104556250D03*
X184350000Y-104556250D03*
X182900000Y-104656250D03*
X182250000Y-105006250D03*
X186375000Y-105056250D03*
X185050000Y-105056250D03*
X183600000Y-105156250D03*
X181550000Y-105506250D03*
X185675000Y-105556250D03*
X184350000Y-105556250D03*
X182875000Y-105556250D03*
X183575000Y-106006250D03*
X182250000Y-106006250D03*
X186375000Y-106056250D03*
X185050000Y-106056250D03*
D13*
X179250000Y-106406250D03*
D10*
X182875000Y-106506250D03*
X181550000Y-106506250D03*
X185675000Y-106556250D03*
X184350000Y-106556250D03*
X183575000Y-107006250D03*
X182250000Y-107006250D03*
X186375000Y-107056250D03*
X185050000Y-107056250D03*
%TD*%
D15*
%TO.N,GND*%
X192000000Y-138750000D03*
X189250000Y-138750000D03*
%TO.N,GNDD*%
X196250000Y-141750000D03*
%TO.N,GND*%
X226250000Y-125500000D03*
X197375000Y-125375000D03*
%TO.N,GNDD*%
X221750000Y-133500000D03*
%TO.N,GND*%
X197375000Y-124250000D03*
X197350000Y-126500000D03*
X198750000Y-125375000D03*
X196000000Y-125375000D03*
X229000000Y-125500000D03*
X227625000Y-125500000D03*
X227625000Y-126750000D03*
X227625000Y-124250000D03*
%TO.N,GNDD*%
X217750000Y-132000000D03*
X211750000Y-132750000D03*
X217000000Y-127750000D03*
X220500000Y-127500000D03*
X203500000Y-136100000D03*
X212250000Y-134250000D03*
%TO.N,GND*%
X203750000Y-130750000D03*
X201500000Y-130750000D03*
%TO.N,/RESET*%
X211999998Y-131500000D03*
%TO.N,+5V*%
X210390955Y-127207574D03*
X205250000Y-128106250D03*
%TO.N,GND*%
X187750000Y-126500000D03*
X223500000Y-126750000D03*
X220000000Y-124250000D03*
X243000000Y-126856250D03*
X190500000Y-134750000D03*
X196000000Y-124250000D03*
X237250000Y-137500000D03*
X231750000Y-134500000D03*
X187750000Y-134750000D03*
X215674265Y-116424265D03*
X190500000Y-130750000D03*
X226250000Y-134500000D03*
X219750000Y-121750000D03*
X193250000Y-126500000D03*
X203750000Y-120000000D03*
X226250000Y-126750000D03*
X198750000Y-134750000D03*
X245750000Y-126856250D03*
X190500000Y-124250000D03*
X187750000Y-122000000D03*
X190500000Y-126500000D03*
X223500000Y-131250000D03*
X229000000Y-129000000D03*
X225000000Y-121750000D03*
X229000000Y-126750000D03*
X218000000Y-121750000D03*
X187750000Y-130750000D03*
X223500000Y-134500000D03*
X243000000Y-131106250D03*
X245750000Y-116000000D03*
X207250000Y-118606250D03*
X240500000Y-121856250D03*
X229000000Y-131250000D03*
X231750000Y-137500000D03*
X200750000Y-121750000D03*
X245750000Y-131106250D03*
X221750000Y-124250000D03*
X245750000Y-119606250D03*
X226250000Y-124250000D03*
X198750000Y-126500000D03*
X187750000Y-128500000D03*
X237250000Y-134500000D03*
X190500000Y-119750000D03*
X240500000Y-134500000D03*
X187750000Y-124250000D03*
X229000000Y-134500000D03*
X240500000Y-116000000D03*
X229000000Y-137500000D03*
X226250000Y-137500000D03*
X193250000Y-124250000D03*
X193250000Y-137000000D03*
X205500000Y-124250000D03*
X234750000Y-137500000D03*
X223500000Y-120750000D03*
X218000000Y-120000000D03*
X190500000Y-122000000D03*
X221750000Y-120000000D03*
X207000000Y-120000000D03*
X245750000Y-124356250D03*
X196000000Y-134750000D03*
X240500000Y-131106250D03*
X245750000Y-129106250D03*
X190500000Y-116000000D03*
X240500000Y-129106250D03*
X243000000Y-129106250D03*
X243000000Y-111856250D03*
X202250000Y-121000000D03*
X240500000Y-113856250D03*
X207000000Y-124250000D03*
X240500000Y-124356250D03*
X205500000Y-120000000D03*
X243000000Y-113856250D03*
X190500000Y-137000000D03*
X226250000Y-131250000D03*
X223500000Y-129000000D03*
X240500000Y-119606250D03*
X240500000Y-126856250D03*
X201500000Y-124250000D03*
X217750000Y-118750000D03*
X203750000Y-121750000D03*
X193250000Y-134750000D03*
X203750000Y-124250000D03*
X243000000Y-121856250D03*
X219750000Y-120000000D03*
X196000000Y-128500000D03*
X229000000Y-124250000D03*
X245750000Y-113856250D03*
X218000000Y-124250000D03*
X187750000Y-119750000D03*
X240500000Y-137500000D03*
X196000000Y-126500000D03*
X210000000Y-130000000D03*
X209600000Y-127500000D03*
X196000000Y-130750000D03*
X243000000Y-116000000D03*
X243000000Y-124356250D03*
X193250000Y-128500000D03*
X223500000Y-124250000D03*
X245750000Y-137500000D03*
X243000000Y-137500000D03*
X198750000Y-128500000D03*
X190500000Y-128500000D03*
X207000000Y-121750000D03*
X198750000Y-124250000D03*
X212500000Y-115250000D03*
X193250000Y-116000000D03*
X201500000Y-128500000D03*
X205500000Y-121750000D03*
X234750000Y-134500000D03*
X221750000Y-121750000D03*
X187750000Y-116000000D03*
X245750000Y-134500000D03*
X243000000Y-119606250D03*
X226250000Y-129000000D03*
X243000000Y-134500000D03*
X193250000Y-130750000D03*
X187750000Y-137000000D03*
X245750000Y-122000000D03*
X193250000Y-122000000D03*
X245750000Y-111856250D03*
X198750000Y-130750000D03*
X240500000Y-111856250D03*
X210175400Y-117250000D03*
%TO.N,VBUS*%
X190250000Y-111606250D03*
X182000000Y-111000000D03*
X231750000Y-111856250D03*
X234750000Y-124250000D03*
X182000000Y-124250000D03*
X187750000Y-104106250D03*
X231750000Y-131106250D03*
X215132267Y-111312021D03*
X184750000Y-113500000D03*
X208250000Y-112000000D03*
X214632267Y-112062021D03*
X234750000Y-121856250D03*
X182000000Y-126500000D03*
X214132267Y-111312021D03*
X184750000Y-137000000D03*
X237250000Y-111856250D03*
X208750000Y-111356250D03*
X212500000Y-111356250D03*
X212500000Y-107393750D03*
X234750000Y-126750000D03*
X217132267Y-112705771D03*
X214132267Y-112705771D03*
X237250000Y-129106250D03*
X193250000Y-111606250D03*
X187750000Y-110856250D03*
X231750000Y-129106250D03*
X184750000Y-134750000D03*
X234750000Y-131106250D03*
X231750000Y-116000000D03*
X237250000Y-113856250D03*
X234750000Y-111856250D03*
X237250000Y-116000000D03*
X212500000Y-110393750D03*
X212500000Y-109393750D03*
X187750000Y-107356250D03*
X184750000Y-122000000D03*
X215632267Y-112062021D03*
X184750000Y-111000000D03*
X234750000Y-116000000D03*
X184750000Y-119750000D03*
X237250000Y-119606250D03*
X182000000Y-116000000D03*
X182000000Y-130750000D03*
X231750000Y-113856250D03*
X184750000Y-130750000D03*
X182000000Y-134750000D03*
X231750000Y-126750000D03*
X209750000Y-112750000D03*
X237250000Y-131100000D03*
X179250000Y-137000000D03*
X179250000Y-119750000D03*
X207750000Y-111356250D03*
X212500000Y-106500000D03*
X210750000Y-111356250D03*
X209250000Y-112000000D03*
X182000000Y-137000000D03*
X206750000Y-131000000D03*
X207750000Y-112750000D03*
X182000000Y-113500000D03*
X184750000Y-126500000D03*
X216132267Y-111312021D03*
X234750000Y-113856250D03*
X179250000Y-124250000D03*
X231750000Y-121856250D03*
X208750000Y-112750000D03*
X216132267Y-112705771D03*
X179250000Y-122000000D03*
X182000000Y-128500000D03*
X179250000Y-130750000D03*
X179250000Y-116000000D03*
X237250000Y-124356250D03*
X179250000Y-128500000D03*
X184750000Y-116000000D03*
X215132267Y-112705771D03*
X217132267Y-111312021D03*
X212500000Y-112750000D03*
X210250000Y-112000000D03*
X212500000Y-108393750D03*
X231750000Y-119606250D03*
X211250000Y-112000000D03*
X182000000Y-119750000D03*
X179250000Y-113500000D03*
X210750000Y-112750000D03*
X184750000Y-128500000D03*
X179250000Y-111000000D03*
X182000000Y-122000000D03*
X209750000Y-111356250D03*
X237250000Y-126856250D03*
X231750000Y-124250000D03*
X179250000Y-126500000D03*
X179250000Y-134750000D03*
X234750000Y-129106250D03*
X216632267Y-112062021D03*
X234750000Y-119606250D03*
X237250000Y-121856250D03*
X184750000Y-124250000D03*
X213632267Y-112062021D03*
%TO.N,/SDO*%
X213000000Y-142356250D03*
X223000000Y-138606250D03*
X213000000Y-143750000D03*
X223000000Y-142356250D03*
%TO.N,/SDI*%
X212000000Y-143750000D03*
X220500000Y-138606250D03*
X220500000Y-141606250D03*
X233820369Y-143176619D03*
X233250000Y-141606250D03*
X212000000Y-141606250D03*
%TO.N,/SCS*%
X214000000Y-146106250D03*
X221750000Y-138606250D03*
%TO.N,/SCLK*%
X219250000Y-138606250D03*
X227250000Y-140856250D03*
X211000000Y-140856250D03*
X211000000Y-143750000D03*
X228000000Y-143106250D03*
X219250000Y-140856250D03*
%TO.N,/FAULT_N*%
X216750000Y-126856250D03*
%TO.N,/RESET*%
X207500000Y-136106250D03*
X217750000Y-130750000D03*
%TO.N,GNDA*%
X243500000Y-147356250D03*
X194500000Y-157606250D03*
X184750000Y-147606250D03*
X189500000Y-157606250D03*
D16*
X226750000Y-153606250D03*
D15*
X233500000Y-157356250D03*
X243500000Y-151856250D03*
X191250000Y-155606250D03*
X187000000Y-156606250D03*
X191750000Y-157606250D03*
X203500000Y-148106250D03*
X228000000Y-157356250D03*
X234250000Y-155106250D03*
X220000000Y-148356250D03*
X238750000Y-151606250D03*
X206250000Y-147856250D03*
X235000000Y-152106250D03*
X226095369Y-148733705D03*
X231000000Y-157356250D03*
X238500000Y-148106250D03*
X238250000Y-157356250D03*
X199750000Y-152856250D03*
X191137500Y-148731253D03*
D16*
X204250000Y-154856250D03*
D15*
X191750000Y-151856250D03*
X199000000Y-157106250D03*
X179250000Y-147606250D03*
X179250000Y-151606250D03*
X236000000Y-157356250D03*
%TO.N,+3.3V*%
X218250000Y-133500000D03*
X207500000Y-146856250D03*
X242250000Y-146633702D03*
X207500000Y-145106250D03*
X242250000Y-145133702D03*
%TO.N,GNDD*%
X226718076Y-147378636D03*
X243500000Y-145106250D03*
X219250000Y-156856250D03*
X231000000Y-143856250D03*
X225750000Y-147500000D03*
X214000000Y-144500000D03*
X219750000Y-144000000D03*
X188500000Y-140856250D03*
X179250000Y-145106250D03*
X231000000Y-140856250D03*
X205500000Y-143856250D03*
X212000000Y-156856250D03*
X207250000Y-156856250D03*
X223750000Y-156856250D03*
X209500000Y-152106250D03*
X179250000Y-141106250D03*
X209750000Y-156856250D03*
X224250000Y-144250000D03*
X218000000Y-153106250D03*
X213149055Y-159711383D03*
X191000000Y-147750000D03*
X191760207Y-147376184D03*
X221500000Y-156856250D03*
X209500000Y-145106250D03*
X209500000Y-148356250D03*
X239500000Y-141606250D03*
X243750000Y-140856250D03*
X215720367Y-159771414D03*
X216500000Y-156856250D03*
%TO.N,/A1HS*%
X208250000Y-116856250D03*
X194750000Y-114356250D03*
%TO.N,/A1LS*%
X200250000Y-113606250D03*
X208821875Y-116206250D03*
%TO.N,/A2HS*%
X207000000Y-113856250D03*
X211250000Y-114606250D03*
%TO.N,/A2LS*%
X205155000Y-113606250D03*
X210000000Y-114606250D03*
%TO.N,/B1HS*%
X213750000Y-114606250D03*
X217750000Y-113856250D03*
%TO.N,/B1LS*%
X223750000Y-113606250D03*
X214428125Y-117428125D03*
%TO.N,/B2LS*%
X229750000Y-113606250D03*
X216609578Y-116376809D03*
%TO.N,/AOUT1*%
X195481671Y-116069593D03*
X207750000Y-117606250D03*
%TO.N,/BOUT2*%
X229812500Y-115668750D03*
X218750000Y-116856250D03*
%TO.N,/B2HS*%
X229875000Y-116981250D03*
X216750000Y-117500000D03*
%TO.N,/AOUT2*%
X206000000Y-114750000D03*
X211850000Y-117400000D03*
%TO.N,/BOUT1*%
X213100000Y-117420000D03*
X218250000Y-114606250D03*
%TO.N,/CS_T1*%
X215000000Y-143750000D03*
X214250000Y-140106250D03*
%TO.N,/CS_T2*%
X217000000Y-143092341D03*
X215979136Y-144113205D03*
%TO.N,/DRDY_N_T2*%
X218500000Y-140106250D03*
X218000000Y-143856250D03*
%TO.N,/R0P_T1*%
X195387500Y-155468750D03*
X196750000Y-157606250D03*
%TO.N,/R0P_T2*%
X237370000Y-155736250D03*
X229500000Y-154633702D03*
%TO.N,GND*%
X206750000Y-133750000D03*
%TD*%
D17*
%TO.N,/RESET*%
X217750000Y-130750000D02*
X217250000Y-130750000D01*
X217250000Y-130750000D02*
X216500000Y-131500000D01*
X216500000Y-131500000D02*
X211999998Y-131500000D01*
%TO.N,VBUS*%
X206750000Y-131000000D02*
X206750000Y-132750000D01*
X206750000Y-132750000D02*
X205375000Y-134125000D01*
X185500000Y-137750000D02*
X184750000Y-137000000D01*
X205375000Y-134125000D02*
X201750000Y-134125000D01*
X201750000Y-134125000D02*
X199625000Y-136250000D01*
X199625000Y-136250000D02*
X193150057Y-136250000D01*
X193150057Y-136250000D02*
X191750000Y-137650057D01*
X191750000Y-137650057D02*
X191750000Y-137750000D01*
X191750000Y-137750000D02*
X185500000Y-137750000D01*
%TO.N,+3.3V*%
X218250000Y-133500000D02*
X219750000Y-133500000D01*
X219750000Y-133500000D02*
X223750000Y-137500000D01*
X223750000Y-137500000D02*
X223750000Y-139250000D01*
X223750000Y-139250000D02*
X224606250Y-140106250D01*
X224606250Y-140106250D02*
X240250000Y-140106250D01*
X240250000Y-140106250D02*
X242250000Y-142106250D01*
X242250000Y-142106250D02*
X242250000Y-145133702D01*
%TO.N,+5V*%
X205250000Y-128106250D02*
X210059884Y-128106250D01*
X210059884Y-128106250D02*
X210390955Y-127775179D01*
X210390955Y-127775179D02*
X210390955Y-127207574D01*
%TO.N,/FAULT_N*%
X206670000Y-135830000D02*
X206670000Y-137986250D01*
X216750000Y-126856250D02*
X216549998Y-126856250D01*
X216543416Y-126849668D02*
X215650332Y-126849668D01*
X215650332Y-126849668D02*
X206670000Y-135830000D01*
%TO.N,/RESET*%
X207500000Y-136106250D02*
X207500000Y-136000000D01*
X207500000Y-136000000D02*
X211999998Y-131500000D01*
%TO.N,/SDO*%
X213000000Y-142356250D02*
X213000000Y-143750000D01*
X223000000Y-142356250D02*
X223000000Y-138606250D01*
%TO.N,/SDI*%
X233250000Y-141606250D02*
X233820369Y-142176619D01*
X233820369Y-142176619D02*
X233820369Y-143176619D01*
X212000000Y-141606250D02*
X212000000Y-143750000D01*
X220500000Y-141606250D02*
X220500000Y-138606250D01*
%TO.N,/SCS*%
X215000000Y-145106250D02*
X214000000Y-146106250D01*
X221750000Y-143856250D02*
X221750000Y-138606250D01*
X220500000Y-145106250D02*
X221750000Y-143856250D01*
X215000000Y-145106250D02*
X220500000Y-145106250D01*
%TO.N,/SCLK*%
X228000000Y-143106250D02*
X228000000Y-141606250D01*
X211000000Y-140856250D02*
X211000000Y-143750000D01*
X219250000Y-140856250D02*
X219250000Y-138606250D01*
X228000000Y-141606250D02*
X227250000Y-140856250D01*
%TO.N,/RESET*%
X204130000Y-137986250D02*
X204000000Y-137856250D01*
%TO.N,GNDA*%
X226750000Y-153606250D02*
X226649000Y-153707250D01*
D18*
X204499000Y-154607250D02*
X204250000Y-154856250D01*
X225749000Y-154607250D02*
X204499000Y-154607250D01*
X226750000Y-153606250D02*
X225749000Y-154607250D01*
D19*
%TO.N,+3.3V*%
X201710000Y-154646250D02*
X204500000Y-151856250D01*
X201710000Y-158856250D02*
X201710000Y-154646250D01*
X240250000Y-150356250D02*
X242250000Y-148356250D01*
X206250000Y-151856250D02*
X207500000Y-150606250D01*
X207500000Y-150606250D02*
X207500000Y-150356250D01*
X196510000Y-139116250D02*
X196510000Y-137986250D01*
X206000000Y-139356250D02*
X196750000Y-139356250D01*
X207500000Y-145106250D02*
X207500000Y-142106250D01*
X207500000Y-146856250D02*
X207500000Y-145106250D01*
X207500000Y-150356250D02*
X207500000Y-146856250D01*
X204500000Y-151856250D02*
X206250000Y-151856250D01*
X242250000Y-146633702D02*
X242250000Y-145133702D01*
X207500000Y-140856250D02*
X206000000Y-139356250D01*
X207500000Y-150356250D02*
X240250000Y-150356250D01*
X242250000Y-148356250D02*
X242250000Y-146633702D01*
X196750000Y-139356250D02*
X196510000Y-139116250D01*
X207500000Y-140856250D02*
X207500000Y-142106250D01*
D17*
%TO.N,/A1HS*%
X208250000Y-116856250D02*
X202250000Y-116856250D01*
X200250000Y-114856250D02*
X195250000Y-114856250D01*
X195250000Y-114856250D02*
X194750000Y-114356250D01*
X202250000Y-116856250D02*
X200250000Y-114856250D01*
%TO.N,/A1LS*%
X208821875Y-116178125D02*
X208750000Y-116106250D01*
X208750000Y-116106250D02*
X202750000Y-116106250D01*
X208821875Y-116206250D02*
X208821875Y-116178125D01*
X202750000Y-116106250D02*
X200250000Y-113606250D01*
%TO.N,/A2HS*%
X207000000Y-113856250D02*
X210500000Y-113856250D01*
X210500000Y-113856250D02*
X211250000Y-114606250D01*
%TO.N,/A2LS*%
X205405000Y-113856250D02*
X205155000Y-113606250D01*
X206750000Y-114606250D02*
X206000000Y-113856250D01*
X206000000Y-113856250D02*
X205405000Y-113856250D01*
X210000000Y-114606250D02*
X206750000Y-114606250D01*
%TO.N,/B1HS*%
X214500000Y-113856250D02*
X213750000Y-114606250D01*
X217750000Y-113856250D02*
X214500000Y-113856250D01*
%TO.N,/B1LS*%
X214428125Y-116071875D02*
X215143750Y-115356250D01*
X223750000Y-114606250D02*
X223750000Y-113606250D01*
X214428125Y-117428125D02*
X214428125Y-116071875D01*
X215143750Y-115356250D02*
X223000000Y-115356250D01*
X223000000Y-115356250D02*
X223750000Y-114606250D01*
%TO.N,/B2LS*%
X224250000Y-116106250D02*
X226250000Y-114106250D01*
X216729441Y-116376809D02*
X217000000Y-116106250D01*
X226250000Y-114106250D02*
X229250000Y-114106250D01*
X229250000Y-114106250D02*
X229750000Y-113606250D01*
X216609578Y-116376809D02*
X216729441Y-116376809D01*
X217000000Y-116106250D02*
X224250000Y-116106250D01*
%TO.N,/AOUT1*%
X196018328Y-116606250D02*
X195481671Y-116069593D01*
X200750000Y-116606250D02*
X196018328Y-116606250D01*
X200750000Y-116606250D02*
X201737800Y-117594050D01*
X207750000Y-117606250D02*
X201750000Y-117606250D01*
X195481671Y-116069593D02*
X195536657Y-116069593D01*
%TO.N,/BOUT2*%
X228625000Y-116856250D02*
X229812500Y-115668750D01*
X218750000Y-116856250D02*
X228625000Y-116856250D01*
%TO.N,/B2HS*%
X216750000Y-117500000D02*
X229356250Y-117500000D01*
X229356250Y-117500000D02*
X229875000Y-116981250D01*
%TO.N,/AOUT2*%
X211793750Y-117400000D02*
X211850000Y-117400000D01*
X206606250Y-115356250D02*
X209750000Y-115356250D01*
X209750000Y-115356250D02*
X211793750Y-117400000D01*
X206000000Y-114750000D02*
X206606250Y-115356250D01*
%TO.N,/BOUT1*%
X214643750Y-114606250D02*
X213100000Y-116150000D01*
X218250000Y-114606250D02*
X214643750Y-114606250D01*
X213100000Y-116150000D02*
X213100000Y-117420000D01*
X213099000Y-117428125D02*
X213178125Y-117428125D01*
%TO.N,/CS_T1*%
X215000000Y-143750000D02*
X215000000Y-140856250D01*
X215000000Y-140856250D02*
X214250000Y-140106250D01*
%TO.N,/CS_T2*%
X215979136Y-144113205D02*
X217000000Y-143092341D01*
%TO.N,/DRDY_N_T2*%
X218500000Y-140106250D02*
X218500000Y-140231250D01*
X218500000Y-140231250D02*
X218000000Y-140731250D01*
X218000000Y-140731250D02*
X218000000Y-143856250D01*
%TO.N,/R0P_T1*%
X195387500Y-156243750D02*
X196750000Y-157606250D01*
X195387500Y-155468750D02*
X195387500Y-156243750D01*
%TO.N,/R0P_T2*%
X229222548Y-154633702D02*
X229500000Y-154633702D01*
X237370000Y-155736250D02*
X237357480Y-155748770D01*
X229000000Y-154856250D02*
X229222548Y-154633702D01*
X229000000Y-155481250D02*
X229000000Y-154856250D01*
X237357480Y-155748770D02*
X229267520Y-155748770D01*
X229267520Y-155748770D02*
X229000000Y-155481250D01*
%TD*%
%TA.AperFunction,Conductor*%
%TO.N,VBUS*%
G36*
X188459191Y-98375157D02*
G01*
X188495155Y-98424657D01*
X188500000Y-98455250D01*
X188500000Y-103356250D01*
X236151000Y-103356250D01*
X236209191Y-103375157D01*
X236245155Y-103424657D01*
X236250000Y-103455250D01*
X236250000Y-108606250D01*
X238401000Y-108606250D01*
X238459191Y-108625157D01*
X238495155Y-108674657D01*
X238500000Y-108705250D01*
X238500000Y-133507250D01*
X238481093Y-133565441D01*
X238431593Y-133601405D01*
X238401000Y-133606250D01*
X231349000Y-133606250D01*
X231290809Y-133587343D01*
X231254845Y-133537843D01*
X231250000Y-133507250D01*
X231250000Y-113356250D01*
X230239135Y-113353862D01*
X230180989Y-113334817D01*
X230153633Y-113304363D01*
X230153149Y-113303524D01*
X230150500Y-113298936D01*
X230057314Y-113205750D01*
X230057311Y-113205748D01*
X230057309Y-113205746D01*
X229943189Y-113139859D01*
X229943191Y-113139859D01*
X229893799Y-113126625D01*
X229815892Y-113105750D01*
X229684108Y-113105750D01*
X229606200Y-113126625D01*
X229556809Y-113139859D01*
X229442690Y-113205746D01*
X229349498Y-113298938D01*
X229349495Y-113298942D01*
X229347692Y-113302065D01*
X229345775Y-113303790D01*
X229345550Y-113304084D01*
X229345495Y-113304042D01*
X229302217Y-113343000D01*
X229261728Y-113351554D01*
X224230347Y-113339675D01*
X224172201Y-113320630D01*
X224152037Y-113300939D01*
X224150504Y-113298941D01*
X224150501Y-113298938D01*
X224150500Y-113298936D01*
X224057314Y-113205750D01*
X224057311Y-113205748D01*
X224057309Y-113205746D01*
X223943189Y-113139859D01*
X223943191Y-113139859D01*
X223893799Y-113126625D01*
X223815892Y-113105750D01*
X223684108Y-113105750D01*
X223606200Y-113126625D01*
X223556809Y-113139859D01*
X223442690Y-113205746D01*
X223442689Y-113205747D01*
X223442686Y-113205749D01*
X223442686Y-113205750D01*
X223349500Y-113298936D01*
X223349498Y-113298938D01*
X223344913Y-113303524D01*
X223343991Y-113302602D01*
X223299264Y-113333336D01*
X223270922Y-113337410D01*
X205593008Y-113295670D01*
X205534862Y-113276625D01*
X205523239Y-113266674D01*
X205462314Y-113205750D01*
X205462309Y-113205746D01*
X205348189Y-113139859D01*
X205348191Y-113139859D01*
X205298799Y-113126625D01*
X205220892Y-113105750D01*
X205089108Y-113105750D01*
X205011200Y-113126625D01*
X204961809Y-113139859D01*
X204847686Y-113205749D01*
X204788824Y-113264610D01*
X204734307Y-113292386D01*
X204718588Y-113293605D01*
X200676399Y-113284061D01*
X200618253Y-113265016D01*
X200606630Y-113255065D01*
X200557315Y-113205750D01*
X200557309Y-113205746D01*
X200443189Y-113139859D01*
X200443191Y-113139859D01*
X200393799Y-113126625D01*
X200315892Y-113105750D01*
X200184108Y-113105750D01*
X200106200Y-113126625D01*
X200056809Y-113139859D01*
X199942685Y-113205749D01*
X199895378Y-113253056D01*
X199840861Y-113280832D01*
X199825142Y-113282051D01*
X186250000Y-113249999D01*
X186250000Y-139401000D01*
X186231093Y-139459191D01*
X186181593Y-139495155D01*
X186151000Y-139500000D01*
X178099500Y-139500000D01*
X178041309Y-139481093D01*
X178005345Y-139431593D01*
X178000500Y-139401000D01*
X178000500Y-98455250D01*
X178019407Y-98397059D01*
X178068907Y-98361095D01*
X178099500Y-98356250D01*
X188401000Y-98356250D01*
X188459191Y-98375157D01*
G37*
%TD.AperFunction*%
%TD*%
%TA.AperFunction,Conductor*%
%TO.N,GND*%
G36*
X246878012Y-98460031D02*
G01*
X246944636Y-98481067D01*
X246989314Y-98534786D01*
X246999500Y-98584005D01*
X246999500Y-139338993D01*
X246979815Y-139406032D01*
X246927011Y-139451787D01*
X246875994Y-139462992D01*
X224528796Y-139551968D01*
X224499086Y-139543373D01*
X224468875Y-139536801D01*
X224464154Y-139533267D01*
X224461678Y-139532551D01*
X224440621Y-139515650D01*
X224286319Y-139361348D01*
X224252834Y-139300025D01*
X224250000Y-139273667D01*
X224250000Y-136750000D01*
X222786319Y-135286319D01*
X222752834Y-135224996D01*
X222750000Y-135198638D01*
X222750000Y-125750000D01*
X218000000Y-125750000D01*
X217999999Y-125750000D01*
X217536319Y-126213681D01*
X217474996Y-126247166D01*
X217448638Y-126250000D01*
X216874000Y-126250000D01*
X216806961Y-126230315D01*
X216761206Y-126177511D01*
X216750000Y-126126000D01*
X216750000Y-124750000D01*
X211000000Y-124750000D01*
X211000000Y-126809443D01*
X210980315Y-126876482D01*
X210927511Y-126922237D01*
X210858353Y-126932181D01*
X210794797Y-126903156D01*
X210788319Y-126897124D01*
X210698271Y-126807076D01*
X210698269Y-126807074D01*
X210641205Y-126774128D01*
X210584142Y-126741182D01*
X210520494Y-126724128D01*
X210456847Y-126707074D01*
X210325063Y-126707074D01*
X210197767Y-126741182D01*
X210083641Y-126807074D01*
X210083638Y-126807076D01*
X209990457Y-126900257D01*
X209990455Y-126900260D01*
X209924563Y-127014386D01*
X209890455Y-127141682D01*
X209890455Y-127273465D01*
X209924563Y-127400761D01*
X209957509Y-127457824D01*
X209990455Y-127514888D01*
X209990457Y-127514890D01*
X210020684Y-127545117D01*
X210025022Y-127553062D01*
X210032270Y-127558488D01*
X210041504Y-127583247D01*
X210054169Y-127606440D01*
X210053523Y-127615469D01*
X210056687Y-127623952D01*
X210051070Y-127649772D01*
X210049185Y-127676132D01*
X210043366Y-127685185D01*
X210041835Y-127692225D01*
X210020684Y-127720479D01*
X209971732Y-127769431D01*
X209910409Y-127802916D01*
X209884051Y-127805750D01*
X205708676Y-127805750D01*
X205641637Y-127786065D01*
X205620995Y-127769431D01*
X205557316Y-127705752D01*
X205557314Y-127705750D01*
X205460358Y-127649772D01*
X205443187Y-127639858D01*
X205324565Y-127608074D01*
X205315892Y-127605750D01*
X205184108Y-127605750D01*
X205056812Y-127639858D01*
X204942686Y-127705750D01*
X204942683Y-127705752D01*
X204849502Y-127798933D01*
X204849500Y-127798936D01*
X204783608Y-127913062D01*
X204749500Y-128040358D01*
X204749500Y-128172141D01*
X204783608Y-128299437D01*
X204810902Y-128346710D01*
X204849500Y-128413564D01*
X204942686Y-128506750D01*
X205056814Y-128572642D01*
X205184108Y-128606750D01*
X205184110Y-128606750D01*
X205315890Y-128606750D01*
X205315892Y-128606750D01*
X205443186Y-128572642D01*
X205557314Y-128506750D01*
X205620995Y-128443069D01*
X205682318Y-128409584D01*
X205708676Y-128406750D01*
X210099444Y-128406750D01*
X210099446Y-128406750D01*
X210175873Y-128386271D01*
X210244395Y-128346710D01*
X210300344Y-128290761D01*
X210631415Y-127959690D01*
X210636049Y-127951663D01*
X210670976Y-127891168D01*
X210691455Y-127814741D01*
X210691455Y-127666250D01*
X210700099Y-127636809D01*
X210706623Y-127606823D01*
X210710377Y-127601807D01*
X210711140Y-127599211D01*
X210727774Y-127578569D01*
X210788319Y-127518024D01*
X210849642Y-127484539D01*
X210919334Y-127489523D01*
X210975267Y-127531395D01*
X210999684Y-127596859D01*
X211000000Y-127605705D01*
X211000000Y-129706503D01*
X210980315Y-129773542D01*
X210972828Y-129783965D01*
X210201630Y-130747962D01*
X210144379Y-130788014D01*
X210104802Y-130794500D01*
X208623992Y-130794500D01*
X208580313Y-130799197D01*
X208528825Y-130810397D01*
X208518627Y-130812890D01*
X208518624Y-130812891D01*
X208437916Y-130855899D01*
X208437913Y-130855901D01*
X208385104Y-130901660D01*
X208367160Y-130919242D01*
X208367154Y-130919249D01*
X208322511Y-130999059D01*
X208322509Y-130999064D01*
X208302826Y-131066096D01*
X208294500Y-131124003D01*
X208294500Y-132863518D01*
X208274815Y-132930557D01*
X208258181Y-132951199D01*
X206745699Y-134463681D01*
X206684376Y-134497166D01*
X206658018Y-134500000D01*
X205724333Y-134500000D01*
X205657294Y-134480315D01*
X205611539Y-134427511D01*
X205601595Y-134358353D01*
X205630620Y-134294797D01*
X205636652Y-134288319D01*
X206296028Y-133628943D01*
X206990460Y-132934511D01*
X207030022Y-132865988D01*
X207050500Y-132789562D01*
X207050500Y-132710438D01*
X207050500Y-131458676D01*
X207070185Y-131391637D01*
X207086819Y-131370995D01*
X207150500Y-131307314D01*
X207216392Y-131193186D01*
X207250500Y-131065892D01*
X207250500Y-130934108D01*
X207216392Y-130806814D01*
X207209282Y-130794500D01*
X207205538Y-130788014D01*
X207150500Y-130692686D01*
X207057314Y-130599500D01*
X207000250Y-130566554D01*
X206943187Y-130533608D01*
X206879539Y-130516554D01*
X206815892Y-130499500D01*
X206684108Y-130499500D01*
X206556812Y-130533608D01*
X206442686Y-130599500D01*
X206442683Y-130599502D01*
X206349502Y-130692683D01*
X206349500Y-130692686D01*
X206283608Y-130806812D01*
X206270455Y-130855901D01*
X206249500Y-130934108D01*
X206249500Y-131065892D01*
X206265070Y-131124000D01*
X206283608Y-131193187D01*
X206316554Y-131250250D01*
X206349500Y-131307314D01*
X206349502Y-131307316D01*
X206413181Y-131370995D01*
X206446666Y-131432318D01*
X206449500Y-131458676D01*
X206449500Y-132574167D01*
X206429815Y-132641206D01*
X206413181Y-132661848D01*
X205286848Y-133788181D01*
X205225525Y-133821666D01*
X205199167Y-133824500D01*
X201710438Y-133824500D01*
X201672224Y-133834739D01*
X201634009Y-133844979D01*
X201634008Y-133844980D01*
X201578907Y-133876792D01*
X201578907Y-133876793D01*
X201565489Y-133884540D01*
X201565486Y-133884542D01*
X199536848Y-135913181D01*
X199475525Y-135946666D01*
X199449167Y-135949500D01*
X193110495Y-135949500D01*
X193034067Y-135969978D01*
X192965546Y-136009540D01*
X192965543Y-136009542D01*
X191561905Y-137413181D01*
X191500582Y-137446666D01*
X191474224Y-137449500D01*
X186624000Y-137449500D01*
X186556961Y-137429815D01*
X186511206Y-137377011D01*
X186500000Y-137325500D01*
X186500000Y-113580382D01*
X186519685Y-113513343D01*
X186572489Y-113467588D01*
X186624290Y-113456382D01*
X199625794Y-113487080D01*
X199692786Y-113506923D01*
X199738416Y-113559835D01*
X199749500Y-113611080D01*
X199749500Y-113672142D01*
X199756576Y-113698551D01*
X199783608Y-113799437D01*
X199814049Y-113852162D01*
X199849500Y-113913564D01*
X199942686Y-114006750D01*
X200041521Y-114063813D01*
X200043449Y-114064926D01*
X200056814Y-114072642D01*
X200184108Y-114106750D01*
X200184110Y-114106750D01*
X200274167Y-114106750D01*
X200341206Y-114126435D01*
X200361848Y-114143069D01*
X202562848Y-116344069D01*
X202573460Y-116363505D01*
X202587961Y-116380239D01*
X202589877Y-116393570D01*
X202596333Y-116405392D01*
X202594753Y-116427478D01*
X202597905Y-116449397D01*
X202592309Y-116461648D01*
X202591349Y-116475084D01*
X202578078Y-116492810D01*
X202568880Y-116512953D01*
X202557548Y-116520235D01*
X202549477Y-116531017D01*
X202528731Y-116538754D01*
X202510102Y-116550727D01*
X202488183Y-116553878D01*
X202484013Y-116555434D01*
X202475167Y-116555750D01*
X202425833Y-116555750D01*
X202358794Y-116536065D01*
X202338152Y-116519431D01*
X200434512Y-114615791D01*
X200434507Y-114615787D01*
X200410907Y-114602162D01*
X200410907Y-114602161D01*
X200410905Y-114602161D01*
X200365994Y-114576231D01*
X200365993Y-114576230D01*
X200356960Y-114573809D01*
X200289562Y-114555750D01*
X200289560Y-114555750D01*
X195425833Y-114555750D01*
X195396392Y-114547105D01*
X195366406Y-114540582D01*
X195361390Y-114536827D01*
X195358794Y-114536065D01*
X195338152Y-114519431D01*
X195286819Y-114468098D01*
X195253334Y-114406775D01*
X195250500Y-114380417D01*
X195250500Y-114290360D01*
X195250500Y-114290358D01*
X195216392Y-114163064D01*
X195150500Y-114048936D01*
X195057314Y-113955750D01*
X194999100Y-113922140D01*
X194943187Y-113889858D01*
X194879539Y-113872804D01*
X194815892Y-113855750D01*
X194684108Y-113855750D01*
X194556812Y-113889858D01*
X194442686Y-113955750D01*
X194442683Y-113955752D01*
X194349502Y-114048933D01*
X194349500Y-114048936D01*
X194283608Y-114163062D01*
X194260448Y-114249500D01*
X194249500Y-114290358D01*
X194249500Y-114422142D01*
X194259714Y-114460261D01*
X194283608Y-114549437D01*
X194299078Y-114576231D01*
X194349500Y-114663564D01*
X194442686Y-114756750D01*
X194556814Y-114822642D01*
X194684108Y-114856750D01*
X194684110Y-114856750D01*
X194774167Y-114856750D01*
X194841206Y-114876435D01*
X194861848Y-114893069D01*
X195065489Y-115096710D01*
X195134012Y-115136272D01*
X195210438Y-115156750D01*
X195289562Y-115156750D01*
X200074167Y-115156750D01*
X200141206Y-115176435D01*
X200161848Y-115193069D01*
X202062848Y-117094069D01*
X202073460Y-117113505D01*
X202087961Y-117130239D01*
X202089877Y-117143570D01*
X202096333Y-117155392D01*
X202094753Y-117177478D01*
X202097905Y-117199397D01*
X202092309Y-117211648D01*
X202091349Y-117225084D01*
X202078078Y-117242810D01*
X202068880Y-117262953D01*
X202057548Y-117270235D01*
X202049477Y-117281017D01*
X202028731Y-117288754D01*
X202010102Y-117300727D01*
X201988183Y-117303878D01*
X201984013Y-117305434D01*
X201975167Y-117305750D01*
X201925833Y-117305750D01*
X201858794Y-117286065D01*
X201838152Y-117269431D01*
X200934512Y-116365791D01*
X200934507Y-116365787D01*
X200917124Y-116355752D01*
X200917120Y-116355748D01*
X200917120Y-116355749D01*
X200891555Y-116340989D01*
X200865990Y-116326229D01*
X200840513Y-116319402D01*
X200789562Y-116305750D01*
X200789560Y-116305750D01*
X196194161Y-116305750D01*
X196164720Y-116297105D01*
X196134734Y-116290582D01*
X196129718Y-116286827D01*
X196127122Y-116286065D01*
X196106480Y-116269431D01*
X196018490Y-116181441D01*
X195985005Y-116120118D01*
X195982171Y-116093760D01*
X195982171Y-116003703D01*
X195982171Y-116003701D01*
X195948063Y-115876407D01*
X195948006Y-115876309D01*
X195934700Y-115853261D01*
X195882171Y-115762279D01*
X195788985Y-115669093D01*
X195731921Y-115636147D01*
X195674858Y-115603201D01*
X195611210Y-115586147D01*
X195547563Y-115569093D01*
X195415779Y-115569093D01*
X195288483Y-115603201D01*
X195174357Y-115669093D01*
X195174354Y-115669095D01*
X195081173Y-115762276D01*
X195081171Y-115762279D01*
X195015279Y-115876405D01*
X194988510Y-115976311D01*
X194981171Y-116003701D01*
X194981171Y-116135485D01*
X194990218Y-116169249D01*
X195015279Y-116262780D01*
X195048225Y-116319843D01*
X195081171Y-116376907D01*
X195174357Y-116470093D01*
X195288485Y-116535985D01*
X195415779Y-116570093D01*
X195415781Y-116570093D01*
X195505838Y-116570093D01*
X195572877Y-116589778D01*
X195593519Y-116606412D01*
X195833817Y-116846710D01*
X195902340Y-116886272D01*
X195978766Y-116906750D01*
X200574167Y-116906750D01*
X200641206Y-116926435D01*
X200661848Y-116943069D01*
X201509540Y-117790761D01*
X201565489Y-117846710D01*
X201565491Y-117846711D01*
X201565495Y-117846714D01*
X201599579Y-117866392D01*
X201634011Y-117886271D01*
X201710438Y-117906750D01*
X207291324Y-117906750D01*
X207358363Y-117926435D01*
X207379005Y-117943069D01*
X207442686Y-118006750D01*
X207556814Y-118072642D01*
X207684108Y-118106750D01*
X207684110Y-118106750D01*
X207815890Y-118106750D01*
X207815892Y-118106750D01*
X207943186Y-118072642D01*
X208057314Y-118006750D01*
X208150500Y-117913564D01*
X208216392Y-117799436D01*
X208250500Y-117672142D01*
X208250500Y-117540358D01*
X208241071Y-117505168D01*
X208242734Y-117435322D01*
X208281896Y-117377460D01*
X208328749Y-117353304D01*
X208443186Y-117322642D01*
X208557314Y-117256750D01*
X208650500Y-117163564D01*
X208716392Y-117049436D01*
X208750500Y-116922142D01*
X208750500Y-116830750D01*
X208770185Y-116763711D01*
X208822989Y-116717956D01*
X208874500Y-116706750D01*
X208887765Y-116706750D01*
X208887767Y-116706750D01*
X209015061Y-116672642D01*
X209129189Y-116606750D01*
X209222375Y-116513564D01*
X209288267Y-116399436D01*
X209322375Y-116272142D01*
X209322375Y-116140358D01*
X209288267Y-116013064D01*
X209222375Y-115898936D01*
X209191870Y-115868431D01*
X209158385Y-115807108D01*
X209163369Y-115737416D01*
X209205241Y-115681483D01*
X209270705Y-115657066D01*
X209279551Y-115656750D01*
X209574167Y-115656750D01*
X209641206Y-115676435D01*
X209661848Y-115693069D01*
X211313181Y-117344402D01*
X211346666Y-117405725D01*
X211349500Y-117432083D01*
X211349500Y-117465892D01*
X211357036Y-117494016D01*
X211383608Y-117593187D01*
X211416554Y-117650250D01*
X211449500Y-117707314D01*
X211542686Y-117800500D01*
X211656814Y-117866392D01*
X211784108Y-117900500D01*
X211784110Y-117900500D01*
X211915890Y-117900500D01*
X211915892Y-117900500D01*
X212043186Y-117866392D01*
X212157314Y-117800500D01*
X212250500Y-117707314D01*
X212316392Y-117593186D01*
X212350500Y-117465892D01*
X212350500Y-117334108D01*
X212316392Y-117206814D01*
X212250500Y-117092686D01*
X212157314Y-116999500D01*
X212073286Y-116950986D01*
X212043187Y-116933608D01*
X211967854Y-116913423D01*
X211915892Y-116899500D01*
X211784108Y-116899500D01*
X211775981Y-116899500D01*
X211775981Y-116897542D01*
X211717470Y-116888414D01*
X211682646Y-116863925D01*
X210107013Y-115288292D01*
X210073528Y-115226969D01*
X210078512Y-115157277D01*
X210120384Y-115101344D01*
X210162600Y-115080837D01*
X210193186Y-115072642D01*
X210307314Y-115006750D01*
X210400500Y-114913564D01*
X210466392Y-114799436D01*
X210500500Y-114672142D01*
X210500500Y-114581083D01*
X210506738Y-114559837D01*
X210508318Y-114537749D01*
X210516390Y-114526965D01*
X210520185Y-114514044D01*
X210536918Y-114499544D01*
X210550190Y-114481816D01*
X210562810Y-114477108D01*
X210572989Y-114468289D01*
X210594906Y-114465137D01*
X210615654Y-114457399D01*
X210628814Y-114460261D01*
X210642147Y-114458345D01*
X210662290Y-114467544D01*
X210683927Y-114472251D01*
X210701652Y-114485519D01*
X210705703Y-114487370D01*
X210712181Y-114493402D01*
X210713181Y-114494402D01*
X210746666Y-114555725D01*
X210749500Y-114582083D01*
X210749500Y-114672141D01*
X210783608Y-114799437D01*
X210810902Y-114846710D01*
X210849500Y-114913564D01*
X210942686Y-115006750D01*
X211056814Y-115072642D01*
X211184108Y-115106750D01*
X211184110Y-115106750D01*
X211315890Y-115106750D01*
X211315892Y-115106750D01*
X211443186Y-115072642D01*
X211557314Y-115006750D01*
X211650500Y-114913564D01*
X211716392Y-114799436D01*
X211750500Y-114672142D01*
X211750500Y-114540358D01*
X211716392Y-114413064D01*
X211650500Y-114298936D01*
X211557314Y-114205750D01*
X211483380Y-114163064D01*
X211443187Y-114139858D01*
X211379539Y-114122804D01*
X211315892Y-114105750D01*
X211225833Y-114105750D01*
X211158794Y-114086065D01*
X211138152Y-114069431D01*
X210794059Y-113725338D01*
X210760574Y-113664015D01*
X210765558Y-113594323D01*
X210807430Y-113538390D01*
X210872894Y-113513973D01*
X210882024Y-113513657D01*
X214110928Y-113521281D01*
X214177921Y-113541124D01*
X214223551Y-113594036D01*
X214233331Y-113663218D01*
X214204156Y-113726705D01*
X214198316Y-113732962D01*
X213861847Y-114069431D01*
X213800524Y-114102916D01*
X213774166Y-114105750D01*
X213684108Y-114105750D01*
X213556812Y-114139858D01*
X213442686Y-114205750D01*
X213442683Y-114205752D01*
X213349502Y-114298933D01*
X213349500Y-114298936D01*
X213283608Y-114413062D01*
X213249500Y-114540358D01*
X213249500Y-114672141D01*
X213283608Y-114799437D01*
X213310902Y-114846710D01*
X213349500Y-114913564D01*
X213442686Y-115006750D01*
X213514821Y-115048397D01*
X213540853Y-115063427D01*
X213589068Y-115113995D01*
X213602290Y-115182602D01*
X213576322Y-115247466D01*
X213566533Y-115258495D01*
X212915489Y-115909540D01*
X212859541Y-115965487D01*
X212859535Y-115965495D01*
X212819982Y-116034004D01*
X212819979Y-116034009D01*
X212799500Y-116110439D01*
X212799500Y-116961323D01*
X212779815Y-117028362D01*
X212763182Y-117049004D01*
X212699500Y-117112686D01*
X212633608Y-117226812D01*
X212622189Y-117269431D01*
X212604859Y-117334110D01*
X212599501Y-117354106D01*
X212599500Y-117354110D01*
X212599500Y-117485891D01*
X212633608Y-117613187D01*
X212666554Y-117670250D01*
X212699500Y-117727314D01*
X212792686Y-117820500D01*
X212872173Y-117866392D01*
X212906602Y-117886270D01*
X212906814Y-117886392D01*
X213034108Y-117920500D01*
X213034110Y-117920500D01*
X213165890Y-117920500D01*
X213165892Y-117920500D01*
X213293186Y-117886392D01*
X213407314Y-117820500D01*
X213500500Y-117727314D01*
X213566392Y-117613186D01*
X213600500Y-117485892D01*
X213600500Y-117354108D01*
X213566392Y-117226814D01*
X213500500Y-117112686D01*
X213436818Y-117049004D01*
X213403334Y-116987680D01*
X213400500Y-116961323D01*
X213400500Y-116325833D01*
X213420185Y-116258794D01*
X213436819Y-116238152D01*
X214731902Y-114943069D01*
X214758829Y-114928365D01*
X214784648Y-114911773D01*
X214790848Y-114910881D01*
X214793225Y-114909584D01*
X214819583Y-114906750D01*
X214868917Y-114906750D01*
X214935956Y-114926435D01*
X214981711Y-114979239D01*
X214991655Y-115048397D01*
X214962630Y-115111953D01*
X214956598Y-115118431D01*
X214187666Y-115887362D01*
X214187660Y-115887370D01*
X214148107Y-115955879D01*
X214148104Y-115955884D01*
X214127625Y-116032314D01*
X214127625Y-116969448D01*
X214107940Y-117036487D01*
X214091307Y-117057129D01*
X214027625Y-117120811D01*
X213961733Y-117234937D01*
X213929114Y-117356677D01*
X213927625Y-117362233D01*
X213927625Y-117494017D01*
X213944679Y-117557664D01*
X213961733Y-117621312D01*
X213991079Y-117672140D01*
X214027625Y-117735439D01*
X214120811Y-117828625D01*
X214234939Y-117894517D01*
X214362233Y-117928625D01*
X214362235Y-117928625D01*
X214494015Y-117928625D01*
X214494017Y-117928625D01*
X214621311Y-117894517D01*
X214735439Y-117828625D01*
X214828625Y-117735439D01*
X214894517Y-117621311D01*
X214928625Y-117494017D01*
X214928625Y-117362233D01*
X214894517Y-117234939D01*
X214828625Y-117120811D01*
X214764943Y-117057129D01*
X214731459Y-116995805D01*
X214728625Y-116969448D01*
X214728625Y-116247708D01*
X214748310Y-116180669D01*
X214764944Y-116160027D01*
X215231902Y-115693069D01*
X215293225Y-115659584D01*
X215319583Y-115656750D01*
X216421218Y-115656750D01*
X216488257Y-115676435D01*
X216534012Y-115729239D01*
X216543956Y-115798397D01*
X216514931Y-115861953D01*
X216456153Y-115899727D01*
X216453336Y-115900517D01*
X216441554Y-115903675D01*
X216416390Y-115910417D01*
X216302264Y-115976309D01*
X216302261Y-115976311D01*
X216209080Y-116069492D01*
X216209078Y-116069495D01*
X216143186Y-116183621D01*
X216115737Y-116286065D01*
X216109078Y-116310917D01*
X216109078Y-116442701D01*
X216112623Y-116455931D01*
X216143186Y-116569996D01*
X216176132Y-116627059D01*
X216209078Y-116684123D01*
X216302264Y-116777309D01*
X216416392Y-116843201D01*
X216448394Y-116851776D01*
X216508053Y-116888139D01*
X216538583Y-116950986D01*
X216530289Y-117020362D01*
X216485804Y-117074240D01*
X216478302Y-117078936D01*
X216442689Y-117099497D01*
X216442683Y-117099502D01*
X216349502Y-117192683D01*
X216349500Y-117192686D01*
X216283608Y-117306812D01*
X216249500Y-117434108D01*
X216249500Y-117565891D01*
X216283608Y-117693187D01*
X216310902Y-117740460D01*
X216349500Y-117807314D01*
X216442686Y-117900500D01*
X216556814Y-117966392D01*
X216684108Y-118000500D01*
X216684110Y-118000500D01*
X216815890Y-118000500D01*
X216815892Y-118000500D01*
X216943186Y-117966392D01*
X217057314Y-117900500D01*
X217120995Y-117836819D01*
X217182318Y-117803334D01*
X217208676Y-117800500D01*
X229395810Y-117800500D01*
X229395812Y-117800500D01*
X229472239Y-117780021D01*
X229540761Y-117740460D01*
X229596710Y-117684511D01*
X229763152Y-117518067D01*
X229824474Y-117484584D01*
X229850832Y-117481750D01*
X229940890Y-117481750D01*
X229940892Y-117481750D01*
X230068186Y-117447642D01*
X230182314Y-117381750D01*
X230275500Y-117288564D01*
X230341392Y-117174436D01*
X230375500Y-117047142D01*
X230375500Y-116915358D01*
X230341392Y-116788064D01*
X230275500Y-116673936D01*
X230182314Y-116580750D01*
X230104779Y-116535985D01*
X230068187Y-116514858D01*
X229985901Y-116492810D01*
X229940892Y-116480750D01*
X229809108Y-116480750D01*
X229809106Y-116480750D01*
X229732052Y-116501396D01*
X229728997Y-116501323D01*
X229726317Y-116502787D01*
X229694298Y-116500497D01*
X229662202Y-116499733D01*
X229659672Y-116498020D01*
X229656626Y-116497803D01*
X229630922Y-116478561D01*
X229604340Y-116460569D01*
X229603138Y-116457762D01*
X229600692Y-116455931D01*
X229589472Y-116425848D01*
X229576837Y-116396341D01*
X229577343Y-116393328D01*
X229576276Y-116390466D01*
X229583100Y-116359096D01*
X229588424Y-116327438D01*
X229590674Y-116324277D01*
X229591128Y-116322194D01*
X229612272Y-116293947D01*
X229700653Y-116205566D01*
X229761975Y-116172084D01*
X229788332Y-116169250D01*
X229878390Y-116169250D01*
X229878392Y-116169250D01*
X230005686Y-116135142D01*
X230119814Y-116069250D01*
X230213000Y-115976064D01*
X230278892Y-115861936D01*
X230313000Y-115734642D01*
X230313000Y-115602858D01*
X230278892Y-115475564D01*
X230213000Y-115361436D01*
X230119814Y-115268250D01*
X230062750Y-115235304D01*
X230005687Y-115202358D01*
X229908939Y-115176435D01*
X229878392Y-115168250D01*
X229746608Y-115168250D01*
X229619312Y-115202358D01*
X229505186Y-115268250D01*
X229505183Y-115268252D01*
X229412002Y-115361433D01*
X229412000Y-115361436D01*
X229346108Y-115475562D01*
X229312000Y-115602858D01*
X229312000Y-115692916D01*
X229292315Y-115759955D01*
X229275681Y-115780597D01*
X228536848Y-116519431D01*
X228475525Y-116552916D01*
X228449167Y-116555750D01*
X224524833Y-116555750D01*
X224457794Y-116536065D01*
X224412039Y-116483261D01*
X224402095Y-116414103D01*
X224431120Y-116350547D01*
X224437152Y-116344069D01*
X226338152Y-114443069D01*
X226399475Y-114409584D01*
X226425833Y-114406750D01*
X229289560Y-114406750D01*
X229289562Y-114406750D01*
X229365989Y-114386271D01*
X229434511Y-114346710D01*
X229490460Y-114290761D01*
X229638152Y-114143067D01*
X229699473Y-114109584D01*
X229725832Y-114106750D01*
X229815890Y-114106750D01*
X229815892Y-114106750D01*
X229943186Y-114072642D01*
X230057314Y-114006750D01*
X230150500Y-113913564D01*
X230216392Y-113799436D01*
X230250500Y-113672142D01*
X230250500Y-113672128D01*
X230251110Y-113667501D01*
X230279373Y-113603603D01*
X230337696Y-113565129D01*
X230374338Y-113559680D01*
X230920795Y-113560971D01*
X230987786Y-113580814D01*
X231033416Y-113633726D01*
X231044500Y-113684971D01*
X231044500Y-133507255D01*
X231047029Y-133539388D01*
X231051881Y-133570027D01*
X231052646Y-133574532D01*
X231052647Y-133574535D01*
X231052648Y-133574537D01*
X231088592Y-133658633D01*
X231124062Y-133707453D01*
X231124557Y-133708134D01*
X231148797Y-133735878D01*
X231201985Y-133767657D01*
X231227307Y-133782786D01*
X231285498Y-133801693D01*
X231314268Y-133806249D01*
X231348996Y-133811750D01*
X231349000Y-133811750D01*
X238400994Y-133811750D01*
X238401000Y-133811750D01*
X238433144Y-133809220D01*
X238463737Y-133804375D01*
X238466371Y-133803927D01*
X238468282Y-133803603D01*
X238468282Y-133803602D01*
X238468287Y-133803602D01*
X238552383Y-133767658D01*
X238601883Y-133731694D01*
X238629628Y-133707453D01*
X238676536Y-133628943D01*
X238695443Y-133570752D01*
X238701599Y-133531879D01*
X238705500Y-133507254D01*
X238705500Y-108705256D01*
X238705500Y-108705250D01*
X238702970Y-108673106D01*
X238698125Y-108642513D01*
X238697352Y-108637963D01*
X238661408Y-108553867D01*
X238625444Y-108504367D01*
X238601203Y-108476622D01*
X238601202Y-108476621D01*
X238522694Y-108429714D01*
X238464504Y-108410807D01*
X238401004Y-108400750D01*
X238401000Y-108400750D01*
X236579500Y-108400750D01*
X236512461Y-108381065D01*
X236466706Y-108328261D01*
X236455500Y-108276750D01*
X236455500Y-107845862D01*
X236475185Y-107778823D01*
X236491819Y-107758181D01*
X236500000Y-107750000D01*
X236500000Y-98376535D01*
X236519685Y-98309496D01*
X236572489Y-98263741D01*
X236626507Y-98252560D01*
X246878012Y-98460031D01*
G37*
%TD.AperFunction*%
%TA.AperFunction,Conductor*%
G36*
X194693039Y-136570185D02*
G01*
X194738794Y-136622989D01*
X194750000Y-136674500D01*
X194750000Y-139376000D01*
X194730315Y-139443039D01*
X194677511Y-139488794D01*
X194626000Y-139500000D01*
X186624000Y-139500000D01*
X186556961Y-139480315D01*
X186511206Y-139427511D01*
X186500000Y-139376000D01*
X186500000Y-138174500D01*
X186519685Y-138107461D01*
X186572489Y-138061706D01*
X186624000Y-138050500D01*
X191789560Y-138050500D01*
X191789562Y-138050500D01*
X191865989Y-138030021D01*
X191934511Y-137990460D01*
X191990460Y-137934511D01*
X192030021Y-137865989D01*
X192047404Y-137801114D01*
X192079495Y-137745532D01*
X193238209Y-136586819D01*
X193299532Y-136553334D01*
X193325890Y-136550500D01*
X194626000Y-136550500D01*
X194693039Y-136570185D01*
G37*
%TD.AperFunction*%
%TD*%
%TA.AperFunction,Conductor*%
%TO.N,GNDA*%
G36*
X188487539Y-146625935D02*
G01*
X188533294Y-146678739D01*
X188544500Y-146730250D01*
X188544500Y-148232257D01*
X188549197Y-148275936D01*
X188560397Y-148327424D01*
X188562890Y-148337622D01*
X188562891Y-148337625D01*
X188605899Y-148418333D01*
X188605901Y-148418336D01*
X188651660Y-148471145D01*
X188669058Y-148488901D01*
X188669246Y-148489093D01*
X188669247Y-148489094D01*
X188669249Y-148489095D01*
X188734044Y-148525339D01*
X188749063Y-148533740D01*
X188816102Y-148553425D01*
X188874000Y-148561750D01*
X188874004Y-148561750D01*
X190754869Y-148561750D01*
X190755693Y-148561732D01*
X190763419Y-148561572D01*
X190773741Y-148561142D01*
X190773745Y-148561141D01*
X190773747Y-148561141D01*
X190839292Y-148547493D01*
X190839292Y-148547492D01*
X190839296Y-148547492D01*
X190896592Y-148525339D01*
X190896591Y-148525338D01*
X190922277Y-148515407D01*
X190922735Y-148514867D01*
X190929017Y-148510984D01*
X190967262Y-148488902D01*
X190967261Y-148488901D01*
X190981786Y-148480514D01*
X191009496Y-148464516D01*
X191039394Y-148452132D01*
X191082898Y-148440476D01*
X191114984Y-148436253D01*
X191160013Y-148436253D01*
X191192105Y-148440478D01*
X191235597Y-148452131D01*
X191265506Y-148464520D01*
X191334206Y-148504185D01*
X191334909Y-148504679D01*
X191335834Y-148505125D01*
X191339827Y-148507430D01*
X191339828Y-148507431D01*
X191365149Y-148522050D01*
X191368275Y-148522122D01*
X191384460Y-148528565D01*
X191395191Y-148533738D01*
X191395195Y-148533739D01*
X191395197Y-148533740D01*
X191419280Y-148540811D01*
X191462224Y-148553422D01*
X191462227Y-148553422D01*
X191462236Y-148553425D01*
X191520134Y-148561750D01*
X191520138Y-148561750D01*
X199948639Y-148561750D01*
X199951180Y-148561613D01*
X199970607Y-148560572D01*
X199970614Y-148560571D01*
X199970618Y-148560571D01*
X199996965Y-148557738D01*
X200073482Y-148533779D01*
X200134805Y-148500294D01*
X200181629Y-148465241D01*
X201754300Y-146892568D01*
X201815623Y-146859084D01*
X201841981Y-146856250D01*
X206886696Y-146856250D01*
X206906080Y-146861942D01*
X206926268Y-146862734D01*
X206938921Y-146871585D01*
X206953735Y-146875935D01*
X206966963Y-146891201D01*
X206983520Y-146902783D01*
X206992664Y-146920862D01*
X206999490Y-146928739D01*
X207001423Y-146933200D01*
X207004423Y-146940515D01*
X207033608Y-147049436D01*
X207087061Y-147142019D01*
X207090227Y-147149739D01*
X207092340Y-147170069D01*
X207099500Y-147196789D01*
X207099500Y-150388995D01*
X207079815Y-150456034D01*
X207063181Y-150476676D01*
X206120426Y-151419431D01*
X206059103Y-151452916D01*
X206032745Y-151455750D01*
X204447273Y-151455750D01*
X204345410Y-151483043D01*
X204254087Y-151535770D01*
X204254084Y-151535772D01*
X201389522Y-154400334D01*
X201389518Y-154400340D01*
X201336792Y-154491662D01*
X201336793Y-154491663D01*
X201309500Y-154593523D01*
X201309500Y-156982250D01*
X201289815Y-157049289D01*
X201237011Y-157095044D01*
X201185500Y-157106250D01*
X200000000Y-157106250D01*
X200000000Y-159981750D01*
X199980315Y-160048789D01*
X199927511Y-160094544D01*
X199876000Y-160105750D01*
X196049419Y-160105750D01*
X195982380Y-160086065D01*
X195936625Y-160033261D01*
X195926681Y-159964103D01*
X195955706Y-159900547D01*
X196001966Y-159867189D01*
X196003918Y-159866380D01*
X196003920Y-159866380D01*
X196195098Y-159787191D01*
X196367155Y-159672227D01*
X196513477Y-159525905D01*
X196628441Y-159353848D01*
X196707630Y-159162670D01*
X196748000Y-158959715D01*
X196748000Y-158752785D01*
X196707630Y-158549830D01*
X196628441Y-158358652D01*
X196589011Y-158299640D01*
X196568134Y-158232962D01*
X196586619Y-158165582D01*
X196638599Y-158118893D01*
X196692114Y-158106750D01*
X196815890Y-158106750D01*
X196815892Y-158106750D01*
X196943186Y-158072642D01*
X197057314Y-158006750D01*
X197150500Y-157913564D01*
X197216392Y-157799436D01*
X197250500Y-157672142D01*
X197250500Y-157540358D01*
X197216392Y-157413064D01*
X197209282Y-157400750D01*
X197207563Y-157397771D01*
X197150500Y-157298936D01*
X197057314Y-157205750D01*
X197000250Y-157172804D01*
X196943187Y-157139858D01*
X196879539Y-157122804D01*
X196815892Y-157105750D01*
X196725833Y-157105750D01*
X196658794Y-157086065D01*
X196638152Y-157069431D01*
X195724319Y-156155598D01*
X195709615Y-156128670D01*
X195693023Y-156102852D01*
X195692131Y-156096651D01*
X195690834Y-156094275D01*
X195688000Y-156067917D01*
X195688000Y-155927426D01*
X195707685Y-155860387D01*
X195724319Y-155839745D01*
X195738103Y-155825961D01*
X195788000Y-155776064D01*
X195853892Y-155661936D01*
X195888000Y-155534642D01*
X195888000Y-155402858D01*
X195853892Y-155275564D01*
X195788000Y-155161436D01*
X195694814Y-155068250D01*
X195637750Y-155035304D01*
X195580687Y-155002358D01*
X195517039Y-154985304D01*
X195453392Y-154968250D01*
X195321608Y-154968250D01*
X195194312Y-155002358D01*
X195080186Y-155068250D01*
X195080183Y-155068252D01*
X194987002Y-155161433D01*
X194987000Y-155161436D01*
X194921108Y-155275562D01*
X194887000Y-155402858D01*
X194887000Y-155534641D01*
X194921108Y-155661937D01*
X194945195Y-155703656D01*
X194987000Y-155776064D01*
X194987002Y-155776066D01*
X195050681Y-155839745D01*
X195084166Y-155901068D01*
X195087000Y-155927426D01*
X195087000Y-156283312D01*
X195100652Y-156334263D01*
X195107479Y-156359740D01*
X195107480Y-156359741D01*
X195124868Y-156389858D01*
X195147040Y-156428261D01*
X195147042Y-156428263D01*
X196213181Y-157494402D01*
X196224538Y-157515200D01*
X196239590Y-157533509D01*
X196242605Y-157548288D01*
X196246666Y-157555725D01*
X196248654Y-157567620D01*
X196249500Y-157574823D01*
X196249500Y-157672142D01*
X196269846Y-157748077D01*
X196270896Y-157757013D01*
X196266479Y-157782941D01*
X196265854Y-157809233D01*
X196260706Y-157816837D01*
X196259165Y-157825891D01*
X196241431Y-157845315D01*
X196226691Y-157867095D01*
X196218249Y-157870709D01*
X196212058Y-157877492D01*
X196186639Y-157884245D01*
X196162462Y-157894599D01*
X196152721Y-157893257D01*
X196144531Y-157895434D01*
X196126597Y-157889659D01*
X196100290Y-157886037D01*
X196003924Y-157846121D01*
X196003912Y-157846118D01*
X195800969Y-157805750D01*
X195800965Y-157805750D01*
X195594035Y-157805750D01*
X195594030Y-157805750D01*
X195391087Y-157846118D01*
X195391079Y-157846120D01*
X195199903Y-157925308D01*
X195027842Y-158040274D01*
X194881524Y-158186592D01*
X194766558Y-158358653D01*
X194687370Y-158549829D01*
X194687368Y-158549837D01*
X194647000Y-158752780D01*
X194647000Y-158959719D01*
X194687368Y-159162662D01*
X194687370Y-159162670D01*
X194766558Y-159353846D01*
X194881524Y-159525907D01*
X195027842Y-159672225D01*
X195027845Y-159672227D01*
X195199902Y-159787191D01*
X195391080Y-159866380D01*
X195391081Y-159866380D01*
X195393034Y-159867189D01*
X195447437Y-159911030D01*
X195469502Y-159977324D01*
X195452223Y-160045023D01*
X195401086Y-160092634D01*
X195345581Y-160105750D01*
X193509419Y-160105750D01*
X193442380Y-160086065D01*
X193396625Y-160033261D01*
X193386681Y-159964103D01*
X193415706Y-159900547D01*
X193461966Y-159867189D01*
X193463918Y-159866380D01*
X193463920Y-159866380D01*
X193655098Y-159787191D01*
X193827155Y-159672227D01*
X193973477Y-159525905D01*
X194088441Y-159353848D01*
X194167630Y-159162670D01*
X194208000Y-158959715D01*
X194208000Y-158752785D01*
X194167630Y-158549830D01*
X194088441Y-158358652D01*
X193973477Y-158186595D01*
X193973475Y-158186592D01*
X193827157Y-158040274D01*
X193659155Y-157928020D01*
X193655098Y-157925309D01*
X193626743Y-157913564D01*
X193463920Y-157846120D01*
X193463912Y-157846118D01*
X193260969Y-157805750D01*
X193260965Y-157805750D01*
X193054035Y-157805750D01*
X193054030Y-157805750D01*
X192851087Y-157846118D01*
X192851079Y-157846120D01*
X192659903Y-157925308D01*
X192487842Y-158040274D01*
X192341524Y-158186592D01*
X192226558Y-158358653D01*
X192147370Y-158549829D01*
X192147368Y-158549837D01*
X192107000Y-158752780D01*
X192107000Y-158959719D01*
X192147368Y-159162662D01*
X192147370Y-159162670D01*
X192226558Y-159353846D01*
X192341524Y-159525907D01*
X192487842Y-159672225D01*
X192487845Y-159672227D01*
X192659902Y-159787191D01*
X192851080Y-159866380D01*
X192851081Y-159866380D01*
X192853034Y-159867189D01*
X192907437Y-159911030D01*
X192929502Y-159977324D01*
X192912223Y-160045023D01*
X192861086Y-160092634D01*
X192805581Y-160105750D01*
X190969419Y-160105750D01*
X190902380Y-160086065D01*
X190856625Y-160033261D01*
X190846681Y-159964103D01*
X190875706Y-159900547D01*
X190921966Y-159867189D01*
X190923918Y-159866380D01*
X190923920Y-159866380D01*
X191115098Y-159787191D01*
X191287155Y-159672227D01*
X191433477Y-159525905D01*
X191548441Y-159353848D01*
X191627630Y-159162670D01*
X191668000Y-158959715D01*
X191668000Y-158752785D01*
X191627630Y-158549830D01*
X191548441Y-158358652D01*
X191433477Y-158186595D01*
X191433475Y-158186592D01*
X191287157Y-158040274D01*
X191119155Y-157928020D01*
X191115098Y-157925309D01*
X191086743Y-157913564D01*
X190923920Y-157846120D01*
X190923912Y-157846118D01*
X190720969Y-157805750D01*
X190720965Y-157805750D01*
X190514035Y-157805750D01*
X190514030Y-157805750D01*
X190311087Y-157846118D01*
X190311079Y-157846120D01*
X190119903Y-157925308D01*
X189947842Y-158040274D01*
X189801524Y-158186592D01*
X189686558Y-158358653D01*
X189607370Y-158549829D01*
X189607368Y-158549837D01*
X189567000Y-158752780D01*
X189567000Y-158959719D01*
X189607368Y-159162662D01*
X189607370Y-159162670D01*
X189686558Y-159353846D01*
X189801524Y-159525907D01*
X189947842Y-159672225D01*
X189947845Y-159672227D01*
X190119902Y-159787191D01*
X190311080Y-159866380D01*
X190311081Y-159866380D01*
X190313034Y-159867189D01*
X190367437Y-159911030D01*
X190389502Y-159977324D01*
X190372223Y-160045023D01*
X190321086Y-160092634D01*
X190265581Y-160105750D01*
X189099270Y-160105750D01*
X189032231Y-160086065D01*
X188986476Y-160033261D01*
X188976532Y-159964103D01*
X189005557Y-159900547D01*
X189030378Y-159878648D01*
X189072052Y-159850802D01*
X189116367Y-159784481D01*
X189116367Y-159784479D01*
X189116368Y-159784479D01*
X189127999Y-159726002D01*
X189128000Y-159726000D01*
X189128000Y-157986499D01*
X189127999Y-157986497D01*
X189116368Y-157928020D01*
X189116367Y-157928019D01*
X189072052Y-157861697D01*
X189005730Y-157817382D01*
X189005729Y-157817381D01*
X188947252Y-157805750D01*
X188947248Y-157805750D01*
X187207752Y-157805750D01*
X187207747Y-157805750D01*
X187149270Y-157817381D01*
X187149269Y-157817382D01*
X187082947Y-157861697D01*
X187038632Y-157928019D01*
X187038631Y-157928020D01*
X187027000Y-157986497D01*
X187027000Y-159726002D01*
X187038631Y-159784479D01*
X187038632Y-159784480D01*
X187082946Y-159850801D01*
X187124622Y-159878648D01*
X187169426Y-159932261D01*
X187178133Y-160001586D01*
X187147978Y-160064613D01*
X187088535Y-160101332D01*
X187055730Y-160105750D01*
X185874000Y-160105750D01*
X185806961Y-160086065D01*
X185761206Y-160033261D01*
X185750000Y-159981750D01*
X185750000Y-154606251D01*
X185750000Y-154606250D01*
X184000000Y-152606250D01*
X183999999Y-152606250D01*
X178124500Y-152606250D01*
X178057461Y-152586565D01*
X178011706Y-152533761D01*
X178000500Y-152482250D01*
X178000500Y-146730250D01*
X178020185Y-146663211D01*
X178072989Y-146617456D01*
X178124500Y-146606250D01*
X188420500Y-146606250D01*
X188487539Y-146625935D01*
G37*
%TD.AperFunction*%
%TA.AperFunction,Conductor*%
G36*
X207419334Y-151355823D02*
G01*
X207475267Y-151397695D01*
X207499684Y-151463159D01*
X207500000Y-151472005D01*
X207500000Y-154558666D01*
X207480315Y-154625705D01*
X207468168Y-154641618D01*
X205286943Y-157065202D01*
X205227465Y-157101863D01*
X205194775Y-157106250D01*
X202234500Y-157106250D01*
X202167461Y-157086565D01*
X202121706Y-157033761D01*
X202110500Y-156982250D01*
X202110500Y-154863505D01*
X202130185Y-154796466D01*
X202146819Y-154775824D01*
X204629574Y-152293069D01*
X204690897Y-152259584D01*
X204717255Y-152256750D01*
X206302725Y-152256750D01*
X206302727Y-152256750D01*
X206404588Y-152229457D01*
X206495913Y-152176730D01*
X207288319Y-151384324D01*
X207349642Y-151350839D01*
X207419334Y-151355823D01*
G37*
%TD.AperFunction*%
%TD*%
%TA.AperFunction,Conductor*%
%TO.N,GNDA*%
G36*
X246515677Y-146625935D02*
G01*
X246536319Y-146642569D01*
X246963181Y-147069431D01*
X246996666Y-147130754D01*
X246999500Y-147157112D01*
X246999500Y-151805388D01*
X246979815Y-151872427D01*
X246963181Y-151893069D01*
X246536319Y-152319931D01*
X246474996Y-152353416D01*
X246448638Y-152356250D01*
X241999999Y-152356250D01*
X239250000Y-155106249D01*
X239250000Y-159804888D01*
X239230315Y-159871927D01*
X239213681Y-159892569D01*
X239036819Y-160069431D01*
X238975496Y-160102916D01*
X238949138Y-160105750D01*
X237721919Y-160105750D01*
X237654880Y-160086065D01*
X237609125Y-160033261D01*
X237599181Y-159964103D01*
X237628206Y-159900547D01*
X237674466Y-159867189D01*
X237676418Y-159866380D01*
X237676420Y-159866380D01*
X237867598Y-159787191D01*
X238039655Y-159672227D01*
X238185977Y-159525905D01*
X238300941Y-159353848D01*
X238380130Y-159162670D01*
X238420500Y-158959715D01*
X238420500Y-158752785D01*
X238380130Y-158549830D01*
X238300941Y-158358652D01*
X238185977Y-158186595D01*
X238185975Y-158186592D01*
X238039657Y-158040274D01*
X237871655Y-157928020D01*
X237867598Y-157925309D01*
X237676420Y-157846120D01*
X237676412Y-157846118D01*
X237473469Y-157805750D01*
X237473465Y-157805750D01*
X237266535Y-157805750D01*
X237266530Y-157805750D01*
X237063587Y-157846118D01*
X237063579Y-157846120D01*
X236872403Y-157925308D01*
X236700342Y-158040274D01*
X236554024Y-158186592D01*
X236439058Y-158358653D01*
X236359870Y-158549829D01*
X236359868Y-158549837D01*
X236319500Y-158752780D01*
X236319500Y-158959719D01*
X236359868Y-159162662D01*
X236359870Y-159162670D01*
X236439058Y-159353846D01*
X236554024Y-159525907D01*
X236700342Y-159672225D01*
X236700345Y-159672227D01*
X236872402Y-159787191D01*
X237063580Y-159866380D01*
X237063581Y-159866380D01*
X237065534Y-159867189D01*
X237119937Y-159911030D01*
X237142002Y-159977324D01*
X237124723Y-160045023D01*
X237073586Y-160092634D01*
X237018081Y-160105750D01*
X235181919Y-160105750D01*
X235114880Y-160086065D01*
X235069125Y-160033261D01*
X235059181Y-159964103D01*
X235088206Y-159900547D01*
X235134466Y-159867189D01*
X235136418Y-159866380D01*
X235136420Y-159866380D01*
X235327598Y-159787191D01*
X235499655Y-159672227D01*
X235645977Y-159525905D01*
X235760941Y-159353848D01*
X235840130Y-159162670D01*
X235880500Y-158959715D01*
X235880500Y-158752785D01*
X235840130Y-158549830D01*
X235760941Y-158358652D01*
X235645977Y-158186595D01*
X235645975Y-158186592D01*
X235499657Y-158040274D01*
X235331655Y-157928020D01*
X235327598Y-157925309D01*
X235136420Y-157846120D01*
X235136412Y-157846118D01*
X234933469Y-157805750D01*
X234933465Y-157805750D01*
X234726535Y-157805750D01*
X234726530Y-157805750D01*
X234523587Y-157846118D01*
X234523579Y-157846120D01*
X234332403Y-157925308D01*
X234160342Y-158040274D01*
X234014024Y-158186592D01*
X233899058Y-158358653D01*
X233819870Y-158549829D01*
X233819868Y-158549837D01*
X233779500Y-158752780D01*
X233779500Y-158959719D01*
X233819868Y-159162662D01*
X233819870Y-159162670D01*
X233899058Y-159353846D01*
X234014024Y-159525907D01*
X234160342Y-159672225D01*
X234160345Y-159672227D01*
X234332402Y-159787191D01*
X234523580Y-159866380D01*
X234523581Y-159866380D01*
X234525534Y-159867189D01*
X234579937Y-159911030D01*
X234602002Y-159977324D01*
X234584723Y-160045023D01*
X234533586Y-160092634D01*
X234478081Y-160105750D01*
X232641919Y-160105750D01*
X232574880Y-160086065D01*
X232529125Y-160033261D01*
X232519181Y-159964103D01*
X232548206Y-159900547D01*
X232594466Y-159867189D01*
X232596418Y-159866380D01*
X232596420Y-159866380D01*
X232787598Y-159787191D01*
X232959655Y-159672227D01*
X233105977Y-159525905D01*
X233220941Y-159353848D01*
X233300130Y-159162670D01*
X233340500Y-158959715D01*
X233340500Y-158752785D01*
X233300130Y-158549830D01*
X233220941Y-158358652D01*
X233105977Y-158186595D01*
X233105975Y-158186592D01*
X232959657Y-158040274D01*
X232791655Y-157928020D01*
X232787598Y-157925309D01*
X232596420Y-157846120D01*
X232596412Y-157846118D01*
X232393469Y-157805750D01*
X232393465Y-157805750D01*
X232186535Y-157805750D01*
X232186530Y-157805750D01*
X231983587Y-157846118D01*
X231983579Y-157846120D01*
X231792403Y-157925308D01*
X231620342Y-158040274D01*
X231474024Y-158186592D01*
X231359058Y-158358653D01*
X231279870Y-158549829D01*
X231279868Y-158549837D01*
X231239500Y-158752780D01*
X231239500Y-158959719D01*
X231279868Y-159162662D01*
X231279870Y-159162670D01*
X231359058Y-159353846D01*
X231474024Y-159525907D01*
X231620342Y-159672225D01*
X231620345Y-159672227D01*
X231792402Y-159787191D01*
X231983580Y-159866380D01*
X231983581Y-159866380D01*
X231985534Y-159867189D01*
X232039937Y-159911030D01*
X232062002Y-159977324D01*
X232044723Y-160045023D01*
X231993586Y-160092634D01*
X231938081Y-160105750D01*
X230771770Y-160105750D01*
X230704731Y-160086065D01*
X230658976Y-160033261D01*
X230649032Y-159964103D01*
X230678057Y-159900547D01*
X230702878Y-159878648D01*
X230744552Y-159850802D01*
X230788867Y-159784481D01*
X230788867Y-159784479D01*
X230788868Y-159784479D01*
X230800499Y-159726002D01*
X230800500Y-159726000D01*
X230800500Y-157986499D01*
X230800499Y-157986497D01*
X230788868Y-157928020D01*
X230788867Y-157928019D01*
X230744552Y-157861697D01*
X230678230Y-157817382D01*
X230678229Y-157817381D01*
X230619752Y-157805750D01*
X230619748Y-157805750D01*
X228880252Y-157805750D01*
X228880247Y-157805750D01*
X228821770Y-157817381D01*
X228821769Y-157817382D01*
X228755447Y-157861697D01*
X228711132Y-157928019D01*
X228711131Y-157928020D01*
X228699500Y-157986497D01*
X228699500Y-159726002D01*
X228711131Y-159784479D01*
X228711132Y-159784480D01*
X228755446Y-159850801D01*
X228797122Y-159878648D01*
X228841926Y-159932261D01*
X228850633Y-160001586D01*
X228820478Y-160064613D01*
X228761035Y-160101332D01*
X228728230Y-160105750D01*
X226829500Y-160105750D01*
X226762461Y-160086065D01*
X226716706Y-160033261D01*
X226705500Y-159981750D01*
X226705500Y-157230258D01*
X226705499Y-157230242D01*
X226704187Y-157218039D01*
X226700803Y-157186566D01*
X226696897Y-157168614D01*
X226689602Y-157135075D01*
X226689348Y-157134039D01*
X226687110Y-157124877D01*
X226644100Y-157044165D01*
X226598345Y-156991361D01*
X226598339Y-156991354D01*
X226580757Y-156973410D01*
X226580756Y-156973409D01*
X226580754Y-156973407D01*
X226580752Y-156973406D01*
X226580750Y-156973404D01*
X226500940Y-156928761D01*
X226500935Y-156928759D01*
X226433903Y-156909076D01*
X226433899Y-156909075D01*
X226433898Y-156909075D01*
X226376000Y-156900750D01*
X226375996Y-156900750D01*
X225384149Y-156900750D01*
X225317110Y-156881065D01*
X225297537Y-156865488D01*
X224618420Y-156202642D01*
X224099292Y-155695951D01*
X224083721Y-155682218D01*
X224078047Y-155677702D01*
X224064148Y-155666640D01*
X223994085Y-155630262D01*
X223994080Y-155630260D01*
X223994079Y-155630260D01*
X223971478Y-155623623D01*
X223927045Y-155610576D01*
X223927041Y-155610575D01*
X223927040Y-155610575D01*
X223869142Y-155602250D01*
X223759566Y-155602250D01*
X223692527Y-155582565D01*
X223672954Y-155566988D01*
X223548418Y-155445436D01*
X222904237Y-154816688D01*
X228699500Y-154816688D01*
X228699500Y-155520812D01*
X228719979Y-155597239D01*
X228739044Y-155630260D01*
X228759540Y-155665761D01*
X229027060Y-155933281D01*
X229083009Y-155989230D01*
X229083011Y-155989231D01*
X229083015Y-155989234D01*
X229151524Y-156028787D01*
X229151531Y-156028791D01*
X229227958Y-156049270D01*
X229307082Y-156049270D01*
X236923844Y-156049270D01*
X236990883Y-156068955D01*
X237011525Y-156085589D01*
X237062686Y-156136750D01*
X237176814Y-156202642D01*
X237304108Y-156236750D01*
X237304110Y-156236750D01*
X237435890Y-156236750D01*
X237435892Y-156236750D01*
X237563186Y-156202642D01*
X237677314Y-156136750D01*
X237770500Y-156043564D01*
X237836392Y-155929436D01*
X237870500Y-155802142D01*
X237870500Y-155670358D01*
X237836392Y-155543064D01*
X237770500Y-155428936D01*
X237677314Y-155335750D01*
X237620250Y-155302804D01*
X237563187Y-155269858D01*
X237499539Y-155252804D01*
X237435892Y-155235750D01*
X237304108Y-155235750D01*
X237176812Y-155269858D01*
X237062686Y-155335750D01*
X236986484Y-155411952D01*
X236925160Y-155445436D01*
X236898803Y-155448270D01*
X229443353Y-155448270D01*
X229413912Y-155439625D01*
X229383926Y-155433102D01*
X229378910Y-155429347D01*
X229376314Y-155428585D01*
X229355672Y-155411951D01*
X229336819Y-155393098D01*
X229303334Y-155331775D01*
X229300500Y-155305417D01*
X229300500Y-155258006D01*
X229320185Y-155190967D01*
X229372989Y-155145212D01*
X229425981Y-155137289D01*
X229425981Y-155134202D01*
X229565890Y-155134202D01*
X229565892Y-155134202D01*
X229693186Y-155100094D01*
X229807314Y-155034202D01*
X229900500Y-154941016D01*
X229966392Y-154826888D01*
X230000500Y-154699594D01*
X230000500Y-154567810D01*
X229966392Y-154440516D01*
X229900500Y-154326388D01*
X229807314Y-154233202D01*
X229750250Y-154200256D01*
X229693187Y-154167310D01*
X229629539Y-154150256D01*
X229565892Y-154133202D01*
X229434108Y-154133202D01*
X229306812Y-154167310D01*
X229192686Y-154233202D01*
X229192683Y-154233204D01*
X229099502Y-154326385D01*
X229099498Y-154326391D01*
X229088944Y-154344670D01*
X229043562Y-154390051D01*
X229038043Y-154393237D01*
X229038035Y-154393243D01*
X228759541Y-154671737D01*
X228759535Y-154671745D01*
X228719982Y-154740254D01*
X228719979Y-154740259D01*
X228706326Y-154791212D01*
X228699500Y-154816688D01*
X222904237Y-154816688D01*
X222420633Y-154344670D01*
X221510531Y-153456372D01*
X221476305Y-153395459D01*
X221477782Y-153344053D01*
X221475769Y-153343705D01*
X221476954Y-153336853D01*
X221476957Y-153336846D01*
X221481096Y-153267099D01*
X221481048Y-153241962D01*
X221455113Y-153154260D01*
X221420887Y-153093347D01*
X221385269Y-153046951D01*
X219492888Y-151199908D01*
X219477501Y-151172524D01*
X219460523Y-151146105D01*
X219459789Y-151141001D01*
X219458662Y-151138995D01*
X219455500Y-151111170D01*
X219455500Y-150880750D01*
X219475185Y-150813711D01*
X219527989Y-150767956D01*
X219579500Y-150756750D01*
X240302725Y-150756750D01*
X240302727Y-150756750D01*
X240404588Y-150729457D01*
X240495913Y-150676730D01*
X242570480Y-148602163D01*
X242623207Y-148510838D01*
X242650500Y-148408977D01*
X242650500Y-148303523D01*
X242650500Y-146974241D01*
X242667112Y-146912242D01*
X242716392Y-146826888D01*
X242750500Y-146699594D01*
X242750500Y-146699592D01*
X242750885Y-146698156D01*
X242787250Y-146638496D01*
X242850097Y-146607967D01*
X242870660Y-146606250D01*
X246448638Y-146606250D01*
X246515677Y-146625935D01*
G37*
%TD.AperFunction*%
%TA.AperFunction,Conductor*%
G36*
X241696379Y-146625935D02*
G01*
X241742134Y-146678739D01*
X241749115Y-146698156D01*
X241749500Y-146699592D01*
X241749500Y-146699594D01*
X241783608Y-146826888D01*
X241832887Y-146912242D01*
X241849500Y-146974241D01*
X241849500Y-148138995D01*
X241829815Y-148206034D01*
X241813181Y-148226676D01*
X240120426Y-149919431D01*
X240059103Y-149952916D01*
X240032745Y-149955750D01*
X219579500Y-149955750D01*
X219512461Y-149936065D01*
X219466706Y-149883261D01*
X219455500Y-149831750D01*
X219455500Y-146845862D01*
X219464144Y-146816421D01*
X219470668Y-146786435D01*
X219474422Y-146781419D01*
X219475185Y-146778823D01*
X219491819Y-146758181D01*
X219508181Y-146741819D01*
X219569504Y-146708334D01*
X219595862Y-146705500D01*
X223154138Y-146705500D01*
X223221177Y-146725185D01*
X223241819Y-146741819D01*
X223258181Y-146758181D01*
X223291666Y-146819504D01*
X223294500Y-146845862D01*
X223294500Y-147982257D01*
X223299197Y-148025936D01*
X223310397Y-148077424D01*
X223312890Y-148087622D01*
X223312891Y-148087625D01*
X223355899Y-148168333D01*
X223355901Y-148168336D01*
X223401660Y-148221145D01*
X223412541Y-148232250D01*
X223419246Y-148239093D01*
X223419247Y-148239094D01*
X223419249Y-148239095D01*
X223499059Y-148283738D01*
X223499063Y-148283740D01*
X223566102Y-148303425D01*
X223624000Y-148311750D01*
X223624004Y-148311750D01*
X225404138Y-148311750D01*
X225471177Y-148331435D01*
X225491819Y-148348069D01*
X225500000Y-148356250D01*
X234750000Y-148356250D01*
X235250000Y-148356250D01*
X235308650Y-148297599D01*
X235336895Y-148276454D01*
X235384805Y-148250294D01*
X235431629Y-148215241D01*
X236698352Y-146948516D01*
X236738569Y-146921644D01*
X237335728Y-146674293D01*
X237477213Y-146615689D01*
X237524665Y-146606250D01*
X241629340Y-146606250D01*
X241696379Y-146625935D01*
G37*
%TD.AperFunction*%
%TD*%
%TA.AperFunction,Conductor*%
%TO.N,GNDD*%
G36*
X223936181Y-155827435D02*
G01*
X223955754Y-155843012D01*
X225250000Y-157106250D01*
X226376000Y-157106250D01*
X226443039Y-157125935D01*
X226488794Y-157178739D01*
X226500000Y-157230250D01*
X226500000Y-159981750D01*
X226480315Y-160048789D01*
X226427511Y-160094544D01*
X226376000Y-160105750D01*
X224921919Y-160105750D01*
X224854880Y-160086065D01*
X224809125Y-160033261D01*
X224799181Y-159964103D01*
X224828206Y-159900547D01*
X224874466Y-159867189D01*
X224876418Y-159866380D01*
X224876420Y-159866380D01*
X225067598Y-159787191D01*
X225239655Y-159672227D01*
X225385977Y-159525905D01*
X225500941Y-159353848D01*
X225580130Y-159162670D01*
X225620500Y-158959715D01*
X225620500Y-158752785D01*
X225580130Y-158549830D01*
X225500941Y-158358652D01*
X225385977Y-158186595D01*
X225385975Y-158186592D01*
X225239657Y-158040274D01*
X225153626Y-157982791D01*
X225067598Y-157925309D01*
X225039243Y-157913564D01*
X224876420Y-157846120D01*
X224876412Y-157846118D01*
X224673469Y-157805750D01*
X224673465Y-157805750D01*
X224466535Y-157805750D01*
X224466530Y-157805750D01*
X224263587Y-157846118D01*
X224263579Y-157846120D01*
X224072403Y-157925308D01*
X223900342Y-158040274D01*
X223754024Y-158186592D01*
X223639058Y-158358653D01*
X223559870Y-158549829D01*
X223559868Y-158549837D01*
X223519500Y-158752780D01*
X223519500Y-158959719D01*
X223559868Y-159162662D01*
X223559870Y-159162670D01*
X223639058Y-159353846D01*
X223754024Y-159525907D01*
X223900342Y-159672225D01*
X223900345Y-159672227D01*
X224072402Y-159787191D01*
X224263580Y-159866380D01*
X224263581Y-159866380D01*
X224265534Y-159867189D01*
X224319937Y-159911030D01*
X224342002Y-159977324D01*
X224324723Y-160045023D01*
X224273586Y-160092634D01*
X224218081Y-160105750D01*
X222381919Y-160105750D01*
X222314880Y-160086065D01*
X222269125Y-160033261D01*
X222259181Y-159964103D01*
X222288206Y-159900547D01*
X222334466Y-159867189D01*
X222336418Y-159866380D01*
X222336420Y-159866380D01*
X222527598Y-159787191D01*
X222699655Y-159672227D01*
X222845977Y-159525905D01*
X222960941Y-159353848D01*
X223040130Y-159162670D01*
X223080500Y-158959715D01*
X223080500Y-158752785D01*
X223040130Y-158549830D01*
X222960941Y-158358652D01*
X222845977Y-158186595D01*
X222845975Y-158186592D01*
X222699657Y-158040274D01*
X222613626Y-157982791D01*
X222527598Y-157925309D01*
X222499243Y-157913564D01*
X222336420Y-157846120D01*
X222336412Y-157846118D01*
X222133469Y-157805750D01*
X222133465Y-157805750D01*
X221926535Y-157805750D01*
X221926530Y-157805750D01*
X221723587Y-157846118D01*
X221723579Y-157846120D01*
X221532403Y-157925308D01*
X221360342Y-158040274D01*
X221214024Y-158186592D01*
X221099058Y-158358653D01*
X221019870Y-158549829D01*
X221019868Y-158549837D01*
X220979500Y-158752780D01*
X220979500Y-158959719D01*
X221019868Y-159162662D01*
X221019870Y-159162670D01*
X221099058Y-159353846D01*
X221214024Y-159525907D01*
X221360342Y-159672225D01*
X221360345Y-159672227D01*
X221532402Y-159787191D01*
X221723580Y-159866380D01*
X221723581Y-159866380D01*
X221725534Y-159867189D01*
X221779937Y-159911030D01*
X221802002Y-159977324D01*
X221784723Y-160045023D01*
X221733586Y-160092634D01*
X221678081Y-160105750D01*
X219841919Y-160105750D01*
X219774880Y-160086065D01*
X219729125Y-160033261D01*
X219719181Y-159964103D01*
X219748206Y-159900547D01*
X219794466Y-159867189D01*
X219796418Y-159866380D01*
X219796420Y-159866380D01*
X219987598Y-159787191D01*
X220159655Y-159672227D01*
X220305977Y-159525905D01*
X220420941Y-159353848D01*
X220500130Y-159162670D01*
X220540500Y-158959715D01*
X220540500Y-158752785D01*
X220500130Y-158549830D01*
X220420941Y-158358652D01*
X220305977Y-158186595D01*
X220305975Y-158186592D01*
X220159657Y-158040274D01*
X220073626Y-157982791D01*
X219987598Y-157925309D01*
X219959243Y-157913564D01*
X219796420Y-157846120D01*
X219796412Y-157846118D01*
X219593469Y-157805750D01*
X219593465Y-157805750D01*
X219386535Y-157805750D01*
X219386530Y-157805750D01*
X219183587Y-157846118D01*
X219183579Y-157846120D01*
X218992403Y-157925308D01*
X218820342Y-158040274D01*
X218674024Y-158186592D01*
X218559058Y-158358653D01*
X218479870Y-158549829D01*
X218479868Y-158549837D01*
X218439500Y-158752780D01*
X218439500Y-158959719D01*
X218479868Y-159162662D01*
X218479870Y-159162670D01*
X218559058Y-159353846D01*
X218674024Y-159525907D01*
X218820342Y-159672225D01*
X218820345Y-159672227D01*
X218992402Y-159787191D01*
X219183580Y-159866380D01*
X219183581Y-159866380D01*
X219185534Y-159867189D01*
X219239937Y-159911030D01*
X219262002Y-159977324D01*
X219244723Y-160045023D01*
X219193586Y-160092634D01*
X219138081Y-160105750D01*
X217301919Y-160105750D01*
X217234880Y-160086065D01*
X217189125Y-160033261D01*
X217179181Y-159964103D01*
X217208206Y-159900547D01*
X217254466Y-159867189D01*
X217256418Y-159866380D01*
X217256420Y-159866380D01*
X217447598Y-159787191D01*
X217619655Y-159672227D01*
X217765977Y-159525905D01*
X217880941Y-159353848D01*
X217960130Y-159162670D01*
X218000500Y-158959715D01*
X218000500Y-158752785D01*
X217960130Y-158549830D01*
X217880941Y-158358652D01*
X217765977Y-158186595D01*
X217765975Y-158186592D01*
X217619657Y-158040274D01*
X217533626Y-157982791D01*
X217447598Y-157925309D01*
X217419243Y-157913564D01*
X217256420Y-157846120D01*
X217256412Y-157846118D01*
X217053469Y-157805750D01*
X217053465Y-157805750D01*
X216846535Y-157805750D01*
X216846530Y-157805750D01*
X216643587Y-157846118D01*
X216643579Y-157846120D01*
X216452403Y-157925308D01*
X216280342Y-158040274D01*
X216134024Y-158186592D01*
X216019058Y-158358653D01*
X215939870Y-158549829D01*
X215939868Y-158549837D01*
X215899500Y-158752780D01*
X215899500Y-158959719D01*
X215939868Y-159162662D01*
X215939870Y-159162670D01*
X216019058Y-159353846D01*
X216134024Y-159525907D01*
X216280342Y-159672225D01*
X216280345Y-159672227D01*
X216452402Y-159787191D01*
X216643580Y-159866380D01*
X216643581Y-159866380D01*
X216645534Y-159867189D01*
X216699937Y-159911030D01*
X216722002Y-159977324D01*
X216704723Y-160045023D01*
X216653586Y-160092634D01*
X216598081Y-160105750D01*
X214761919Y-160105750D01*
X214694880Y-160086065D01*
X214649125Y-160033261D01*
X214639181Y-159964103D01*
X214668206Y-159900547D01*
X214714466Y-159867189D01*
X214716418Y-159866380D01*
X214716420Y-159866380D01*
X214907598Y-159787191D01*
X215079655Y-159672227D01*
X215225977Y-159525905D01*
X215340941Y-159353848D01*
X215420130Y-159162670D01*
X215460500Y-158959715D01*
X215460500Y-158752785D01*
X215420130Y-158549830D01*
X215340941Y-158358652D01*
X215225977Y-158186595D01*
X215225975Y-158186592D01*
X215079657Y-158040274D01*
X214993626Y-157982791D01*
X214907598Y-157925309D01*
X214879243Y-157913564D01*
X214716420Y-157846120D01*
X214716412Y-157846118D01*
X214513469Y-157805750D01*
X214513465Y-157805750D01*
X214306535Y-157805750D01*
X214306530Y-157805750D01*
X214103587Y-157846118D01*
X214103579Y-157846120D01*
X213912403Y-157925308D01*
X213740342Y-158040274D01*
X213594024Y-158186592D01*
X213479058Y-158358653D01*
X213399870Y-158549829D01*
X213399868Y-158549837D01*
X213359500Y-158752780D01*
X213359500Y-158959719D01*
X213399868Y-159162662D01*
X213399870Y-159162670D01*
X213479058Y-159353846D01*
X213594024Y-159525907D01*
X213740342Y-159672225D01*
X213740345Y-159672227D01*
X213912402Y-159787191D01*
X214103580Y-159866380D01*
X214103581Y-159866380D01*
X214105534Y-159867189D01*
X214159937Y-159911030D01*
X214182002Y-159977324D01*
X214164723Y-160045023D01*
X214113586Y-160092634D01*
X214058081Y-160105750D01*
X212221919Y-160105750D01*
X212154880Y-160086065D01*
X212109125Y-160033261D01*
X212099181Y-159964103D01*
X212128206Y-159900547D01*
X212174466Y-159867189D01*
X212176418Y-159866380D01*
X212176420Y-159866380D01*
X212367598Y-159787191D01*
X212539655Y-159672227D01*
X212685977Y-159525905D01*
X212800941Y-159353848D01*
X212880130Y-159162670D01*
X212920500Y-158959715D01*
X212920500Y-158752785D01*
X212880130Y-158549830D01*
X212800941Y-158358652D01*
X212685977Y-158186595D01*
X212685975Y-158186592D01*
X212539657Y-158040274D01*
X212453626Y-157982791D01*
X212367598Y-157925309D01*
X212339243Y-157913564D01*
X212176420Y-157846120D01*
X212176412Y-157846118D01*
X211973469Y-157805750D01*
X211973465Y-157805750D01*
X211766535Y-157805750D01*
X211766530Y-157805750D01*
X211563587Y-157846118D01*
X211563579Y-157846120D01*
X211372403Y-157925308D01*
X211200342Y-158040274D01*
X211054024Y-158186592D01*
X210939058Y-158358653D01*
X210859870Y-158549829D01*
X210859868Y-158549837D01*
X210819500Y-158752780D01*
X210819500Y-158959719D01*
X210859868Y-159162662D01*
X210859870Y-159162670D01*
X210939058Y-159353846D01*
X211054024Y-159525907D01*
X211200342Y-159672225D01*
X211200345Y-159672227D01*
X211372402Y-159787191D01*
X211563580Y-159866380D01*
X211563581Y-159866380D01*
X211565534Y-159867189D01*
X211619937Y-159911030D01*
X211642002Y-159977324D01*
X211624723Y-160045023D01*
X211573586Y-160092634D01*
X211518081Y-160105750D01*
X209681919Y-160105750D01*
X209614880Y-160086065D01*
X209569125Y-160033261D01*
X209559181Y-159964103D01*
X209588206Y-159900547D01*
X209634466Y-159867189D01*
X209636418Y-159866380D01*
X209636420Y-159866380D01*
X209827598Y-159787191D01*
X209999655Y-159672227D01*
X210145977Y-159525905D01*
X210260941Y-159353848D01*
X210340130Y-159162670D01*
X210380500Y-158959715D01*
X210380500Y-158752785D01*
X210340130Y-158549830D01*
X210260941Y-158358652D01*
X210145977Y-158186595D01*
X210145975Y-158186592D01*
X209999657Y-158040274D01*
X209913626Y-157982791D01*
X209827598Y-157925309D01*
X209799243Y-157913564D01*
X209636420Y-157846120D01*
X209636412Y-157846118D01*
X209433469Y-157805750D01*
X209433465Y-157805750D01*
X209226535Y-157805750D01*
X209226530Y-157805750D01*
X209023587Y-157846118D01*
X209023579Y-157846120D01*
X208832403Y-157925308D01*
X208660342Y-158040274D01*
X208514024Y-158186592D01*
X208399058Y-158358653D01*
X208319870Y-158549829D01*
X208319868Y-158549837D01*
X208279500Y-158752780D01*
X208279500Y-158959719D01*
X208319868Y-159162662D01*
X208319870Y-159162670D01*
X208399058Y-159353846D01*
X208514024Y-159525907D01*
X208660342Y-159672225D01*
X208660345Y-159672227D01*
X208832402Y-159787191D01*
X209023580Y-159866380D01*
X209023581Y-159866380D01*
X209025534Y-159867189D01*
X209079937Y-159911030D01*
X209102002Y-159977324D01*
X209084723Y-160045023D01*
X209033586Y-160092634D01*
X208978081Y-160105750D01*
X207141919Y-160105750D01*
X207074880Y-160086065D01*
X207029125Y-160033261D01*
X207019181Y-159964103D01*
X207048206Y-159900547D01*
X207094466Y-159867189D01*
X207096418Y-159866380D01*
X207096420Y-159866380D01*
X207287598Y-159787191D01*
X207459655Y-159672227D01*
X207605977Y-159525905D01*
X207720941Y-159353848D01*
X207800130Y-159162670D01*
X207840500Y-158959715D01*
X207840500Y-158752785D01*
X207800130Y-158549830D01*
X207720941Y-158358652D01*
X207605977Y-158186595D01*
X207605975Y-158186592D01*
X207459657Y-158040274D01*
X207373626Y-157982791D01*
X207287598Y-157925309D01*
X207259243Y-157913564D01*
X207096420Y-157846120D01*
X207096412Y-157846118D01*
X206893469Y-157805750D01*
X206893465Y-157805750D01*
X206686535Y-157805750D01*
X206686530Y-157805750D01*
X206483587Y-157846118D01*
X206483579Y-157846120D01*
X206292403Y-157925308D01*
X206120342Y-158040274D01*
X205974024Y-158186592D01*
X205859058Y-158358653D01*
X205779870Y-158549829D01*
X205779868Y-158549837D01*
X205739500Y-158752780D01*
X205739500Y-158959719D01*
X205779868Y-159162662D01*
X205779870Y-159162670D01*
X205859058Y-159353846D01*
X205974024Y-159525907D01*
X206120342Y-159672225D01*
X206120345Y-159672227D01*
X206292402Y-159787191D01*
X206483580Y-159866380D01*
X206483581Y-159866380D01*
X206485534Y-159867189D01*
X206539937Y-159911030D01*
X206562002Y-159977324D01*
X206544723Y-160045023D01*
X206493586Y-160092634D01*
X206438081Y-160105750D01*
X203124000Y-160105750D01*
X203056961Y-160086065D01*
X203011206Y-160033261D01*
X203000000Y-159981750D01*
X203000000Y-157730250D01*
X203019685Y-157663211D01*
X203072489Y-157617456D01*
X203124000Y-157606250D01*
X205249999Y-157606250D01*
X205250000Y-157606250D01*
X205250001Y-157606249D01*
X206938574Y-155845912D01*
X206999187Y-155811158D01*
X207028060Y-155807750D01*
X223869142Y-155807750D01*
X223936181Y-155827435D01*
G37*
%TD.AperFunction*%
%TA.AperFunction,Conductor*%
G36*
X219193039Y-150776435D02*
G01*
X219238794Y-150829239D01*
X219250000Y-150880750D01*
X219250000Y-151250000D01*
X221241731Y-153194012D01*
X221275957Y-153254925D01*
X221271818Y-153324672D01*
X221230627Y-153381109D01*
X221165464Y-153406318D01*
X221155119Y-153406750D01*
X207874000Y-153406750D01*
X207806961Y-153387065D01*
X207761206Y-153334261D01*
X207750000Y-153282750D01*
X207750000Y-150974005D01*
X207756621Y-150951454D01*
X207758828Y-150928055D01*
X207767243Y-150915280D01*
X207769685Y-150906966D01*
X207776439Y-150897469D01*
X207781043Y-150891599D01*
X207820480Y-150852163D01*
X207844168Y-150811133D01*
X207849597Y-150804214D01*
X207871159Y-150788820D01*
X207890338Y-150770534D01*
X207900088Y-150768168D01*
X207906463Y-150763618D01*
X207921967Y-150762861D01*
X207947158Y-150756750D01*
X219126000Y-150756750D01*
X219193039Y-150776435D01*
G37*
%TD.AperFunction*%
%TA.AperFunction,Conductor*%
G36*
X222443039Y-126019685D02*
G01*
X222488794Y-126072489D01*
X222500000Y-126124000D01*
X222500000Y-135524665D01*
X222496185Y-135524665D01*
X222498734Y-135548410D01*
X222467450Y-135610885D01*
X222407356Y-135646528D01*
X222337531Y-135644023D01*
X222289027Y-135614056D01*
X219934512Y-133259541D01*
X219934507Y-133259537D01*
X219917124Y-133249502D01*
X219917120Y-133249498D01*
X219917120Y-133249499D01*
X219891555Y-133234739D01*
X219865990Y-133219979D01*
X219840513Y-133213152D01*
X219789562Y-133199500D01*
X219789560Y-133199500D01*
X218708676Y-133199500D01*
X218641637Y-133179815D01*
X218620995Y-133163181D01*
X218557316Y-133099502D01*
X218557314Y-133099500D01*
X218500250Y-133066554D01*
X218443187Y-133033608D01*
X218379539Y-133016554D01*
X218315892Y-132999500D01*
X218184108Y-132999500D01*
X218056812Y-133033608D01*
X217942686Y-133099500D01*
X217942683Y-133099502D01*
X217849502Y-133192683D01*
X217849500Y-133192686D01*
X217783608Y-133306812D01*
X217749500Y-133434108D01*
X217749500Y-133565891D01*
X217783608Y-133693187D01*
X217816554Y-133750250D01*
X217849500Y-133807314D01*
X217942686Y-133900500D01*
X218056814Y-133966392D01*
X218184108Y-134000500D01*
X218184110Y-134000500D01*
X218315890Y-134000500D01*
X218315892Y-134000500D01*
X218443186Y-133966392D01*
X218557314Y-133900500D01*
X218620995Y-133836819D01*
X218682318Y-133803334D01*
X218708676Y-133800500D01*
X219574167Y-133800500D01*
X219641206Y-133820185D01*
X219661848Y-133836819D01*
X223413181Y-137588152D01*
X223446666Y-137649475D01*
X223449500Y-137675833D01*
X223449500Y-138073066D01*
X223429815Y-138140105D01*
X223377011Y-138185860D01*
X223307853Y-138195804D01*
X223263500Y-138180453D01*
X223193189Y-138139859D01*
X223193186Y-138139858D01*
X223065892Y-138105750D01*
X222934108Y-138105750D01*
X222806812Y-138139858D01*
X222692686Y-138205750D01*
X222692683Y-138205752D01*
X222599502Y-138298933D01*
X222599500Y-138298936D01*
X222533608Y-138413062D01*
X222499500Y-138540358D01*
X222499500Y-138672141D01*
X222533608Y-138799437D01*
X222566264Y-138855998D01*
X222599500Y-138913564D01*
X222599502Y-138913566D01*
X222663181Y-138977245D01*
X222696666Y-139038568D01*
X222699500Y-139064926D01*
X222699500Y-141897573D01*
X222679815Y-141964612D01*
X222663182Y-141985254D01*
X222599500Y-142048936D01*
X222533608Y-142163062D01*
X222499500Y-142290358D01*
X222499500Y-142422141D01*
X222533608Y-142549437D01*
X222566554Y-142606500D01*
X222599500Y-142663564D01*
X222692686Y-142756750D01*
X222791521Y-142813813D01*
X222793449Y-142814926D01*
X222806814Y-142822642D01*
X222934108Y-142856750D01*
X222934110Y-142856750D01*
X223065890Y-142856750D01*
X223065892Y-142856750D01*
X223193186Y-142822642D01*
X223307314Y-142756750D01*
X223400500Y-142663564D01*
X223466392Y-142549436D01*
X223500500Y-142422142D01*
X223500500Y-142290358D01*
X223466392Y-142163064D01*
X223400500Y-142048936D01*
X223336818Y-141985254D01*
X223303334Y-141923930D01*
X223300500Y-141897573D01*
X223300500Y-139524833D01*
X223320185Y-139457794D01*
X223372989Y-139412039D01*
X223442147Y-139402095D01*
X223505703Y-139431120D01*
X223512181Y-139437152D01*
X224000000Y-139924971D01*
X224000000Y-140000000D01*
X224075029Y-140000000D01*
X224365790Y-140290761D01*
X224421739Y-140346710D01*
X224421741Y-140346711D01*
X224421745Y-140346714D01*
X224490254Y-140386267D01*
X224490261Y-140386271D01*
X224566688Y-140406750D01*
X226716817Y-140406750D01*
X226783856Y-140426435D01*
X226829611Y-140479239D01*
X226839555Y-140548397D01*
X226824204Y-140592748D01*
X226817297Y-140604713D01*
X226783608Y-140663062D01*
X226762925Y-140740254D01*
X226749500Y-140790358D01*
X226749500Y-140922142D01*
X226761814Y-140968098D01*
X226783608Y-141049437D01*
X226797504Y-141073505D01*
X226849500Y-141163564D01*
X226942686Y-141256750D01*
X227041521Y-141313813D01*
X227056008Y-141322177D01*
X227056814Y-141322642D01*
X227184108Y-141356750D01*
X227184110Y-141356750D01*
X227274167Y-141356750D01*
X227341206Y-141376435D01*
X227361848Y-141393069D01*
X227663181Y-141694402D01*
X227696666Y-141755725D01*
X227699500Y-141782083D01*
X227699500Y-142647573D01*
X227679815Y-142714612D01*
X227663182Y-142735254D01*
X227599500Y-142798936D01*
X227533608Y-142913062D01*
X227499500Y-143040358D01*
X227499500Y-143172141D01*
X227533608Y-143299437D01*
X227565848Y-143355278D01*
X227599500Y-143413564D01*
X227692686Y-143506750D01*
X227806814Y-143572642D01*
X227934108Y-143606750D01*
X227934110Y-143606750D01*
X228065890Y-143606750D01*
X228065892Y-143606750D01*
X228193186Y-143572642D01*
X228307314Y-143506750D01*
X228400500Y-143413564D01*
X228466392Y-143299436D01*
X228500500Y-143172142D01*
X228500500Y-143040358D01*
X228466392Y-142913064D01*
X228400500Y-142798936D01*
X228336818Y-142735254D01*
X228303334Y-142673930D01*
X228300500Y-142647573D01*
X228300500Y-141566691D01*
X228300500Y-141566688D01*
X228293445Y-141540358D01*
X232749500Y-141540358D01*
X232749500Y-141672142D01*
X232761814Y-141718098D01*
X232783608Y-141799437D01*
X232816121Y-141855750D01*
X232849500Y-141913564D01*
X232942686Y-142006750D01*
X233023699Y-142053523D01*
X233056008Y-142072177D01*
X233056814Y-142072642D01*
X233184108Y-142106750D01*
X233184110Y-142106750D01*
X233274167Y-142106750D01*
X233303607Y-142115394D01*
X233333594Y-142121918D01*
X233338609Y-142125672D01*
X233341206Y-142126435D01*
X233361848Y-142143069D01*
X233483550Y-142264771D01*
X233517035Y-142326094D01*
X233519869Y-142352452D01*
X233519869Y-142717942D01*
X233500184Y-142784981D01*
X233483551Y-142805623D01*
X233419869Y-142869305D01*
X233353977Y-142983431D01*
X233319869Y-143110727D01*
X233319869Y-143242511D01*
X233330597Y-143282547D01*
X233353977Y-143369806D01*
X233371211Y-143399655D01*
X233419869Y-143483933D01*
X233513055Y-143577119D01*
X233627183Y-143643011D01*
X233754477Y-143677119D01*
X233754479Y-143677119D01*
X233886259Y-143677119D01*
X233886261Y-143677119D01*
X234013555Y-143643011D01*
X234127683Y-143577119D01*
X234220869Y-143483933D01*
X234286761Y-143369805D01*
X234320869Y-143242511D01*
X234320869Y-143110727D01*
X234286761Y-142983433D01*
X234220869Y-142869305D01*
X234157187Y-142805623D01*
X234123703Y-142744299D01*
X234120869Y-142717942D01*
X234120869Y-142137059D01*
X234120869Y-142137057D01*
X234100391Y-142060631D01*
X234060829Y-141992108D01*
X233786819Y-141718098D01*
X233753334Y-141656775D01*
X233750500Y-141630417D01*
X233750500Y-141540360D01*
X233750500Y-141540358D01*
X233716392Y-141413064D01*
X233650500Y-141298936D01*
X233557314Y-141205750D01*
X233500250Y-141172804D01*
X233443187Y-141139858D01*
X233379539Y-141122804D01*
X233315892Y-141105750D01*
X233184108Y-141105750D01*
X233056812Y-141139858D01*
X232942686Y-141205750D01*
X232942683Y-141205752D01*
X232849502Y-141298933D01*
X232849500Y-141298936D01*
X232783608Y-141413062D01*
X232762925Y-141490254D01*
X232749500Y-141540358D01*
X228293445Y-141540358D01*
X228280021Y-141490261D01*
X228280017Y-141490254D01*
X228240464Y-141421745D01*
X228240458Y-141421737D01*
X227786819Y-140968098D01*
X227753334Y-140906775D01*
X227750500Y-140880417D01*
X227750500Y-140790360D01*
X227750500Y-140790358D01*
X227716392Y-140663064D01*
X227675795Y-140592749D01*
X227659323Y-140524851D01*
X227682175Y-140458824D01*
X227737096Y-140415633D01*
X227783183Y-140406750D01*
X240074167Y-140406750D01*
X240141206Y-140426435D01*
X240161848Y-140443069D01*
X241913181Y-142194402D01*
X241946666Y-142255725D01*
X241949500Y-142282083D01*
X241949500Y-144675025D01*
X241929815Y-144742064D01*
X241913182Y-144762706D01*
X241849500Y-144826388D01*
X241783608Y-144940514D01*
X241756856Y-145040358D01*
X241749500Y-145067810D01*
X241749500Y-145199594D01*
X241783608Y-145326888D01*
X241832887Y-145412242D01*
X241849500Y-145474241D01*
X241849500Y-146232250D01*
X241829815Y-146299289D01*
X241777011Y-146345044D01*
X241725500Y-146356250D01*
X236999999Y-146356250D01*
X235286319Y-148069931D01*
X235224996Y-148103416D01*
X235198638Y-148106250D01*
X233250000Y-148106250D01*
X225500000Y-148106250D01*
X223624000Y-148106250D01*
X223556961Y-148086565D01*
X223511206Y-148033761D01*
X223500000Y-147982250D01*
X223500000Y-146500000D01*
X219250000Y-146500000D01*
X219250000Y-149831750D01*
X219230315Y-149898789D01*
X219177511Y-149944544D01*
X219126000Y-149955750D01*
X208024500Y-149955750D01*
X207957461Y-149936065D01*
X207911706Y-149883261D01*
X207900500Y-149831750D01*
X207900500Y-147196789D01*
X207917112Y-147134790D01*
X207966392Y-147049436D01*
X208000500Y-146922142D01*
X208000500Y-146790358D01*
X207966392Y-146663064D01*
X207933878Y-146606749D01*
X207917113Y-146577710D01*
X207900500Y-146515710D01*
X207900500Y-146040358D01*
X213499500Y-146040358D01*
X213499500Y-146172141D01*
X213533608Y-146299437D01*
X213555044Y-146336565D01*
X213599500Y-146413564D01*
X213692686Y-146506750D01*
X213806814Y-146572642D01*
X213934108Y-146606750D01*
X213934110Y-146606750D01*
X214065890Y-146606750D01*
X214065892Y-146606750D01*
X214193186Y-146572642D01*
X214307314Y-146506750D01*
X214400500Y-146413564D01*
X214466392Y-146299436D01*
X214500500Y-146172142D01*
X214500500Y-146082082D01*
X214520185Y-146015043D01*
X214536819Y-145994401D01*
X215088152Y-145443069D01*
X215149475Y-145409584D01*
X215175833Y-145406750D01*
X220539560Y-145406750D01*
X220539562Y-145406750D01*
X220615989Y-145386271D01*
X220684511Y-145346710D01*
X220740460Y-145290761D01*
X221990460Y-144040761D01*
X221996661Y-144030021D01*
X222030021Y-143972239D01*
X222050500Y-143895812D01*
X222050500Y-139064926D01*
X222070185Y-138997887D01*
X222086819Y-138977245D01*
X222108630Y-138955434D01*
X222150500Y-138913564D01*
X222216392Y-138799436D01*
X222250500Y-138672142D01*
X222250500Y-138540358D01*
X222216392Y-138413064D01*
X222150500Y-138298936D01*
X222057314Y-138205750D01*
X222000250Y-138172804D01*
X221943187Y-138139858D01*
X221879539Y-138122804D01*
X221815892Y-138105750D01*
X221684108Y-138105750D01*
X221556812Y-138139858D01*
X221442686Y-138205750D01*
X221442683Y-138205752D01*
X221349502Y-138298933D01*
X221349500Y-138298936D01*
X221283608Y-138413062D01*
X221249500Y-138540358D01*
X221249500Y-138672141D01*
X221283608Y-138799437D01*
X221316264Y-138855998D01*
X221349500Y-138913564D01*
X221349502Y-138913566D01*
X221413181Y-138977245D01*
X221446666Y-139038568D01*
X221449500Y-139064926D01*
X221449500Y-143680417D01*
X221429815Y-143747456D01*
X221413181Y-143768098D01*
X220411848Y-144769431D01*
X220350525Y-144802916D01*
X220324167Y-144805750D01*
X216243388Y-144805750D01*
X216176349Y-144786065D01*
X216130594Y-144733261D01*
X216120650Y-144664103D01*
X216149675Y-144600547D01*
X216181388Y-144574363D01*
X216199398Y-144563964D01*
X216286450Y-144513705D01*
X216379636Y-144420519D01*
X216445528Y-144306391D01*
X216479636Y-144179097D01*
X216479636Y-144089037D01*
X216499321Y-144021998D01*
X216515955Y-144001356D01*
X216888151Y-143629160D01*
X216949474Y-143595675D01*
X216975832Y-143592841D01*
X217065890Y-143592841D01*
X217065892Y-143592841D01*
X217193186Y-143558733D01*
X217307314Y-143492841D01*
X217400500Y-143399655D01*
X217432317Y-143344547D01*
X217468113Y-143282547D01*
X217470324Y-143280438D01*
X217471185Y-143277508D01*
X217495435Y-143256494D01*
X217518680Y-143234331D01*
X217521681Y-143233752D01*
X217523989Y-143231753D01*
X217555763Y-143227184D01*
X217587287Y-143221109D01*
X217590121Y-143222243D01*
X217593147Y-143221809D01*
X217622359Y-143235150D01*
X217652152Y-143247077D01*
X217653923Y-143249564D01*
X217656703Y-143250834D01*
X217674062Y-143277846D01*
X217692680Y-143303991D01*
X217693323Y-143307816D01*
X217694477Y-143309612D01*
X217699500Y-143344547D01*
X217699500Y-143397573D01*
X217679815Y-143464612D01*
X217663182Y-143485254D01*
X217599500Y-143548936D01*
X217533608Y-143663062D01*
X217499500Y-143790358D01*
X217499500Y-143922141D01*
X217533608Y-144049437D01*
X217556472Y-144089037D01*
X217599500Y-144163564D01*
X217692686Y-144256750D01*
X217806814Y-144322642D01*
X217934108Y-144356750D01*
X217934110Y-144356750D01*
X218065890Y-144356750D01*
X218065892Y-144356750D01*
X218193186Y-144322642D01*
X218307314Y-144256750D01*
X218400500Y-144163564D01*
X218466392Y-144049436D01*
X218500500Y-143922142D01*
X218500500Y-143790358D01*
X218466392Y-143663064D01*
X218400500Y-143548936D01*
X218336818Y-143485254D01*
X218303334Y-143423930D01*
X218300500Y-143397573D01*
X218300500Y-140907083D01*
X218320185Y-140840044D01*
X218336819Y-140819402D01*
X218415967Y-140740254D01*
X218519968Y-140636252D01*
X218533850Y-140628237D01*
X218543108Y-140618054D01*
X218575544Y-140604163D01*
X218609254Y-140595131D01*
X218679099Y-140596794D01*
X218736961Y-140635956D01*
X218764466Y-140700184D01*
X218761118Y-140746998D01*
X218749500Y-140790358D01*
X218749500Y-140922142D01*
X218761814Y-140968098D01*
X218783608Y-141049437D01*
X218797504Y-141073505D01*
X218849500Y-141163564D01*
X218942686Y-141256750D01*
X219041521Y-141313813D01*
X219056008Y-141322177D01*
X219056814Y-141322642D01*
X219184108Y-141356750D01*
X219184110Y-141356750D01*
X219315890Y-141356750D01*
X219315892Y-141356750D01*
X219443186Y-141322642D01*
X219557314Y-141256750D01*
X219650500Y-141163564D01*
X219716392Y-141049436D01*
X219750500Y-140922142D01*
X219750500Y-140790358D01*
X219716392Y-140663064D01*
X219650500Y-140548936D01*
X219586818Y-140485254D01*
X219553334Y-140423930D01*
X219550500Y-140397573D01*
X219550500Y-139064926D01*
X219570185Y-138997887D01*
X219586819Y-138977245D01*
X219608630Y-138955434D01*
X219650500Y-138913564D01*
X219716392Y-138799436D01*
X219750500Y-138672142D01*
X219750500Y-138540358D01*
X219999500Y-138540358D01*
X219999500Y-138672141D01*
X220033608Y-138799437D01*
X220066264Y-138855998D01*
X220099500Y-138913564D01*
X220099502Y-138913566D01*
X220163181Y-138977245D01*
X220196666Y-139038568D01*
X220199500Y-139064926D01*
X220199500Y-141147573D01*
X220179815Y-141214612D01*
X220163182Y-141235254D01*
X220099500Y-141298936D01*
X220033608Y-141413062D01*
X220012925Y-141490254D01*
X219999500Y-141540358D01*
X219999500Y-141672142D01*
X220011814Y-141718098D01*
X220033608Y-141799437D01*
X220066121Y-141855750D01*
X220099500Y-141913564D01*
X220192686Y-142006750D01*
X220273699Y-142053523D01*
X220306008Y-142072177D01*
X220306814Y-142072642D01*
X220434108Y-142106750D01*
X220434110Y-142106750D01*
X220565890Y-142106750D01*
X220565892Y-142106750D01*
X220693186Y-142072642D01*
X220807314Y-142006750D01*
X220900500Y-141913564D01*
X220966392Y-141799436D01*
X221000500Y-141672142D01*
X221000500Y-141540358D01*
X220966392Y-141413064D01*
X220900500Y-141298936D01*
X220836818Y-141235254D01*
X220803334Y-141173930D01*
X220800500Y-141147573D01*
X220800500Y-139064926D01*
X220820185Y-138997887D01*
X220836819Y-138977245D01*
X220858630Y-138955434D01*
X220900500Y-138913564D01*
X220966392Y-138799436D01*
X221000500Y-138672142D01*
X221000500Y-138540358D01*
X220966392Y-138413064D01*
X220900500Y-138298936D01*
X220807314Y-138205750D01*
X220750250Y-138172804D01*
X220693187Y-138139858D01*
X220629539Y-138122804D01*
X220565892Y-138105750D01*
X220434108Y-138105750D01*
X220306812Y-138139858D01*
X220192686Y-138205750D01*
X220192683Y-138205752D01*
X220099502Y-138298933D01*
X220099500Y-138298936D01*
X220033608Y-138413062D01*
X219999500Y-138540358D01*
X219750500Y-138540358D01*
X219716392Y-138413064D01*
X219650500Y-138298936D01*
X219557314Y-138205750D01*
X219500250Y-138172804D01*
X219443187Y-138139858D01*
X219379539Y-138122804D01*
X219315892Y-138105750D01*
X219184108Y-138105750D01*
X219056812Y-138139858D01*
X218942686Y-138205750D01*
X218942683Y-138205752D01*
X218849502Y-138298933D01*
X218849500Y-138298936D01*
X218783608Y-138413062D01*
X218749500Y-138540358D01*
X218749500Y-138672141D01*
X218783608Y-138799437D01*
X218816264Y-138855998D01*
X218849500Y-138913564D01*
X218849502Y-138913566D01*
X218913181Y-138977245D01*
X218946666Y-139038568D01*
X218949500Y-139064926D01*
X218949500Y-139573066D01*
X218929815Y-139640105D01*
X218877011Y-139685860D01*
X218807853Y-139695804D01*
X218763500Y-139680453D01*
X218693189Y-139639859D01*
X218693186Y-139639858D01*
X218565892Y-139605750D01*
X218434108Y-139605750D01*
X218306812Y-139639858D01*
X218192686Y-139705750D01*
X218192683Y-139705752D01*
X218099502Y-139798933D01*
X218099500Y-139798936D01*
X218033608Y-139913062D01*
X217999500Y-140040358D01*
X217999500Y-140172143D01*
X218009423Y-140209176D01*
X218009137Y-140221175D01*
X218013332Y-140232422D01*
X218008321Y-140255456D01*
X218007760Y-140279026D01*
X218000659Y-140290674D01*
X217998480Y-140300695D01*
X217977332Y-140328945D01*
X217815489Y-140490790D01*
X217815488Y-140490790D01*
X217815487Y-140490791D01*
X217759541Y-140546737D01*
X217759535Y-140546745D01*
X217719982Y-140615254D01*
X217719979Y-140615259D01*
X217699500Y-140691689D01*
X217699500Y-142840134D01*
X217679815Y-142907173D01*
X217627011Y-142952928D01*
X217557853Y-142962872D01*
X217494297Y-142933847D01*
X217468113Y-142902135D01*
X217422217Y-142822642D01*
X217400500Y-142785027D01*
X217307314Y-142691841D01*
X217230640Y-142647573D01*
X217193187Y-142625949D01*
X217127901Y-142608456D01*
X217065892Y-142591841D01*
X216934108Y-142591841D01*
X216806812Y-142625949D01*
X216692686Y-142691841D01*
X216692683Y-142691843D01*
X216599502Y-142785024D01*
X216599500Y-142785027D01*
X216533608Y-142899153D01*
X216499500Y-143026449D01*
X216499500Y-143116507D01*
X216479815Y-143183546D01*
X216463181Y-143204188D01*
X216090983Y-143576386D01*
X216029660Y-143609871D01*
X216003302Y-143612705D01*
X215913244Y-143612705D01*
X215785950Y-143646813D01*
X215785949Y-143646813D01*
X215785947Y-143646814D01*
X215785946Y-143646814D01*
X215670038Y-143713734D01*
X215602138Y-143730207D01*
X215536111Y-143707354D01*
X215492920Y-143652433D01*
X215488263Y-143638440D01*
X215466392Y-143556814D01*
X215400500Y-143442686D01*
X215336818Y-143379004D01*
X215303334Y-143317680D01*
X215300500Y-143291323D01*
X215300500Y-140816689D01*
X215300500Y-140816688D01*
X215280021Y-140740261D01*
X215251978Y-140691688D01*
X215240464Y-140671745D01*
X215240458Y-140671737D01*
X214786819Y-140218098D01*
X214753334Y-140156775D01*
X214750500Y-140130417D01*
X214750500Y-140040360D01*
X214750500Y-140040358D01*
X214716392Y-139913064D01*
X214650500Y-139798936D01*
X214557314Y-139705750D01*
X214500250Y-139672804D01*
X214443187Y-139639858D01*
X214379539Y-139622804D01*
X214315892Y-139605750D01*
X214184108Y-139605750D01*
X214056812Y-139639858D01*
X213942686Y-139705750D01*
X213942683Y-139705752D01*
X213849502Y-139798933D01*
X213849500Y-139798936D01*
X213783608Y-139913062D01*
X213760314Y-140000000D01*
X213749500Y-140040358D01*
X213749500Y-140172142D01*
X213759423Y-140209176D01*
X213783608Y-140299437D01*
X213810902Y-140346710D01*
X213849500Y-140413564D01*
X213942686Y-140506750D01*
X214056814Y-140572642D01*
X214184108Y-140606750D01*
X214184110Y-140606750D01*
X214274167Y-140606750D01*
X214341206Y-140626435D01*
X214361848Y-140643069D01*
X214663181Y-140944402D01*
X214696666Y-141005725D01*
X214699500Y-141032083D01*
X214699500Y-143291323D01*
X214679815Y-143358362D01*
X214663182Y-143379004D01*
X214599500Y-143442686D01*
X214533608Y-143556812D01*
X214499500Y-143684108D01*
X214499500Y-143815891D01*
X214533608Y-143943187D01*
X214550382Y-143972239D01*
X214599500Y-144057314D01*
X214692686Y-144150500D01*
X214806814Y-144216392D01*
X214934108Y-144250500D01*
X214934110Y-144250500D01*
X215065890Y-144250500D01*
X215065892Y-144250500D01*
X215193186Y-144216392D01*
X215307314Y-144150500D01*
X215307316Y-144150497D01*
X215309096Y-144149470D01*
X215376996Y-144132997D01*
X215443023Y-144155849D01*
X215486214Y-144210770D01*
X215490872Y-144224763D01*
X215512744Y-144306391D01*
X215578636Y-144420519D01*
X215671822Y-144513705D01*
X215748505Y-144557978D01*
X215776884Y-144574363D01*
X215825100Y-144624930D01*
X215838322Y-144693537D01*
X215812354Y-144758402D01*
X215755440Y-144798930D01*
X215714884Y-144805750D01*
X214960438Y-144805750D01*
X214884010Y-144826228D01*
X214815489Y-144865790D01*
X214815486Y-144865792D01*
X214111847Y-145569431D01*
X214050524Y-145602916D01*
X214024166Y-145605750D01*
X213934108Y-145605750D01*
X213806812Y-145639858D01*
X213692686Y-145705750D01*
X213692683Y-145705752D01*
X213599502Y-145798933D01*
X213599500Y-145798936D01*
X213533608Y-145913062D01*
X213499500Y-146040358D01*
X207900500Y-146040358D01*
X207900500Y-145446789D01*
X207917112Y-145384790D01*
X207966392Y-145299436D01*
X208000500Y-145172142D01*
X208000500Y-145040358D01*
X207966392Y-144913064D01*
X207939099Y-144865792D01*
X207917113Y-144827710D01*
X207900500Y-144765710D01*
X207900500Y-140803524D01*
X207896972Y-140790358D01*
X210499500Y-140790358D01*
X210499500Y-140922142D01*
X210511814Y-140968098D01*
X210533608Y-141049437D01*
X210547504Y-141073505D01*
X210599500Y-141163564D01*
X210599502Y-141163566D01*
X210663181Y-141227245D01*
X210696666Y-141288568D01*
X210699500Y-141314926D01*
X210699500Y-143291323D01*
X210679815Y-143358362D01*
X210663182Y-143379004D01*
X210599500Y-143442686D01*
X210533608Y-143556812D01*
X210499500Y-143684108D01*
X210499500Y-143815891D01*
X210533608Y-143943187D01*
X210550382Y-143972239D01*
X210599500Y-144057314D01*
X210692686Y-144150500D01*
X210806814Y-144216392D01*
X210934108Y-144250500D01*
X210934110Y-144250500D01*
X211065890Y-144250500D01*
X211065892Y-144250500D01*
X211193186Y-144216392D01*
X211307314Y-144150500D01*
X211400500Y-144057314D01*
X211400504Y-144057306D01*
X211401625Y-144055847D01*
X211402892Y-144054921D01*
X211406247Y-144051567D01*
X211406770Y-144052090D01*
X211458053Y-144014645D01*
X211527799Y-144010491D01*
X211588719Y-144044704D01*
X211598375Y-144055847D01*
X211599498Y-144057311D01*
X211599500Y-144057314D01*
X211692686Y-144150500D01*
X211806814Y-144216392D01*
X211934108Y-144250500D01*
X211934110Y-144250500D01*
X212065890Y-144250500D01*
X212065892Y-144250500D01*
X212193186Y-144216392D01*
X212307314Y-144150500D01*
X212400500Y-144057314D01*
X212400504Y-144057306D01*
X212401625Y-144055847D01*
X212402892Y-144054921D01*
X212406247Y-144051567D01*
X212406770Y-144052090D01*
X212458053Y-144014645D01*
X212527799Y-144010491D01*
X212588719Y-144044704D01*
X212598375Y-144055847D01*
X212599498Y-144057311D01*
X212599500Y-144057314D01*
X212692686Y-144150500D01*
X212806814Y-144216392D01*
X212934108Y-144250500D01*
X212934110Y-144250500D01*
X213065890Y-144250500D01*
X213065892Y-144250500D01*
X213193186Y-144216392D01*
X213307314Y-144150500D01*
X213400500Y-144057314D01*
X213466392Y-143943186D01*
X213500500Y-143815892D01*
X213500500Y-143684108D01*
X213466392Y-143556814D01*
X213400500Y-143442686D01*
X213336818Y-143379004D01*
X213303334Y-143317680D01*
X213300500Y-143291323D01*
X213300500Y-142814926D01*
X213320185Y-142747887D01*
X213336819Y-142727245D01*
X213362249Y-142701815D01*
X213400500Y-142663564D01*
X213466392Y-142549436D01*
X213500500Y-142422142D01*
X213500500Y-142290358D01*
X213466392Y-142163064D01*
X213400500Y-142048936D01*
X213307314Y-141955750D01*
X213248402Y-141921737D01*
X213193187Y-141889858D01*
X213103362Y-141865790D01*
X213065892Y-141855750D01*
X212934108Y-141855750D01*
X212806812Y-141889858D01*
X212692686Y-141955750D01*
X212609743Y-142038693D01*
X212548419Y-142072177D01*
X212478728Y-142067193D01*
X212422794Y-142025321D01*
X212398378Y-141959856D01*
X212413230Y-141891584D01*
X212414676Y-141889010D01*
X212432317Y-141858456D01*
X212466392Y-141799436D01*
X212500500Y-141672142D01*
X212500500Y-141540358D01*
X212466392Y-141413064D01*
X212400500Y-141298936D01*
X212307314Y-141205750D01*
X212250250Y-141172804D01*
X212193187Y-141139858D01*
X212129539Y-141122804D01*
X212065892Y-141105750D01*
X211934108Y-141105750D01*
X211806812Y-141139858D01*
X211692686Y-141205750D01*
X211609743Y-141288693D01*
X211548419Y-141322177D01*
X211478728Y-141317193D01*
X211422794Y-141275321D01*
X211398378Y-141209856D01*
X211413230Y-141141584D01*
X211414676Y-141139010D01*
X211466389Y-141049441D01*
X211466388Y-141049441D01*
X211466392Y-141049436D01*
X211500500Y-140922142D01*
X211500500Y-140790358D01*
X211466392Y-140663064D01*
X211400500Y-140548936D01*
X211307314Y-140455750D01*
X211250250Y-140422804D01*
X211193187Y-140389858D01*
X211129539Y-140372804D01*
X211065892Y-140355750D01*
X210934108Y-140355750D01*
X210806812Y-140389858D01*
X210692686Y-140455750D01*
X210692683Y-140455752D01*
X210599502Y-140548933D01*
X210599500Y-140548936D01*
X210533608Y-140663062D01*
X210512925Y-140740254D01*
X210499500Y-140790358D01*
X207896972Y-140790358D01*
X207873207Y-140701663D01*
X207820480Y-140610337D01*
X207745913Y-140535770D01*
X206456571Y-139246428D01*
X206423086Y-139185105D01*
X206428070Y-139115413D01*
X206469942Y-139059480D01*
X206535406Y-139035063D01*
X206560425Y-139036628D01*
X206560472Y-139036153D01*
X206566534Y-139036750D01*
X206566535Y-139036750D01*
X206773466Y-139036750D01*
X206773467Y-139036749D01*
X206976420Y-138996380D01*
X207167598Y-138917191D01*
X207339655Y-138802227D01*
X207485977Y-138655905D01*
X207600941Y-138483848D01*
X207680130Y-138292670D01*
X207720500Y-138089715D01*
X207720500Y-137882785D01*
X207720499Y-137882780D01*
X208159500Y-137882780D01*
X208159500Y-138089719D01*
X208199868Y-138292662D01*
X208199870Y-138292670D01*
X208279058Y-138483846D01*
X208394024Y-138655907D01*
X208540342Y-138802225D01*
X208540345Y-138802227D01*
X208712402Y-138917191D01*
X208903580Y-138996380D01*
X209048052Y-139025117D01*
X209106530Y-139036749D01*
X209106534Y-139036750D01*
X209106535Y-139036750D01*
X209313466Y-139036750D01*
X209313467Y-139036749D01*
X209516420Y-138996380D01*
X209707598Y-138917191D01*
X209879655Y-138802227D01*
X210025977Y-138655905D01*
X210140941Y-138483848D01*
X210220130Y-138292670D01*
X210260500Y-138089715D01*
X210260500Y-137882785D01*
X210260499Y-137882780D01*
X210699500Y-137882780D01*
X210699500Y-138089719D01*
X210739868Y-138292662D01*
X210739870Y-138292670D01*
X210819058Y-138483846D01*
X210934024Y-138655907D01*
X211080342Y-138802225D01*
X211080345Y-138802227D01*
X211252402Y-138917191D01*
X211443580Y-138996380D01*
X211588052Y-139025117D01*
X211646530Y-139036749D01*
X211646534Y-139036750D01*
X211646535Y-139036750D01*
X211853466Y-139036750D01*
X211853467Y-139036749D01*
X212056420Y-138996380D01*
X212247598Y-138917191D01*
X212419655Y-138802227D01*
X212565977Y-138655905D01*
X212680941Y-138483848D01*
X212760130Y-138292670D01*
X212800500Y-138089715D01*
X212800500Y-137882785D01*
X212800499Y-137882780D01*
X213239500Y-137882780D01*
X213239500Y-138089719D01*
X213279868Y-138292662D01*
X213279870Y-138292670D01*
X213359058Y-138483846D01*
X213474024Y-138655907D01*
X213620342Y-138802225D01*
X213620345Y-138802227D01*
X213792402Y-138917191D01*
X213983580Y-138996380D01*
X214128052Y-139025117D01*
X214186530Y-139036749D01*
X214186534Y-139036750D01*
X214186535Y-139036750D01*
X214393466Y-139036750D01*
X214393467Y-139036749D01*
X214596420Y-138996380D01*
X214787598Y-138917191D01*
X214959655Y-138802227D01*
X215105977Y-138655905D01*
X215220941Y-138483848D01*
X215300130Y-138292670D01*
X215340500Y-138089715D01*
X215340500Y-137882785D01*
X215340499Y-137882780D01*
X215779500Y-137882780D01*
X215779500Y-138089719D01*
X215819868Y-138292662D01*
X215819870Y-138292670D01*
X215899058Y-138483846D01*
X216014024Y-138655907D01*
X216160342Y-138802225D01*
X216160345Y-138802227D01*
X216332402Y-138917191D01*
X216523580Y-138996380D01*
X216668052Y-139025117D01*
X216726530Y-139036749D01*
X216726534Y-139036750D01*
X216726535Y-139036750D01*
X216933466Y-139036750D01*
X216933467Y-139036749D01*
X217136420Y-138996380D01*
X217327598Y-138917191D01*
X217499655Y-138802227D01*
X217645977Y-138655905D01*
X217760941Y-138483848D01*
X217840130Y-138292670D01*
X217880500Y-138089715D01*
X217880500Y-137882785D01*
X217840130Y-137679830D01*
X217760941Y-137488652D01*
X217645977Y-137316595D01*
X217645975Y-137316592D01*
X217499657Y-137170274D01*
X217354809Y-137073491D01*
X217327598Y-137055309D01*
X217327593Y-137055307D01*
X217136420Y-136976120D01*
X217136412Y-136976118D01*
X216933469Y-136935750D01*
X216933465Y-136935750D01*
X216726535Y-136935750D01*
X216726530Y-136935750D01*
X216523587Y-136976118D01*
X216523579Y-136976120D01*
X216332403Y-137055308D01*
X216160342Y-137170274D01*
X216014024Y-137316592D01*
X215899058Y-137488653D01*
X215819870Y-137679829D01*
X215819868Y-137679837D01*
X215779500Y-137882780D01*
X215340499Y-137882780D01*
X215300130Y-137679830D01*
X215220941Y-137488652D01*
X215105977Y-137316595D01*
X215105975Y-137316592D01*
X214959657Y-137170274D01*
X214814809Y-137073491D01*
X214787598Y-137055309D01*
X214787593Y-137055307D01*
X214596420Y-136976120D01*
X214596412Y-136976118D01*
X214393469Y-136935750D01*
X214393465Y-136935750D01*
X214186535Y-136935750D01*
X214186530Y-136935750D01*
X213983587Y-136976118D01*
X213983579Y-136976120D01*
X213792403Y-137055308D01*
X213620342Y-137170274D01*
X213474024Y-137316592D01*
X213359058Y-137488653D01*
X213279870Y-137679829D01*
X213279868Y-137679837D01*
X213239500Y-137882780D01*
X212800499Y-137882780D01*
X212760130Y-137679830D01*
X212680941Y-137488652D01*
X212565977Y-137316595D01*
X212565975Y-137316592D01*
X212419657Y-137170274D01*
X212274809Y-137073491D01*
X212247598Y-137055309D01*
X212247593Y-137055307D01*
X212056420Y-136976120D01*
X212056412Y-136976118D01*
X211853469Y-136935750D01*
X211853465Y-136935750D01*
X211646535Y-136935750D01*
X211646530Y-136935750D01*
X211443587Y-136976118D01*
X211443579Y-136976120D01*
X211252403Y-137055308D01*
X211080342Y-137170274D01*
X210934024Y-137316592D01*
X210819058Y-137488653D01*
X210739870Y-137679829D01*
X210739868Y-137679837D01*
X210699500Y-137882780D01*
X210260499Y-137882780D01*
X210220130Y-137679830D01*
X210140941Y-137488652D01*
X210025977Y-137316595D01*
X210025975Y-137316592D01*
X209879657Y-137170274D01*
X209734809Y-137073491D01*
X209707598Y-137055309D01*
X209707593Y-137055307D01*
X209516420Y-136976120D01*
X209516412Y-136976118D01*
X209313469Y-136935750D01*
X209313465Y-136935750D01*
X209106535Y-136935750D01*
X209106530Y-136935750D01*
X208903587Y-136976118D01*
X208903579Y-136976120D01*
X208712403Y-137055308D01*
X208540342Y-137170274D01*
X208394024Y-137316592D01*
X208279058Y-137488653D01*
X208199870Y-137679829D01*
X208199868Y-137679837D01*
X208159500Y-137882780D01*
X207720499Y-137882780D01*
X207680130Y-137679830D01*
X207600941Y-137488652D01*
X207485977Y-137316595D01*
X207485975Y-137316592D01*
X207339657Y-137170274D01*
X207167595Y-137055307D01*
X207047047Y-137005374D01*
X206992643Y-136961532D01*
X206970579Y-136895238D01*
X206970500Y-136890813D01*
X206970500Y-136583926D01*
X206990185Y-136516887D01*
X207042989Y-136471132D01*
X207112147Y-136461188D01*
X207175703Y-136490213D01*
X207182181Y-136496245D01*
X207192686Y-136506750D01*
X207306814Y-136572642D01*
X207434108Y-136606750D01*
X207434110Y-136606750D01*
X207565890Y-136606750D01*
X207565892Y-136606750D01*
X207693186Y-136572642D01*
X207807314Y-136506750D01*
X207900500Y-136413564D01*
X207966392Y-136299436D01*
X208000500Y-136172142D01*
X208000500Y-136040358D01*
X207994539Y-136018111D01*
X207996200Y-135948264D01*
X208026630Y-135898339D01*
X211888149Y-132036818D01*
X211949472Y-132003334D01*
X211975830Y-132000500D01*
X212065888Y-132000500D01*
X212065890Y-132000500D01*
X212193184Y-131966392D01*
X212307312Y-131900500D01*
X212370993Y-131836819D01*
X212432316Y-131803334D01*
X212458674Y-131800500D01*
X216539560Y-131800500D01*
X216539562Y-131800500D01*
X216615989Y-131780021D01*
X216684511Y-131740460D01*
X216740460Y-131684511D01*
X217270897Y-131154072D01*
X217332220Y-131120588D01*
X217401911Y-131125572D01*
X217435170Y-131146946D01*
X217436240Y-131145553D01*
X217442681Y-131150495D01*
X217442686Y-131150500D01*
X217556814Y-131216392D01*
X217684108Y-131250500D01*
X217684110Y-131250500D01*
X217815890Y-131250500D01*
X217815892Y-131250500D01*
X217943186Y-131216392D01*
X218057314Y-131150500D01*
X218150500Y-131057314D01*
X218216392Y-130943186D01*
X218250500Y-130815892D01*
X218250500Y-130684108D01*
X218216392Y-130556814D01*
X218150500Y-130442686D01*
X218057314Y-130349500D01*
X217984246Y-130307314D01*
X217943187Y-130283608D01*
X217879539Y-130266554D01*
X217815892Y-130249500D01*
X217684108Y-130249500D01*
X217556812Y-130283608D01*
X217442686Y-130349500D01*
X217442683Y-130349502D01*
X217379005Y-130413181D01*
X217317682Y-130446666D01*
X217291324Y-130449500D01*
X217210438Y-130449500D01*
X217172224Y-130459739D01*
X217134009Y-130469979D01*
X217099923Y-130489659D01*
X217082879Y-130499500D01*
X217082877Y-130499500D01*
X217082877Y-130499501D01*
X217065492Y-130509537D01*
X217065487Y-130509541D01*
X216411848Y-131163181D01*
X216350525Y-131196666D01*
X216324167Y-131199500D01*
X212458674Y-131199500D01*
X212391635Y-131179815D01*
X212370993Y-131163181D01*
X212307314Y-131099502D01*
X212307312Y-131099500D01*
X212193184Y-131033608D01*
X212162596Y-131025412D01*
X212102938Y-130989047D01*
X212072410Y-130926200D01*
X212080705Y-130856824D01*
X212107009Y-130817960D01*
X215738484Y-127186487D01*
X215799807Y-127153002D01*
X215826165Y-127150168D01*
X216284742Y-127150168D01*
X216351781Y-127169853D01*
X216372423Y-127186487D01*
X216442686Y-127256750D01*
X216556814Y-127322642D01*
X216684108Y-127356750D01*
X216684110Y-127356750D01*
X216815890Y-127356750D01*
X216815892Y-127356750D01*
X216943186Y-127322642D01*
X217057314Y-127256750D01*
X217150500Y-127163564D01*
X217216392Y-127049436D01*
X217250500Y-126922142D01*
X217250500Y-126790358D01*
X217216392Y-126663064D01*
X217216391Y-126663063D01*
X217214524Y-126656093D01*
X217216187Y-126586243D01*
X217255350Y-126528381D01*
X217319578Y-126500877D01*
X217334299Y-126500000D01*
X217750000Y-126500000D01*
X218213681Y-126036319D01*
X218275004Y-126002834D01*
X218301362Y-126000000D01*
X222376000Y-126000000D01*
X222443039Y-126019685D01*
G37*
%TD.AperFunction*%
%TA.AperFunction,Conductor*%
G36*
X195455203Y-138898592D02*
G01*
X195477102Y-138923414D01*
X195515447Y-138980802D01*
X195581769Y-139025117D01*
X195581770Y-139025118D01*
X195640247Y-139036749D01*
X195640250Y-139036750D01*
X195640252Y-139036750D01*
X195985500Y-139036750D01*
X196052539Y-139056435D01*
X196098294Y-139109239D01*
X196109500Y-139160750D01*
X196109500Y-139168977D01*
X196122205Y-139216392D01*
X196136793Y-139270839D01*
X196147603Y-139289562D01*
X196189520Y-139362163D01*
X196504087Y-139676730D01*
X196595412Y-139729457D01*
X196697273Y-139756750D01*
X196802727Y-139756750D01*
X205782745Y-139756750D01*
X205849784Y-139776435D01*
X205870426Y-139793069D01*
X207063181Y-140985824D01*
X207096666Y-141047147D01*
X207099500Y-141073505D01*
X207099500Y-144765710D01*
X207082887Y-144827710D01*
X207033609Y-144913060D01*
X207033609Y-144913061D01*
X207033608Y-144913063D01*
X207033608Y-144913064D01*
X206999500Y-145040358D01*
X206999500Y-145172142D01*
X207033608Y-145299436D01*
X207082887Y-145384790D01*
X207099500Y-145446789D01*
X207099500Y-146482250D01*
X207079815Y-146549289D01*
X207027011Y-146595044D01*
X206975500Y-146606250D01*
X201749999Y-146606250D01*
X200036319Y-148319931D01*
X199974996Y-148353416D01*
X199948638Y-148356250D01*
X191520134Y-148356250D01*
X191453095Y-148336565D01*
X191444896Y-148330801D01*
X191444815Y-148330754D01*
X191444814Y-148330753D01*
X191363422Y-148283761D01*
X191330687Y-148264861D01*
X191267039Y-148247807D01*
X191203392Y-148230753D01*
X191071608Y-148230753D01*
X190944312Y-148264861D01*
X190864506Y-148310937D01*
X190830186Y-148330753D01*
X190830184Y-148330754D01*
X190823148Y-148334817D01*
X190822484Y-148333667D01*
X190765188Y-148355820D01*
X190754866Y-148356250D01*
X188874000Y-148356250D01*
X188806961Y-148336565D01*
X188761206Y-148283761D01*
X188750000Y-148232250D01*
X188750000Y-146356250D01*
X178124500Y-146356250D01*
X178057461Y-146336565D01*
X178011706Y-146283761D01*
X178000500Y-146232250D01*
X178000500Y-140124000D01*
X178020185Y-140056961D01*
X178072989Y-140011206D01*
X178124500Y-140000000D01*
X195250000Y-140000000D01*
X195250000Y-138992305D01*
X195269685Y-138925266D01*
X195322489Y-138879511D01*
X195391647Y-138869567D01*
X195455203Y-138898592D01*
G37*
%TD.AperFunction*%
%TA.AperFunction,Conductor*%
G36*
X246942539Y-140019685D02*
G01*
X246988294Y-140072489D01*
X246999500Y-140124000D01*
X246999500Y-146232250D01*
X246979815Y-146299289D01*
X246927011Y-146345044D01*
X246875500Y-146356250D01*
X242774500Y-146356250D01*
X242707461Y-146336565D01*
X242661706Y-146283761D01*
X242650500Y-146232250D01*
X242650500Y-145474241D01*
X242667112Y-145412242D01*
X242716392Y-145326888D01*
X242750500Y-145199594D01*
X242750500Y-145067810D01*
X242716392Y-144940516D01*
X242650500Y-144826388D01*
X242586818Y-144762706D01*
X242553334Y-144701382D01*
X242550500Y-144675025D01*
X242550500Y-142066689D01*
X242545742Y-142048933D01*
X242530021Y-141990261D01*
X242512467Y-141959856D01*
X242490464Y-141921745D01*
X242490458Y-141921737D01*
X240780402Y-140211681D01*
X240746917Y-140150358D01*
X240751901Y-140080666D01*
X240793773Y-140024733D01*
X240859237Y-140000316D01*
X240868083Y-140000000D01*
X246875500Y-140000000D01*
X246942539Y-140019685D01*
G37*
%TD.AperFunction*%
%TA.AperFunction,Conductor*%
G36*
X216443039Y-125019685D02*
G01*
X216488794Y-125072489D01*
X216500000Y-125124000D01*
X216500000Y-126351068D01*
X216490918Y-126381994D01*
X216483236Y-126413330D01*
X216480820Y-126416386D01*
X216480315Y-126418107D01*
X216476844Y-126421417D01*
X216461351Y-126441019D01*
X216450705Y-126451119D01*
X216442686Y-126455750D01*
X216384430Y-126514005D01*
X216383257Y-126515119D01*
X216353568Y-126530333D01*
X216324265Y-126546334D01*
X216322579Y-126546213D01*
X216321076Y-126546984D01*
X216297906Y-126549168D01*
X215610770Y-126549168D01*
X215534343Y-126569647D01*
X215522943Y-126576229D01*
X215508662Y-126584473D01*
X215465824Y-126609205D01*
X215465819Y-126609209D01*
X206429541Y-135645487D01*
X206429535Y-135645495D01*
X206389982Y-135714004D01*
X206389979Y-135714009D01*
X206369500Y-135790439D01*
X206369500Y-136890813D01*
X206349815Y-136957852D01*
X206297011Y-137003607D01*
X206292953Y-137005374D01*
X206172404Y-137055307D01*
X206000342Y-137170274D01*
X205854024Y-137316592D01*
X205739058Y-137488653D01*
X205659870Y-137679829D01*
X205659868Y-137679837D01*
X205619500Y-137882780D01*
X205619500Y-138089719D01*
X205659868Y-138292662D01*
X205659870Y-138292670D01*
X205739058Y-138483846D01*
X205854024Y-138655907D01*
X205942186Y-138744069D01*
X205975671Y-138805392D01*
X205970687Y-138875084D01*
X205928815Y-138931017D01*
X205863351Y-138955434D01*
X205854505Y-138955750D01*
X204945495Y-138955750D01*
X204878456Y-138936065D01*
X204832701Y-138883261D01*
X204822757Y-138814103D01*
X204851782Y-138750547D01*
X204857814Y-138744069D01*
X204945974Y-138655908D01*
X204945975Y-138655907D01*
X204945977Y-138655905D01*
X205060941Y-138483848D01*
X205140130Y-138292670D01*
X205180500Y-138089715D01*
X205180500Y-137882785D01*
X205140130Y-137679830D01*
X205060941Y-137488652D01*
X204945977Y-137316595D01*
X204945975Y-137316592D01*
X204799657Y-137170274D01*
X204654809Y-137073491D01*
X204627598Y-137055309D01*
X204627593Y-137055307D01*
X204436420Y-136976120D01*
X204436412Y-136976118D01*
X204233469Y-136935750D01*
X204233465Y-136935750D01*
X204026535Y-136935750D01*
X204026530Y-136935750D01*
X203823587Y-136976118D01*
X203823579Y-136976120D01*
X203632403Y-137055308D01*
X203460342Y-137170274D01*
X203314024Y-137316592D01*
X203199058Y-137488653D01*
X203119870Y-137679829D01*
X203119868Y-137679837D01*
X203079500Y-137882780D01*
X203079500Y-138089719D01*
X203119868Y-138292662D01*
X203119870Y-138292670D01*
X203199058Y-138483846D01*
X203314024Y-138655907D01*
X203402186Y-138744069D01*
X203435671Y-138805392D01*
X203430687Y-138875084D01*
X203388815Y-138931017D01*
X203323351Y-138955434D01*
X203314505Y-138955750D01*
X202405495Y-138955750D01*
X202338456Y-138936065D01*
X202292701Y-138883261D01*
X202282757Y-138814103D01*
X202311782Y-138750547D01*
X202317814Y-138744069D01*
X202405974Y-138655908D01*
X202405975Y-138655907D01*
X202405977Y-138655905D01*
X202520941Y-138483848D01*
X202600130Y-138292670D01*
X202640500Y-138089715D01*
X202640500Y-137882785D01*
X202600130Y-137679830D01*
X202520941Y-137488652D01*
X202405977Y-137316595D01*
X202405975Y-137316592D01*
X202259657Y-137170274D01*
X202114809Y-137073491D01*
X202087598Y-137055309D01*
X202087593Y-137055307D01*
X201896420Y-136976120D01*
X201896412Y-136976118D01*
X201693469Y-136935750D01*
X201693465Y-136935750D01*
X201486535Y-136935750D01*
X201486530Y-136935750D01*
X201283587Y-136976118D01*
X201283579Y-136976120D01*
X201092403Y-137055308D01*
X200920342Y-137170274D01*
X200774024Y-137316592D01*
X200659058Y-137488653D01*
X200579870Y-137679829D01*
X200579868Y-137679837D01*
X200539500Y-137882780D01*
X200539500Y-138089719D01*
X200579868Y-138292662D01*
X200579870Y-138292670D01*
X200659058Y-138483846D01*
X200774024Y-138655907D01*
X200862186Y-138744069D01*
X200895671Y-138805392D01*
X200890687Y-138875084D01*
X200848815Y-138931017D01*
X200783351Y-138955434D01*
X200774505Y-138955750D01*
X197684500Y-138955750D01*
X197617461Y-138936065D01*
X197571706Y-138883261D01*
X197560500Y-138831750D01*
X197560500Y-137116499D01*
X197560499Y-137116497D01*
X197548868Y-137058020D01*
X197548867Y-137058019D01*
X197504552Y-136991697D01*
X197482708Y-136977102D01*
X197437903Y-136923490D01*
X197429196Y-136854165D01*
X197459350Y-136791138D01*
X197518793Y-136754418D01*
X197551599Y-136750000D01*
X200500000Y-136750000D01*
X202463681Y-134786319D01*
X202525004Y-134752834D01*
X202551362Y-134750000D01*
X206750000Y-134750000D01*
X208500000Y-133000000D01*
X208500000Y-131124000D01*
X208519685Y-131056961D01*
X208572489Y-131011206D01*
X208624000Y-131000000D01*
X210250000Y-131000000D01*
X211500000Y-129750000D01*
X211500000Y-125124000D01*
X211519685Y-125056961D01*
X211572489Y-125011206D01*
X211624000Y-125000000D01*
X216376000Y-125000000D01*
X216443039Y-125019685D01*
G37*
%TD.AperFunction*%
%TD*%
M02*
