<?xml version="1.0" standalone="no"?>
 <!DOCTYPE svg PUBLIC "-//W3C//DTD SVG 1.1//EN" 
 "http://www.w3.org/Graphics/SVG/1.1/DTD/svg11.dtd"> 
<svg
  xmlns:svg="http://www.w3.org/2000/svg"
  xmlns="http://www.w3.org/2000/svg"
  xmlns:xlink="http://www.w3.org/1999/xlink"
  version="1.1"
  width="279.4000mm" height="215.9000mm" viewBox="0.0000 0.0000 279.4000 215.9000">
<title>SVG Image created as Power_Brick-F_Silkscreen.svg date 2025/12/15 16:30:43 </title>
  <desc>Image generated by PCBNEW </desc>
<g style="fill:#000000; fill-opacity:1.0000;stroke:#000000; stroke-opacity:1.0000;
stroke-linecap:round; stroke-linejoin:round;"
 transform="translate(0 0) scale(1 1)">
</g>
<g style="fill:none; 
stroke:#000000; stroke-width:0.1500; stroke-opacity:1; 
stroke-linecap:round; stroke-linejoin:round;">
<text x="200.7500" y="119.1062"
textLength="2.2024" font-size="1.3333" lengthAdjust="spacingAndGlyphs"
text-anchor="middle" opacity="0" stroke-opacity="0">R4</text>
<g class="stroked-text"><desc>R4</desc>
<path d="M200.5833 119.0611
L200.2500 118.5849
" />
<path d="M200.0119 119.0611
L200.0119 118.0611
" />
<path d="M200.0119 118.0611
L200.3929 118.0611
" />
<path d="M200.3929 118.0611
L200.4881 118.1087
" />
<path d="M200.4881 118.1087
L200.5357 118.1563
" />
<path d="M200.5357 118.1563
L200.5833 118.2515
" />
<path d="M200.5833 118.2515
L200.5833 118.3944
" />
<path d="M200.5833 118.3944
L200.5357 118.4896
" />
<path d="M200.5357 118.4896
L200.4881 118.5373
" />
<path d="M200.4881 118.5373
L200.3929 118.5849
" />
<path d="M200.3929 118.5849
L200.0119 118.5849
" />
<path d="M201.4405 118.3944
L201.4405 119.0611
" />
<path d="M201.2024 118.0134
L200.9643 118.7277
" />
<path d="M200.9643 118.7277
L201.5833 118.7277
" />
</g><text x="224.2500" y="119.1001"
textLength="2.2024" font-size="1.3333" lengthAdjust="spacingAndGlyphs"
text-anchor="middle" opacity="0" stroke-opacity="0">R9</text>
<g class="stroked-text"><desc>R9</desc>
<path d="M224.0833 119.0550
L223.7500 118.5788
" />
<path d="M223.5119 119.0550
L223.5119 118.0550
" />
<path d="M223.5119 118.0550
L223.8929 118.0550
" />
<path d="M223.8929 118.0550
L223.9881 118.1026
" />
<path d="M223.9881 118.1026
L224.0357 118.1502
" />
<path d="M224.0357 118.1502
L224.0833 118.2454
" />
<path d="M224.0833 118.2454
L224.0833 118.3883
" />
<path d="M224.0833 118.3883
L224.0357 118.4835
" />
<path d="M224.0357 118.4835
L223.9881 118.5312
" />
<path d="M223.9881 118.5312
L223.8929 118.5788
" />
<path d="M223.8929 118.5788
L223.5119 118.5788
" />
<path d="M224.5595 119.0550
L224.7500 119.0550
" />
<path d="M224.7500 119.0550
L224.8452 119.0073
" />
<path d="M224.8452 119.0073
L224.8929 118.9597
" />
<path d="M224.8929 118.9597
L224.9881 118.8169
" />
<path d="M224.9881 118.8169
L225.0357 118.6264
" />
<path d="M225.0357 118.6264
L225.0357 118.2454
" />
<path d="M225.0357 118.2454
L224.9881 118.1502
" />
<path d="M224.9881 118.1502
L224.9405 118.1026
" />
<path d="M224.9405 118.1026
L224.8452 118.0550
" />
<path d="M224.8452 118.0550
L224.6548 118.0550
" />
<path d="M224.6548 118.0550
L224.5595 118.1026
" />
<path d="M224.5595 118.1026
L224.5119 118.1502
" />
<path d="M224.5119 118.1502
L224.4643 118.2454
" />
<path d="M224.4643 118.2454
L224.4643 118.4835
" />
<path d="M224.4643 118.4835
L224.5119 118.5788
" />
<path d="M224.5119 118.5788
L224.5595 118.6264
" />
<path d="M224.5595 118.6264
L224.6548 118.6740
" />
<path d="M224.6548 118.6740
L224.8452 118.6740
" />
<path d="M224.8452 118.6740
L224.9405 118.6264
" />
<path d="M224.9405 118.6264
L224.9881 118.5788
" />
<path d="M224.9881 118.5788
L225.0357 118.4835
" />
</g><text x="186.2500" y="118.6062"
textLength="2.2024" font-size="1.3333" lengthAdjust="spacingAndGlyphs"
text-anchor="middle" opacity="0" stroke-opacity="0">C6</text>
<g class="stroked-text"><desc>C6</desc>
<path d="M186.0833 118.4658
L186.0357 118.5134
" />
<path d="M186.0357 118.5134
L185.8929 118.5611
" />
<path d="M185.8929 118.5611
L185.7976 118.5611
" />
<path d="M185.7976 118.5611
L185.6548 118.5134
" />
<path d="M185.6548 118.5134
L185.5595 118.4182
" />
<path d="M185.5595 118.4182
L185.5119 118.3230
" />
<path d="M185.5119 118.3230
L185.4643 118.1325
" />
<path d="M185.4643 118.1325
L185.4643 117.9896
" />
<path d="M185.4643 117.9896
L185.5119 117.7992
" />
<path d="M185.5119 117.7992
L185.5595 117.7039
" />
<path d="M185.5595 117.7039
L185.6548 117.6087
" />
<path d="M185.6548 117.6087
L185.7976 117.5611
" />
<path d="M185.7976 117.5611
L185.8929 117.5611
" />
<path d="M185.8929 117.5611
L186.0357 117.6087
" />
<path d="M186.0357 117.6087
L186.0833 117.6563
" />
<path d="M186.9405 117.5611
L186.7500 117.5611
" />
<path d="M186.7500 117.5611
L186.6548 117.6087
" />
<path d="M186.6548 117.6087
L186.6071 117.6563
" />
<path d="M186.6071 117.6563
L186.5119 117.7992
" />
<path d="M186.5119 117.7992
L186.4643 117.9896
" />
<path d="M186.4643 117.9896
L186.4643 118.3706
" />
<path d="M186.4643 118.3706
L186.5119 118.4658
" />
<path d="M186.5119 118.4658
L186.5595 118.5134
" />
<path d="M186.5595 118.5134
L186.6548 118.5611
" />
<path d="M186.6548 118.5611
L186.8452 118.5611
" />
<path d="M186.8452 118.5611
L186.9405 118.5134
" />
<path d="M186.9405 118.5134
L186.9881 118.4658
" />
<path d="M186.9881 118.4658
L187.0357 118.3706
" />
<path d="M187.0357 118.3706
L187.0357 118.1325
" />
<path d="M187.0357 118.1325
L186.9881 118.0373
" />
<path d="M186.9881 118.0373
L186.9405 117.9896
" />
<path d="M186.9405 117.9896
L186.8452 117.9420
" />
<path d="M186.8452 117.9420
L186.6548 117.9420
" />
<path d="M186.6548 117.9420
L186.5595 117.9896
" />
<path d="M186.5595 117.9896
L186.5119 118.0373
" />
<path d="M186.5119 118.0373
L186.4643 118.1325
" />
</g><text x="186.2500" y="133.1062"
textLength="2.2024" font-size="1.3333" lengthAdjust="spacingAndGlyphs"
text-anchor="middle" opacity="0" stroke-opacity="0">C7</text>
<g class="stroked-text"><desc>C7</desc>
<path d="M186.0833 132.9658
L186.0357 133.0135
" />
<path d="M186.0357 133.0135
L185.8929 133.0611
" />
<path d="M185.8929 133.0611
L185.7976 133.0611
" />
<path d="M185.7976 133.0611
L185.6548 133.0135
" />
<path d="M185.6548 133.0135
L185.5595 132.9182
" />
<path d="M185.5595 132.9182
L185.5119 132.8230
" />
<path d="M185.5119 132.8230
L185.4643 132.6325
" />
<path d="M185.4643 132.6325
L185.4643 132.4896
" />
<path d="M185.4643 132.4896
L185.5119 132.2992
" />
<path d="M185.5119 132.2992
L185.5595 132.2039
" />
<path d="M185.5595 132.2039
L185.6548 132.1087
" />
<path d="M185.6548 132.1087
L185.7976 132.0611
" />
<path d="M185.7976 132.0611
L185.8929 132.0611
" />
<path d="M185.8929 132.0611
L186.0357 132.1087
" />
<path d="M186.0357 132.1087
L186.0833 132.1563
" />
<path d="M186.4167 132.0611
L187.0833 132.0611
" />
<path d="M187.0833 132.0611
L186.6548 133.0611
" />
</g><text x="238.7500" y="133.1062"
textLength="3.1548" font-size="1.3333" lengthAdjust="spacingAndGlyphs"
text-anchor="middle" opacity="0" stroke-opacity="0">C10</text>
<g class="stroked-text"><desc>C10</desc>
<path d="M238.1071 132.9658
L238.0595 133.0135
" />
<path d="M238.0595 133.0135
L237.9167 133.0611
" />
<path d="M237.9167 133.0611
L237.8214 133.0611
" />
<path d="M237.8214 133.0611
L237.6786 133.0135
" />
<path d="M237.6786 133.0135
L237.5833 132.9182
" />
<path d="M237.5833 132.9182
L237.5357 132.8230
" />
<path d="M237.5357 132.8230
L237.4881 132.6325
" />
<path d="M237.4881 132.6325
L237.4881 132.4896
" />
<path d="M237.4881 132.4896
L237.5357 132.2992
" />
<path d="M237.5357 132.2992
L237.5833 132.2039
" />
<path d="M237.5833 132.2039
L237.6786 132.1087
" />
<path d="M237.6786 132.1087
L237.8214 132.0611
" />
<path d="M237.8214 132.0611
L237.9167 132.0611
" />
<path d="M237.9167 132.0611
L238.0595 132.1087
" />
<path d="M238.0595 132.1087
L238.1071 132.1563
" />
<path d="M239.0595 133.0611
L238.4881 133.0611
" />
<path d="M238.7738 133.0611
L238.7738 132.0611
" />
<path d="M238.7738 132.0611
L238.6786 132.2039
" />
<path d="M238.6786 132.2039
L238.5833 132.2992
" />
<path d="M238.5833 132.2992
L238.4881 132.3468
" />
<path d="M239.6786 132.0611
L239.7738 132.0611
" />
<path d="M239.7738 132.0611
L239.8690 132.1087
" />
<path d="M239.8690 132.1087
L239.9167 132.1563
" />
<path d="M239.9167 132.1563
L239.9643 132.2515
" />
<path d="M239.9643 132.2515
L240.0119 132.4420
" />
<path d="M240.0119 132.4420
L240.0119 132.6801
" />
<path d="M240.0119 132.6801
L239.9643 132.8706
" />
<path d="M239.9643 132.8706
L239.9167 132.9658
" />
<path d="M239.9167 132.9658
L239.8690 133.0135
" />
<path d="M239.8690 133.0135
L239.7738 133.0611
" />
<path d="M239.7738 133.0611
L239.6786 133.0611
" />
<path d="M239.6786 133.0611
L239.5833 133.0135
" />
<path d="M239.5833 133.0135
L239.5357 132.9658
" />
<path d="M239.5357 132.9658
L239.4881 132.8706
" />
<path d="M239.4881 132.8706
L239.4405 132.6801
" />
<path d="M239.4405 132.6801
L239.4405 132.4420
" />
<path d="M239.4405 132.4420
L239.4881 132.2515
" />
<path d="M239.4881 132.2515
L239.5357 132.1563
" />
<path d="M239.5357 132.1563
L239.5833 132.1087
" />
<path d="M239.5833 132.1087
L239.6786 132.0611
" />
</g><text x="238.7500" y="118.6062"
textLength="2.2024" font-size="1.3333" lengthAdjust="spacingAndGlyphs"
text-anchor="middle" opacity="0" stroke-opacity="0">C9</text>
<g class="stroked-text"><desc>C9</desc>
<path d="M238.5833 118.4658
L238.5357 118.5134
" />
<path d="M238.5357 118.5134
L238.3929 118.5611
" />
<path d="M238.3929 118.5611
L238.2976 118.5611
" />
<path d="M238.2976 118.5611
L238.1548 118.5134
" />
<path d="M238.1548 118.5134
L238.0595 118.4182
" />
<path d="M238.0595 118.4182
L238.0119 118.3230
" />
<path d="M238.0119 118.3230
L237.9643 118.1325
" />
<path d="M237.9643 118.1325
L237.9643 117.9896
" />
<path d="M237.9643 117.9896
L238.0119 117.7992
" />
<path d="M238.0119 117.7992
L238.0595 117.7039
" />
<path d="M238.0595 117.7039
L238.1548 117.6087
" />
<path d="M238.1548 117.6087
L238.2976 117.5611
" />
<path d="M238.2976 117.5611
L238.3929 117.5611
" />
<path d="M238.3929 117.5611
L238.5357 117.6087
" />
<path d="M238.5357 117.6087
L238.5833 117.6563
" />
<path d="M239.0595 118.5611
L239.2500 118.5611
" />
<path d="M239.2500 118.5611
L239.3452 118.5134
" />
<path d="M239.3452 118.5134
L239.3929 118.4658
" />
<path d="M239.3929 118.4658
L239.4881 118.3230
" />
<path d="M239.4881 118.3230
L239.5357 118.1325
" />
<path d="M239.5357 118.1325
L239.5357 117.7515
" />
<path d="M239.5357 117.7515
L239.4881 117.6563
" />
<path d="M239.4881 117.6563
L239.4405 117.6087
" />
<path d="M239.4405 117.6087
L239.3452 117.5611
" />
<path d="M239.3452 117.5611
L239.1548 117.5611
" />
<path d="M239.1548 117.5611
L239.0595 117.6087
" />
<path d="M239.0595 117.6087
L239.0119 117.6563
" />
<path d="M239.0119 117.6563
L238.9643 117.7515
" />
<path d="M238.9643 117.7515
L238.9643 117.9896
" />
<path d="M238.9643 117.9896
L239.0119 118.0849
" />
<path d="M239.0119 118.0849
L239.0595 118.1325
" />
<path d="M239.0595 118.1325
L239.1548 118.1801
" />
<path d="M239.1548 118.1801
L239.3452 118.1801
" />
<path d="M239.3452 118.1801
L239.4405 118.1325
" />
<path d="M239.4405 118.1325
L239.4881 118.0849
" />
<path d="M239.4881 118.0849
L239.5357 117.9896
" />
</g><g transform="rotate(-90.000000 238.7500 97.2500)">
<text x="238.7500" y="97.7500"
textLength="1.9643" font-size="1.3333" lengthAdjust="spacingAndGlyphs"
text-anchor="middle" opacity="0" stroke-opacity="0">J4</text>
</g>
<g class="stroked-text"><desc>J4</desc>
<path d="M238.2048 97.5833
L238.9191 97.5833
" />
<path d="M238.9191 97.5833
L239.0620 97.6310
" />
<path d="M239.0620 97.6310
L239.1572 97.7262
" />
<path d="M239.1572 97.7262
L239.2048 97.8690
" />
<path d="M239.2048 97.8690
L239.2048 97.9643
" />
<path d="M238.5382 96.6786
L239.2048 96.6786
" />
<path d="M238.1572 96.9167
L238.8715 97.1548
" />
<path d="M238.8715 97.1548
L238.8715 96.5357
" />
</g><g transform="rotate(-90.000000 187.5000 97.5000)">
<text x="187.5000" y="98.0000"
textLength="1.9643" font-size="1.3333" lengthAdjust="spacingAndGlyphs"
text-anchor="middle" opacity="0" stroke-opacity="0">J3</text>
</g>
<g class="stroked-text"><desc>J3</desc>
<path d="M186.9548 97.8333
L187.6691 97.8333
" />
<path d="M187.6691 97.8333
L187.8120 97.8810
" />
<path d="M187.8120 97.8810
L187.9072 97.9762
" />
<path d="M187.9072 97.9762
L187.9548 98.1190
" />
<path d="M187.9548 98.1190
L187.9548 98.2143
" />
<path d="M186.9548 97.4524
L186.9548 96.8333
" />
<path d="M186.9548 96.8333
L187.3358 97.1667
" />
<path d="M187.3358 97.1667
L187.3358 97.0238
" />
<path d="M187.3358 97.0238
L187.3834 96.9286
" />
<path d="M187.3834 96.9286
L187.4310 96.8810
" />
<path d="M187.4310 96.8810
L187.5262 96.8333
" />
<path d="M187.5262 96.8333
L187.7643 96.8333
" />
<path d="M187.7643 96.8333
L187.8596 96.8810
" />
<path d="M187.8596 96.8810
L187.9072 96.9286
" />
<path d="M187.9072 96.9286
L187.9548 97.0238
" />
<path d="M187.9548 97.0238
L187.9548 97.3095
" />
<path d="M187.9548 97.3095
L187.9072 97.4048
" />
<path d="M187.9072 97.4048
L187.8596 97.4524
" />
</g><text x="209.7800" y="102.8937"
textLength="1.9643" font-size="1.3333" lengthAdjust="spacingAndGlyphs"
text-anchor="middle" opacity="0" stroke-opacity="0">J5</text>
<g class="stroked-text"><desc>J5</desc>
<path d="M209.4467 101.8486
L209.4467 102.5629
" />
<path d="M209.4467 102.5629
L209.3990 102.7057
" />
<path d="M209.3990 102.7057
L209.3038 102.8010
" />
<path d="M209.3038 102.8010
L209.1610 102.8486
" />
<path d="M209.1610 102.8486
L209.0657 102.8486
" />
<path d="M210.3990 101.8486
L209.9229 101.8486
" />
<path d="M209.9229 101.8486
L209.8752 102.3248
" />
<path d="M209.8752 102.3248
L209.9229 102.2771
" />
<path d="M209.9229 102.2771
L210.0181 102.2295
" />
<path d="M210.0181 102.2295
L210.2562 102.2295
" />
<path d="M210.2562 102.2295
L210.3514 102.2771
" />
<path d="M210.3514 102.2771
L210.3990 102.3248
" />
<path d="M210.3990 102.3248
L210.4467 102.4200
" />
<path d="M210.4467 102.4200
L210.4467 102.6581
" />
<path d="M210.4467 102.6581
L210.3990 102.7533
" />
<path d="M210.3990 102.7533
L210.3514 102.8010
" />
<path d="M210.3514 102.8010
L210.2562 102.8486
" />
<path d="M210.2562 102.8486
L210.0181 102.8486
" />
<path d="M210.0181 102.8486
L209.9229 102.8010
" />
<path d="M209.9229 102.8010
L209.8752 102.7533
" />
</g><text x="197.0000" y="114.3200"
textLength="1.6020" font-size="0.8533" lengthAdjust="spacingAndGlyphs"
text-anchor="middle" opacity="0" stroke-opacity="0">Q2</text>
<g class="stroked-text"><desc>Q2</desc>
<path d="M196.9390 114.3492
L196.8781 114.3188
" />
<path d="M196.8781 114.3188
L196.8171 114.2578
" />
<path d="M196.8171 114.2578
L196.7257 114.1664
" />
<path d="M196.7257 114.1664
L196.6648 114.1359
" />
<path d="M196.6648 114.1359
L196.6038 114.1359
" />
<path d="M196.6343 114.2883
L196.5733 114.2578
" />
<path d="M196.5733 114.2578
L196.5124 114.1968
" />
<path d="M196.5124 114.1968
L196.4819 114.0749
" />
<path d="M196.4819 114.0749
L196.4819 113.8616
" />
<path d="M196.4819 113.8616
L196.5124 113.7397
" />
<path d="M196.5124 113.7397
L196.5733 113.6788
" />
<path d="M196.5733 113.6788
L196.6343 113.6483
" />
<path d="M196.6343 113.6483
L196.7562 113.6483
" />
<path d="M196.7562 113.6483
L196.8171 113.6788
" />
<path d="M196.8171 113.6788
L196.8781 113.7397
" />
<path d="M196.8781 113.7397
L196.9086 113.8616
" />
<path d="M196.9086 113.8616
L196.9086 114.0749
" />
<path d="M196.9086 114.0749
L196.8781 114.1968
" />
<path d="M196.8781 114.1968
L196.8171 114.2578
" />
<path d="M196.8171 114.2578
L196.7562 114.2883
" />
<path d="M196.7562 114.2883
L196.6343 114.2883
" />
<path d="M197.1524 113.7092
L197.1829 113.6788
" />
<path d="M197.1829 113.6788
L197.2438 113.6483
" />
<path d="M197.2438 113.6483
L197.3962 113.6483
" />
<path d="M197.3962 113.6483
L197.4571 113.6788
" />
<path d="M197.4571 113.6788
L197.4876 113.7092
" />
<path d="M197.4876 113.7092
L197.5181 113.7702
" />
<path d="M197.5181 113.7702
L197.5181 113.8311
" />
<path d="M197.5181 113.8311
L197.4876 113.9226
" />
<path d="M197.4876 113.9226
L197.1219 114.2883
" />
<path d="M197.1219 114.2883
L197.5181 114.2883
" />
</g><text x="179.0000" y="97.7500"
textLength="2.2500" font-size="1.3333" lengthAdjust="spacingAndGlyphs"
text-anchor="middle" opacity="0" stroke-opacity="0">H2</text>
<g class="stroked-text"><desc>H2</desc>
<path d="M178.2381 97.7048
L178.2381 96.7048
" />
<path d="M178.2381 97.1810
L178.8095 97.1810
" />
<path d="M178.8095 97.7048
L178.8095 96.7048
" />
<path d="M179.2381 96.8001
L179.2857 96.7524
" />
<path d="M179.2857 96.7524
L179.3810 96.7048
" />
<path d="M179.3810 96.7048
L179.6190 96.7048
" />
<path d="M179.6190 96.7048
L179.7143 96.7524
" />
<path d="M179.7143 96.7524
L179.7619 96.8001
" />
<path d="M179.7619 96.8001
L179.8095 96.8953
" />
<path d="M179.8095 96.8953
L179.8095 96.9905
" />
<path d="M179.8095 96.9905
L179.7619 97.1334
" />
<path d="M179.7619 97.1334
L179.1905 97.7048
" />
<path d="M179.1905 97.7048
L179.8095 97.7048
" />
</g><text x="246.5000" y="98.2500"
textLength="2.2500" font-size="1.3333" lengthAdjust="spacingAndGlyphs"
text-anchor="middle" opacity="0" stroke-opacity="0">H1</text>
<g class="stroked-text"><desc>H1</desc>
<path d="M245.7381 98.2048
L245.7381 97.2048
" />
<path d="M245.7381 97.6810
L246.3095 97.6810
" />
<path d="M246.3095 98.2048
L246.3095 97.2048
" />
<path d="M247.3095 98.2048
L246.7381 98.2048
" />
<path d="M247.0238 98.2048
L247.0238 97.2048
" />
<path d="M247.0238 97.2048
L246.9286 97.3477
" />
<path d="M246.9286 97.3477
L246.8333 97.4429
" />
<path d="M246.8333 97.4429
L246.7381 97.4905
" />
</g><text x="179.0000" y="153.7500"
textLength="2.2500" font-size="1.3333" lengthAdjust="spacingAndGlyphs"
text-anchor="middle" opacity="0" stroke-opacity="0">H3</text>
<g class="stroked-text"><desc>H3</desc>
<path d="M178.2381 153.7048
L178.2381 152.7048
" />
<path d="M178.2381 153.1810
L178.8095 153.1810
" />
<path d="M178.8095 153.7048
L178.8095 152.7048
" />
<path d="M179.1905 152.7048
L179.8095 152.7048
" />
<path d="M179.8095 152.7048
L179.4762 153.0858
" />
<path d="M179.4762 153.0858
L179.6190 153.0858
" />
<path d="M179.6190 153.0858
L179.7143 153.1334
" />
<path d="M179.7143 153.1334
L179.7619 153.1810
" />
<path d="M179.7619 153.1810
L179.8095 153.2762
" />
<path d="M179.8095 153.2762
L179.8095 153.5143
" />
<path d="M179.8095 153.5143
L179.7619 153.6096
" />
<path d="M179.7619 153.6096
L179.7143 153.6572
" />
<path d="M179.7143 153.6572
L179.6190 153.7048
" />
<path d="M179.6190 153.7048
L179.3333 153.7048
" />
<path d="M179.3333 153.7048
L179.2381 153.6572
" />
<path d="M179.2381 153.6572
L179.1905 153.6096
" />
</g><text x="227.5000" y="114.3200"
textLength="1.6020" font-size="0.8533" lengthAdjust="spacingAndGlyphs"
text-anchor="middle" opacity="0" stroke-opacity="0">Q8</text>
<g class="stroked-text"><desc>Q8</desc>
<path d="M227.4390 114.3492
L227.3781 114.3188
" />
<path d="M227.3781 114.3188
L227.3171 114.2578
" />
<path d="M227.3171 114.2578
L227.2257 114.1664
" />
<path d="M227.2257 114.1664
L227.1648 114.1359
" />
<path d="M227.1648 114.1359
L227.1038 114.1359
" />
<path d="M227.1343 114.2883
L227.0733 114.2578
" />
<path d="M227.0733 114.2578
L227.0124 114.1968
" />
<path d="M227.0124 114.1968
L226.9819 114.0749
" />
<path d="M226.9819 114.0749
L226.9819 113.8616
" />
<path d="M226.9819 113.8616
L227.0124 113.7397
" />
<path d="M227.0124 113.7397
L227.0733 113.6788
" />
<path d="M227.0733 113.6788
L227.1343 113.6483
" />
<path d="M227.1343 113.6483
L227.2562 113.6483
" />
<path d="M227.2562 113.6483
L227.3171 113.6788
" />
<path d="M227.3171 113.6788
L227.3781 113.7397
" />
<path d="M227.3781 113.7397
L227.4086 113.8616
" />
<path d="M227.4086 113.8616
L227.4086 114.0749
" />
<path d="M227.4086 114.0749
L227.3781 114.1968
" />
<path d="M227.3781 114.1968
L227.3171 114.2578
" />
<path d="M227.3171 114.2578
L227.2562 114.2883
" />
<path d="M227.2562 114.2883
L227.1343 114.2883
" />
<path d="M227.7743 113.9226
L227.7133 113.8921
" />
<path d="M227.7133 113.8921
L227.6829 113.8616
" />
<path d="M227.6829 113.8616
L227.6524 113.8007
" />
<path d="M227.6524 113.8007
L227.6524 113.7702
" />
<path d="M227.6524 113.7702
L227.6829 113.7092
" />
<path d="M227.6829 113.7092
L227.7133 113.6788
" />
<path d="M227.7133 113.6788
L227.7743 113.6483
" />
<path d="M227.7743 113.6483
L227.8962 113.6483
" />
<path d="M227.8962 113.6483
L227.9571 113.6788
" />
<path d="M227.9571 113.6788
L227.9876 113.7092
" />
<path d="M227.9876 113.7092
L228.0181 113.7702
" />
<path d="M228.0181 113.7702
L228.0181 113.8007
" />
<path d="M228.0181 113.8007
L227.9876 113.8616
" />
<path d="M227.9876 113.8616
L227.9571 113.8921
" />
<path d="M227.9571 113.8921
L227.8962 113.9226
" />
<path d="M227.8962 113.9226
L227.7743 113.9226
" />
<path d="M227.7743 113.9226
L227.7133 113.9530
" />
<path d="M227.7133 113.9530
L227.6829 113.9835
" />
<path d="M227.6829 113.9835
L227.6524 114.0445
" />
<path d="M227.6524 114.0445
L227.6524 114.1664
" />
<path d="M227.6524 114.1664
L227.6829 114.2273
" />
<path d="M227.6829 114.2273
L227.7133 114.2578
" />
<path d="M227.7133 114.2578
L227.7743 114.2883
" />
<path d="M227.7743 114.2883
L227.8962 114.2883
" />
<path d="M227.8962 114.2883
L227.9571 114.2578
" />
<path d="M227.9571 114.2578
L227.9876 114.2273
" />
<path d="M227.9876 114.2273
L228.0181 114.1664
" />
<path d="M228.0181 114.1664
L228.0181 114.0445
" />
<path d="M228.0181 114.0445
L227.9876 113.9835
" />
<path d="M227.9876 113.9835
L227.9571 113.9530
" />
<path d="M227.9571 113.9530
L227.8962 113.9226
" />
</g><text x="201.7100" y="156.3562"
textLength="1.9643" font-size="1.3333" lengthAdjust="spacingAndGlyphs"
text-anchor="middle" opacity="0" stroke-opacity="0">J1</text>
<g class="stroked-text"><desc>J1</desc>
<path d="M201.3767 155.3111
L201.3767 156.0254
" />
<path d="M201.3767 156.0254
L201.3290 156.1682
" />
<path d="M201.3290 156.1682
L201.2338 156.2635
" />
<path d="M201.2338 156.2635
L201.0910 156.3111
" />
<path d="M201.0910 156.3111
L200.9957 156.3111
" />
<path d="M202.3767 156.3111
L201.8052 156.3111
" />
<path d="M202.0910 156.3111
L202.0910 155.3111
" />
<path d="M202.0910 155.3111
L201.9957 155.4539
" />
<path d="M201.9957 155.4539
L201.9005 155.5492
" />
<path d="M201.9005 155.5492
L201.8052 155.5968
" />
</g><text x="222.2500" y="114.3200"
textLength="1.6020" font-size="0.8533" lengthAdjust="spacingAndGlyphs"
text-anchor="middle" opacity="0" stroke-opacity="0">Q6</text>
<g class="stroked-text"><desc>Q6</desc>
<path d="M222.1890 114.3492
L222.1281 114.3188
" />
<path d="M222.1281 114.3188
L222.0671 114.2578
" />
<path d="M222.0671 114.2578
L221.9757 114.1664
" />
<path d="M221.9757 114.1664
L221.9148 114.1359
" />
<path d="M221.9148 114.1359
L221.8538 114.1359
" />
<path d="M221.8843 114.2883
L221.8233 114.2578
" />
<path d="M221.8233 114.2578
L221.7624 114.1968
" />
<path d="M221.7624 114.1968
L221.7319 114.0749
" />
<path d="M221.7319 114.0749
L221.7319 113.8616
" />
<path d="M221.7319 113.8616
L221.7624 113.7397
" />
<path d="M221.7624 113.7397
L221.8233 113.6788
" />
<path d="M221.8233 113.6788
L221.8843 113.6483
" />
<path d="M221.8843 113.6483
L222.0062 113.6483
" />
<path d="M222.0062 113.6483
L222.0671 113.6788
" />
<path d="M222.0671 113.6788
L222.1281 113.7397
" />
<path d="M222.1281 113.7397
L222.1586 113.8616
" />
<path d="M222.1586 113.8616
L222.1586 114.0749
" />
<path d="M222.1586 114.0749
L222.1281 114.1968
" />
<path d="M222.1281 114.1968
L222.0671 114.2578
" />
<path d="M222.0671 114.2578
L222.0062 114.2883
" />
<path d="M222.0062 114.2883
L221.8843 114.2883
" />
<path d="M222.7071 113.6483
L222.5852 113.6483
" />
<path d="M222.5852 113.6483
L222.5243 113.6788
" />
<path d="M222.5243 113.6788
L222.4938 113.7092
" />
<path d="M222.4938 113.7092
L222.4329 113.8007
" />
<path d="M222.4329 113.8007
L222.4024 113.9226
" />
<path d="M222.4024 113.9226
L222.4024 114.1664
" />
<path d="M222.4024 114.1664
L222.4329 114.2273
" />
<path d="M222.4329 114.2273
L222.4633 114.2578
" />
<path d="M222.4633 114.2578
L222.5243 114.2883
" />
<path d="M222.5243 114.2883
L222.6462 114.2883
" />
<path d="M222.6462 114.2883
L222.7071 114.2578
" />
<path d="M222.7071 114.2578
L222.7376 114.2273
" />
<path d="M222.7376 114.2273
L222.7681 114.1664
" />
<path d="M222.7681 114.1664
L222.7681 114.0140
" />
<path d="M222.7681 114.0140
L222.7376 113.9530
" />
<path d="M222.7376 113.9530
L222.7071 113.9226
" />
<path d="M222.7071 113.9226
L222.6462 113.8921
" />
<path d="M222.6462 113.8921
L222.5243 113.8921
" />
<path d="M222.5243 113.8921
L222.4633 113.9226
" />
<path d="M222.4633 113.9226
L222.4329 113.9530
" />
<path d="M222.4329 113.9530
L222.4024 114.0140
" />
</g><text x="219.5000" y="104.5700"
textLength="1.6020" font-size="0.8533" lengthAdjust="spacingAndGlyphs"
text-anchor="middle" opacity="0" stroke-opacity="0">Q5</text>
<g class="stroked-text"><desc>Q5</desc>
<path d="M219.4390 104.5992
L219.3781 104.5688
" />
<path d="M219.3781 104.5688
L219.3171 104.5078
" />
<path d="M219.3171 104.5078
L219.2257 104.4164
" />
<path d="M219.2257 104.4164
L219.1648 104.3859
" />
<path d="M219.1648 104.3859
L219.1038 104.3859
" />
<path d="M219.1343 104.5383
L219.0733 104.5078
" />
<path d="M219.0733 104.5078
L219.0124 104.4468
" />
<path d="M219.0124 104.4468
L218.9819 104.3249
" />
<path d="M218.9819 104.3249
L218.9819 104.1116
" />
<path d="M218.9819 104.1116
L219.0124 103.9897
" />
<path d="M219.0124 103.9897
L219.0733 103.9288
" />
<path d="M219.0733 103.9288
L219.1343 103.8983
" />
<path d="M219.1343 103.8983
L219.2562 103.8983
" />
<path d="M219.2562 103.8983
L219.3171 103.9288
" />
<path d="M219.3171 103.9288
L219.3781 103.9897
" />
<path d="M219.3781 103.9897
L219.4086 104.1116
" />
<path d="M219.4086 104.1116
L219.4086 104.3249
" />
<path d="M219.4086 104.3249
L219.3781 104.4468
" />
<path d="M219.3781 104.4468
L219.3171 104.5078
" />
<path d="M219.3171 104.5078
L219.2562 104.5383
" />
<path d="M219.2562 104.5383
L219.1343 104.5383
" />
<path d="M219.9876 103.8983
L219.6829 103.8983
" />
<path d="M219.6829 103.8983
L219.6524 104.2030
" />
<path d="M219.6524 104.2030
L219.6829 104.1726
" />
<path d="M219.6829 104.1726
L219.7438 104.1421
" />
<path d="M219.7438 104.1421
L219.8962 104.1421
" />
<path d="M219.8962 104.1421
L219.9571 104.1726
" />
<path d="M219.9571 104.1726
L219.9876 104.2030
" />
<path d="M219.9876 104.2030
L220.0181 104.2640
" />
<path d="M220.0181 104.2640
L220.0181 104.4164
" />
<path d="M220.0181 104.4164
L219.9876 104.4773
" />
<path d="M219.9876 104.4773
L219.9571 104.5078
" />
<path d="M219.9571 104.5078
L219.8962 104.5383
" />
<path d="M219.8962 104.5383
L219.7438 104.5383
" />
<path d="M219.7438 104.5383
L219.6829 104.5078
" />
<path d="M219.6829 104.5078
L219.6524 104.4773
" />
</g><text x="188.0000" y="156.8562"
textLength="1.9643" font-size="1.3333" lengthAdjust="spacingAndGlyphs"
text-anchor="middle" opacity="0" stroke-opacity="0">J6</text>
<g class="stroked-text"><desc>J6</desc>
<path d="M187.6667 155.8111
L187.6667 156.5254
" />
<path d="M187.6667 156.5254
L187.6190 156.6682
" />
<path d="M187.6190 156.6682
L187.5238 156.7635
" />
<path d="M187.5238 156.7635
L187.3810 156.8111
" />
<path d="M187.3810 156.8111
L187.2857 156.8111
" />
<path d="M188.5714 155.8111
L188.3810 155.8111
" />
<path d="M188.3810 155.8111
L188.2857 155.8587
" />
<path d="M188.2857 155.8587
L188.2381 155.9063
" />
<path d="M188.2381 155.9063
L188.1429 156.0492
" />
<path d="M188.1429 156.0492
L188.0952 156.2396
" />
<path d="M188.0952 156.2396
L188.0952 156.6206
" />
<path d="M188.0952 156.6206
L188.1429 156.7158
" />
<path d="M188.1429 156.7158
L188.1905 156.7635
" />
<path d="M188.1905 156.7635
L188.2857 156.8111
" />
<path d="M188.2857 156.8111
L188.4762 156.8111
" />
<path d="M188.4762 156.8111
L188.5714 156.7635
" />
<path d="M188.5714 156.7635
L188.6190 156.7158
" />
<path d="M188.6190 156.7158
L188.6667 156.6206
" />
<path d="M188.6667 156.6206
L188.6667 156.3825
" />
<path d="M188.6667 156.3825
L188.6190 156.2873
" />
<path d="M188.6190 156.2873
L188.5714 156.2396
" />
<path d="M188.5714 156.2396
L188.4762 156.1920
" />
<path d="M188.4762 156.1920
L188.2857 156.1920
" />
<path d="M188.2857 156.1920
L188.1905 156.2396
" />
<path d="M188.1905 156.2396
L188.1429 156.2873
" />
<path d="M188.1429 156.2873
L188.0952 156.3825
" />
</g><g transform="rotate(-90.000000 227.3700 158.8562)">
<text x="227.3700" y="159.3562"
textLength="1.9643" font-size="1.3333" lengthAdjust="spacingAndGlyphs"
text-anchor="middle" opacity="0" stroke-opacity="0">J7</text>
</g>
<g class="stroked-text"><desc>J7</desc>
<path d="M226.8248 159.1896
L227.5391 159.1896
" />
<path d="M227.5391 159.1896
L227.6820 159.2372
" />
<path d="M227.6820 159.2372
L227.7772 159.3324
" />
<path d="M227.7772 159.3324
L227.8248 159.4753
" />
<path d="M227.8248 159.4753
L227.8248 159.5705
" />
<path d="M226.8248 158.8086
L226.8248 158.1420
" />
<path d="M226.8248 158.1420
L227.8248 158.5705
" />
</g><text x="246.5000" y="153.5000"
textLength="2.2500" font-size="1.3333" lengthAdjust="spacingAndGlyphs"
text-anchor="middle" opacity="0" stroke-opacity="0">H4</text>
<g class="stroked-text"><desc>H4</desc>
<path d="M245.7381 153.4548
L245.7381 152.4548
" />
<path d="M245.7381 152.9310
L246.3095 152.9310
" />
<path d="M246.3095 153.4548
L246.3095 152.4548
" />
<path d="M247.2143 152.7882
L247.2143 153.4548
" />
<path d="M246.9762 152.4072
L246.7381 153.1215
" />
<path d="M246.7381 153.1215
L247.3571 153.1215
" />
</g><g transform="rotate(-90.000000 206.5000 125.6062)">
<text x="206.5000" y="126.1062"
textLength="2.2500" font-size="1.3333" lengthAdjust="spacingAndGlyphs"
text-anchor="middle" opacity="0" stroke-opacity="0">U1</text>
</g>
<g class="stroked-text"><desc>U1</desc>
<path d="M205.9548 126.3682
L206.7643 126.3682
" />
<path d="M206.7643 126.3682
L206.8596 126.3205
" />
<path d="M206.8596 126.3205
L206.9072 126.2729
" />
<path d="M206.9072 126.2729
L206.9548 126.1777
" />
<path d="M206.9548 126.1777
L206.9548 125.9872
" />
<path d="M206.9548 125.9872
L206.9072 125.8920
" />
<path d="M206.9072 125.8920
L206.8596 125.8443
" />
<path d="M206.8596 125.8443
L206.7643 125.7967
" />
<path d="M206.7643 125.7967
L205.9548 125.7967
" />
<path d="M206.9548 124.7967
L206.9548 125.3682
" />
<path d="M206.9548 125.0824
L205.9548 125.0824
" />
<path d="M205.9548 125.0824
L206.0977 125.1777
" />
<path d="M206.0977 125.1777
L206.1929 125.2729
" />
<path d="M206.1929 125.2729
L206.2405 125.3682
" />
</g><text x="200.6900" y="131.1962"
textLength="2.2024" font-size="1.3333" lengthAdjust="spacingAndGlyphs"
text-anchor="middle" opacity="0" stroke-opacity="0">D3</text>
<g class="stroked-text"><desc>D3</desc>
<path d="M199.9519 131.1511
L199.9519 130.1511
" />
<path d="M199.9519 130.1511
L200.1900 130.1511
" />
<path d="M200.1900 130.1511
L200.3329 130.1987
" />
<path d="M200.3329 130.1987
L200.4281 130.2939
" />
<path d="M200.4281 130.2939
L200.4757 130.3892
" />
<path d="M200.4757 130.3892
L200.5233 130.5796
" />
<path d="M200.5233 130.5796
L200.5233 130.7225
" />
<path d="M200.5233 130.7225
L200.4757 130.9130
" />
<path d="M200.4757 130.9130
L200.4281 131.0082
" />
<path d="M200.4281 131.0082
L200.3329 131.1034
" />
<path d="M200.3329 131.1034
L200.1900 131.1511
" />
<path d="M200.1900 131.1511
L199.9519 131.1511
" />
<path d="M200.8567 130.1511
L201.4757 130.1511
" />
<path d="M201.4757 130.1511
L201.1424 130.5320
" />
<path d="M201.1424 130.5320
L201.2852 130.5320
" />
<path d="M201.2852 130.5320
L201.3805 130.5796
" />
<path d="M201.3805 130.5796
L201.4281 130.6273
" />
<path d="M201.4281 130.6273
L201.4757 130.7225
" />
<path d="M201.4757 130.7225
L201.4757 130.9606
" />
<path d="M201.4757 130.9606
L201.4281 131.0558
" />
<path d="M201.4281 131.0558
L201.3805 131.1034
" />
<path d="M201.3805 131.1034
L201.2852 131.1511
" />
<path d="M201.2852 131.1511
L200.9995 131.1511
" />
<path d="M200.9995 131.1511
L200.9043 131.1034
" />
<path d="M200.9043 131.1034
L200.8567 131.0558
" />
</g><g transform="rotate(-90.000000 194.1300 137.9862)">
<text x="194.1300" y="138.4862"
textLength="1.9643" font-size="1.3333" lengthAdjust="spacingAndGlyphs"
text-anchor="middle" opacity="0" stroke-opacity="0">J2</text>
</g>
<g class="stroked-text"><desc>J2</desc>
<path d="M193.5848 138.3196
L194.2991 138.3196
" />
<path d="M194.2991 138.3196
L194.4420 138.3672
" />
<path d="M194.4420 138.3672
L194.5372 138.4624
" />
<path d="M194.5372 138.4624
L194.5848 138.6053
" />
<path d="M194.5848 138.6053
L194.5848 138.7005
" />
<path d="M193.6801 137.8910
L193.6324 137.8434
" />
<path d="M193.6324 137.8434
L193.5848 137.7482
" />
<path d="M193.5848 137.7482
L193.5848 137.5101
" />
<path d="M193.5848 137.5101
L193.6324 137.4148
" />
<path d="M193.6324 137.4148
L193.6801 137.3672
" />
<path d="M193.6801 137.3672
L193.7753 137.3196
" />
<path d="M193.7753 137.3196
L193.8705 137.3196
" />
<path d="M193.8705 137.3196
L194.0134 137.3672
" />
<path d="M194.0134 137.3672
L194.5848 137.9386
" />
<path d="M194.5848 137.9386
L194.5848 137.3196
" />
</g><text x="196.0000" y="145.4062"
textLength="2.2500" font-size="1.3333" lengthAdjust="spacingAndGlyphs"
text-anchor="middle" opacity="0" stroke-opacity="0">U2</text>
<g class="stroked-text"><desc>U2</desc>
<path d="M195.2381 144.3611
L195.2381 145.1706
" />
<path d="M195.2381 145.1706
L195.2857 145.2658
" />
<path d="M195.2857 145.2658
L195.3333 145.3134
" />
<path d="M195.3333 145.3134
L195.4286 145.3611
" />
<path d="M195.4286 145.3611
L195.6190 145.3611
" />
<path d="M195.6190 145.3611
L195.7143 145.3134
" />
<path d="M195.7143 145.3134
L195.7619 145.2658
" />
<path d="M195.7619 145.2658
L195.8095 145.1706
" />
<path d="M195.8095 145.1706
L195.8095 144.3611
" />
<path d="M196.2381 144.4563
L196.2857 144.4087
" />
<path d="M196.2857 144.4087
L196.3810 144.3611
" />
<path d="M196.3810 144.3611
L196.6190 144.3611
" />
<path d="M196.6190 144.3611
L196.7143 144.4087
" />
<path d="M196.7143 144.4087
L196.7619 144.4563
" />
<path d="M196.7619 144.4563
L196.8095 144.5515
" />
<path d="M196.8095 144.5515
L196.8095 144.6468
" />
<path d="M196.8095 144.6468
L196.7619 144.7896
" />
<path d="M196.7619 144.7896
L196.1905 145.3611
" />
<path d="M196.1905 145.3611
L196.8095 145.3611
" />
</g><text x="231.0000" y="145.4062"
textLength="2.2500" font-size="1.3333" lengthAdjust="spacingAndGlyphs"
text-anchor="middle" opacity="0" stroke-opacity="0">U3</text>
<g class="stroked-text"><desc>U3</desc>
<path d="M230.2381 144.3611
L230.2381 145.1706
" />
<path d="M230.2381 145.1706
L230.2857 145.2658
" />
<path d="M230.2857 145.2658
L230.3333 145.3134
" />
<path d="M230.3333 145.3134
L230.4286 145.3611
" />
<path d="M230.4286 145.3611
L230.6190 145.3611
" />
<path d="M230.6190 145.3611
L230.7143 145.3134
" />
<path d="M230.7143 145.3134
L230.7619 145.2658
" />
<path d="M230.7619 145.2658
L230.8095 145.1706
" />
<path d="M230.8095 145.1706
L230.8095 144.3611
" />
<path d="M231.1905 144.3611
L231.8095 144.3611
" />
<path d="M231.8095 144.3611
L231.4762 144.7420
" />
<path d="M231.4762 144.7420
L231.6190 144.7420
" />
<path d="M231.6190 144.7420
L231.7143 144.7896
" />
<path d="M231.7143 144.7896
L231.7619 144.8373
" />
<path d="M231.7619 144.8373
L231.8095 144.9325
" />
<path d="M231.8095 144.9325
L231.8095 145.1706
" />
<path d="M231.8095 145.1706
L231.7619 145.2658
" />
<path d="M231.7619 145.2658
L231.7143 145.3134
" />
<path d="M231.7143 145.3134
L231.6190 145.3611
" />
<path d="M231.6190 145.3611
L231.3333 145.3611
" />
<path d="M231.3333 145.3611
L231.2381 145.3134
" />
<path d="M231.2381 145.3134
L231.1905 145.2658
" />
</g><text x="202.5000" y="114.3200"
textLength="1.6020" font-size="0.8533" lengthAdjust="spacingAndGlyphs"
text-anchor="middle" opacity="0" stroke-opacity="0">Q4</text>
<g class="stroked-text"><desc>Q4</desc>
<path d="M202.4390 114.3492
L202.3781 114.3188
" />
<path d="M202.3781 114.3188
L202.3171 114.2578
" />
<path d="M202.3171 114.2578
L202.2257 114.1664
" />
<path d="M202.2257 114.1664
L202.1648 114.1359
" />
<path d="M202.1648 114.1359
L202.1038 114.1359
" />
<path d="M202.1343 114.2883
L202.0733 114.2578
" />
<path d="M202.0733 114.2578
L202.0124 114.1968
" />
<path d="M202.0124 114.1968
L201.9819 114.0749
" />
<path d="M201.9819 114.0749
L201.9819 113.8616
" />
<path d="M201.9819 113.8616
L202.0124 113.7397
" />
<path d="M202.0124 113.7397
L202.0733 113.6788
" />
<path d="M202.0733 113.6788
L202.1343 113.6483
" />
<path d="M202.1343 113.6483
L202.2562 113.6483
" />
<path d="M202.2562 113.6483
L202.3171 113.6788
" />
<path d="M202.3171 113.6788
L202.3781 113.7397
" />
<path d="M202.3781 113.7397
L202.4086 113.8616
" />
<path d="M202.4086 113.8616
L202.4086 114.0749
" />
<path d="M202.4086 114.0749
L202.3781 114.1968
" />
<path d="M202.3781 114.1968
L202.3171 114.2578
" />
<path d="M202.3171 114.2578
L202.2562 114.2883
" />
<path d="M202.2562 114.2883
L202.1343 114.2883
" />
<path d="M202.9571 113.8616
L202.9571 114.2883
" />
<path d="M202.8048 113.6178
L202.6524 114.0749
" />
<path d="M202.6524 114.0749
L203.0486 114.0749
" />
</g><text x="212.5000" y="104.5700"
textLength="1.6020" font-size="0.8533" lengthAdjust="spacingAndGlyphs"
text-anchor="middle" opacity="0" stroke-opacity="0">Q3</text>
<g class="stroked-text"><desc>Q3</desc>
<path d="M212.4390 104.5992
L212.3781 104.5688
" />
<path d="M212.3781 104.5688
L212.3171 104.5078
" />
<path d="M212.3171 104.5078
L212.2257 104.4164
" />
<path d="M212.2257 104.4164
L212.1648 104.3859
" />
<path d="M212.1648 104.3859
L212.1038 104.3859
" />
<path d="M212.1343 104.5383
L212.0733 104.5078
" />
<path d="M212.0733 104.5078
L212.0124 104.4468
" />
<path d="M212.0124 104.4468
L211.9819 104.3249
" />
<path d="M211.9819 104.3249
L211.9819 104.1116
" />
<path d="M211.9819 104.1116
L212.0124 103.9897
" />
<path d="M212.0124 103.9897
L212.0733 103.9288
" />
<path d="M212.0733 103.9288
L212.1343 103.8983
" />
<path d="M212.1343 103.8983
L212.2562 103.8983
" />
<path d="M212.2562 103.8983
L212.3171 103.9288
" />
<path d="M212.3171 103.9288
L212.3781 103.9897
" />
<path d="M212.3781 103.9897
L212.4086 104.1116
" />
<path d="M212.4086 104.1116
L212.4086 104.3249
" />
<path d="M212.4086 104.3249
L212.3781 104.4468
" />
<path d="M212.3781 104.4468
L212.3171 104.5078
" />
<path d="M212.3171 104.5078
L212.2562 104.5383
" />
<path d="M212.2562 104.5383
L212.1343 104.5383
" />
<path d="M212.6219 103.8983
L213.0181 103.8983
" />
<path d="M213.0181 103.8983
L212.8048 104.1421
" />
<path d="M212.8048 104.1421
L212.8962 104.1421
" />
<path d="M212.8962 104.1421
L212.9571 104.1726
" />
<path d="M212.9571 104.1726
L212.9876 104.2030
" />
<path d="M212.9876 104.2030
L213.0181 104.2640
" />
<path d="M213.0181 104.2640
L213.0181 104.4164
" />
<path d="M213.0181 104.4164
L212.9876 104.4773
" />
<path d="M212.9876 104.4773
L212.9571 104.5078
" />
<path d="M212.9571 104.5078
L212.8962 104.5383
" />
<path d="M212.8962 104.5383
L212.7133 104.5383
" />
<path d="M212.7133 104.5383
L212.6524 104.5078
" />
<path d="M212.6524 104.5078
L212.6219 104.4773
" />
</g><text x="237.2500" y="105.0700"
textLength="1.6020" font-size="0.8533" lengthAdjust="spacingAndGlyphs"
text-anchor="middle" opacity="0" stroke-opacity="0">Q7</text>
<g class="stroked-text"><desc>Q7</desc>
<path d="M237.1890 105.0992
L237.1281 105.0688
" />
<path d="M237.1281 105.0688
L237.0671 105.0078
" />
<path d="M237.0671 105.0078
L236.9757 104.9164
" />
<path d="M236.9757 104.9164
L236.9148 104.8859
" />
<path d="M236.9148 104.8859
L236.8538 104.8859
" />
<path d="M236.8843 105.0383
L236.8233 105.0078
" />
<path d="M236.8233 105.0078
L236.7624 104.9468
" />
<path d="M236.7624 104.9468
L236.7319 104.8249
" />
<path d="M236.7319 104.8249
L236.7319 104.6116
" />
<path d="M236.7319 104.6116
L236.7624 104.4897
" />
<path d="M236.7624 104.4897
L236.8233 104.4288
" />
<path d="M236.8233 104.4288
L236.8843 104.3983
" />
<path d="M236.8843 104.3983
L237.0062 104.3983
" />
<path d="M237.0062 104.3983
L237.0671 104.4288
" />
<path d="M237.0671 104.4288
L237.1281 104.4897
" />
<path d="M237.1281 104.4897
L237.1586 104.6116
" />
<path d="M237.1586 104.6116
L237.1586 104.8249
" />
<path d="M237.1586 104.8249
L237.1281 104.9468
" />
<path d="M237.1281 104.9468
L237.0671 105.0078
" />
<path d="M237.0671 105.0078
L237.0062 105.0383
" />
<path d="M237.0062 105.0383
L236.8843 105.0383
" />
<path d="M237.3719 104.3983
L237.7986 104.3983
" />
<path d="M237.7986 104.3983
L237.5243 105.0383
" />
</g><text x="194.7500" y="104.3200"
textLength="1.6020" font-size="0.8533" lengthAdjust="spacingAndGlyphs"
text-anchor="middle" opacity="0" stroke-opacity="0">Q1</text>
<g class="stroked-text"><desc>Q1</desc>
<path d="M194.6890 104.3492
L194.6281 104.3188
" />
<path d="M194.6281 104.3188
L194.5671 104.2578
" />
<path d="M194.5671 104.2578
L194.4757 104.1664
" />
<path d="M194.4757 104.1664
L194.4148 104.1359
" />
<path d="M194.4148 104.1359
L194.3538 104.1359
" />
<path d="M194.3843 104.2883
L194.3233 104.2578
" />
<path d="M194.3233 104.2578
L194.2624 104.1968
" />
<path d="M194.2624 104.1968
L194.2319 104.0749
" />
<path d="M194.2319 104.0749
L194.2319 103.8616
" />
<path d="M194.2319 103.8616
L194.2624 103.7397
" />
<path d="M194.2624 103.7397
L194.3233 103.6788
" />
<path d="M194.3233 103.6788
L194.3843 103.6483
" />
<path d="M194.3843 103.6483
L194.5062 103.6483
" />
<path d="M194.5062 103.6483
L194.5671 103.6788
" />
<path d="M194.5671 103.6788
L194.6281 103.7397
" />
<path d="M194.6281 103.7397
L194.6586 103.8616
" />
<path d="M194.6586 103.8616
L194.6586 104.0749
" />
<path d="M194.6586 104.0749
L194.6281 104.1968
" />
<path d="M194.6281 104.1968
L194.5671 104.2578
" />
<path d="M194.5671 104.2578
L194.5062 104.2883
" />
<path d="M194.5062 104.2883
L194.3843 104.2883
" />
<path d="M195.2681 104.2883
L194.9024 104.2883
" />
<path d="M195.0852 104.2883
L195.0852 103.6483
" />
<path d="M195.0852 103.6483
L195.0243 103.7397
" />
<path d="M195.0243 103.7397
L194.9633 103.8007
" />
<path d="M194.9633 103.8007
L194.9024 103.8311
" />
</g></g>
<g style="fill:none; 
stroke:#000000; stroke-width:0.1524; stroke-opacity:1; 
stroke-linecap:round; stroke-linejoin:round;">
<circle cx="197.7378" cy="123.0959" r="0.0762" /> 
<circle cx="227.2500" cy="123.0959" r="0.0762" /> 
<path d="M193.2223 125.0785
L193.2223 119.2391
" />
<path d="M193.2223 116.9734
L193.2223 111.1339
" />
<path d="M193.2223 111.1339
L179.2777 111.1339
" />
<path d="M179.2777 125.0785
L193.2223 125.0785
" />
<path d="M179.2777 119.2391
L179.2777 125.0785
" />
<path d="M179.2777 111.1339
L179.2777 116.9734
" />
<path d="M193.2223 139.5786
L193.2223 133.7391
" />
<path d="M193.2223 131.4734
L193.2223 125.6339
" />
<path d="M193.2223 125.6339
L179.2777 125.6339
" />
<path d="M179.2777 139.5786
L193.2223 139.5786
" />
<path d="M179.2777 133.7391
L179.2777 139.5786
" />
<path d="M179.2777 125.6339
L179.2777 131.4734
" />
<path d="M231.7777 125.6339
L231.7777 131.4734
" />
<path d="M231.7777 133.7391
L231.7777 139.5786
" />
<path d="M231.7777 139.5786
L245.7223 139.5786
" />
<path d="M245.7223 125.6339
L231.7777 125.6339
" />
<path d="M245.7223 131.4734
L245.7223 125.6339
" />
<path d="M245.7223 139.5786
L245.7223 133.7391
" />
<path d="M231.7777 111.1339
L231.7777 116.9734
" />
<path d="M231.7777 119.2391
L231.7777 125.0785
" />
<path d="M231.7777 125.0785
L245.7223 125.0785
" />
<path d="M245.7223 111.1339
L231.7777 111.1339
" />
<path d="M245.7223 116.9734
L245.7223 111.1339
" />
<path d="M245.7223 125.0785
L245.7223 119.2391
" />
</g>
<g style="fill:none; 
stroke:#000000; stroke-width:0.1200; stroke-opacity:1; 
stroke-linecap:round; stroke-linejoin:round;">
<path d="M189.5147 148.3212
L189.7303 148.3212
" />
<path d="M189.5147 149.0412
L189.7303 149.0412
" />
</g>
<g style="fill:none; 
stroke:#000000; stroke-width:0.1270; stroke-opacity:1; 
stroke-linecap:round; stroke-linejoin:round;">
<path d="M194.7500 110.9102
L194.7500 111.3702
" />
<path d="M199.7500 111.3702
L199.7500 110.9102
" />
</g>
<g style="fill:none; 
stroke:#000000; stroke-width:0.2000; stroke-opacity:1; 
stroke-linecap:round; stroke-linejoin:round;">
<circle cx="195.0275" cy="113.7338" r="0.1000" /> 
</g>
<g style="fill:none; 
stroke:#000000; stroke-width:0.1524; stroke-opacity:1; 
stroke-linecap:round; stroke-linejoin:round;">
<path d="M203.6215 151.0448
L203.6215 149.3176
" />
<path d="M203.8755 149.0636
L205.3995 149.0636
" />
<path d="M203.8755 151.2988
L205.3995 151.2988
" />
<path d="M205.6535 149.3176
L205.6535 151.0448
" />
<path d="M203.8755 149.0636 A0.2540 0.2540 0.0 0 0 203.6215 149.3176" />
<path d="M203.6215 151.0448 A0.2540 0.2540 0.0 0 0 203.8755 151.2988" />
<path d="M205.6535 149.3176 A0.2540 0.2540 0.0 0 0 205.3995 149.0636" />
<path d="M205.3995 151.2988 A0.2540 0.2540 0.0 0 0 205.6535 151.0448" />
</g>
<g style="fill:none; 
stroke:#000000; stroke-width:0.1200; stroke-opacity:1; 
stroke-linecap:round; stroke-linejoin:round;">
<path d="M237.4740 149.2537
L237.1667 149.2537
" />
<path d="M237.4740 150.0137
L237.1667 150.0137
" />
<path d="M226.6904 144.5273
L226.6904 144.2201
" />
<path d="M227.4504 144.5273
L227.4504 144.2201
" />
<path d="M196.0511 154.3012
L195.7439 154.3012
" />
<path d="M196.0511 155.0613
L195.7439 155.0613
" />
<path d="M202.5411 150.3012
L202.2339 150.3012
" />
<path d="M202.5411 151.0613
L202.2339 151.0613
" />
<path d="M199.5075 144.5849
L199.5075 144.2776
" />
<path d="M200.2675 144.5849
L200.2675 144.2776
" />
<path d="M206.2400 128.4968
L206.2400 128.2157
" />
<path d="M207.2600 128.4968
L207.2600 128.2157
" />
<path d="M205.6200 123.2599
L205.6200 122.9526
" />
<path d="M206.3800 123.2599
L206.3800 122.9526
" />
<path d="M224.4167 149.2537
L224.7240 149.2537
" />
<path d="M224.4167 150.0137
L224.7240 150.0137
" />
<path d="M202.5411 149.3012
L202.2339 149.3012
" />
<path d="M202.5411 150.0613
L202.2339 150.0613
" />
<path d="M210.3900 128.9641
L210.3900 128.7484
" />
<path d="M211.1100 128.9641
L211.1100 128.7484
" />
<path d="M218.6200 123.2599
L218.6200 122.9526
" />
<path d="M219.3800 123.2599
L219.3800 122.9526
" />
<path d="M225.7104 150.2415
L225.7104 150.0259
" />
<path d="M226.4304 150.2415
L226.4304 150.0259
" />
<path d="M237.4282 151.2737
L237.2125 151.2737
" />
<path d="M237.4282 151.9937
L237.2125 151.9937
" />
<path d="M227.6904 144.5273
L227.6904 144.2201
" />
<path d="M228.4504 144.5273
L228.4504 144.2201
" />
<path d="M202.4953 151.3212
L202.2797 151.3212
" />
<path d="M202.4953 152.0412
L202.2797 152.0412
" />
<path d="M200.5075 144.5849
L200.5075 144.2776
" />
<path d="M201.2675 144.5849
L201.2675 144.2776
" />
<path d="M230.9404 153.2973
L230.9404 152.9901
" />
<path d="M231.7004 153.2973
L231.7004 152.9901
" />
<path d="M211.3700 129.0099
L211.3700 128.7026
" />
<path d="M212.1300 129.0099
L212.1300 128.7026
" />
</g>
<g style="fill:none; 
stroke:#000000; stroke-width:0.1270; stroke-opacity:1; 
stroke-linecap:round; stroke-linejoin:round;">
<path d="M225.2500 110.9102
L225.2500 111.3702
" />
<path d="M230.2500 111.3702
L230.2500 110.9102
" />
</g>
<g style="fill:none; 
stroke:#000000; stroke-width:0.2000; stroke-opacity:1; 
stroke-linecap:round; stroke-linejoin:round;">
<circle cx="225.5275" cy="113.7338" r="0.1000" /> 
</g>
<g style="fill:none; 
stroke:#000000; stroke-width:0.1200; stroke-opacity:1; 
stroke-linecap:round; stroke-linejoin:round;">
<path d="M208.6400 128.9641
L208.6400 128.7484
" />
<path d="M209.3600 128.9641
L209.3600 128.7484
" />
</g>
<g style="fill:none; 
stroke:#000000; stroke-width:0.1524; stroke-opacity:1; 
stroke-linecap:round; stroke-linejoin:round;">
<path d="M186.3715 151.0448
L186.3715 149.3176
" />
<path d="M188.1495 149.0636
L186.6255 149.0636
" />
<path d="M188.1495 151.2988
L186.6255 151.2988
" />
<path d="M188.4035 149.3176
L188.4035 151.0448
" />
<path d="M186.6255 149.0636 A0.2540 0.2540 0.0 0 0 186.3715 149.3176" />
<path d="M186.3715 151.0448 A0.2540 0.2540 0.0 0 0 186.6255 151.2988" />
<path d="M188.4035 149.3176 A0.2540 0.2540 0.0 0 0 188.1495 149.0636" />
<path d="M188.1495 151.2988 A0.2540 0.2540 0.0 0 0 188.4035 151.0448" />
</g>
<g style="fill:none; 
stroke:#000000; stroke-width:0.1200; stroke-opacity:1; 
stroke-linecap:round; stroke-linejoin:round;">
<path d="M203.0600 128.7026
L203.0600 129.0099
" />
<path d="M203.8200 128.7026
L203.8200 129.0099
" />
<path d="M204.3700 129.0099
L204.3700 128.7026
" />
<path d="M205.1300 129.0099
L205.1300 128.7026
" />
<path d="M186.3906 108.5962
L186.1094 108.5962
" />
<path d="M186.3906 109.6162
L186.1094 109.6162
" />
<path d="M189.4689 149.3012
L189.7761 149.3012
" />
<path d="M189.4689 150.0613
L189.7761 150.0613
" />
<path d="M207.6400 128.7484
L207.6400 128.9641
" />
<path d="M208.3600 128.7484
L208.3600 128.9641
" />
<path d="M200.3300 160.2362
L200.3300 158.8562
" />
<path d="M201.7100 160.2362
L200.3300 160.2362
" />
<path d="M202.9800 157.4762
L225.9500 157.4762
" />
<path d="M202.9800 160.2362
L202.9800 157.4762
" />
<path d="M202.9800 160.2362
L225.9500 160.2362
" />
<path d="M225.9500 160.2362
L225.9500 157.4762
" />
<path d="M194.0275 153.2891
L194.0275 153.0734
" />
<path d="M194.7475 153.2891
L194.7475 153.0734
" />
<path d="M234.4404 144.5373
L234.4404 144.2301
" />
<path d="M235.2004 144.5373
L235.2004 144.2301
" />
<path d="M228.9604 153.2415
L228.9604 153.0259
" />
<path d="M229.6804 153.2415
L229.6804 153.0259
" />
<path d="M237.4740 150.2537
L237.1667 150.2537
" />
<path d="M237.4740 151.0137
L237.1667 151.0137
" />
<path d="M219.8700 122.9526
L219.8700 123.2599
" />
<path d="M220.6300 122.9526
L220.6300 123.2599
" />
<path d="M230.9482 151.2737
L230.7325 151.2737
" />
<path d="M230.9482 151.9937
L230.7325 151.9937
" />
<path d="M189.5147 151.3212
L189.7303 151.3212
" />
<path d="M189.5147 152.0412
L189.7303 152.0412
" />
</g>
<g style="fill:none; 
stroke:#000000; stroke-width:0.1270; stroke-opacity:1; 
stroke-linecap:round; stroke-linejoin:round;">
<path d="M219.2500 110.9102
L219.2500 111.3702
" />
<path d="M224.2500 111.3702
L224.2500 110.9102
" />
</g>
<g style="fill:none; 
stroke:#000000; stroke-width:0.2000; stroke-opacity:1; 
stroke-linecap:round; stroke-linejoin:round;">
<circle cx="219.5275" cy="113.7338" r="0.1000" /> 
</g>
<g style="fill:none; 
stroke:#000000; stroke-width:0.1270; stroke-opacity:1; 
stroke-linecap:round; stroke-linejoin:round;">
<path d="M213.2500 105.3422
L213.2500 105.8023
" />
<path d="M218.2500 105.8023
L218.2500 105.3422
" />
</g>
<g style="fill:none; 
stroke:#000000; stroke-width:0.2000; stroke-opacity:1; 
stroke-linecap:round; stroke-linejoin:round;">
<circle cx="217.9725" cy="102.9787" r="0.1000" /> 
</g>
<g style="fill:none; 
stroke:#000000; stroke-width:0.1200; stroke-opacity:1; 
stroke-linecap:round; stroke-linejoin:round;">
<path d="M195.9953 151.3212
L195.7797 151.3212
" />
<path d="M195.9953 152.0412
L195.7797 152.0412
" />
<path d="M186.6975 160.2362
L186.6975 158.8562
" />
<path d="M188.0775 160.2362
L186.6975 160.2362
" />
<path d="M189.3475 157.4762
L197.0775 157.4762
" />
<path d="M189.3475 160.2362
L189.3475 157.4762
" />
<path d="M189.3475 160.2362
L197.0775 160.2362
" />
<path d="M197.0775 160.2362
L197.0775 157.4762
" />
<path d="M216.6200 129.0099
L216.6200 128.7026
" />
<path d="M217.3800 129.0099
L217.3800 128.7026
" />
</g>
<g style="fill:none; 
stroke:#000000; stroke-width:0.1524; stroke-opacity:1; 
stroke-linecap:round; stroke-linejoin:round;">
<path d="M238.7865 151.0473
L238.7865 149.3201
" />
<path d="M239.0405 149.0661
L240.5645 149.0661
" />
<path d="M239.0405 151.3013
L240.5645 151.3013
" />
<path d="M240.8185 149.3201
L240.8185 151.0473
" />
<path d="M239.0405 149.0661 A0.2540 0.2540 0.0 0 0 238.7865 149.3201" />
<path d="M238.7865 151.0473 A0.2540 0.2540 0.0 0 0 239.0405 151.3013" />
<path d="M240.8185 149.3201 A0.2540 0.2540 0.0 0 0 240.5645 149.0661" />
<path d="M240.5645 151.3013 A0.2540 0.2540 0.0 0 0 240.8185 151.0473" />
</g>
<g style="fill:none; 
stroke:#000000; stroke-width:0.1200; stroke-opacity:1; 
stroke-linecap:round; stroke-linejoin:round;">
<path d="M237.2580 147.1374
L237.4737 147.1374
" />
<path d="M237.2580 147.8574
L237.4737 147.8574
" />
<path d="M228.3700 160.2362
L228.3700 158.8562
" />
<path d="M229.7500 160.2362
L228.3700 160.2362
" />
<path d="M231.0200 157.4762
L238.7500 157.4762
" />
<path d="M231.0200 160.2362
L231.0200 157.4762
" />
<path d="M231.0200 160.2362
L238.7500 160.2362
" />
<path d="M238.7500 160.2362
L238.7500 157.4762
" />
</g>
<g style="fill:none; 
stroke:#000000; stroke-width:0.1524; stroke-opacity:1; 
stroke-linecap:round; stroke-linejoin:round;">
<path d="M221.3044 150.9973
L221.3044 149.2701
" />
<path d="M223.0824 149.0161
L221.5584 149.0161
" />
<path d="M223.0824 151.2513
L221.5584 151.2513
" />
<path d="M223.3364 149.2701
L223.3364 150.9973
" />
<path d="M221.5584 149.0161 A0.2540 0.2540 0.0 0 0 221.3044 149.2701" />
<path d="M221.3044 150.9973 A0.2540 0.2540 0.0 0 0 221.5584 151.2513" />
<path d="M223.3364 149.2701 A0.2540 0.2540 0.0 0 0 223.0824 149.0161" />
<path d="M223.0824 151.2513 A0.2540 0.2540 0.0 0 0 223.3364 150.9973" />
</g>
<g style="fill:none; 
stroke:#000000; stroke-width:0.2000; stroke-opacity:1; 
stroke-linecap:round; stroke-linejoin:round;">
<path d="M207.6000 126.2062
L207.6000 120.7562
" />
<path d="M217.4000 124.4562
L217.4000 120.7562
" />
</g>
<g style="fill:none; 
stroke:#000000; stroke-width:0.1200; stroke-opacity:1; 
stroke-linecap:round; stroke-linejoin:round;">
<path d="M195.0075 153.3349
L195.0075 153.0276
" />
<path d="M195.7675 153.3349
L195.7675 153.0276
" />
<path d="M202.7000 127.9962
L199.4400 127.9962
" />
<path d="M202.7000 129.6962
L199.4400 129.6962
" />
<path d="M202.7000 129.6962
L202.7000 127.9962
" />
<path d="M197.0275 153.2891
L197.0275 153.0734
" />
<path d="M197.7475 153.2891
L197.7475 153.0734
" />
<path d="M202.2797 147.1612
L202.4953 147.1612
" />
<path d="M202.2797 147.8812
L202.4953 147.8812
" />
<path d="M195.1300 139.3662
L195.1300 137.9862
" />
<path d="M196.5100 139.3662
L195.1300 139.3662
" />
<path d="M197.7800 136.6062
L218.2100 136.6062
" />
<path d="M197.7800 139.3662
L197.7800 136.6062
" />
<path d="M197.7800 139.3662
L218.2100 139.3662
" />
<path d="M218.2100 139.3662
L218.2100 136.6062
" />
<path d="M193.6900 145.6213
L198.3100 145.6213
" />
<path d="M198.3100 151.0913
L193.6900 151.0913
" />
<path style="fill:#000000; fill-opacity:1.0000; 
stroke:#000000; stroke-width:0.1200; stroke-opacity:1; 
stroke-linecap:round; stroke-linejoin:round;fill-rule:evenodd;"
d="M 192.1400,146.0762
191.8100,146.3162
191.8100,145.8363
Z" /> 
</g>
<g style="fill:none; 
stroke:#000000; stroke-width:0.1524; stroke-opacity:1; 
stroke-linecap:round; stroke-linejoin:round;">
<path d="M186.3715 148.6385
L186.3715 146.9112
" />
<path d="M188.1495 146.6573
L186.6255 146.6573
" />
<path d="M188.1495 148.8924
L186.6255 148.8924
" />
<path d="M188.4035 146.9112
L188.4035 148.6385
" />
<path d="M186.6255 146.6573 A0.2540 0.2540 0.0 0 0 186.3715 146.9112" />
<path d="M186.3715 148.6385 A0.2540 0.2540 0.0 0 0 186.6255 148.8924" />
<path d="M188.4035 146.9112 A0.2540 0.2540 0.0 0 0 188.1495 146.6573" />
<path d="M188.1495 148.8924 A0.2540 0.2540 0.0 0 0 188.4035 148.6385" />
</g>
<g style="fill:none; 
stroke:#000000; stroke-width:0.1200; stroke-opacity:1; 
stroke-linecap:round; stroke-linejoin:round;">
<path d="M235.4404 144.5373
L235.4404 144.2301
" />
<path d="M236.2004 144.5373
L236.2004 144.2301
" />
<path d="M202.4953 148.3212
L202.2797 148.3212
" />
<path d="M202.4953 149.0412
L202.2797 149.0412
" />
<path d="M233.4404 144.5373
L233.4404 144.2301
" />
<path d="M234.2004 144.5373
L234.2004 144.2301
" />
<path d="M237.4282 145.5237
L237.2125 145.5237
" />
<path d="M237.4282 146.2437
L237.2125 146.2437
" />
<path d="M238.6094 108.5962
L238.8906 108.5962
" />
<path d="M238.6094 109.6162
L238.8906 109.6162
" />
</g>
<g style="fill:none; 
stroke:#000000; stroke-width:0.1524; stroke-opacity:1; 
stroke-linecap:round; stroke-linejoin:round;">
<path d="M221.3044 148.4973
L221.3044 146.7701
" />
<path d="M223.0824 146.5161
L221.5584 146.5161
" />
<path d="M223.0824 148.7513
L221.5584 148.7513
" />
<path d="M223.3364 146.7701
L223.3364 148.4973
" />
<path d="M221.5584 146.5161 A0.2540 0.2540 0.0 0 0 221.3044 146.7701" />
<path d="M221.3044 148.4973 A0.2540 0.2540 0.0 0 0 221.5584 148.7513" />
<path d="M223.3364 146.7701 A0.2540 0.2540 0.0 0 0 223.0824 146.5161" />
<path d="M223.0824 148.7513 A0.2540 0.2540 0.0 0 0 223.3364 148.4973" />
</g>
<g style="fill:none; 
stroke:#000000; stroke-width:0.1200; stroke-opacity:1; 
stroke-linecap:round; stroke-linejoin:round;">
<path d="M230.9740 154.2537
L230.6667 154.2537
" />
<path d="M230.9740 155.0137
L230.6667 155.0137
" />
<path d="M191.6775 144.5849
L191.6775 144.2776
" />
<path d="M192.4375 144.5849
L192.4375 144.2776
" />
<path d="M229.9404 153.2873
L229.9404 152.9801
" />
<path d="M230.7004 153.2873
L230.7004 152.9801
" />
<path d="M228.6900 145.6213
L233.3100 145.6213
" />
<path d="M233.3100 151.0913
L228.6900 151.0913
" />
<path style="fill:#000000; fill-opacity:1.0000; 
stroke:#000000; stroke-width:0.1200; stroke-opacity:1; 
stroke-linecap:round; stroke-linejoin:round;fill-rule:evenodd;"
d="M 227.1400,146.0762
226.8100,146.3162
226.8100,145.8363
Z" /> 
</g>
<g style="fill:none; 
stroke:#000000; stroke-width:0.1270; stroke-opacity:1; 
stroke-linecap:round; stroke-linejoin:round;">
<path d="M200.7500 110.9102
L200.7500 111.3702
" />
<path d="M205.7500 111.3702
L205.7500 110.9102
" />
</g>
<g style="fill:none; 
stroke:#000000; stroke-width:0.2000; stroke-opacity:1; 
stroke-linecap:round; stroke-linejoin:round;">
<circle cx="201.0275" cy="113.7338" r="0.1000" /> 
</g>
<g style="fill:none; 
stroke:#000000; stroke-width:0.1200; stroke-opacity:1; 
stroke-linecap:round; stroke-linejoin:round;">
<path d="M202.4953 145.5712
L202.2797 145.5712
" />
<path d="M202.4953 146.2912
L202.2797 146.2912
" />
<path d="M224.4425 148.2737
L224.6582 148.2737
" />
<path d="M224.4425 148.9937
L224.6582 148.9937
" />
<path d="M198.5075 144.5849
L198.5075 144.2776
" />
<path d="M199.2675 144.5849
L199.2675 144.2776
" />
<path d="M224.4825 151.2737
L224.6982 151.2737
" />
<path d="M224.4825 151.9937
L224.6982 151.9937
" />
</g>
<g style="fill:none; 
stroke:#000000; stroke-width:0.1270; stroke-opacity:1; 
stroke-linecap:round; stroke-linejoin:round;">
<path d="M206.7500 105.3422
L206.7500 105.8023
" />
<path d="M211.7500 105.8023
L211.7500 105.3422
" />
</g>
<g style="fill:none; 
stroke:#000000; stroke-width:0.2000; stroke-opacity:1; 
stroke-linecap:round; stroke-linejoin:round;">
<circle cx="211.4725" cy="102.9787" r="0.1000" /> 
</g>
<g style="fill:none; 
stroke:#000000; stroke-width:0.1270; stroke-opacity:1; 
stroke-linecap:round; stroke-linejoin:round;">
<path d="M231.2500 105.3422
L231.2500 105.8023
" />
<path d="M236.2500 105.8023
L236.2500 105.3422
" />
</g>
<g style="fill:none; 
stroke:#000000; stroke-width:0.2000; stroke-opacity:1; 
stroke-linecap:round; stroke-linejoin:round;">
<circle cx="235.9725" cy="102.9787" r="0.1000" /> 
</g>
<g style="fill:none; 
stroke:#000000; stroke-width:0.1200; stroke-opacity:1; 
stroke-linecap:round; stroke-linejoin:round;">
<path d="M218.5000 121.7562
L219.5000 121.7562
" />
<path d="M196.0075 153.3349
L196.0075 153.0276
" />
<path d="M196.7675 153.3349
L196.7675 153.0276
" />
<path d="M192.7575 144.5849
L192.7575 144.2776
" />
<path d="M193.5175 144.5849
L193.5175 144.2776
" />
<path d="M206.5000 118.9937
L205.5000 118.9937
" />
<path d="M235.4604 150.0259
L235.4604 150.2415
" />
<path d="M236.1804 150.0259
L236.1804 150.2415
" />
<path d="M190.7625 150.2891
L190.7625 150.0734
" />
<path d="M191.4825 150.2891
L191.4825 150.0734
" />
<path d="M200.5177 150.1232
L200.5177 150.3389
" />
<path d="M201.2377 150.1232
L201.2377 150.3389
" />
<path d="M231.9604 153.2415
L231.9604 153.0259
" />
<path d="M232.6804 153.2415
L232.6804 153.0259
" />
<path d="M189.4689 150.3012
L189.7761 150.3012
" />
<path d="M189.4689 151.0613
L189.7761 151.0613
" />
<path d="M204.3900 122.9784
L204.3900 123.1941
" />
<path d="M205.1100 122.9784
L205.1100 123.1941
" />
<path d="M237.4282 148.2737
L237.2125 148.2737
" />
<path d="M237.4282 148.9937
L237.2125 148.9937
" />
</g>
<g style="fill:none; 
stroke:#000000; stroke-width:0.2032; stroke-opacity:1; 
stroke-linecap:round; stroke-linejoin:round;">
<path d="M219.7100 128.5962
L219.7100 126.0862
" />
<path d="M220.7100 124.8162
L223.7900 124.8162
" />
<path d="M223.7900 129.8962
L220.7100 129.8962
" />
<path d="M224.7900 126.1162
L224.7900 128.5962
" />
<circle cx="222.2500" cy="127.3562" r="1.2700" /> 
</g>
<g style="fill:none; 
stroke:#000000; stroke-width:0.1200; stroke-opacity:1; 
stroke-linecap:round; stroke-linejoin:round;">
<path d="M224.4167 150.2644
L224.7240 150.2644
" />
<path d="M224.4167 151.0244
L224.7240 151.0244
" />
</g>
<g style="fill:none; 
stroke:#000000; stroke-width:0.1270; stroke-opacity:1; 
stroke-linecap:round; stroke-linejoin:round;">
<path d="M188.7500 105.3422
L188.7500 105.8023
" />
<path d="M193.7500 105.8023
L193.7500 105.3422
" />
</g>
<g style="fill:none; 
stroke:#000000; stroke-width:0.2000; stroke-opacity:1; 
stroke-linecap:round; stroke-linejoin:round;">
<circle cx="193.4725" cy="102.9787" r="0.1000" /> 
</g> 
</svg>
