%FSAX25Y25*%
%MOIN*%
G70*
G01*
G75*
G04 Layer_Color=8388736*
%ADD10R,0.05402X0.02795*%
%ADD11R,0.02323X0.02795*%
%ADD12R,0.05512X0.08268*%
%ADD13O,0.08268X0.01772*%
%ADD14O,0.00945X0.02362*%
%ADD15O,0.02362X0.00945*%
%ADD16R,0.11024X0.11024*%
%ADD17O,0.06693X0.01378*%
%ADD18R,0.01000X0.01000*%
%ADD19R,0.04724X0.04724*%
%ADD20C,0.03937*%
%ADD21R,0.06299X0.08268*%
%ADD22R,0.07480X0.07087*%
%ADD23R,0.07480X0.07480*%
%ADD24R,0.05315X0.01575*%
%ADD25R,0.05906X0.13780*%
%ADD26R,0.04331X0.10236*%
%ADD27R,0.08000X0.04500*%
%ADD28R,0.05512X0.04331*%
%ADD29R,0.03347X0.03150*%
%ADD30R,0.01969X0.02362*%
%ADD31R,0.03150X0.03347*%
%ADD32R,0.04331X0.05512*%
%ADD33C,0.01000*%
%ADD34C,0.03000*%
%ADD35C,0.02000*%
%ADD36C,0.00800*%
%ADD37R,0.15157X0.17795*%
%ADD38C,0.07087*%
%ADD39R,0.07087X0.07087*%
%ADD40C,0.06000*%
%ADD41C,0.02500*%
%ADD42C,0.31496*%
%ADD43R,0.05906X0.05906*%
%ADD44C,0.05906*%
%ADD45C,0.08700*%
%ADD46C,0.06200*%
%ADD47R,0.06200X0.06200*%
%ADD48R,0.06496X0.06496*%
%ADD49C,0.06496*%
%ADD50R,0.05906X0.05906*%
%ADD51R,0.03740X0.03740*%
%ADD52C,0.03740*%
%ADD53R,0.05315X0.05315*%
%ADD54C,0.05315*%
%ADD55R,0.07087X0.07087*%
%ADD56C,0.02000*%
%ADD57C,0.00600*%
%ADD58C,0.00700*%
%ADD59C,0.01575*%
%ADD60C,0.02362*%
%ADD61C,0.00984*%
%ADD62C,0.00787*%
%ADD63C,0.00799*%
%ADD64C,0.01800*%
%ADD65C,0.01500*%
%ADD66C,0.00500*%
%ADD67R,0.03937X0.01969*%
%ADD68R,0.08661X0.04331*%
%ADD69R,0.03150X0.01575*%
%ADD70R,0.07874X0.01575*%
%ADD71R,0.01969X0.03937*%
%ADD72R,0.05095X0.02937*%
%ADD73R,0.04221X0.02213*%
%ADD74R,0.03016X0.02000*%
%ADD75R,0.04839X0.04839*%
%ADD76C,0.00000*%
%ADD77R,0.05795X0.03189*%
%ADD78R,0.02717X0.03189*%
%ADD79R,0.05906X0.08661*%
%ADD80O,0.08819X0.02323*%
%ADD81O,0.01339X0.02756*%
%ADD82O,0.02756X0.01339*%
%ADD83R,0.11417X0.11417*%
%ADD84O,0.07087X0.01772*%
%ADD85R,0.05118X0.05118*%
%ADD86C,0.07874*%
%ADD87R,0.06693X0.08661*%
%ADD88R,0.07874X0.07480*%
%ADD89R,0.07874X0.07874*%
%ADD90R,0.05709X0.01969*%
%ADD91R,0.06299X0.14173*%
%ADD92R,0.04724X0.10630*%
%ADD93R,0.08400X0.04900*%
%ADD94R,0.05906X0.04724*%
%ADD95R,0.03740X0.03543*%
%ADD96R,0.02362X0.02756*%
%ADD97R,0.03543X0.03740*%
%ADD98R,0.04724X0.05906*%
%ADD99R,0.15551X0.18189*%
%ADD100C,0.07480*%
%ADD101R,0.07480X0.07480*%
%ADD102C,0.06394*%
%ADD103C,0.02894*%
%ADD104C,0.31890*%
%ADD105R,0.06299X0.06299*%
%ADD106C,0.06299*%
%ADD107C,0.09094*%
%ADD108C,0.06594*%
%ADD109R,0.06594X0.06594*%
%ADD110R,0.06299X0.06299*%
%ADD111R,0.04134X0.04134*%
%ADD112C,0.04134*%
%ADD113R,0.05709X0.05709*%
%ADD114C,0.05709*%
%ADD115C,0.02394*%
G54D23*
X0401700Y0253058D02*
D03*
G54D33*
X0497200Y0080717D02*
Y0101050D01*
X0413200Y0080717D02*
Y0101050D01*
X0040000Y0080717D02*
X0700200D01*
X0040000Y0060383D02*
X0700000D01*
X0040000Y0040050D02*
X0440500D01*
X0040050Y0101050D02*
X0700200D01*
X0040050Y0040050D02*
Y0101050D01*
Y0040050D02*
X0197600D01*
X0040000D02*
Y0101050D01*
X0286500Y0040050D02*
Y0101050D01*
X0700200Y0040050D02*
Y0101050D01*
X0440500Y0040050D02*
X0700200D01*
X0559400Y0039400D02*
Y0059683D01*
G54D36*
X0126900Y0073549D02*
X0130899D01*
X0128899D01*
Y0067551D01*
X0133898D02*
X0135897D01*
X0136897Y0068550D01*
Y0070550D01*
X0135897Y0071549D01*
X0133898D01*
X0132898Y0070550D01*
Y0068550D01*
X0133898Y0067551D01*
X0138896Y0065551D02*
Y0071549D01*
X0141895D01*
X0142895Y0070550D01*
Y0068550D01*
X0141895Y0067551D01*
X0138896D01*
X0154891Y0072549D02*
X0153891Y0073549D01*
X0151892D01*
X0150892Y0072549D01*
Y0071549D01*
X0151892Y0070550D01*
X0153891D01*
X0154891Y0069550D01*
Y0068550D01*
X0153891Y0067551D01*
X0151892D01*
X0150892Y0068550D01*
X0157890Y0067551D02*
X0159889D01*
X0160889Y0068550D01*
Y0070550D01*
X0159889Y0071549D01*
X0157890D01*
X0156890Y0070550D01*
Y0068550D01*
X0157890Y0067551D01*
X0162888D02*
X0164888D01*
X0163888D01*
Y0073549D01*
X0162888D01*
X0171885D02*
Y0067551D01*
X0168886D01*
X0167887Y0068550D01*
Y0070550D01*
X0168886Y0071549D01*
X0171885D01*
X0176884Y0067551D02*
X0174884D01*
X0173885Y0068550D01*
Y0070550D01*
X0174884Y0071549D01*
X0176884D01*
X0177884Y0070550D01*
Y0069550D01*
X0173885D01*
X0179883Y0071549D02*
Y0067551D01*
Y0069550D01*
X0180883Y0070550D01*
X0181882Y0071549D01*
X0182882D01*
X0126900Y0073549D02*
X0130899D01*
X0128899D01*
Y0067551D01*
X0133898D02*
X0135897D01*
X0136897Y0068550D01*
Y0070550D01*
X0135897Y0071549D01*
X0133898D01*
X0132898Y0070550D01*
Y0068550D01*
X0133898Y0067551D01*
X0138896Y0065551D02*
Y0071549D01*
X0141895D01*
X0142895Y0070550D01*
Y0068550D01*
X0141895Y0067551D01*
X0138896D01*
X0154891Y0072549D02*
X0153891Y0073549D01*
X0151892D01*
X0150892Y0072549D01*
Y0071549D01*
X0151892Y0070550D01*
X0153891D01*
X0154891Y0069550D01*
Y0068550D01*
X0153891Y0067551D01*
X0151892D01*
X0150892Y0068550D01*
X0157890Y0067551D02*
X0159889D01*
X0160889Y0068550D01*
Y0070550D01*
X0159889Y0071549D01*
X0157890D01*
X0156890Y0070550D01*
Y0068550D01*
X0157890Y0067551D01*
X0162888D02*
X0164888D01*
X0163888D01*
Y0073549D01*
X0162888D01*
X0171885D02*
Y0067551D01*
X0168886D01*
X0167887Y0068550D01*
Y0070550D01*
X0168886Y0071549D01*
X0171885D01*
X0176884Y0067551D02*
X0174884D01*
X0173885Y0068550D01*
Y0070550D01*
X0174884Y0071549D01*
X0176884D01*
X0177884Y0070550D01*
Y0069550D01*
X0173885D01*
X0179883Y0071549D02*
Y0067551D01*
Y0069550D01*
X0180883Y0070550D01*
X0181882Y0071549D01*
X0182882D01*
X0567400Y0087833D02*
Y0093831D01*
X0571399Y0087833D01*
Y0093831D01*
X0574398Y0087833D02*
X0576397D01*
X0577397Y0088833D01*
Y0090832D01*
X0576397Y0091832D01*
X0574398D01*
X0573398Y0090832D01*
Y0088833D01*
X0574398Y0087833D01*
X0580396Y0092832D02*
Y0091832D01*
X0579396D01*
X0581395D01*
X0580396D01*
Y0088833D01*
X0581395Y0087833D01*
X0590393Y0093831D02*
X0592392D01*
X0591392D01*
Y0087833D01*
X0590393D01*
X0592392D01*
X0595391D02*
Y0091832D01*
X0598390D01*
X0599390Y0090832D01*
Y0087833D01*
X0607387Y0093831D02*
Y0089833D01*
X0609386Y0087833D01*
X0611386Y0089833D01*
Y0093831D01*
X0616384Y0087833D02*
X0614385D01*
X0613385Y0088833D01*
Y0090832D01*
X0614385Y0091832D01*
X0616384D01*
X0617384Y0090832D01*
Y0089833D01*
X0613385D01*
X0619383Y0091832D02*
Y0087833D01*
Y0089833D01*
X0620383Y0090832D01*
X0621383Y0091832D01*
X0622382D01*
X0625381Y0087833D02*
X0628380D01*
X0629380Y0088833D01*
X0628380Y0089833D01*
X0626381D01*
X0625381Y0090832D01*
X0626381Y0091832D01*
X0629380D01*
X0631379Y0087833D02*
X0633379D01*
X0632379D01*
Y0091832D01*
X0631379D01*
X0637377Y0087833D02*
X0639377D01*
X0640376Y0088833D01*
Y0090832D01*
X0639377Y0091832D01*
X0637377D01*
X0636378Y0090832D01*
Y0088833D01*
X0637377Y0087833D01*
X0642376D02*
Y0091832D01*
X0645375D01*
X0646374Y0090832D01*
Y0087833D01*
X0652373Y0092832D02*
X0651373Y0093831D01*
X0649373D01*
X0648374Y0092832D01*
Y0088833D01*
X0649373Y0087833D01*
X0651373D01*
X0652373Y0088833D01*
X0655372Y0087833D02*
X0657371D01*
X0658371Y0088833D01*
Y0090832D01*
X0657371Y0091832D01*
X0655372D01*
X0654372Y0090832D01*
Y0088833D01*
X0655372Y0087833D01*
X0660370D02*
Y0091832D01*
X0663369D01*
X0664369Y0090832D01*
Y0087833D01*
X0667368Y0092832D02*
Y0091832D01*
X0666368D01*
X0668367D01*
X0667368D01*
Y0088833D01*
X0668367Y0087833D01*
X0671366Y0091832D02*
Y0087833D01*
Y0089833D01*
X0672366Y0090832D01*
X0673366Y0091832D01*
X0674365D01*
X0678364Y0087833D02*
X0680364D01*
X0681363Y0088833D01*
Y0090832D01*
X0680364Y0091832D01*
X0678364D01*
X0677364Y0090832D01*
Y0088833D01*
X0678364Y0087833D01*
X0683362D02*
X0685362D01*
X0684362D01*
Y0093831D01*
X0683362D01*
X0520799Y0092832D02*
X0519799Y0093831D01*
X0517800D01*
X0516800Y0092832D01*
Y0091832D01*
X0517800Y0090832D01*
X0519799D01*
X0520799Y0089833D01*
Y0088833D01*
X0519799Y0087833D01*
X0517800D01*
X0516800Y0088833D01*
X0522798Y0093831D02*
Y0089833D01*
X0524797Y0087833D01*
X0526797Y0089833D01*
Y0093831D01*
X0528796Y0087833D02*
Y0093831D01*
X0532795Y0087833D01*
Y0093831D01*
X0540792Y0087833D02*
Y0093831D01*
X0543791D01*
X0544791Y0092832D01*
Y0090832D01*
X0543791Y0089833D01*
X0540792D01*
X0542792D02*
X0544791Y0087833D01*
X0550789Y0093831D02*
X0546790D01*
Y0087833D01*
X0550789D01*
X0546790Y0090832D02*
X0548790D01*
X0552788Y0093831D02*
Y0089833D01*
X0554788Y0087833D01*
X0556787Y0089833D01*
Y0093831D01*
X0558786Y0091832D02*
X0559786D01*
Y0090832D01*
X0558786D01*
Y0091832D01*
Y0088833D02*
X0559786D01*
Y0087833D01*
X0558786D01*
Y0088833D01*
X0433000Y0087833D02*
Y0093831D01*
X0435999D01*
X0436999Y0092832D01*
Y0090832D01*
X0435999Y0089833D01*
X0433000D01*
X0434999D02*
X0436999Y0087833D01*
X0442997Y0093831D02*
X0438998D01*
Y0087833D01*
X0442997D01*
X0438998Y0090832D02*
X0440997D01*
X0444996Y0093831D02*
Y0089833D01*
X0446995Y0087833D01*
X0448995Y0089833D01*
Y0093831D01*
X0450994Y0091832D02*
X0451994D01*
Y0090832D01*
X0450994D01*
Y0091832D01*
Y0088833D02*
X0451994D01*
Y0087833D01*
X0450994D01*
Y0088833D01*
X0126900Y0052965D02*
Y0046966D01*
X0129899D01*
X0130899Y0047966D01*
Y0051965D01*
X0129899Y0052965D01*
X0126900D01*
X0132898Y0046966D02*
Y0052965D01*
X0135897D01*
X0136897Y0051965D01*
Y0049966D01*
X0135897Y0048966D01*
X0132898D01*
X0134897D02*
X0136897Y0046966D01*
X0138896Y0052965D02*
Y0048966D01*
X0140895Y0046966D01*
X0142895Y0048966D01*
Y0052965D01*
X0144894Y0051965D02*
X0145894Y0052965D01*
X0147893D01*
X0148893Y0051965D01*
Y0050965D01*
X0147893Y0049966D01*
X0148893Y0048966D01*
Y0047966D01*
X0147893Y0046966D01*
X0145894D01*
X0144894Y0047966D01*
Y0048966D01*
X0145894Y0049966D01*
X0144894Y0050965D01*
Y0051965D01*
X0145894Y0049966D02*
X0147893D01*
X0150892Y0052965D02*
X0154891D01*
Y0051965D01*
X0150892Y0047966D01*
Y0046966D01*
X0156890Y0051965D02*
X0157890Y0052965D01*
X0159889D01*
X0160889Y0051965D01*
Y0047966D01*
X0159889Y0046966D01*
X0157890D01*
X0156890Y0047966D01*
Y0051965D01*
X0162888Y0046966D02*
X0164888D01*
X0163888D01*
Y0052965D01*
X0162888Y0051965D01*
X0171885Y0052965D02*
X0167887D01*
Y0046966D01*
X0171885D01*
X0167887Y0049966D02*
X0169886D01*
X0173885Y0052965D02*
Y0048966D01*
X0175884Y0046966D01*
X0177884Y0048966D01*
Y0052965D01*
X0179883Y0046966D02*
Y0052965D01*
X0181882Y0050965D01*
X0183882Y0052965D01*
Y0046966D01*
X0185881D02*
Y0047966D01*
X0186881D01*
Y0046966D01*
X0185881D01*
X0194878Y0051965D02*
X0193878Y0052965D01*
X0191879D01*
X0190879Y0051965D01*
Y0047966D01*
X0191879Y0046966D01*
X0193878D01*
X0194878Y0047966D01*
Y0049966D01*
X0192879D01*
X0196877Y0052965D02*
X0200876D01*
X0198877D01*
Y0046966D01*
X0206874Y0051965D02*
X0205874Y0052965D01*
X0203875D01*
X0202875Y0051965D01*
Y0050965D01*
X0203875Y0049966D01*
X0205874D01*
X0206874Y0048966D01*
Y0047966D01*
X0205874Y0046966D01*
X0203875D01*
X0202875Y0047966D01*
X0385149Y0046966D02*
X0381150D01*
X0385149Y0050965D01*
Y0051965D01*
X0384149Y0052965D01*
X0382150D01*
X0381150Y0051965D01*
X0387148Y0046966D02*
X0391147Y0050965D01*
X0393146Y0046966D02*
X0395146D01*
X0394146D01*
Y0052965D01*
X0393146Y0051965D01*
X0398145D02*
X0399144Y0052965D01*
X0401144D01*
X0402143Y0051965D01*
Y0047966D01*
X0401144Y0046966D01*
X0399144D01*
X0398145Y0047966D01*
Y0051965D01*
X0404143Y0046966D02*
X0408141Y0050965D01*
X0414139Y0046966D02*
X0410141D01*
X0414139Y0050965D01*
Y0051965D01*
X0413140Y0052965D01*
X0411140D01*
X0410141Y0051965D01*
X0416139D02*
X0417138Y0052965D01*
X0419138D01*
X0420137Y0051965D01*
Y0047966D01*
X0419138Y0046966D01*
X0417138D01*
X0416139Y0047966D01*
Y0051965D01*
X0422137Y0046966D02*
X0424136D01*
X0423136D01*
Y0052965D01*
X0422137Y0051965D01*
X0431134Y0052965D02*
X0427135D01*
Y0049966D01*
X0429135Y0050965D01*
X0430134D01*
X0431134Y0049966D01*
Y0047966D01*
X0430134Y0046966D01*
X0428135D01*
X0427135Y0047966D01*
X0298199Y0051965D02*
X0297199Y0052965D01*
X0295200D01*
X0294200Y0051965D01*
Y0047966D01*
X0295200Y0046966D01*
X0297199D01*
X0298199Y0047966D01*
Y0049966D01*
X0296199D01*
X0304197Y0052965D02*
X0300198D01*
Y0046966D01*
X0304197D01*
X0300198Y0049966D02*
X0302197D01*
X0306196Y0046966D02*
Y0052965D01*
X0310195Y0046966D01*
Y0052965D01*
X0316193D02*
X0312194D01*
Y0046966D01*
X0316193D01*
X0312194Y0049966D02*
X0314194D01*
X0318192Y0046966D02*
Y0052965D01*
X0321191D01*
X0322191Y0051965D01*
Y0049966D01*
X0321191Y0048966D01*
X0318192D01*
X0320192D02*
X0322191Y0046966D01*
X0324190D02*
Y0050965D01*
X0326190Y0052965D01*
X0328189Y0050965D01*
Y0046966D01*
Y0049966D01*
X0324190D01*
X0330188Y0052965D02*
X0334187D01*
X0332188D01*
Y0046966D01*
X0340185Y0052965D02*
X0336186D01*
Y0046966D01*
X0340185D01*
X0336186Y0049966D02*
X0338186D01*
X0342184Y0052965D02*
Y0046966D01*
X0345183D01*
X0346183Y0047966D01*
Y0051965D01*
X0345183Y0052965D01*
X0342184D01*
X0372175Y0050965D02*
X0373175D01*
Y0049966D01*
X0372175D01*
Y0050965D01*
Y0047966D02*
X0373175D01*
Y0046966D01*
X0372175D01*
Y0047966D01*
X0046350Y0087833D02*
Y0091832D01*
X0048349Y0093831D01*
X0050349Y0091832D01*
Y0087833D01*
Y0090832D01*
X0046350D01*
X0052348Y0093831D02*
Y0087833D01*
X0056347D01*
X0058346Y0093831D02*
Y0087833D01*
X0062345D01*
X0070342D02*
Y0091832D01*
X0072342Y0093831D01*
X0074341Y0091832D01*
Y0087833D01*
Y0090832D01*
X0070342D01*
X0076340Y0087833D02*
Y0093831D01*
X0079339D01*
X0080339Y0092832D01*
Y0090832D01*
X0079339Y0089833D01*
X0076340D01*
X0078340D02*
X0080339Y0087833D01*
X0082338Y0093831D02*
X0086337D01*
X0084338D01*
Y0087833D01*
X0088336Y0093831D02*
Y0087833D01*
X0090336Y0089833D01*
X0092335Y0087833D01*
Y0093831D01*
X0097334D02*
X0095334D01*
X0094335Y0092832D01*
Y0088833D01*
X0095334Y0087833D01*
X0097334D01*
X0098333Y0088833D01*
Y0092832D01*
X0097334Y0093831D01*
X0100332Y0087833D02*
Y0093831D01*
X0103332D01*
X0104331Y0092832D01*
Y0090832D01*
X0103332Y0089833D01*
X0100332D01*
X0102332D02*
X0104331Y0087833D01*
X0106331Y0093831D02*
Y0087833D01*
Y0089833D01*
X0110329Y0093831D01*
X0107330Y0090832D01*
X0110329Y0087833D01*
X0118327Y0093831D02*
Y0089833D01*
X0120326Y0087833D01*
X0122325Y0089833D01*
Y0093831D01*
X0124325D02*
X0126324D01*
X0125324D01*
Y0087833D01*
X0124325D01*
X0126324D01*
X0133322Y0093831D02*
X0129323D01*
Y0087833D01*
X0133322D01*
X0129323Y0090832D02*
X0131323D01*
X0135321Y0093831D02*
Y0087833D01*
X0137321Y0089833D01*
X0139320Y0087833D01*
Y0093831D01*
X0145318D02*
X0141319D01*
Y0087833D01*
X0145318D01*
X0141319Y0090832D02*
X0143319D01*
X0147317Y0093831D02*
Y0087833D01*
X0150316D01*
X0151316Y0088833D01*
Y0092832D01*
X0150316Y0093831D01*
X0147317D01*
X0163312D02*
X0159313D01*
Y0090832D01*
X0161313D01*
X0159313D01*
Y0087833D01*
X0165312D02*
Y0093831D01*
X0168310D01*
X0169310Y0092832D01*
Y0090832D01*
X0168310Y0089833D01*
X0165312D01*
X0167311D02*
X0169310Y0087833D01*
X0174309Y0093831D02*
X0172309D01*
X0171310Y0092832D01*
Y0088833D01*
X0172309Y0087833D01*
X0174309D01*
X0175308Y0088833D01*
Y0092832D01*
X0174309Y0093831D01*
X0177308Y0087833D02*
Y0093831D01*
X0179307Y0091832D01*
X0181306Y0093831D01*
Y0087833D01*
X0189304Y0093831D02*
X0193303D01*
X0191303D01*
Y0087833D01*
X0198301Y0093831D02*
X0196301D01*
X0195302Y0092832D01*
Y0088833D01*
X0196301Y0087833D01*
X0198301D01*
X0199301Y0088833D01*
Y0092832D01*
X0198301Y0093831D01*
X0201300Y0087833D02*
Y0093831D01*
X0204299D01*
X0205299Y0092832D01*
Y0090832D01*
X0204299Y0089833D01*
X0201300D01*
X0217295Y0092832D02*
X0216295Y0093831D01*
X0214296D01*
X0213296Y0092832D01*
Y0091832D01*
X0214296Y0090832D01*
X0216295D01*
X0217295Y0089833D01*
Y0088833D01*
X0216295Y0087833D01*
X0214296D01*
X0213296Y0088833D01*
X0219294Y0093831D02*
X0221293D01*
X0220294D01*
Y0087833D01*
X0219294D01*
X0221293D01*
X0224292Y0093831D02*
Y0087833D01*
X0227291D01*
X0228291Y0088833D01*
Y0092832D01*
X0227291Y0093831D01*
X0224292D01*
X0234289D02*
X0230291D01*
Y0087833D01*
X0234289D01*
X0230291Y0090832D02*
X0232290D01*
X0462150Y0087833D02*
Y0091832D01*
X0464149Y0093831D01*
X0466149Y0091832D01*
Y0087833D01*
Y0090832D01*
X0462150D01*
X0348550Y0093831D02*
Y0087833D01*
X0351549D01*
X0352549Y0088833D01*
Y0092832D01*
X0351549Y0093831D01*
X0348550D01*
X0354548Y0087833D02*
Y0093831D01*
X0357547D01*
X0358547Y0092832D01*
Y0090832D01*
X0357547Y0089833D01*
X0354548D01*
X0356547D02*
X0358547Y0087833D01*
X0360546Y0093831D02*
Y0089833D01*
X0362545Y0087833D01*
X0364545Y0089833D01*
Y0093831D01*
X0366544Y0092832D02*
X0367544Y0093831D01*
X0369543D01*
X0370543Y0092832D01*
Y0091832D01*
X0369543Y0090832D01*
X0370543Y0089833D01*
Y0088833D01*
X0369543Y0087833D01*
X0367544D01*
X0366544Y0088833D01*
Y0089833D01*
X0367544Y0090832D01*
X0366544Y0091832D01*
Y0092832D01*
X0367544Y0090832D02*
X0369543D01*
X0372542Y0093831D02*
X0376541D01*
Y0092832D01*
X0372542Y0088833D01*
Y0087833D01*
X0378540Y0092832D02*
X0379540Y0093831D01*
X0381539D01*
X0382539Y0092832D01*
Y0088833D01*
X0381539Y0087833D01*
X0379540D01*
X0378540Y0088833D01*
Y0092832D01*
X0384538Y0087833D02*
X0386538D01*
X0385538D01*
Y0093831D01*
X0384538Y0092832D01*
X0393535Y0093831D02*
X0389537D01*
Y0087833D01*
X0393535D01*
X0389537Y0090832D02*
X0391536D01*
X0395535Y0093831D02*
Y0089833D01*
X0397534Y0087833D01*
X0399534Y0089833D01*
Y0093831D01*
X0401533Y0087833D02*
Y0093831D01*
X0403532Y0091832D01*
X0405532Y0093831D01*
Y0087833D01*
X0294000Y0093831D02*
Y0087833D01*
X0296999D01*
X0297999Y0088833D01*
Y0089833D01*
X0296999Y0090832D01*
X0294000D01*
X0296999D01*
X0297999Y0091832D01*
Y0092832D01*
X0296999Y0093831D01*
X0294000D01*
X0302997D02*
X0300998D01*
X0299998Y0092832D01*
Y0088833D01*
X0300998Y0087833D01*
X0302997D01*
X0303997Y0088833D01*
Y0092832D01*
X0302997Y0093831D01*
X0305996Y0087833D02*
Y0091832D01*
X0307996Y0093831D01*
X0309995Y0091832D01*
Y0087833D01*
Y0090832D01*
X0305996D01*
X0311994Y0087833D02*
Y0093831D01*
X0314993D01*
X0315993Y0092832D01*
Y0090832D01*
X0314993Y0089833D01*
X0311994D01*
X0313994D02*
X0315993Y0087833D01*
X0317992Y0093831D02*
Y0087833D01*
X0320991D01*
X0321991Y0088833D01*
Y0092832D01*
X0320991Y0093831D01*
X0317992D01*
X0330988Y0087833D02*
Y0093831D01*
X0332987D02*
Y0087833D01*
X0329988Y0091832D02*
X0332987D01*
X0333987D01*
X0329988Y0089833D02*
X0333987D01*
X0335986Y0091832D02*
X0336986D01*
Y0090832D01*
X0335986D01*
Y0091832D01*
Y0088833D02*
X0336986D01*
Y0087833D01*
X0335986D01*
Y0088833D01*
X0046350Y0073549D02*
Y0067551D01*
X0050349D01*
X0052348D02*
Y0071549D01*
X0054347Y0073549D01*
X0056347Y0071549D01*
Y0067551D01*
Y0070550D01*
X0052348D01*
X0058346Y0073549D02*
Y0072549D01*
X0060346Y0070550D01*
X0062345Y0072549D01*
Y0073549D01*
X0060346Y0070550D02*
Y0067551D01*
X0068343Y0073549D02*
X0064344D01*
Y0067551D01*
X0068343D01*
X0064344Y0070550D02*
X0066343D01*
X0070342Y0067551D02*
Y0073549D01*
X0073341D01*
X0074341Y0072549D01*
Y0070550D01*
X0073341Y0069550D01*
X0070342D01*
X0072342D02*
X0074341Y0067551D01*
X0082338D02*
Y0073549D01*
X0086337Y0067551D01*
Y0073549D01*
X0088336Y0067551D02*
Y0071549D01*
X0090336Y0073549D01*
X0092335Y0071549D01*
Y0067551D01*
Y0070550D01*
X0088336D01*
X0094335Y0067551D02*
Y0073549D01*
X0096334Y0071549D01*
X0098333Y0073549D01*
Y0067551D01*
X0104331Y0073549D02*
X0100332D01*
Y0067551D01*
X0104331D01*
X0100332Y0070550D02*
X0102332D01*
X0112329Y0069550D02*
X0116327D01*
X0112329Y0071549D02*
X0116327D01*
X0046350Y0046966D02*
Y0052965D01*
X0049349D01*
X0050349Y0051965D01*
Y0049966D01*
X0049349Y0048966D01*
X0046350D01*
X0052348Y0052965D02*
Y0046966D01*
X0056347D01*
X0061345Y0052965D02*
X0059346D01*
X0058346Y0051965D01*
Y0047966D01*
X0059346Y0046966D01*
X0061345D01*
X0062345Y0047966D01*
Y0051965D01*
X0061345Y0052965D01*
X0064344D02*
X0068343D01*
X0066343D01*
Y0046966D01*
X0076340D02*
Y0052965D01*
X0080339Y0046966D01*
Y0052965D01*
X0082338Y0046966D02*
Y0050965D01*
X0084338Y0052965D01*
X0086337Y0050965D01*
Y0046966D01*
Y0049966D01*
X0082338D01*
X0088336Y0046966D02*
Y0052965D01*
X0090336Y0050965D01*
X0092335Y0052965D01*
Y0046966D01*
X0098333Y0052965D02*
X0094335D01*
Y0046966D01*
X0098333D01*
X0094335Y0049966D02*
X0096334D01*
X0106331Y0048966D02*
X0110329D01*
X0106331Y0050965D02*
X0110329D01*
X0458049Y0052965D02*
X0454050D01*
Y0049966D01*
X0456049Y0050965D01*
X0457049D01*
X0458049Y0049966D01*
Y0047966D01*
X0457049Y0046966D01*
X0455050D01*
X0454050Y0047966D01*
X0460048Y0050965D02*
X0461048D01*
Y0049966D01*
X0460048D01*
Y0050965D01*
Y0047966D02*
X0461048D01*
Y0046966D01*
X0460048D01*
Y0047966D01*
X0465046Y0051965D02*
X0466046Y0052965D01*
X0468046D01*
X0469045Y0051965D01*
Y0050965D01*
X0468046Y0049966D01*
X0467046D01*
X0468046D01*
X0469045Y0048966D01*
Y0047966D01*
X0468046Y0046966D01*
X0466046D01*
X0465046Y0047966D01*
X0471044Y0052965D02*
X0475043D01*
Y0051965D01*
X0471044Y0047966D01*
Y0046966D01*
X0477043Y0050965D02*
X0478042D01*
Y0049966D01*
X0477043D01*
Y0050965D01*
Y0047966D02*
X0478042D01*
Y0046966D01*
X0477043D01*
Y0047966D01*
X0482041Y0051965D02*
X0483041Y0052965D01*
X0485040D01*
X0486040Y0051965D01*
Y0050965D01*
X0485040Y0049966D01*
X0484040D01*
X0485040D01*
X0486040Y0048966D01*
Y0047966D01*
X0485040Y0046966D01*
X0483041D01*
X0482041Y0047966D01*
X0488039Y0051965D02*
X0489039Y0052965D01*
X0491038D01*
X0492038Y0051965D01*
Y0050965D01*
X0491038Y0049966D01*
X0492038Y0048966D01*
Y0047966D01*
X0491038Y0046966D01*
X0489039D01*
X0488039Y0047966D01*
Y0048966D01*
X0489039Y0049966D01*
X0488039Y0050965D01*
Y0051965D01*
X0489039Y0049966D02*
X0491038D01*
X0500035Y0046966D02*
Y0052965D01*
X0503034D01*
X0504034Y0051965D01*
Y0049966D01*
X0503034Y0048966D01*
X0500035D01*
X0506033Y0046966D02*
Y0052965D01*
X0508033Y0050965D01*
X0510032Y0052965D01*
Y0046966D01*
X0580500Y0052965D02*
X0584499D01*
X0582499D01*
Y0046966D01*
X0590497Y0052965D02*
X0586498D01*
Y0046966D01*
X0590497D01*
X0586498Y0049966D02*
X0588497D01*
X0592496Y0052965D02*
X0596495Y0046966D01*
Y0052965D02*
X0592496Y0046966D01*
X0598494D02*
Y0050965D01*
X0600493Y0052965D01*
X0602493Y0050965D01*
Y0046966D01*
Y0049966D01*
X0598494D01*
X0608491Y0051965D02*
X0607491Y0052965D01*
X0605492D01*
X0604492Y0051965D01*
Y0050965D01*
X0605492Y0049966D01*
X0607491D01*
X0608491Y0048966D01*
Y0047966D01*
X0607491Y0046966D01*
X0605492D01*
X0604492Y0047966D01*
X0616488Y0052965D02*
X0618488D01*
X0617488D01*
Y0046966D01*
X0616488D01*
X0618488D01*
X0621487D02*
Y0052965D01*
X0625486Y0046966D01*
Y0052965D01*
X0631484Y0051965D02*
X0630484Y0052965D01*
X0628484D01*
X0627485Y0051965D01*
Y0050965D01*
X0628484Y0049966D01*
X0630484D01*
X0631484Y0048966D01*
Y0047966D01*
X0630484Y0046966D01*
X0628484D01*
X0627485Y0047966D01*
X0633483Y0052965D02*
X0637482D01*
X0635482D01*
Y0046966D01*
X0639481D02*
Y0052965D01*
X0642480D01*
X0643480Y0051965D01*
Y0049966D01*
X0642480Y0048966D01*
X0639481D01*
X0641480D02*
X0643480Y0046966D01*
X0645479Y0052965D02*
Y0047966D01*
X0646479Y0046966D01*
X0648478D01*
X0649478Y0047966D01*
Y0052965D01*
X0651477Y0046966D02*
Y0052965D01*
X0653476Y0050965D01*
X0655476Y0052965D01*
Y0046966D01*
X0661474Y0052965D02*
X0657475D01*
Y0046966D01*
X0661474D01*
X0657475Y0049966D02*
X0659474D01*
X0663473Y0046966D02*
Y0052965D01*
X0667472Y0046966D01*
Y0052965D01*
X0669471D02*
X0673470D01*
X0671471D01*
Y0046966D01*
X0679468Y0051965D02*
X0678468Y0052965D01*
X0676469D01*
X0675469Y0051965D01*
Y0050965D01*
X0676469Y0049966D01*
X0678468D01*
X0679468Y0048966D01*
Y0047966D01*
X0678468Y0046966D01*
X0676469D01*
X0675469Y0047966D01*
G54D48*
X0207200Y0173900D02*
D03*
G54D49*
Y0183900D02*
D03*
X0217200Y0173900D02*
D03*
Y0183900D02*
D03*
X0227200Y0173900D02*
D03*
Y0183900D02*
D03*
X0237200Y0173900D02*
D03*
Y0183900D02*
D03*
X0247200Y0173900D02*
D03*
Y0183900D02*
D03*
X0257200Y0173900D02*
D03*
Y0183900D02*
D03*
G54D77*
X0331770Y0254400D02*
D03*
Y0249400D02*
D03*
Y0244400D02*
D03*
Y0239400D02*
D03*
X0352161Y0305310D02*
D03*
Y0310310D02*
D03*
Y0315310D02*
D03*
Y0320309D02*
D03*
X0352130Y0206400D02*
D03*
Y0211400D02*
D03*
Y0216400D02*
D03*
Y0221400D02*
D03*
X0331800Y0287310D02*
D03*
Y0282310D02*
D03*
Y0277309D02*
D03*
Y0272309D02*
D03*
G54D78*
X0353630Y0239400D02*
D03*
Y0244400D02*
D03*
Y0249400D02*
D03*
Y0254400D02*
D03*
X0330300Y0320309D02*
D03*
Y0315310D02*
D03*
Y0310310D02*
D03*
Y0305310D02*
D03*
X0330270Y0221400D02*
D03*
Y0216400D02*
D03*
Y0211400D02*
D03*
Y0206400D02*
D03*
X0353661Y0272309D02*
D03*
Y0277309D02*
D03*
Y0282310D02*
D03*
Y0287310D02*
D03*
G54D79*
X0093058Y0291487D02*
D03*
Y0327313D02*
D03*
X0075342Y0291487D02*
D03*
Y0327313D02*
D03*
G54D80*
X0113117Y0220534D02*
D03*
Y0217975D02*
D03*
Y0215416D02*
D03*
Y0212857D02*
D03*
Y0210298D02*
D03*
Y0207739D02*
D03*
Y0205180D02*
D03*
Y0202621D02*
D03*
Y0200061D02*
D03*
Y0197502D02*
D03*
Y0194943D02*
D03*
Y0192384D02*
D03*
Y0189825D02*
D03*
Y0187266D02*
D03*
X0140283Y0220534D02*
D03*
Y0217975D02*
D03*
Y0215416D02*
D03*
Y0212857D02*
D03*
Y0210298D02*
D03*
Y0207739D02*
D03*
Y0205180D02*
D03*
Y0202621D02*
D03*
Y0200061D02*
D03*
Y0197502D02*
D03*
Y0194943D02*
D03*
Y0192384D02*
D03*
Y0189825D02*
D03*
Y0187266D02*
D03*
G54D81*
X0237121Y0270880D02*
D03*
X0235153D02*
D03*
X0233184D02*
D03*
X0231216D02*
D03*
X0229247D02*
D03*
X0227279D02*
D03*
Y0255920D02*
D03*
X0229247D02*
D03*
X0231216D02*
D03*
X0233184D02*
D03*
X0235153D02*
D03*
X0237121D02*
D03*
G54D82*
X0224720Y0268321D02*
D03*
Y0266353D02*
D03*
Y0264384D02*
D03*
Y0262416D02*
D03*
Y0260447D02*
D03*
Y0258479D02*
D03*
X0239680D02*
D03*
Y0260447D02*
D03*
Y0262416D02*
D03*
Y0264384D02*
D03*
Y0266353D02*
D03*
Y0268321D02*
D03*
G54D83*
X0232200Y0263400D02*
D03*
G54D84*
X0123921Y0239884D02*
D03*
Y0242443D02*
D03*
Y0245002D02*
D03*
Y0247561D02*
D03*
Y0250120D02*
D03*
Y0252679D02*
D03*
Y0255239D02*
D03*
Y0257798D02*
D03*
Y0260357D02*
D03*
Y0262916D02*
D03*
X0101479Y0239884D02*
D03*
Y0242443D02*
D03*
Y0245002D02*
D03*
Y0247561D02*
D03*
Y0250120D02*
D03*
Y0252679D02*
D03*
Y0255239D02*
D03*
Y0257798D02*
D03*
Y0260357D02*
D03*
Y0262916D02*
D03*
G54D85*
X0075200Y0260766D02*
D03*
Y0269034D02*
D03*
X0198200Y0356266D02*
D03*
Y0364534D02*
D03*
X0379700Y0341266D02*
D03*
Y0349534D02*
D03*
X0214200Y0356266D02*
D03*
Y0364534D02*
D03*
G54D86*
X0411700Y0336400D02*
D03*
X0076700Y0190400D02*
D03*
X0411700D02*
D03*
G54D87*
X0086708Y0205695D02*
D03*
Y0230105D02*
D03*
G54D88*
X0076669Y0202152D02*
D03*
Y0233648D02*
D03*
G54D89*
X0076669Y0222624D02*
D03*
X0076669Y0213176D02*
D03*
G54D90*
X0087200Y0223018D02*
D03*
Y0220459D02*
D03*
Y0217900D02*
D03*
Y0215341D02*
D03*
Y0212782D02*
D03*
G54D91*
X0280692Y0263400D02*
D03*
X0304708D02*
D03*
G54D92*
X0241885Y0293900D02*
D03*
X0252515D02*
D03*
G54D93*
X0100700Y0213700D02*
D03*
Y0224700D02*
D03*
G54D94*
X0098020Y0274833D02*
D03*
Y0268927D02*
D03*
X0097700Y0199947D02*
D03*
Y0205853D02*
D03*
G54D95*
X0104700Y0201144D02*
D03*
Y0206656D02*
D03*
X0205200Y0259156D02*
D03*
Y0253644D02*
D03*
X0210700Y0259156D02*
D03*
Y0253644D02*
D03*
X0236200Y0290656D02*
D03*
Y0285144D02*
D03*
X0230200Y0282144D02*
D03*
Y0287656D02*
D03*
X0212200Y0284656D02*
D03*
Y0279144D02*
D03*
X0206200Y0279144D02*
D03*
Y0284656D02*
D03*
X0142200Y0254644D02*
D03*
Y0260156D02*
D03*
X0104920Y0274436D02*
D03*
Y0268924D02*
D03*
X0212070Y0293644D02*
D03*
Y0299156D02*
D03*
X0218200Y0284656D02*
D03*
Y0279144D02*
D03*
X0206070Y0293644D02*
D03*
Y0299156D02*
D03*
X0224200Y0279144D02*
D03*
Y0284656D02*
D03*
X0217200Y0157144D02*
D03*
Y0162656D02*
D03*
X0088200Y0257156D02*
D03*
Y0251644D02*
D03*
X0130221Y0349045D02*
D03*
Y0354556D02*
D03*
X0075200Y0249156D02*
D03*
Y0243644D02*
D03*
X0214200Y0345156D02*
D03*
Y0339644D02*
D03*
X0198200Y0345156D02*
D03*
Y0339644D02*
D03*
X0237200Y0162656D02*
D03*
Y0157144D02*
D03*
X0247200Y0162656D02*
D03*
Y0157144D02*
D03*
G54D96*
X0253700Y0263432D02*
D03*
Y0267369D02*
D03*
G54D97*
X0400456Y0335900D02*
D03*
X0394944D02*
D03*
X0349456Y0299400D02*
D03*
X0343944D02*
D03*
X0349456Y0227400D02*
D03*
X0343944D02*
D03*
X0247456Y0284900D02*
D03*
X0241944D02*
D03*
X0334444Y0266400D02*
D03*
X0339956D02*
D03*
X0334444Y0260400D02*
D03*
X0339956D02*
D03*
X0122456Y0229900D02*
D03*
X0116944D02*
D03*
X0108965Y0348800D02*
D03*
X0114477D02*
D03*
X0301944Y0335900D02*
D03*
X0307456D02*
D03*
X0307456Y0190900D02*
D03*
X0301944D02*
D03*
X0301944Y0290400D02*
D03*
X0307456D02*
D03*
X0307456Y0236400D02*
D03*
X0301944D02*
D03*
X0160444Y0308400D02*
D03*
X0165956D02*
D03*
X0136956Y0260400D02*
D03*
X0131444D02*
D03*
X0160444Y0298400D02*
D03*
X0165956D02*
D03*
X0160444Y0288400D02*
D03*
X0165956D02*
D03*
X0160444Y0278400D02*
D03*
X0165956D02*
D03*
X0124977Y0348800D02*
D03*
X0119465D02*
D03*
X0160444Y0268400D02*
D03*
X0165956D02*
D03*
X0160444Y0258400D02*
D03*
X0165956D02*
D03*
X0160444Y0248400D02*
D03*
X0165956D02*
D03*
X0160444Y0238400D02*
D03*
X0165956D02*
D03*
G54D98*
X0326747Y0327900D02*
D03*
X0332653D02*
D03*
X0327247Y0198900D02*
D03*
X0333153D02*
D03*
G54D99*
X0345923Y0246900D02*
D03*
X0338007Y0312809D02*
D03*
X0337977Y0213900D02*
D03*
X0345953Y0279809D02*
D03*
G54D100*
X0340357Y0355900D02*
D03*
X0379200Y0166900D02*
D03*
X0339200D02*
D03*
X0401700Y0272743D02*
D03*
G54D101*
X0360043Y0355900D02*
D03*
G54D102*
X0134200Y0158400D02*
D03*
X0144200D02*
D03*
X0154200D02*
D03*
X0124200D02*
D03*
G54D103*
X0213944Y0271400D02*
D03*
X0246700Y0306400D02*
D03*
X0236200Y0279400D02*
D03*
X0219944Y0271400D02*
D03*
G54D104*
X0401200Y0171400D02*
D03*
X0087700Y0354900D02*
D03*
X0401200Y0355400D02*
D03*
X0087200Y0171400D02*
D03*
G54D105*
X0298542Y0213900D02*
D03*
Y0312900D02*
D03*
G54D106*
X0278857Y0213900D02*
D03*
X0104700Y0299400D02*
D03*
Y0309400D02*
D03*
X0278857Y0312900D02*
D03*
G54D107*
X0319200Y0236400D02*
D03*
X0265700Y0263400D02*
D03*
X0319200Y0209400D02*
D03*
Y0263400D02*
D03*
X0378700Y0365900D02*
D03*
X0322200Y0365400D02*
D03*
X0319200Y0317400D02*
D03*
Y0344400D02*
D03*
Y0182400D02*
D03*
X0367200Y0279900D02*
D03*
Y0246900D02*
D03*
X0319200Y0290400D02*
D03*
G54D108*
X0194200Y0218400D02*
D03*
Y0228400D02*
D03*
Y0238400D02*
D03*
Y0248400D02*
D03*
Y0258400D02*
D03*
Y0268400D02*
D03*
Y0278400D02*
D03*
Y0288400D02*
D03*
Y0298400D02*
D03*
G54D109*
Y0308400D02*
D03*
G54D110*
X0104700Y0319400D02*
D03*
G54D111*
X0115221Y0359300D02*
D03*
G54D112*
X0125221D02*
D03*
X0120221D02*
D03*
X0130221D02*
D03*
G54D113*
X0152700Y0351400D02*
D03*
G54D114*
X0162700D02*
D03*
X0172700D02*
D03*
G54D115*
X0227672Y0263400D02*
D03*
X0232200Y0258872D02*
D03*
Y0267928D02*
D03*
X0236728Y0263400D02*
D03*
X0232200D02*
D03*
M02*
